G75*
%MOIN*%
%OFA0B0*%
%FSLAX25Y25*%
%IPPOS*%
%LPD*%
%AMOC8*
5,1,8,0,0,1.08239X$1,22.5*
%
%ADD10C,0.00000*%
%ADD11C,0.11200*%
%ADD12R,0.05118X0.06299*%
%ADD13C,0.00300*%
%ADD14C,0.00600*%
%ADD15R,0.05512X0.03937*%
%ADD16C,0.00400*%
%ADD17OC8,0.06000*%
%ADD18C,0.00800*%
%ADD19C,0.01433*%
%ADD20R,0.05512X0.07480*%
%ADD21R,0.05118X0.05906*%
%ADD22R,0.07800X0.02200*%
%ADD23C,0.11220*%
%ADD24C,0.10630*%
%ADD25C,0.02000*%
%ADD26R,0.05906X0.06299*%
%ADD27R,0.06300X0.02200*%
%ADD28R,0.06400X0.03500*%
%ADD29R,0.06400X0.12500*%
%ADD30C,0.09449*%
%ADD31R,0.06299X0.05118*%
%ADD32R,0.05906X0.05118*%
D10*
X0025762Y0001800D02*
X0025762Y0331800D01*
X0450762Y0331800D01*
X0450762Y0001800D01*
X0025762Y0001800D01*
X0035162Y0016800D02*
X0035164Y0016949D01*
X0035170Y0017098D01*
X0035180Y0017247D01*
X0035194Y0017395D01*
X0035212Y0017543D01*
X0035233Y0017691D01*
X0035259Y0017838D01*
X0035289Y0017984D01*
X0035322Y0018129D01*
X0035359Y0018273D01*
X0035400Y0018417D01*
X0035445Y0018559D01*
X0035494Y0018700D01*
X0035547Y0018839D01*
X0035603Y0018977D01*
X0035662Y0019114D01*
X0035726Y0019249D01*
X0035793Y0019382D01*
X0035863Y0019513D01*
X0035937Y0019643D01*
X0036015Y0019770D01*
X0036095Y0019896D01*
X0036180Y0020019D01*
X0036267Y0020140D01*
X0036357Y0020258D01*
X0036451Y0020374D01*
X0036548Y0020488D01*
X0036647Y0020599D01*
X0036750Y0020707D01*
X0036855Y0020812D01*
X0036963Y0020915D01*
X0037074Y0021014D01*
X0037188Y0021111D01*
X0037304Y0021205D01*
X0037422Y0021295D01*
X0037543Y0021382D01*
X0037666Y0021467D01*
X0037792Y0021547D01*
X0037919Y0021625D01*
X0038049Y0021699D01*
X0038180Y0021769D01*
X0038313Y0021836D01*
X0038448Y0021900D01*
X0038585Y0021959D01*
X0038723Y0022015D01*
X0038862Y0022068D01*
X0039003Y0022117D01*
X0039145Y0022162D01*
X0039289Y0022203D01*
X0039433Y0022240D01*
X0039578Y0022273D01*
X0039724Y0022303D01*
X0039871Y0022329D01*
X0040019Y0022350D01*
X0040167Y0022368D01*
X0040315Y0022382D01*
X0040464Y0022392D01*
X0040613Y0022398D01*
X0040762Y0022400D01*
X0040911Y0022398D01*
X0041060Y0022392D01*
X0041209Y0022382D01*
X0041357Y0022368D01*
X0041505Y0022350D01*
X0041653Y0022329D01*
X0041800Y0022303D01*
X0041946Y0022273D01*
X0042091Y0022240D01*
X0042235Y0022203D01*
X0042379Y0022162D01*
X0042521Y0022117D01*
X0042662Y0022068D01*
X0042801Y0022015D01*
X0042939Y0021959D01*
X0043076Y0021900D01*
X0043211Y0021836D01*
X0043344Y0021769D01*
X0043475Y0021699D01*
X0043605Y0021625D01*
X0043732Y0021547D01*
X0043858Y0021467D01*
X0043981Y0021382D01*
X0044102Y0021295D01*
X0044220Y0021205D01*
X0044336Y0021111D01*
X0044450Y0021014D01*
X0044561Y0020915D01*
X0044669Y0020812D01*
X0044774Y0020707D01*
X0044877Y0020599D01*
X0044976Y0020488D01*
X0045073Y0020374D01*
X0045167Y0020258D01*
X0045257Y0020140D01*
X0045344Y0020019D01*
X0045429Y0019896D01*
X0045509Y0019770D01*
X0045587Y0019643D01*
X0045661Y0019513D01*
X0045731Y0019382D01*
X0045798Y0019249D01*
X0045862Y0019114D01*
X0045921Y0018977D01*
X0045977Y0018839D01*
X0046030Y0018700D01*
X0046079Y0018559D01*
X0046124Y0018417D01*
X0046165Y0018273D01*
X0046202Y0018129D01*
X0046235Y0017984D01*
X0046265Y0017838D01*
X0046291Y0017691D01*
X0046312Y0017543D01*
X0046330Y0017395D01*
X0046344Y0017247D01*
X0046354Y0017098D01*
X0046360Y0016949D01*
X0046362Y0016800D01*
X0046360Y0016651D01*
X0046354Y0016502D01*
X0046344Y0016353D01*
X0046330Y0016205D01*
X0046312Y0016057D01*
X0046291Y0015909D01*
X0046265Y0015762D01*
X0046235Y0015616D01*
X0046202Y0015471D01*
X0046165Y0015327D01*
X0046124Y0015183D01*
X0046079Y0015041D01*
X0046030Y0014900D01*
X0045977Y0014761D01*
X0045921Y0014623D01*
X0045862Y0014486D01*
X0045798Y0014351D01*
X0045731Y0014218D01*
X0045661Y0014087D01*
X0045587Y0013957D01*
X0045509Y0013830D01*
X0045429Y0013704D01*
X0045344Y0013581D01*
X0045257Y0013460D01*
X0045167Y0013342D01*
X0045073Y0013226D01*
X0044976Y0013112D01*
X0044877Y0013001D01*
X0044774Y0012893D01*
X0044669Y0012788D01*
X0044561Y0012685D01*
X0044450Y0012586D01*
X0044336Y0012489D01*
X0044220Y0012395D01*
X0044102Y0012305D01*
X0043981Y0012218D01*
X0043858Y0012133D01*
X0043732Y0012053D01*
X0043605Y0011975D01*
X0043475Y0011901D01*
X0043344Y0011831D01*
X0043211Y0011764D01*
X0043076Y0011700D01*
X0042939Y0011641D01*
X0042801Y0011585D01*
X0042662Y0011532D01*
X0042521Y0011483D01*
X0042379Y0011438D01*
X0042235Y0011397D01*
X0042091Y0011360D01*
X0041946Y0011327D01*
X0041800Y0011297D01*
X0041653Y0011271D01*
X0041505Y0011250D01*
X0041357Y0011232D01*
X0041209Y0011218D01*
X0041060Y0011208D01*
X0040911Y0011202D01*
X0040762Y0011200D01*
X0040613Y0011202D01*
X0040464Y0011208D01*
X0040315Y0011218D01*
X0040167Y0011232D01*
X0040019Y0011250D01*
X0039871Y0011271D01*
X0039724Y0011297D01*
X0039578Y0011327D01*
X0039433Y0011360D01*
X0039289Y0011397D01*
X0039145Y0011438D01*
X0039003Y0011483D01*
X0038862Y0011532D01*
X0038723Y0011585D01*
X0038585Y0011641D01*
X0038448Y0011700D01*
X0038313Y0011764D01*
X0038180Y0011831D01*
X0038049Y0011901D01*
X0037919Y0011975D01*
X0037792Y0012053D01*
X0037666Y0012133D01*
X0037543Y0012218D01*
X0037422Y0012305D01*
X0037304Y0012395D01*
X0037188Y0012489D01*
X0037074Y0012586D01*
X0036963Y0012685D01*
X0036855Y0012788D01*
X0036750Y0012893D01*
X0036647Y0013001D01*
X0036548Y0013112D01*
X0036451Y0013226D01*
X0036357Y0013342D01*
X0036267Y0013460D01*
X0036180Y0013581D01*
X0036095Y0013704D01*
X0036015Y0013830D01*
X0035937Y0013957D01*
X0035863Y0014087D01*
X0035793Y0014218D01*
X0035726Y0014351D01*
X0035662Y0014486D01*
X0035603Y0014623D01*
X0035547Y0014761D01*
X0035494Y0014900D01*
X0035445Y0015041D01*
X0035400Y0015183D01*
X0035359Y0015327D01*
X0035322Y0015471D01*
X0035289Y0015616D01*
X0035259Y0015762D01*
X0035233Y0015909D01*
X0035212Y0016057D01*
X0035194Y0016205D01*
X0035180Y0016353D01*
X0035170Y0016502D01*
X0035164Y0016651D01*
X0035162Y0016800D01*
X0164562Y0107000D02*
X0164564Y0107069D01*
X0164570Y0107137D01*
X0164580Y0107205D01*
X0164593Y0107272D01*
X0164611Y0107338D01*
X0164632Y0107403D01*
X0164657Y0107467D01*
X0164685Y0107529D01*
X0164717Y0107590D01*
X0164752Y0107649D01*
X0164791Y0107705D01*
X0164833Y0107760D01*
X0164878Y0107811D01*
X0164926Y0107861D01*
X0164976Y0107907D01*
X0165029Y0107950D01*
X0165085Y0107991D01*
X0165142Y0108028D01*
X0165202Y0108061D01*
X0165264Y0108092D01*
X0165327Y0108118D01*
X0165391Y0108141D01*
X0165457Y0108161D01*
X0165524Y0108176D01*
X0165591Y0108188D01*
X0165659Y0108196D01*
X0165728Y0108200D01*
X0165796Y0108200D01*
X0165865Y0108196D01*
X0165933Y0108188D01*
X0166000Y0108176D01*
X0166067Y0108161D01*
X0166133Y0108141D01*
X0166197Y0108118D01*
X0166260Y0108092D01*
X0166322Y0108061D01*
X0166382Y0108028D01*
X0166439Y0107991D01*
X0166495Y0107950D01*
X0166548Y0107907D01*
X0166598Y0107861D01*
X0166646Y0107811D01*
X0166691Y0107760D01*
X0166733Y0107705D01*
X0166772Y0107649D01*
X0166807Y0107590D01*
X0166839Y0107529D01*
X0166867Y0107467D01*
X0166892Y0107403D01*
X0166913Y0107338D01*
X0166931Y0107272D01*
X0166944Y0107205D01*
X0166954Y0107137D01*
X0166960Y0107069D01*
X0166962Y0107000D01*
X0314562Y0192200D02*
X0314564Y0192269D01*
X0314570Y0192337D01*
X0314580Y0192405D01*
X0314593Y0192472D01*
X0314611Y0192538D01*
X0314632Y0192603D01*
X0314657Y0192667D01*
X0314685Y0192729D01*
X0314717Y0192790D01*
X0314752Y0192849D01*
X0314791Y0192905D01*
X0314833Y0192960D01*
X0314878Y0193011D01*
X0314926Y0193061D01*
X0314976Y0193107D01*
X0315029Y0193150D01*
X0315085Y0193191D01*
X0315142Y0193228D01*
X0315202Y0193261D01*
X0315264Y0193292D01*
X0315327Y0193318D01*
X0315391Y0193341D01*
X0315457Y0193361D01*
X0315524Y0193376D01*
X0315591Y0193388D01*
X0315659Y0193396D01*
X0315728Y0193400D01*
X0315796Y0193400D01*
X0315865Y0193396D01*
X0315933Y0193388D01*
X0316000Y0193376D01*
X0316067Y0193361D01*
X0316133Y0193341D01*
X0316197Y0193318D01*
X0316260Y0193292D01*
X0316322Y0193261D01*
X0316382Y0193228D01*
X0316439Y0193191D01*
X0316495Y0193150D01*
X0316548Y0193107D01*
X0316598Y0193061D01*
X0316646Y0193011D01*
X0316691Y0192960D01*
X0316733Y0192905D01*
X0316772Y0192849D01*
X0316807Y0192790D01*
X0316839Y0192729D01*
X0316867Y0192667D01*
X0316892Y0192603D01*
X0316913Y0192538D01*
X0316931Y0192472D01*
X0316944Y0192405D01*
X0316954Y0192337D01*
X0316960Y0192269D01*
X0316962Y0192200D01*
X0409719Y0205225D02*
X0409721Y0205374D01*
X0409727Y0205524D01*
X0409737Y0205673D01*
X0409751Y0205821D01*
X0409769Y0205970D01*
X0409790Y0206117D01*
X0409816Y0206264D01*
X0409846Y0206411D01*
X0409879Y0206556D01*
X0409917Y0206701D01*
X0409958Y0206845D01*
X0410003Y0206987D01*
X0410052Y0207128D01*
X0410104Y0207268D01*
X0410160Y0207406D01*
X0410220Y0207543D01*
X0410284Y0207678D01*
X0410351Y0207812D01*
X0410422Y0207943D01*
X0410496Y0208073D01*
X0410573Y0208201D01*
X0410654Y0208326D01*
X0410738Y0208450D01*
X0410826Y0208571D01*
X0410916Y0208689D01*
X0411010Y0208806D01*
X0411107Y0208919D01*
X0411207Y0209030D01*
X0411310Y0209139D01*
X0411415Y0209244D01*
X0411524Y0209347D01*
X0411635Y0209447D01*
X0411748Y0209544D01*
X0411865Y0209638D01*
X0411983Y0209728D01*
X0412104Y0209816D01*
X0412228Y0209900D01*
X0412353Y0209981D01*
X0412481Y0210058D01*
X0412611Y0210132D01*
X0412742Y0210203D01*
X0412876Y0210270D01*
X0413011Y0210334D01*
X0413148Y0210394D01*
X0413286Y0210450D01*
X0413426Y0210502D01*
X0413567Y0210551D01*
X0413709Y0210596D01*
X0413853Y0210637D01*
X0413998Y0210675D01*
X0414143Y0210708D01*
X0414290Y0210738D01*
X0414437Y0210764D01*
X0414584Y0210785D01*
X0414733Y0210803D01*
X0414881Y0210817D01*
X0415030Y0210827D01*
X0415180Y0210833D01*
X0415329Y0210835D01*
X0415478Y0210833D01*
X0415628Y0210827D01*
X0415777Y0210817D01*
X0415925Y0210803D01*
X0416074Y0210785D01*
X0416221Y0210764D01*
X0416368Y0210738D01*
X0416515Y0210708D01*
X0416660Y0210675D01*
X0416805Y0210637D01*
X0416949Y0210596D01*
X0417091Y0210551D01*
X0417232Y0210502D01*
X0417372Y0210450D01*
X0417510Y0210394D01*
X0417647Y0210334D01*
X0417782Y0210270D01*
X0417916Y0210203D01*
X0418047Y0210132D01*
X0418177Y0210058D01*
X0418305Y0209981D01*
X0418430Y0209900D01*
X0418554Y0209816D01*
X0418675Y0209728D01*
X0418793Y0209638D01*
X0418910Y0209544D01*
X0419023Y0209447D01*
X0419134Y0209347D01*
X0419243Y0209244D01*
X0419348Y0209139D01*
X0419451Y0209030D01*
X0419551Y0208919D01*
X0419648Y0208806D01*
X0419742Y0208689D01*
X0419832Y0208571D01*
X0419920Y0208450D01*
X0420004Y0208326D01*
X0420085Y0208201D01*
X0420162Y0208073D01*
X0420236Y0207943D01*
X0420307Y0207812D01*
X0420374Y0207678D01*
X0420438Y0207543D01*
X0420498Y0207406D01*
X0420554Y0207268D01*
X0420606Y0207128D01*
X0420655Y0206987D01*
X0420700Y0206845D01*
X0420741Y0206701D01*
X0420779Y0206556D01*
X0420812Y0206411D01*
X0420842Y0206264D01*
X0420868Y0206117D01*
X0420889Y0205970D01*
X0420907Y0205821D01*
X0420921Y0205673D01*
X0420931Y0205524D01*
X0420937Y0205374D01*
X0420939Y0205225D01*
X0420937Y0205076D01*
X0420931Y0204926D01*
X0420921Y0204777D01*
X0420907Y0204629D01*
X0420889Y0204480D01*
X0420868Y0204333D01*
X0420842Y0204186D01*
X0420812Y0204039D01*
X0420779Y0203894D01*
X0420741Y0203749D01*
X0420700Y0203605D01*
X0420655Y0203463D01*
X0420606Y0203322D01*
X0420554Y0203182D01*
X0420498Y0203044D01*
X0420438Y0202907D01*
X0420374Y0202772D01*
X0420307Y0202638D01*
X0420236Y0202507D01*
X0420162Y0202377D01*
X0420085Y0202249D01*
X0420004Y0202124D01*
X0419920Y0202000D01*
X0419832Y0201879D01*
X0419742Y0201761D01*
X0419648Y0201644D01*
X0419551Y0201531D01*
X0419451Y0201420D01*
X0419348Y0201311D01*
X0419243Y0201206D01*
X0419134Y0201103D01*
X0419023Y0201003D01*
X0418910Y0200906D01*
X0418793Y0200812D01*
X0418675Y0200722D01*
X0418554Y0200634D01*
X0418430Y0200550D01*
X0418305Y0200469D01*
X0418177Y0200392D01*
X0418047Y0200318D01*
X0417916Y0200247D01*
X0417782Y0200180D01*
X0417647Y0200116D01*
X0417510Y0200056D01*
X0417372Y0200000D01*
X0417232Y0199948D01*
X0417091Y0199899D01*
X0416949Y0199854D01*
X0416805Y0199813D01*
X0416660Y0199775D01*
X0416515Y0199742D01*
X0416368Y0199712D01*
X0416221Y0199686D01*
X0416074Y0199665D01*
X0415925Y0199647D01*
X0415777Y0199633D01*
X0415628Y0199623D01*
X0415478Y0199617D01*
X0415329Y0199615D01*
X0415180Y0199617D01*
X0415030Y0199623D01*
X0414881Y0199633D01*
X0414733Y0199647D01*
X0414584Y0199665D01*
X0414437Y0199686D01*
X0414290Y0199712D01*
X0414143Y0199742D01*
X0413998Y0199775D01*
X0413853Y0199813D01*
X0413709Y0199854D01*
X0413567Y0199899D01*
X0413426Y0199948D01*
X0413286Y0200000D01*
X0413148Y0200056D01*
X0413011Y0200116D01*
X0412876Y0200180D01*
X0412742Y0200247D01*
X0412611Y0200318D01*
X0412481Y0200392D01*
X0412353Y0200469D01*
X0412228Y0200550D01*
X0412104Y0200634D01*
X0411983Y0200722D01*
X0411865Y0200812D01*
X0411748Y0200906D01*
X0411635Y0201003D01*
X0411524Y0201103D01*
X0411415Y0201206D01*
X0411310Y0201311D01*
X0411207Y0201420D01*
X0411107Y0201531D01*
X0411010Y0201644D01*
X0410916Y0201761D01*
X0410826Y0201879D01*
X0410738Y0202000D01*
X0410654Y0202124D01*
X0410573Y0202249D01*
X0410496Y0202377D01*
X0410422Y0202507D01*
X0410351Y0202638D01*
X0410284Y0202772D01*
X0410220Y0202907D01*
X0410160Y0203044D01*
X0410104Y0203182D01*
X0410052Y0203322D01*
X0410003Y0203463D01*
X0409958Y0203605D01*
X0409917Y0203749D01*
X0409879Y0203894D01*
X0409846Y0204039D01*
X0409816Y0204186D01*
X0409790Y0204333D01*
X0409769Y0204480D01*
X0409751Y0204629D01*
X0409737Y0204777D01*
X0409727Y0204926D01*
X0409721Y0205076D01*
X0409719Y0205225D01*
X0409719Y0122548D02*
X0409721Y0122697D01*
X0409727Y0122847D01*
X0409737Y0122996D01*
X0409751Y0123144D01*
X0409769Y0123293D01*
X0409790Y0123440D01*
X0409816Y0123587D01*
X0409846Y0123734D01*
X0409879Y0123879D01*
X0409917Y0124024D01*
X0409958Y0124168D01*
X0410003Y0124310D01*
X0410052Y0124451D01*
X0410104Y0124591D01*
X0410160Y0124729D01*
X0410220Y0124866D01*
X0410284Y0125001D01*
X0410351Y0125135D01*
X0410422Y0125266D01*
X0410496Y0125396D01*
X0410573Y0125524D01*
X0410654Y0125649D01*
X0410738Y0125773D01*
X0410826Y0125894D01*
X0410916Y0126012D01*
X0411010Y0126129D01*
X0411107Y0126242D01*
X0411207Y0126353D01*
X0411310Y0126462D01*
X0411415Y0126567D01*
X0411524Y0126670D01*
X0411635Y0126770D01*
X0411748Y0126867D01*
X0411865Y0126961D01*
X0411983Y0127051D01*
X0412104Y0127139D01*
X0412228Y0127223D01*
X0412353Y0127304D01*
X0412481Y0127381D01*
X0412611Y0127455D01*
X0412742Y0127526D01*
X0412876Y0127593D01*
X0413011Y0127657D01*
X0413148Y0127717D01*
X0413286Y0127773D01*
X0413426Y0127825D01*
X0413567Y0127874D01*
X0413709Y0127919D01*
X0413853Y0127960D01*
X0413998Y0127998D01*
X0414143Y0128031D01*
X0414290Y0128061D01*
X0414437Y0128087D01*
X0414584Y0128108D01*
X0414733Y0128126D01*
X0414881Y0128140D01*
X0415030Y0128150D01*
X0415180Y0128156D01*
X0415329Y0128158D01*
X0415478Y0128156D01*
X0415628Y0128150D01*
X0415777Y0128140D01*
X0415925Y0128126D01*
X0416074Y0128108D01*
X0416221Y0128087D01*
X0416368Y0128061D01*
X0416515Y0128031D01*
X0416660Y0127998D01*
X0416805Y0127960D01*
X0416949Y0127919D01*
X0417091Y0127874D01*
X0417232Y0127825D01*
X0417372Y0127773D01*
X0417510Y0127717D01*
X0417647Y0127657D01*
X0417782Y0127593D01*
X0417916Y0127526D01*
X0418047Y0127455D01*
X0418177Y0127381D01*
X0418305Y0127304D01*
X0418430Y0127223D01*
X0418554Y0127139D01*
X0418675Y0127051D01*
X0418793Y0126961D01*
X0418910Y0126867D01*
X0419023Y0126770D01*
X0419134Y0126670D01*
X0419243Y0126567D01*
X0419348Y0126462D01*
X0419451Y0126353D01*
X0419551Y0126242D01*
X0419648Y0126129D01*
X0419742Y0126012D01*
X0419832Y0125894D01*
X0419920Y0125773D01*
X0420004Y0125649D01*
X0420085Y0125524D01*
X0420162Y0125396D01*
X0420236Y0125266D01*
X0420307Y0125135D01*
X0420374Y0125001D01*
X0420438Y0124866D01*
X0420498Y0124729D01*
X0420554Y0124591D01*
X0420606Y0124451D01*
X0420655Y0124310D01*
X0420700Y0124168D01*
X0420741Y0124024D01*
X0420779Y0123879D01*
X0420812Y0123734D01*
X0420842Y0123587D01*
X0420868Y0123440D01*
X0420889Y0123293D01*
X0420907Y0123144D01*
X0420921Y0122996D01*
X0420931Y0122847D01*
X0420937Y0122697D01*
X0420939Y0122548D01*
X0420937Y0122399D01*
X0420931Y0122249D01*
X0420921Y0122100D01*
X0420907Y0121952D01*
X0420889Y0121803D01*
X0420868Y0121656D01*
X0420842Y0121509D01*
X0420812Y0121362D01*
X0420779Y0121217D01*
X0420741Y0121072D01*
X0420700Y0120928D01*
X0420655Y0120786D01*
X0420606Y0120645D01*
X0420554Y0120505D01*
X0420498Y0120367D01*
X0420438Y0120230D01*
X0420374Y0120095D01*
X0420307Y0119961D01*
X0420236Y0119830D01*
X0420162Y0119700D01*
X0420085Y0119572D01*
X0420004Y0119447D01*
X0419920Y0119323D01*
X0419832Y0119202D01*
X0419742Y0119084D01*
X0419648Y0118967D01*
X0419551Y0118854D01*
X0419451Y0118743D01*
X0419348Y0118634D01*
X0419243Y0118529D01*
X0419134Y0118426D01*
X0419023Y0118326D01*
X0418910Y0118229D01*
X0418793Y0118135D01*
X0418675Y0118045D01*
X0418554Y0117957D01*
X0418430Y0117873D01*
X0418305Y0117792D01*
X0418177Y0117715D01*
X0418047Y0117641D01*
X0417916Y0117570D01*
X0417782Y0117503D01*
X0417647Y0117439D01*
X0417510Y0117379D01*
X0417372Y0117323D01*
X0417232Y0117271D01*
X0417091Y0117222D01*
X0416949Y0117177D01*
X0416805Y0117136D01*
X0416660Y0117098D01*
X0416515Y0117065D01*
X0416368Y0117035D01*
X0416221Y0117009D01*
X0416074Y0116988D01*
X0415925Y0116970D01*
X0415777Y0116956D01*
X0415628Y0116946D01*
X0415478Y0116940D01*
X0415329Y0116938D01*
X0415180Y0116940D01*
X0415030Y0116946D01*
X0414881Y0116956D01*
X0414733Y0116970D01*
X0414584Y0116988D01*
X0414437Y0117009D01*
X0414290Y0117035D01*
X0414143Y0117065D01*
X0413998Y0117098D01*
X0413853Y0117136D01*
X0413709Y0117177D01*
X0413567Y0117222D01*
X0413426Y0117271D01*
X0413286Y0117323D01*
X0413148Y0117379D01*
X0413011Y0117439D01*
X0412876Y0117503D01*
X0412742Y0117570D01*
X0412611Y0117641D01*
X0412481Y0117715D01*
X0412353Y0117792D01*
X0412228Y0117873D01*
X0412104Y0117957D01*
X0411983Y0118045D01*
X0411865Y0118135D01*
X0411748Y0118229D01*
X0411635Y0118326D01*
X0411524Y0118426D01*
X0411415Y0118529D01*
X0411310Y0118634D01*
X0411207Y0118743D01*
X0411107Y0118854D01*
X0411010Y0118967D01*
X0410916Y0119084D01*
X0410826Y0119202D01*
X0410738Y0119323D01*
X0410654Y0119447D01*
X0410573Y0119572D01*
X0410496Y0119700D01*
X0410422Y0119830D01*
X0410351Y0119961D01*
X0410284Y0120095D01*
X0410220Y0120230D01*
X0410160Y0120367D01*
X0410104Y0120505D01*
X0410052Y0120645D01*
X0410003Y0120786D01*
X0409958Y0120928D01*
X0409917Y0121072D01*
X0409879Y0121217D01*
X0409846Y0121362D01*
X0409816Y0121509D01*
X0409790Y0121656D01*
X0409769Y0121803D01*
X0409751Y0121952D01*
X0409737Y0122100D01*
X0409727Y0122249D01*
X0409721Y0122399D01*
X0409719Y0122548D01*
X0430162Y0016800D02*
X0430164Y0016949D01*
X0430170Y0017098D01*
X0430180Y0017247D01*
X0430194Y0017395D01*
X0430212Y0017543D01*
X0430233Y0017691D01*
X0430259Y0017838D01*
X0430289Y0017984D01*
X0430322Y0018129D01*
X0430359Y0018273D01*
X0430400Y0018417D01*
X0430445Y0018559D01*
X0430494Y0018700D01*
X0430547Y0018839D01*
X0430603Y0018977D01*
X0430662Y0019114D01*
X0430726Y0019249D01*
X0430793Y0019382D01*
X0430863Y0019513D01*
X0430937Y0019643D01*
X0431015Y0019770D01*
X0431095Y0019896D01*
X0431180Y0020019D01*
X0431267Y0020140D01*
X0431357Y0020258D01*
X0431451Y0020374D01*
X0431548Y0020488D01*
X0431647Y0020599D01*
X0431750Y0020707D01*
X0431855Y0020812D01*
X0431963Y0020915D01*
X0432074Y0021014D01*
X0432188Y0021111D01*
X0432304Y0021205D01*
X0432422Y0021295D01*
X0432543Y0021382D01*
X0432666Y0021467D01*
X0432792Y0021547D01*
X0432919Y0021625D01*
X0433049Y0021699D01*
X0433180Y0021769D01*
X0433313Y0021836D01*
X0433448Y0021900D01*
X0433585Y0021959D01*
X0433723Y0022015D01*
X0433862Y0022068D01*
X0434003Y0022117D01*
X0434145Y0022162D01*
X0434289Y0022203D01*
X0434433Y0022240D01*
X0434578Y0022273D01*
X0434724Y0022303D01*
X0434871Y0022329D01*
X0435019Y0022350D01*
X0435167Y0022368D01*
X0435315Y0022382D01*
X0435464Y0022392D01*
X0435613Y0022398D01*
X0435762Y0022400D01*
X0435911Y0022398D01*
X0436060Y0022392D01*
X0436209Y0022382D01*
X0436357Y0022368D01*
X0436505Y0022350D01*
X0436653Y0022329D01*
X0436800Y0022303D01*
X0436946Y0022273D01*
X0437091Y0022240D01*
X0437235Y0022203D01*
X0437379Y0022162D01*
X0437521Y0022117D01*
X0437662Y0022068D01*
X0437801Y0022015D01*
X0437939Y0021959D01*
X0438076Y0021900D01*
X0438211Y0021836D01*
X0438344Y0021769D01*
X0438475Y0021699D01*
X0438605Y0021625D01*
X0438732Y0021547D01*
X0438858Y0021467D01*
X0438981Y0021382D01*
X0439102Y0021295D01*
X0439220Y0021205D01*
X0439336Y0021111D01*
X0439450Y0021014D01*
X0439561Y0020915D01*
X0439669Y0020812D01*
X0439774Y0020707D01*
X0439877Y0020599D01*
X0439976Y0020488D01*
X0440073Y0020374D01*
X0440167Y0020258D01*
X0440257Y0020140D01*
X0440344Y0020019D01*
X0440429Y0019896D01*
X0440509Y0019770D01*
X0440587Y0019643D01*
X0440661Y0019513D01*
X0440731Y0019382D01*
X0440798Y0019249D01*
X0440862Y0019114D01*
X0440921Y0018977D01*
X0440977Y0018839D01*
X0441030Y0018700D01*
X0441079Y0018559D01*
X0441124Y0018417D01*
X0441165Y0018273D01*
X0441202Y0018129D01*
X0441235Y0017984D01*
X0441265Y0017838D01*
X0441291Y0017691D01*
X0441312Y0017543D01*
X0441330Y0017395D01*
X0441344Y0017247D01*
X0441354Y0017098D01*
X0441360Y0016949D01*
X0441362Y0016800D01*
X0441360Y0016651D01*
X0441354Y0016502D01*
X0441344Y0016353D01*
X0441330Y0016205D01*
X0441312Y0016057D01*
X0441291Y0015909D01*
X0441265Y0015762D01*
X0441235Y0015616D01*
X0441202Y0015471D01*
X0441165Y0015327D01*
X0441124Y0015183D01*
X0441079Y0015041D01*
X0441030Y0014900D01*
X0440977Y0014761D01*
X0440921Y0014623D01*
X0440862Y0014486D01*
X0440798Y0014351D01*
X0440731Y0014218D01*
X0440661Y0014087D01*
X0440587Y0013957D01*
X0440509Y0013830D01*
X0440429Y0013704D01*
X0440344Y0013581D01*
X0440257Y0013460D01*
X0440167Y0013342D01*
X0440073Y0013226D01*
X0439976Y0013112D01*
X0439877Y0013001D01*
X0439774Y0012893D01*
X0439669Y0012788D01*
X0439561Y0012685D01*
X0439450Y0012586D01*
X0439336Y0012489D01*
X0439220Y0012395D01*
X0439102Y0012305D01*
X0438981Y0012218D01*
X0438858Y0012133D01*
X0438732Y0012053D01*
X0438605Y0011975D01*
X0438475Y0011901D01*
X0438344Y0011831D01*
X0438211Y0011764D01*
X0438076Y0011700D01*
X0437939Y0011641D01*
X0437801Y0011585D01*
X0437662Y0011532D01*
X0437521Y0011483D01*
X0437379Y0011438D01*
X0437235Y0011397D01*
X0437091Y0011360D01*
X0436946Y0011327D01*
X0436800Y0011297D01*
X0436653Y0011271D01*
X0436505Y0011250D01*
X0436357Y0011232D01*
X0436209Y0011218D01*
X0436060Y0011208D01*
X0435911Y0011202D01*
X0435762Y0011200D01*
X0435613Y0011202D01*
X0435464Y0011208D01*
X0435315Y0011218D01*
X0435167Y0011232D01*
X0435019Y0011250D01*
X0434871Y0011271D01*
X0434724Y0011297D01*
X0434578Y0011327D01*
X0434433Y0011360D01*
X0434289Y0011397D01*
X0434145Y0011438D01*
X0434003Y0011483D01*
X0433862Y0011532D01*
X0433723Y0011585D01*
X0433585Y0011641D01*
X0433448Y0011700D01*
X0433313Y0011764D01*
X0433180Y0011831D01*
X0433049Y0011901D01*
X0432919Y0011975D01*
X0432792Y0012053D01*
X0432666Y0012133D01*
X0432543Y0012218D01*
X0432422Y0012305D01*
X0432304Y0012395D01*
X0432188Y0012489D01*
X0432074Y0012586D01*
X0431963Y0012685D01*
X0431855Y0012788D01*
X0431750Y0012893D01*
X0431647Y0013001D01*
X0431548Y0013112D01*
X0431451Y0013226D01*
X0431357Y0013342D01*
X0431267Y0013460D01*
X0431180Y0013581D01*
X0431095Y0013704D01*
X0431015Y0013830D01*
X0430937Y0013957D01*
X0430863Y0014087D01*
X0430793Y0014218D01*
X0430726Y0014351D01*
X0430662Y0014486D01*
X0430603Y0014623D01*
X0430547Y0014761D01*
X0430494Y0014900D01*
X0430445Y0015041D01*
X0430400Y0015183D01*
X0430359Y0015327D01*
X0430322Y0015471D01*
X0430289Y0015616D01*
X0430259Y0015762D01*
X0430233Y0015909D01*
X0430212Y0016057D01*
X0430194Y0016205D01*
X0430180Y0016353D01*
X0430170Y0016502D01*
X0430164Y0016651D01*
X0430162Y0016800D01*
X0430162Y0316800D02*
X0430164Y0316949D01*
X0430170Y0317098D01*
X0430180Y0317247D01*
X0430194Y0317395D01*
X0430212Y0317543D01*
X0430233Y0317691D01*
X0430259Y0317838D01*
X0430289Y0317984D01*
X0430322Y0318129D01*
X0430359Y0318273D01*
X0430400Y0318417D01*
X0430445Y0318559D01*
X0430494Y0318700D01*
X0430547Y0318839D01*
X0430603Y0318977D01*
X0430662Y0319114D01*
X0430726Y0319249D01*
X0430793Y0319382D01*
X0430863Y0319513D01*
X0430937Y0319643D01*
X0431015Y0319770D01*
X0431095Y0319896D01*
X0431180Y0320019D01*
X0431267Y0320140D01*
X0431357Y0320258D01*
X0431451Y0320374D01*
X0431548Y0320488D01*
X0431647Y0320599D01*
X0431750Y0320707D01*
X0431855Y0320812D01*
X0431963Y0320915D01*
X0432074Y0321014D01*
X0432188Y0321111D01*
X0432304Y0321205D01*
X0432422Y0321295D01*
X0432543Y0321382D01*
X0432666Y0321467D01*
X0432792Y0321547D01*
X0432919Y0321625D01*
X0433049Y0321699D01*
X0433180Y0321769D01*
X0433313Y0321836D01*
X0433448Y0321900D01*
X0433585Y0321959D01*
X0433723Y0322015D01*
X0433862Y0322068D01*
X0434003Y0322117D01*
X0434145Y0322162D01*
X0434289Y0322203D01*
X0434433Y0322240D01*
X0434578Y0322273D01*
X0434724Y0322303D01*
X0434871Y0322329D01*
X0435019Y0322350D01*
X0435167Y0322368D01*
X0435315Y0322382D01*
X0435464Y0322392D01*
X0435613Y0322398D01*
X0435762Y0322400D01*
X0435911Y0322398D01*
X0436060Y0322392D01*
X0436209Y0322382D01*
X0436357Y0322368D01*
X0436505Y0322350D01*
X0436653Y0322329D01*
X0436800Y0322303D01*
X0436946Y0322273D01*
X0437091Y0322240D01*
X0437235Y0322203D01*
X0437379Y0322162D01*
X0437521Y0322117D01*
X0437662Y0322068D01*
X0437801Y0322015D01*
X0437939Y0321959D01*
X0438076Y0321900D01*
X0438211Y0321836D01*
X0438344Y0321769D01*
X0438475Y0321699D01*
X0438605Y0321625D01*
X0438732Y0321547D01*
X0438858Y0321467D01*
X0438981Y0321382D01*
X0439102Y0321295D01*
X0439220Y0321205D01*
X0439336Y0321111D01*
X0439450Y0321014D01*
X0439561Y0320915D01*
X0439669Y0320812D01*
X0439774Y0320707D01*
X0439877Y0320599D01*
X0439976Y0320488D01*
X0440073Y0320374D01*
X0440167Y0320258D01*
X0440257Y0320140D01*
X0440344Y0320019D01*
X0440429Y0319896D01*
X0440509Y0319770D01*
X0440587Y0319643D01*
X0440661Y0319513D01*
X0440731Y0319382D01*
X0440798Y0319249D01*
X0440862Y0319114D01*
X0440921Y0318977D01*
X0440977Y0318839D01*
X0441030Y0318700D01*
X0441079Y0318559D01*
X0441124Y0318417D01*
X0441165Y0318273D01*
X0441202Y0318129D01*
X0441235Y0317984D01*
X0441265Y0317838D01*
X0441291Y0317691D01*
X0441312Y0317543D01*
X0441330Y0317395D01*
X0441344Y0317247D01*
X0441354Y0317098D01*
X0441360Y0316949D01*
X0441362Y0316800D01*
X0441360Y0316651D01*
X0441354Y0316502D01*
X0441344Y0316353D01*
X0441330Y0316205D01*
X0441312Y0316057D01*
X0441291Y0315909D01*
X0441265Y0315762D01*
X0441235Y0315616D01*
X0441202Y0315471D01*
X0441165Y0315327D01*
X0441124Y0315183D01*
X0441079Y0315041D01*
X0441030Y0314900D01*
X0440977Y0314761D01*
X0440921Y0314623D01*
X0440862Y0314486D01*
X0440798Y0314351D01*
X0440731Y0314218D01*
X0440661Y0314087D01*
X0440587Y0313957D01*
X0440509Y0313830D01*
X0440429Y0313704D01*
X0440344Y0313581D01*
X0440257Y0313460D01*
X0440167Y0313342D01*
X0440073Y0313226D01*
X0439976Y0313112D01*
X0439877Y0313001D01*
X0439774Y0312893D01*
X0439669Y0312788D01*
X0439561Y0312685D01*
X0439450Y0312586D01*
X0439336Y0312489D01*
X0439220Y0312395D01*
X0439102Y0312305D01*
X0438981Y0312218D01*
X0438858Y0312133D01*
X0438732Y0312053D01*
X0438605Y0311975D01*
X0438475Y0311901D01*
X0438344Y0311831D01*
X0438211Y0311764D01*
X0438076Y0311700D01*
X0437939Y0311641D01*
X0437801Y0311585D01*
X0437662Y0311532D01*
X0437521Y0311483D01*
X0437379Y0311438D01*
X0437235Y0311397D01*
X0437091Y0311360D01*
X0436946Y0311327D01*
X0436800Y0311297D01*
X0436653Y0311271D01*
X0436505Y0311250D01*
X0436357Y0311232D01*
X0436209Y0311218D01*
X0436060Y0311208D01*
X0435911Y0311202D01*
X0435762Y0311200D01*
X0435613Y0311202D01*
X0435464Y0311208D01*
X0435315Y0311218D01*
X0435167Y0311232D01*
X0435019Y0311250D01*
X0434871Y0311271D01*
X0434724Y0311297D01*
X0434578Y0311327D01*
X0434433Y0311360D01*
X0434289Y0311397D01*
X0434145Y0311438D01*
X0434003Y0311483D01*
X0433862Y0311532D01*
X0433723Y0311585D01*
X0433585Y0311641D01*
X0433448Y0311700D01*
X0433313Y0311764D01*
X0433180Y0311831D01*
X0433049Y0311901D01*
X0432919Y0311975D01*
X0432792Y0312053D01*
X0432666Y0312133D01*
X0432543Y0312218D01*
X0432422Y0312305D01*
X0432304Y0312395D01*
X0432188Y0312489D01*
X0432074Y0312586D01*
X0431963Y0312685D01*
X0431855Y0312788D01*
X0431750Y0312893D01*
X0431647Y0313001D01*
X0431548Y0313112D01*
X0431451Y0313226D01*
X0431357Y0313342D01*
X0431267Y0313460D01*
X0431180Y0313581D01*
X0431095Y0313704D01*
X0431015Y0313830D01*
X0430937Y0313957D01*
X0430863Y0314087D01*
X0430793Y0314218D01*
X0430726Y0314351D01*
X0430662Y0314486D01*
X0430603Y0314623D01*
X0430547Y0314761D01*
X0430494Y0314900D01*
X0430445Y0315041D01*
X0430400Y0315183D01*
X0430359Y0315327D01*
X0430322Y0315471D01*
X0430289Y0315616D01*
X0430259Y0315762D01*
X0430233Y0315909D01*
X0430212Y0316057D01*
X0430194Y0316205D01*
X0430180Y0316353D01*
X0430170Y0316502D01*
X0430164Y0316651D01*
X0430162Y0316800D01*
X0035162Y0316800D02*
X0035164Y0316949D01*
X0035170Y0317098D01*
X0035180Y0317247D01*
X0035194Y0317395D01*
X0035212Y0317543D01*
X0035233Y0317691D01*
X0035259Y0317838D01*
X0035289Y0317984D01*
X0035322Y0318129D01*
X0035359Y0318273D01*
X0035400Y0318417D01*
X0035445Y0318559D01*
X0035494Y0318700D01*
X0035547Y0318839D01*
X0035603Y0318977D01*
X0035662Y0319114D01*
X0035726Y0319249D01*
X0035793Y0319382D01*
X0035863Y0319513D01*
X0035937Y0319643D01*
X0036015Y0319770D01*
X0036095Y0319896D01*
X0036180Y0320019D01*
X0036267Y0320140D01*
X0036357Y0320258D01*
X0036451Y0320374D01*
X0036548Y0320488D01*
X0036647Y0320599D01*
X0036750Y0320707D01*
X0036855Y0320812D01*
X0036963Y0320915D01*
X0037074Y0321014D01*
X0037188Y0321111D01*
X0037304Y0321205D01*
X0037422Y0321295D01*
X0037543Y0321382D01*
X0037666Y0321467D01*
X0037792Y0321547D01*
X0037919Y0321625D01*
X0038049Y0321699D01*
X0038180Y0321769D01*
X0038313Y0321836D01*
X0038448Y0321900D01*
X0038585Y0321959D01*
X0038723Y0322015D01*
X0038862Y0322068D01*
X0039003Y0322117D01*
X0039145Y0322162D01*
X0039289Y0322203D01*
X0039433Y0322240D01*
X0039578Y0322273D01*
X0039724Y0322303D01*
X0039871Y0322329D01*
X0040019Y0322350D01*
X0040167Y0322368D01*
X0040315Y0322382D01*
X0040464Y0322392D01*
X0040613Y0322398D01*
X0040762Y0322400D01*
X0040911Y0322398D01*
X0041060Y0322392D01*
X0041209Y0322382D01*
X0041357Y0322368D01*
X0041505Y0322350D01*
X0041653Y0322329D01*
X0041800Y0322303D01*
X0041946Y0322273D01*
X0042091Y0322240D01*
X0042235Y0322203D01*
X0042379Y0322162D01*
X0042521Y0322117D01*
X0042662Y0322068D01*
X0042801Y0322015D01*
X0042939Y0321959D01*
X0043076Y0321900D01*
X0043211Y0321836D01*
X0043344Y0321769D01*
X0043475Y0321699D01*
X0043605Y0321625D01*
X0043732Y0321547D01*
X0043858Y0321467D01*
X0043981Y0321382D01*
X0044102Y0321295D01*
X0044220Y0321205D01*
X0044336Y0321111D01*
X0044450Y0321014D01*
X0044561Y0320915D01*
X0044669Y0320812D01*
X0044774Y0320707D01*
X0044877Y0320599D01*
X0044976Y0320488D01*
X0045073Y0320374D01*
X0045167Y0320258D01*
X0045257Y0320140D01*
X0045344Y0320019D01*
X0045429Y0319896D01*
X0045509Y0319770D01*
X0045587Y0319643D01*
X0045661Y0319513D01*
X0045731Y0319382D01*
X0045798Y0319249D01*
X0045862Y0319114D01*
X0045921Y0318977D01*
X0045977Y0318839D01*
X0046030Y0318700D01*
X0046079Y0318559D01*
X0046124Y0318417D01*
X0046165Y0318273D01*
X0046202Y0318129D01*
X0046235Y0317984D01*
X0046265Y0317838D01*
X0046291Y0317691D01*
X0046312Y0317543D01*
X0046330Y0317395D01*
X0046344Y0317247D01*
X0046354Y0317098D01*
X0046360Y0316949D01*
X0046362Y0316800D01*
X0046360Y0316651D01*
X0046354Y0316502D01*
X0046344Y0316353D01*
X0046330Y0316205D01*
X0046312Y0316057D01*
X0046291Y0315909D01*
X0046265Y0315762D01*
X0046235Y0315616D01*
X0046202Y0315471D01*
X0046165Y0315327D01*
X0046124Y0315183D01*
X0046079Y0315041D01*
X0046030Y0314900D01*
X0045977Y0314761D01*
X0045921Y0314623D01*
X0045862Y0314486D01*
X0045798Y0314351D01*
X0045731Y0314218D01*
X0045661Y0314087D01*
X0045587Y0313957D01*
X0045509Y0313830D01*
X0045429Y0313704D01*
X0045344Y0313581D01*
X0045257Y0313460D01*
X0045167Y0313342D01*
X0045073Y0313226D01*
X0044976Y0313112D01*
X0044877Y0313001D01*
X0044774Y0312893D01*
X0044669Y0312788D01*
X0044561Y0312685D01*
X0044450Y0312586D01*
X0044336Y0312489D01*
X0044220Y0312395D01*
X0044102Y0312305D01*
X0043981Y0312218D01*
X0043858Y0312133D01*
X0043732Y0312053D01*
X0043605Y0311975D01*
X0043475Y0311901D01*
X0043344Y0311831D01*
X0043211Y0311764D01*
X0043076Y0311700D01*
X0042939Y0311641D01*
X0042801Y0311585D01*
X0042662Y0311532D01*
X0042521Y0311483D01*
X0042379Y0311438D01*
X0042235Y0311397D01*
X0042091Y0311360D01*
X0041946Y0311327D01*
X0041800Y0311297D01*
X0041653Y0311271D01*
X0041505Y0311250D01*
X0041357Y0311232D01*
X0041209Y0311218D01*
X0041060Y0311208D01*
X0040911Y0311202D01*
X0040762Y0311200D01*
X0040613Y0311202D01*
X0040464Y0311208D01*
X0040315Y0311218D01*
X0040167Y0311232D01*
X0040019Y0311250D01*
X0039871Y0311271D01*
X0039724Y0311297D01*
X0039578Y0311327D01*
X0039433Y0311360D01*
X0039289Y0311397D01*
X0039145Y0311438D01*
X0039003Y0311483D01*
X0038862Y0311532D01*
X0038723Y0311585D01*
X0038585Y0311641D01*
X0038448Y0311700D01*
X0038313Y0311764D01*
X0038180Y0311831D01*
X0038049Y0311901D01*
X0037919Y0311975D01*
X0037792Y0312053D01*
X0037666Y0312133D01*
X0037543Y0312218D01*
X0037422Y0312305D01*
X0037304Y0312395D01*
X0037188Y0312489D01*
X0037074Y0312586D01*
X0036963Y0312685D01*
X0036855Y0312788D01*
X0036750Y0312893D01*
X0036647Y0313001D01*
X0036548Y0313112D01*
X0036451Y0313226D01*
X0036357Y0313342D01*
X0036267Y0313460D01*
X0036180Y0313581D01*
X0036095Y0313704D01*
X0036015Y0313830D01*
X0035937Y0313957D01*
X0035863Y0314087D01*
X0035793Y0314218D01*
X0035726Y0314351D01*
X0035662Y0314486D01*
X0035603Y0314623D01*
X0035547Y0314761D01*
X0035494Y0314900D01*
X0035445Y0315041D01*
X0035400Y0315183D01*
X0035359Y0315327D01*
X0035322Y0315471D01*
X0035289Y0315616D01*
X0035259Y0315762D01*
X0035233Y0315909D01*
X0035212Y0316057D01*
X0035194Y0316205D01*
X0035180Y0316353D01*
X0035170Y0316502D01*
X0035164Y0316651D01*
X0035162Y0316800D01*
D11*
X0040762Y0316800D03*
X0435762Y0316800D03*
X0435762Y0016800D03*
X0040762Y0016800D03*
D12*
X0224325Y0139300D03*
X0232199Y0139300D03*
X0294325Y0164300D03*
X0302199Y0164300D03*
X0302199Y0179300D03*
X0294325Y0179300D03*
X0346825Y0184300D03*
X0354699Y0184300D03*
X0354699Y0171800D03*
X0346825Y0171800D03*
X0312199Y0069300D03*
X0304325Y0069300D03*
X0304325Y0054300D03*
X0312199Y0054300D03*
D13*
X0310924Y0050708D02*
X0311541Y0050091D01*
X0311541Y0047622D01*
X0310924Y0047005D01*
X0309690Y0047005D01*
X0309072Y0047622D01*
X0307858Y0048857D02*
X0306006Y0050708D01*
X0306006Y0047005D01*
X0305389Y0048857D02*
X0307858Y0048857D01*
X0309072Y0050091D02*
X0309690Y0050708D01*
X0310924Y0050708D01*
X0311432Y0072895D02*
X0310197Y0072895D01*
X0309580Y0073512D01*
X0308366Y0073512D02*
X0307748Y0072895D01*
X0306514Y0072895D01*
X0305897Y0073512D01*
X0305897Y0074129D01*
X0306514Y0074746D01*
X0307131Y0074746D01*
X0306514Y0074746D02*
X0305897Y0075364D01*
X0305897Y0075981D01*
X0306514Y0076598D01*
X0307748Y0076598D01*
X0308366Y0075981D01*
X0309580Y0075981D02*
X0310197Y0076598D01*
X0311432Y0076598D01*
X0312049Y0075981D01*
X0312049Y0073512D01*
X0311432Y0072895D01*
X0235224Y0132622D02*
X0234607Y0132005D01*
X0233373Y0132005D01*
X0232755Y0132622D01*
X0231541Y0132005D02*
X0229072Y0134474D01*
X0229072Y0135091D01*
X0229690Y0135708D01*
X0230924Y0135708D01*
X0231541Y0135091D01*
X0232755Y0135091D02*
X0233373Y0135708D01*
X0234607Y0135708D01*
X0235224Y0135091D01*
X0235224Y0132622D01*
X0231541Y0132005D02*
X0229072Y0132005D01*
X0227858Y0132622D02*
X0227241Y0132005D01*
X0226006Y0132005D01*
X0225389Y0132622D01*
X0225389Y0133857D01*
X0226006Y0134474D01*
X0226624Y0134474D01*
X0227858Y0133857D01*
X0227858Y0135708D01*
X0225389Y0135708D01*
X0216412Y0162134D02*
X0213276Y0165270D01*
X0214844Y0165270D02*
X0214844Y0162134D01*
X0213276Y0162134D02*
X0216412Y0165270D01*
X0216412Y0163702D02*
X0213276Y0163702D01*
X0155348Y0106666D02*
X0152212Y0103530D01*
X0153780Y0103530D02*
X0153780Y0106666D01*
X0152212Y0106666D02*
X0155348Y0103530D01*
X0155348Y0105098D02*
X0152212Y0105098D01*
X0295897Y0170981D02*
X0298366Y0168512D01*
X0298366Y0167895D01*
X0299580Y0168512D02*
X0300197Y0167895D01*
X0301432Y0167895D01*
X0302049Y0168512D01*
X0302049Y0170981D01*
X0301432Y0171598D01*
X0300197Y0171598D01*
X0299580Y0170981D01*
X0299690Y0172005D02*
X0299072Y0172622D01*
X0299690Y0172005D02*
X0300924Y0172005D01*
X0301541Y0172622D01*
X0301541Y0175091D01*
X0300924Y0175708D01*
X0299690Y0175708D01*
X0299072Y0175091D01*
X0297858Y0173857D02*
X0296006Y0173857D01*
X0295389Y0173240D01*
X0295389Y0172622D01*
X0296006Y0172005D01*
X0297241Y0172005D01*
X0297858Y0172622D01*
X0297858Y0173857D01*
X0296624Y0175091D01*
X0295389Y0175708D01*
X0295897Y0171598D02*
X0295897Y0170981D01*
X0295897Y0171598D02*
X0298366Y0171598D01*
X0303312Y0188530D02*
X0306448Y0191666D01*
X0306448Y0190098D02*
X0303312Y0190098D01*
X0303312Y0191666D02*
X0306448Y0188530D01*
X0304880Y0188530D02*
X0304880Y0191666D01*
X0347889Y0180091D02*
X0347889Y0177622D01*
X0348506Y0177005D01*
X0349741Y0177005D01*
X0350358Y0177622D01*
X0351572Y0177622D02*
X0352190Y0177005D01*
X0353424Y0177005D01*
X0354041Y0177622D01*
X0354041Y0180091D01*
X0353424Y0180708D01*
X0352190Y0180708D01*
X0351572Y0180091D01*
X0350358Y0180091D02*
X0350358Y0179474D01*
X0349741Y0178857D01*
X0347889Y0178857D01*
X0347889Y0180091D02*
X0348506Y0180708D01*
X0349741Y0180708D01*
X0350358Y0180091D01*
X0349741Y0168208D02*
X0348506Y0168208D01*
X0347889Y0167591D01*
X0347889Y0166974D01*
X0348506Y0166357D01*
X0349741Y0166357D01*
X0350358Y0166974D01*
X0350358Y0167591D01*
X0349741Y0168208D01*
X0349741Y0166357D02*
X0350358Y0165740D01*
X0350358Y0165122D01*
X0349741Y0164505D01*
X0348506Y0164505D01*
X0347889Y0165122D01*
X0347889Y0165740D01*
X0348506Y0166357D01*
X0351572Y0167591D02*
X0352190Y0168208D01*
X0353424Y0168208D01*
X0354041Y0167591D01*
X0354041Y0165122D01*
X0353424Y0164505D01*
X0352190Y0164505D01*
X0351572Y0165122D01*
X0240560Y0238630D02*
X0239943Y0238013D01*
X0237474Y0238013D01*
X0236857Y0238630D01*
X0236857Y0239865D01*
X0237474Y0240482D01*
X0237474Y0241696D02*
X0236857Y0242313D01*
X0236857Y0243548D01*
X0237474Y0244165D01*
X0238091Y0244165D01*
X0238708Y0243548D01*
X0238708Y0242931D01*
X0238708Y0243548D02*
X0239325Y0244165D01*
X0239943Y0244165D01*
X0240560Y0243548D01*
X0240560Y0242313D01*
X0239943Y0241696D01*
X0239943Y0240482D02*
X0240560Y0239865D01*
X0240560Y0238630D01*
X0240560Y0245379D02*
X0240560Y0247848D01*
X0239943Y0247848D01*
X0237474Y0245379D01*
X0236857Y0245379D01*
X0239974Y0263013D02*
X0239357Y0263630D01*
X0239357Y0264865D01*
X0239974Y0265482D01*
X0239974Y0266696D02*
X0239357Y0267313D01*
X0239357Y0268548D01*
X0239974Y0269165D01*
X0240591Y0269165D01*
X0241208Y0268548D01*
X0241208Y0267931D01*
X0241208Y0268548D02*
X0241825Y0269165D01*
X0242443Y0269165D01*
X0243060Y0268548D01*
X0243060Y0267313D01*
X0242443Y0266696D01*
X0242443Y0265482D02*
X0243060Y0264865D01*
X0243060Y0263630D01*
X0242443Y0263013D01*
X0239974Y0263013D01*
X0239974Y0270379D02*
X0240591Y0270379D01*
X0241208Y0270996D01*
X0241208Y0272231D01*
X0240591Y0272848D01*
X0239974Y0272848D01*
X0239357Y0272231D01*
X0239357Y0270996D01*
X0239974Y0270379D01*
X0241208Y0270996D02*
X0241825Y0270379D01*
X0242443Y0270379D01*
X0243060Y0270996D01*
X0243060Y0272231D01*
X0242443Y0272848D01*
X0241825Y0272848D01*
X0241208Y0272231D01*
X0230560Y0272231D02*
X0230560Y0270996D01*
X0229943Y0270379D01*
X0229325Y0270379D01*
X0228708Y0270996D01*
X0228708Y0272848D01*
X0227474Y0272848D02*
X0229943Y0272848D01*
X0230560Y0272231D01*
X0229943Y0269165D02*
X0229325Y0269165D01*
X0228708Y0268548D01*
X0228091Y0269165D01*
X0227474Y0269165D01*
X0226857Y0268548D01*
X0226857Y0267313D01*
X0227474Y0266696D01*
X0227474Y0265482D02*
X0226857Y0264865D01*
X0226857Y0263630D01*
X0227474Y0263013D01*
X0229943Y0263013D01*
X0230560Y0263630D01*
X0230560Y0264865D01*
X0229943Y0265482D01*
X0229943Y0266696D02*
X0230560Y0267313D01*
X0230560Y0268548D01*
X0229943Y0269165D01*
X0228708Y0268548D02*
X0228708Y0267931D01*
X0227474Y0270379D02*
X0226857Y0270996D01*
X0226857Y0272231D01*
X0227474Y0272848D01*
X0213060Y0272231D02*
X0213060Y0270996D01*
X0212443Y0270379D01*
X0211825Y0270379D01*
X0211208Y0270996D01*
X0211208Y0272848D01*
X0209974Y0272848D02*
X0212443Y0272848D01*
X0213060Y0272231D01*
X0212443Y0269165D02*
X0213060Y0268548D01*
X0213060Y0267313D01*
X0212443Y0266696D01*
X0212443Y0265482D02*
X0213060Y0264865D01*
X0213060Y0263630D01*
X0212443Y0263013D01*
X0209974Y0263013D01*
X0209357Y0263630D01*
X0209357Y0264865D01*
X0209974Y0265482D01*
X0209357Y0266696D02*
X0211825Y0269165D01*
X0212443Y0269165D01*
X0209974Y0270379D02*
X0209357Y0270996D01*
X0209357Y0272231D01*
X0209974Y0272848D01*
X0209357Y0269165D02*
X0209357Y0266696D01*
X0200560Y0267313D02*
X0199943Y0266696D01*
X0200560Y0267313D02*
X0200560Y0268548D01*
X0199943Y0269165D01*
X0199325Y0269165D01*
X0196857Y0266696D01*
X0196857Y0269165D01*
X0197474Y0270379D02*
X0198091Y0270379D01*
X0198708Y0270996D01*
X0198708Y0272231D01*
X0198091Y0272848D01*
X0197474Y0272848D01*
X0196857Y0272231D01*
X0196857Y0270996D01*
X0197474Y0270379D01*
X0198708Y0270996D02*
X0199325Y0270379D01*
X0199943Y0270379D01*
X0200560Y0270996D01*
X0200560Y0272231D01*
X0199943Y0272848D01*
X0199325Y0272848D01*
X0198708Y0272231D01*
X0197474Y0265482D02*
X0196857Y0264865D01*
X0196857Y0263630D01*
X0197474Y0263013D01*
X0199943Y0263013D01*
X0200560Y0263630D01*
X0200560Y0264865D01*
X0199943Y0265482D01*
X0173060Y0264865D02*
X0173060Y0263630D01*
X0172443Y0263013D01*
X0169974Y0263013D01*
X0169357Y0263630D01*
X0169357Y0264865D01*
X0169974Y0265482D01*
X0169974Y0266696D02*
X0169357Y0267313D01*
X0169357Y0268548D01*
X0169974Y0269165D01*
X0170591Y0269165D01*
X0171208Y0268548D01*
X0171208Y0267931D01*
X0171208Y0268548D02*
X0171825Y0269165D01*
X0172443Y0269165D01*
X0173060Y0268548D01*
X0173060Y0267313D01*
X0172443Y0266696D01*
X0172443Y0265482D02*
X0173060Y0264865D01*
X0171825Y0270379D02*
X0173060Y0271614D01*
X0169357Y0271614D01*
X0169357Y0272848D02*
X0169357Y0270379D01*
X0160560Y0270996D02*
X0159943Y0270379D01*
X0160560Y0270996D02*
X0160560Y0272231D01*
X0159943Y0272848D01*
X0159325Y0272848D01*
X0156857Y0270379D01*
X0156857Y0272848D01*
X0157474Y0269165D02*
X0156857Y0268548D01*
X0156857Y0267313D01*
X0157474Y0266696D01*
X0157474Y0265482D02*
X0156857Y0264865D01*
X0156857Y0263630D01*
X0157474Y0263013D01*
X0159943Y0263013D01*
X0160560Y0263630D01*
X0160560Y0264865D01*
X0159943Y0265482D01*
X0159943Y0266696D02*
X0160560Y0267313D01*
X0160560Y0268548D01*
X0159943Y0269165D01*
X0159325Y0269165D01*
X0158708Y0268548D01*
X0158091Y0269165D01*
X0157474Y0269165D01*
X0158708Y0268548D02*
X0158708Y0267931D01*
X0167474Y0247848D02*
X0166857Y0247231D01*
X0166857Y0245996D01*
X0167474Y0245379D01*
X0169943Y0247848D01*
X0167474Y0247848D01*
X0169943Y0247848D02*
X0170560Y0247231D01*
X0170560Y0245996D01*
X0169943Y0245379D01*
X0167474Y0245379D01*
X0167474Y0244165D02*
X0166857Y0243548D01*
X0166857Y0242313D01*
X0167474Y0241696D01*
X0167474Y0240482D02*
X0166857Y0239865D01*
X0166857Y0238630D01*
X0167474Y0238013D01*
X0169943Y0238013D01*
X0170560Y0238630D01*
X0170560Y0239865D01*
X0169943Y0240482D01*
X0169943Y0241696D02*
X0170560Y0242313D01*
X0170560Y0243548D01*
X0169943Y0244165D01*
X0169325Y0244165D01*
X0168708Y0243548D01*
X0168091Y0244165D01*
X0167474Y0244165D01*
X0168708Y0243548D02*
X0168708Y0242931D01*
X0266857Y0263630D02*
X0266857Y0264865D01*
X0267474Y0265482D01*
X0267474Y0266696D02*
X0266857Y0267313D01*
X0266857Y0268548D01*
X0267474Y0269165D01*
X0268091Y0269165D01*
X0268708Y0268548D01*
X0268708Y0267931D01*
X0268708Y0268548D02*
X0269325Y0269165D01*
X0269943Y0269165D01*
X0270560Y0268548D01*
X0270560Y0267313D01*
X0269943Y0266696D01*
X0269943Y0265482D02*
X0270560Y0264865D01*
X0270560Y0263630D01*
X0269943Y0263013D01*
X0267474Y0263013D01*
X0266857Y0263630D01*
X0267474Y0270379D02*
X0266857Y0270996D01*
X0266857Y0272231D01*
X0267474Y0272848D01*
X0268708Y0272848D01*
X0269325Y0272231D01*
X0269325Y0271614D01*
X0268708Y0270379D01*
X0270560Y0270379D01*
X0270560Y0272848D01*
X0279357Y0272231D02*
X0279357Y0270996D01*
X0279974Y0270379D01*
X0281208Y0270379D01*
X0281208Y0272231D01*
X0280591Y0272848D01*
X0279974Y0272848D01*
X0279357Y0272231D01*
X0281208Y0270379D02*
X0282443Y0271614D01*
X0283060Y0272848D01*
X0282443Y0269165D02*
X0281825Y0269165D01*
X0281208Y0268548D01*
X0280591Y0269165D01*
X0279974Y0269165D01*
X0279357Y0268548D01*
X0279357Y0267313D01*
X0279974Y0266696D01*
X0279974Y0265482D02*
X0279357Y0264865D01*
X0279357Y0263630D01*
X0279974Y0263013D01*
X0282443Y0263013D01*
X0283060Y0263630D01*
X0283060Y0264865D01*
X0282443Y0265482D01*
X0282443Y0266696D02*
X0283060Y0267313D01*
X0283060Y0268548D01*
X0282443Y0269165D01*
X0281208Y0268548D02*
X0281208Y0267931D01*
D14*
X0311162Y0211400D02*
X0320362Y0211400D01*
X0320362Y0192200D02*
X0316962Y0192200D01*
X0314562Y0192200D01*
X0311162Y0192200D01*
X0313162Y0182400D02*
X0313162Y0180200D01*
X0313162Y0182400D02*
X0316362Y0182400D01*
X0313162Y0173400D02*
X0313162Y0171200D01*
X0316362Y0171200D01*
X0208062Y0165000D02*
X0208062Y0138600D01*
X0193462Y0138600D01*
X0193462Y0165000D01*
X0208062Y0165000D01*
X0172562Y0126600D02*
X0158962Y0126600D01*
X0158962Y0107000D02*
X0164562Y0107000D01*
X0166962Y0107000D01*
X0172562Y0107000D01*
D15*
X0087593Y0085540D03*
X0087593Y0078060D03*
X0078931Y0081800D03*
X0311431Y0176800D03*
X0320093Y0173060D03*
X0320093Y0180540D03*
D16*
X0330389Y0180837D02*
X0330389Y0180069D01*
X0331156Y0179302D01*
X0332691Y0179302D01*
X0333458Y0180069D01*
X0333458Y0180837D01*
X0332691Y0181604D01*
X0331156Y0181604D01*
X0330389Y0180837D01*
X0331156Y0179302D02*
X0330389Y0178535D01*
X0330389Y0177767D01*
X0331156Y0177000D01*
X0332691Y0177000D01*
X0333458Y0177767D01*
X0333458Y0178535D01*
X0332691Y0179302D01*
X0334993Y0179302D02*
X0335760Y0178535D01*
X0338062Y0178535D01*
X0336527Y0178535D02*
X0334993Y0177000D01*
X0334993Y0179302D02*
X0334993Y0180837D01*
X0335760Y0181604D01*
X0338062Y0181604D01*
X0338062Y0177000D01*
X0338062Y0189500D02*
X0338062Y0194104D01*
X0335760Y0194104D01*
X0334993Y0193337D01*
X0334993Y0191802D01*
X0335760Y0191035D01*
X0338062Y0191035D01*
X0336527Y0191035D02*
X0334993Y0189500D01*
X0333458Y0190267D02*
X0332691Y0189500D01*
X0331156Y0189500D01*
X0330389Y0190267D01*
X0330389Y0193337D01*
X0331156Y0194104D01*
X0332691Y0194104D01*
X0333458Y0193337D01*
X0333458Y0192569D01*
X0332691Y0191802D01*
X0330389Y0191802D01*
X0331552Y0202000D02*
X0333087Y0202000D01*
X0333854Y0202767D01*
X0330785Y0205837D01*
X0330785Y0202767D01*
X0331552Y0202000D01*
X0333854Y0202767D02*
X0333854Y0205837D01*
X0333087Y0206604D01*
X0331552Y0206604D01*
X0330785Y0205837D01*
X0335389Y0202000D02*
X0338458Y0202000D01*
X0339993Y0202000D02*
X0341527Y0203535D01*
X0340760Y0203535D02*
X0343062Y0203535D01*
X0343062Y0202000D02*
X0343062Y0206604D01*
X0340760Y0206604D01*
X0339993Y0205837D01*
X0339993Y0204302D01*
X0340760Y0203535D01*
X0338458Y0205069D02*
X0336923Y0206604D01*
X0336923Y0202000D01*
X0308066Y0181431D02*
X0303462Y0181431D01*
X0303462Y0182965D02*
X0303462Y0179896D01*
X0304229Y0178361D02*
X0303462Y0177594D01*
X0303462Y0175292D01*
X0308066Y0175292D01*
X0308066Y0177594D01*
X0307298Y0178361D01*
X0304229Y0178361D01*
X0306531Y0179896D02*
X0308066Y0181431D01*
X0270566Y0178931D02*
X0269031Y0177396D01*
X0269798Y0175861D02*
X0266729Y0175861D01*
X0265962Y0175094D01*
X0265962Y0173559D01*
X0266729Y0172792D01*
X0269798Y0172792D01*
X0270566Y0173559D01*
X0270566Y0175094D01*
X0269798Y0175861D01*
X0267496Y0174327D02*
X0265962Y0175861D01*
X0265962Y0177396D02*
X0265962Y0180465D01*
X0265962Y0178931D02*
X0270566Y0178931D01*
X0240566Y0230688D02*
X0235962Y0230688D01*
X0237496Y0230688D02*
X0237496Y0232990D01*
X0238264Y0233757D01*
X0239798Y0233757D01*
X0240566Y0232990D01*
X0240566Y0230688D01*
X0237496Y0232223D02*
X0235962Y0233757D01*
X0236729Y0235292D02*
X0235962Y0236059D01*
X0235962Y0237594D01*
X0236729Y0238361D01*
X0237496Y0238361D01*
X0238264Y0237594D01*
X0238264Y0236827D01*
X0238264Y0237594D02*
X0239031Y0238361D01*
X0239798Y0238361D01*
X0240566Y0237594D01*
X0240566Y0236059D01*
X0239798Y0235292D01*
X0238264Y0239896D02*
X0238264Y0242965D01*
X0240566Y0242198D02*
X0238264Y0239896D01*
X0235962Y0242198D02*
X0240566Y0242198D01*
X0239996Y0255688D02*
X0239996Y0257990D01*
X0240764Y0258757D01*
X0242298Y0258757D01*
X0243066Y0257990D01*
X0243066Y0255688D01*
X0238462Y0255688D01*
X0239996Y0257223D02*
X0238462Y0258757D01*
X0239229Y0260292D02*
X0238462Y0261059D01*
X0238462Y0262594D01*
X0239229Y0263361D01*
X0239996Y0263361D01*
X0240764Y0262594D01*
X0240764Y0261827D01*
X0240764Y0262594D02*
X0241531Y0263361D01*
X0242298Y0263361D01*
X0243066Y0262594D01*
X0243066Y0261059D01*
X0242298Y0260292D01*
X0243066Y0264896D02*
X0240764Y0264896D01*
X0241531Y0266431D01*
X0241531Y0267198D01*
X0240764Y0267965D01*
X0239229Y0267965D01*
X0238462Y0267198D01*
X0238462Y0265663D01*
X0239229Y0264896D01*
X0243066Y0264896D02*
X0243066Y0267965D01*
X0230566Y0280688D02*
X0225962Y0280688D01*
X0227496Y0280688D02*
X0227496Y0282990D01*
X0228264Y0283757D01*
X0229798Y0283757D01*
X0230566Y0282990D01*
X0230566Y0280688D01*
X0227496Y0282223D02*
X0225962Y0283757D01*
X0226729Y0285292D02*
X0225962Y0286059D01*
X0225962Y0287594D01*
X0226729Y0288361D01*
X0227496Y0288361D01*
X0228264Y0287594D01*
X0228264Y0286827D01*
X0228264Y0287594D02*
X0229031Y0288361D01*
X0229798Y0288361D01*
X0230566Y0287594D01*
X0230566Y0286059D01*
X0229798Y0285292D01*
X0228264Y0289896D02*
X0226729Y0289896D01*
X0225962Y0290663D01*
X0225962Y0292198D01*
X0226729Y0292965D01*
X0227496Y0292965D01*
X0228264Y0292198D01*
X0228264Y0289896D01*
X0229798Y0291431D01*
X0230566Y0292965D01*
X0173066Y0267198D02*
X0173066Y0265663D01*
X0172298Y0264896D01*
X0173066Y0267198D02*
X0172298Y0267965D01*
X0171531Y0267965D01*
X0168462Y0264896D01*
X0168462Y0267965D01*
X0168462Y0263361D02*
X0168462Y0260292D01*
X0168462Y0258757D02*
X0169996Y0257223D01*
X0169996Y0257990D02*
X0169996Y0255688D01*
X0168462Y0255688D02*
X0173066Y0255688D01*
X0173066Y0257990D01*
X0172298Y0258757D01*
X0170764Y0258757D01*
X0169996Y0257990D01*
X0171531Y0260292D02*
X0173066Y0261827D01*
X0168462Y0261827D01*
X0160566Y0280688D02*
X0155962Y0280688D01*
X0157496Y0280688D02*
X0157496Y0282990D01*
X0158264Y0283757D01*
X0159798Y0283757D01*
X0160566Y0282990D01*
X0160566Y0280688D01*
X0157496Y0282223D02*
X0155962Y0283757D01*
X0155962Y0285292D02*
X0155962Y0288361D01*
X0155962Y0286827D02*
X0160566Y0286827D01*
X0159031Y0285292D01*
X0159798Y0289896D02*
X0160566Y0290663D01*
X0160566Y0292198D01*
X0159798Y0292965D01*
X0159031Y0292965D01*
X0158264Y0292198D01*
X0157496Y0292965D01*
X0156729Y0292965D01*
X0155962Y0292198D01*
X0155962Y0290663D01*
X0156729Y0289896D01*
X0158264Y0291431D02*
X0158264Y0292198D01*
X0166729Y0242965D02*
X0165962Y0242198D01*
X0165962Y0240663D01*
X0166729Y0239896D01*
X0165962Y0238361D02*
X0167496Y0236827D01*
X0167496Y0237594D02*
X0167496Y0235292D01*
X0165962Y0235292D02*
X0170566Y0235292D01*
X0170566Y0237594D01*
X0169798Y0238361D01*
X0168264Y0238361D01*
X0167496Y0237594D01*
X0169798Y0239896D02*
X0170566Y0240663D01*
X0170566Y0242198D01*
X0169798Y0242965D01*
X0169031Y0242965D01*
X0168264Y0242198D01*
X0167496Y0242965D01*
X0166729Y0242965D01*
X0168264Y0242198D02*
X0168264Y0241431D01*
X0168656Y0171604D02*
X0170191Y0171604D01*
X0170958Y0170837D01*
X0170958Y0167767D01*
X0170191Y0167000D01*
X0168656Y0167000D01*
X0167889Y0167767D01*
X0167889Y0169302D01*
X0169423Y0169302D01*
X0167889Y0170837D02*
X0168656Y0171604D01*
X0166354Y0170837D02*
X0165587Y0171604D01*
X0164052Y0171604D01*
X0163285Y0170837D01*
X0163285Y0170069D01*
X0166354Y0167000D01*
X0163285Y0167000D01*
X0172493Y0167000D02*
X0174027Y0168535D01*
X0172493Y0167767D02*
X0172493Y0170837D01*
X0173260Y0171604D01*
X0174795Y0171604D01*
X0175562Y0170837D01*
X0175562Y0167767D01*
X0174795Y0167000D01*
X0173260Y0167000D01*
X0172493Y0167767D01*
X0075566Y0087198D02*
X0075566Y0085663D01*
X0074798Y0084896D01*
X0074798Y0083361D02*
X0071729Y0083361D01*
X0070962Y0082594D01*
X0070962Y0081059D01*
X0071729Y0080292D01*
X0074798Y0080292D01*
X0075566Y0081059D01*
X0075566Y0082594D01*
X0074798Y0083361D01*
X0072496Y0081827D02*
X0070962Y0083361D01*
X0070962Y0084896D02*
X0074031Y0087965D01*
X0074798Y0087965D01*
X0075566Y0087198D01*
X0070962Y0087965D02*
X0070962Y0084896D01*
X0099596Y0081604D02*
X0101131Y0080837D01*
X0102666Y0079302D01*
X0100364Y0079302D01*
X0099596Y0078535D01*
X0099596Y0077767D01*
X0100364Y0077000D01*
X0101898Y0077000D01*
X0102666Y0077767D01*
X0102666Y0079302D01*
X0104200Y0080069D02*
X0104200Y0080837D01*
X0104968Y0081604D01*
X0106502Y0081604D01*
X0107270Y0080837D01*
X0108804Y0080837D02*
X0108804Y0079302D01*
X0109572Y0078535D01*
X0111874Y0078535D01*
X0111874Y0077000D02*
X0111874Y0081604D01*
X0109572Y0081604D01*
X0108804Y0080837D01*
X0110339Y0078535D02*
X0108804Y0077000D01*
X0107270Y0077000D02*
X0104200Y0080069D01*
X0104200Y0077000D02*
X0107270Y0077000D01*
X0106502Y0066604D02*
X0107270Y0065837D01*
X0106502Y0066604D02*
X0104968Y0066604D01*
X0104200Y0065837D01*
X0104200Y0065069D01*
X0107270Y0062000D01*
X0104200Y0062000D01*
X0102666Y0062767D02*
X0101898Y0062000D01*
X0100364Y0062000D01*
X0099596Y0062767D01*
X0099596Y0064302D01*
X0100364Y0065069D01*
X0101131Y0065069D01*
X0102666Y0064302D01*
X0102666Y0066604D01*
X0099596Y0066604D01*
X0108804Y0065837D02*
X0108804Y0064302D01*
X0109572Y0063535D01*
X0111874Y0063535D01*
X0111874Y0062000D02*
X0111874Y0066604D01*
X0109572Y0066604D01*
X0108804Y0065837D01*
X0110339Y0063535D02*
X0108804Y0062000D01*
X0300962Y0058906D02*
X0300962Y0057371D01*
X0301729Y0056604D01*
X0301729Y0055069D02*
X0300962Y0054302D01*
X0300962Y0052767D01*
X0301729Y0052000D01*
X0304798Y0052000D01*
X0305566Y0052767D01*
X0305566Y0054302D01*
X0304798Y0055069D01*
X0301729Y0055069D01*
X0300962Y0055069D02*
X0302496Y0053535D01*
X0304798Y0056604D02*
X0305566Y0057371D01*
X0305566Y0058906D01*
X0304798Y0059673D01*
X0304031Y0059673D01*
X0303264Y0058906D01*
X0302496Y0059673D01*
X0301729Y0059673D01*
X0300962Y0058906D01*
X0303264Y0058906D02*
X0303264Y0058139D01*
X0338458Y0112000D02*
X0338458Y0112767D01*
X0335389Y0115837D01*
X0335389Y0116604D01*
X0338458Y0116604D01*
X0339993Y0115837D02*
X0339993Y0114302D01*
X0340760Y0113535D01*
X0343062Y0113535D01*
X0341527Y0113535D02*
X0339993Y0112000D01*
X0343062Y0112000D02*
X0343062Y0116604D01*
X0340760Y0116604D01*
X0339993Y0115837D01*
X0360962Y0170292D02*
X0365566Y0170292D01*
X0365566Y0172594D01*
X0364798Y0173361D01*
X0363264Y0173361D01*
X0362496Y0172594D01*
X0362496Y0170292D01*
X0362496Y0171827D02*
X0360962Y0173361D01*
X0360962Y0174896D02*
X0360962Y0177965D01*
X0360962Y0176431D02*
X0365566Y0176431D01*
X0364031Y0174896D01*
D17*
X0365762Y0096800D03*
X0365762Y0086800D03*
X0365762Y0076800D03*
X0355762Y0076800D03*
X0355762Y0086800D03*
X0355762Y0096800D03*
X0110762Y0231800D03*
X0100762Y0231800D03*
X0090762Y0231800D03*
X0080762Y0231800D03*
X0080762Y0241800D03*
X0090762Y0241800D03*
X0100762Y0241800D03*
X0110762Y0241800D03*
X0070762Y0241800D03*
X0070762Y0231800D03*
X0070762Y0281800D03*
X0080762Y0281800D03*
X0090762Y0281800D03*
X0100762Y0281800D03*
X0110762Y0281800D03*
X0110762Y0291800D03*
X0100762Y0291800D03*
X0090762Y0291800D03*
X0080762Y0291800D03*
X0070762Y0291800D03*
D18*
X0209243Y0173606D02*
X0209243Y0166200D01*
X0211711Y0166200D02*
X0206774Y0166200D01*
X0211711Y0171138D02*
X0209243Y0173606D01*
X0214324Y0173606D02*
X0214324Y0167434D01*
X0215559Y0166200D01*
X0218027Y0166200D01*
X0219262Y0167434D01*
X0219262Y0173606D01*
X0175211Y0157186D02*
X0175211Y0146414D01*
X0169211Y0138414D02*
X0162313Y0138414D01*
X0156313Y0146414D02*
X0156313Y0157186D01*
X0162313Y0165186D02*
X0169211Y0165186D01*
X0161350Y0102000D02*
X0156412Y0102000D01*
X0161350Y0097062D01*
X0161350Y0095828D01*
X0160115Y0094594D01*
X0157647Y0094594D01*
X0156412Y0095828D01*
X0153799Y0094594D02*
X0153799Y0100766D01*
X0152565Y0102000D01*
X0150096Y0102000D01*
X0148862Y0100766D01*
X0148862Y0094594D01*
X0274266Y0167666D02*
X0274266Y0175934D01*
X0279581Y0183217D02*
X0281943Y0183217D01*
X0287258Y0175934D02*
X0287258Y0167666D01*
X0281943Y0160383D02*
X0279581Y0160383D01*
X0308381Y0181359D02*
X0308381Y0191234D01*
X0307147Y0190000D02*
X0309615Y0190000D01*
X0310850Y0188766D01*
X0310850Y0187531D01*
X0309615Y0186297D01*
X0307147Y0186297D01*
X0305912Y0185062D01*
X0305912Y0183828D01*
X0307147Y0182594D01*
X0309615Y0182594D01*
X0310850Y0183828D01*
X0313463Y0183828D02*
X0314697Y0182594D01*
X0317166Y0182594D01*
X0318400Y0183828D01*
X0318400Y0185062D01*
X0317166Y0186297D01*
X0318400Y0187531D01*
X0318400Y0188766D01*
X0317166Y0190000D01*
X0314697Y0190000D01*
X0313463Y0188766D01*
X0315931Y0186297D02*
X0317166Y0186297D01*
X0307147Y0190000D02*
X0305912Y0188766D01*
X0303299Y0188766D02*
X0303299Y0182594D01*
X0298362Y0182594D02*
X0298362Y0188766D01*
X0299596Y0190000D01*
X0302065Y0190000D01*
X0303299Y0188766D01*
X0291943Y0073217D02*
X0289581Y0073217D01*
X0284266Y0065934D02*
X0284266Y0057666D01*
X0289581Y0050383D02*
X0291943Y0050383D01*
X0297258Y0057666D02*
X0297258Y0065934D01*
D19*
X0289974Y0053729D03*
X0281549Y0179871D03*
D20*
X0285486Y0180461D03*
X0276037Y0180461D03*
X0276037Y0163139D03*
X0285486Y0163139D03*
X0286037Y0070461D03*
X0295486Y0070461D03*
X0295486Y0053139D03*
X0286037Y0053139D03*
D21*
X0337022Y0106800D03*
X0344502Y0106800D03*
X0339502Y0171800D03*
X0332022Y0171800D03*
X0332022Y0184300D03*
X0339502Y0184300D03*
X0337022Y0196800D03*
X0344502Y0196800D03*
X0104502Y0086800D03*
X0097022Y0086800D03*
X0097022Y0071800D03*
X0104502Y0071800D03*
D22*
X0306462Y0194300D03*
X0306462Y0199300D03*
X0306462Y0204300D03*
X0306462Y0209300D03*
X0325062Y0209300D03*
X0325062Y0204300D03*
X0325062Y0199300D03*
X0325062Y0194300D03*
D23*
X0415329Y0205225D03*
X0415329Y0122548D03*
D24*
X0429108Y0148139D03*
X0413360Y0156013D03*
X0429108Y0163887D03*
X0413360Y0171761D03*
X0429108Y0179635D03*
X0397612Y0179635D03*
X0397612Y0163887D03*
X0397612Y0148139D03*
D25*
X0168762Y0162800D03*
D26*
X0173242Y0161839D03*
X0158281Y0161839D03*
X0158281Y0141761D03*
X0173242Y0141761D03*
D27*
X0176162Y0124300D03*
X0176162Y0119300D03*
X0176162Y0114300D03*
X0176162Y0109300D03*
X0155362Y0109300D03*
X0155362Y0114300D03*
X0155362Y0119300D03*
X0155362Y0124300D03*
D28*
X0213362Y0142700D03*
X0213362Y0151800D03*
X0213362Y0160900D03*
D29*
X0188162Y0151800D03*
D30*
X0346510Y0235107D02*
X0355959Y0235107D01*
X0355959Y0248493D02*
X0346510Y0248493D01*
X0346510Y0270107D02*
X0355959Y0270107D01*
X0355959Y0283493D02*
X0346510Y0283493D01*
X0385565Y0283493D02*
X0395014Y0283493D01*
X0395014Y0270107D02*
X0385565Y0270107D01*
X0385565Y0248493D02*
X0395014Y0248493D01*
X0395014Y0235107D02*
X0385565Y0235107D01*
D31*
X0275762Y0262863D03*
X0275762Y0270737D03*
X0263262Y0270737D03*
X0263262Y0262863D03*
X0235762Y0262863D03*
X0235762Y0270737D03*
X0223262Y0270737D03*
X0223262Y0262863D03*
X0205762Y0262863D03*
X0205762Y0270737D03*
X0193262Y0270737D03*
X0193262Y0262863D03*
X0165762Y0262863D03*
X0165762Y0270737D03*
X0153262Y0270737D03*
X0153262Y0262863D03*
X0163262Y0245737D03*
X0163262Y0237863D03*
X0233262Y0237863D03*
X0233262Y0245737D03*
D32*
X0245762Y0245540D03*
X0245762Y0238060D03*
X0248262Y0263060D03*
X0248262Y0270540D03*
X0235762Y0288060D03*
X0235762Y0295540D03*
X0178262Y0270540D03*
X0178262Y0263060D03*
X0175762Y0245540D03*
X0175762Y0238060D03*
X0165762Y0288060D03*
X0165762Y0295540D03*
X0370762Y0180540D03*
X0370762Y0173060D03*
M02*
