G75*
%MOIN*%
%OFA0B0*%
%FSLAX25Y25*%
%IPPOS*%
%LPD*%
%AMOC8*
5,1,8,0,0,1.08239X$1,22.5*
%
%ADD10C,0.00000*%
%ADD11C,0.00300*%
%ADD12C,0.00600*%
%ADD13R,0.00200X0.00100*%
%ADD14R,0.00900X0.00100*%
%ADD15R,0.00400X0.00100*%
%ADD16R,0.00300X0.00100*%
%ADD17R,0.00700X0.00100*%
%ADD18R,0.01400X0.00100*%
%ADD19R,0.01200X0.00100*%
%ADD20R,0.01100X0.00100*%
%ADD21R,0.01300X0.00100*%
%ADD22R,0.00800X0.00100*%
%ADD23R,0.01000X0.00100*%
%ADD24R,0.01500X0.00100*%
%ADD25R,0.00500X0.00100*%
%ADD26R,0.00600X0.00100*%
%ADD27R,0.01900X0.00100*%
%ADD28R,0.04200X0.00100*%
%ADD29R,0.01800X0.00100*%
%ADD30R,0.02100X0.00100*%
%ADD31R,0.04300X0.00100*%
%ADD32R,0.02200X0.00100*%
%ADD33R,0.02000X0.00100*%
%ADD34R,0.04100X0.00100*%
%ADD35R,0.02300X0.00100*%
%ADD36R,0.00100X0.00100*%
%ADD37R,0.02400X0.00100*%
%ADD38R,0.02500X0.00100*%
%ADD39R,0.02600X0.00100*%
%ADD40R,0.02700X0.00100*%
%ADD41R,0.01700X0.00100*%
%ADD42R,0.02800X0.00100*%
%ADD43R,0.02900X0.00100*%
%ADD44R,0.03100X0.00100*%
%ADD45R,0.03400X0.00100*%
%ADD46R,0.03600X0.00100*%
%ADD47R,0.03800X0.00100*%
%ADD48R,0.04000X0.00100*%
%ADD49R,0.04400X0.00100*%
%ADD50R,0.04500X0.00100*%
%ADD51R,0.04600X0.00100*%
%ADD52R,0.04700X0.00100*%
%ADD53R,0.03700X0.00100*%
%ADD54R,0.03500X0.00100*%
%ADD55R,0.03200X0.00100*%
%ADD56R,0.01600X0.00100*%
%ADD57R,0.03000X0.00100*%
%ADD58R,0.03900X0.00100*%
%ADD59R,0.03300X0.00100*%
%ADD60C,0.00500*%
%ADD61C,0.00400*%
%ADD62R,0.00591X0.01181*%
%ADD63R,0.01181X0.01181*%
%ADD64R,0.01181X0.00591*%
%ADD65C,0.00800*%
%ADD66C,0.00200*%
%ADD67C,0.00098*%
%ADD68C,0.01200*%
%ADD69C,0.00100*%
D10*
X0025762Y0001800D02*
X0025762Y0331800D01*
X0450762Y0331800D01*
X0450762Y0001800D01*
X0025762Y0001800D01*
X0035162Y0016800D02*
X0035164Y0016949D01*
X0035170Y0017098D01*
X0035180Y0017247D01*
X0035194Y0017395D01*
X0035212Y0017543D01*
X0035233Y0017691D01*
X0035259Y0017838D01*
X0035289Y0017984D01*
X0035322Y0018129D01*
X0035359Y0018273D01*
X0035400Y0018417D01*
X0035445Y0018559D01*
X0035494Y0018700D01*
X0035547Y0018839D01*
X0035603Y0018977D01*
X0035662Y0019114D01*
X0035726Y0019249D01*
X0035793Y0019382D01*
X0035863Y0019513D01*
X0035937Y0019643D01*
X0036015Y0019770D01*
X0036095Y0019896D01*
X0036180Y0020019D01*
X0036267Y0020140D01*
X0036357Y0020258D01*
X0036451Y0020374D01*
X0036548Y0020488D01*
X0036647Y0020599D01*
X0036750Y0020707D01*
X0036855Y0020812D01*
X0036963Y0020915D01*
X0037074Y0021014D01*
X0037188Y0021111D01*
X0037304Y0021205D01*
X0037422Y0021295D01*
X0037543Y0021382D01*
X0037666Y0021467D01*
X0037792Y0021547D01*
X0037919Y0021625D01*
X0038049Y0021699D01*
X0038180Y0021769D01*
X0038313Y0021836D01*
X0038448Y0021900D01*
X0038585Y0021959D01*
X0038723Y0022015D01*
X0038862Y0022068D01*
X0039003Y0022117D01*
X0039145Y0022162D01*
X0039289Y0022203D01*
X0039433Y0022240D01*
X0039578Y0022273D01*
X0039724Y0022303D01*
X0039871Y0022329D01*
X0040019Y0022350D01*
X0040167Y0022368D01*
X0040315Y0022382D01*
X0040464Y0022392D01*
X0040613Y0022398D01*
X0040762Y0022400D01*
X0040911Y0022398D01*
X0041060Y0022392D01*
X0041209Y0022382D01*
X0041357Y0022368D01*
X0041505Y0022350D01*
X0041653Y0022329D01*
X0041800Y0022303D01*
X0041946Y0022273D01*
X0042091Y0022240D01*
X0042235Y0022203D01*
X0042379Y0022162D01*
X0042521Y0022117D01*
X0042662Y0022068D01*
X0042801Y0022015D01*
X0042939Y0021959D01*
X0043076Y0021900D01*
X0043211Y0021836D01*
X0043344Y0021769D01*
X0043475Y0021699D01*
X0043605Y0021625D01*
X0043732Y0021547D01*
X0043858Y0021467D01*
X0043981Y0021382D01*
X0044102Y0021295D01*
X0044220Y0021205D01*
X0044336Y0021111D01*
X0044450Y0021014D01*
X0044561Y0020915D01*
X0044669Y0020812D01*
X0044774Y0020707D01*
X0044877Y0020599D01*
X0044976Y0020488D01*
X0045073Y0020374D01*
X0045167Y0020258D01*
X0045257Y0020140D01*
X0045344Y0020019D01*
X0045429Y0019896D01*
X0045509Y0019770D01*
X0045587Y0019643D01*
X0045661Y0019513D01*
X0045731Y0019382D01*
X0045798Y0019249D01*
X0045862Y0019114D01*
X0045921Y0018977D01*
X0045977Y0018839D01*
X0046030Y0018700D01*
X0046079Y0018559D01*
X0046124Y0018417D01*
X0046165Y0018273D01*
X0046202Y0018129D01*
X0046235Y0017984D01*
X0046265Y0017838D01*
X0046291Y0017691D01*
X0046312Y0017543D01*
X0046330Y0017395D01*
X0046344Y0017247D01*
X0046354Y0017098D01*
X0046360Y0016949D01*
X0046362Y0016800D01*
X0046360Y0016651D01*
X0046354Y0016502D01*
X0046344Y0016353D01*
X0046330Y0016205D01*
X0046312Y0016057D01*
X0046291Y0015909D01*
X0046265Y0015762D01*
X0046235Y0015616D01*
X0046202Y0015471D01*
X0046165Y0015327D01*
X0046124Y0015183D01*
X0046079Y0015041D01*
X0046030Y0014900D01*
X0045977Y0014761D01*
X0045921Y0014623D01*
X0045862Y0014486D01*
X0045798Y0014351D01*
X0045731Y0014218D01*
X0045661Y0014087D01*
X0045587Y0013957D01*
X0045509Y0013830D01*
X0045429Y0013704D01*
X0045344Y0013581D01*
X0045257Y0013460D01*
X0045167Y0013342D01*
X0045073Y0013226D01*
X0044976Y0013112D01*
X0044877Y0013001D01*
X0044774Y0012893D01*
X0044669Y0012788D01*
X0044561Y0012685D01*
X0044450Y0012586D01*
X0044336Y0012489D01*
X0044220Y0012395D01*
X0044102Y0012305D01*
X0043981Y0012218D01*
X0043858Y0012133D01*
X0043732Y0012053D01*
X0043605Y0011975D01*
X0043475Y0011901D01*
X0043344Y0011831D01*
X0043211Y0011764D01*
X0043076Y0011700D01*
X0042939Y0011641D01*
X0042801Y0011585D01*
X0042662Y0011532D01*
X0042521Y0011483D01*
X0042379Y0011438D01*
X0042235Y0011397D01*
X0042091Y0011360D01*
X0041946Y0011327D01*
X0041800Y0011297D01*
X0041653Y0011271D01*
X0041505Y0011250D01*
X0041357Y0011232D01*
X0041209Y0011218D01*
X0041060Y0011208D01*
X0040911Y0011202D01*
X0040762Y0011200D01*
X0040613Y0011202D01*
X0040464Y0011208D01*
X0040315Y0011218D01*
X0040167Y0011232D01*
X0040019Y0011250D01*
X0039871Y0011271D01*
X0039724Y0011297D01*
X0039578Y0011327D01*
X0039433Y0011360D01*
X0039289Y0011397D01*
X0039145Y0011438D01*
X0039003Y0011483D01*
X0038862Y0011532D01*
X0038723Y0011585D01*
X0038585Y0011641D01*
X0038448Y0011700D01*
X0038313Y0011764D01*
X0038180Y0011831D01*
X0038049Y0011901D01*
X0037919Y0011975D01*
X0037792Y0012053D01*
X0037666Y0012133D01*
X0037543Y0012218D01*
X0037422Y0012305D01*
X0037304Y0012395D01*
X0037188Y0012489D01*
X0037074Y0012586D01*
X0036963Y0012685D01*
X0036855Y0012788D01*
X0036750Y0012893D01*
X0036647Y0013001D01*
X0036548Y0013112D01*
X0036451Y0013226D01*
X0036357Y0013342D01*
X0036267Y0013460D01*
X0036180Y0013581D01*
X0036095Y0013704D01*
X0036015Y0013830D01*
X0035937Y0013957D01*
X0035863Y0014087D01*
X0035793Y0014218D01*
X0035726Y0014351D01*
X0035662Y0014486D01*
X0035603Y0014623D01*
X0035547Y0014761D01*
X0035494Y0014900D01*
X0035445Y0015041D01*
X0035400Y0015183D01*
X0035359Y0015327D01*
X0035322Y0015471D01*
X0035289Y0015616D01*
X0035259Y0015762D01*
X0035233Y0015909D01*
X0035212Y0016057D01*
X0035194Y0016205D01*
X0035180Y0016353D01*
X0035170Y0016502D01*
X0035164Y0016651D01*
X0035162Y0016800D01*
X0314562Y0214900D02*
X0314564Y0214831D01*
X0314570Y0214763D01*
X0314580Y0214695D01*
X0314593Y0214628D01*
X0314611Y0214562D01*
X0314632Y0214497D01*
X0314657Y0214433D01*
X0314685Y0214371D01*
X0314717Y0214310D01*
X0314752Y0214251D01*
X0314791Y0214195D01*
X0314833Y0214140D01*
X0314878Y0214089D01*
X0314926Y0214039D01*
X0314976Y0213993D01*
X0315029Y0213950D01*
X0315085Y0213909D01*
X0315142Y0213872D01*
X0315202Y0213839D01*
X0315264Y0213808D01*
X0315327Y0213782D01*
X0315391Y0213759D01*
X0315457Y0213739D01*
X0315524Y0213724D01*
X0315591Y0213712D01*
X0315659Y0213704D01*
X0315728Y0213700D01*
X0315796Y0213700D01*
X0315865Y0213704D01*
X0315933Y0213712D01*
X0316000Y0213724D01*
X0316067Y0213739D01*
X0316133Y0213759D01*
X0316197Y0213782D01*
X0316260Y0213808D01*
X0316322Y0213839D01*
X0316382Y0213872D01*
X0316439Y0213909D01*
X0316495Y0213950D01*
X0316548Y0213993D01*
X0316598Y0214039D01*
X0316646Y0214089D01*
X0316691Y0214140D01*
X0316733Y0214195D01*
X0316772Y0214251D01*
X0316807Y0214310D01*
X0316839Y0214371D01*
X0316867Y0214433D01*
X0316892Y0214497D01*
X0316913Y0214562D01*
X0316931Y0214628D01*
X0316944Y0214695D01*
X0316954Y0214763D01*
X0316960Y0214831D01*
X0316962Y0214900D01*
X0265562Y0285600D02*
X0265493Y0285602D01*
X0265425Y0285608D01*
X0265357Y0285618D01*
X0265290Y0285631D01*
X0265224Y0285649D01*
X0265159Y0285670D01*
X0265095Y0285695D01*
X0265033Y0285723D01*
X0264972Y0285755D01*
X0264913Y0285790D01*
X0264857Y0285829D01*
X0264802Y0285871D01*
X0264751Y0285916D01*
X0264701Y0285964D01*
X0264655Y0286014D01*
X0264612Y0286067D01*
X0264571Y0286123D01*
X0264534Y0286180D01*
X0264501Y0286240D01*
X0264470Y0286302D01*
X0264444Y0286365D01*
X0264421Y0286429D01*
X0264401Y0286495D01*
X0264386Y0286562D01*
X0264374Y0286629D01*
X0264366Y0286697D01*
X0264362Y0286766D01*
X0264362Y0286834D01*
X0264366Y0286903D01*
X0264374Y0286971D01*
X0264386Y0287038D01*
X0264401Y0287105D01*
X0264421Y0287171D01*
X0264444Y0287235D01*
X0264470Y0287298D01*
X0264501Y0287360D01*
X0264534Y0287420D01*
X0264571Y0287477D01*
X0264612Y0287533D01*
X0264655Y0287586D01*
X0264701Y0287636D01*
X0264751Y0287684D01*
X0264802Y0287729D01*
X0264857Y0287771D01*
X0264913Y0287810D01*
X0264972Y0287845D01*
X0265033Y0287877D01*
X0265095Y0287905D01*
X0265159Y0287930D01*
X0265224Y0287951D01*
X0265290Y0287969D01*
X0265357Y0287982D01*
X0265425Y0287992D01*
X0265493Y0287998D01*
X0265562Y0288000D01*
X0195562Y0288000D02*
X0195493Y0287998D01*
X0195425Y0287992D01*
X0195357Y0287982D01*
X0195290Y0287969D01*
X0195224Y0287951D01*
X0195159Y0287930D01*
X0195095Y0287905D01*
X0195033Y0287877D01*
X0194972Y0287845D01*
X0194913Y0287810D01*
X0194857Y0287771D01*
X0194802Y0287729D01*
X0194751Y0287684D01*
X0194701Y0287636D01*
X0194655Y0287586D01*
X0194612Y0287533D01*
X0194571Y0287477D01*
X0194534Y0287420D01*
X0194501Y0287360D01*
X0194470Y0287298D01*
X0194444Y0287235D01*
X0194421Y0287171D01*
X0194401Y0287105D01*
X0194386Y0287038D01*
X0194374Y0286971D01*
X0194366Y0286903D01*
X0194362Y0286834D01*
X0194362Y0286766D01*
X0194366Y0286697D01*
X0194374Y0286629D01*
X0194386Y0286562D01*
X0194401Y0286495D01*
X0194421Y0286429D01*
X0194444Y0286365D01*
X0194470Y0286302D01*
X0194501Y0286240D01*
X0194534Y0286180D01*
X0194571Y0286123D01*
X0194612Y0286067D01*
X0194655Y0286014D01*
X0194701Y0285964D01*
X0194751Y0285916D01*
X0194802Y0285871D01*
X0194857Y0285829D01*
X0194913Y0285790D01*
X0194972Y0285755D01*
X0195033Y0285723D01*
X0195095Y0285695D01*
X0195159Y0285670D01*
X0195224Y0285649D01*
X0195290Y0285631D01*
X0195357Y0285618D01*
X0195425Y0285608D01*
X0195493Y0285602D01*
X0195562Y0285600D01*
X0035162Y0316800D02*
X0035164Y0316949D01*
X0035170Y0317098D01*
X0035180Y0317247D01*
X0035194Y0317395D01*
X0035212Y0317543D01*
X0035233Y0317691D01*
X0035259Y0317838D01*
X0035289Y0317984D01*
X0035322Y0318129D01*
X0035359Y0318273D01*
X0035400Y0318417D01*
X0035445Y0318559D01*
X0035494Y0318700D01*
X0035547Y0318839D01*
X0035603Y0318977D01*
X0035662Y0319114D01*
X0035726Y0319249D01*
X0035793Y0319382D01*
X0035863Y0319513D01*
X0035937Y0319643D01*
X0036015Y0319770D01*
X0036095Y0319896D01*
X0036180Y0320019D01*
X0036267Y0320140D01*
X0036357Y0320258D01*
X0036451Y0320374D01*
X0036548Y0320488D01*
X0036647Y0320599D01*
X0036750Y0320707D01*
X0036855Y0320812D01*
X0036963Y0320915D01*
X0037074Y0321014D01*
X0037188Y0321111D01*
X0037304Y0321205D01*
X0037422Y0321295D01*
X0037543Y0321382D01*
X0037666Y0321467D01*
X0037792Y0321547D01*
X0037919Y0321625D01*
X0038049Y0321699D01*
X0038180Y0321769D01*
X0038313Y0321836D01*
X0038448Y0321900D01*
X0038585Y0321959D01*
X0038723Y0322015D01*
X0038862Y0322068D01*
X0039003Y0322117D01*
X0039145Y0322162D01*
X0039289Y0322203D01*
X0039433Y0322240D01*
X0039578Y0322273D01*
X0039724Y0322303D01*
X0039871Y0322329D01*
X0040019Y0322350D01*
X0040167Y0322368D01*
X0040315Y0322382D01*
X0040464Y0322392D01*
X0040613Y0322398D01*
X0040762Y0322400D01*
X0040911Y0322398D01*
X0041060Y0322392D01*
X0041209Y0322382D01*
X0041357Y0322368D01*
X0041505Y0322350D01*
X0041653Y0322329D01*
X0041800Y0322303D01*
X0041946Y0322273D01*
X0042091Y0322240D01*
X0042235Y0322203D01*
X0042379Y0322162D01*
X0042521Y0322117D01*
X0042662Y0322068D01*
X0042801Y0322015D01*
X0042939Y0321959D01*
X0043076Y0321900D01*
X0043211Y0321836D01*
X0043344Y0321769D01*
X0043475Y0321699D01*
X0043605Y0321625D01*
X0043732Y0321547D01*
X0043858Y0321467D01*
X0043981Y0321382D01*
X0044102Y0321295D01*
X0044220Y0321205D01*
X0044336Y0321111D01*
X0044450Y0321014D01*
X0044561Y0320915D01*
X0044669Y0320812D01*
X0044774Y0320707D01*
X0044877Y0320599D01*
X0044976Y0320488D01*
X0045073Y0320374D01*
X0045167Y0320258D01*
X0045257Y0320140D01*
X0045344Y0320019D01*
X0045429Y0319896D01*
X0045509Y0319770D01*
X0045587Y0319643D01*
X0045661Y0319513D01*
X0045731Y0319382D01*
X0045798Y0319249D01*
X0045862Y0319114D01*
X0045921Y0318977D01*
X0045977Y0318839D01*
X0046030Y0318700D01*
X0046079Y0318559D01*
X0046124Y0318417D01*
X0046165Y0318273D01*
X0046202Y0318129D01*
X0046235Y0317984D01*
X0046265Y0317838D01*
X0046291Y0317691D01*
X0046312Y0317543D01*
X0046330Y0317395D01*
X0046344Y0317247D01*
X0046354Y0317098D01*
X0046360Y0316949D01*
X0046362Y0316800D01*
X0046360Y0316651D01*
X0046354Y0316502D01*
X0046344Y0316353D01*
X0046330Y0316205D01*
X0046312Y0316057D01*
X0046291Y0315909D01*
X0046265Y0315762D01*
X0046235Y0315616D01*
X0046202Y0315471D01*
X0046165Y0315327D01*
X0046124Y0315183D01*
X0046079Y0315041D01*
X0046030Y0314900D01*
X0045977Y0314761D01*
X0045921Y0314623D01*
X0045862Y0314486D01*
X0045798Y0314351D01*
X0045731Y0314218D01*
X0045661Y0314087D01*
X0045587Y0313957D01*
X0045509Y0313830D01*
X0045429Y0313704D01*
X0045344Y0313581D01*
X0045257Y0313460D01*
X0045167Y0313342D01*
X0045073Y0313226D01*
X0044976Y0313112D01*
X0044877Y0313001D01*
X0044774Y0312893D01*
X0044669Y0312788D01*
X0044561Y0312685D01*
X0044450Y0312586D01*
X0044336Y0312489D01*
X0044220Y0312395D01*
X0044102Y0312305D01*
X0043981Y0312218D01*
X0043858Y0312133D01*
X0043732Y0312053D01*
X0043605Y0311975D01*
X0043475Y0311901D01*
X0043344Y0311831D01*
X0043211Y0311764D01*
X0043076Y0311700D01*
X0042939Y0311641D01*
X0042801Y0311585D01*
X0042662Y0311532D01*
X0042521Y0311483D01*
X0042379Y0311438D01*
X0042235Y0311397D01*
X0042091Y0311360D01*
X0041946Y0311327D01*
X0041800Y0311297D01*
X0041653Y0311271D01*
X0041505Y0311250D01*
X0041357Y0311232D01*
X0041209Y0311218D01*
X0041060Y0311208D01*
X0040911Y0311202D01*
X0040762Y0311200D01*
X0040613Y0311202D01*
X0040464Y0311208D01*
X0040315Y0311218D01*
X0040167Y0311232D01*
X0040019Y0311250D01*
X0039871Y0311271D01*
X0039724Y0311297D01*
X0039578Y0311327D01*
X0039433Y0311360D01*
X0039289Y0311397D01*
X0039145Y0311438D01*
X0039003Y0311483D01*
X0038862Y0311532D01*
X0038723Y0311585D01*
X0038585Y0311641D01*
X0038448Y0311700D01*
X0038313Y0311764D01*
X0038180Y0311831D01*
X0038049Y0311901D01*
X0037919Y0311975D01*
X0037792Y0312053D01*
X0037666Y0312133D01*
X0037543Y0312218D01*
X0037422Y0312305D01*
X0037304Y0312395D01*
X0037188Y0312489D01*
X0037074Y0312586D01*
X0036963Y0312685D01*
X0036855Y0312788D01*
X0036750Y0312893D01*
X0036647Y0313001D01*
X0036548Y0313112D01*
X0036451Y0313226D01*
X0036357Y0313342D01*
X0036267Y0313460D01*
X0036180Y0313581D01*
X0036095Y0313704D01*
X0036015Y0313830D01*
X0035937Y0313957D01*
X0035863Y0314087D01*
X0035793Y0314218D01*
X0035726Y0314351D01*
X0035662Y0314486D01*
X0035603Y0314623D01*
X0035547Y0314761D01*
X0035494Y0314900D01*
X0035445Y0315041D01*
X0035400Y0315183D01*
X0035359Y0315327D01*
X0035322Y0315471D01*
X0035289Y0315616D01*
X0035259Y0315762D01*
X0035233Y0315909D01*
X0035212Y0316057D01*
X0035194Y0316205D01*
X0035180Y0316353D01*
X0035170Y0316502D01*
X0035164Y0316651D01*
X0035162Y0316800D01*
X0409719Y0205225D02*
X0409721Y0205374D01*
X0409727Y0205524D01*
X0409737Y0205673D01*
X0409751Y0205821D01*
X0409769Y0205970D01*
X0409790Y0206117D01*
X0409816Y0206264D01*
X0409846Y0206411D01*
X0409879Y0206556D01*
X0409917Y0206701D01*
X0409958Y0206845D01*
X0410003Y0206987D01*
X0410052Y0207128D01*
X0410104Y0207268D01*
X0410160Y0207406D01*
X0410220Y0207543D01*
X0410284Y0207678D01*
X0410351Y0207812D01*
X0410422Y0207943D01*
X0410496Y0208073D01*
X0410573Y0208201D01*
X0410654Y0208326D01*
X0410738Y0208450D01*
X0410826Y0208571D01*
X0410916Y0208689D01*
X0411010Y0208806D01*
X0411107Y0208919D01*
X0411207Y0209030D01*
X0411310Y0209139D01*
X0411415Y0209244D01*
X0411524Y0209347D01*
X0411635Y0209447D01*
X0411748Y0209544D01*
X0411865Y0209638D01*
X0411983Y0209728D01*
X0412104Y0209816D01*
X0412228Y0209900D01*
X0412353Y0209981D01*
X0412481Y0210058D01*
X0412611Y0210132D01*
X0412742Y0210203D01*
X0412876Y0210270D01*
X0413011Y0210334D01*
X0413148Y0210394D01*
X0413286Y0210450D01*
X0413426Y0210502D01*
X0413567Y0210551D01*
X0413709Y0210596D01*
X0413853Y0210637D01*
X0413998Y0210675D01*
X0414143Y0210708D01*
X0414290Y0210738D01*
X0414437Y0210764D01*
X0414584Y0210785D01*
X0414733Y0210803D01*
X0414881Y0210817D01*
X0415030Y0210827D01*
X0415180Y0210833D01*
X0415329Y0210835D01*
X0415478Y0210833D01*
X0415628Y0210827D01*
X0415777Y0210817D01*
X0415925Y0210803D01*
X0416074Y0210785D01*
X0416221Y0210764D01*
X0416368Y0210738D01*
X0416515Y0210708D01*
X0416660Y0210675D01*
X0416805Y0210637D01*
X0416949Y0210596D01*
X0417091Y0210551D01*
X0417232Y0210502D01*
X0417372Y0210450D01*
X0417510Y0210394D01*
X0417647Y0210334D01*
X0417782Y0210270D01*
X0417916Y0210203D01*
X0418047Y0210132D01*
X0418177Y0210058D01*
X0418305Y0209981D01*
X0418430Y0209900D01*
X0418554Y0209816D01*
X0418675Y0209728D01*
X0418793Y0209638D01*
X0418910Y0209544D01*
X0419023Y0209447D01*
X0419134Y0209347D01*
X0419243Y0209244D01*
X0419348Y0209139D01*
X0419451Y0209030D01*
X0419551Y0208919D01*
X0419648Y0208806D01*
X0419742Y0208689D01*
X0419832Y0208571D01*
X0419920Y0208450D01*
X0420004Y0208326D01*
X0420085Y0208201D01*
X0420162Y0208073D01*
X0420236Y0207943D01*
X0420307Y0207812D01*
X0420374Y0207678D01*
X0420438Y0207543D01*
X0420498Y0207406D01*
X0420554Y0207268D01*
X0420606Y0207128D01*
X0420655Y0206987D01*
X0420700Y0206845D01*
X0420741Y0206701D01*
X0420779Y0206556D01*
X0420812Y0206411D01*
X0420842Y0206264D01*
X0420868Y0206117D01*
X0420889Y0205970D01*
X0420907Y0205821D01*
X0420921Y0205673D01*
X0420931Y0205524D01*
X0420937Y0205374D01*
X0420939Y0205225D01*
X0420937Y0205076D01*
X0420931Y0204926D01*
X0420921Y0204777D01*
X0420907Y0204629D01*
X0420889Y0204480D01*
X0420868Y0204333D01*
X0420842Y0204186D01*
X0420812Y0204039D01*
X0420779Y0203894D01*
X0420741Y0203749D01*
X0420700Y0203605D01*
X0420655Y0203463D01*
X0420606Y0203322D01*
X0420554Y0203182D01*
X0420498Y0203044D01*
X0420438Y0202907D01*
X0420374Y0202772D01*
X0420307Y0202638D01*
X0420236Y0202507D01*
X0420162Y0202377D01*
X0420085Y0202249D01*
X0420004Y0202124D01*
X0419920Y0202000D01*
X0419832Y0201879D01*
X0419742Y0201761D01*
X0419648Y0201644D01*
X0419551Y0201531D01*
X0419451Y0201420D01*
X0419348Y0201311D01*
X0419243Y0201206D01*
X0419134Y0201103D01*
X0419023Y0201003D01*
X0418910Y0200906D01*
X0418793Y0200812D01*
X0418675Y0200722D01*
X0418554Y0200634D01*
X0418430Y0200550D01*
X0418305Y0200469D01*
X0418177Y0200392D01*
X0418047Y0200318D01*
X0417916Y0200247D01*
X0417782Y0200180D01*
X0417647Y0200116D01*
X0417510Y0200056D01*
X0417372Y0200000D01*
X0417232Y0199948D01*
X0417091Y0199899D01*
X0416949Y0199854D01*
X0416805Y0199813D01*
X0416660Y0199775D01*
X0416515Y0199742D01*
X0416368Y0199712D01*
X0416221Y0199686D01*
X0416074Y0199665D01*
X0415925Y0199647D01*
X0415777Y0199633D01*
X0415628Y0199623D01*
X0415478Y0199617D01*
X0415329Y0199615D01*
X0415180Y0199617D01*
X0415030Y0199623D01*
X0414881Y0199633D01*
X0414733Y0199647D01*
X0414584Y0199665D01*
X0414437Y0199686D01*
X0414290Y0199712D01*
X0414143Y0199742D01*
X0413998Y0199775D01*
X0413853Y0199813D01*
X0413709Y0199854D01*
X0413567Y0199899D01*
X0413426Y0199948D01*
X0413286Y0200000D01*
X0413148Y0200056D01*
X0413011Y0200116D01*
X0412876Y0200180D01*
X0412742Y0200247D01*
X0412611Y0200318D01*
X0412481Y0200392D01*
X0412353Y0200469D01*
X0412228Y0200550D01*
X0412104Y0200634D01*
X0411983Y0200722D01*
X0411865Y0200812D01*
X0411748Y0200906D01*
X0411635Y0201003D01*
X0411524Y0201103D01*
X0411415Y0201206D01*
X0411310Y0201311D01*
X0411207Y0201420D01*
X0411107Y0201531D01*
X0411010Y0201644D01*
X0410916Y0201761D01*
X0410826Y0201879D01*
X0410738Y0202000D01*
X0410654Y0202124D01*
X0410573Y0202249D01*
X0410496Y0202377D01*
X0410422Y0202507D01*
X0410351Y0202638D01*
X0410284Y0202772D01*
X0410220Y0202907D01*
X0410160Y0203044D01*
X0410104Y0203182D01*
X0410052Y0203322D01*
X0410003Y0203463D01*
X0409958Y0203605D01*
X0409917Y0203749D01*
X0409879Y0203894D01*
X0409846Y0204039D01*
X0409816Y0204186D01*
X0409790Y0204333D01*
X0409769Y0204480D01*
X0409751Y0204629D01*
X0409737Y0204777D01*
X0409727Y0204926D01*
X0409721Y0205076D01*
X0409719Y0205225D01*
X0409719Y0122548D02*
X0409721Y0122697D01*
X0409727Y0122847D01*
X0409737Y0122996D01*
X0409751Y0123144D01*
X0409769Y0123293D01*
X0409790Y0123440D01*
X0409816Y0123587D01*
X0409846Y0123734D01*
X0409879Y0123879D01*
X0409917Y0124024D01*
X0409958Y0124168D01*
X0410003Y0124310D01*
X0410052Y0124451D01*
X0410104Y0124591D01*
X0410160Y0124729D01*
X0410220Y0124866D01*
X0410284Y0125001D01*
X0410351Y0125135D01*
X0410422Y0125266D01*
X0410496Y0125396D01*
X0410573Y0125524D01*
X0410654Y0125649D01*
X0410738Y0125773D01*
X0410826Y0125894D01*
X0410916Y0126012D01*
X0411010Y0126129D01*
X0411107Y0126242D01*
X0411207Y0126353D01*
X0411310Y0126462D01*
X0411415Y0126567D01*
X0411524Y0126670D01*
X0411635Y0126770D01*
X0411748Y0126867D01*
X0411865Y0126961D01*
X0411983Y0127051D01*
X0412104Y0127139D01*
X0412228Y0127223D01*
X0412353Y0127304D01*
X0412481Y0127381D01*
X0412611Y0127455D01*
X0412742Y0127526D01*
X0412876Y0127593D01*
X0413011Y0127657D01*
X0413148Y0127717D01*
X0413286Y0127773D01*
X0413426Y0127825D01*
X0413567Y0127874D01*
X0413709Y0127919D01*
X0413853Y0127960D01*
X0413998Y0127998D01*
X0414143Y0128031D01*
X0414290Y0128061D01*
X0414437Y0128087D01*
X0414584Y0128108D01*
X0414733Y0128126D01*
X0414881Y0128140D01*
X0415030Y0128150D01*
X0415180Y0128156D01*
X0415329Y0128158D01*
X0415478Y0128156D01*
X0415628Y0128150D01*
X0415777Y0128140D01*
X0415925Y0128126D01*
X0416074Y0128108D01*
X0416221Y0128087D01*
X0416368Y0128061D01*
X0416515Y0128031D01*
X0416660Y0127998D01*
X0416805Y0127960D01*
X0416949Y0127919D01*
X0417091Y0127874D01*
X0417232Y0127825D01*
X0417372Y0127773D01*
X0417510Y0127717D01*
X0417647Y0127657D01*
X0417782Y0127593D01*
X0417916Y0127526D01*
X0418047Y0127455D01*
X0418177Y0127381D01*
X0418305Y0127304D01*
X0418430Y0127223D01*
X0418554Y0127139D01*
X0418675Y0127051D01*
X0418793Y0126961D01*
X0418910Y0126867D01*
X0419023Y0126770D01*
X0419134Y0126670D01*
X0419243Y0126567D01*
X0419348Y0126462D01*
X0419451Y0126353D01*
X0419551Y0126242D01*
X0419648Y0126129D01*
X0419742Y0126012D01*
X0419832Y0125894D01*
X0419920Y0125773D01*
X0420004Y0125649D01*
X0420085Y0125524D01*
X0420162Y0125396D01*
X0420236Y0125266D01*
X0420307Y0125135D01*
X0420374Y0125001D01*
X0420438Y0124866D01*
X0420498Y0124729D01*
X0420554Y0124591D01*
X0420606Y0124451D01*
X0420655Y0124310D01*
X0420700Y0124168D01*
X0420741Y0124024D01*
X0420779Y0123879D01*
X0420812Y0123734D01*
X0420842Y0123587D01*
X0420868Y0123440D01*
X0420889Y0123293D01*
X0420907Y0123144D01*
X0420921Y0122996D01*
X0420931Y0122847D01*
X0420937Y0122697D01*
X0420939Y0122548D01*
X0420937Y0122399D01*
X0420931Y0122249D01*
X0420921Y0122100D01*
X0420907Y0121952D01*
X0420889Y0121803D01*
X0420868Y0121656D01*
X0420842Y0121509D01*
X0420812Y0121362D01*
X0420779Y0121217D01*
X0420741Y0121072D01*
X0420700Y0120928D01*
X0420655Y0120786D01*
X0420606Y0120645D01*
X0420554Y0120505D01*
X0420498Y0120367D01*
X0420438Y0120230D01*
X0420374Y0120095D01*
X0420307Y0119961D01*
X0420236Y0119830D01*
X0420162Y0119700D01*
X0420085Y0119572D01*
X0420004Y0119447D01*
X0419920Y0119323D01*
X0419832Y0119202D01*
X0419742Y0119084D01*
X0419648Y0118967D01*
X0419551Y0118854D01*
X0419451Y0118743D01*
X0419348Y0118634D01*
X0419243Y0118529D01*
X0419134Y0118426D01*
X0419023Y0118326D01*
X0418910Y0118229D01*
X0418793Y0118135D01*
X0418675Y0118045D01*
X0418554Y0117957D01*
X0418430Y0117873D01*
X0418305Y0117792D01*
X0418177Y0117715D01*
X0418047Y0117641D01*
X0417916Y0117570D01*
X0417782Y0117503D01*
X0417647Y0117439D01*
X0417510Y0117379D01*
X0417372Y0117323D01*
X0417232Y0117271D01*
X0417091Y0117222D01*
X0416949Y0117177D01*
X0416805Y0117136D01*
X0416660Y0117098D01*
X0416515Y0117065D01*
X0416368Y0117035D01*
X0416221Y0117009D01*
X0416074Y0116988D01*
X0415925Y0116970D01*
X0415777Y0116956D01*
X0415628Y0116946D01*
X0415478Y0116940D01*
X0415329Y0116938D01*
X0415180Y0116940D01*
X0415030Y0116946D01*
X0414881Y0116956D01*
X0414733Y0116970D01*
X0414584Y0116988D01*
X0414437Y0117009D01*
X0414290Y0117035D01*
X0414143Y0117065D01*
X0413998Y0117098D01*
X0413853Y0117136D01*
X0413709Y0117177D01*
X0413567Y0117222D01*
X0413426Y0117271D01*
X0413286Y0117323D01*
X0413148Y0117379D01*
X0413011Y0117439D01*
X0412876Y0117503D01*
X0412742Y0117570D01*
X0412611Y0117641D01*
X0412481Y0117715D01*
X0412353Y0117792D01*
X0412228Y0117873D01*
X0412104Y0117957D01*
X0411983Y0118045D01*
X0411865Y0118135D01*
X0411748Y0118229D01*
X0411635Y0118326D01*
X0411524Y0118426D01*
X0411415Y0118529D01*
X0411310Y0118634D01*
X0411207Y0118743D01*
X0411107Y0118854D01*
X0411010Y0118967D01*
X0410916Y0119084D01*
X0410826Y0119202D01*
X0410738Y0119323D01*
X0410654Y0119447D01*
X0410573Y0119572D01*
X0410496Y0119700D01*
X0410422Y0119830D01*
X0410351Y0119961D01*
X0410284Y0120095D01*
X0410220Y0120230D01*
X0410160Y0120367D01*
X0410104Y0120505D01*
X0410052Y0120645D01*
X0410003Y0120786D01*
X0409958Y0120928D01*
X0409917Y0121072D01*
X0409879Y0121217D01*
X0409846Y0121362D01*
X0409816Y0121509D01*
X0409790Y0121656D01*
X0409769Y0121803D01*
X0409751Y0121952D01*
X0409737Y0122100D01*
X0409727Y0122249D01*
X0409721Y0122399D01*
X0409719Y0122548D01*
X0430162Y0016800D02*
X0430164Y0016949D01*
X0430170Y0017098D01*
X0430180Y0017247D01*
X0430194Y0017395D01*
X0430212Y0017543D01*
X0430233Y0017691D01*
X0430259Y0017838D01*
X0430289Y0017984D01*
X0430322Y0018129D01*
X0430359Y0018273D01*
X0430400Y0018417D01*
X0430445Y0018559D01*
X0430494Y0018700D01*
X0430547Y0018839D01*
X0430603Y0018977D01*
X0430662Y0019114D01*
X0430726Y0019249D01*
X0430793Y0019382D01*
X0430863Y0019513D01*
X0430937Y0019643D01*
X0431015Y0019770D01*
X0431095Y0019896D01*
X0431180Y0020019D01*
X0431267Y0020140D01*
X0431357Y0020258D01*
X0431451Y0020374D01*
X0431548Y0020488D01*
X0431647Y0020599D01*
X0431750Y0020707D01*
X0431855Y0020812D01*
X0431963Y0020915D01*
X0432074Y0021014D01*
X0432188Y0021111D01*
X0432304Y0021205D01*
X0432422Y0021295D01*
X0432543Y0021382D01*
X0432666Y0021467D01*
X0432792Y0021547D01*
X0432919Y0021625D01*
X0433049Y0021699D01*
X0433180Y0021769D01*
X0433313Y0021836D01*
X0433448Y0021900D01*
X0433585Y0021959D01*
X0433723Y0022015D01*
X0433862Y0022068D01*
X0434003Y0022117D01*
X0434145Y0022162D01*
X0434289Y0022203D01*
X0434433Y0022240D01*
X0434578Y0022273D01*
X0434724Y0022303D01*
X0434871Y0022329D01*
X0435019Y0022350D01*
X0435167Y0022368D01*
X0435315Y0022382D01*
X0435464Y0022392D01*
X0435613Y0022398D01*
X0435762Y0022400D01*
X0435911Y0022398D01*
X0436060Y0022392D01*
X0436209Y0022382D01*
X0436357Y0022368D01*
X0436505Y0022350D01*
X0436653Y0022329D01*
X0436800Y0022303D01*
X0436946Y0022273D01*
X0437091Y0022240D01*
X0437235Y0022203D01*
X0437379Y0022162D01*
X0437521Y0022117D01*
X0437662Y0022068D01*
X0437801Y0022015D01*
X0437939Y0021959D01*
X0438076Y0021900D01*
X0438211Y0021836D01*
X0438344Y0021769D01*
X0438475Y0021699D01*
X0438605Y0021625D01*
X0438732Y0021547D01*
X0438858Y0021467D01*
X0438981Y0021382D01*
X0439102Y0021295D01*
X0439220Y0021205D01*
X0439336Y0021111D01*
X0439450Y0021014D01*
X0439561Y0020915D01*
X0439669Y0020812D01*
X0439774Y0020707D01*
X0439877Y0020599D01*
X0439976Y0020488D01*
X0440073Y0020374D01*
X0440167Y0020258D01*
X0440257Y0020140D01*
X0440344Y0020019D01*
X0440429Y0019896D01*
X0440509Y0019770D01*
X0440587Y0019643D01*
X0440661Y0019513D01*
X0440731Y0019382D01*
X0440798Y0019249D01*
X0440862Y0019114D01*
X0440921Y0018977D01*
X0440977Y0018839D01*
X0441030Y0018700D01*
X0441079Y0018559D01*
X0441124Y0018417D01*
X0441165Y0018273D01*
X0441202Y0018129D01*
X0441235Y0017984D01*
X0441265Y0017838D01*
X0441291Y0017691D01*
X0441312Y0017543D01*
X0441330Y0017395D01*
X0441344Y0017247D01*
X0441354Y0017098D01*
X0441360Y0016949D01*
X0441362Y0016800D01*
X0441360Y0016651D01*
X0441354Y0016502D01*
X0441344Y0016353D01*
X0441330Y0016205D01*
X0441312Y0016057D01*
X0441291Y0015909D01*
X0441265Y0015762D01*
X0441235Y0015616D01*
X0441202Y0015471D01*
X0441165Y0015327D01*
X0441124Y0015183D01*
X0441079Y0015041D01*
X0441030Y0014900D01*
X0440977Y0014761D01*
X0440921Y0014623D01*
X0440862Y0014486D01*
X0440798Y0014351D01*
X0440731Y0014218D01*
X0440661Y0014087D01*
X0440587Y0013957D01*
X0440509Y0013830D01*
X0440429Y0013704D01*
X0440344Y0013581D01*
X0440257Y0013460D01*
X0440167Y0013342D01*
X0440073Y0013226D01*
X0439976Y0013112D01*
X0439877Y0013001D01*
X0439774Y0012893D01*
X0439669Y0012788D01*
X0439561Y0012685D01*
X0439450Y0012586D01*
X0439336Y0012489D01*
X0439220Y0012395D01*
X0439102Y0012305D01*
X0438981Y0012218D01*
X0438858Y0012133D01*
X0438732Y0012053D01*
X0438605Y0011975D01*
X0438475Y0011901D01*
X0438344Y0011831D01*
X0438211Y0011764D01*
X0438076Y0011700D01*
X0437939Y0011641D01*
X0437801Y0011585D01*
X0437662Y0011532D01*
X0437521Y0011483D01*
X0437379Y0011438D01*
X0437235Y0011397D01*
X0437091Y0011360D01*
X0436946Y0011327D01*
X0436800Y0011297D01*
X0436653Y0011271D01*
X0436505Y0011250D01*
X0436357Y0011232D01*
X0436209Y0011218D01*
X0436060Y0011208D01*
X0435911Y0011202D01*
X0435762Y0011200D01*
X0435613Y0011202D01*
X0435464Y0011208D01*
X0435315Y0011218D01*
X0435167Y0011232D01*
X0435019Y0011250D01*
X0434871Y0011271D01*
X0434724Y0011297D01*
X0434578Y0011327D01*
X0434433Y0011360D01*
X0434289Y0011397D01*
X0434145Y0011438D01*
X0434003Y0011483D01*
X0433862Y0011532D01*
X0433723Y0011585D01*
X0433585Y0011641D01*
X0433448Y0011700D01*
X0433313Y0011764D01*
X0433180Y0011831D01*
X0433049Y0011901D01*
X0432919Y0011975D01*
X0432792Y0012053D01*
X0432666Y0012133D01*
X0432543Y0012218D01*
X0432422Y0012305D01*
X0432304Y0012395D01*
X0432188Y0012489D01*
X0432074Y0012586D01*
X0431963Y0012685D01*
X0431855Y0012788D01*
X0431750Y0012893D01*
X0431647Y0013001D01*
X0431548Y0013112D01*
X0431451Y0013226D01*
X0431357Y0013342D01*
X0431267Y0013460D01*
X0431180Y0013581D01*
X0431095Y0013704D01*
X0431015Y0013830D01*
X0430937Y0013957D01*
X0430863Y0014087D01*
X0430793Y0014218D01*
X0430726Y0014351D01*
X0430662Y0014486D01*
X0430603Y0014623D01*
X0430547Y0014761D01*
X0430494Y0014900D01*
X0430445Y0015041D01*
X0430400Y0015183D01*
X0430359Y0015327D01*
X0430322Y0015471D01*
X0430289Y0015616D01*
X0430259Y0015762D01*
X0430233Y0015909D01*
X0430212Y0016057D01*
X0430194Y0016205D01*
X0430180Y0016353D01*
X0430170Y0016502D01*
X0430164Y0016651D01*
X0430162Y0016800D01*
X0430162Y0316800D02*
X0430164Y0316949D01*
X0430170Y0317098D01*
X0430180Y0317247D01*
X0430194Y0317395D01*
X0430212Y0317543D01*
X0430233Y0317691D01*
X0430259Y0317838D01*
X0430289Y0317984D01*
X0430322Y0318129D01*
X0430359Y0318273D01*
X0430400Y0318417D01*
X0430445Y0318559D01*
X0430494Y0318700D01*
X0430547Y0318839D01*
X0430603Y0318977D01*
X0430662Y0319114D01*
X0430726Y0319249D01*
X0430793Y0319382D01*
X0430863Y0319513D01*
X0430937Y0319643D01*
X0431015Y0319770D01*
X0431095Y0319896D01*
X0431180Y0320019D01*
X0431267Y0320140D01*
X0431357Y0320258D01*
X0431451Y0320374D01*
X0431548Y0320488D01*
X0431647Y0320599D01*
X0431750Y0320707D01*
X0431855Y0320812D01*
X0431963Y0320915D01*
X0432074Y0321014D01*
X0432188Y0321111D01*
X0432304Y0321205D01*
X0432422Y0321295D01*
X0432543Y0321382D01*
X0432666Y0321467D01*
X0432792Y0321547D01*
X0432919Y0321625D01*
X0433049Y0321699D01*
X0433180Y0321769D01*
X0433313Y0321836D01*
X0433448Y0321900D01*
X0433585Y0321959D01*
X0433723Y0322015D01*
X0433862Y0322068D01*
X0434003Y0322117D01*
X0434145Y0322162D01*
X0434289Y0322203D01*
X0434433Y0322240D01*
X0434578Y0322273D01*
X0434724Y0322303D01*
X0434871Y0322329D01*
X0435019Y0322350D01*
X0435167Y0322368D01*
X0435315Y0322382D01*
X0435464Y0322392D01*
X0435613Y0322398D01*
X0435762Y0322400D01*
X0435911Y0322398D01*
X0436060Y0322392D01*
X0436209Y0322382D01*
X0436357Y0322368D01*
X0436505Y0322350D01*
X0436653Y0322329D01*
X0436800Y0322303D01*
X0436946Y0322273D01*
X0437091Y0322240D01*
X0437235Y0322203D01*
X0437379Y0322162D01*
X0437521Y0322117D01*
X0437662Y0322068D01*
X0437801Y0322015D01*
X0437939Y0321959D01*
X0438076Y0321900D01*
X0438211Y0321836D01*
X0438344Y0321769D01*
X0438475Y0321699D01*
X0438605Y0321625D01*
X0438732Y0321547D01*
X0438858Y0321467D01*
X0438981Y0321382D01*
X0439102Y0321295D01*
X0439220Y0321205D01*
X0439336Y0321111D01*
X0439450Y0321014D01*
X0439561Y0320915D01*
X0439669Y0320812D01*
X0439774Y0320707D01*
X0439877Y0320599D01*
X0439976Y0320488D01*
X0440073Y0320374D01*
X0440167Y0320258D01*
X0440257Y0320140D01*
X0440344Y0320019D01*
X0440429Y0319896D01*
X0440509Y0319770D01*
X0440587Y0319643D01*
X0440661Y0319513D01*
X0440731Y0319382D01*
X0440798Y0319249D01*
X0440862Y0319114D01*
X0440921Y0318977D01*
X0440977Y0318839D01*
X0441030Y0318700D01*
X0441079Y0318559D01*
X0441124Y0318417D01*
X0441165Y0318273D01*
X0441202Y0318129D01*
X0441235Y0317984D01*
X0441265Y0317838D01*
X0441291Y0317691D01*
X0441312Y0317543D01*
X0441330Y0317395D01*
X0441344Y0317247D01*
X0441354Y0317098D01*
X0441360Y0316949D01*
X0441362Y0316800D01*
X0441360Y0316651D01*
X0441354Y0316502D01*
X0441344Y0316353D01*
X0441330Y0316205D01*
X0441312Y0316057D01*
X0441291Y0315909D01*
X0441265Y0315762D01*
X0441235Y0315616D01*
X0441202Y0315471D01*
X0441165Y0315327D01*
X0441124Y0315183D01*
X0441079Y0315041D01*
X0441030Y0314900D01*
X0440977Y0314761D01*
X0440921Y0314623D01*
X0440862Y0314486D01*
X0440798Y0314351D01*
X0440731Y0314218D01*
X0440661Y0314087D01*
X0440587Y0313957D01*
X0440509Y0313830D01*
X0440429Y0313704D01*
X0440344Y0313581D01*
X0440257Y0313460D01*
X0440167Y0313342D01*
X0440073Y0313226D01*
X0439976Y0313112D01*
X0439877Y0313001D01*
X0439774Y0312893D01*
X0439669Y0312788D01*
X0439561Y0312685D01*
X0439450Y0312586D01*
X0439336Y0312489D01*
X0439220Y0312395D01*
X0439102Y0312305D01*
X0438981Y0312218D01*
X0438858Y0312133D01*
X0438732Y0312053D01*
X0438605Y0311975D01*
X0438475Y0311901D01*
X0438344Y0311831D01*
X0438211Y0311764D01*
X0438076Y0311700D01*
X0437939Y0311641D01*
X0437801Y0311585D01*
X0437662Y0311532D01*
X0437521Y0311483D01*
X0437379Y0311438D01*
X0437235Y0311397D01*
X0437091Y0311360D01*
X0436946Y0311327D01*
X0436800Y0311297D01*
X0436653Y0311271D01*
X0436505Y0311250D01*
X0436357Y0311232D01*
X0436209Y0311218D01*
X0436060Y0311208D01*
X0435911Y0311202D01*
X0435762Y0311200D01*
X0435613Y0311202D01*
X0435464Y0311208D01*
X0435315Y0311218D01*
X0435167Y0311232D01*
X0435019Y0311250D01*
X0434871Y0311271D01*
X0434724Y0311297D01*
X0434578Y0311327D01*
X0434433Y0311360D01*
X0434289Y0311397D01*
X0434145Y0311438D01*
X0434003Y0311483D01*
X0433862Y0311532D01*
X0433723Y0311585D01*
X0433585Y0311641D01*
X0433448Y0311700D01*
X0433313Y0311764D01*
X0433180Y0311831D01*
X0433049Y0311901D01*
X0432919Y0311975D01*
X0432792Y0312053D01*
X0432666Y0312133D01*
X0432543Y0312218D01*
X0432422Y0312305D01*
X0432304Y0312395D01*
X0432188Y0312489D01*
X0432074Y0312586D01*
X0431963Y0312685D01*
X0431855Y0312788D01*
X0431750Y0312893D01*
X0431647Y0313001D01*
X0431548Y0313112D01*
X0431451Y0313226D01*
X0431357Y0313342D01*
X0431267Y0313460D01*
X0431180Y0313581D01*
X0431095Y0313704D01*
X0431015Y0313830D01*
X0430937Y0313957D01*
X0430863Y0314087D01*
X0430793Y0314218D01*
X0430726Y0314351D01*
X0430662Y0314486D01*
X0430603Y0314623D01*
X0430547Y0314761D01*
X0430494Y0314900D01*
X0430445Y0315041D01*
X0430400Y0315183D01*
X0430359Y0315327D01*
X0430322Y0315471D01*
X0430289Y0315616D01*
X0430259Y0315762D01*
X0430233Y0315909D01*
X0430212Y0316057D01*
X0430194Y0316205D01*
X0430180Y0316353D01*
X0430170Y0316502D01*
X0430164Y0316651D01*
X0430162Y0316800D01*
D11*
X0297248Y0217570D02*
X0294112Y0214434D01*
X0295680Y0214434D02*
X0295680Y0217570D01*
X0294112Y0217570D02*
X0297248Y0214434D01*
X0297248Y0216002D02*
X0294112Y0216002D01*
X0279940Y0279838D02*
X0280557Y0280455D01*
X0280557Y0281689D01*
X0279940Y0282306D01*
X0279940Y0283521D02*
X0280557Y0284138D01*
X0280557Y0285372D01*
X0279940Y0285989D01*
X0279322Y0285989D01*
X0278705Y0285372D01*
X0278705Y0284755D01*
X0278705Y0285372D02*
X0278088Y0285989D01*
X0277471Y0285989D01*
X0276854Y0285372D01*
X0276854Y0284138D01*
X0277471Y0283521D01*
X0277471Y0282306D02*
X0276854Y0281689D01*
X0276854Y0280455D01*
X0277471Y0279838D01*
X0279940Y0279838D01*
X0278705Y0287204D02*
X0278705Y0289673D01*
X0276854Y0289055D02*
X0278705Y0287204D01*
X0276854Y0289055D02*
X0280557Y0289055D01*
X0269032Y0296514D02*
X0265896Y0299650D01*
X0267464Y0299650D02*
X0267464Y0296514D01*
X0265896Y0296514D02*
X0269032Y0299650D01*
X0269032Y0298082D02*
X0265896Y0298082D01*
X0234667Y0292231D02*
X0234667Y0290996D01*
X0234050Y0290379D01*
X0234050Y0289165D02*
X0234667Y0288548D01*
X0234667Y0287313D01*
X0234050Y0286696D01*
X0234050Y0285482D02*
X0234667Y0284865D01*
X0234667Y0283630D01*
X0234050Y0283013D01*
X0231581Y0283013D01*
X0230964Y0283630D01*
X0230964Y0284865D01*
X0231581Y0285482D01*
X0231581Y0286696D02*
X0230964Y0287313D01*
X0230964Y0288548D01*
X0231581Y0289165D01*
X0232198Y0289165D01*
X0232815Y0288548D01*
X0233433Y0289165D01*
X0234050Y0289165D01*
X0232815Y0288548D02*
X0232815Y0287931D01*
X0231581Y0290379D02*
X0230964Y0290996D01*
X0230964Y0292231D01*
X0231581Y0292848D01*
X0232198Y0292848D01*
X0232815Y0292231D01*
X0233433Y0292848D01*
X0234050Y0292848D01*
X0234667Y0292231D01*
X0232815Y0292231D02*
X0232815Y0291614D01*
X0210557Y0287204D02*
X0209940Y0287204D01*
X0207471Y0289673D01*
X0206854Y0289673D01*
X0206854Y0287204D01*
X0207471Y0285989D02*
X0206854Y0285372D01*
X0206854Y0284138D01*
X0207471Y0283521D01*
X0207471Y0282306D02*
X0206854Y0281689D01*
X0206854Y0280455D01*
X0207471Y0279838D01*
X0209940Y0279838D01*
X0210557Y0280455D01*
X0210557Y0281689D01*
X0209940Y0282306D01*
X0210557Y0283521D02*
X0208088Y0285989D01*
X0207471Y0285989D01*
X0210557Y0285989D02*
X0210557Y0283521D01*
X0199032Y0296514D02*
X0195896Y0299650D01*
X0197464Y0299650D02*
X0197464Y0296514D01*
X0195896Y0296514D02*
X0199032Y0299650D01*
X0199032Y0298082D02*
X0195896Y0298082D01*
X0164667Y0292231D02*
X0164050Y0292848D01*
X0163433Y0292848D01*
X0162815Y0292231D01*
X0162815Y0290379D01*
X0164050Y0290379D01*
X0164667Y0290996D01*
X0164667Y0292231D01*
X0162815Y0290379D02*
X0161581Y0291614D01*
X0160964Y0292848D01*
X0161581Y0289165D02*
X0160964Y0288548D01*
X0160964Y0287313D01*
X0161581Y0286696D01*
X0161581Y0285482D02*
X0160964Y0284865D01*
X0160964Y0283630D01*
X0161581Y0283013D01*
X0164050Y0283013D01*
X0164667Y0283630D01*
X0164667Y0284865D01*
X0164050Y0285482D01*
X0164667Y0286696D02*
X0162198Y0289165D01*
X0161581Y0289165D01*
X0164667Y0289165D02*
X0164667Y0286696D01*
X0297012Y0097470D02*
X0300148Y0094334D01*
X0297012Y0097470D01*
X0298580Y0097470D02*
X0298580Y0094334D01*
X0298580Y0097470D01*
X0300148Y0097470D02*
X0297012Y0094334D01*
X0300148Y0097470D01*
X0300148Y0095902D02*
X0297012Y0095902D01*
X0300148Y0095902D01*
X0258904Y0033052D02*
X0258904Y0030150D01*
X0257907Y0030150D02*
X0257423Y0030634D01*
X0257423Y0032569D01*
X0256939Y0032085D02*
X0257907Y0032085D01*
X0258904Y0031601D02*
X0259387Y0032085D01*
X0260355Y0032085D01*
X0260839Y0031601D01*
X0260839Y0030150D01*
X0255943Y0030150D02*
X0254975Y0030150D01*
X0255459Y0030150D02*
X0255459Y0032085D01*
X0254975Y0032085D01*
X0255459Y0033052D02*
X0255459Y0033536D01*
X0253963Y0031601D02*
X0253963Y0030150D01*
X0252996Y0030150D02*
X0252996Y0031601D01*
X0253480Y0032085D01*
X0253963Y0031601D01*
X0252996Y0031601D02*
X0252512Y0032085D01*
X0252029Y0032085D01*
X0252029Y0030150D01*
X0251017Y0030634D02*
X0250533Y0030150D01*
X0249566Y0030150D01*
X0249082Y0030634D01*
X0249566Y0031601D02*
X0250533Y0031601D01*
X0251017Y0031117D01*
X0251017Y0030634D01*
X0249566Y0031601D02*
X0249082Y0032085D01*
X0249082Y0032569D01*
X0249566Y0033052D01*
X0250533Y0033052D01*
X0251017Y0032569D01*
X0247601Y0028736D02*
X0247601Y0028252D01*
X0247601Y0027285D02*
X0247601Y0025350D01*
X0247118Y0025350D02*
X0248085Y0025350D01*
X0249566Y0025834D02*
X0250049Y0025350D01*
X0249566Y0025834D02*
X0249566Y0027769D01*
X0250049Y0027285D02*
X0249082Y0027285D01*
X0247601Y0027285D02*
X0247118Y0027285D01*
X0246106Y0026801D02*
X0246106Y0025350D01*
X0245139Y0025350D02*
X0245139Y0026801D01*
X0245622Y0027285D01*
X0246106Y0026801D01*
X0245139Y0026801D02*
X0244655Y0027285D01*
X0244171Y0027285D01*
X0244171Y0025350D01*
X0243160Y0025834D02*
X0242676Y0025350D01*
X0241708Y0025350D01*
X0241225Y0025834D01*
X0241708Y0026801D02*
X0242676Y0026801D01*
X0243160Y0026317D01*
X0243160Y0025834D01*
X0241708Y0026801D02*
X0241225Y0027285D01*
X0241225Y0027769D01*
X0241708Y0028252D01*
X0242676Y0028252D01*
X0243160Y0027769D01*
X0243673Y0030150D02*
X0244156Y0030634D01*
X0244640Y0030150D01*
X0245124Y0030634D01*
X0245124Y0032085D01*
X0243189Y0032085D02*
X0243189Y0030634D01*
X0243673Y0030150D01*
X0242177Y0031117D02*
X0240242Y0031117D01*
X0240242Y0030634D02*
X0240242Y0031601D01*
X0240726Y0032085D01*
X0241694Y0032085D01*
X0242177Y0031601D01*
X0242177Y0031117D01*
X0241694Y0030150D02*
X0240726Y0030150D01*
X0240242Y0030634D01*
X0239238Y0032085D02*
X0238755Y0032085D01*
X0237787Y0031117D01*
X0237787Y0030150D02*
X0237787Y0032085D01*
X0236775Y0032085D02*
X0235324Y0032085D01*
X0234841Y0031601D01*
X0234841Y0030634D01*
X0235324Y0030150D01*
X0236775Y0030150D01*
X0236775Y0033052D01*
X0233829Y0031601D02*
X0233829Y0030150D01*
X0233829Y0031601D02*
X0233345Y0032085D01*
X0231894Y0032085D01*
X0231894Y0030150D01*
X0230882Y0030150D02*
X0230882Y0032085D01*
X0229915Y0033052D01*
X0228947Y0032085D01*
X0228947Y0030150D01*
X0228947Y0031601D02*
X0230882Y0031601D01*
X0228918Y0028252D02*
X0228918Y0025350D01*
X0227467Y0025350D01*
X0226983Y0025834D01*
X0226983Y0026801D01*
X0227467Y0027285D01*
X0228918Y0027285D01*
X0229930Y0027285D02*
X0229930Y0025350D01*
X0229930Y0026317D02*
X0230897Y0027285D01*
X0231381Y0027285D01*
X0232385Y0026801D02*
X0232869Y0027285D01*
X0233836Y0027285D01*
X0234320Y0026801D01*
X0234320Y0026317D01*
X0232385Y0026317D01*
X0232385Y0025834D02*
X0232385Y0026801D01*
X0232385Y0025834D02*
X0232869Y0025350D01*
X0233836Y0025350D01*
X0235332Y0025834D02*
X0235815Y0025350D01*
X0236299Y0025834D01*
X0236783Y0025350D01*
X0237267Y0025834D01*
X0237267Y0027285D01*
X0235332Y0027285D02*
X0235332Y0025834D01*
X0235057Y0023452D02*
X0235057Y0020550D01*
X0233605Y0020550D01*
X0233122Y0021034D01*
X0233122Y0022001D01*
X0233605Y0022485D01*
X0235057Y0022485D01*
X0236068Y0022485D02*
X0236068Y0020550D01*
X0236068Y0021517D02*
X0237036Y0022485D01*
X0237519Y0022485D01*
X0238524Y0022001D02*
X0239007Y0022485D01*
X0239975Y0022485D01*
X0240459Y0022001D01*
X0240459Y0021517D01*
X0238524Y0021517D01*
X0238524Y0021034D02*
X0238524Y0022001D01*
X0238524Y0021034D02*
X0239007Y0020550D01*
X0239975Y0020550D01*
X0241470Y0021034D02*
X0241954Y0020550D01*
X0242438Y0021034D01*
X0242921Y0020550D01*
X0243405Y0021034D01*
X0243405Y0022485D01*
X0241470Y0022485D02*
X0241470Y0021034D01*
X0247363Y0021034D02*
X0247847Y0020550D01*
X0248814Y0020550D01*
X0249298Y0021034D01*
X0249298Y0021517D01*
X0248814Y0022001D01*
X0247847Y0022001D01*
X0247363Y0022485D01*
X0247363Y0022969D01*
X0247847Y0023452D01*
X0248814Y0023452D01*
X0249298Y0022969D01*
X0250310Y0022485D02*
X0250793Y0022485D01*
X0251277Y0022001D01*
X0251761Y0022485D01*
X0252245Y0022001D01*
X0252245Y0020550D01*
X0251277Y0020550D02*
X0251277Y0022001D01*
X0250310Y0022485D02*
X0250310Y0020550D01*
X0253256Y0020550D02*
X0254224Y0020550D01*
X0253740Y0020550D02*
X0253740Y0022485D01*
X0253256Y0022485D01*
X0253740Y0023452D02*
X0253740Y0023936D01*
X0252981Y0025350D02*
X0252981Y0026801D01*
X0252498Y0027285D01*
X0251530Y0027285D01*
X0251046Y0026801D01*
X0251046Y0028252D02*
X0251046Y0025350D01*
X0255221Y0022485D02*
X0256188Y0022485D01*
X0255704Y0022969D02*
X0255704Y0021034D01*
X0256188Y0020550D01*
X0257185Y0020550D02*
X0257185Y0023452D01*
X0257669Y0022485D02*
X0258636Y0022485D01*
X0259120Y0022001D01*
X0259120Y0020550D01*
X0257185Y0022001D02*
X0257669Y0022485D01*
X0232110Y0022001D02*
X0232110Y0020550D01*
X0232110Y0022001D02*
X0231626Y0022485D01*
X0230175Y0022485D01*
X0230175Y0020550D01*
X0229164Y0020550D02*
X0229164Y0022485D01*
X0228196Y0023452D01*
X0227229Y0022485D01*
X0227229Y0020550D01*
X0227229Y0022001D02*
X0229164Y0022001D01*
X0225972Y0025350D02*
X0225972Y0026801D01*
X0225488Y0027285D01*
X0224037Y0027285D01*
X0224037Y0025350D01*
X0223025Y0025350D02*
X0223025Y0027285D01*
X0222058Y0028252D01*
X0221090Y0027285D01*
X0221090Y0025350D01*
X0221090Y0026801D02*
X0223025Y0026801D01*
X0223516Y0030150D02*
X0222065Y0030150D01*
X0221581Y0030634D01*
X0221581Y0031601D01*
X0222065Y0032085D01*
X0223516Y0032085D01*
X0224528Y0032085D02*
X0224528Y0031601D01*
X0225011Y0031601D01*
X0225011Y0032085D01*
X0224528Y0032085D01*
X0224528Y0030634D02*
X0224528Y0030150D01*
X0225011Y0030150D01*
X0225011Y0030634D01*
X0224528Y0030634D01*
X0220584Y0030150D02*
X0219617Y0030150D01*
X0220101Y0030150D02*
X0220101Y0032085D01*
X0219617Y0032085D01*
X0218620Y0032085D02*
X0217652Y0032085D01*
X0218136Y0032569D02*
X0218136Y0030634D01*
X0218620Y0030150D01*
X0216641Y0030150D02*
X0215190Y0030150D01*
X0214706Y0030634D01*
X0215190Y0031117D01*
X0216641Y0031117D01*
X0216641Y0031601D02*
X0216641Y0030150D01*
X0216641Y0031601D02*
X0216157Y0032085D01*
X0215190Y0032085D01*
X0213694Y0031601D02*
X0213694Y0030150D01*
X0212727Y0030150D02*
X0212727Y0031601D01*
X0213211Y0032085D01*
X0213694Y0031601D01*
X0212727Y0031601D02*
X0212243Y0032085D01*
X0211759Y0032085D01*
X0211759Y0030150D01*
X0210748Y0031117D02*
X0208813Y0031117D01*
X0208813Y0030634D02*
X0208813Y0031601D01*
X0209297Y0032085D01*
X0210264Y0032085D01*
X0210748Y0031601D01*
X0210748Y0031117D01*
X0210264Y0030150D02*
X0209297Y0030150D01*
X0208813Y0030634D01*
X0207801Y0030150D02*
X0207801Y0031601D01*
X0207318Y0032085D01*
X0206350Y0032085D01*
X0205866Y0031601D01*
X0204855Y0032085D02*
X0203404Y0032085D01*
X0202920Y0031601D01*
X0202920Y0030634D01*
X0203404Y0030150D01*
X0204855Y0030150D01*
X0205866Y0030150D02*
X0205866Y0033052D01*
X0201908Y0032569D02*
X0201425Y0033052D01*
X0200457Y0033052D01*
X0199973Y0032569D01*
X0199973Y0032085D01*
X0200457Y0031601D01*
X0201425Y0031601D01*
X0201908Y0031117D01*
X0201908Y0030634D01*
X0201425Y0030150D01*
X0200457Y0030150D01*
X0199973Y0030634D01*
X0207831Y0028252D02*
X0209282Y0028252D01*
X0209766Y0027769D01*
X0209766Y0026801D01*
X0209282Y0026317D01*
X0207831Y0026317D01*
X0207831Y0025350D02*
X0207831Y0028252D01*
X0210777Y0027769D02*
X0210777Y0025834D01*
X0211261Y0025350D01*
X0212229Y0025350D01*
X0212712Y0025834D01*
X0213724Y0025350D02*
X0215175Y0025350D01*
X0215659Y0025834D01*
X0215659Y0026317D01*
X0215175Y0026801D01*
X0213724Y0026801D01*
X0212712Y0027769D02*
X0212229Y0028252D01*
X0211261Y0028252D01*
X0210777Y0027769D01*
X0213724Y0028252D02*
X0215175Y0028252D01*
X0215659Y0027769D01*
X0215659Y0027285D01*
X0215175Y0026801D01*
X0216670Y0026801D02*
X0216670Y0027285D01*
X0217154Y0027285D01*
X0217154Y0026801D01*
X0216670Y0026801D01*
X0216670Y0025834D02*
X0216670Y0025350D01*
X0217154Y0025350D01*
X0217154Y0025834D01*
X0216670Y0025834D01*
X0213724Y0025350D02*
X0213724Y0028252D01*
X0213449Y0022485D02*
X0213449Y0021034D01*
X0212965Y0020550D01*
X0212481Y0021034D01*
X0211998Y0020550D01*
X0211514Y0021034D01*
X0211514Y0022485D01*
X0210517Y0022485D02*
X0209550Y0022485D01*
X0210033Y0022969D02*
X0210033Y0021034D01*
X0210517Y0020550D01*
X0208553Y0022001D02*
X0207585Y0022001D01*
X0206574Y0022001D02*
X0206090Y0022485D01*
X0205122Y0022485D01*
X0204639Y0022001D01*
X0204639Y0021034D01*
X0205122Y0020550D01*
X0206090Y0020550D01*
X0206574Y0021034D01*
X0206574Y0022001D01*
X0208069Y0022969D02*
X0208553Y0023452D01*
X0208069Y0022969D02*
X0208069Y0020550D01*
X0203627Y0021034D02*
X0203627Y0021517D01*
X0203143Y0022001D01*
X0202176Y0022001D01*
X0201692Y0022485D01*
X0201692Y0022969D01*
X0202176Y0023452D01*
X0203143Y0023452D01*
X0203627Y0022969D01*
X0203627Y0021034D02*
X0203143Y0020550D01*
X0202176Y0020550D01*
X0201692Y0021034D01*
X0214460Y0021034D02*
X0214944Y0021517D01*
X0216395Y0021517D01*
X0216395Y0022001D02*
X0216395Y0020550D01*
X0214944Y0020550D01*
X0214460Y0021034D01*
X0214944Y0022485D02*
X0215912Y0022485D01*
X0216395Y0022001D01*
X0217407Y0021517D02*
X0218374Y0022485D01*
X0218858Y0022485D01*
X0219862Y0022001D02*
X0220346Y0022485D01*
X0221314Y0022485D01*
X0221797Y0022001D01*
X0221797Y0021517D01*
X0219862Y0021517D01*
X0219862Y0021034D02*
X0219862Y0022001D01*
X0219862Y0021034D02*
X0220346Y0020550D01*
X0221314Y0020550D01*
X0222809Y0020550D02*
X0222809Y0021034D01*
X0223293Y0021034D01*
X0223293Y0020550D01*
X0222809Y0020550D01*
X0222809Y0022001D02*
X0222809Y0022485D01*
X0223293Y0022485D01*
X0223293Y0022001D01*
X0222809Y0022001D01*
X0217407Y0022485D02*
X0217407Y0020550D01*
X0220101Y0033052D02*
X0220101Y0033536D01*
X0093345Y0035896D02*
X0090918Y0035896D01*
X0092738Y0037716D01*
X0092738Y0034076D01*
X0089720Y0034683D02*
X0089720Y0035289D01*
X0089113Y0035896D01*
X0087900Y0035896D01*
X0087293Y0036503D01*
X0087293Y0037109D01*
X0087900Y0037716D01*
X0089113Y0037716D01*
X0089720Y0037109D01*
X0088506Y0038323D02*
X0088506Y0033469D01*
X0087900Y0034076D02*
X0089113Y0034076D01*
X0089720Y0034683D01*
X0087900Y0034076D02*
X0087293Y0034683D01*
X0086094Y0034683D02*
X0086094Y0037716D01*
X0083668Y0037716D02*
X0083668Y0034683D01*
X0084274Y0034076D01*
X0085488Y0034076D01*
X0086094Y0034683D01*
D12*
X0206354Y0038350D02*
X0208489Y0038350D01*
X0207422Y0038350D02*
X0207422Y0044755D01*
X0208489Y0044755D02*
X0206354Y0044755D01*
X0210651Y0044755D02*
X0214921Y0044755D01*
X0217097Y0044755D02*
X0217097Y0038350D01*
X0221367Y0038350D01*
X0219232Y0041553D02*
X0217097Y0041553D01*
X0217097Y0044755D02*
X0221367Y0044755D01*
X0221387Y0048850D02*
X0220319Y0049918D01*
X0221387Y0048850D02*
X0223522Y0048850D01*
X0224590Y0049918D01*
X0224590Y0050985D01*
X0223522Y0052053D01*
X0221387Y0052053D01*
X0220319Y0053120D01*
X0220319Y0054188D01*
X0221387Y0055255D01*
X0223522Y0055255D01*
X0224590Y0054188D01*
X0226765Y0055255D02*
X0229968Y0055255D01*
X0231035Y0054188D01*
X0231035Y0052053D01*
X0229968Y0050985D01*
X0226765Y0050985D01*
X0226765Y0048850D02*
X0226765Y0055255D01*
X0233210Y0055255D02*
X0233210Y0048850D01*
X0237481Y0048850D01*
X0239656Y0048850D02*
X0239656Y0053120D01*
X0241791Y0055255D01*
X0243926Y0053120D01*
X0243926Y0048850D01*
X0243926Y0052053D02*
X0239656Y0052053D01*
X0246101Y0054188D02*
X0248236Y0052053D01*
X0248236Y0048850D01*
X0248236Y0052053D02*
X0250372Y0054188D01*
X0250372Y0055255D01*
X0246101Y0055255D02*
X0246101Y0054188D01*
X0245014Y0044755D02*
X0245014Y0038350D01*
X0242879Y0038350D02*
X0247149Y0038350D01*
X0249324Y0039418D02*
X0250392Y0038350D01*
X0252527Y0038350D01*
X0253594Y0039418D01*
X0253594Y0040485D01*
X0252527Y0041553D01*
X0250392Y0041553D01*
X0249324Y0042620D01*
X0249324Y0043688D01*
X0250392Y0044755D01*
X0252527Y0044755D01*
X0253594Y0043688D01*
X0253594Y0042620D01*
X0252527Y0041553D01*
X0250392Y0041553D02*
X0249324Y0040485D01*
X0249324Y0039418D01*
X0245014Y0044755D02*
X0242879Y0042620D01*
X0240703Y0043688D02*
X0236433Y0039418D01*
X0237501Y0038350D01*
X0239636Y0038350D01*
X0240703Y0039418D01*
X0240703Y0043688D01*
X0239636Y0044755D01*
X0237501Y0044755D01*
X0236433Y0043688D01*
X0236433Y0039418D01*
X0234258Y0038350D02*
X0229988Y0038350D01*
X0234258Y0042620D01*
X0234258Y0043688D01*
X0233190Y0044755D01*
X0231055Y0044755D01*
X0229988Y0043688D01*
X0218157Y0048850D02*
X0216022Y0048850D01*
X0217090Y0048850D02*
X0217090Y0055255D01*
X0218157Y0055255D02*
X0216022Y0055255D01*
X0213847Y0054188D02*
X0212780Y0055255D01*
X0209577Y0055255D01*
X0209577Y0048850D01*
X0212780Y0048850D01*
X0213847Y0049918D01*
X0213847Y0054188D01*
X0210651Y0044755D02*
X0210651Y0038350D01*
X0210651Y0041553D02*
X0212786Y0041553D01*
X0312862Y0057400D02*
X0312862Y0061400D01*
X0341162Y0080300D02*
X0345162Y0080300D01*
X0350762Y0079300D02*
X0353262Y0081800D01*
X0368262Y0081800D01*
X0370762Y0084300D01*
X0370762Y0089300D01*
X0368262Y0091800D01*
X0370762Y0094300D01*
X0370762Y0099300D01*
X0368262Y0101800D01*
X0353262Y0101800D01*
X0350762Y0099300D01*
X0350762Y0094300D01*
X0353262Y0091800D01*
X0368262Y0091800D01*
X0368262Y0081800D02*
X0370762Y0079300D01*
X0370762Y0074300D01*
X0368262Y0071800D01*
X0353262Y0071800D01*
X0350762Y0074300D01*
X0350762Y0079300D01*
X0353262Y0081800D02*
X0350762Y0084300D01*
X0350762Y0089300D01*
X0353262Y0091800D01*
X0316062Y0102200D02*
X0316062Y0106300D01*
X0310262Y0093900D02*
X0308662Y0092300D01*
X0300862Y0168700D02*
X0330662Y0168700D01*
X0330662Y0169400D01*
X0339162Y0171000D02*
X0339162Y0172600D01*
X0340162Y0172600D02*
X0340162Y0171000D01*
X0339162Y0171000D01*
X0300862Y0169400D02*
X0300862Y0168700D01*
X0300862Y0214200D02*
X0300862Y0214900D01*
X0314562Y0214900D01*
X0316962Y0214900D01*
X0330662Y0214900D01*
X0330662Y0214200D01*
X0341534Y0217383D02*
X0341534Y0223789D01*
X0345805Y0223789D01*
X0347980Y0223789D02*
X0347980Y0218451D01*
X0349047Y0217383D01*
X0351182Y0217383D01*
X0352250Y0218451D01*
X0352250Y0223789D01*
X0354425Y0222721D02*
X0354425Y0221654D01*
X0355493Y0220586D01*
X0357628Y0220586D01*
X0358696Y0219519D01*
X0358696Y0218451D01*
X0357628Y0217383D01*
X0355493Y0217383D01*
X0354425Y0218451D01*
X0354425Y0222721D02*
X0355493Y0223789D01*
X0357628Y0223789D01*
X0358696Y0222721D01*
X0360871Y0223789D02*
X0360871Y0217383D01*
X0365141Y0217383D01*
X0363006Y0220586D02*
X0360871Y0220586D01*
X0360871Y0223789D02*
X0365141Y0223789D01*
X0367316Y0220586D02*
X0371587Y0220586D01*
X0370519Y0217383D02*
X0370519Y0223789D01*
X0367316Y0220586D01*
X0343669Y0220586D02*
X0341534Y0220586D01*
X0341534Y0252383D02*
X0341534Y0258789D01*
X0345805Y0258789D01*
X0347980Y0258789D02*
X0347980Y0253451D01*
X0349047Y0252383D01*
X0351182Y0252383D01*
X0352250Y0253451D01*
X0352250Y0258789D01*
X0354425Y0257721D02*
X0354425Y0256654D01*
X0355493Y0255586D01*
X0357628Y0255586D01*
X0358696Y0254519D01*
X0358696Y0253451D01*
X0357628Y0252383D01*
X0355493Y0252383D01*
X0354425Y0253451D01*
X0354425Y0257721D02*
X0355493Y0258789D01*
X0357628Y0258789D01*
X0358696Y0257721D01*
X0360871Y0258789D02*
X0360871Y0252383D01*
X0365141Y0252383D01*
X0367316Y0253451D02*
X0368384Y0252383D01*
X0370519Y0252383D01*
X0371587Y0253451D01*
X0371587Y0254519D01*
X0370519Y0255586D01*
X0369451Y0255586D01*
X0370519Y0255586D02*
X0371587Y0256654D01*
X0371587Y0257721D01*
X0370519Y0258789D01*
X0368384Y0258789D01*
X0367316Y0257721D01*
X0365141Y0258789D02*
X0360871Y0258789D01*
X0360871Y0255586D02*
X0363006Y0255586D01*
X0343669Y0255586D02*
X0341534Y0255586D01*
X0265562Y0281400D02*
X0265562Y0285600D01*
X0265562Y0288000D01*
X0265562Y0292200D01*
X0245962Y0292200D02*
X0245962Y0281400D01*
X0195562Y0281400D02*
X0195562Y0285600D01*
X0195562Y0288000D01*
X0195562Y0292200D01*
X0175962Y0292200D02*
X0175962Y0281400D01*
X0115762Y0279300D02*
X0115762Y0294300D01*
X0113262Y0296800D01*
X0108262Y0296800D01*
X0105762Y0294300D01*
X0105762Y0279300D01*
X0108262Y0276800D01*
X0113262Y0276800D01*
X0115762Y0279300D01*
X0105762Y0279300D02*
X0103262Y0276800D01*
X0098262Y0276800D01*
X0095762Y0279300D01*
X0095762Y0294300D01*
X0098262Y0296800D01*
X0103262Y0296800D01*
X0105762Y0294300D01*
X0095762Y0294300D02*
X0093262Y0296800D01*
X0088262Y0296800D01*
X0085762Y0294300D01*
X0085762Y0279300D01*
X0088262Y0276800D01*
X0093262Y0276800D01*
X0095762Y0279300D01*
X0085762Y0279300D02*
X0083262Y0276800D01*
X0078262Y0276800D01*
X0075762Y0279300D01*
X0075762Y0294300D01*
X0078262Y0296800D01*
X0083262Y0296800D01*
X0085762Y0294300D01*
X0075762Y0294300D02*
X0073262Y0296800D01*
X0068262Y0296800D01*
X0065762Y0294300D01*
X0065762Y0279300D01*
X0068262Y0276800D01*
X0073262Y0276800D01*
X0075762Y0279300D01*
X0078262Y0246800D02*
X0083262Y0246800D01*
X0085762Y0244300D01*
X0085762Y0229300D01*
X0088262Y0226800D01*
X0093262Y0226800D01*
X0095762Y0229300D01*
X0095762Y0244300D01*
X0098262Y0246800D01*
X0103262Y0246800D01*
X0105762Y0244300D01*
X0108262Y0246800D01*
X0113262Y0246800D01*
X0115762Y0244300D01*
X0115762Y0229300D01*
X0113262Y0226800D01*
X0108262Y0226800D01*
X0105762Y0229300D01*
X0105762Y0244300D01*
X0095762Y0244300D02*
X0093262Y0246800D01*
X0088262Y0246800D01*
X0085762Y0244300D01*
X0078262Y0246800D02*
X0075762Y0244300D01*
X0075762Y0229300D01*
X0078262Y0226800D01*
X0083262Y0226800D01*
X0085762Y0229300D01*
X0095762Y0229300D02*
X0098262Y0226800D01*
X0103262Y0226800D01*
X0105762Y0229300D01*
X0075762Y0229300D02*
X0073262Y0226800D01*
X0068262Y0226800D01*
X0065762Y0229300D01*
X0065762Y0244300D01*
X0068262Y0246800D01*
X0073262Y0246800D01*
X0075762Y0244300D01*
X0431077Y0195383D02*
X0442888Y0195383D01*
X0440919Y0197351D01*
X0442888Y0195383D02*
X0440919Y0193414D01*
X0440919Y0134359D02*
X0442888Y0132391D01*
X0440919Y0130422D01*
X0442888Y0132391D02*
X0431077Y0132391D01*
D13*
X0248512Y0074500D03*
X0248512Y0074400D03*
X0248412Y0074300D03*
X0248412Y0074200D03*
X0248412Y0071000D03*
X0248512Y0067800D03*
X0248512Y0067700D03*
X0248412Y0067500D03*
X0240812Y0068000D03*
X0240712Y0067900D03*
X0240712Y0067800D03*
X0240212Y0061800D03*
X0239412Y0061600D03*
X0239412Y0061500D03*
X0239312Y0061400D03*
X0239312Y0061300D03*
X0238412Y0059700D03*
X0238412Y0059600D03*
X0238312Y0059100D03*
X0237212Y0059100D03*
X0236712Y0059300D03*
X0236912Y0060000D03*
X0236912Y0060100D03*
X0235012Y0058800D03*
X0234112Y0058900D03*
X0234312Y0059600D03*
X0233412Y0059600D03*
X0233412Y0059700D03*
X0233312Y0059100D03*
X0232212Y0059100D03*
X0232212Y0059200D03*
X0229812Y0060100D03*
X0228312Y0059600D03*
X0227012Y0059400D03*
X0225112Y0059500D03*
X0224512Y0059300D03*
X0224712Y0060000D03*
X0224712Y0060100D03*
X0223712Y0060100D03*
X0223512Y0059200D03*
X0222912Y0059000D03*
X0222512Y0059100D03*
X0222112Y0059100D03*
X0222112Y0059200D03*
X0222112Y0059300D03*
X0222112Y0059400D03*
X0222112Y0059000D03*
X0221312Y0059700D03*
X0221112Y0058600D03*
X0217012Y0058600D03*
D14*
X0219062Y0058600D03*
X0220762Y0060100D03*
X0232962Y0060000D03*
X0234262Y0063600D03*
X0234262Y0063700D03*
X0234262Y0063800D03*
X0234262Y0063900D03*
X0234262Y0064000D03*
X0234262Y0064100D03*
X0234262Y0064200D03*
X0234262Y0064300D03*
X0234262Y0064400D03*
X0234262Y0064500D03*
X0234262Y0064600D03*
X0234262Y0064700D03*
X0234262Y0064800D03*
X0240362Y0064400D03*
X0240362Y0064300D03*
X0240462Y0064500D03*
X0240462Y0064600D03*
X0240462Y0064700D03*
X0240562Y0064900D03*
X0241062Y0062800D03*
X0240962Y0062700D03*
X0237962Y0060000D03*
X0241362Y0069400D03*
X0241362Y0069500D03*
X0247862Y0073400D03*
D15*
X0248312Y0074000D03*
X0248212Y0070600D03*
X0248312Y0067300D03*
X0240912Y0068300D03*
X0240912Y0068400D03*
X0239712Y0062500D03*
X0239712Y0062400D03*
X0239612Y0062200D03*
X0239612Y0062100D03*
X0239512Y0061900D03*
X0238312Y0059900D03*
X0238212Y0058900D03*
X0238112Y0058800D03*
X0237312Y0058800D03*
X0235712Y0059200D03*
X0233312Y0059900D03*
X0233112Y0058800D03*
X0232312Y0058800D03*
X0227012Y0059200D03*
X0226912Y0060000D03*
X0224312Y0058800D03*
X0223512Y0058800D03*
X0223012Y0059800D03*
X0223112Y0059900D03*
X0223112Y0060000D03*
X0222212Y0058700D03*
X0221012Y0058900D03*
X0221212Y0059500D03*
X0220112Y0059000D03*
X0220012Y0058800D03*
X0220012Y0058700D03*
X0219912Y0058600D03*
X0219612Y0059100D03*
X0219712Y0059400D03*
X0218712Y0059800D03*
X0218612Y0059700D03*
X0218512Y0059500D03*
X0218512Y0059000D03*
X0217312Y0059500D03*
X0217212Y0059200D03*
D16*
X0217162Y0059100D03*
X0217062Y0059000D03*
X0217062Y0058900D03*
X0217062Y0058800D03*
X0217062Y0058700D03*
X0217362Y0059600D03*
X0217362Y0059700D03*
X0217362Y0059800D03*
X0218462Y0059400D03*
X0218462Y0059300D03*
X0218462Y0059200D03*
X0218462Y0059100D03*
X0218562Y0059600D03*
X0219662Y0059700D03*
X0219662Y0059800D03*
X0219762Y0059600D03*
X0219762Y0059500D03*
X0219662Y0059300D03*
X0219662Y0059200D03*
X0220062Y0058900D03*
X0220162Y0059100D03*
X0220262Y0059500D03*
X0220262Y0059600D03*
X0220262Y0059700D03*
X0220362Y0059800D03*
X0220862Y0059100D03*
X0220962Y0059000D03*
X0221062Y0058800D03*
X0221062Y0058700D03*
X0221562Y0058700D03*
X0221562Y0058800D03*
X0221662Y0058900D03*
X0221662Y0059000D03*
X0221662Y0059100D03*
X0221662Y0059200D03*
X0221762Y0059300D03*
X0221762Y0059400D03*
X0221262Y0059600D03*
X0221362Y0059800D03*
X0221962Y0060000D03*
X0221962Y0060100D03*
X0222562Y0059200D03*
X0222462Y0059000D03*
X0222862Y0058900D03*
X0222862Y0058800D03*
X0222862Y0058700D03*
X0222762Y0058600D03*
X0222962Y0059100D03*
X0222962Y0059200D03*
X0223462Y0059100D03*
X0223462Y0059000D03*
X0223462Y0058900D03*
X0223562Y0059300D03*
X0223562Y0059400D03*
X0223562Y0059500D03*
X0223662Y0059600D03*
X0223662Y0059700D03*
X0223662Y0059800D03*
X0223662Y0059900D03*
X0223762Y0060000D03*
X0223162Y0060100D03*
X0224562Y0059600D03*
X0224562Y0059500D03*
X0224562Y0059400D03*
X0224462Y0059200D03*
X0224462Y0059100D03*
X0224462Y0059000D03*
X0224362Y0058900D03*
X0224962Y0058900D03*
X0224962Y0059000D03*
X0224962Y0059100D03*
X0225062Y0059200D03*
X0225062Y0059300D03*
X0225062Y0059400D03*
X0225162Y0059600D03*
X0225162Y0059700D03*
X0225162Y0059800D03*
X0225262Y0059900D03*
X0225262Y0060000D03*
X0225262Y0060100D03*
X0224662Y0059900D03*
X0224662Y0059800D03*
X0224662Y0059700D03*
X0224962Y0058800D03*
X0226062Y0058800D03*
X0226162Y0058900D03*
X0226362Y0059200D03*
X0226362Y0059300D03*
X0226462Y0059400D03*
X0226562Y0059500D03*
X0226562Y0059600D03*
X0226962Y0059600D03*
X0226962Y0059500D03*
X0227062Y0059300D03*
X0227062Y0058900D03*
X0227062Y0058800D03*
X0227062Y0058700D03*
X0227062Y0058600D03*
X0228062Y0058800D03*
X0228062Y0058900D03*
X0228162Y0059000D03*
X0228162Y0059100D03*
X0228162Y0059200D03*
X0228262Y0059500D03*
X0228362Y0059700D03*
X0228362Y0059800D03*
X0229662Y0059500D03*
X0229662Y0059400D03*
X0229662Y0059300D03*
X0229662Y0059200D03*
X0229562Y0059100D03*
X0229562Y0059000D03*
X0229562Y0058900D03*
X0229462Y0058800D03*
X0229762Y0059600D03*
X0229762Y0059700D03*
X0229762Y0059800D03*
X0229762Y0059900D03*
X0229862Y0060000D03*
X0230962Y0059800D03*
X0230962Y0059700D03*
X0230962Y0059600D03*
X0230962Y0059500D03*
X0230862Y0059200D03*
X0230762Y0059100D03*
X0230762Y0059000D03*
X0230762Y0058900D03*
X0230662Y0058800D03*
X0232262Y0058900D03*
X0232262Y0059000D03*
X0232262Y0059300D03*
X0232262Y0059400D03*
X0232262Y0059500D03*
X0232362Y0059600D03*
X0232362Y0059700D03*
X0232462Y0059800D03*
X0233362Y0059800D03*
X0233262Y0059000D03*
X0233162Y0058900D03*
X0234062Y0058800D03*
X0234062Y0058700D03*
X0234062Y0058600D03*
X0234162Y0059000D03*
X0234162Y0059100D03*
X0234162Y0059200D03*
X0234262Y0059300D03*
X0234262Y0059400D03*
X0234262Y0059500D03*
X0234362Y0059700D03*
X0234362Y0059800D03*
X0235162Y0059500D03*
X0235262Y0059600D03*
X0235262Y0059700D03*
X0235262Y0059800D03*
X0235162Y0059200D03*
X0235062Y0059100D03*
X0235062Y0059000D03*
X0235062Y0058900D03*
X0234962Y0058700D03*
X0234962Y0058600D03*
X0235862Y0059000D03*
X0235862Y0059100D03*
X0235962Y0058900D03*
X0235962Y0058800D03*
X0236062Y0058700D03*
X0236062Y0058600D03*
X0236562Y0058600D03*
X0236562Y0058700D03*
X0236562Y0058800D03*
X0236562Y0058900D03*
X0236662Y0059000D03*
X0236662Y0059100D03*
X0236662Y0059200D03*
X0236762Y0059400D03*
X0236762Y0059500D03*
X0236762Y0059600D03*
X0236862Y0059700D03*
X0236862Y0059800D03*
X0236862Y0059900D03*
X0237362Y0059700D03*
X0237362Y0059600D03*
X0237262Y0059500D03*
X0237262Y0059400D03*
X0237262Y0059300D03*
X0237262Y0059200D03*
X0237262Y0059000D03*
X0237262Y0058900D03*
X0237462Y0059800D03*
X0238362Y0059800D03*
X0238262Y0059000D03*
X0236262Y0059600D03*
X0236262Y0059700D03*
X0236262Y0059800D03*
X0236162Y0059500D03*
X0239462Y0061700D03*
X0239462Y0061800D03*
X0239562Y0062000D03*
X0239662Y0062300D03*
X0240262Y0061900D03*
X0240362Y0062000D03*
X0240462Y0062100D03*
X0240862Y0068100D03*
X0240862Y0068200D03*
X0248362Y0067400D03*
X0248462Y0067600D03*
X0248262Y0070700D03*
X0248362Y0070800D03*
X0248362Y0070900D03*
X0248362Y0074100D03*
X0226862Y0060100D03*
X0222162Y0058600D03*
X0221562Y0058600D03*
D17*
X0223862Y0058600D03*
X0232662Y0058600D03*
X0232962Y0060100D03*
X0240062Y0063400D03*
X0240062Y0063500D03*
X0240062Y0063600D03*
X0240162Y0063700D03*
X0240162Y0063800D03*
X0240762Y0062500D03*
X0241162Y0069000D03*
X0241162Y0069100D03*
X0241262Y0069200D03*
X0247962Y0070300D03*
X0247962Y0073500D03*
X0248062Y0066900D03*
X0247962Y0066800D03*
D18*
X0247412Y0066300D03*
X0241012Y0066000D03*
X0241512Y0063300D03*
X0241712Y0070100D03*
X0225412Y0058600D03*
X0219012Y0058800D03*
D19*
X0220612Y0059300D03*
X0220712Y0059400D03*
X0220812Y0059900D03*
X0220812Y0060000D03*
X0226612Y0059000D03*
X0228512Y0058700D03*
X0228512Y0058600D03*
X0228812Y0059900D03*
X0231312Y0059400D03*
X0231312Y0059300D03*
X0231512Y0060000D03*
X0231512Y0060100D03*
X0234412Y0060100D03*
X0234412Y0059900D03*
X0241312Y0063100D03*
X0240812Y0065600D03*
X0241512Y0069800D03*
X0247512Y0069900D03*
X0247612Y0073200D03*
D20*
X0247662Y0070000D03*
X0247662Y0066500D03*
X0240762Y0065500D03*
X0240762Y0065400D03*
X0240662Y0065300D03*
X0240662Y0065200D03*
X0241262Y0063000D03*
X0235762Y0060000D03*
X0235562Y0059300D03*
X0231462Y0059900D03*
X0229862Y0058700D03*
X0229862Y0058600D03*
X0228662Y0059300D03*
X0228662Y0059400D03*
X0228862Y0060000D03*
X0228862Y0060100D03*
X0226662Y0059100D03*
X0219062Y0058700D03*
X0217662Y0059300D03*
X0217662Y0059400D03*
X0217762Y0059900D03*
X0217762Y0060000D03*
X0241462Y0069700D03*
D21*
X0241562Y0069900D03*
X0241662Y0070000D03*
X0240962Y0065900D03*
X0240962Y0065800D03*
X0240862Y0065700D03*
X0241462Y0063200D03*
X0235762Y0059900D03*
X0235662Y0059400D03*
X0234362Y0060000D03*
X0231162Y0058700D03*
X0231162Y0058600D03*
X0247562Y0066400D03*
X0247362Y0069800D03*
X0247462Y0073100D03*
D22*
X0247812Y0070200D03*
X0247912Y0066700D03*
X0241312Y0069300D03*
X0240312Y0064200D03*
X0240312Y0064100D03*
X0240212Y0064000D03*
X0240212Y0063900D03*
X0240912Y0062600D03*
X0237712Y0058600D03*
D23*
X0237712Y0058700D03*
X0235712Y0060100D03*
X0232712Y0058700D03*
X0241112Y0062900D03*
X0240512Y0064800D03*
X0240612Y0065000D03*
X0240612Y0065100D03*
X0241412Y0069600D03*
X0247712Y0070100D03*
X0247712Y0073300D03*
X0247812Y0066600D03*
X0223912Y0058700D03*
X0220512Y0059200D03*
X0219212Y0060000D03*
X0217812Y0060100D03*
D24*
X0225462Y0058700D03*
X0241662Y0063400D03*
X0241062Y0066100D03*
X0241162Y0066200D03*
X0247262Y0069700D03*
X0247362Y0073000D03*
D25*
X0248162Y0073800D03*
X0248262Y0073900D03*
X0248162Y0070500D03*
X0248262Y0067200D03*
X0248162Y0067100D03*
X0241062Y0068700D03*
X0241062Y0068800D03*
X0240962Y0068600D03*
X0240962Y0068500D03*
X0239862Y0063000D03*
X0239862Y0062900D03*
X0239862Y0062800D03*
X0239762Y0062700D03*
X0239762Y0062600D03*
X0240562Y0062200D03*
X0237662Y0059900D03*
X0232662Y0059900D03*
X0226862Y0059900D03*
X0226862Y0059800D03*
X0222962Y0059700D03*
X0222962Y0059600D03*
X0222262Y0058900D03*
X0222262Y0058800D03*
X0221962Y0059600D03*
X0221962Y0059700D03*
X0221962Y0059800D03*
X0221962Y0059900D03*
X0219562Y0059900D03*
X0218862Y0059900D03*
X0218562Y0058900D03*
X0219562Y0059000D03*
D26*
X0219512Y0058900D03*
X0219212Y0060100D03*
X0221912Y0059500D03*
X0222812Y0059400D03*
X0222812Y0059300D03*
X0222912Y0059500D03*
X0226812Y0059700D03*
X0238012Y0060100D03*
X0240612Y0062300D03*
X0240712Y0062400D03*
X0240012Y0063200D03*
X0240012Y0063300D03*
X0239912Y0063100D03*
X0241112Y0068900D03*
X0248012Y0070400D03*
X0248012Y0073600D03*
X0248112Y0073700D03*
X0248112Y0067000D03*
D27*
X0247062Y0066100D03*
X0246862Y0069500D03*
X0242062Y0070400D03*
X0241562Y0066800D03*
X0239062Y0067400D03*
X0239062Y0067500D03*
X0239062Y0067600D03*
X0239062Y0067700D03*
X0238962Y0067300D03*
X0238962Y0067200D03*
X0238962Y0067100D03*
X0238962Y0067000D03*
X0238862Y0066900D03*
X0238862Y0066800D03*
X0238862Y0066700D03*
X0238862Y0066600D03*
X0238862Y0066500D03*
X0238762Y0066400D03*
X0238762Y0066300D03*
X0238762Y0066200D03*
X0238762Y0066100D03*
X0238762Y0066000D03*
X0238662Y0065900D03*
X0238662Y0065800D03*
X0238662Y0065700D03*
X0238662Y0065600D03*
X0238562Y0065400D03*
X0238562Y0065300D03*
X0238562Y0065200D03*
X0238462Y0065000D03*
X0238462Y0064900D03*
X0238462Y0064800D03*
X0238462Y0064700D03*
X0238362Y0064600D03*
X0238362Y0064500D03*
X0238362Y0064400D03*
X0238362Y0064300D03*
X0238362Y0064200D03*
X0238262Y0064100D03*
X0238262Y0064000D03*
X0238262Y0063900D03*
X0238262Y0063800D03*
X0238162Y0063600D03*
X0238162Y0063500D03*
X0238162Y0063400D03*
X0238162Y0063300D03*
X0238162Y0063200D03*
X0238062Y0063000D03*
X0238062Y0062900D03*
X0238062Y0062800D03*
X0237962Y0062700D03*
X0237962Y0062600D03*
X0237962Y0062500D03*
X0237962Y0062400D03*
X0237962Y0062300D03*
X0237862Y0062200D03*
X0237862Y0062100D03*
X0237862Y0062000D03*
X0237862Y0061900D03*
X0237762Y0061800D03*
X0237762Y0061700D03*
X0237762Y0061600D03*
X0237762Y0061500D03*
X0237662Y0061300D03*
X0237662Y0061200D03*
X0237662Y0061100D03*
X0237662Y0061000D03*
X0237562Y0060800D03*
X0237562Y0060700D03*
X0241962Y0063600D03*
X0236162Y0065300D03*
X0236662Y0067700D03*
X0230962Y0067400D03*
X0230962Y0067300D03*
X0230962Y0067200D03*
X0230862Y0067100D03*
X0230862Y0067000D03*
X0230862Y0066900D03*
X0230862Y0066800D03*
X0230762Y0066500D03*
X0230762Y0066400D03*
X0230762Y0066300D03*
X0230662Y0066200D03*
X0230662Y0066100D03*
X0230662Y0066000D03*
X0230662Y0065900D03*
X0230562Y0065600D03*
X0230562Y0065500D03*
X0230562Y0065400D03*
X0230562Y0065300D03*
X0230562Y0065200D03*
X0230462Y0065100D03*
X0230462Y0065000D03*
X0230462Y0064900D03*
X0230462Y0064800D03*
X0230362Y0064500D03*
X0230362Y0064400D03*
X0230362Y0064300D03*
X0230262Y0064100D03*
X0230262Y0064000D03*
X0230262Y0063900D03*
X0230262Y0063800D03*
X0230162Y0063500D03*
X0230162Y0063400D03*
X0230062Y0063200D03*
X0230062Y0063100D03*
X0229962Y0062800D03*
X0229962Y0062700D03*
X0229962Y0062600D03*
X0229862Y0062300D03*
X0229862Y0062200D03*
X0229862Y0062100D03*
X0229762Y0061900D03*
X0229762Y0061800D03*
X0229762Y0061700D03*
X0229762Y0061600D03*
X0229662Y0061400D03*
X0229662Y0061300D03*
X0229662Y0061200D03*
X0229562Y0060800D03*
X0229562Y0060700D03*
X0232062Y0061500D03*
X0225362Y0062600D03*
X0225262Y0062200D03*
X0225462Y0063100D03*
X0225562Y0063500D03*
X0225562Y0063600D03*
X0225662Y0063800D03*
X0225662Y0063900D03*
X0225662Y0064000D03*
X0225762Y0064200D03*
X0225762Y0064300D03*
X0225762Y0064400D03*
X0225762Y0064500D03*
X0225862Y0064700D03*
X0225862Y0064800D03*
X0225862Y0064900D03*
X0225862Y0065000D03*
X0225962Y0065100D03*
X0225962Y0065200D03*
X0225962Y0065300D03*
X0225962Y0065400D03*
X0226062Y0065600D03*
X0226062Y0065700D03*
X0226162Y0066000D03*
X0226162Y0066100D03*
X0226162Y0066200D03*
X0226162Y0066300D03*
X0226162Y0066400D03*
X0226262Y0066600D03*
X0226262Y0066700D03*
X0226262Y0066800D03*
X0226362Y0066900D03*
X0226362Y0067000D03*
X0226362Y0067100D03*
X0226362Y0067200D03*
X0226362Y0067300D03*
X0226462Y0067400D03*
X0226462Y0067500D03*
X0226462Y0067600D03*
X0226462Y0067700D03*
X0221962Y0067700D03*
X0221962Y0067600D03*
X0221862Y0067500D03*
X0221862Y0067400D03*
X0221862Y0067300D03*
X0221862Y0067200D03*
X0221762Y0067000D03*
X0221762Y0066900D03*
X0221762Y0066800D03*
X0221662Y0066600D03*
X0221662Y0066500D03*
X0221362Y0065200D03*
X0221262Y0064700D03*
X0221262Y0064600D03*
X0221162Y0064200D03*
X0221162Y0064100D03*
X0221162Y0064000D03*
X0221062Y0063700D03*
X0220962Y0063200D03*
X0220962Y0063100D03*
X0220862Y0062700D03*
X0220762Y0062200D03*
X0218562Y0062500D03*
X0218562Y0062600D03*
X0218562Y0062700D03*
X0218562Y0062800D03*
X0218562Y0062900D03*
X0218662Y0063000D03*
X0218662Y0063100D03*
X0218662Y0063200D03*
X0218662Y0063300D03*
X0218762Y0063500D03*
X0218762Y0063600D03*
X0218762Y0063700D03*
X0218762Y0063800D03*
X0218862Y0064000D03*
X0218862Y0064100D03*
X0218862Y0064200D03*
X0218862Y0064300D03*
X0218962Y0064500D03*
X0218962Y0064600D03*
X0218962Y0064700D03*
X0218962Y0064800D03*
X0219062Y0065000D03*
X0219062Y0065100D03*
X0219062Y0065200D03*
X0219062Y0065300D03*
X0219162Y0065400D03*
X0219162Y0065500D03*
X0219162Y0065600D03*
X0219162Y0065700D03*
X0219262Y0065900D03*
X0219262Y0066000D03*
X0219262Y0066100D03*
X0219262Y0066200D03*
X0219362Y0066400D03*
X0219362Y0066500D03*
X0219362Y0066600D03*
X0219362Y0066700D03*
X0219462Y0066800D03*
X0219462Y0066900D03*
X0219462Y0067000D03*
X0219462Y0067100D03*
X0219562Y0067500D03*
X0218462Y0062400D03*
X0218462Y0062300D03*
X0218462Y0062200D03*
X0218462Y0062100D03*
X0218362Y0062000D03*
X0218362Y0061900D03*
X0218362Y0061800D03*
X0218362Y0061700D03*
X0218362Y0061600D03*
X0218262Y0061500D03*
X0218262Y0061400D03*
X0218262Y0061300D03*
X0218262Y0061200D03*
X0218162Y0061000D03*
X0218162Y0060900D03*
X0218162Y0060800D03*
X0218162Y0060700D03*
D28*
X0221612Y0060700D03*
X0221612Y0060800D03*
X0221612Y0060900D03*
X0221712Y0061100D03*
X0221712Y0061200D03*
X0221712Y0061300D03*
X0221712Y0061400D03*
X0221812Y0061500D03*
X0221812Y0061600D03*
X0221812Y0061700D03*
X0221812Y0061800D03*
X0221812Y0061900D03*
X0226212Y0061200D03*
X0226212Y0061100D03*
X0226212Y0061000D03*
X0226212Y0060900D03*
X0226112Y0060700D03*
X0226312Y0061400D03*
X0226312Y0061500D03*
X0226312Y0061600D03*
X0226412Y0061800D03*
X0226412Y0061900D03*
X0226412Y0062000D03*
X0226412Y0062100D03*
X0243812Y0064500D03*
X0245212Y0065300D03*
D29*
X0241512Y0066700D03*
X0241412Y0066600D03*
X0241912Y0070300D03*
X0236612Y0067600D03*
X0236612Y0067500D03*
X0236612Y0067400D03*
X0236612Y0067300D03*
X0236612Y0067200D03*
X0236512Y0067100D03*
X0236512Y0067000D03*
X0236512Y0066900D03*
X0236512Y0066800D03*
X0236512Y0066700D03*
X0236412Y0066500D03*
X0236412Y0066400D03*
X0236412Y0066300D03*
X0236412Y0066200D03*
X0236312Y0066000D03*
X0236312Y0065900D03*
X0236312Y0065800D03*
X0236312Y0065700D03*
X0236212Y0065600D03*
X0236212Y0065500D03*
X0236212Y0065400D03*
X0236112Y0065200D03*
X0236112Y0065100D03*
X0236112Y0065000D03*
X0236112Y0064900D03*
X0236112Y0064800D03*
X0236012Y0064700D03*
X0236012Y0064600D03*
X0236012Y0064500D03*
X0236012Y0064400D03*
X0235912Y0064200D03*
X0235912Y0064100D03*
X0235912Y0064000D03*
X0235912Y0063900D03*
X0235812Y0063700D03*
X0235812Y0063600D03*
X0238112Y0063100D03*
X0238212Y0063700D03*
X0232712Y0064400D03*
X0232712Y0064500D03*
X0232712Y0064600D03*
X0232612Y0064200D03*
X0232612Y0064100D03*
X0232612Y0064000D03*
X0232612Y0063900D03*
X0232512Y0063800D03*
X0232512Y0063700D03*
X0232512Y0063600D03*
X0232512Y0063500D03*
X0232412Y0063300D03*
X0232412Y0063200D03*
X0232412Y0063100D03*
X0232412Y0063000D03*
X0232312Y0062900D03*
X0232312Y0062800D03*
X0232312Y0062700D03*
X0232312Y0062600D03*
X0232312Y0062500D03*
X0232212Y0062400D03*
X0232212Y0062300D03*
X0232212Y0062200D03*
X0232212Y0062100D03*
X0232112Y0062000D03*
X0232112Y0061900D03*
X0232112Y0061800D03*
X0232112Y0061700D03*
X0232112Y0061600D03*
X0232012Y0061400D03*
X0232012Y0061300D03*
X0232012Y0061200D03*
X0232012Y0061100D03*
X0231912Y0061000D03*
X0231912Y0060900D03*
X0231912Y0060800D03*
X0231912Y0060700D03*
X0230212Y0063600D03*
X0230212Y0063700D03*
X0230412Y0064600D03*
X0230412Y0064700D03*
X0231012Y0067500D03*
X0231012Y0067600D03*
X0231012Y0067700D03*
X0226112Y0065900D03*
X0226112Y0065800D03*
X0226012Y0065500D03*
X0225712Y0064100D03*
X0225612Y0063700D03*
X0225512Y0063400D03*
X0225512Y0063300D03*
X0225512Y0063200D03*
X0225412Y0063000D03*
X0225412Y0062900D03*
X0225412Y0062800D03*
X0225412Y0062700D03*
X0225312Y0062500D03*
X0225312Y0062400D03*
X0225312Y0062300D03*
X0221012Y0063300D03*
X0221012Y0063400D03*
X0221012Y0063500D03*
X0221012Y0063600D03*
X0221112Y0063800D03*
X0221112Y0063900D03*
X0221212Y0064300D03*
X0221212Y0064400D03*
X0221212Y0064500D03*
X0221312Y0064800D03*
X0221312Y0064900D03*
X0221312Y0065000D03*
X0221312Y0065100D03*
X0221412Y0065300D03*
X0221412Y0065400D03*
X0221412Y0065500D03*
X0221412Y0065600D03*
X0221512Y0065700D03*
X0221512Y0065800D03*
X0221512Y0065900D03*
X0221512Y0066000D03*
X0221512Y0066100D03*
X0221612Y0066200D03*
X0221612Y0066300D03*
X0221612Y0066400D03*
X0221712Y0066700D03*
X0219512Y0067200D03*
X0219512Y0067300D03*
X0219512Y0067400D03*
X0219612Y0067600D03*
X0219612Y0067700D03*
X0219012Y0064900D03*
X0218712Y0063400D03*
X0220912Y0063000D03*
X0220912Y0062900D03*
X0220912Y0062800D03*
X0220812Y0062600D03*
X0220812Y0062500D03*
X0220812Y0062400D03*
X0220812Y0062300D03*
X0247112Y0072900D03*
D30*
X0246962Y0072800D03*
X0242162Y0070500D03*
X0241762Y0067000D03*
X0242162Y0063700D03*
X0235062Y0060700D03*
D31*
X0226362Y0061700D03*
X0226262Y0061300D03*
X0226162Y0060800D03*
X0243562Y0067900D03*
X0244862Y0068600D03*
X0243562Y0071200D03*
X0245062Y0072000D03*
D32*
X0241912Y0067100D03*
X0246812Y0066000D03*
X0235012Y0061000D03*
X0235012Y0060900D03*
X0235012Y0060800D03*
X0233512Y0067400D03*
X0233512Y0067500D03*
X0233512Y0067600D03*
X0233512Y0067700D03*
D33*
X0230812Y0066700D03*
X0230812Y0066600D03*
X0230612Y0065800D03*
X0230612Y0065700D03*
X0230312Y0064200D03*
X0230112Y0063300D03*
X0230012Y0063000D03*
X0230012Y0062900D03*
X0229912Y0062500D03*
X0229912Y0062400D03*
X0229812Y0062000D03*
X0229712Y0061500D03*
X0229612Y0061100D03*
X0229612Y0061000D03*
X0229612Y0060900D03*
X0225812Y0064600D03*
X0226212Y0066500D03*
X0221812Y0067100D03*
X0219312Y0066300D03*
X0219212Y0065800D03*
X0218912Y0064400D03*
X0218812Y0063900D03*
X0218212Y0061100D03*
X0237612Y0060900D03*
X0237712Y0061400D03*
X0238512Y0065100D03*
X0238612Y0065500D03*
X0241712Y0066900D03*
D34*
X0243362Y0067800D03*
X0245062Y0068700D03*
X0243362Y0071100D03*
X0245262Y0072100D03*
X0221862Y0062100D03*
X0221862Y0062000D03*
X0221662Y0061000D03*
D35*
X0235062Y0061100D03*
X0235062Y0061200D03*
X0235062Y0061300D03*
X0235062Y0061400D03*
X0233562Y0067300D03*
X0246662Y0069400D03*
X0246762Y0072700D03*
D36*
X0248462Y0071100D03*
X0240662Y0067700D03*
X0239262Y0061200D03*
X0239262Y0061100D03*
D37*
X0242312Y0063800D03*
X0242312Y0070600D03*
X0233512Y0067200D03*
X0233512Y0067100D03*
X0233512Y0067000D03*
X0233512Y0066900D03*
X0233512Y0066800D03*
X0235112Y0062000D03*
X0235112Y0061900D03*
X0235112Y0061800D03*
X0235112Y0061700D03*
X0235112Y0061600D03*
X0235112Y0061500D03*
D38*
X0235162Y0062100D03*
X0235162Y0062200D03*
X0235162Y0062300D03*
X0233462Y0066200D03*
X0233462Y0066300D03*
X0233462Y0066400D03*
X0233462Y0066500D03*
X0233462Y0066600D03*
X0233462Y0066700D03*
X0242062Y0067200D03*
X0246662Y0065900D03*
X0246462Y0069300D03*
D39*
X0246512Y0072600D03*
X0233412Y0066100D03*
X0233412Y0066000D03*
X0233412Y0065900D03*
X0233412Y0065800D03*
X0233412Y0065700D03*
X0235212Y0062800D03*
X0235212Y0062700D03*
X0235212Y0062600D03*
X0235212Y0062500D03*
X0235212Y0062400D03*
D40*
X0235262Y0062900D03*
X0235262Y0063000D03*
X0235262Y0063100D03*
X0235262Y0063200D03*
X0235262Y0063300D03*
X0233362Y0065200D03*
X0233362Y0065300D03*
X0233362Y0065400D03*
X0233362Y0065500D03*
X0233362Y0065600D03*
X0242262Y0067300D03*
X0242562Y0063900D03*
D41*
X0241762Y0063500D03*
X0241262Y0066400D03*
X0241362Y0066500D03*
X0236462Y0066600D03*
X0236362Y0066100D03*
X0235962Y0064300D03*
X0235862Y0063800D03*
X0232762Y0064700D03*
X0232762Y0064800D03*
X0232662Y0064300D03*
X0232462Y0063400D03*
X0247262Y0066200D03*
X0247062Y0069600D03*
D42*
X0246212Y0069200D03*
X0246312Y0072500D03*
X0242512Y0070700D03*
X0235312Y0063400D03*
X0233312Y0064900D03*
X0233312Y0065000D03*
X0233312Y0065100D03*
D43*
X0235262Y0063500D03*
X0246362Y0065800D03*
D44*
X0245962Y0069100D03*
X0242762Y0070800D03*
X0242762Y0064000D03*
D45*
X0243012Y0064100D03*
X0242712Y0067500D03*
X0245712Y0069000D03*
D46*
X0245512Y0068900D03*
X0243212Y0064200D03*
D47*
X0243412Y0064300D03*
X0245512Y0072200D03*
D48*
X0245412Y0065400D03*
X0243612Y0064400D03*
D49*
X0244012Y0064600D03*
X0245012Y0065200D03*
X0244612Y0068500D03*
D50*
X0244462Y0068400D03*
X0244262Y0068300D03*
X0243962Y0068100D03*
X0243762Y0068000D03*
X0243762Y0071300D03*
X0244162Y0064700D03*
D51*
X0244312Y0064800D03*
X0244612Y0065000D03*
X0244812Y0065100D03*
X0244112Y0068200D03*
X0243912Y0071400D03*
X0244112Y0071500D03*
X0244612Y0071800D03*
X0244812Y0071900D03*
D52*
X0244462Y0071700D03*
X0244262Y0071600D03*
X0244462Y0064900D03*
D53*
X0245662Y0065500D03*
X0242962Y0067600D03*
X0243162Y0071000D03*
D54*
X0242962Y0070900D03*
X0245862Y0072300D03*
X0245862Y0065600D03*
D55*
X0246112Y0065700D03*
D56*
X0241212Y0066300D03*
X0241812Y0070200D03*
D57*
X0242512Y0067400D03*
D58*
X0243162Y0067700D03*
X0245262Y0068800D03*
D59*
X0246062Y0072400D03*
D60*
X0343508Y0073551D02*
X0343508Y0075053D01*
X0343508Y0074302D02*
X0347261Y0074302D01*
X0348012Y0073551D01*
X0348012Y0072801D01*
X0347261Y0072050D01*
X0346511Y0076654D02*
X0346511Y0078906D01*
X0345760Y0079656D01*
X0344259Y0079656D01*
X0343508Y0078906D01*
X0343508Y0076654D01*
X0348012Y0076654D01*
X0348012Y0081258D02*
X0348012Y0084260D01*
X0348012Y0082759D02*
X0343508Y0082759D01*
X0345009Y0081258D01*
X0315762Y0229202D02*
X0307100Y0236682D01*
X0315762Y0229202D02*
X0324030Y0237076D01*
X0324030Y0246524D02*
X0315762Y0254398D01*
X0307100Y0246918D01*
X0315762Y0264202D02*
X0307100Y0271682D01*
X0315762Y0264202D02*
X0324030Y0272076D01*
X0324030Y0281524D02*
X0315762Y0289398D01*
X0307100Y0281918D01*
X0278360Y0246800D02*
X0270486Y0255068D01*
X0261037Y0255068D02*
X0253163Y0246800D01*
X0260644Y0238139D01*
X0270880Y0238139D02*
X0278360Y0246800D01*
X0250679Y0255501D02*
X0220738Y0255501D01*
X0220738Y0256312D01*
X0220738Y0268099D01*
X0250679Y0268099D01*
X0250679Y0266312D01*
X0250679Y0255501D01*
X0238512Y0260050D02*
X0238512Y0263550D01*
X0237012Y0263550D02*
X0238512Y0261800D01*
X0237012Y0260050D01*
X0237012Y0263550D01*
X0250679Y0266312D02*
X0250679Y0267288D01*
X0220738Y0256538D02*
X0220738Y0256312D01*
X0208360Y0246800D02*
X0200880Y0238139D01*
X0190644Y0238139D02*
X0183163Y0246800D01*
X0191037Y0255068D01*
X0200486Y0255068D02*
X0208360Y0246800D01*
X0180679Y0255501D02*
X0180679Y0266312D01*
X0180679Y0268099D01*
X0150738Y0268099D01*
X0150738Y0256312D01*
X0150738Y0256538D01*
X0150738Y0256312D02*
X0150738Y0255501D01*
X0180679Y0255501D01*
X0180679Y0266312D02*
X0180679Y0267288D01*
X0168512Y0263550D02*
X0168512Y0260050D01*
X0167012Y0260050D02*
X0168512Y0261800D01*
X0167012Y0263550D01*
X0167012Y0260050D01*
X0087430Y0299550D02*
X0084428Y0299550D01*
X0085929Y0299550D02*
X0085929Y0304054D01*
X0084428Y0302553D01*
X0082826Y0303303D02*
X0082076Y0304054D01*
X0080574Y0304054D01*
X0079824Y0303303D01*
X0079824Y0300301D01*
X0080574Y0299550D01*
X0082076Y0299550D01*
X0082826Y0300301D01*
X0082826Y0301802D01*
X0081325Y0301802D01*
X0078222Y0301802D02*
X0075220Y0301802D01*
X0075220Y0302553D02*
X0076721Y0304054D01*
X0078222Y0302553D01*
X0078222Y0299550D01*
X0075220Y0299550D02*
X0075220Y0302553D01*
X0073618Y0304054D02*
X0070616Y0304054D01*
X0072117Y0304054D02*
X0072117Y0299550D01*
X0068264Y0300301D02*
X0068264Y0304054D01*
X0069014Y0304054D02*
X0067513Y0304054D01*
X0068264Y0300301D02*
X0067513Y0299550D01*
X0066762Y0299550D01*
X0066012Y0300301D01*
X0067513Y0254054D02*
X0069014Y0252553D01*
X0069014Y0249550D01*
X0070616Y0250301D02*
X0071366Y0249550D01*
X0072868Y0249550D01*
X0073618Y0250301D01*
X0073618Y0251051D01*
X0072868Y0251802D01*
X0071366Y0251802D01*
X0070616Y0252553D01*
X0070616Y0253303D01*
X0071366Y0254054D01*
X0072868Y0254054D01*
X0073618Y0253303D01*
X0075220Y0252553D02*
X0076721Y0254054D01*
X0076721Y0249550D01*
X0075220Y0249550D02*
X0078222Y0249550D01*
X0069014Y0251802D02*
X0066012Y0251802D01*
X0066012Y0252553D02*
X0067513Y0254054D01*
X0066012Y0252553D02*
X0066012Y0249550D01*
D61*
X0080958Y0254500D02*
X0080958Y0256802D01*
X0081725Y0257569D01*
X0083260Y0257569D01*
X0084027Y0256802D01*
X0084027Y0254500D01*
X0084027Y0256035D02*
X0085562Y0257569D01*
X0084795Y0259104D02*
X0085562Y0259871D01*
X0085562Y0261406D01*
X0084795Y0262173D01*
X0084027Y0262173D01*
X0083260Y0261406D01*
X0083260Y0260639D01*
X0083260Y0261406D02*
X0082493Y0262173D01*
X0081725Y0262173D01*
X0080958Y0261406D01*
X0080958Y0259871D01*
X0081725Y0259104D01*
X0081725Y0263708D02*
X0080958Y0264475D01*
X0080958Y0266010D01*
X0081725Y0266777D01*
X0084795Y0263708D01*
X0085562Y0264475D01*
X0085562Y0266010D01*
X0084795Y0266777D01*
X0081725Y0266777D01*
X0081725Y0263708D02*
X0084795Y0263708D01*
X0085562Y0254500D02*
X0080958Y0254500D01*
X0065562Y0275688D02*
X0060958Y0275688D01*
X0060958Y0277990D01*
X0061725Y0278757D01*
X0063260Y0278757D01*
X0064027Y0277990D01*
X0064027Y0275688D01*
X0064027Y0277223D02*
X0065562Y0278757D01*
X0065562Y0280292D02*
X0062493Y0283361D01*
X0061725Y0283361D01*
X0060958Y0282594D01*
X0060958Y0281059D01*
X0061725Y0280292D01*
X0065562Y0280292D02*
X0065562Y0283361D01*
X0065562Y0284896D02*
X0064795Y0284896D01*
X0061725Y0287965D01*
X0060958Y0287965D01*
X0060958Y0284896D01*
X0114650Y0276604D02*
X0114650Y0272000D01*
X0114650Y0273535D02*
X0116952Y0273535D01*
X0117719Y0274302D01*
X0117719Y0275837D01*
X0116952Y0276604D01*
X0114650Y0276604D01*
X0116185Y0273535D02*
X0117719Y0272000D01*
X0119254Y0272000D02*
X0122323Y0275069D01*
X0122323Y0275837D01*
X0121556Y0276604D01*
X0120021Y0276604D01*
X0119254Y0275837D01*
X0119254Y0272000D02*
X0122323Y0272000D01*
X0123858Y0272767D02*
X0123858Y0273535D01*
X0124625Y0274302D01*
X0126160Y0274302D01*
X0126927Y0273535D01*
X0126927Y0272767D01*
X0126160Y0272000D01*
X0124625Y0272000D01*
X0123858Y0272767D01*
X0124625Y0274302D02*
X0123858Y0275069D01*
X0123858Y0275837D01*
X0124625Y0276604D01*
X0126160Y0276604D01*
X0126927Y0275837D01*
X0126927Y0275069D01*
X0126160Y0274302D01*
X0126531Y0277000D02*
X0124996Y0278535D01*
X0125764Y0278535D02*
X0123462Y0278535D01*
X0123462Y0277000D02*
X0123462Y0281604D01*
X0125764Y0281604D01*
X0126531Y0280837D01*
X0126531Y0279302D01*
X0125764Y0278535D01*
X0128066Y0277767D02*
X0128833Y0277000D01*
X0130368Y0277000D01*
X0131135Y0277767D01*
X0131135Y0278535D01*
X0130368Y0279302D01*
X0129600Y0279302D01*
X0130368Y0279302D02*
X0131135Y0280069D01*
X0131135Y0280837D01*
X0130368Y0281604D01*
X0128833Y0281604D01*
X0128066Y0280837D01*
X0132670Y0280837D02*
X0133437Y0281604D01*
X0134972Y0281604D01*
X0135739Y0280837D01*
X0135739Y0280069D01*
X0134972Y0279302D01*
X0135739Y0278535D01*
X0135739Y0277767D01*
X0134972Y0277000D01*
X0133437Y0277000D01*
X0132670Y0277767D01*
X0134204Y0279302D02*
X0134972Y0279302D01*
X0168462Y0251604D02*
X0170764Y0251604D01*
X0171531Y0250837D01*
X0171531Y0249302D01*
X0170764Y0248535D01*
X0168462Y0248535D01*
X0169996Y0248535D02*
X0171531Y0247000D01*
X0173066Y0247767D02*
X0173833Y0247000D01*
X0175368Y0247000D01*
X0176135Y0247767D01*
X0176135Y0248535D01*
X0175368Y0249302D01*
X0173066Y0249302D01*
X0173066Y0247767D01*
X0173066Y0249302D02*
X0174600Y0250837D01*
X0176135Y0251604D01*
X0168462Y0251604D02*
X0168462Y0247000D01*
X0154427Y0235837D02*
X0153660Y0236604D01*
X0152125Y0236604D01*
X0151358Y0235837D01*
X0149823Y0235837D02*
X0149056Y0236604D01*
X0146754Y0236604D01*
X0146754Y0232000D01*
X0149056Y0232000D01*
X0149823Y0232767D01*
X0149823Y0235837D01*
X0152892Y0234302D02*
X0153660Y0234302D01*
X0154427Y0233535D01*
X0154427Y0232767D01*
X0153660Y0232000D01*
X0152125Y0232000D01*
X0151358Y0232767D01*
X0153660Y0234302D02*
X0154427Y0235069D01*
X0154427Y0235837D01*
X0145219Y0236604D02*
X0142150Y0236604D01*
X0142150Y0232000D01*
X0145219Y0232000D01*
X0143685Y0234302D02*
X0142150Y0234302D01*
X0140615Y0232000D02*
X0137546Y0232000D01*
X0137546Y0236604D01*
X0100562Y0217965D02*
X0100562Y0214896D01*
X0100562Y0216431D02*
X0095958Y0216431D01*
X0097493Y0214896D01*
X0097493Y0213361D02*
X0098260Y0212594D01*
X0099027Y0213361D01*
X0099795Y0213361D01*
X0100562Y0212594D01*
X0100562Y0211059D01*
X0099795Y0210292D01*
X0100562Y0208757D02*
X0099027Y0207223D01*
X0099027Y0207990D02*
X0099027Y0205688D01*
X0100562Y0205688D02*
X0095958Y0205688D01*
X0095958Y0207990D01*
X0096725Y0208757D01*
X0098260Y0208757D01*
X0099027Y0207990D01*
X0096725Y0210292D02*
X0095958Y0211059D01*
X0095958Y0212594D01*
X0096725Y0213361D01*
X0097493Y0213361D01*
X0098260Y0212594D02*
X0098260Y0211827D01*
X0090562Y0212594D02*
X0090562Y0211059D01*
X0089795Y0210292D01*
X0090562Y0208757D02*
X0089027Y0207223D01*
X0089027Y0207990D02*
X0089027Y0205688D01*
X0090562Y0205688D02*
X0085958Y0205688D01*
X0085958Y0207990D01*
X0086725Y0208757D01*
X0088260Y0208757D01*
X0089027Y0207990D01*
X0086725Y0210292D02*
X0085958Y0211059D01*
X0085958Y0212594D01*
X0086725Y0213361D01*
X0087493Y0213361D01*
X0088260Y0212594D01*
X0089027Y0213361D01*
X0089795Y0213361D01*
X0090562Y0212594D01*
X0090562Y0214896D02*
X0087493Y0217965D01*
X0086725Y0217965D01*
X0085958Y0217198D01*
X0085958Y0215663D01*
X0086725Y0214896D01*
X0088260Y0212594D02*
X0088260Y0211827D01*
X0090562Y0214896D02*
X0090562Y0217965D01*
X0142655Y0187411D02*
X0144189Y0187411D01*
X0143422Y0187411D02*
X0143422Y0182807D01*
X0142655Y0182807D02*
X0144189Y0182807D01*
X0145724Y0183574D02*
X0146491Y0182807D01*
X0148026Y0182807D01*
X0148793Y0183574D01*
X0150328Y0182807D02*
X0153397Y0185876D01*
X0153397Y0186644D01*
X0152630Y0187411D01*
X0151095Y0187411D01*
X0150328Y0186644D01*
X0148793Y0186644D02*
X0148026Y0187411D01*
X0146491Y0187411D01*
X0145724Y0186644D01*
X0145724Y0183574D01*
X0150328Y0182807D02*
X0153397Y0182807D01*
X0160958Y0188584D02*
X0165562Y0188584D01*
X0165562Y0191654D01*
X0165562Y0193188D02*
X0160958Y0193188D01*
X0160958Y0196257D01*
X0160958Y0197792D02*
X0160958Y0200094D01*
X0161725Y0200861D01*
X0164795Y0200861D01*
X0165562Y0200094D01*
X0165562Y0197792D01*
X0160958Y0197792D01*
X0160562Y0199500D02*
X0155958Y0199500D01*
X0155958Y0201802D01*
X0156725Y0202569D01*
X0158260Y0202569D01*
X0159027Y0201802D01*
X0159027Y0199500D01*
X0159027Y0201035D02*
X0160562Y0202569D01*
X0160958Y0203163D02*
X0161725Y0202396D01*
X0160958Y0203163D02*
X0160958Y0204698D01*
X0161725Y0205465D01*
X0162493Y0205465D01*
X0165562Y0202396D01*
X0165562Y0205465D01*
X0160562Y0204871D02*
X0159795Y0204104D01*
X0160562Y0204871D02*
X0160562Y0206406D01*
X0159795Y0207173D01*
X0158260Y0207173D01*
X0157493Y0206406D01*
X0157493Y0205639D01*
X0158260Y0204104D01*
X0155958Y0204104D01*
X0155958Y0207173D01*
X0163260Y0194723D02*
X0163260Y0193188D01*
X0165562Y0193188D02*
X0165562Y0196257D01*
X0175958Y0199500D02*
X0175958Y0201802D01*
X0176725Y0202569D01*
X0178260Y0202569D01*
X0179027Y0201802D01*
X0179027Y0199500D01*
X0179027Y0201035D02*
X0180562Y0202569D01*
X0180958Y0203931D02*
X0182493Y0202396D01*
X0181725Y0200861D02*
X0180958Y0200094D01*
X0180958Y0197792D01*
X0185562Y0197792D01*
X0185562Y0200094D01*
X0184795Y0200861D01*
X0181725Y0200861D01*
X0180562Y0199500D02*
X0175958Y0199500D01*
X0180958Y0196257D02*
X0180958Y0193188D01*
X0185562Y0193188D01*
X0185562Y0196257D01*
X0183260Y0194723D02*
X0183260Y0193188D01*
X0185562Y0191654D02*
X0185562Y0188584D01*
X0180958Y0188584D01*
X0185562Y0202396D02*
X0185562Y0205465D01*
X0185562Y0203931D02*
X0180958Y0203931D01*
X0180562Y0206406D02*
X0175958Y0206406D01*
X0178260Y0204104D01*
X0178260Y0207173D01*
X0240962Y0134104D02*
X0243264Y0134104D01*
X0244031Y0133337D01*
X0244031Y0131802D01*
X0243264Y0131035D01*
X0240962Y0131035D01*
X0242496Y0131035D02*
X0244031Y0129500D01*
X0245566Y0129500D02*
X0248635Y0132569D01*
X0248635Y0133337D01*
X0247868Y0134104D01*
X0246333Y0134104D01*
X0245566Y0133337D01*
X0245566Y0129500D02*
X0248635Y0129500D01*
X0250170Y0130267D02*
X0250937Y0129500D01*
X0252472Y0129500D01*
X0253239Y0130267D01*
X0253239Y0133337D01*
X0252472Y0134104D01*
X0250937Y0134104D01*
X0250170Y0133337D01*
X0250170Y0132569D01*
X0250937Y0131802D01*
X0253239Y0131802D01*
X0240962Y0129500D02*
X0240962Y0134104D01*
X0281725Y0242000D02*
X0284795Y0242000D01*
X0285562Y0242767D01*
X0285562Y0244302D01*
X0284795Y0245069D01*
X0283260Y0246604D02*
X0283260Y0249673D01*
X0284795Y0251208D02*
X0281725Y0254277D01*
X0284795Y0254277D01*
X0285562Y0253510D01*
X0285562Y0251975D01*
X0284795Y0251208D01*
X0281725Y0251208D01*
X0280958Y0251975D01*
X0280958Y0253510D01*
X0281725Y0254277D01*
X0280958Y0248906D02*
X0283260Y0246604D01*
X0281725Y0245069D02*
X0280958Y0244302D01*
X0280958Y0242767D01*
X0281725Y0242000D01*
X0280958Y0248906D02*
X0285562Y0248906D01*
X0284795Y0277000D02*
X0285562Y0277767D01*
X0285562Y0279302D01*
X0284795Y0280069D01*
X0285562Y0281604D02*
X0282493Y0284673D01*
X0281725Y0284673D01*
X0280958Y0283906D01*
X0280958Y0282371D01*
X0281725Y0281604D01*
X0281725Y0280069D02*
X0280958Y0279302D01*
X0280958Y0277767D01*
X0281725Y0277000D01*
X0284795Y0277000D01*
X0285562Y0281604D02*
X0285562Y0284673D01*
X0283260Y0286208D02*
X0283260Y0289277D01*
X0285562Y0288510D02*
X0280958Y0288510D01*
X0283260Y0286208D01*
D62*
X0178124Y0201209D03*
X0173400Y0201209D03*
X0158124Y0201209D03*
X0153400Y0201209D03*
D63*
X0155762Y0201209D03*
X0175762Y0201209D03*
X0150171Y0241800D03*
D64*
X0150171Y0239438D03*
X0150171Y0244162D03*
D65*
X0199462Y0293546D02*
X0200696Y0292312D01*
X0205634Y0292312D01*
X0206868Y0293546D01*
X0206868Y0296015D01*
X0205634Y0297250D01*
X0204399Y0297250D01*
X0203165Y0296015D01*
X0203165Y0292312D01*
X0199462Y0293546D02*
X0199462Y0296015D01*
X0200696Y0297250D01*
X0200696Y0299862D02*
X0206868Y0299862D01*
X0200696Y0299862D02*
X0199462Y0301097D01*
X0199462Y0303566D01*
X0200696Y0304800D01*
X0206868Y0304800D01*
X0269462Y0303566D02*
X0269462Y0301097D01*
X0270696Y0299862D01*
X0276868Y0299862D01*
X0274399Y0297250D02*
X0276868Y0294781D01*
X0269462Y0294781D01*
X0269462Y0297250D02*
X0269462Y0292312D01*
X0270696Y0289699D02*
X0269462Y0288465D01*
X0269462Y0285996D01*
X0270696Y0284762D01*
X0275634Y0284762D01*
X0270696Y0289699D01*
X0275634Y0289699D01*
X0276868Y0288465D01*
X0276868Y0285996D01*
X0275634Y0284762D01*
X0269462Y0303566D02*
X0270696Y0304800D01*
X0276868Y0304800D01*
X0296762Y0225806D02*
X0296762Y0219634D01*
X0297996Y0218400D01*
X0300465Y0218400D01*
X0301699Y0219634D01*
X0301699Y0225806D01*
X0304312Y0224572D02*
X0305547Y0225806D01*
X0308015Y0225806D01*
X0309250Y0224572D01*
X0311863Y0224572D02*
X0313097Y0225806D01*
X0315566Y0225806D01*
X0316800Y0224572D01*
X0316800Y0223338D01*
X0311863Y0218400D01*
X0316800Y0218400D01*
X0309250Y0219634D02*
X0309250Y0220869D01*
X0308015Y0222103D01*
X0305547Y0222103D01*
X0304312Y0223338D01*
X0304312Y0224572D01*
X0306781Y0227041D02*
X0306781Y0217166D01*
X0305547Y0218400D02*
X0308015Y0218400D01*
X0309250Y0219634D01*
X0305547Y0218400D02*
X0304312Y0219634D01*
X0224732Y0175770D02*
X0146792Y0175770D01*
X0146792Y0097830D01*
X0224732Y0097830D01*
X0224732Y0175770D01*
X0290062Y0132963D02*
X0290062Y0120637D01*
X0290061Y0120637D02*
X0290063Y0120561D01*
X0290069Y0120486D01*
X0290078Y0120410D01*
X0290092Y0120335D01*
X0290109Y0120261D01*
X0290130Y0120188D01*
X0290154Y0120116D01*
X0290182Y0120046D01*
X0290214Y0119977D01*
X0290249Y0119909D01*
X0290288Y0119844D01*
X0290330Y0119780D01*
X0290375Y0119719D01*
X0290423Y0119660D01*
X0290474Y0119604D01*
X0290528Y0119550D01*
X0290584Y0119499D01*
X0290643Y0119451D01*
X0290704Y0119406D01*
X0290768Y0119364D01*
X0290833Y0119325D01*
X0290901Y0119290D01*
X0290970Y0119258D01*
X0291040Y0119230D01*
X0291112Y0119206D01*
X0291185Y0119185D01*
X0291259Y0119168D01*
X0291334Y0119154D01*
X0291410Y0119145D01*
X0291485Y0119139D01*
X0291561Y0119137D01*
X0291562Y0119137D02*
X0329962Y0119137D01*
X0329961Y0119137D02*
X0330042Y0119149D01*
X0330122Y0119164D01*
X0330201Y0119183D01*
X0330279Y0119205D01*
X0330356Y0119232D01*
X0330432Y0119261D01*
X0330506Y0119295D01*
X0330578Y0119332D01*
X0330649Y0119372D01*
X0330717Y0119416D01*
X0330784Y0119463D01*
X0330848Y0119513D01*
X0330909Y0119566D01*
X0330968Y0119622D01*
X0331025Y0119681D01*
X0331078Y0119742D01*
X0331129Y0119806D01*
X0331176Y0119872D01*
X0331220Y0119940D01*
X0331261Y0120010D01*
X0331299Y0120082D01*
X0331333Y0120156D01*
X0331363Y0120232D01*
X0331390Y0120308D01*
X0331413Y0120386D01*
X0331433Y0120465D01*
X0331448Y0120545D01*
X0331460Y0120626D01*
X0331468Y0120706D01*
X0331472Y0120788D01*
X0331473Y0120869D01*
X0331469Y0120950D01*
X0331462Y0121031D01*
X0331462Y0121081D02*
X0331462Y0124400D01*
X0331262Y0124400D02*
X0331164Y0124402D01*
X0331066Y0124408D01*
X0330968Y0124417D01*
X0330871Y0124431D01*
X0330774Y0124448D01*
X0330678Y0124469D01*
X0330583Y0124494D01*
X0330489Y0124522D01*
X0330397Y0124555D01*
X0330305Y0124590D01*
X0330215Y0124630D01*
X0330127Y0124672D01*
X0330040Y0124719D01*
X0329956Y0124768D01*
X0329873Y0124821D01*
X0329793Y0124877D01*
X0329714Y0124937D01*
X0329638Y0124999D01*
X0329565Y0125064D01*
X0329494Y0125132D01*
X0329426Y0125203D01*
X0329361Y0125276D01*
X0329299Y0125352D01*
X0329239Y0125431D01*
X0329183Y0125511D01*
X0329130Y0125594D01*
X0329081Y0125678D01*
X0329034Y0125765D01*
X0328992Y0125853D01*
X0328952Y0125943D01*
X0328917Y0126035D01*
X0328884Y0126127D01*
X0328856Y0126221D01*
X0328831Y0126316D01*
X0328810Y0126412D01*
X0328793Y0126509D01*
X0328779Y0126606D01*
X0328770Y0126704D01*
X0328764Y0126802D01*
X0328762Y0126900D01*
X0328764Y0126998D01*
X0328770Y0127096D01*
X0328779Y0127194D01*
X0328793Y0127291D01*
X0328810Y0127388D01*
X0328831Y0127484D01*
X0328856Y0127579D01*
X0328884Y0127673D01*
X0328917Y0127765D01*
X0328952Y0127857D01*
X0328992Y0127947D01*
X0329034Y0128035D01*
X0329081Y0128122D01*
X0329130Y0128206D01*
X0329183Y0128289D01*
X0329239Y0128369D01*
X0329299Y0128448D01*
X0329361Y0128524D01*
X0329426Y0128597D01*
X0329494Y0128668D01*
X0329565Y0128736D01*
X0329638Y0128801D01*
X0329714Y0128863D01*
X0329793Y0128923D01*
X0329873Y0128979D01*
X0329956Y0129032D01*
X0330040Y0129081D01*
X0330127Y0129128D01*
X0330215Y0129170D01*
X0330305Y0129210D01*
X0330397Y0129245D01*
X0330489Y0129278D01*
X0330583Y0129306D01*
X0330678Y0129331D01*
X0330774Y0129352D01*
X0330871Y0129369D01*
X0330968Y0129383D01*
X0331066Y0129392D01*
X0331164Y0129398D01*
X0331262Y0129400D01*
X0331462Y0129400D02*
X0331462Y0133356D01*
X0331461Y0133356D02*
X0331449Y0133426D01*
X0331432Y0133496D01*
X0331412Y0133564D01*
X0331389Y0133632D01*
X0331361Y0133698D01*
X0331330Y0133762D01*
X0331296Y0133824D01*
X0331258Y0133885D01*
X0331218Y0133944D01*
X0331174Y0134000D01*
X0331127Y0134053D01*
X0331077Y0134105D01*
X0331024Y0134153D01*
X0330969Y0134198D01*
X0330912Y0134241D01*
X0330852Y0134280D01*
X0330790Y0134316D01*
X0330727Y0134348D01*
X0330662Y0134377D01*
X0330595Y0134403D01*
X0330527Y0134425D01*
X0330458Y0134443D01*
X0330388Y0134457D01*
X0330317Y0134467D01*
X0330246Y0134474D01*
X0330175Y0134477D01*
X0330104Y0134476D01*
X0330032Y0134471D01*
X0329962Y0134462D01*
X0329962Y0134463D02*
X0291168Y0134463D01*
X0291168Y0134462D02*
X0291098Y0134450D01*
X0291028Y0134433D01*
X0290960Y0134413D01*
X0290893Y0134389D01*
X0290827Y0134362D01*
X0290762Y0134331D01*
X0290700Y0134297D01*
X0290639Y0134259D01*
X0290581Y0134218D01*
X0290524Y0134174D01*
X0290471Y0134127D01*
X0290420Y0134077D01*
X0290371Y0134025D01*
X0290326Y0133970D01*
X0290283Y0133912D01*
X0290244Y0133853D01*
X0290208Y0133791D01*
X0290176Y0133727D01*
X0290147Y0133662D01*
X0290121Y0133596D01*
X0290100Y0133528D01*
X0290081Y0133458D01*
X0290067Y0133389D01*
X0290057Y0133318D01*
X0290050Y0133247D01*
X0290047Y0133176D01*
X0290048Y0133104D01*
X0290053Y0133033D01*
X0290062Y0132962D01*
X0281481Y0107500D02*
X0278162Y0107500D01*
X0278162Y0107300D02*
X0278160Y0107202D01*
X0278154Y0107104D01*
X0278145Y0107006D01*
X0278131Y0106909D01*
X0278114Y0106812D01*
X0278093Y0106716D01*
X0278068Y0106621D01*
X0278040Y0106527D01*
X0278007Y0106435D01*
X0277972Y0106343D01*
X0277932Y0106253D01*
X0277890Y0106165D01*
X0277843Y0106078D01*
X0277794Y0105994D01*
X0277741Y0105911D01*
X0277685Y0105831D01*
X0277625Y0105752D01*
X0277563Y0105676D01*
X0277498Y0105603D01*
X0277430Y0105532D01*
X0277359Y0105464D01*
X0277286Y0105399D01*
X0277210Y0105337D01*
X0277131Y0105277D01*
X0277051Y0105221D01*
X0276968Y0105168D01*
X0276884Y0105119D01*
X0276797Y0105072D01*
X0276709Y0105030D01*
X0276619Y0104990D01*
X0276527Y0104955D01*
X0276435Y0104922D01*
X0276341Y0104894D01*
X0276246Y0104869D01*
X0276150Y0104848D01*
X0276053Y0104831D01*
X0275956Y0104817D01*
X0275858Y0104808D01*
X0275760Y0104802D01*
X0275662Y0104800D01*
X0275564Y0104802D01*
X0275466Y0104808D01*
X0275368Y0104817D01*
X0275271Y0104831D01*
X0275174Y0104848D01*
X0275078Y0104869D01*
X0274983Y0104894D01*
X0274889Y0104922D01*
X0274797Y0104955D01*
X0274705Y0104990D01*
X0274615Y0105030D01*
X0274527Y0105072D01*
X0274440Y0105119D01*
X0274356Y0105168D01*
X0274273Y0105221D01*
X0274193Y0105277D01*
X0274114Y0105337D01*
X0274038Y0105399D01*
X0273965Y0105464D01*
X0273894Y0105532D01*
X0273826Y0105603D01*
X0273761Y0105676D01*
X0273699Y0105752D01*
X0273639Y0105831D01*
X0273583Y0105911D01*
X0273530Y0105994D01*
X0273481Y0106078D01*
X0273434Y0106165D01*
X0273392Y0106253D01*
X0273352Y0106343D01*
X0273317Y0106435D01*
X0273284Y0106527D01*
X0273256Y0106621D01*
X0273231Y0106716D01*
X0273210Y0106812D01*
X0273193Y0106909D01*
X0273179Y0107006D01*
X0273170Y0107104D01*
X0273164Y0107202D01*
X0273162Y0107300D01*
X0273162Y0107500D02*
X0269206Y0107500D01*
X0269206Y0107499D02*
X0269136Y0107487D01*
X0269066Y0107470D01*
X0268998Y0107450D01*
X0268930Y0107427D01*
X0268864Y0107399D01*
X0268800Y0107368D01*
X0268738Y0107334D01*
X0268677Y0107296D01*
X0268618Y0107256D01*
X0268562Y0107212D01*
X0268509Y0107165D01*
X0268457Y0107115D01*
X0268409Y0107062D01*
X0268364Y0107007D01*
X0268321Y0106950D01*
X0268282Y0106890D01*
X0268246Y0106828D01*
X0268214Y0106765D01*
X0268185Y0106700D01*
X0268159Y0106633D01*
X0268137Y0106565D01*
X0268119Y0106496D01*
X0268105Y0106426D01*
X0268095Y0106355D01*
X0268088Y0106284D01*
X0268085Y0106213D01*
X0268086Y0106142D01*
X0268091Y0106070D01*
X0268100Y0106000D01*
X0268099Y0106000D02*
X0268099Y0067206D01*
X0268111Y0067136D01*
X0268128Y0067066D01*
X0268148Y0066998D01*
X0268172Y0066931D01*
X0268199Y0066865D01*
X0268230Y0066800D01*
X0268264Y0066738D01*
X0268302Y0066677D01*
X0268343Y0066619D01*
X0268387Y0066562D01*
X0268434Y0066509D01*
X0268484Y0066458D01*
X0268536Y0066409D01*
X0268591Y0066364D01*
X0268649Y0066321D01*
X0268708Y0066282D01*
X0268770Y0066246D01*
X0268834Y0066214D01*
X0268899Y0066185D01*
X0268965Y0066159D01*
X0269033Y0066138D01*
X0269103Y0066119D01*
X0269172Y0066105D01*
X0269243Y0066095D01*
X0269314Y0066088D01*
X0269385Y0066085D01*
X0269457Y0066086D01*
X0269528Y0066091D01*
X0269599Y0066100D01*
X0281924Y0066100D01*
X0281925Y0066100D02*
X0282001Y0066102D01*
X0282076Y0066108D01*
X0282152Y0066117D01*
X0282227Y0066131D01*
X0282301Y0066148D01*
X0282374Y0066169D01*
X0282446Y0066193D01*
X0282516Y0066221D01*
X0282585Y0066253D01*
X0282653Y0066288D01*
X0282718Y0066327D01*
X0282782Y0066369D01*
X0282843Y0066414D01*
X0282902Y0066462D01*
X0282958Y0066513D01*
X0283012Y0066567D01*
X0283063Y0066623D01*
X0283111Y0066682D01*
X0283156Y0066743D01*
X0283198Y0066807D01*
X0283237Y0066872D01*
X0283272Y0066940D01*
X0283304Y0067009D01*
X0283332Y0067079D01*
X0283356Y0067151D01*
X0283377Y0067224D01*
X0283394Y0067298D01*
X0283408Y0067373D01*
X0283417Y0067449D01*
X0283423Y0067524D01*
X0283425Y0067600D01*
X0283424Y0067600D02*
X0283424Y0106000D01*
X0283425Y0106000D02*
X0283413Y0106081D01*
X0283398Y0106161D01*
X0283379Y0106240D01*
X0283357Y0106318D01*
X0283330Y0106395D01*
X0283301Y0106471D01*
X0283267Y0106545D01*
X0283230Y0106617D01*
X0283190Y0106688D01*
X0283146Y0106756D01*
X0283099Y0106823D01*
X0283049Y0106887D01*
X0282996Y0106948D01*
X0282940Y0107007D01*
X0282881Y0107064D01*
X0282820Y0107117D01*
X0282756Y0107168D01*
X0282690Y0107215D01*
X0282622Y0107259D01*
X0282552Y0107300D01*
X0282480Y0107338D01*
X0282406Y0107372D01*
X0282330Y0107402D01*
X0282254Y0107429D01*
X0282176Y0107452D01*
X0282097Y0107472D01*
X0282017Y0107487D01*
X0281936Y0107499D01*
X0281856Y0107507D01*
X0281774Y0107511D01*
X0281693Y0107512D01*
X0281612Y0107508D01*
X0281531Y0107501D01*
X0299562Y0058206D02*
X0299562Y0052034D01*
X0300796Y0050800D01*
X0303265Y0050800D01*
X0304499Y0052034D01*
X0304499Y0058206D01*
X0307112Y0056972D02*
X0308347Y0058206D01*
X0310815Y0058206D01*
X0312050Y0056972D01*
X0312050Y0055738D01*
X0310815Y0054503D01*
X0312050Y0053269D01*
X0312050Y0052034D01*
X0310815Y0050800D01*
X0308347Y0050800D01*
X0307112Y0052034D01*
X0309581Y0054503D02*
X0310815Y0054503D01*
X0148754Y0175770D02*
X0146792Y0173808D01*
D66*
X0275860Y0101158D02*
X0275860Y0099690D01*
X0276961Y0099690D01*
X0276594Y0100424D01*
X0276594Y0100791D01*
X0276961Y0101158D01*
X0277695Y0101158D01*
X0278062Y0100791D01*
X0278062Y0100057D01*
X0277695Y0099690D01*
X0277695Y0098948D02*
X0275860Y0098948D01*
X0275860Y0097480D02*
X0277695Y0097480D01*
X0278062Y0097847D01*
X0278062Y0098581D01*
X0277695Y0098948D01*
X0321442Y0124867D02*
X0321809Y0124500D01*
X0322543Y0124500D01*
X0322910Y0124867D01*
X0322910Y0126702D01*
X0323652Y0125601D02*
X0325120Y0125601D01*
X0324753Y0126702D02*
X0323652Y0125601D01*
X0324753Y0124500D02*
X0324753Y0126702D01*
X0321442Y0126702D02*
X0321442Y0124867D01*
D67*
X0372022Y0106800D02*
X0450762Y0106800D01*
X0450762Y0220973D01*
X0372022Y0220973D01*
X0372022Y0106800D01*
D68*
X0402258Y0228020D02*
X0339266Y0228020D01*
X0339266Y0255580D01*
X0402258Y0255580D01*
X0402258Y0228020D01*
X0402258Y0263020D02*
X0339266Y0263020D01*
X0339266Y0290580D01*
X0402258Y0290580D01*
X0402258Y0263020D01*
D69*
X0245339Y0254251D02*
X0244339Y0254251D01*
X0244339Y0253501D01*
X0244839Y0253751D01*
X0245089Y0253751D01*
X0245339Y0253501D01*
X0245339Y0253000D01*
X0245089Y0252750D01*
X0244589Y0252750D01*
X0244339Y0253000D01*
X0243866Y0253000D02*
X0243866Y0254001D01*
X0243616Y0254251D01*
X0242865Y0254251D01*
X0242865Y0252750D01*
X0243616Y0252750D01*
X0243866Y0253000D01*
X0175339Y0253501D02*
X0174339Y0253501D01*
X0175089Y0254251D01*
X0175089Y0252750D01*
X0173866Y0253000D02*
X0173866Y0254001D01*
X0173616Y0254251D01*
X0172865Y0254251D01*
X0172865Y0252750D01*
X0173616Y0252750D01*
X0173866Y0253000D01*
M02*
