G75*
%MOIN*%
%OFA0B0*%
%FSLAX25Y25*%
%IPPOS*%
%LPD*%
%AMOC8*
5,1,8,0,0,1.08239X$1,22.5*
%
%ADD10OC8,0.06000*%
%ADD11C,0.01200*%
%ADD12OC8,0.03169*%
%ADD13OC8,0.03562*%
D10*
X0057400Y0016100D03*
X0057400Y0026100D03*
X0057400Y0038400D03*
X0057400Y0048400D03*
X0057400Y0058400D03*
X0057400Y0068400D03*
X0067400Y0068400D03*
X0067400Y0058400D03*
X0067400Y0048400D03*
X0067400Y0038400D03*
X0067400Y0026100D03*
X0067400Y0016100D03*
X0089600Y0038200D03*
X0089600Y0048200D03*
X0089600Y0058200D03*
X0089600Y0068200D03*
X0099600Y0068200D03*
X0099600Y0058200D03*
X0099600Y0048200D03*
X0099600Y0038200D03*
X0099400Y0117100D03*
X0099400Y0127100D03*
X0099400Y0137100D03*
X0099400Y0147100D03*
X0089400Y0147100D03*
X0089400Y0137100D03*
X0089400Y0127100D03*
X0089400Y0117100D03*
X0066700Y0118200D03*
X0066700Y0128200D03*
X0066700Y0138200D03*
X0066700Y0148200D03*
X0066700Y0158200D03*
X0056700Y0158200D03*
X0056700Y0148200D03*
X0056700Y0138200D03*
X0056700Y0128200D03*
X0056700Y0118200D03*
D11*
X0003600Y0168400D02*
X0003600Y0003600D01*
X0118400Y0003600D01*
X0118400Y0168400D01*
X0003600Y0168400D01*
X0003600Y0167593D02*
X0118400Y0167593D01*
X0118400Y0166395D02*
X0003600Y0166395D01*
X0003600Y0165196D02*
X0118400Y0165196D01*
X0118400Y0163998D02*
X0003600Y0163998D01*
X0003600Y0162799D02*
X0054794Y0162799D01*
X0054795Y0162800D02*
X0052100Y0160105D01*
X0052100Y0156295D01*
X0054795Y0153600D01*
X0058605Y0153600D01*
X0061300Y0156295D01*
X0061300Y0160105D01*
X0058605Y0162800D01*
X0054795Y0162800D01*
X0053595Y0161601D02*
X0003600Y0161601D01*
X0003600Y0160402D02*
X0052397Y0160402D01*
X0052100Y0159203D02*
X0003600Y0159203D01*
X0003600Y0158005D02*
X0052100Y0158005D01*
X0052100Y0156806D02*
X0003600Y0156806D01*
X0003600Y0155608D02*
X0052787Y0155608D01*
X0053985Y0154409D02*
X0003600Y0154409D01*
X0003600Y0153211D02*
X0118400Y0153211D01*
X0118400Y0154409D02*
X0069415Y0154409D01*
X0068605Y0153600D02*
X0071300Y0156295D01*
X0071300Y0160105D01*
X0068605Y0162800D01*
X0064795Y0162800D01*
X0062100Y0160105D01*
X0062100Y0156295D01*
X0064795Y0153600D01*
X0068605Y0153600D01*
X0068605Y0152800D02*
X0064795Y0152800D01*
X0062100Y0150105D01*
X0062100Y0146295D01*
X0064795Y0143600D01*
X0068605Y0143600D01*
X0071300Y0146295D01*
X0071300Y0150105D01*
X0068605Y0152800D01*
X0069393Y0152012D02*
X0118400Y0152012D01*
X0118400Y0150814D02*
X0102191Y0150814D01*
X0101305Y0151700D02*
X0097495Y0151700D01*
X0094800Y0149005D01*
X0094800Y0145195D01*
X0097495Y0142500D01*
X0101305Y0142500D01*
X0104000Y0145195D01*
X0104000Y0149005D01*
X0101305Y0151700D01*
X0103390Y0149615D02*
X0118400Y0149615D01*
X0118400Y0148417D02*
X0104000Y0148417D01*
X0104000Y0147218D02*
X0118400Y0147218D01*
X0118400Y0146020D02*
X0104000Y0146020D01*
X0103627Y0144821D02*
X0118400Y0144821D01*
X0118400Y0143623D02*
X0102428Y0143623D01*
X0101305Y0141700D02*
X0097495Y0141700D01*
X0094800Y0139005D01*
X0094800Y0135195D01*
X0097495Y0132500D01*
X0101305Y0132500D01*
X0104000Y0135195D01*
X0104000Y0139005D01*
X0101305Y0141700D01*
X0101780Y0141226D02*
X0118400Y0141226D01*
X0118400Y0142424D02*
X0068981Y0142424D01*
X0068605Y0142800D02*
X0064795Y0142800D01*
X0062100Y0140105D01*
X0062100Y0136295D01*
X0064795Y0133600D01*
X0068605Y0133600D01*
X0071300Y0136295D01*
X0071300Y0140105D01*
X0068605Y0142800D01*
X0068628Y0143623D02*
X0086372Y0143623D01*
X0087495Y0142500D02*
X0084800Y0145195D01*
X0084800Y0149005D01*
X0087495Y0151700D01*
X0091305Y0151700D01*
X0094000Y0149005D01*
X0094000Y0145195D01*
X0091305Y0142500D01*
X0087495Y0142500D01*
X0087495Y0141700D02*
X0084800Y0139005D01*
X0084800Y0135195D01*
X0087495Y0132500D01*
X0091305Y0132500D01*
X0094000Y0135195D01*
X0094000Y0139005D01*
X0091305Y0141700D01*
X0087495Y0141700D01*
X0087020Y0141226D02*
X0070180Y0141226D01*
X0071300Y0140027D02*
X0085822Y0140027D01*
X0084800Y0138829D02*
X0071300Y0138829D01*
X0071300Y0137630D02*
X0084800Y0137630D01*
X0084800Y0136432D02*
X0071300Y0136432D01*
X0070239Y0135233D02*
X0084800Y0135233D01*
X0085960Y0134035D02*
X0069040Y0134035D01*
X0068605Y0132800D02*
X0064795Y0132800D01*
X0062100Y0130105D01*
X0062100Y0126295D01*
X0064795Y0123600D01*
X0068605Y0123600D01*
X0071300Y0126295D01*
X0071300Y0130105D01*
X0068605Y0132800D01*
X0069768Y0131638D02*
X0087432Y0131638D01*
X0087495Y0131700D02*
X0084800Y0129005D01*
X0084800Y0125195D01*
X0087495Y0122500D01*
X0091305Y0122500D01*
X0094000Y0125195D01*
X0094000Y0129005D01*
X0091305Y0131700D01*
X0087495Y0131700D01*
X0087158Y0132836D02*
X0003600Y0132836D01*
X0003600Y0131638D02*
X0053632Y0131638D01*
X0054795Y0132800D02*
X0052100Y0130105D01*
X0052100Y0126295D01*
X0054795Y0123600D01*
X0058605Y0123600D01*
X0061300Y0126295D01*
X0061300Y0130105D01*
X0058605Y0132800D01*
X0054795Y0132800D01*
X0054795Y0133600D02*
X0058605Y0133600D01*
X0061300Y0136295D01*
X0061300Y0140105D01*
X0058605Y0142800D01*
X0054795Y0142800D01*
X0052100Y0140105D01*
X0052100Y0136295D01*
X0054795Y0133600D01*
X0054360Y0134035D02*
X0003600Y0134035D01*
X0003600Y0135233D02*
X0053161Y0135233D01*
X0052100Y0136432D02*
X0003600Y0136432D01*
X0003600Y0137630D02*
X0052100Y0137630D01*
X0052100Y0138829D02*
X0003600Y0138829D01*
X0003600Y0140027D02*
X0052100Y0140027D01*
X0053220Y0141226D02*
X0003600Y0141226D01*
X0003600Y0142424D02*
X0054419Y0142424D01*
X0054795Y0143600D02*
X0058605Y0143600D01*
X0061300Y0146295D01*
X0061300Y0150105D01*
X0058605Y0152800D01*
X0054795Y0152800D01*
X0052100Y0150105D01*
X0052100Y0146295D01*
X0054795Y0143600D01*
X0054772Y0143623D02*
X0003600Y0143623D01*
X0003600Y0144821D02*
X0053573Y0144821D01*
X0052375Y0146020D02*
X0003600Y0146020D01*
X0003600Y0147218D02*
X0052100Y0147218D01*
X0052100Y0148417D02*
X0003600Y0148417D01*
X0003600Y0149615D02*
X0052100Y0149615D01*
X0052809Y0150814D02*
X0003600Y0150814D01*
X0003600Y0152012D02*
X0054007Y0152012D01*
X0059393Y0152012D02*
X0064007Y0152012D01*
X0062809Y0150814D02*
X0060591Y0150814D01*
X0061300Y0149615D02*
X0062100Y0149615D01*
X0062100Y0148417D02*
X0061300Y0148417D01*
X0061300Y0147218D02*
X0062100Y0147218D01*
X0062375Y0146020D02*
X0061025Y0146020D01*
X0059827Y0144821D02*
X0063573Y0144821D01*
X0064772Y0143623D02*
X0058628Y0143623D01*
X0058981Y0142424D02*
X0064419Y0142424D01*
X0063220Y0141226D02*
X0060180Y0141226D01*
X0061300Y0140027D02*
X0062100Y0140027D01*
X0062100Y0138829D02*
X0061300Y0138829D01*
X0061300Y0137630D02*
X0062100Y0137630D01*
X0062100Y0136432D02*
X0061300Y0136432D01*
X0060239Y0135233D02*
X0063161Y0135233D01*
X0064360Y0134035D02*
X0059040Y0134035D01*
X0059768Y0131638D02*
X0063632Y0131638D01*
X0062434Y0130439D02*
X0060966Y0130439D01*
X0061300Y0129241D02*
X0062100Y0129241D01*
X0062100Y0128042D02*
X0061300Y0128042D01*
X0061300Y0126844D02*
X0062100Y0126844D01*
X0062749Y0125645D02*
X0060651Y0125645D01*
X0059452Y0124447D02*
X0063948Y0124447D01*
X0064795Y0122800D02*
X0062100Y0120105D01*
X0062100Y0116295D01*
X0064795Y0113600D01*
X0068605Y0113600D01*
X0071300Y0116295D01*
X0071300Y0120105D01*
X0068605Y0122800D01*
X0064795Y0122800D01*
X0064044Y0122050D02*
X0059356Y0122050D01*
X0058605Y0122800D02*
X0054795Y0122800D01*
X0052100Y0120105D01*
X0052100Y0116295D01*
X0054795Y0113600D01*
X0058605Y0113600D01*
X0061300Y0116295D01*
X0061300Y0120105D01*
X0058605Y0122800D01*
X0060554Y0120851D02*
X0062846Y0120851D01*
X0062100Y0119653D02*
X0061300Y0119653D01*
X0061300Y0118454D02*
X0062100Y0118454D01*
X0062100Y0117256D02*
X0061300Y0117256D01*
X0061062Y0116057D02*
X0062338Y0116057D01*
X0063536Y0114859D02*
X0059864Y0114859D01*
X0058665Y0113660D02*
X0064735Y0113660D01*
X0068665Y0113660D02*
X0086335Y0113660D01*
X0087495Y0112500D02*
X0091305Y0112500D01*
X0094000Y0115195D01*
X0094000Y0119005D01*
X0091305Y0121700D01*
X0087495Y0121700D01*
X0084800Y0119005D01*
X0084800Y0115195D01*
X0087495Y0112500D01*
X0085136Y0114859D02*
X0069864Y0114859D01*
X0071062Y0116057D02*
X0084800Y0116057D01*
X0084800Y0117256D02*
X0071300Y0117256D01*
X0071300Y0118454D02*
X0084800Y0118454D01*
X0085447Y0119653D02*
X0071300Y0119653D01*
X0070554Y0120851D02*
X0086646Y0120851D01*
X0086746Y0123248D02*
X0003600Y0123248D01*
X0003600Y0122050D02*
X0054044Y0122050D01*
X0052846Y0120851D02*
X0003600Y0120851D01*
X0003600Y0119653D02*
X0052100Y0119653D01*
X0052100Y0118454D02*
X0003600Y0118454D01*
X0003600Y0117256D02*
X0052100Y0117256D01*
X0052338Y0116057D02*
X0003600Y0116057D01*
X0003600Y0114859D02*
X0053536Y0114859D01*
X0054735Y0113660D02*
X0003600Y0113660D01*
X0003600Y0112462D02*
X0118400Y0112462D01*
X0118400Y0113660D02*
X0102465Y0113660D01*
X0101305Y0112500D02*
X0104000Y0115195D01*
X0104000Y0119005D01*
X0101305Y0121700D01*
X0097495Y0121700D01*
X0094800Y0119005D01*
X0094800Y0115195D01*
X0097495Y0112500D01*
X0101305Y0112500D01*
X0103664Y0114859D02*
X0118400Y0114859D01*
X0118400Y0116057D02*
X0104000Y0116057D01*
X0104000Y0117256D02*
X0118400Y0117256D01*
X0118400Y0118454D02*
X0104000Y0118454D01*
X0103353Y0119653D02*
X0118400Y0119653D01*
X0118400Y0120851D02*
X0102154Y0120851D01*
X0101305Y0122500D02*
X0104000Y0125195D01*
X0104000Y0129005D01*
X0101305Y0131700D01*
X0097495Y0131700D01*
X0094800Y0129005D01*
X0094800Y0125195D01*
X0097495Y0122500D01*
X0101305Y0122500D01*
X0102054Y0123248D02*
X0118400Y0123248D01*
X0118400Y0122050D02*
X0069356Y0122050D01*
X0069452Y0124447D02*
X0085548Y0124447D01*
X0084800Y0125645D02*
X0070651Y0125645D01*
X0071300Y0126844D02*
X0084800Y0126844D01*
X0084800Y0128042D02*
X0071300Y0128042D01*
X0071300Y0129241D02*
X0085035Y0129241D01*
X0086234Y0130439D02*
X0070966Y0130439D01*
X0069827Y0144821D02*
X0085173Y0144821D01*
X0084800Y0146020D02*
X0071025Y0146020D01*
X0071300Y0147218D02*
X0084800Y0147218D01*
X0084800Y0148417D02*
X0071300Y0148417D01*
X0071300Y0149615D02*
X0085410Y0149615D01*
X0086609Y0150814D02*
X0070591Y0150814D01*
X0070613Y0155608D02*
X0118400Y0155608D01*
X0118400Y0156806D02*
X0071300Y0156806D01*
X0071300Y0158005D02*
X0118400Y0158005D01*
X0118400Y0159203D02*
X0071300Y0159203D01*
X0071003Y0160402D02*
X0118400Y0160402D01*
X0118400Y0161601D02*
X0069805Y0161601D01*
X0068606Y0162799D02*
X0118400Y0162799D01*
X0118400Y0140027D02*
X0102978Y0140027D01*
X0104000Y0138829D02*
X0118400Y0138829D01*
X0118400Y0137630D02*
X0104000Y0137630D01*
X0104000Y0136432D02*
X0118400Y0136432D01*
X0118400Y0135233D02*
X0104000Y0135233D01*
X0102840Y0134035D02*
X0118400Y0134035D01*
X0118400Y0132836D02*
X0101642Y0132836D01*
X0101368Y0131638D02*
X0118400Y0131638D01*
X0118400Y0130439D02*
X0102566Y0130439D01*
X0103765Y0129241D02*
X0118400Y0129241D01*
X0118400Y0128042D02*
X0104000Y0128042D01*
X0104000Y0126844D02*
X0118400Y0126844D01*
X0118400Y0125645D02*
X0104000Y0125645D01*
X0103252Y0124447D02*
X0118400Y0124447D01*
X0118400Y0111263D02*
X0003600Y0111263D01*
X0003600Y0110065D02*
X0118400Y0110065D01*
X0118400Y0108866D02*
X0003600Y0108866D01*
X0003600Y0107668D02*
X0118400Y0107668D01*
X0118400Y0106469D02*
X0003600Y0106469D01*
X0003600Y0105270D02*
X0118400Y0105270D01*
X0118400Y0104072D02*
X0003600Y0104072D01*
X0003600Y0102873D02*
X0118400Y0102873D01*
X0118400Y0101675D02*
X0003600Y0101675D01*
X0003600Y0100476D02*
X0118400Y0100476D01*
X0118400Y0099278D02*
X0003600Y0099278D01*
X0003600Y0098079D02*
X0118400Y0098079D01*
X0118400Y0096881D02*
X0003600Y0096881D01*
X0003600Y0095682D02*
X0118400Y0095682D01*
X0118400Y0094484D02*
X0003600Y0094484D01*
X0003600Y0093285D02*
X0118400Y0093285D01*
X0118400Y0092087D02*
X0003600Y0092087D01*
X0003600Y0090888D02*
X0118400Y0090888D01*
X0118400Y0089690D02*
X0003600Y0089690D01*
X0003600Y0088491D02*
X0118400Y0088491D01*
X0118400Y0087293D02*
X0003600Y0087293D01*
X0003600Y0086094D02*
X0118400Y0086094D01*
X0118400Y0084896D02*
X0003600Y0084896D01*
X0003600Y0083697D02*
X0118400Y0083697D01*
X0118400Y0082499D02*
X0003600Y0082499D01*
X0003600Y0081300D02*
X0118400Y0081300D01*
X0118400Y0080102D02*
X0003600Y0080102D01*
X0003600Y0078903D02*
X0118400Y0078903D01*
X0118400Y0077705D02*
X0003600Y0077705D01*
X0003600Y0076506D02*
X0118400Y0076506D01*
X0118400Y0075308D02*
X0003600Y0075308D01*
X0003600Y0074109D02*
X0118400Y0074109D01*
X0118400Y0072911D02*
X0069395Y0072911D01*
X0069305Y0073000D02*
X0065495Y0073000D01*
X0062800Y0070305D01*
X0062800Y0066495D01*
X0065495Y0063800D01*
X0069305Y0063800D01*
X0072000Y0066495D01*
X0072000Y0070305D01*
X0069305Y0073000D01*
X0070593Y0071712D02*
X0086607Y0071712D01*
X0087695Y0072800D02*
X0085000Y0070105D01*
X0085000Y0066295D01*
X0087695Y0063600D01*
X0091505Y0063600D01*
X0094200Y0066295D01*
X0094200Y0070105D01*
X0091505Y0072800D01*
X0087695Y0072800D01*
X0085408Y0070514D02*
X0071792Y0070514D01*
X0072000Y0069315D02*
X0085000Y0069315D01*
X0085000Y0068117D02*
X0072000Y0068117D01*
X0072000Y0066918D02*
X0085000Y0066918D01*
X0085575Y0065720D02*
X0071225Y0065720D01*
X0070026Y0064521D02*
X0086774Y0064521D01*
X0087695Y0062800D02*
X0085000Y0060105D01*
X0085000Y0056295D01*
X0087695Y0053600D01*
X0091505Y0053600D01*
X0094200Y0056295D01*
X0094200Y0060105D01*
X0091505Y0062800D01*
X0087695Y0062800D01*
X0087019Y0062124D02*
X0070181Y0062124D01*
X0069305Y0063000D02*
X0065495Y0063000D01*
X0062800Y0060305D01*
X0062800Y0056495D01*
X0065495Y0053800D01*
X0069305Y0053800D01*
X0072000Y0056495D01*
X0072000Y0060305D01*
X0069305Y0063000D01*
X0071380Y0060926D02*
X0085820Y0060926D01*
X0085000Y0059727D02*
X0072000Y0059727D01*
X0072000Y0058529D02*
X0085000Y0058529D01*
X0085000Y0057330D02*
X0072000Y0057330D01*
X0071637Y0056132D02*
X0085163Y0056132D01*
X0086362Y0054933D02*
X0070438Y0054933D01*
X0069305Y0053000D02*
X0065495Y0053000D01*
X0062800Y0050305D01*
X0062800Y0046495D01*
X0065495Y0043800D01*
X0069305Y0043800D01*
X0072000Y0046495D01*
X0072000Y0050305D01*
X0069305Y0053000D01*
X0069769Y0052536D02*
X0087431Y0052536D01*
X0087695Y0052800D02*
X0085000Y0050105D01*
X0085000Y0046295D01*
X0087695Y0043600D01*
X0091505Y0043600D01*
X0094200Y0046295D01*
X0094200Y0050105D01*
X0091505Y0052800D01*
X0087695Y0052800D01*
X0087560Y0053734D02*
X0003600Y0053734D01*
X0003600Y0052536D02*
X0055031Y0052536D01*
X0055495Y0053000D02*
X0052800Y0050305D01*
X0052800Y0046495D01*
X0055495Y0043800D01*
X0059305Y0043800D01*
X0062000Y0046495D01*
X0062000Y0050305D01*
X0059305Y0053000D01*
X0055495Y0053000D01*
X0055495Y0053800D02*
X0059305Y0053800D01*
X0062000Y0056495D01*
X0062000Y0060305D01*
X0059305Y0063000D01*
X0055495Y0063000D01*
X0052800Y0060305D01*
X0052800Y0056495D01*
X0055495Y0053800D01*
X0054362Y0054933D02*
X0003600Y0054933D01*
X0003600Y0056132D02*
X0053163Y0056132D01*
X0052800Y0057330D02*
X0003600Y0057330D01*
X0003600Y0058529D02*
X0052800Y0058529D01*
X0052800Y0059727D02*
X0003600Y0059727D01*
X0003600Y0060926D02*
X0053420Y0060926D01*
X0054619Y0062124D02*
X0003600Y0062124D01*
X0003600Y0063323D02*
X0118400Y0063323D01*
X0118400Y0064521D02*
X0102426Y0064521D01*
X0101505Y0063600D02*
X0104200Y0066295D01*
X0104200Y0070105D01*
X0101505Y0072800D01*
X0097695Y0072800D01*
X0095000Y0070105D01*
X0095000Y0066295D01*
X0097695Y0063600D01*
X0101505Y0063600D01*
X0101505Y0062800D02*
X0097695Y0062800D01*
X0095000Y0060105D01*
X0095000Y0056295D01*
X0097695Y0053600D01*
X0101505Y0053600D01*
X0104200Y0056295D01*
X0104200Y0060105D01*
X0101505Y0062800D01*
X0102181Y0062124D02*
X0118400Y0062124D01*
X0118400Y0060926D02*
X0103380Y0060926D01*
X0104200Y0059727D02*
X0118400Y0059727D01*
X0118400Y0058529D02*
X0104200Y0058529D01*
X0104200Y0057330D02*
X0118400Y0057330D01*
X0118400Y0056132D02*
X0104037Y0056132D01*
X0102838Y0054933D02*
X0118400Y0054933D01*
X0118400Y0053734D02*
X0101640Y0053734D01*
X0101505Y0052800D02*
X0097695Y0052800D01*
X0095000Y0050105D01*
X0095000Y0046295D01*
X0097695Y0043600D01*
X0101505Y0043600D01*
X0104200Y0046295D01*
X0104200Y0050105D01*
X0101505Y0052800D01*
X0101769Y0052536D02*
X0118400Y0052536D01*
X0118400Y0051337D02*
X0102968Y0051337D01*
X0104166Y0050139D02*
X0118400Y0050139D01*
X0118400Y0048940D02*
X0104200Y0048940D01*
X0104200Y0047742D02*
X0118400Y0047742D01*
X0118400Y0046543D02*
X0104200Y0046543D01*
X0103250Y0045345D02*
X0118400Y0045345D01*
X0118400Y0044146D02*
X0102052Y0044146D01*
X0101505Y0042800D02*
X0097695Y0042800D01*
X0095000Y0040105D01*
X0095000Y0036295D01*
X0097695Y0033600D01*
X0101505Y0033600D01*
X0104200Y0036295D01*
X0104200Y0040105D01*
X0101505Y0042800D01*
X0102556Y0041749D02*
X0118400Y0041749D01*
X0118400Y0040551D02*
X0103754Y0040551D01*
X0104200Y0039352D02*
X0118400Y0039352D01*
X0118400Y0038154D02*
X0104200Y0038154D01*
X0104200Y0036955D02*
X0118400Y0036955D01*
X0118400Y0035757D02*
X0103662Y0035757D01*
X0102464Y0034558D02*
X0118400Y0034558D01*
X0118400Y0033360D02*
X0003600Y0033360D01*
X0003600Y0034558D02*
X0054736Y0034558D01*
X0055495Y0033800D02*
X0052800Y0036495D01*
X0052800Y0040305D01*
X0055495Y0043000D01*
X0059305Y0043000D01*
X0062000Y0040305D01*
X0062000Y0036495D01*
X0059305Y0033800D01*
X0055495Y0033800D01*
X0053538Y0035757D02*
X0003600Y0035757D01*
X0003600Y0036955D02*
X0052800Y0036955D01*
X0052800Y0038154D02*
X0003600Y0038154D01*
X0003600Y0039352D02*
X0052800Y0039352D01*
X0053045Y0040551D02*
X0003600Y0040551D01*
X0003600Y0041749D02*
X0054244Y0041749D01*
X0055443Y0042948D02*
X0003600Y0042948D01*
X0003600Y0044146D02*
X0055148Y0044146D01*
X0053950Y0045345D02*
X0003600Y0045345D01*
X0003600Y0046543D02*
X0052800Y0046543D01*
X0052800Y0047742D02*
X0003600Y0047742D01*
X0003600Y0048940D02*
X0052800Y0048940D01*
X0052800Y0050139D02*
X0003600Y0050139D01*
X0003600Y0051337D02*
X0053832Y0051337D01*
X0059769Y0052536D02*
X0065031Y0052536D01*
X0063832Y0051337D02*
X0060968Y0051337D01*
X0062000Y0050139D02*
X0062800Y0050139D01*
X0062800Y0048940D02*
X0062000Y0048940D01*
X0062000Y0047742D02*
X0062800Y0047742D01*
X0062800Y0046543D02*
X0062000Y0046543D01*
X0060850Y0045345D02*
X0063950Y0045345D01*
X0065148Y0044146D02*
X0059652Y0044146D01*
X0059357Y0042948D02*
X0065443Y0042948D01*
X0065495Y0043000D02*
X0062800Y0040305D01*
X0062800Y0036495D01*
X0065495Y0033800D01*
X0069305Y0033800D01*
X0072000Y0036495D01*
X0072000Y0040305D01*
X0069305Y0043000D01*
X0065495Y0043000D01*
X0064244Y0041749D02*
X0060556Y0041749D01*
X0061754Y0040551D02*
X0063045Y0040551D01*
X0062800Y0039352D02*
X0062000Y0039352D01*
X0062000Y0038154D02*
X0062800Y0038154D01*
X0062800Y0036955D02*
X0062000Y0036955D01*
X0061262Y0035757D02*
X0063538Y0035757D01*
X0064736Y0034558D02*
X0060064Y0034558D01*
X0059305Y0030700D02*
X0057800Y0030700D01*
X0057800Y0026500D01*
X0057000Y0026500D01*
X0057000Y0030700D01*
X0055495Y0030700D01*
X0052800Y0028005D01*
X0052800Y0026500D01*
X0057000Y0026500D01*
X0057000Y0025700D01*
X0052800Y0025700D01*
X0052800Y0024195D01*
X0055495Y0021500D01*
X0057000Y0021500D01*
X0057000Y0025700D01*
X0057800Y0025700D01*
X0057800Y0026500D01*
X0062000Y0026500D01*
X0062000Y0028005D01*
X0059305Y0030700D01*
X0060241Y0029764D02*
X0064559Y0029764D01*
X0065495Y0030700D02*
X0062800Y0028005D01*
X0062800Y0024195D01*
X0065495Y0021500D01*
X0069305Y0021500D01*
X0072000Y0024195D01*
X0072000Y0028005D01*
X0069305Y0030700D01*
X0065495Y0030700D01*
X0063360Y0028566D02*
X0061440Y0028566D01*
X0062000Y0027367D02*
X0062800Y0027367D01*
X0062800Y0026169D02*
X0057800Y0026169D01*
X0057800Y0025700D02*
X0062000Y0025700D01*
X0062000Y0024195D01*
X0059305Y0021500D01*
X0057800Y0021500D01*
X0057800Y0025700D01*
X0057800Y0024970D02*
X0057000Y0024970D01*
X0057000Y0023772D02*
X0057800Y0023772D01*
X0057800Y0022573D02*
X0057000Y0022573D01*
X0055495Y0020700D02*
X0052800Y0018005D01*
X0052800Y0014195D01*
X0055495Y0011500D01*
X0059305Y0011500D01*
X0062000Y0014195D01*
X0062000Y0018005D01*
X0059305Y0020700D01*
X0055495Y0020700D01*
X0054971Y0020176D02*
X0003600Y0020176D01*
X0003600Y0018978D02*
X0053772Y0018978D01*
X0052800Y0017779D02*
X0003600Y0017779D01*
X0003600Y0016581D02*
X0052800Y0016581D01*
X0052800Y0015382D02*
X0003600Y0015382D01*
X0003600Y0014184D02*
X0052811Y0014184D01*
X0054009Y0012985D02*
X0003600Y0012985D01*
X0003600Y0011787D02*
X0055208Y0011787D01*
X0059592Y0011787D02*
X0065208Y0011787D01*
X0065495Y0011500D02*
X0069305Y0011500D01*
X0072000Y0014195D01*
X0072000Y0018005D01*
X0069305Y0020700D01*
X0065495Y0020700D01*
X0062800Y0018005D01*
X0062800Y0014195D01*
X0065495Y0011500D01*
X0064009Y0012985D02*
X0060790Y0012985D01*
X0061989Y0014184D02*
X0062811Y0014184D01*
X0062800Y0015382D02*
X0062000Y0015382D01*
X0062000Y0016581D02*
X0062800Y0016581D01*
X0062800Y0017779D02*
X0062000Y0017779D01*
X0061028Y0018978D02*
X0063772Y0018978D01*
X0064971Y0020176D02*
X0059829Y0020176D01*
X0060379Y0022573D02*
X0064421Y0022573D01*
X0063223Y0023772D02*
X0061577Y0023772D01*
X0062000Y0024970D02*
X0062800Y0024970D01*
X0057800Y0027367D02*
X0057000Y0027367D01*
X0057000Y0026169D02*
X0003600Y0026169D01*
X0003600Y0027367D02*
X0052800Y0027367D01*
X0053360Y0028566D02*
X0003600Y0028566D01*
X0003600Y0029764D02*
X0054559Y0029764D01*
X0057000Y0029764D02*
X0057800Y0029764D01*
X0057800Y0028566D02*
X0057000Y0028566D01*
X0052800Y0024970D02*
X0003600Y0024970D01*
X0003600Y0023772D02*
X0053223Y0023772D01*
X0054421Y0022573D02*
X0003600Y0022573D01*
X0003600Y0021375D02*
X0118400Y0021375D01*
X0118400Y0022573D02*
X0070379Y0022573D01*
X0071577Y0023772D02*
X0118400Y0023772D01*
X0118400Y0024970D02*
X0072000Y0024970D01*
X0072000Y0026169D02*
X0118400Y0026169D01*
X0118400Y0027367D02*
X0072000Y0027367D01*
X0071440Y0028566D02*
X0118400Y0028566D01*
X0118400Y0029764D02*
X0070241Y0029764D01*
X0070064Y0034558D02*
X0086736Y0034558D01*
X0087695Y0033600D02*
X0091505Y0033600D01*
X0094200Y0036295D01*
X0094200Y0040105D01*
X0091505Y0042800D01*
X0087695Y0042800D01*
X0085000Y0040105D01*
X0085000Y0036295D01*
X0087695Y0033600D01*
X0085538Y0035757D02*
X0071262Y0035757D01*
X0072000Y0036955D02*
X0085000Y0036955D01*
X0085000Y0038154D02*
X0072000Y0038154D01*
X0072000Y0039352D02*
X0085000Y0039352D01*
X0085445Y0040551D02*
X0071754Y0040551D01*
X0070556Y0041749D02*
X0086644Y0041749D01*
X0087148Y0044146D02*
X0069652Y0044146D01*
X0069357Y0042948D02*
X0118400Y0042948D01*
X0118400Y0032161D02*
X0003600Y0032161D01*
X0003600Y0030963D02*
X0118400Y0030963D01*
X0118400Y0020176D02*
X0069829Y0020176D01*
X0071028Y0018978D02*
X0118400Y0018978D01*
X0118400Y0017779D02*
X0072000Y0017779D01*
X0072000Y0016581D02*
X0118400Y0016581D01*
X0118400Y0015382D02*
X0072000Y0015382D01*
X0071989Y0014184D02*
X0118400Y0014184D01*
X0118400Y0012985D02*
X0070790Y0012985D01*
X0069592Y0011787D02*
X0118400Y0011787D01*
X0118400Y0010588D02*
X0003600Y0010588D01*
X0003600Y0009390D02*
X0118400Y0009390D01*
X0118400Y0008191D02*
X0003600Y0008191D01*
X0003600Y0006993D02*
X0118400Y0006993D01*
X0118400Y0005794D02*
X0003600Y0005794D01*
X0003600Y0004596D02*
X0118400Y0004596D01*
X0096736Y0034558D02*
X0092464Y0034558D01*
X0093662Y0035757D02*
X0095538Y0035757D01*
X0095000Y0036955D02*
X0094200Y0036955D01*
X0094200Y0038154D02*
X0095000Y0038154D01*
X0095000Y0039352D02*
X0094200Y0039352D01*
X0093754Y0040551D02*
X0095445Y0040551D01*
X0096644Y0041749D02*
X0092556Y0041749D01*
X0092052Y0044146D02*
X0097148Y0044146D01*
X0095950Y0045345D02*
X0093250Y0045345D01*
X0094200Y0046543D02*
X0095000Y0046543D01*
X0095000Y0047742D02*
X0094200Y0047742D01*
X0094200Y0048940D02*
X0095000Y0048940D01*
X0095034Y0050139D02*
X0094166Y0050139D01*
X0092968Y0051337D02*
X0096232Y0051337D01*
X0097431Y0052536D02*
X0091769Y0052536D01*
X0091640Y0053734D02*
X0097560Y0053734D01*
X0096362Y0054933D02*
X0092838Y0054933D01*
X0094037Y0056132D02*
X0095163Y0056132D01*
X0095000Y0057330D02*
X0094200Y0057330D01*
X0094200Y0058529D02*
X0095000Y0058529D01*
X0095000Y0059727D02*
X0094200Y0059727D01*
X0093380Y0060926D02*
X0095820Y0060926D01*
X0097019Y0062124D02*
X0092181Y0062124D01*
X0092426Y0064521D02*
X0096774Y0064521D01*
X0095575Y0065720D02*
X0093625Y0065720D01*
X0094200Y0066918D02*
X0095000Y0066918D01*
X0095000Y0068117D02*
X0094200Y0068117D01*
X0094200Y0069315D02*
X0095000Y0069315D01*
X0095408Y0070514D02*
X0093792Y0070514D01*
X0092593Y0071712D02*
X0096607Y0071712D01*
X0102593Y0071712D02*
X0118400Y0071712D01*
X0118400Y0070514D02*
X0103792Y0070514D01*
X0104200Y0069315D02*
X0118400Y0069315D01*
X0118400Y0068117D02*
X0104200Y0068117D01*
X0104200Y0066918D02*
X0118400Y0066918D01*
X0118400Y0065720D02*
X0103625Y0065720D01*
X0086232Y0051337D02*
X0070968Y0051337D01*
X0072000Y0050139D02*
X0085034Y0050139D01*
X0085000Y0048940D02*
X0072000Y0048940D01*
X0072000Y0047742D02*
X0085000Y0047742D01*
X0085000Y0046543D02*
X0072000Y0046543D01*
X0070850Y0045345D02*
X0085950Y0045345D01*
X0064774Y0064521D02*
X0060026Y0064521D01*
X0059305Y0063800D02*
X0062000Y0066495D01*
X0062000Y0070305D01*
X0059305Y0073000D01*
X0055495Y0073000D01*
X0052800Y0070305D01*
X0052800Y0066495D01*
X0055495Y0063800D01*
X0059305Y0063800D01*
X0060181Y0062124D02*
X0064619Y0062124D01*
X0063420Y0060926D02*
X0061380Y0060926D01*
X0062000Y0059727D02*
X0062800Y0059727D01*
X0062800Y0058529D02*
X0062000Y0058529D01*
X0062000Y0057330D02*
X0062800Y0057330D01*
X0063163Y0056132D02*
X0061637Y0056132D01*
X0060438Y0054933D02*
X0064362Y0054933D01*
X0063575Y0065720D02*
X0061225Y0065720D01*
X0062000Y0066918D02*
X0062800Y0066918D01*
X0062800Y0068117D02*
X0062000Y0068117D01*
X0062000Y0069315D02*
X0062800Y0069315D01*
X0063008Y0070514D02*
X0061792Y0070514D01*
X0060593Y0071712D02*
X0064207Y0071712D01*
X0065405Y0072911D02*
X0059395Y0072911D01*
X0055405Y0072911D02*
X0003600Y0072911D01*
X0003600Y0071712D02*
X0054207Y0071712D01*
X0053008Y0070514D02*
X0003600Y0070514D01*
X0003600Y0069315D02*
X0052800Y0069315D01*
X0052800Y0068117D02*
X0003600Y0068117D01*
X0003600Y0066918D02*
X0052800Y0066918D01*
X0053575Y0065720D02*
X0003600Y0065720D01*
X0003600Y0064521D02*
X0054774Y0064521D01*
X0092465Y0113660D02*
X0096335Y0113660D01*
X0095136Y0114859D02*
X0093664Y0114859D01*
X0094000Y0116057D02*
X0094800Y0116057D01*
X0094800Y0117256D02*
X0094000Y0117256D01*
X0094000Y0118454D02*
X0094800Y0118454D01*
X0095447Y0119653D02*
X0093353Y0119653D01*
X0092154Y0120851D02*
X0096646Y0120851D01*
X0096746Y0123248D02*
X0092054Y0123248D01*
X0093252Y0124447D02*
X0095548Y0124447D01*
X0094800Y0125645D02*
X0094000Y0125645D01*
X0094000Y0126844D02*
X0094800Y0126844D01*
X0094800Y0128042D02*
X0094000Y0128042D01*
X0093765Y0129241D02*
X0095035Y0129241D01*
X0096234Y0130439D02*
X0092566Y0130439D01*
X0091368Y0131638D02*
X0097432Y0131638D01*
X0097158Y0132836D02*
X0091642Y0132836D01*
X0092840Y0134035D02*
X0095960Y0134035D01*
X0094800Y0135233D02*
X0094000Y0135233D01*
X0094000Y0136432D02*
X0094800Y0136432D01*
X0094800Y0137630D02*
X0094000Y0137630D01*
X0094000Y0138829D02*
X0094800Y0138829D01*
X0095822Y0140027D02*
X0092978Y0140027D01*
X0091780Y0141226D02*
X0097020Y0141226D01*
X0096372Y0143623D02*
X0092428Y0143623D01*
X0093627Y0144821D02*
X0095173Y0144821D01*
X0094800Y0146020D02*
X0094000Y0146020D01*
X0094000Y0147218D02*
X0094800Y0147218D01*
X0094800Y0148417D02*
X0094000Y0148417D01*
X0093390Y0149615D02*
X0095410Y0149615D01*
X0096609Y0150814D02*
X0092191Y0150814D01*
X0064794Y0162799D02*
X0058606Y0162799D01*
X0059805Y0161601D02*
X0063595Y0161601D01*
X0062397Y0160402D02*
X0061003Y0160402D01*
X0061300Y0159203D02*
X0062100Y0159203D01*
X0062100Y0158005D02*
X0061300Y0158005D01*
X0061300Y0156806D02*
X0062100Y0156806D01*
X0062787Y0155608D02*
X0060613Y0155608D01*
X0059415Y0154409D02*
X0063985Y0154409D01*
X0052434Y0130439D02*
X0003600Y0130439D01*
X0003600Y0129241D02*
X0052100Y0129241D01*
X0052100Y0128042D02*
X0003600Y0128042D01*
X0003600Y0126844D02*
X0052100Y0126844D01*
X0052749Y0125645D02*
X0003600Y0125645D01*
X0003600Y0124447D02*
X0053948Y0124447D01*
D12*
X0023000Y0054000D03*
X0038000Y0042000D03*
X0043000Y0037000D03*
D13*
X0008500Y0008500D03*
X0113500Y0008500D03*
X0113500Y0163500D03*
X0008500Y0163500D03*
M02*
