G75*
%MOIN*%
%OFA0B0*%
%FSLAX26Y26*%
%IPPOS*%
%LPD*%
%AMOC8*
5,1,8,0,0,1.08239X$1,22.5*
%
%ADD10C,0.005118*%
%ADD11C,0.007000*%
%ADD12OC8,0.060000*%
%ADD13R,0.047244X0.047244*%
%ADD14R,0.059055X0.051181*%
%ADD15R,0.078000X0.022000*%
%ADD16R,0.058000X0.020000*%
%ADD17R,0.020000X0.058000*%
%ADD18R,0.023622X0.047244*%
%ADD19R,0.047244X0.023622*%
%ADD20R,0.011811X0.049213*%
%ADD21R,0.078740X0.118110*%
%ADD22C,0.106299*%
%ADD23R,0.039370X0.011811*%
%ADD24R,0.011811X0.039370*%
%ADD25R,0.051181X0.059055*%
%ADD26R,0.070866X0.062992*%
%ADD27R,0.062992X0.086614*%
%ADD28C,0.094488*%
%ADD29R,0.022000X0.052000*%
%ADD30R,0.047244X0.021654*%
%ADD31R,0.047244X0.051181*%
%ADD32R,0.070866X0.157480*%
%ADD33R,0.055118X0.055118*%
%ADD34R,0.051181X0.047244*%
%ADD35R,0.100000X0.100000*%
%ADD36C,0.016000*%
%ADD37C,0.012000*%
%ADD38C,0.025780*%
%ADD39C,0.024000*%
%ADD40C,0.006000*%
%ADD41C,0.010000*%
%ADD42C,0.008000*%
%ADD43C,0.032000*%
D10*
X-00176772Y00000000D02*
X00000000Y00000000D01*
X-00100000Y00002559D02*
X-00089764Y00102362D01*
X-00087431Y00102362D02*
X-00100000Y00002559D01*
X-00110236Y00102362D01*
X-00112569Y00102362D02*
X-00087431Y00102362D01*
X-00094882Y00102362D02*
X-00100000Y00002559D01*
X-00105118Y00102362D01*
X-00112569Y00102362D02*
X-00100000Y00002559D01*
X-00100000Y03297441D01*
X-00089764Y03197638D01*
X-00087431Y03197638D02*
X-00100000Y03297441D01*
X-00110236Y03197638D01*
X-00112569Y03197638D02*
X-00087431Y03197638D01*
X-00094882Y03197638D02*
X-00100000Y03297441D01*
X-00105118Y03197638D01*
X-00112569Y03197638D02*
X-00100000Y03297441D01*
X-00176772Y03300000D02*
X00000000Y03300000D01*
X00000000Y03476772D01*
X00002559Y03400000D02*
X00102362Y03389764D01*
X00102362Y03387431D02*
X00002559Y03400000D01*
X00102362Y03410236D01*
X00102362Y03412569D02*
X00102362Y03387431D01*
X00102362Y03394882D02*
X00002559Y03400000D01*
X00102362Y03405118D01*
X00102362Y03412569D02*
X00002559Y03400000D01*
X04247441Y03400000D01*
X04147638Y03389764D01*
X04147638Y03387431D02*
X04247441Y03400000D01*
X04147638Y03410236D01*
X04147638Y03412569D02*
X04147638Y03387431D01*
X04147638Y03394882D02*
X04247441Y03400000D01*
X04147638Y03405118D01*
X04147638Y03412569D02*
X04247441Y03400000D01*
X04250000Y03476772D02*
X04250000Y03300000D01*
X04476772Y03300000D01*
X04400000Y03297441D02*
X04410236Y03197638D01*
X04412569Y03197638D02*
X04400000Y03297441D01*
X04389764Y03197638D01*
X04387431Y03197638D02*
X04412569Y03197638D01*
X04405118Y03197638D02*
X04400000Y03297441D01*
X04394882Y03197638D01*
X04387431Y03197638D02*
X04400000Y03297441D01*
X04400000Y02202559D01*
X04410236Y02302362D01*
X04412569Y02302362D02*
X04400000Y02202559D01*
X04389764Y02302362D01*
X04387431Y02302362D02*
X04412569Y02302362D01*
X04405118Y02302362D02*
X04400000Y02202559D01*
X04394882Y02302362D01*
X04387431Y02302362D02*
X04400000Y02202559D01*
X04476772Y02200000D02*
X04250000Y02200000D01*
X04250000Y01050000D02*
X04476772Y01050000D01*
X04400000Y01047441D02*
X04410236Y00947638D01*
X04412569Y00947638D02*
X04400000Y01047441D01*
X04389764Y00947638D01*
X04387431Y00947638D02*
X04412569Y00947638D01*
X04405118Y00947638D02*
X04400000Y01047441D01*
X04394882Y00947638D01*
X04387431Y00947638D02*
X04400000Y01047441D01*
X04400000Y00002559D01*
X04410236Y00102362D01*
X04412569Y00102362D02*
X04400000Y00002559D01*
X04389764Y00102362D01*
X04387431Y00102362D02*
X04412569Y00102362D01*
X04405118Y00102362D02*
X04400000Y00002559D01*
X04394882Y00102362D01*
X04387431Y00102362D02*
X04400000Y00002559D01*
X04476772Y00000000D02*
X04250000Y00000000D01*
D11*
X04313501Y00403573D02*
X04285811Y00431263D01*
X04368882Y00431263D01*
X04368882Y00403573D02*
X04368882Y00458954D01*
X04368882Y00486444D02*
X04368882Y00500289D01*
X04355037Y00500289D01*
X04355037Y00486444D01*
X04368882Y00486444D01*
X04355037Y00527879D02*
X04299656Y00527879D01*
X04285811Y00541724D01*
X04285811Y00569415D01*
X04299656Y00583260D01*
X04355037Y00527879D01*
X04368882Y00541724D01*
X04368882Y00569415D01*
X04355037Y00583260D01*
X04299656Y00583260D01*
X04285811Y00610750D02*
X04327346Y00610750D01*
X04313501Y00638440D01*
X04313501Y00652285D01*
X04327346Y00666131D01*
X04355037Y00666131D01*
X04368882Y00652285D01*
X04368882Y00624595D01*
X04355037Y00610750D01*
X04285811Y00610750D02*
X04285811Y00666131D01*
X04313501Y02628573D02*
X04285811Y02656263D01*
X04368882Y02656263D01*
X04368882Y02628573D02*
X04368882Y02683954D01*
X04368882Y02711444D02*
X04368882Y02725289D01*
X04355037Y02725289D01*
X04355037Y02711444D01*
X04368882Y02711444D01*
X04368882Y02752879D02*
X04368882Y02808260D01*
X04368882Y02780570D02*
X04285811Y02780570D01*
X04313501Y02752879D01*
X04299656Y02835750D02*
X04285811Y02849595D01*
X04285811Y02877285D01*
X04299656Y02891131D01*
X04355037Y02835750D01*
X04368882Y02849595D01*
X04368882Y02877285D01*
X04355037Y02891131D01*
X04299656Y02891131D01*
X04299656Y02835750D02*
X04355037Y02835750D01*
X02266131Y03444963D02*
X02252285Y03431118D01*
X02224595Y03431118D01*
X02210750Y03444963D01*
X02210750Y03472654D02*
X02238440Y03486499D01*
X02252285Y03486499D01*
X02266131Y03472654D01*
X02266131Y03444963D01*
X02210750Y03472654D02*
X02210750Y03514189D01*
X02266131Y03514189D01*
X02183260Y03500344D02*
X02169415Y03514189D01*
X02141724Y03514189D01*
X02127879Y03500344D01*
X02183260Y03500344D02*
X02183260Y03486499D01*
X02127879Y03431118D01*
X02183260Y03431118D01*
X02100289Y03431118D02*
X02086444Y03431118D01*
X02086444Y03444963D01*
X02100289Y03444963D01*
X02100289Y03431118D01*
X02045108Y03431118D02*
X02045108Y03514189D01*
X02003573Y03472654D01*
X02058954Y03472654D01*
X-00131118Y01777285D02*
X-00131118Y01749595D01*
X-00144963Y01735750D01*
X-00200344Y01791131D01*
X-00144963Y01791131D01*
X-00131118Y01777285D01*
X-00144963Y01735750D02*
X-00200344Y01735750D01*
X-00214189Y01749595D01*
X-00214189Y01777285D01*
X-00200344Y01791131D01*
X-00200344Y01708260D02*
X-00186499Y01708260D01*
X-00172654Y01694415D01*
X-00158808Y01708260D01*
X-00144963Y01708260D01*
X-00131118Y01694415D01*
X-00131118Y01666724D01*
X-00144963Y01652879D01*
X-00144963Y01625289D02*
X-00131118Y01625289D01*
X-00131118Y01611444D01*
X-00144963Y01611444D01*
X-00144963Y01625289D01*
X-00144963Y01583954D02*
X-00131118Y01570108D01*
X-00131118Y01542418D01*
X-00144963Y01528573D01*
X-00172654Y01556263D02*
X-00172654Y01570108D01*
X-00158808Y01583954D01*
X-00144963Y01583954D01*
X-00172654Y01570108D02*
X-00186499Y01583954D01*
X-00200344Y01583954D01*
X-00214189Y01570108D01*
X-00214189Y01542418D01*
X-00200344Y01528573D01*
X-00200344Y01652879D02*
X-00214189Y01666724D01*
X-00214189Y01694415D01*
X-00200344Y01708260D01*
X-00172654Y01694415D02*
X-00172654Y01680570D01*
D12*
X00450000Y02300000D03*
X00450000Y02400000D03*
X00550000Y02400000D03*
X00650000Y02400000D03*
X00750000Y02400000D03*
X00850000Y02400000D03*
X00850000Y02300000D03*
X00750000Y02300000D03*
X00650000Y02300000D03*
X00550000Y02300000D03*
X00550000Y02800000D03*
X00650000Y02800000D03*
X00750000Y02800000D03*
X00850000Y02800000D03*
X00850000Y02900000D03*
X00750000Y02900000D03*
X00650000Y02900000D03*
X00550000Y02900000D03*
X00450000Y02900000D03*
X00450000Y02800000D03*
X03300000Y00950000D03*
X03300000Y00850000D03*
X03300000Y00750000D03*
X03400000Y00750000D03*
X03400000Y00850000D03*
X03400000Y00950000D03*
D13*
X01500000Y01958661D03*
X01500000Y02041339D03*
X01300000Y02041339D03*
X01300000Y01958661D03*
X01150000Y01958661D03*
X01150000Y02041339D03*
D14*
X01150000Y02162598D03*
X01150000Y02237402D03*
X01400000Y02037402D03*
X01400000Y01962598D03*
X01600000Y01962598D03*
X01600000Y02037402D03*
X00650000Y02112598D03*
X00650000Y02187402D03*
X00550000Y02187402D03*
X00550000Y02112598D03*
X00650000Y02512598D03*
X00650000Y02587402D03*
X00300000Y02812598D03*
X00300000Y02887402D03*
D15*
X02715000Y02100000D03*
X02715000Y02050000D03*
X02715000Y02000000D03*
X02715000Y01950000D03*
X02715000Y01900000D03*
X02715000Y01850000D03*
X02715000Y01800000D03*
X02715000Y01750000D03*
X02715000Y01700000D03*
X03085000Y01700000D03*
X03085000Y01750000D03*
X03085000Y01800000D03*
X03085000Y01850000D03*
X03085000Y01900000D03*
X03085000Y01950000D03*
X03085000Y02000000D03*
X03085000Y02050000D03*
X03085000Y02100000D03*
D16*
X03112000Y00910000D03*
X03112000Y00879000D03*
X03112000Y00847000D03*
X03112000Y00816000D03*
X03112000Y00784000D03*
X03112000Y00753000D03*
X03112000Y00721000D03*
X03112000Y00690000D03*
X02788000Y00690000D03*
X02788000Y00721000D03*
X02788000Y00753000D03*
X02788000Y00784000D03*
X02788000Y00816000D03*
X02788000Y00847000D03*
X02788000Y00879000D03*
X02788000Y00910000D03*
D17*
X02840000Y00962000D03*
X02871000Y00962000D03*
X02903000Y00962000D03*
X02934000Y00962000D03*
X02966000Y00962000D03*
X02997000Y00962000D03*
X03029000Y00962000D03*
X03060000Y00962000D03*
X03060000Y00638000D03*
X03029000Y00638000D03*
X02997000Y00638000D03*
X02966000Y00638000D03*
X02934000Y00638000D03*
X02903000Y00638000D03*
X02871000Y00638000D03*
X02840000Y00638000D03*
D18*
X02825000Y01139764D03*
X02775000Y01139764D03*
X02725000Y01139764D03*
X02675000Y01139764D03*
X02875000Y01139764D03*
X02925000Y01139764D03*
X02975000Y01139764D03*
X03025000Y01139764D03*
X03025000Y01360236D03*
X02975000Y01360236D03*
X02925000Y01360236D03*
X02875000Y01360236D03*
X02825000Y01360236D03*
X02775000Y01360236D03*
X02725000Y01360236D03*
X02675000Y01360236D03*
D19*
X02610236Y01025000D03*
X02610236Y00975000D03*
X02610236Y00925000D03*
X02610236Y00875000D03*
X02610236Y00825000D03*
X02610236Y00775000D03*
X02610236Y00725000D03*
X02610236Y00675000D03*
X02389764Y00675000D03*
X02389764Y00725000D03*
X02389764Y00775000D03*
X02389764Y00825000D03*
X02389764Y00875000D03*
X02389764Y00925000D03*
X02389764Y00975000D03*
X02389764Y01025000D03*
D20*
X01433858Y00400000D03*
X01414173Y00400000D03*
X01394488Y00400000D03*
X01374803Y00400000D03*
X01355118Y00400000D03*
X01335433Y00400000D03*
X01315748Y00400000D03*
X01296063Y00400000D03*
X01276378Y00400000D03*
X01256693Y00400000D03*
X01237008Y00400000D03*
X01217323Y00400000D03*
X01197638Y00400000D03*
X01177953Y00400000D03*
X01158268Y00400000D03*
X01138583Y00400000D03*
X01118898Y00400000D03*
X01099213Y00400000D03*
X01079528Y00400000D03*
X01059843Y00400000D03*
X01040157Y00400000D03*
X01020472Y00400000D03*
X01000787Y00400000D03*
X00981102Y00400000D03*
X00961417Y00400000D03*
X00941732Y00400000D03*
X00922047Y00400000D03*
X00902362Y00400000D03*
X00882677Y00400000D03*
X00862992Y00400000D03*
X00843307Y00400000D03*
X00823622Y00400000D03*
X00803937Y00400000D03*
X00784252Y00400000D03*
X00764567Y00400000D03*
X00744882Y00400000D03*
X00725197Y00400000D03*
X00705512Y00400000D03*
X00685827Y00400000D03*
X00666142Y00400000D03*
D21*
X00612992Y00490551D03*
X01487008Y00492520D03*
D22*
X03718504Y01463386D03*
X03718504Y01620866D03*
X03875984Y01542126D03*
X04033465Y01463386D03*
X04033465Y01620866D03*
X03875984Y01699606D03*
X04033465Y01778346D03*
X03718504Y01778346D03*
D23*
X02023228Y01694488D03*
X02023228Y01674803D03*
X02023228Y01655118D03*
X02023228Y01635433D03*
X02023228Y01615748D03*
X02023228Y01596063D03*
X02023228Y01576378D03*
X02023228Y01556693D03*
X02023228Y01537008D03*
X02023228Y01517323D03*
X02023228Y01497638D03*
X02023228Y01477953D03*
X02023228Y01458268D03*
X02023228Y01438583D03*
X02023228Y01418898D03*
X02023228Y01399213D03*
X02023228Y01379528D03*
X02023228Y01359843D03*
X02023228Y01340157D03*
X02023228Y01320472D03*
X02023228Y01300787D03*
X02023228Y01281102D03*
X02023228Y01261417D03*
X02023228Y01241732D03*
X02023228Y01222047D03*
X02023228Y01202362D03*
X02023228Y01182677D03*
X02023228Y01162992D03*
X02023228Y01143307D03*
X02023228Y01123622D03*
X02023228Y01103937D03*
X02023228Y01084252D03*
X02023228Y01064567D03*
X02023228Y01044882D03*
X02023228Y01025197D03*
X02023228Y01005512D03*
X01176772Y01005512D03*
X01176772Y01025197D03*
X01176772Y01044882D03*
X01176772Y01064567D03*
X01176772Y01084252D03*
X01176772Y01103937D03*
X01176772Y01123622D03*
X01176772Y01143307D03*
X01176772Y01162992D03*
X01176772Y01182677D03*
X01176772Y01202362D03*
X01176772Y01222047D03*
X01176772Y01241732D03*
X01176772Y01261417D03*
X01176772Y01281102D03*
X01176772Y01300787D03*
X01176772Y01320472D03*
X01176772Y01340157D03*
X01176772Y01359843D03*
X01176772Y01379528D03*
X01176772Y01399213D03*
X01176772Y01418898D03*
X01176772Y01438583D03*
X01176772Y01458268D03*
X01176772Y01477953D03*
X01176772Y01497638D03*
X01176772Y01517323D03*
X01176772Y01537008D03*
X01176772Y01556693D03*
X01176772Y01576378D03*
X01176772Y01596063D03*
X01176772Y01615748D03*
X01176772Y01635433D03*
X01176772Y01655118D03*
X01176772Y01674803D03*
X01176772Y01694488D03*
D24*
X01255512Y01773228D03*
X01275197Y01773228D03*
X01294882Y01773228D03*
X01314567Y01773228D03*
X01334252Y01773228D03*
X01353937Y01773228D03*
X01373622Y01773228D03*
X01393307Y01773228D03*
X01412992Y01773228D03*
X01432677Y01773228D03*
X01452362Y01773228D03*
X01472047Y01773228D03*
X01491732Y01773228D03*
X01511417Y01773228D03*
X01531102Y01773228D03*
X01550787Y01773228D03*
X01570472Y01773228D03*
X01590157Y01773228D03*
X01609843Y01773228D03*
X01629528Y01773228D03*
X01649213Y01773228D03*
X01668898Y01773228D03*
X01688583Y01773228D03*
X01708268Y01773228D03*
X01727953Y01773228D03*
X01747638Y01773228D03*
X01767323Y01773228D03*
X01787008Y01773228D03*
X01806693Y01773228D03*
X01826378Y01773228D03*
X01846063Y01773228D03*
X01865748Y01773228D03*
X01885433Y01773228D03*
X01905118Y01773228D03*
X01924803Y01773228D03*
X01944488Y01773228D03*
X01944488Y00926772D03*
X01924803Y00926772D03*
X01905118Y00926772D03*
X01885433Y00926772D03*
X01865748Y00926772D03*
X01846063Y00926772D03*
X01826378Y00926772D03*
X01806693Y00926772D03*
X01787008Y00926772D03*
X01767323Y00926772D03*
X01747638Y00926772D03*
X01727953Y00926772D03*
X01708268Y00926772D03*
X01688583Y00926772D03*
X01668898Y00926772D03*
X01649213Y00926772D03*
X01629528Y00926772D03*
X01609843Y00926772D03*
X01590157Y00926772D03*
X01570472Y00926772D03*
X01550787Y00926772D03*
X01531102Y00926772D03*
X01511417Y00926772D03*
X01491732Y00926772D03*
X01472047Y00926772D03*
X01452362Y00926772D03*
X01432677Y00926772D03*
X01412992Y00926772D03*
X01393307Y00926772D03*
X01373622Y00926772D03*
X01353937Y00926772D03*
X01334252Y00926772D03*
X01314567Y00926772D03*
X01294882Y00926772D03*
X01275197Y00926772D03*
X01255512Y00926772D03*
D25*
X02137598Y01225000D03*
X02212402Y01225000D03*
X01037402Y02700000D03*
X00962598Y02700000D03*
X00962598Y02800000D03*
X01037402Y02800000D03*
D26*
X02650000Y02744882D03*
X02650000Y02855118D03*
D27*
X02781890Y02750000D03*
X03018110Y02750000D03*
D28*
X03207480Y02683071D02*
X03301969Y02683071D01*
X03301969Y02816929D02*
X03207480Y02816929D01*
X03598031Y02816929D02*
X03692520Y02816929D01*
X03692520Y02683071D02*
X03598031Y02683071D01*
D29*
X02487000Y02700000D03*
X02450000Y02700000D03*
X02413000Y02700000D03*
X02413000Y02800000D03*
X02487000Y02800000D03*
X02237000Y02800000D03*
X02163000Y02800000D03*
X02163000Y02700000D03*
X02200000Y02700000D03*
X02237000Y02700000D03*
D30*
X01401185Y02587402D03*
X01401185Y02512598D03*
X01298815Y02512598D03*
X01298815Y02550000D03*
X01298815Y02587402D03*
D31*
X01710000Y02550000D03*
X01790000Y02550000D03*
X01910000Y02550000D03*
X01990000Y02550000D03*
X01990000Y02650000D03*
X01910000Y02650000D03*
X01790000Y02650000D03*
X01710000Y02650000D03*
X01710000Y02750000D03*
X01790000Y02750000D03*
X01910000Y02750000D03*
X01990000Y02750000D03*
D32*
X01470866Y02800000D03*
X01329134Y02800000D03*
D33*
X01600000Y02772835D03*
X01600000Y02627165D03*
D34*
X01500000Y02590000D03*
X01500000Y02510000D03*
D35*
X01757500Y02900000D03*
X01942500Y02900000D03*
D36*
X02010500Y02895733D02*
X02599047Y02895733D01*
X02600163Y02897666D02*
X02597794Y02893562D01*
X02596567Y02888984D01*
X02596567Y02862866D01*
X02642251Y02862866D01*
X02642251Y02847370D01*
X02596567Y02847370D01*
X02596567Y02821252D01*
X02597794Y02816674D01*
X02600163Y02812570D01*
X02603515Y02809218D01*
X02607619Y02806849D01*
X02612197Y02805622D01*
X02642252Y02805622D01*
X02642252Y02847369D01*
X02657748Y02847369D01*
X02657748Y02805622D01*
X02687803Y02805622D01*
X02692381Y02806849D01*
X02696485Y02809218D01*
X02699837Y02812570D01*
X02702206Y02816674D01*
X02703433Y02821252D01*
X02703433Y02847370D01*
X02657749Y02847370D01*
X02657749Y02862866D01*
X02703433Y02862866D01*
X02703433Y02888984D01*
X02702206Y02893562D01*
X02699837Y02897666D01*
X02696485Y02901018D01*
X02692381Y02903387D01*
X02687803Y02904614D01*
X02657748Y02904614D01*
X02657748Y02862867D01*
X02642252Y02862867D01*
X02642252Y02904614D01*
X02612197Y02904614D01*
X02607619Y02903387D01*
X02603515Y02901018D01*
X02600163Y02897666D01*
X02596567Y02879734D02*
X02010500Y02879734D01*
X02010500Y02863736D02*
X02596567Y02863736D01*
X02596567Y02831739D02*
X02516000Y02831739D01*
X02516000Y02833456D02*
X02505456Y02844000D01*
X02468544Y02844000D01*
X02458000Y02833456D01*
X02458000Y02774882D01*
X02442000Y02774882D01*
X02442000Y02833456D01*
X02431456Y02844000D01*
X02394544Y02844000D01*
X02384000Y02833456D01*
X02384000Y02774882D01*
X02266000Y02774882D01*
X02266000Y02833456D01*
X02255456Y02844000D01*
X02218544Y02844000D01*
X02208000Y02833456D01*
X02208000Y02774089D01*
X02198888Y02770315D01*
X02184650Y02756077D01*
X02182502Y02755187D01*
X02173813Y02746498D01*
X02172778Y02744000D01*
X02163000Y02744000D01*
X02163000Y02700001D01*
X02162999Y02700001D01*
X02162999Y02744000D01*
X02149630Y02744000D01*
X02145052Y02742773D01*
X02140948Y02740404D01*
X02137596Y02737052D01*
X02135227Y02732948D01*
X02134000Y02728370D01*
X02134000Y02700000D01*
X02162999Y02700000D01*
X02162999Y02699999D01*
X02163000Y02699999D01*
X02163000Y02656000D01*
X02176370Y02656000D01*
X02180451Y02657094D01*
X02181544Y02656000D01*
X02207000Y02656000D01*
X02207000Y02651292D01*
X02206110Y02649144D01*
X02206110Y02636856D01*
X02210813Y02625502D01*
X02219502Y02616813D01*
X02230856Y02612110D01*
X02243144Y02612110D01*
X02254498Y02616813D01*
X02263187Y02625502D01*
X02267890Y02636856D01*
X02267890Y02649144D01*
X02267000Y02651292D01*
X02267000Y02682110D01*
X02270144Y02682110D01*
X02281498Y02686813D01*
X02290187Y02695502D01*
X02294890Y02706856D01*
X02294890Y02714882D01*
X02384000Y02714882D01*
X02384000Y02700000D01*
X02412999Y02700000D01*
X02412999Y02699999D01*
X02413000Y02699999D01*
X02413000Y02656000D01*
X02426370Y02656000D01*
X02430451Y02657094D01*
X02431544Y02656000D01*
X02442574Y02656000D01*
X02322983Y02536409D01*
X02031622Y02536409D01*
X02031622Y02583046D01*
X02021078Y02593590D01*
X02020000Y02593590D01*
X02020000Y02606409D01*
X02021078Y02606409D01*
X02031622Y02616953D01*
X02031622Y02618110D01*
X02039144Y02618110D01*
X02050498Y02622813D01*
X02059187Y02631502D01*
X02063890Y02642856D01*
X02063890Y02655144D01*
X02059187Y02666498D01*
X02050498Y02675187D01*
X02039144Y02679890D01*
X02031622Y02679890D01*
X02031622Y02683046D01*
X02021078Y02693590D01*
X02020000Y02693590D01*
X02020000Y02706409D01*
X02021078Y02706409D01*
X02031622Y02716953D01*
X02031622Y02783046D01*
X02021078Y02793590D01*
X01988836Y02793590D01*
X01972500Y02809926D01*
X01972500Y02832000D01*
X01999956Y02832000D01*
X02010500Y02842544D01*
X02010500Y02957456D01*
X01999956Y02968000D01*
X01965426Y02968000D01*
X01959494Y02973933D01*
X01923994Y03009433D01*
X01912967Y03014000D01*
X01280032Y03014000D01*
X01269006Y03009433D01*
X01190567Y02930994D01*
X01186000Y02919967D01*
X01186000Y02518032D01*
X01190567Y02507006D01*
X01199006Y02498567D01*
X01210408Y02487166D01*
X01221434Y02482598D01*
X01304782Y02482598D01*
X01307615Y02483772D01*
X01329893Y02483772D01*
X01340437Y02494316D01*
X01340437Y02530881D01*
X01339167Y02532151D01*
X01339210Y02532225D01*
X01340437Y02536803D01*
X01340437Y02549999D01*
X01298816Y02549999D01*
X01298816Y02550000D01*
X01340437Y02550000D01*
X01340437Y02556110D01*
X01346144Y02556110D01*
X01357498Y02560813D01*
X01362683Y02565999D01*
X01370107Y02558575D01*
X01392385Y02558575D01*
X01395218Y02557402D01*
X01457930Y02557402D01*
X01465332Y02550000D01*
X01456409Y02541078D01*
X01456409Y02534000D01*
X01439688Y02534000D01*
X01432263Y02541425D01*
X01370107Y02541425D01*
X01359563Y02530881D01*
X01359563Y02494316D01*
X01370107Y02483772D01*
X01432263Y02483772D01*
X01434491Y02486000D01*
X01456409Y02486000D01*
X01456409Y02478922D01*
X01466953Y02468378D01*
X01476000Y02468378D01*
X01476000Y02280426D01*
X01479654Y02271605D01*
X01869369Y01881890D01*
X01859856Y01881890D01*
X01848502Y01877187D01*
X01845315Y01874000D01*
X01782735Y01874000D01*
X01782625Y01873890D01*
X01661577Y01873890D01*
X01648104Y01860417D01*
X01616688Y01829000D01*
X01589473Y01829000D01*
X01580631Y01820157D01*
X01580631Y01820157D01*
X01574787Y01814314D01*
X01574787Y01912648D01*
X01572153Y01919008D01*
X01636983Y01919008D01*
X01647527Y01929552D01*
X01647527Y01995645D01*
X01643172Y02000000D01*
X01647527Y02004355D01*
X01647527Y02070448D01*
X01636983Y02080992D01*
X01630000Y02080992D01*
X01630000Y02091708D01*
X01630890Y02093856D01*
X01630890Y02106144D01*
X01626187Y02117498D01*
X01617498Y02126187D01*
X01606144Y02130890D01*
X01593856Y02130890D01*
X01591708Y02130000D01*
X01387426Y02130000D01*
X01254592Y02262834D01*
X01243566Y02267401D01*
X01197527Y02267401D01*
X01197527Y02270448D01*
X01186983Y02280992D01*
X01148836Y02280992D01*
X01025645Y02404183D01*
X01025645Y02640046D01*
X01031622Y02646023D01*
X01034293Y02652472D01*
X01070448Y02652472D01*
X01080992Y02663016D01*
X01080992Y02736983D01*
X01070448Y02747527D01*
X01067401Y02747527D01*
X01067401Y02752472D01*
X01070448Y02752472D01*
X01080992Y02763016D01*
X01080992Y02836983D01*
X01070448Y02847527D01*
X01004355Y02847527D01*
X01000000Y02843172D01*
X00995645Y02847527D01*
X00929552Y02847527D01*
X00919008Y02836983D01*
X00919008Y02824000D01*
X00893882Y02824000D01*
X00869882Y02848000D01*
X00830118Y02848000D01*
X00802000Y02819882D01*
X00802000Y02780118D01*
X00830118Y02752000D01*
X00869882Y02752000D01*
X00893882Y02776000D01*
X00919008Y02776000D01*
X00919008Y02763016D01*
X00929552Y02752472D01*
X00995645Y02752472D01*
X01000000Y02756828D01*
X01004355Y02752472D01*
X01007402Y02752472D01*
X01007402Y02747527D01*
X01004355Y02747527D01*
X01000000Y02743172D01*
X00995645Y02747527D01*
X00929552Y02747527D01*
X00919008Y02736983D01*
X00919008Y02724000D01*
X00759941Y02724000D01*
X00731941Y02752000D01*
X00769882Y02752000D01*
X00798000Y02780118D01*
X00798000Y02819882D01*
X00769882Y02848000D01*
X00730118Y02848000D01*
X00702000Y02819882D01*
X00702000Y02781941D01*
X00698000Y02785941D01*
X00698000Y02819882D01*
X00669882Y02848000D01*
X00632000Y02848000D01*
X00632000Y02852000D01*
X00669882Y02852000D01*
X00698000Y02880118D01*
X00698000Y02919882D01*
X00669882Y02948000D01*
X00630118Y02948000D01*
X00602000Y02919882D01*
X00602000Y02890426D01*
X00598000Y02894426D01*
X00598000Y02919882D01*
X00569882Y02948000D01*
X00530118Y02948000D01*
X00502000Y02919882D01*
X00502000Y02880118D01*
X00530118Y02852000D01*
X00555574Y02852000D01*
X00559574Y02848000D01*
X00530118Y02848000D01*
X00502000Y02819882D01*
X00502000Y02780118D01*
X00530118Y02752000D01*
X00569882Y02752000D01*
X00578787Y02760905D01*
X00702568Y02637123D01*
X00703458Y02634975D01*
X00712148Y02626285D01*
X00723501Y02621583D01*
X00735789Y02621583D01*
X00737938Y02622472D01*
X00965645Y02622472D01*
X00965645Y02385789D01*
X00970212Y02374763D01*
X01102472Y02242503D01*
X01102472Y02204355D01*
X01106828Y02200000D01*
X01102472Y02195645D01*
X01102472Y02129552D01*
X01113016Y02119008D01*
X01120000Y02119008D01*
X01120000Y02082961D01*
X01118922Y02082961D01*
X01108378Y02072416D01*
X01108378Y02010261D01*
X01118922Y01999717D01*
X01121893Y01999717D01*
X01119430Y01999057D01*
X01115326Y01996687D01*
X01111974Y01993336D01*
X01109605Y01989231D01*
X01108378Y01984653D01*
X01108378Y01962472D01*
X01146188Y01962472D01*
X01146188Y01954850D01*
X01108378Y01954850D01*
X01108378Y01932670D01*
X01109605Y01928092D01*
X01111974Y01923987D01*
X01115326Y01920636D01*
X01119430Y01918266D01*
X01124008Y01917039D01*
X01146189Y01917039D01*
X01146189Y01954850D01*
X01153811Y01954850D01*
X01153811Y01917039D01*
X01175992Y01917039D01*
X01180570Y01918266D01*
X01184674Y01920636D01*
X01188026Y01923987D01*
X01190395Y01928092D01*
X01191622Y01932670D01*
X01191622Y01954850D01*
X01153812Y01954850D01*
X01153812Y01962472D01*
X01191622Y01962472D01*
X01191622Y01984653D01*
X01190395Y01989231D01*
X01188026Y01993336D01*
X01184674Y01996687D01*
X01180570Y01999057D01*
X01178107Y01999717D01*
X01181078Y01999717D01*
X01191622Y02010261D01*
X01191622Y02072416D01*
X01181078Y02082961D01*
X01180000Y02082961D01*
X01180000Y02119008D01*
X01186983Y02119008D01*
X01197527Y02129552D01*
X01197527Y02195645D01*
X01193172Y02200000D01*
X01197527Y02204355D01*
X01197527Y02207402D01*
X01225172Y02207402D01*
X01345000Y02087574D01*
X01345000Y02056434D01*
X01346542Y02052712D01*
X01341622Y02057632D01*
X01341622Y02072416D01*
X01331078Y02082961D01*
X01268922Y02082961D01*
X01258378Y02072416D01*
X01258378Y02010261D01*
X01268639Y02000000D01*
X01258378Y01989739D01*
X01258378Y01927583D01*
X01268922Y01917039D01*
X01307681Y01917039D01*
X01319315Y01905405D01*
X01326066Y01898654D01*
X01334887Y01895000D01*
X01443059Y01895000D01*
X01468000Y01870059D01*
X01468000Y01810913D01*
X01405890Y01810913D01*
X01405890Y01819829D01*
X01401187Y01831182D01*
X01392498Y01839872D01*
X01381144Y01844574D01*
X01368856Y01844574D01*
X01357502Y01839872D01*
X01348813Y01831182D01*
X01344110Y01819829D01*
X01344110Y01810913D01*
X01334252Y01810913D01*
X01334252Y01804590D01*
X01334251Y01804590D01*
X01334251Y01810913D01*
X01242150Y01810913D01*
X01231606Y01800369D01*
X01231606Y01746087D01*
X01235804Y01741890D01*
X01181406Y01741890D01*
X01158067Y01765228D01*
X01158067Y01768321D01*
X01153364Y01779675D01*
X01144675Y01788364D01*
X01133321Y01793067D01*
X01121033Y01793067D01*
X01109680Y01788364D01*
X01104706Y01783390D01*
X00874000Y02014096D01*
X00874000Y02256118D01*
X00898000Y02280118D01*
X00898000Y02319882D01*
X00869882Y02348000D01*
X00830118Y02348000D01*
X00812570Y02330452D01*
X00812346Y02330992D01*
X00805595Y02337743D01*
X00780610Y02362728D01*
X00798000Y02380118D01*
X00798000Y02419882D01*
X00769882Y02448000D01*
X00730118Y02448000D01*
X00702000Y02419882D01*
X00702000Y02381941D01*
X00698000Y02385941D01*
X00698000Y02419882D01*
X00674000Y02443882D01*
X00674000Y02469008D01*
X00686983Y02469008D01*
X00697527Y02479552D01*
X00697527Y02545645D01*
X00693172Y02550000D01*
X00693931Y02550759D01*
X00696301Y02554863D01*
X00697527Y02559441D01*
X00697527Y02582606D01*
X00654796Y02582606D01*
X00654796Y02592197D01*
X00697527Y02592197D01*
X00697527Y02615362D01*
X00696301Y02619940D01*
X00693931Y02624044D01*
X00690580Y02627396D01*
X00686475Y02629765D01*
X00681897Y02630992D01*
X00654795Y02630992D01*
X00654795Y02592198D01*
X00645204Y02592198D01*
X00645204Y02630992D01*
X00618103Y02630992D01*
X00613525Y02629765D01*
X00609420Y02627396D01*
X00606069Y02624044D01*
X00603699Y02619940D01*
X00602472Y02615362D01*
X00602472Y02592197D01*
X00645204Y02592197D01*
X00645204Y02582606D01*
X00602472Y02582606D01*
X00602472Y02559441D01*
X00603699Y02554863D01*
X00606069Y02550759D01*
X00606828Y02550000D01*
X00602472Y02545645D01*
X00602472Y02479552D01*
X00613016Y02469008D01*
X00626000Y02469008D01*
X00626000Y02443882D01*
X00602000Y02419882D01*
X00602000Y02380118D01*
X00630118Y02352000D01*
X00664059Y02352000D01*
X00668000Y02348059D01*
X00668000Y02348000D01*
X00630118Y02348000D01*
X00602000Y02319882D01*
X00602000Y02280118D01*
X00626000Y02256118D01*
X00626000Y02230992D01*
X00613016Y02230992D01*
X00602472Y02220448D01*
X00602472Y02173815D01*
X00597527Y02168870D01*
X00597527Y02220448D01*
X00586983Y02230992D01*
X00574000Y02230992D01*
X00574000Y02256118D01*
X00598000Y02280118D01*
X00598000Y02319882D01*
X00569882Y02348000D01*
X00540426Y02348000D01*
X00544426Y02352000D01*
X00569882Y02352000D01*
X00598000Y02380118D01*
X00598000Y02419882D01*
X00569882Y02448000D01*
X00530118Y02448000D01*
X00502000Y02419882D01*
X00502000Y02394426D01*
X00498000Y02390426D01*
X00498000Y02398000D01*
X00452001Y02398000D01*
X00452001Y02402000D01*
X00498000Y02402000D01*
X00498000Y02419882D01*
X00469882Y02448000D01*
X00452000Y02448000D01*
X00452000Y02402001D01*
X00448000Y02402001D01*
X00448000Y02448000D01*
X00430118Y02448000D01*
X00402000Y02419882D01*
X00402000Y02402000D01*
X00447999Y02402000D01*
X00447999Y02398000D01*
X00402000Y02398000D01*
X00402000Y02380118D01*
X00410905Y02371213D01*
X00404685Y02364994D01*
X00376567Y02336876D01*
X00372000Y02325850D01*
X00372000Y02274150D01*
X00376567Y02263124D01*
X00385006Y02254685D01*
X00395110Y02244581D01*
X00395110Y02085292D01*
X00394220Y02083144D01*
X00394220Y02070856D01*
X00398923Y02059502D01*
X00407613Y02050813D01*
X00418966Y02046110D01*
X00426000Y02046110D01*
X00426000Y01861336D01*
X00429654Y01852515D01*
X00436405Y01845764D01*
X00591220Y01690949D01*
X00591220Y01687856D01*
X00595923Y01676502D01*
X00604613Y01667813D01*
X00615966Y01663110D01*
X00623000Y01663110D01*
X00623000Y01481226D01*
X00626654Y01472405D01*
X00633405Y01465654D01*
X00798933Y01300126D01*
X00807754Y01296472D01*
X01139087Y01296472D01*
X01139087Y01281626D01*
X01135123Y01279984D01*
X01128371Y01273233D01*
X00704851Y00849712D01*
X00701197Y00840891D01*
X00701197Y00517425D01*
X00697439Y00526498D01*
X00688750Y00535187D01*
X00677396Y00539890D01*
X00670362Y00539890D01*
X00670362Y00557062D01*
X00659818Y00567606D01*
X00566166Y00567606D01*
X00555622Y00557062D01*
X00555622Y00424040D01*
X00566166Y00413496D01*
X00642142Y00413496D01*
X00642142Y00395226D01*
X00642236Y00394998D01*
X00642236Y00367938D01*
X00652780Y00357394D01*
X00705511Y00357394D01*
X00705511Y00363717D01*
X00705512Y00363717D01*
X00705512Y00357394D01*
X01194867Y00357394D01*
X01192000Y00354527D01*
X01192000Y00340044D01*
X01188923Y00336968D01*
X01184221Y00325614D01*
X01184221Y00313326D01*
X01188923Y00301972D01*
X01197613Y00293283D01*
X01208966Y00288580D01*
X01221255Y00288580D01*
X01232608Y00293283D01*
X01232710Y00293385D01*
X01233892Y00292203D01*
X01245246Y00287500D01*
X01257534Y00287500D01*
X01268888Y00292203D01*
X01277577Y00300892D01*
X01282280Y00312246D01*
X01282280Y00312923D01*
X01291938Y00316924D01*
X01292586Y00317572D01*
X01302076Y00313641D01*
X01314365Y00313641D01*
X01325718Y00318344D01*
X01333828Y00326454D01*
X01335856Y00325614D01*
X01348144Y00325614D01*
X01359498Y00330317D01*
X01368187Y00339006D01*
X01372890Y00350359D01*
X01372890Y00357394D01*
X01447220Y00357394D01*
X01457764Y00367938D01*
X01457764Y00415465D01*
X01533834Y00415465D01*
X01544378Y00426009D01*
X01544378Y00559031D01*
X01533834Y00569575D01*
X01464114Y00569575D01*
X01783626Y00889087D01*
X01857473Y00889087D01*
X01865747Y00889086D01*
X01865747Y00895410D01*
X01865748Y00895410D01*
X01865749Y00895410D01*
X01865749Y00889087D01*
X01957850Y00889087D01*
X01968394Y00899631D01*
X01968394Y00953913D01*
X01957850Y00964457D01*
X01868198Y00964457D01*
X01909527Y01005785D01*
X01923000Y01019258D01*
X01923000Y01071473D01*
X01933473Y01061000D01*
X01985543Y01061000D01*
X01985543Y00992150D01*
X01996087Y00981606D01*
X02018226Y00981606D01*
X02018454Y00981512D01*
X02118310Y00981512D01*
X02118310Y00974478D01*
X02123012Y00963124D01*
X02131702Y00954435D01*
X02143055Y00949732D01*
X02146148Y00949732D01*
X02160494Y00935386D01*
X02169315Y00931732D01*
X02199483Y00931732D01*
X02208304Y00935386D01*
X02211539Y00938622D01*
X02232800Y00938622D01*
X02232800Y00931588D01*
X02237503Y00920235D01*
X02246193Y00911545D01*
X02257546Y00906843D01*
X02260639Y00906843D01*
X02292000Y00875481D01*
X02292000Y00778770D01*
X02295654Y00769949D01*
X02334760Y00730843D01*
X02343581Y00727189D01*
X02348142Y00727189D01*
X02348142Y00705733D01*
X02353875Y00700000D01*
X02351738Y00697863D01*
X02349368Y00693759D01*
X02348142Y00689181D01*
X02348142Y00675000D01*
X02389762Y00675000D01*
X02389762Y00674999D01*
X02348142Y00674999D01*
X02348142Y00660819D01*
X02349368Y00656241D01*
X02351738Y00652137D01*
X02355089Y00648785D01*
X02359194Y00646416D01*
X02363772Y00645189D01*
X02389763Y00645189D01*
X02389763Y00674999D01*
X02389764Y00674999D01*
X02389764Y00645189D01*
X02415756Y00645189D01*
X02420334Y00646416D01*
X02424438Y00648785D01*
X02427789Y00652137D01*
X02430159Y00656241D01*
X02431386Y00660819D01*
X02431386Y00674811D01*
X02568614Y00674811D01*
X02568614Y00655733D01*
X02579158Y00645189D01*
X02584000Y00645189D01*
X02584000Y00440226D01*
X02587654Y00431405D01*
X02594405Y00424654D01*
X02639405Y00379654D01*
X02648226Y00376000D01*
X02804774Y00376000D01*
X02813595Y00379654D01*
X02820346Y00386405D01*
X02923346Y00489405D01*
X02927000Y00498226D01*
X02927000Y00591000D01*
X03046230Y00591000D01*
X03090272Y00546958D01*
X03099828Y00543000D01*
X03224172Y00543000D01*
X03233728Y00546958D01*
X03241042Y00554272D01*
X03388769Y00702000D01*
X03419882Y00702000D01*
X03448000Y00730118D01*
X03448000Y00769882D01*
X03433438Y00784443D01*
X03466042Y00817047D01*
X03470000Y00826602D01*
X03470000Y00873397D01*
X03466042Y00882953D01*
X03440267Y00908728D01*
X03433438Y00915556D01*
X03448000Y00930118D01*
X03448000Y00969882D01*
X03419882Y00998000D01*
X03385941Y00998000D01*
X03261000Y01122941D01*
X03261000Y01919744D01*
X03257346Y01928565D01*
X03250595Y01935317D01*
X03142565Y02043346D01*
X03142000Y02043580D01*
X03142000Y02068456D01*
X03135456Y02075000D01*
X03142000Y02081544D01*
X03142000Y02118456D01*
X03131456Y02129000D01*
X03098426Y02129000D01*
X02988433Y02238994D01*
X02979994Y02247433D01*
X02968967Y02252000D01*
X02742923Y02252000D01*
X02517000Y02477923D01*
X02517000Y02683102D01*
X02522144Y02683102D01*
X02533498Y02687805D01*
X02542187Y02696494D01*
X02546890Y02707848D01*
X02546890Y02714882D01*
X02596567Y02714882D01*
X02596567Y02705930D01*
X02607111Y02695386D01*
X02692889Y02695386D01*
X02703433Y02705930D01*
X02703433Y02716000D01*
X02732394Y02716000D01*
X02732394Y02699237D01*
X02742938Y02688693D01*
X02752338Y02688693D01*
X02752110Y02688144D01*
X02752110Y02675856D01*
X02756813Y02664502D01*
X02765502Y02655813D01*
X02776856Y02651110D01*
X02789144Y02651110D01*
X02800498Y02655813D01*
X02809187Y02664502D01*
X02813890Y02675856D01*
X02813890Y02688144D01*
X02813662Y02688693D01*
X02820842Y02688693D01*
X02831386Y02699237D01*
X02831386Y02800763D01*
X02820842Y02811307D01*
X02742938Y02811307D01*
X02732394Y02800763D01*
X02732394Y02784000D01*
X02703267Y02784000D01*
X02692889Y02794378D01*
X02607111Y02794378D01*
X02596567Y02783834D01*
X02596567Y02774882D01*
X02516000Y02774882D01*
X02516000Y02833456D01*
X02516000Y02815740D02*
X02598333Y02815740D01*
X02596567Y02783743D02*
X02516000Y02783743D01*
X02516000Y02799742D02*
X02732394Y02799742D01*
X02701667Y02815740D02*
X03035767Y02815740D01*
X03031334Y02811307D02*
X02979158Y02811307D01*
X02968614Y02800763D01*
X02968614Y02699237D01*
X02979158Y02688693D01*
X03057062Y02688693D01*
X03067606Y02699237D01*
X03067606Y02751413D01*
X03099123Y02782929D01*
X03150944Y02782929D01*
X03152169Y02779971D01*
X03170522Y02761618D01*
X03194502Y02751685D01*
X03220724Y02751685D01*
X03220724Y02748315D01*
X03194502Y02748315D01*
X03170522Y02738382D01*
X03152169Y02720029D01*
X03142236Y02696049D01*
X03142236Y02670093D01*
X03152169Y02646113D01*
X03170522Y02627760D01*
X03194502Y02617827D01*
X03314946Y02617827D01*
X03338926Y02627760D01*
X03357280Y02646113D01*
X03367212Y02670093D01*
X03367212Y02696049D01*
X03357280Y02720029D01*
X03338926Y02738382D01*
X03314946Y02748315D01*
X03288724Y02748315D01*
X03288724Y02751685D01*
X03314946Y02751685D01*
X03338926Y02761618D01*
X03357280Y02779971D01*
X03367212Y02803951D01*
X03367212Y02829907D01*
X03357280Y02853887D01*
X03338926Y02872240D01*
X03314946Y02882173D01*
X03194502Y02882173D01*
X03170522Y02872240D01*
X03152169Y02853887D01*
X03150944Y02850929D01*
X03078276Y02850929D01*
X03065780Y02845753D01*
X03056216Y02836188D01*
X03031334Y02811307D01*
X03051766Y02831739D02*
X02703433Y02831739D01*
X02703433Y02863736D02*
X03162018Y02863736D01*
X03188615Y02879734D02*
X02703433Y02879734D01*
X02700953Y02895733D02*
X04222000Y02895733D01*
X04222000Y02911731D02*
X02010500Y02911731D01*
X02010500Y02927730D02*
X04222000Y02927730D01*
X04222000Y02943728D02*
X02010500Y02943728D01*
X02008229Y02959727D02*
X04222000Y02959727D01*
X04222000Y02975725D02*
X01957701Y02975725D01*
X01941702Y02991724D02*
X04222000Y02991724D01*
X04222000Y03007722D02*
X01925704Y03007722D01*
X01874500Y02954000D02*
X01874500Y02842544D01*
X01885044Y02832000D01*
X01912500Y02832000D01*
X01912500Y02791532D01*
X01913811Y02788367D01*
X01913811Y02753812D01*
X01906189Y02753812D01*
X01906189Y02793590D01*
X01884008Y02793590D01*
X01879430Y02792364D01*
X01875326Y02789994D01*
X01871974Y02786643D01*
X01869605Y02782538D01*
X01868378Y02777960D01*
X01868378Y02753811D01*
X01906188Y02753811D01*
X01906188Y02746189D01*
X01868378Y02746189D01*
X01868378Y02722040D01*
X01869605Y02717462D01*
X01871974Y02713357D01*
X01875326Y02710006D01*
X01879430Y02707636D01*
X01884008Y02706409D01*
X01906189Y02706409D01*
X01906189Y02746188D01*
X01913811Y02746188D01*
X01913811Y02706409D01*
X01935992Y02706409D01*
X01940570Y02707636D01*
X01944674Y02710006D01*
X01948026Y02713357D01*
X01949471Y02715861D01*
X01958922Y02706409D01*
X01960000Y02706409D01*
X01960000Y02693590D01*
X01958922Y02693590D01*
X01949471Y02684139D01*
X01948026Y02686643D01*
X01944674Y02689994D01*
X01940570Y02692364D01*
X01935992Y02693590D01*
X01913811Y02693590D01*
X01913811Y02653812D01*
X01906189Y02653812D01*
X01906189Y02693590D01*
X01884008Y02693590D01*
X01879430Y02692364D01*
X01875326Y02689994D01*
X01871974Y02686643D01*
X01869605Y02682538D01*
X01868378Y02677960D01*
X01868378Y02653811D01*
X01906188Y02653811D01*
X01906188Y02646189D01*
X01868378Y02646189D01*
X01868378Y02622040D01*
X01869605Y02617462D01*
X01871974Y02613357D01*
X01875326Y02610006D01*
X01879430Y02607636D01*
X01884008Y02606409D01*
X01906189Y02606409D01*
X01906189Y02646188D01*
X01913811Y02646188D01*
X01913811Y02606409D01*
X01935992Y02606409D01*
X01940570Y02607636D01*
X01944674Y02610006D01*
X01948026Y02613357D01*
X01949471Y02615861D01*
X01958922Y02606409D01*
X01960000Y02606409D01*
X01960000Y02593590D01*
X01958922Y02593590D01*
X01949471Y02584139D01*
X01948026Y02586643D01*
X01944674Y02589994D01*
X01940570Y02592364D01*
X01935992Y02593590D01*
X01913811Y02593590D01*
X01913811Y02553812D01*
X01906189Y02553812D01*
X01906189Y02593590D01*
X01884008Y02593590D01*
X01879430Y02592364D01*
X01875326Y02589994D01*
X01871974Y02586643D01*
X01869605Y02582538D01*
X01868378Y02577960D01*
X01868378Y02553811D01*
X01906188Y02553811D01*
X01906188Y02546189D01*
X01868378Y02546189D01*
X01868378Y02536409D01*
X01831622Y02536409D01*
X01831622Y02546189D01*
X01793812Y02546189D01*
X01793812Y02553811D01*
X01831622Y02553811D01*
X01831622Y02577960D01*
X01830395Y02582538D01*
X01828026Y02586643D01*
X01824674Y02589994D01*
X01820570Y02592364D01*
X01815992Y02593590D01*
X01793811Y02593590D01*
X01793811Y02553812D01*
X01786189Y02553812D01*
X01786189Y02593590D01*
X01764008Y02593590D01*
X01759430Y02592364D01*
X01755326Y02589994D01*
X01751974Y02586643D01*
X01750529Y02584139D01*
X01741078Y02593590D01*
X01678922Y02593590D01*
X01668378Y02583046D01*
X01668378Y02580000D01*
X01629707Y02580000D01*
X01629041Y02581606D01*
X01635015Y02581606D01*
X01645559Y02592150D01*
X01645559Y02597165D01*
X01693133Y02597165D01*
X01704159Y02601733D01*
X01708836Y02606409D01*
X01741078Y02606409D01*
X01750529Y02615861D01*
X01751974Y02613357D01*
X01755326Y02610006D01*
X01759430Y02607636D01*
X01764008Y02606409D01*
X01786189Y02606409D01*
X01786189Y02646188D01*
X01793811Y02646188D01*
X01793811Y02606409D01*
X01815992Y02606409D01*
X01820570Y02607636D01*
X01824674Y02610006D01*
X01828026Y02613357D01*
X01830395Y02617462D01*
X01831622Y02622040D01*
X01831622Y02646189D01*
X01793812Y02646189D01*
X01793812Y02653811D01*
X01831622Y02653811D01*
X01831622Y02677960D01*
X01830395Y02682538D01*
X01828026Y02686643D01*
X01824674Y02689994D01*
X01820570Y02692364D01*
X01815992Y02693590D01*
X01793811Y02693590D01*
X01793811Y02653812D01*
X01786189Y02653812D01*
X01786189Y02693590D01*
X01764008Y02693590D01*
X01759430Y02692364D01*
X01755326Y02689994D01*
X01751974Y02686643D01*
X01750529Y02684139D01*
X01741078Y02693590D01*
X01740000Y02693590D01*
X01740000Y02706409D01*
X01741078Y02706409D01*
X01750529Y02715861D01*
X01751974Y02713357D01*
X01755326Y02710006D01*
X01759430Y02707636D01*
X01764008Y02706409D01*
X01786189Y02706409D01*
X01786189Y02746188D01*
X01793811Y02746188D01*
X01793811Y02706409D01*
X01815992Y02706409D01*
X01820570Y02707636D01*
X01824674Y02710006D01*
X01828026Y02713357D01*
X01830395Y02717462D01*
X01831622Y02722040D01*
X01831622Y02746189D01*
X01793812Y02746189D01*
X01793812Y02753811D01*
X01831622Y02753811D01*
X01831622Y02777960D01*
X01830395Y02782538D01*
X01828026Y02786643D01*
X01824674Y02789994D01*
X01820570Y02792364D01*
X01815992Y02793590D01*
X01793811Y02793590D01*
X01793811Y02753812D01*
X01786189Y02753812D01*
X01786189Y02788367D01*
X01787500Y02791532D01*
X01787500Y02832000D01*
X01814956Y02832000D01*
X01825500Y02842544D01*
X01825500Y02954000D01*
X01874500Y02954000D01*
X01874500Y02943728D02*
X01825500Y02943728D01*
X01825500Y02927730D02*
X01874500Y02927730D01*
X01874500Y02911731D02*
X01825500Y02911731D01*
X01825500Y02895733D02*
X01874500Y02895733D01*
X01874500Y02879734D02*
X01825500Y02879734D01*
X01825500Y02863736D02*
X01874500Y02863736D01*
X01874500Y02847737D02*
X01825500Y02847737D01*
X01787500Y02831739D02*
X01912500Y02831739D01*
X01912500Y02815740D02*
X01787500Y02815740D01*
X01787500Y02799742D02*
X01912500Y02799742D01*
X01913811Y02783743D02*
X01906189Y02783743D01*
X01906189Y02767745D02*
X01913811Y02767745D01*
X01906188Y02751746D02*
X01793812Y02751746D01*
X01793811Y02735748D02*
X01786189Y02735748D01*
X01786189Y02719749D02*
X01793811Y02719749D01*
X01793811Y02687752D02*
X01786189Y02687752D01*
X01786189Y02671753D02*
X01793811Y02671753D01*
X01793811Y02655755D02*
X01786189Y02655755D01*
X01786189Y02639756D02*
X01793811Y02639756D01*
X01793811Y02623758D02*
X01786189Y02623758D01*
X01786189Y02607759D02*
X01793811Y02607759D01*
X01793811Y02591761D02*
X01786189Y02591761D01*
X01786189Y02575762D02*
X01793811Y02575762D01*
X01793811Y02559764D02*
X01786189Y02559764D01*
X01758386Y02591761D02*
X01742907Y02591761D01*
X01742428Y02607759D02*
X01759217Y02607759D01*
X01820783Y02607759D02*
X01879217Y02607759D01*
X01878386Y02591761D02*
X01821614Y02591761D01*
X01831622Y02575762D02*
X01868378Y02575762D01*
X01868378Y02559764D02*
X01831622Y02559764D01*
X01831622Y02543765D02*
X01868378Y02543765D01*
X01906189Y02559764D02*
X01913811Y02559764D01*
X01913811Y02575762D02*
X01906189Y02575762D01*
X01906189Y02591761D02*
X01913811Y02591761D01*
X01913811Y02607759D02*
X01906189Y02607759D01*
X01906189Y02623758D02*
X01913811Y02623758D01*
X01913811Y02639756D02*
X01906189Y02639756D01*
X01906189Y02655755D02*
X01913811Y02655755D01*
X01913811Y02671753D02*
X01906189Y02671753D01*
X01906189Y02687752D02*
X01913811Y02687752D01*
X01913811Y02719749D02*
X01906189Y02719749D01*
X01906189Y02735748D02*
X01913811Y02735748D01*
X01868378Y02735748D02*
X01831622Y02735748D01*
X01831008Y02719749D02*
X01868992Y02719749D01*
X01873084Y02687752D02*
X01826916Y02687752D01*
X01831622Y02671753D02*
X01868378Y02671753D01*
X01868378Y02655755D02*
X01831622Y02655755D01*
X01831622Y02639756D02*
X01868378Y02639756D01*
X01868378Y02623758D02*
X01831622Y02623758D01*
X01753084Y02687752D02*
X01746916Y02687752D01*
X01740000Y02703750D02*
X01960000Y02703750D01*
X01953084Y02687752D02*
X01946916Y02687752D01*
X02020000Y02703750D02*
X02134000Y02703750D01*
X02134000Y02699999D02*
X02134000Y02671630D01*
X02135227Y02667052D01*
X02137596Y02662948D01*
X02140948Y02659596D01*
X02145052Y02657227D01*
X02149630Y02656000D01*
X02162999Y02656000D01*
X02162999Y02699999D01*
X02134000Y02699999D01*
X02134000Y02687752D02*
X02026916Y02687752D01*
X02053931Y02671753D02*
X02134000Y02671753D01*
X02162999Y02671753D02*
X02163000Y02671753D01*
X02162999Y02687752D02*
X02163000Y02687752D01*
X02162999Y02703750D02*
X02163000Y02703750D01*
X02162999Y02719749D02*
X02163000Y02719749D01*
X02162999Y02735748D02*
X02163000Y02735748D01*
X02179061Y02751746D02*
X02031622Y02751746D01*
X02031622Y02735748D02*
X02136843Y02735748D01*
X02134000Y02719749D02*
X02031622Y02719749D01*
X02031622Y02767745D02*
X02134000Y02767745D01*
X02134000Y02766544D02*
X02144544Y02756000D01*
X02181456Y02756000D01*
X02192000Y02766544D01*
X02192000Y02833456D01*
X02181456Y02844000D01*
X02144544Y02844000D01*
X02134000Y02833456D01*
X02134000Y02766544D01*
X02134000Y02783743D02*
X02030925Y02783743D01*
X01982685Y02799742D02*
X02134000Y02799742D01*
X02134000Y02815740D02*
X01972500Y02815740D01*
X01972500Y02831739D02*
X02134000Y02831739D01*
X02192000Y02831739D02*
X02208000Y02831739D01*
X02208000Y02815740D02*
X02192000Y02815740D01*
X02192000Y02799742D02*
X02208000Y02799742D01*
X02208000Y02783743D02*
X02192000Y02783743D01*
X02192000Y02767745D02*
X02196318Y02767745D01*
X02266000Y02783743D02*
X02384000Y02783743D01*
X02384000Y02799742D02*
X02266000Y02799742D01*
X02266000Y02815740D02*
X02384000Y02815740D01*
X02384000Y02831739D02*
X02266000Y02831739D01*
X02293603Y02703750D02*
X02384000Y02703750D01*
X02384000Y02699999D02*
X02384000Y02671630D01*
X02385227Y02667052D01*
X02387596Y02662948D01*
X02390948Y02659596D01*
X02395052Y02657227D01*
X02399630Y02656000D01*
X02412999Y02656000D01*
X02412999Y02699999D01*
X02384000Y02699999D01*
X02384000Y02687752D02*
X02282437Y02687752D01*
X02267000Y02671753D02*
X02384000Y02671753D01*
X02412999Y02671753D02*
X02413000Y02671753D01*
X02412999Y02687752D02*
X02413000Y02687752D01*
X02442329Y02655755D02*
X02267000Y02655755D01*
X02267890Y02639756D02*
X02426330Y02639756D01*
X02410332Y02623758D02*
X02261443Y02623758D01*
X02212557Y02623758D02*
X02051443Y02623758D01*
X02062606Y02639756D02*
X02206110Y02639756D01*
X02207000Y02655755D02*
X02063637Y02655755D01*
X02022428Y02607759D02*
X02394333Y02607759D01*
X02378335Y02591761D02*
X02022907Y02591761D01*
X02031622Y02575762D02*
X02362336Y02575762D01*
X02346337Y02559764D02*
X02031622Y02559764D01*
X02031622Y02543765D02*
X02330339Y02543765D01*
X02367196Y02495770D02*
X02457000Y02495770D01*
X02457000Y02511768D02*
X02383195Y02511768D01*
X02399193Y02527767D02*
X02457000Y02527767D01*
X02457000Y02543765D02*
X02415192Y02543765D01*
X02431190Y02559764D02*
X02457000Y02559764D01*
X02457000Y02575762D02*
X02447189Y02575762D01*
X02457000Y02585574D02*
X02457000Y02459529D01*
X02461567Y02448503D01*
X02703420Y02206650D01*
X02704310Y02204502D01*
X02712999Y02195813D01*
X02724352Y02191110D01*
X02736641Y02191110D01*
X02738789Y02192000D01*
X02950573Y02192000D01*
X03028000Y02114573D01*
X03028000Y02081544D01*
X03034544Y02075000D01*
X03028000Y02068456D01*
X03028000Y02031544D01*
X03034544Y02025000D01*
X03033544Y02024000D01*
X02960226Y02024000D01*
X02951405Y02020346D01*
X02902405Y01971346D01*
X02895654Y01964595D01*
X02892000Y01955774D01*
X02892000Y01557685D01*
X02889813Y01555498D01*
X02885110Y01544144D01*
X02885110Y01531856D01*
X02889813Y01520502D01*
X02896315Y01514000D01*
X02434599Y01514000D01*
X02432451Y01514890D01*
X02420163Y01514890D01*
X02408809Y01510187D01*
X02400120Y01501498D01*
X02395417Y01490144D01*
X02395417Y01477856D01*
X02400120Y01466502D01*
X02408809Y01457813D01*
X02420163Y01453110D01*
X02432451Y01453110D01*
X02434599Y01454000D01*
X02640111Y01454000D01*
X02639169Y01453058D01*
X02636076Y01453058D01*
X02624723Y01448355D01*
X02616033Y01439666D01*
X02611331Y01428312D01*
X02611331Y01419858D01*
X02551084Y01419858D01*
X02542263Y01416204D01*
X02504483Y01378424D01*
X02499509Y01383398D01*
X02488156Y01388101D01*
X02475867Y01388101D01*
X02464514Y01383398D01*
X02462327Y01381211D01*
X02402730Y01381211D01*
X02127000Y01656941D01*
X02127000Y01677426D01*
X02127000Y01686973D01*
X02123346Y01695794D01*
X01896114Y01923026D01*
X01898013Y01923813D01*
X01906703Y01932502D01*
X01907592Y01934650D01*
X01959289Y01986347D01*
X01959728Y01986786D01*
X01959793Y01986813D01*
X01968482Y01995502D01*
X01973185Y02006856D01*
X01973185Y02019144D01*
X01968482Y02030498D01*
X01959793Y02039187D01*
X01948440Y02043890D01*
X01936151Y02043890D01*
X01924798Y02039187D01*
X01916108Y02030498D01*
X01914355Y02026266D01*
X01865166Y01977077D01*
X01863018Y01976187D01*
X01854329Y01967498D01*
X01853542Y01965598D01*
X01524000Y02295141D01*
X01524000Y02468378D01*
X01533046Y02468378D01*
X01543590Y02478922D01*
X01543590Y02541078D01*
X01534668Y02550000D01*
X01534779Y02550110D01*
X01570211Y02514677D01*
X01581237Y02510110D01*
X01618762Y02510110D01*
X01629789Y02514677D01*
X01635111Y02520000D01*
X01668378Y02520000D01*
X01668378Y02516953D01*
X01678922Y02506409D01*
X01716495Y02506409D01*
X01741928Y02480977D01*
X01752954Y02476409D01*
X02341377Y02476409D01*
X02352403Y02480977D01*
X02457000Y02585574D01*
X02517000Y02591761D02*
X03505883Y02591761D01*
X03521881Y02607759D02*
X02517000Y02607759D01*
X02517000Y02623758D02*
X03180183Y02623758D01*
X03158526Y02639756D02*
X02517000Y02639756D01*
X02517000Y02655755D02*
X02765642Y02655755D01*
X02753809Y02671753D02*
X02517000Y02671753D01*
X02533369Y02687752D02*
X02752110Y02687752D01*
X02732394Y02703750D02*
X02701254Y02703750D01*
X02598746Y02703750D02*
X02545192Y02703750D01*
X02458000Y02783743D02*
X02442000Y02783743D01*
X02442000Y02799742D02*
X02458000Y02799742D01*
X02458000Y02815740D02*
X02442000Y02815740D01*
X02442000Y02831739D02*
X02458000Y02831739D01*
X02642252Y02831739D02*
X02657748Y02831739D01*
X02657749Y02847737D02*
X03070571Y02847737D01*
X03083938Y02767745D02*
X03164396Y02767745D01*
X03167888Y02735748D02*
X03067606Y02735748D01*
X03067606Y02719749D02*
X03152053Y02719749D01*
X03145426Y02703750D02*
X03067606Y02703750D01*
X03067939Y02751746D02*
X03194355Y02751746D01*
X03142236Y02687752D02*
X02813890Y02687752D01*
X02812190Y02671753D02*
X03142236Y02671753D01*
X03148175Y02655755D02*
X02800358Y02655755D01*
X02831386Y02703750D02*
X02968614Y02703750D01*
X02968614Y02719749D02*
X02831386Y02719749D01*
X02831386Y02735748D02*
X02968614Y02735748D01*
X02968614Y02751746D02*
X02831386Y02751746D01*
X02831386Y02767745D02*
X02968614Y02767745D01*
X02968614Y02783743D02*
X02831386Y02783743D01*
X02831386Y02799742D02*
X02968614Y02799742D01*
X02657748Y02815740D02*
X02642252Y02815740D01*
X02642251Y02847737D02*
X02010500Y02847737D01*
X01870300Y02783743D02*
X01829700Y02783743D01*
X01831622Y02767745D02*
X01868378Y02767745D01*
X01793811Y02767745D02*
X01786189Y02767745D01*
X01786189Y02783743D02*
X01793811Y02783743D01*
X01727500Y02809926D02*
X01711164Y02793590D01*
X01678922Y02793590D01*
X01668378Y02783046D01*
X01668378Y02716953D01*
X01678922Y02706409D01*
X01680000Y02706409D01*
X01680000Y02693590D01*
X01678922Y02693590D01*
X01668378Y02683046D01*
X01668378Y02657165D01*
X01645559Y02657165D01*
X01645559Y02662180D01*
X01635015Y02672724D01*
X01564985Y02672724D01*
X01554441Y02662180D01*
X01554441Y02615300D01*
X01554309Y02615433D01*
X01543590Y02619872D01*
X01543590Y02621078D01*
X01533046Y02631622D01*
X01466953Y02631622D01*
X01456409Y02621078D01*
X01456409Y02617401D01*
X01413611Y02617401D01*
X01412349Y02618664D01*
X01417323Y02623638D01*
X01422025Y02634991D01*
X01422025Y02647280D01*
X01421136Y02649428D01*
X01421136Y02707843D01*
X01422265Y02708972D01*
X01427977Y02703260D01*
X01513755Y02703260D01*
X01524299Y02713804D01*
X01524299Y02742835D01*
X01554441Y02742835D01*
X01554441Y02737820D01*
X01564985Y02727276D01*
X01635015Y02727276D01*
X01645559Y02737820D01*
X01645559Y02807850D01*
X01635015Y02818394D01*
X01564985Y02818394D01*
X01554441Y02807850D01*
X01554441Y02802835D01*
X01524299Y02802835D01*
X01524299Y02886196D01*
X01513755Y02896740D01*
X01427977Y02896740D01*
X01417433Y02886196D01*
X01417433Y02788993D01*
X01382567Y02754127D01*
X01382567Y02886196D01*
X01372023Y02896740D01*
X01286245Y02896740D01*
X01275701Y02886196D01*
X01275701Y02713804D01*
X01286245Y02703260D01*
X01299134Y02703260D01*
X01299134Y02653485D01*
X01303701Y02642459D01*
X01312140Y02634020D01*
X01329160Y02617000D01*
X01305752Y02617000D01*
X01304782Y02617401D01*
X01292847Y02617401D01*
X01290015Y02616228D01*
X01267737Y02616228D01*
X01257193Y02605684D01*
X01257193Y02569119D01*
X01258463Y02567849D01*
X01258420Y02567774D01*
X01257193Y02563196D01*
X01257193Y02550000D01*
X01298814Y02550000D01*
X01298814Y02549999D01*
X01257193Y02549999D01*
X01257193Y02542598D01*
X01246000Y02542598D01*
X01246000Y02901573D01*
X01298426Y02954000D01*
X01689500Y02954000D01*
X01689500Y02842544D01*
X01700044Y02832000D01*
X01727500Y02832000D01*
X01727500Y02809926D01*
X01727500Y02815740D02*
X01637668Y02815740D01*
X01645559Y02799742D02*
X01717315Y02799742D01*
X01727500Y02831739D02*
X01524299Y02831739D01*
X01524299Y02847737D02*
X01689500Y02847737D01*
X01689500Y02863736D02*
X01524299Y02863736D01*
X01524299Y02879734D02*
X01689500Y02879734D01*
X01689500Y02895733D02*
X01514762Y02895733D01*
X01524299Y02815740D02*
X01562332Y02815740D01*
X01556513Y02735748D02*
X01524299Y02735748D01*
X01524299Y02719749D02*
X01668378Y02719749D01*
X01668378Y02735748D02*
X01643487Y02735748D01*
X01645559Y02751746D02*
X01668378Y02751746D01*
X01668378Y02767745D02*
X01645559Y02767745D01*
X01645559Y02783743D02*
X01669075Y02783743D01*
X01680000Y02703750D02*
X01514246Y02703750D01*
X01564014Y02671753D02*
X01421136Y02671753D01*
X01421136Y02655755D02*
X01554441Y02655755D01*
X01554441Y02639756D02*
X01422025Y02639756D01*
X01417372Y02623758D02*
X01459089Y02623758D01*
X01540910Y02623758D02*
X01554441Y02623758D01*
X01541123Y02543765D02*
X01540903Y02543765D01*
X01543590Y02527767D02*
X01557122Y02527767D01*
X01543590Y02511768D02*
X01577235Y02511768D01*
X01543590Y02495770D02*
X01727135Y02495770D01*
X01744838Y02479771D02*
X01543590Y02479771D01*
X01524000Y02463773D02*
X02457000Y02463773D01*
X02457000Y02479771D02*
X02349493Y02479771D01*
X02462296Y02447774D02*
X01524000Y02447774D01*
X01524000Y02431776D02*
X02478295Y02431776D01*
X02494293Y02415777D02*
X01524000Y02415777D01*
X01524000Y02399779D02*
X02510292Y02399779D01*
X02526290Y02383780D02*
X01524000Y02383780D01*
X01524000Y02367781D02*
X02542289Y02367781D01*
X02558287Y02351783D02*
X01524000Y02351783D01*
X01524000Y02335784D02*
X02574286Y02335784D01*
X02590284Y02319786D02*
X01524000Y02319786D01*
X01524000Y02303787D02*
X02606283Y02303787D01*
X02622281Y02287789D02*
X01531352Y02287789D01*
X01547350Y02271790D02*
X02638280Y02271790D01*
X02654278Y02255792D02*
X01563349Y02255792D01*
X01579347Y02239793D02*
X02670277Y02239793D01*
X02686275Y02223795D02*
X01595346Y02223795D01*
X01611344Y02207796D02*
X02702274Y02207796D01*
X02722693Y02191798D02*
X01627343Y02191798D01*
X01643341Y02175799D02*
X02966774Y02175799D01*
X02950776Y02191798D02*
X02738301Y02191798D01*
X02769502Y02154187D02*
X02760813Y02145498D01*
X02756110Y02134144D01*
X02756110Y02133880D01*
X02751230Y02129000D01*
X02668544Y02129000D01*
X02658000Y02118456D01*
X02658000Y02081544D01*
X02663544Y02076000D01*
X02637535Y02076000D01*
X02628144Y02079890D01*
X02615856Y02079890D01*
X02604502Y02075187D01*
X02595813Y02066498D01*
X02591110Y02055144D01*
X02591110Y02042856D01*
X02595813Y02031502D01*
X02604502Y02022813D01*
X02615856Y02018110D01*
X02628144Y02018110D01*
X02639498Y02022813D01*
X02640685Y02024000D01*
X02663544Y02024000D01*
X02658000Y02018456D01*
X02658000Y01981544D01*
X02664544Y01975000D01*
X02658000Y01968456D01*
X02658000Y01931544D01*
X02664544Y01925000D01*
X02658000Y01918456D01*
X02658000Y01881544D01*
X02664544Y01875000D01*
X02658000Y01868456D01*
X02658000Y01851769D01*
X02655890Y01853880D01*
X02655890Y01863144D01*
X02651187Y01874498D01*
X02642498Y01883187D01*
X02631144Y01887890D01*
X02618856Y01887890D01*
X02607502Y01883187D01*
X02598813Y01874498D01*
X02594110Y01863144D01*
X02594110Y01850856D01*
X02598813Y01839502D01*
X02601484Y01836831D01*
X02602958Y01833272D01*
X02650958Y01785272D01*
X02658272Y01777958D01*
X02663929Y01775615D01*
X02664544Y01775000D01*
X02661808Y01772263D01*
X02661272Y01772042D01*
X02653958Y01764728D01*
X02629120Y01739890D01*
X02628856Y01739890D01*
X02617502Y01735187D01*
X02608813Y01726498D01*
X02604110Y01715144D01*
X02604110Y01702856D01*
X02608813Y01691502D01*
X02617502Y01682813D01*
X02628856Y01678110D01*
X02641144Y01678110D01*
X02652498Y01682813D01*
X02658000Y01688315D01*
X02658000Y01686630D01*
X02659227Y01682052D01*
X02661596Y01677948D01*
X02664948Y01674596D01*
X02669052Y01672227D01*
X02673630Y01671000D01*
X02714999Y01671000D01*
X02714999Y01699999D01*
X02715000Y01699999D01*
X02715000Y01671000D01*
X02756370Y01671000D01*
X02760948Y01672227D01*
X02765052Y01674596D01*
X02768404Y01677948D01*
X02770773Y01682052D01*
X02772000Y01686630D01*
X02772000Y01699999D01*
X02715001Y01699999D01*
X02715001Y01700000D01*
X02772000Y01700000D01*
X02772000Y01713370D01*
X02770773Y01717948D01*
X02768404Y01722052D01*
X02765456Y01725000D01*
X02772000Y01731544D01*
X02772000Y01768456D01*
X02765456Y01775000D01*
X02772000Y01781544D01*
X02772000Y01818456D01*
X02765456Y01825000D01*
X02772000Y01831544D01*
X02772000Y01868456D01*
X02765456Y01875000D01*
X02772000Y01881544D01*
X02772000Y01918456D01*
X02765456Y01925000D01*
X02772000Y01931544D01*
X02772000Y01968456D01*
X02765456Y01975000D01*
X02772000Y01981544D01*
X02772000Y02018456D01*
X02765456Y02025000D01*
X02772000Y02031544D01*
X02772000Y02068456D01*
X02766201Y02074255D01*
X02772728Y02076958D01*
X02780042Y02084272D01*
X02792880Y02097110D01*
X02793144Y02097110D01*
X02804498Y02101813D01*
X02813187Y02110502D01*
X02817890Y02121856D01*
X02817890Y02134144D01*
X02813187Y02145498D01*
X02804498Y02154187D01*
X02793144Y02158890D01*
X02780856Y02158890D01*
X02769502Y02154187D01*
X02760111Y02143802D02*
X01675338Y02143802D01*
X01659340Y02159801D02*
X02982773Y02159801D01*
X02998771Y02143802D02*
X02813889Y02143802D01*
X02817890Y02127804D02*
X03014770Y02127804D01*
X03028000Y02111805D02*
X02813727Y02111805D01*
X02791576Y02095807D02*
X03028000Y02095807D01*
X03029736Y02079808D02*
X02775578Y02079808D01*
X02772000Y02063810D02*
X03028000Y02063810D01*
X03028000Y02047811D02*
X02772000Y02047811D01*
X02772000Y02031813D02*
X03028000Y02031813D01*
X02946873Y02015814D02*
X02772000Y02015814D01*
X02772000Y01999815D02*
X02930874Y01999815D01*
X02914876Y01983817D02*
X02772000Y01983817D01*
X02772000Y01967818D02*
X02898877Y01967818D01*
X02892000Y01951820D02*
X02772000Y01951820D01*
X02772000Y01935821D02*
X02892000Y01935821D01*
X02892000Y01919823D02*
X02770633Y01919823D01*
X02772000Y01903824D02*
X02892000Y01903824D01*
X02892000Y01887826D02*
X02772000Y01887826D01*
X02768628Y01871827D02*
X02892000Y01871827D01*
X02892000Y01855829D02*
X02772000Y01855829D01*
X02772000Y01839830D02*
X02892000Y01839830D01*
X02892000Y01823832D02*
X02766624Y01823832D01*
X02772000Y01807833D02*
X02892000Y01807833D01*
X02892000Y01791835D02*
X02772000Y01791835D01*
X02766292Y01775836D02*
X02892000Y01775836D01*
X02892000Y01759838D02*
X02772000Y01759838D01*
X02772000Y01743839D02*
X02892000Y01743839D01*
X02892000Y01727841D02*
X02768296Y01727841D01*
X02772000Y01711842D02*
X02892000Y01711842D01*
X02892000Y01695844D02*
X02772000Y01695844D01*
X02769499Y01679845D02*
X02892000Y01679845D01*
X02892000Y01663846D02*
X02127000Y01663846D01*
X02127000Y01679845D02*
X02624667Y01679845D01*
X02645332Y01679845D02*
X02660501Y01679845D01*
X02635000Y01709000D02*
X02676000Y01750000D01*
X02715000Y01750000D01*
X02715000Y01800000D02*
X02673000Y01800000D01*
X02625000Y01848000D01*
X02625000Y01857000D01*
X02655890Y01855829D02*
X02658000Y01855829D01*
X02661371Y01871827D02*
X02652293Y01871827D01*
X02658000Y01887826D02*
X02631298Y01887826D01*
X02618702Y01887826D02*
X01931315Y01887826D01*
X01947313Y01871827D02*
X02597707Y01871827D01*
X02594110Y01855829D02*
X01963312Y01855829D01*
X01979310Y01839830D02*
X02598677Y01839830D01*
X02612399Y01823832D02*
X01995309Y01823832D01*
X02011307Y01807833D02*
X02628397Y01807833D01*
X02644396Y01791835D02*
X02027306Y01791835D01*
X02043304Y01775836D02*
X02663395Y01775836D01*
X02649068Y01759838D02*
X02059303Y01759838D01*
X02075301Y01743839D02*
X02633070Y01743839D01*
X02610156Y01727841D02*
X02091300Y01727841D01*
X02107298Y01711842D02*
X02604110Y01711842D01*
X02607015Y01695844D02*
X02123297Y01695844D01*
X02136093Y01647848D02*
X02892000Y01647848D01*
X02892000Y01631849D02*
X02152092Y01631849D01*
X02168090Y01615851D02*
X02892000Y01615851D01*
X02892000Y01599852D02*
X02184089Y01599852D01*
X02200087Y01583854D02*
X02892000Y01583854D01*
X02892000Y01567855D02*
X02216086Y01567855D01*
X02232084Y01551857D02*
X02888305Y01551857D01*
X02885110Y01535858D02*
X02248083Y01535858D01*
X02264081Y01519860D02*
X02890455Y01519860D01*
X02714999Y01679845D02*
X02715000Y01679845D01*
X02714999Y01695844D02*
X02715000Y01695844D01*
X02658000Y01903824D02*
X01915316Y01903824D01*
X01899318Y01919823D02*
X02659367Y01919823D01*
X02658000Y01935821D02*
X01908763Y01935821D01*
X01924762Y01951820D02*
X02658000Y01951820D01*
X02658000Y01967818D02*
X01940760Y01967818D01*
X01956759Y01983817D02*
X02658000Y01983817D01*
X02658000Y01999815D02*
X01970269Y01999815D01*
X01973185Y02015814D02*
X02658000Y02015814D01*
X02623000Y02050000D02*
X02715000Y02050000D01*
X02659736Y02079808D02*
X02628341Y02079808D01*
X02615659Y02079808D02*
X01739332Y02079808D01*
X01723334Y02095807D02*
X02658000Y02095807D01*
X02658000Y02111805D02*
X01707335Y02111805D01*
X01691337Y02127804D02*
X02667348Y02127804D01*
X02715000Y02100000D02*
X02716000Y02099000D01*
X02758000Y02099000D01*
X02787000Y02128000D01*
X02739131Y02255792D02*
X03428000Y02255792D01*
X03428000Y02271790D02*
X02723133Y02271790D01*
X02707134Y02287789D02*
X03428000Y02287789D01*
X03428000Y02303787D02*
X02691136Y02303787D01*
X02675137Y02319786D02*
X03428000Y02319786D01*
X03428000Y02335784D02*
X02659139Y02335784D01*
X02643140Y02351783D02*
X03428000Y02351783D01*
X03428000Y02367781D02*
X02627142Y02367781D01*
X02611143Y02383780D02*
X03428000Y02383780D01*
X03428000Y02399779D02*
X02595145Y02399779D01*
X02579146Y02415777D02*
X03428000Y02415777D01*
X03428000Y02431776D02*
X02563148Y02431776D01*
X02547149Y02447774D02*
X03428000Y02447774D01*
X03428000Y02463773D02*
X02531150Y02463773D01*
X02517000Y02479771D02*
X03428000Y02479771D01*
X03428000Y02495770D02*
X02517000Y02495770D01*
X02517000Y02511768D02*
X03430158Y02511768D01*
X03428000Y02506558D02*
X03428000Y01627497D01*
X03433176Y01615000D01*
X03442741Y01605436D01*
X03488992Y01559184D01*
X03489176Y01558741D01*
X03525050Y01522867D01*
X03534615Y01513302D01*
X03547111Y01508126D01*
X03663152Y01508126D01*
X03659218Y01502999D01*
X03654555Y01494922D01*
X03650986Y01486305D01*
X03648572Y01477296D01*
X03647794Y01471386D01*
X03710503Y01471386D01*
X03710503Y01455386D01*
X03647794Y01455386D01*
X03648572Y01449475D01*
X03650986Y01440466D01*
X03654555Y01431850D01*
X03659218Y01423772D01*
X03664896Y01416373D01*
X03671491Y01409778D01*
X03678891Y01404100D01*
X03686968Y01399437D01*
X03695585Y01395867D01*
X03704594Y01393454D01*
X03710504Y01392675D01*
X03710504Y01455385D01*
X03726504Y01455385D01*
X03726504Y01392675D01*
X03732414Y01393454D01*
X03741423Y01395867D01*
X03750040Y01399437D01*
X03758117Y01404100D01*
X03765517Y01409778D01*
X03772112Y01416373D01*
X03777789Y01423772D01*
X03782453Y01431850D01*
X03786022Y01440466D01*
X03788436Y01449475D01*
X03789214Y01455386D01*
X03726504Y01455386D01*
X03726504Y01471386D01*
X03789214Y01471386D01*
X03788436Y01477296D01*
X03786022Y01486305D01*
X03782453Y01494922D01*
X03777789Y01502999D01*
X03773855Y01508126D01*
X03813056Y01508126D01*
X03815666Y01501823D01*
X03835681Y01481808D01*
X03861832Y01470976D01*
X03890137Y01470976D01*
X03916287Y01481808D01*
X03936302Y01501823D01*
X03947134Y01527973D01*
X03947134Y01556279D01*
X03936302Y01582429D01*
X03916287Y01602444D01*
X03890137Y01613275D01*
X03861832Y01613275D01*
X03835681Y01602444D01*
X03815666Y01582429D01*
X03813056Y01576126D01*
X03774384Y01576126D01*
X03778822Y01580563D01*
X03789653Y01606713D01*
X03789653Y01635019D01*
X03778822Y01661169D01*
X03758807Y01681184D01*
X03732656Y01692016D01*
X03704351Y01692016D01*
X03678201Y01681184D01*
X03658186Y01661169D01*
X03647354Y01635019D01*
X03647354Y01606713D01*
X03658186Y01580563D01*
X03662624Y01576126D01*
X03567957Y01576126D01*
X03547007Y01597076D01*
X03546824Y01597519D01*
X03496000Y01648343D01*
X03496000Y02485712D01*
X03628115Y02617827D01*
X03705498Y02617827D01*
X03729477Y02627760D01*
X03747831Y02646113D01*
X03757764Y02670093D01*
X03757764Y02696049D01*
X03747831Y02720029D01*
X03729477Y02738382D01*
X03705498Y02748315D01*
X03679275Y02748315D01*
X03679275Y02751685D01*
X03705498Y02751685D01*
X03729477Y02761618D01*
X03747831Y02779971D01*
X03757764Y02803951D01*
X03757764Y02829907D01*
X03747831Y02853887D01*
X03729477Y02872240D01*
X03705498Y02882173D01*
X03585054Y02882173D01*
X03561074Y02872240D01*
X03542720Y02853887D01*
X03532787Y02829907D01*
X03532787Y02803951D01*
X03542720Y02779971D01*
X03561074Y02761618D01*
X03585054Y02751685D01*
X03611276Y02751685D01*
X03611276Y02748315D01*
X03585054Y02748315D01*
X03561074Y02738382D01*
X03542720Y02720029D01*
X03532787Y02696049D01*
X03532787Y02670093D01*
X03542720Y02646113D01*
X03551477Y02637356D01*
X03442741Y02528619D01*
X03433176Y02519055D01*
X03428000Y02506558D01*
X03441888Y02527767D02*
X02517000Y02527767D01*
X02517000Y02543765D02*
X03457887Y02543765D01*
X03473885Y02559764D02*
X02517000Y02559764D01*
X02517000Y02575762D02*
X03489884Y02575762D01*
X03537880Y02623758D02*
X03329265Y02623758D01*
X03350923Y02639756D02*
X03549077Y02639756D01*
X03538726Y02655755D02*
X03361273Y02655755D01*
X03367212Y02671753D02*
X03532787Y02671753D01*
X03532787Y02687752D02*
X03367212Y02687752D01*
X03364022Y02703750D02*
X03535978Y02703750D01*
X03542604Y02719749D02*
X03357396Y02719749D01*
X03341561Y02735748D02*
X03558439Y02735748D01*
X03584906Y02751746D02*
X03315094Y02751746D01*
X03345053Y02767745D02*
X03554947Y02767745D01*
X03541158Y02783743D02*
X03358842Y02783743D01*
X03365469Y02799742D02*
X03534531Y02799742D01*
X03532787Y02815740D02*
X03367212Y02815740D01*
X03366454Y02831739D02*
X03533546Y02831739D01*
X03540173Y02847737D02*
X03359827Y02847737D01*
X03347431Y02863736D02*
X03552569Y02863736D01*
X03579166Y02879734D02*
X03320834Y02879734D01*
X03711385Y02879734D02*
X04222000Y02879734D01*
X04222000Y02863736D02*
X03737982Y02863736D01*
X03750378Y02847737D02*
X04222000Y02847737D01*
X04222000Y02831739D02*
X03757005Y02831739D01*
X03757764Y02815740D02*
X04222000Y02815740D01*
X04222000Y02799742D02*
X03756020Y02799742D01*
X03749393Y02783743D02*
X04222000Y02783743D01*
X04222000Y02767745D02*
X03735604Y02767745D01*
X03732112Y02735748D02*
X04222000Y02735748D01*
X04222000Y02751746D02*
X03705645Y02751746D01*
X03747947Y02719749D02*
X04222000Y02719749D01*
X04222000Y02703750D02*
X03754574Y02703750D01*
X03757764Y02687752D02*
X04222000Y02687752D01*
X04222000Y02671753D02*
X03757764Y02671753D01*
X03751825Y02655755D02*
X04222000Y02655755D01*
X04222000Y02639756D02*
X03741474Y02639756D01*
X03719816Y02623758D02*
X04222000Y02623758D01*
X04222000Y02607759D02*
X03618047Y02607759D01*
X03602049Y02591761D02*
X04222000Y02591761D01*
X04222000Y02575762D02*
X03586050Y02575762D01*
X03570052Y02559764D02*
X04222000Y02559764D01*
X04222000Y02543765D02*
X03554053Y02543765D01*
X03538055Y02527767D02*
X04222000Y02527767D01*
X04222000Y02511768D02*
X03522056Y02511768D01*
X03506058Y02495770D02*
X04222000Y02495770D01*
X04222000Y02479771D02*
X03496000Y02479771D01*
X03496000Y02463773D02*
X04222000Y02463773D01*
X04222000Y02447774D02*
X03496000Y02447774D01*
X03496000Y02431776D02*
X04222000Y02431776D01*
X04222000Y02415777D02*
X03496000Y02415777D01*
X03496000Y02399779D02*
X04222000Y02399779D01*
X04222000Y02383780D02*
X03496000Y02383780D01*
X03496000Y02367781D02*
X04222000Y02367781D01*
X04222000Y02351783D02*
X03496000Y02351783D01*
X03496000Y02335784D02*
X04222000Y02335784D01*
X04222000Y02319786D02*
X03496000Y02319786D01*
X03496000Y02303787D02*
X04222000Y02303787D01*
X04222000Y02287789D02*
X03496000Y02287789D01*
X03496000Y02271790D02*
X04222000Y02271790D01*
X04222000Y02255792D02*
X03496000Y02255792D01*
X03496000Y02239793D02*
X04222000Y02239793D01*
X04222000Y02223795D02*
X03496000Y02223795D01*
X03496000Y02207796D02*
X04222000Y02207796D01*
X04222000Y02191798D02*
X03496000Y02191798D01*
X03496000Y02175799D02*
X04222000Y02175799D01*
X04222000Y02159801D02*
X03496000Y02159801D01*
X03496000Y02143802D02*
X04222000Y02143802D01*
X04222000Y02127804D02*
X03496000Y02127804D01*
X03496000Y02111805D02*
X03863129Y02111805D01*
X03848029Y02105550D02*
X03824371Y02081892D01*
X03811567Y02050981D01*
X03811567Y02017523D01*
X03824371Y01986612D01*
X03848029Y01962953D01*
X03878940Y01950150D01*
X03912398Y01950150D01*
X03943309Y01962953D01*
X03966968Y01986612D01*
X03979772Y02017523D01*
X03979772Y02050981D01*
X03966968Y02081892D01*
X03943309Y02105550D01*
X03912398Y02118354D01*
X03878940Y02118354D01*
X03848029Y02105550D01*
X03838285Y02095807D02*
X03496000Y02095807D01*
X03496000Y02079808D02*
X03823508Y02079808D01*
X03816881Y02063810D02*
X03496000Y02063810D01*
X03496000Y02047811D02*
X03811567Y02047811D01*
X03811567Y02031813D02*
X03496000Y02031813D01*
X03496000Y02015814D02*
X03812275Y02015814D01*
X03818901Y01999815D02*
X03496000Y01999815D01*
X03496000Y01983817D02*
X03827165Y01983817D01*
X03843164Y01967818D02*
X03496000Y01967818D01*
X03496000Y01951820D02*
X03874908Y01951820D01*
X03916431Y01951820D02*
X04222000Y01951820D01*
X04222000Y01967818D02*
X03948174Y01967818D01*
X03964173Y01983817D02*
X04222000Y01983817D01*
X04222000Y01999815D02*
X03972437Y01999815D01*
X03979064Y02015814D02*
X04222000Y02015814D01*
X04222000Y02031813D02*
X03979772Y02031813D01*
X03979772Y02047811D02*
X04222000Y02047811D01*
X04222000Y02063810D02*
X03974458Y02063810D01*
X03967831Y02079808D02*
X04222000Y02079808D01*
X04222000Y02095807D02*
X03953053Y02095807D01*
X03928209Y02111805D02*
X04222000Y02111805D01*
X04222000Y01935821D02*
X03496000Y01935821D01*
X03496000Y01919823D02*
X04222000Y01919823D01*
X04222000Y01903824D02*
X03496000Y01903824D01*
X03496000Y01887826D02*
X04222000Y01887826D01*
X04222000Y01871827D02*
X03496000Y01871827D01*
X03496000Y01855829D02*
X04222000Y01855829D01*
X04222000Y01839830D02*
X04070952Y01839830D01*
X04073767Y01838664D02*
X04047617Y01849496D01*
X04019312Y01849496D01*
X03993162Y01838664D01*
X03973147Y01818649D01*
X03962315Y01792499D01*
X03962315Y01764194D01*
X03973147Y01738043D01*
X03993162Y01718029D01*
X04019312Y01707197D01*
X04047617Y01707197D01*
X04073767Y01718029D01*
X04093782Y01738043D01*
X04104614Y01764194D01*
X04104614Y01792499D01*
X04093782Y01818649D01*
X04073767Y01838664D01*
X04088600Y01823832D02*
X04222000Y01823832D01*
X04222000Y01807833D02*
X04098263Y01807833D01*
X04104614Y01791835D02*
X04222000Y01791835D01*
X04222000Y01775836D02*
X04104614Y01775836D01*
X04102810Y01759838D02*
X04222000Y01759838D01*
X04222000Y01743839D02*
X04096183Y01743839D01*
X04083579Y01727841D02*
X04222000Y01727841D01*
X04222000Y01711842D02*
X04058832Y01711842D01*
X04047617Y01692016D02*
X04019312Y01692016D01*
X03993162Y01681184D01*
X03973147Y01661169D01*
X03962315Y01635019D01*
X03962315Y01606713D01*
X03973147Y01580563D01*
X03993162Y01560548D01*
X04019312Y01549717D01*
X04047617Y01549717D01*
X04073767Y01560548D01*
X04093782Y01580563D01*
X04104614Y01606713D01*
X04104614Y01635019D01*
X04093782Y01661169D01*
X04073767Y01681184D01*
X04047617Y01692016D01*
X04075106Y01679845D02*
X04222000Y01679845D01*
X04222000Y01695844D02*
X03947134Y01695844D01*
X03947134Y01685454D02*
X03936302Y01659303D01*
X03916287Y01639289D01*
X03890137Y01628457D01*
X03861832Y01628457D01*
X03835681Y01639289D01*
X03815666Y01659303D01*
X03804835Y01685454D01*
X03804835Y01713759D01*
X03815666Y01739909D01*
X03835681Y01759924D01*
X03861832Y01770756D01*
X03890137Y01770756D01*
X03916287Y01759924D01*
X03936302Y01739909D01*
X03947134Y01713759D01*
X03947134Y01685454D01*
X03944811Y01679845D02*
X03991823Y01679845D01*
X03975824Y01663846D02*
X03938184Y01663846D01*
X03924847Y01647848D02*
X03967629Y01647848D01*
X03962315Y01631849D02*
X03898328Y01631849D01*
X03918878Y01599852D02*
X03965157Y01599852D01*
X03962315Y01615851D02*
X03789653Y01615851D01*
X03789653Y01631849D02*
X03853641Y01631849D01*
X03827122Y01647848D02*
X03784339Y01647848D01*
X03776144Y01663846D02*
X03813785Y01663846D01*
X03807158Y01679845D02*
X03760146Y01679845D01*
X03743871Y01711842D02*
X03804835Y01711842D01*
X03804835Y01695844D02*
X03496000Y01695844D01*
X03496000Y01711842D02*
X03693137Y01711842D01*
X03704351Y01707197D02*
X03732656Y01707197D01*
X03758807Y01718029D01*
X03778822Y01738043D01*
X03789653Y01764194D01*
X03789653Y01792499D01*
X03778822Y01818649D01*
X03758807Y01838664D01*
X03732656Y01849496D01*
X03704351Y01849496D01*
X03678201Y01838664D01*
X03658186Y01818649D01*
X03647354Y01792499D01*
X03647354Y01764194D01*
X03658186Y01738043D01*
X03678201Y01718029D01*
X03704351Y01707197D01*
X03676862Y01679845D02*
X03496000Y01679845D01*
X03496000Y01663846D02*
X03660864Y01663846D01*
X03652668Y01647848D02*
X03496495Y01647848D01*
X03512493Y01631849D02*
X03647354Y01631849D01*
X03647354Y01615851D02*
X03528492Y01615851D01*
X03544491Y01599852D02*
X03650196Y01599852D01*
X03656823Y01583854D02*
X03560229Y01583854D01*
X03512058Y01535858D02*
X03261000Y01535858D01*
X03261000Y01519860D02*
X03528057Y01519860D01*
X03496060Y01551857D02*
X03261000Y01551857D01*
X03261000Y01567855D02*
X03480321Y01567855D01*
X03464323Y01583854D02*
X03261000Y01583854D01*
X03261000Y01599852D02*
X03448324Y01599852D01*
X03432824Y01615851D02*
X03261000Y01615851D01*
X03261000Y01631849D02*
X03428000Y01631849D01*
X03428000Y01647848D02*
X03261000Y01647848D01*
X03261000Y01663846D02*
X03428000Y01663846D01*
X03428000Y01679845D02*
X03261000Y01679845D01*
X03261000Y01695844D02*
X03428000Y01695844D01*
X03428000Y01711842D02*
X03261000Y01711842D01*
X03261000Y01727841D02*
X03428000Y01727841D01*
X03428000Y01743839D02*
X03261000Y01743839D01*
X03261000Y01759838D02*
X03428000Y01759838D01*
X03428000Y01775836D02*
X03261000Y01775836D01*
X03261000Y01791835D02*
X03428000Y01791835D01*
X03428000Y01807833D02*
X03261000Y01807833D01*
X03261000Y01823832D02*
X03428000Y01823832D01*
X03428000Y01839830D02*
X03261000Y01839830D01*
X03261000Y01855829D02*
X03428000Y01855829D01*
X03428000Y01871827D02*
X03261000Y01871827D01*
X03261000Y01887826D02*
X03428000Y01887826D01*
X03428000Y01903824D02*
X03261000Y01903824D01*
X03260967Y01919823D02*
X03428000Y01919823D01*
X03428000Y01935821D02*
X03250090Y01935821D01*
X03234092Y01951820D02*
X03428000Y01951820D01*
X03428000Y01967818D02*
X03218093Y01967818D01*
X03202094Y01983817D02*
X03428000Y01983817D01*
X03428000Y01999815D02*
X03186096Y01999815D01*
X03170097Y02015814D02*
X03428000Y02015814D01*
X03428000Y02031813D02*
X03154099Y02031813D01*
X03142000Y02047811D02*
X03428000Y02047811D01*
X03428000Y02063810D02*
X03142000Y02063810D01*
X03140264Y02079808D02*
X03428000Y02079808D01*
X03428000Y02095807D02*
X03142000Y02095807D01*
X03142000Y02111805D02*
X03428000Y02111805D01*
X03428000Y02127804D02*
X03132652Y02127804D01*
X03083624Y02143802D02*
X03428000Y02143802D01*
X03428000Y02159801D02*
X03067626Y02159801D01*
X03051627Y02175799D02*
X03428000Y02175799D01*
X03428000Y02191798D02*
X03035629Y02191798D01*
X03019630Y02207796D02*
X03428000Y02207796D01*
X03428000Y02223795D02*
X03003632Y02223795D01*
X02987633Y02239793D02*
X03428000Y02239793D01*
X03147000Y01950000D02*
X03085000Y01950000D01*
X03147000Y01950000D02*
X03217000Y01880000D01*
X03217000Y00986000D01*
X03217000Y00964113D01*
X03287113Y00894000D01*
X03418226Y00894000D01*
X03444000Y00868226D01*
X03444000Y00831774D01*
X03400000Y00787774D01*
X03400000Y00750000D01*
X03219000Y00569000D01*
X03105000Y00569000D01*
X03060000Y00614000D01*
X03060000Y00638000D01*
X03029000Y00638000D02*
X03029000Y00710000D01*
X03030000Y00711000D01*
X03054201Y00752000D02*
X03077201Y00729000D01*
X03104000Y00729000D01*
X03112000Y00721000D01*
X03271000Y00721000D01*
X03300000Y00750000D01*
X03344000Y00731774D02*
X03304000Y00691774D01*
X03304000Y00690000D01*
X03112000Y00690000D01*
X03159000Y00747000D02*
X03159000Y00801456D01*
X03158540Y00801915D01*
X03159000Y00803630D01*
X03159000Y00815999D01*
X03112001Y00815999D01*
X03112001Y00816000D01*
X03159000Y00816000D01*
X03159000Y00828370D01*
X03158752Y00829296D01*
X03159000Y00829544D01*
X03159000Y00867420D01*
X03159565Y00867654D01*
X03166317Y00874405D01*
X03166595Y00874683D01*
X03173346Y00881435D01*
X03177000Y00890256D01*
X03177000Y00901231D01*
X03230000Y00848230D01*
X03230000Y00826602D01*
X03233958Y00817047D01*
X03241272Y00809733D01*
X03266561Y00784443D01*
X03252000Y00769882D01*
X03252000Y00747000D01*
X03159000Y00747000D01*
X03159000Y00751931D02*
X03252000Y00751931D01*
X03252000Y00767929D02*
X03159000Y00767929D01*
X03159000Y00783928D02*
X03266046Y00783928D01*
X03251079Y00799926D02*
X03159000Y00799926D01*
X03159000Y00815925D02*
X03235080Y00815925D01*
X03230000Y00831923D02*
X03159000Y00831923D01*
X03159000Y00847922D02*
X03230000Y00847922D01*
X03214310Y00863920D02*
X03159000Y00863920D01*
X03166317Y00874405D02*
X03166317Y00874405D01*
X03166595Y00874683D02*
X03166595Y00874683D01*
X03171830Y00879919D02*
X03198312Y00879919D01*
X03182313Y00895917D02*
X03177000Y00895917D01*
X03173000Y00942000D02*
X03173000Y01807000D01*
X03130000Y01850000D01*
X03085000Y01850000D01*
X03086000Y01899000D02*
X03085000Y01900000D01*
X03086000Y01899000D02*
X03144000Y01899000D01*
X03195000Y01848000D01*
X03195000Y00955000D01*
X03300000Y00850000D01*
X03256000Y00859000D02*
X03173000Y00942000D01*
X03243000Y00974882D02*
X03243000Y01073059D01*
X03318059Y00998000D01*
X03302000Y00998000D01*
X03302000Y00952001D01*
X03298000Y00952001D01*
X03298000Y00998000D01*
X03280118Y00998000D01*
X03252000Y00969882D01*
X03252000Y00965882D01*
X03243000Y00974882D01*
X03243000Y00975910D02*
X03258028Y00975910D01*
X03243000Y00991908D02*
X03274026Y00991908D01*
X03298000Y00991908D02*
X03302000Y00991908D01*
X03302000Y00975910D02*
X03298000Y00975910D01*
X03298000Y00959911D02*
X03302000Y00959911D01*
X03302001Y00952000D02*
X03348000Y00952000D01*
X03348000Y00968059D01*
X03352000Y00964059D01*
X03352000Y00930118D01*
X03362118Y00920000D01*
X03337882Y00920000D01*
X03348000Y00930118D01*
X03348000Y00948000D01*
X03302001Y00948000D01*
X03302001Y00952000D01*
X03348000Y00959911D02*
X03352000Y00959911D01*
X03352000Y00943913D02*
X03348000Y00943913D01*
X03345796Y00927914D02*
X03354203Y00927914D01*
X03437079Y00911916D02*
X04222000Y00911916D01*
X04222000Y00927914D02*
X03445796Y00927914D01*
X03448000Y00943913D02*
X04222000Y00943913D01*
X04222000Y00959911D02*
X03448000Y00959911D01*
X03441972Y00975910D02*
X04222000Y00975910D01*
X04222000Y00991908D02*
X03425974Y00991908D01*
X03376034Y01007907D02*
X04222000Y01007907D01*
X04222000Y01023906D02*
X03360035Y01023906D01*
X03344037Y01039904D02*
X04222000Y01039904D01*
X04222000Y01055903D02*
X03328038Y01055903D01*
X03312040Y01071901D02*
X04222000Y01071901D01*
X04222000Y01087900D02*
X03296041Y01087900D01*
X03280043Y01103898D02*
X04222000Y01103898D01*
X04222000Y01119897D02*
X03264044Y01119897D01*
X03261000Y01135895D02*
X03848721Y01135895D01*
X03848029Y01136182D02*
X03878940Y01123378D01*
X03912398Y01123378D01*
X03943309Y01136182D01*
X03966968Y01159840D01*
X03979772Y01190751D01*
X03979772Y01224209D01*
X03966968Y01255120D01*
X03943309Y01278779D01*
X03912398Y01291583D01*
X03878940Y01291583D01*
X03848029Y01278779D01*
X03824371Y01255120D01*
X03811567Y01224209D01*
X03811567Y01190751D01*
X03824371Y01159840D01*
X03848029Y01136182D01*
X03832317Y01151894D02*
X03261000Y01151894D01*
X03261000Y01167892D02*
X03821035Y01167892D01*
X03814409Y01183891D02*
X03261000Y01183891D01*
X03261000Y01199889D02*
X03811567Y01199889D01*
X03811567Y01215888D02*
X03261000Y01215888D01*
X03261000Y01231886D02*
X03814747Y01231886D01*
X03821374Y01247885D02*
X03261000Y01247885D01*
X03261000Y01263883D02*
X03833134Y01263883D01*
X03850692Y01279882D02*
X03261000Y01279882D01*
X03261000Y01295880D02*
X04222000Y01295880D01*
X04222000Y01279882D02*
X03940646Y01279882D01*
X03958205Y01263883D02*
X04222000Y01263883D01*
X04222000Y01247885D02*
X03969965Y01247885D01*
X03976592Y01231886D02*
X04222000Y01231886D01*
X04222000Y01215888D02*
X03979772Y01215888D01*
X03979772Y01199889D02*
X04222000Y01199889D01*
X04222000Y01183891D02*
X03976930Y01183891D01*
X03970303Y01167892D02*
X04222000Y01167892D01*
X04222000Y01151894D02*
X03959021Y01151894D01*
X03942618Y01135895D02*
X04222000Y01135895D01*
X04222000Y01311879D02*
X03261000Y01311879D01*
X03261000Y01327877D02*
X04222000Y01327877D01*
X04222000Y01343876D02*
X03261000Y01343876D01*
X03261000Y01359875D02*
X04222000Y01359875D01*
X04222000Y01375873D02*
X03261000Y01375873D01*
X03261000Y01391872D02*
X04222000Y01391872D01*
X04222000Y01407870D02*
X04078570Y01407870D01*
X04073767Y01403068D02*
X04093782Y01423083D01*
X04104614Y01449233D01*
X04104614Y01477538D01*
X04093782Y01503689D01*
X04073767Y01523703D01*
X04047617Y01534535D01*
X04019312Y01534535D01*
X03993162Y01523703D01*
X03973147Y01503689D01*
X03962315Y01477538D01*
X03962315Y01449233D01*
X03973147Y01423083D01*
X03993162Y01403068D01*
X04019312Y01392236D01*
X04047617Y01392236D01*
X04073767Y01403068D01*
X04094108Y01423869D02*
X04222000Y01423869D01*
X04222000Y01439867D02*
X04100734Y01439867D01*
X04104614Y01455866D02*
X04222000Y01455866D01*
X04222000Y01471864D02*
X04104614Y01471864D01*
X04100338Y01487863D02*
X04222000Y01487863D01*
X04222000Y01503861D02*
X04093610Y01503861D01*
X04077611Y01519860D02*
X04222000Y01519860D01*
X04222000Y01535858D02*
X03947134Y01535858D01*
X03947134Y01551857D02*
X04014145Y01551857D01*
X03985855Y01567855D02*
X03942339Y01567855D01*
X03934877Y01583854D02*
X03971784Y01583854D01*
X03989318Y01519860D02*
X03943773Y01519860D01*
X03937146Y01503861D02*
X03973319Y01503861D01*
X03966592Y01487863D02*
X03922342Y01487863D01*
X03892280Y01471864D02*
X03962315Y01471864D01*
X03962315Y01455866D02*
X03726504Y01455866D01*
X03726504Y01439867D02*
X03710504Y01439867D01*
X03710504Y01423869D02*
X03726504Y01423869D01*
X03726504Y01407870D02*
X03710504Y01407870D01*
X03673977Y01407870D02*
X03261000Y01407870D01*
X03261000Y01423869D02*
X03659163Y01423869D01*
X03651234Y01439867D02*
X03261000Y01439867D01*
X03261000Y01455866D02*
X03710503Y01455866D01*
X03647857Y01471864D02*
X03261000Y01471864D01*
X03261000Y01487863D02*
X03651631Y01487863D01*
X03659880Y01503861D02*
X03261000Y01503861D01*
X03496000Y01727841D02*
X03668389Y01727841D01*
X03655785Y01743839D02*
X03496000Y01743839D01*
X03496000Y01759838D02*
X03649159Y01759838D01*
X03647354Y01775836D02*
X03496000Y01775836D01*
X03496000Y01791835D02*
X03647354Y01791835D01*
X03653706Y01807833D02*
X03496000Y01807833D01*
X03496000Y01823832D02*
X03663368Y01823832D01*
X03681016Y01839830D02*
X03496000Y01839830D01*
X03755992Y01839830D02*
X03995977Y01839830D01*
X03978329Y01823832D02*
X03773639Y01823832D01*
X03783302Y01807833D02*
X03968667Y01807833D01*
X03962315Y01791835D02*
X03789653Y01791835D01*
X03789653Y01775836D02*
X03962315Y01775836D01*
X03964119Y01759838D02*
X03916374Y01759838D01*
X03932372Y01743839D02*
X03970746Y01743839D01*
X03983350Y01727841D02*
X03941301Y01727841D01*
X03947134Y01711842D02*
X04008097Y01711842D01*
X04091105Y01663846D02*
X04222000Y01663846D01*
X04222000Y01647848D02*
X04099300Y01647848D01*
X04104614Y01631849D02*
X04222000Y01631849D01*
X04222000Y01615851D02*
X04104614Y01615851D01*
X04101772Y01599852D02*
X04222000Y01599852D01*
X04222000Y01583854D02*
X04095145Y01583854D01*
X04081074Y01567855D02*
X04222000Y01567855D01*
X04222000Y01551857D02*
X04052784Y01551857D01*
X03966194Y01439867D02*
X03785774Y01439867D01*
X03777845Y01423869D02*
X03972821Y01423869D01*
X03988359Y01407870D02*
X03763030Y01407870D01*
X03789151Y01471864D02*
X03859688Y01471864D01*
X03829627Y01487863D02*
X03785377Y01487863D01*
X03777128Y01503861D02*
X03814822Y01503861D01*
X03817091Y01583854D02*
X03780185Y01583854D01*
X03786811Y01599852D02*
X03833090Y01599852D01*
X03810668Y01727841D02*
X03768619Y01727841D01*
X03781222Y01743839D02*
X03819596Y01743839D01*
X03835595Y01759838D02*
X03787849Y01759838D01*
X03244158Y01071901D02*
X03243000Y01071901D01*
X03243000Y01055903D02*
X03260156Y01055903D01*
X03276155Y01039904D02*
X03243000Y01039904D01*
X03243000Y01023906D02*
X03292153Y01023906D01*
X03308152Y01007907D02*
X03243000Y01007907D01*
X03256000Y00859000D02*
X03256000Y00831774D01*
X03281774Y00806000D01*
X03318226Y00806000D01*
X03362226Y00850000D01*
X03400000Y00850000D01*
X03344000Y00794000D01*
X03344000Y00731774D01*
X03374706Y00687937D02*
X04222000Y00687937D01*
X04222000Y00703935D02*
X03421817Y00703935D01*
X03437816Y00719934D02*
X04222000Y00719934D01*
X04222000Y00735932D02*
X03448000Y00735932D01*
X03448000Y00751931D02*
X04222000Y00751931D01*
X04222000Y00767929D02*
X03448000Y00767929D01*
X03433954Y00783928D02*
X04222000Y00783928D01*
X04222000Y00799926D02*
X03448921Y00799926D01*
X03464920Y00815925D02*
X04222000Y00815925D01*
X04222000Y00831923D02*
X03470000Y00831923D01*
X03470000Y00847922D02*
X04222000Y00847922D01*
X04222000Y00863920D02*
X03470000Y00863920D01*
X03467299Y00879919D02*
X04222000Y00879919D01*
X04222000Y00895917D02*
X03453078Y00895917D01*
X03358707Y00671938D02*
X04222000Y00671938D01*
X04222000Y00655939D02*
X03342709Y00655939D01*
X03326710Y00639941D02*
X04222000Y00639941D01*
X04222000Y00623942D02*
X03310712Y00623942D01*
X03294713Y00607944D02*
X04222000Y00607944D01*
X04222000Y00591945D02*
X03278715Y00591945D01*
X03262716Y00575947D02*
X04222000Y00575947D01*
X04222000Y00559948D02*
X03246718Y00559948D01*
X03226465Y00543950D02*
X04222000Y00543950D01*
X04222000Y00527951D02*
X02927000Y00527951D01*
X02927000Y00511953D02*
X04222000Y00511953D01*
X04222000Y00495954D02*
X02926059Y00495954D01*
X02913897Y00479956D02*
X04222000Y00479956D01*
X04222000Y00463957D02*
X02897898Y00463957D01*
X02881900Y00447959D02*
X04222000Y00447959D01*
X04222000Y00431960D02*
X02865901Y00431960D01*
X02849903Y00415962D02*
X04222000Y00415962D01*
X04222000Y00399963D02*
X02833904Y00399963D01*
X02820346Y00386405D02*
X02820346Y00386405D01*
X02817906Y00383965D02*
X04222000Y00383965D01*
X04222000Y00367966D02*
X01457764Y00367966D01*
X01457764Y00383965D02*
X02635094Y00383965D01*
X02619096Y00399963D02*
X01457764Y00399963D01*
X01429638Y00442606D02*
X01429638Y00535098D01*
X01337146Y00442606D01*
X01355117Y00442606D01*
X01355117Y00436283D01*
X01355118Y00436282D01*
X01355119Y00436283D01*
X01355119Y00442606D01*
X01429638Y00442606D01*
X01429638Y00447959D02*
X01342498Y00447959D01*
X01358497Y00463957D02*
X01429638Y00463957D01*
X01429638Y00479956D02*
X01374495Y00479956D01*
X01390494Y00495954D02*
X01429638Y00495954D01*
X01429638Y00511953D02*
X01406492Y00511953D01*
X01422491Y00527951D02*
X01429638Y00527951D01*
X01470487Y00575947D02*
X02584000Y00575947D01*
X02584000Y00591945D02*
X01486485Y00591945D01*
X01502484Y00607944D02*
X02584000Y00607944D01*
X02584000Y00623942D02*
X01518482Y00623942D01*
X01534481Y00639941D02*
X02584000Y00639941D01*
X02568614Y00655939D02*
X02429985Y00655939D01*
X02431386Y00671938D02*
X02568614Y00671938D01*
X02584000Y00559948D02*
X01543460Y00559948D01*
X01544378Y00543950D02*
X02584000Y00543950D01*
X02584000Y00527951D02*
X01544378Y00527951D01*
X01544378Y00511953D02*
X02584000Y00511953D01*
X02584000Y00495954D02*
X01544378Y00495954D01*
X01544378Y00479956D02*
X02584000Y00479956D01*
X02584000Y00463957D02*
X01544378Y00463957D01*
X01544378Y00447959D02*
X02584000Y00447959D01*
X02587424Y00431960D02*
X01544378Y00431960D01*
X01534331Y00415962D02*
X02603097Y00415962D01*
X02731000Y00599000D02*
X02731000Y00633000D01*
X02788000Y00690000D01*
X02788000Y00721000D02*
X02738000Y00721000D01*
X02699000Y00760000D01*
X02687858Y00788820D02*
X02687858Y00828555D01*
X02684204Y00837376D01*
X02652424Y00869157D01*
X02651858Y00869391D01*
X02651858Y00894267D01*
X02646125Y00900000D01*
X02651858Y00905733D01*
X02651858Y00944267D01*
X02646125Y00950000D01*
X02651858Y00955733D01*
X02651858Y00956230D01*
X02740435Y00867654D01*
X02741000Y00867420D01*
X02741000Y00861544D01*
X02741460Y00861085D01*
X02741000Y00859370D01*
X02741000Y00847000D01*
X02787999Y00847000D01*
X02787999Y00846999D01*
X02741000Y00846999D01*
X02741000Y00834630D01*
X02741248Y00833704D01*
X02741000Y00833456D01*
X02741000Y00831088D01*
X02738473Y00830042D01*
X02730272Y00821841D01*
X02722958Y00814527D01*
X02719000Y00804971D01*
X02719000Y00783684D01*
X02716498Y00786187D01*
X02705144Y00790890D01*
X02692856Y00790890D01*
X02687858Y00788820D01*
X02687858Y00799926D02*
X02719000Y00799926D01*
X02719000Y00783928D02*
X02718757Y00783928D01*
X02745000Y00768201D02*
X02761000Y00752201D01*
X02761000Y00752000D01*
X02787000Y00752000D01*
X02950000Y00752000D01*
X03054201Y00752000D01*
X03065000Y00775669D02*
X03059373Y00778000D01*
X02967685Y00778000D01*
X02967498Y00778187D01*
X02956144Y00782890D01*
X02943856Y00782890D01*
X02932502Y00778187D01*
X02932315Y00778000D01*
X02835000Y00778000D01*
X02835000Y00783999D01*
X02789998Y00783999D01*
X02790001Y00784000D01*
X02835000Y00784000D01*
X02835000Y00796370D01*
X02834540Y00798085D01*
X02835000Y00798544D01*
X02835000Y00833456D01*
X02834752Y00833704D01*
X02835000Y00834630D01*
X02835000Y00846999D01*
X02788001Y00846999D01*
X02788001Y00847000D01*
X02835000Y00847000D01*
X02835000Y00859370D01*
X02834540Y00861085D01*
X02835000Y00861544D01*
X02835000Y00915000D01*
X02910000Y00915000D01*
X02910000Y00914379D01*
X02913654Y00905558D01*
X02920405Y00898807D01*
X02946000Y00873212D01*
X02946000Y00870119D01*
X02950703Y00858766D01*
X02959392Y00850076D01*
X02970745Y00845374D01*
X02983034Y00845374D01*
X02994387Y00850076D01*
X03003077Y00858766D01*
X03007779Y00870119D01*
X03007779Y00882408D01*
X03003077Y00893761D01*
X02994387Y00902450D01*
X02983034Y00907153D01*
X02979941Y00907153D01*
X02972094Y00915000D01*
X03065000Y00915000D01*
X03065000Y00829544D01*
X03065248Y00829296D01*
X03065000Y00828370D01*
X03065000Y00816000D01*
X03111999Y00816000D01*
X03111999Y00815999D01*
X03065000Y00815999D01*
X03065000Y00803630D01*
X03065460Y00801915D01*
X03065000Y00801456D01*
X03065000Y00775669D01*
X03065000Y00783928D02*
X02835000Y00783928D01*
X02835000Y00799926D02*
X03065000Y00799926D01*
X03065000Y00815925D02*
X02835000Y00815925D01*
X02835000Y00831923D02*
X03065000Y00831923D01*
X03065000Y00847922D02*
X02989186Y00847922D01*
X03005212Y00863920D02*
X03065000Y00863920D01*
X03065000Y00879919D02*
X03007779Y00879919D01*
X03000920Y00895917D02*
X03065000Y00895917D01*
X03065000Y00911916D02*
X02975178Y00911916D01*
X02939293Y00879919D02*
X02835000Y00879919D01*
X02835000Y00895917D02*
X02923295Y00895917D01*
X02911020Y00911916D02*
X02835000Y00911916D01*
X02835000Y00863920D02*
X02948567Y00863920D01*
X02964593Y00847922D02*
X02835000Y00847922D01*
X02833000Y00846000D02*
X02895000Y00784000D01*
X03040000Y00784000D01*
X03072000Y00816000D01*
X03112000Y00816000D01*
X02895000Y00784000D02*
X02788000Y00784000D01*
X02780000Y00808000D02*
X02753201Y00808000D01*
X02745000Y00799799D01*
X02745000Y00768201D01*
X02787000Y00752000D02*
X02788000Y00753000D01*
X02780000Y00808000D02*
X02788000Y00816000D01*
X02789000Y00846000D02*
X02833000Y00846000D01*
X02789000Y00846000D02*
X02788000Y00847000D01*
X02741000Y00847922D02*
X02673659Y00847922D01*
X02686463Y00831923D02*
X02741000Y00831923D01*
X02724356Y00815925D02*
X02687858Y00815925D01*
X02657660Y00863920D02*
X02741000Y00863920D01*
X02728170Y00879919D02*
X02651858Y00879919D01*
X02650208Y00895917D02*
X02712171Y00895917D01*
X02696172Y00911916D02*
X02651858Y00911916D01*
X02651858Y00927914D02*
X02680174Y00927914D01*
X02664175Y00943913D02*
X02651858Y00943913D01*
X02472110Y01075000D02*
X02329596Y01075000D01*
X02576675Y01322079D01*
X02579768Y01322079D01*
X02591122Y01326781D01*
X02599811Y01335471D01*
X02604514Y01346824D01*
X02604514Y01351770D01*
X02611502Y01344781D01*
X02622856Y01340079D01*
X02635144Y01340079D01*
X02645189Y01344239D01*
X02645189Y01334244D01*
X02646416Y01329666D01*
X02648785Y01325562D01*
X02652137Y01322211D01*
X02656241Y01319841D01*
X02660819Y01318614D01*
X02674999Y01318614D01*
X02674999Y01360235D01*
X02675000Y01360235D01*
X02675000Y01318614D01*
X02689181Y01318614D01*
X02693759Y01319841D01*
X02697863Y01322211D01*
X02700000Y01324347D01*
X02705733Y01318614D01*
X02707445Y01318614D01*
X02752059Y01274000D01*
X02729226Y01274000D01*
X02720405Y01270346D01*
X02713654Y01263595D01*
X02661405Y01211346D01*
X02654654Y01204595D01*
X02651000Y01195774D01*
X02651000Y01176653D01*
X02645189Y01170842D01*
X02645189Y01111000D01*
X02559119Y01111000D01*
X02558959Y01111387D01*
X02550269Y01120077D01*
X02538916Y01124779D01*
X02526627Y01124779D01*
X02515274Y01120077D01*
X02506585Y01111387D01*
X02504676Y01106779D01*
X02496856Y01106779D01*
X02485502Y01102077D01*
X02476813Y01093387D01*
X02472110Y01082034D01*
X02472110Y01075000D01*
X02474540Y01087900D02*
X02342496Y01087900D01*
X02358495Y01103898D02*
X02489900Y01103898D01*
X02515094Y01119897D02*
X02374493Y01119897D01*
X02390492Y01135895D02*
X02645189Y01135895D01*
X02645189Y01119897D02*
X02550449Y01119897D01*
X02645189Y01151894D02*
X02406490Y01151894D01*
X02422489Y01167892D02*
X02645189Y01167892D01*
X02651000Y01183891D02*
X02438487Y01183891D01*
X02454486Y01199889D02*
X02652705Y01199889D01*
X02665947Y01215888D02*
X02470484Y01215888D01*
X02486483Y01231886D02*
X02681945Y01231886D01*
X02697944Y01247885D02*
X02502481Y01247885D01*
X02518480Y01263883D02*
X02713942Y01263883D01*
X02730178Y01295880D02*
X02550477Y01295880D01*
X02534478Y01279882D02*
X02746177Y01279882D01*
X02714180Y01311879D02*
X02566475Y01311879D01*
X02592218Y01327877D02*
X02647448Y01327877D01*
X02645189Y01343876D02*
X02644312Y01343876D01*
X02613688Y01343876D02*
X02603292Y01343876D01*
X02674999Y01343876D02*
X02675000Y01343876D01*
X02674999Y01359875D02*
X02675000Y01359875D01*
X02674999Y01327877D02*
X02675000Y01327877D01*
X02611331Y01423869D02*
X02360072Y01423869D01*
X02344074Y01439867D02*
X02616235Y01439867D01*
X02533929Y01407870D02*
X02376071Y01407870D01*
X02392069Y01391872D02*
X02517930Y01391872D01*
X02459270Y01333211D02*
X02397563Y01333211D01*
X02388015Y01333211D01*
X02379194Y01336865D01*
X02082654Y01633405D01*
X02079000Y01642226D01*
X02079000Y01672258D01*
X02060913Y01690345D01*
X02060913Y01688164D01*
X02060913Y01688164D01*
X02060913Y01655119D01*
X02054590Y01655119D01*
X02054590Y01655118D01*
X02054590Y01655117D01*
X02060913Y01655117D01*
X02060913Y01646843D01*
X02060493Y01645275D01*
X02060913Y01643708D01*
X02060913Y01635434D01*
X02054590Y01635434D01*
X02054590Y01635433D01*
X02054590Y01635432D01*
X02060913Y01635432D01*
X02060913Y01629109D01*
X02060913Y01629109D01*
X02060913Y01497638D01*
X02054590Y01497638D01*
X02054590Y01497638D01*
X02054590Y01497637D01*
X02060913Y01497637D01*
X02060913Y01491314D01*
X02060913Y01402837D01*
X02068067Y01399874D01*
X02096346Y01371595D01*
X02100000Y01362774D01*
X02100000Y01333064D01*
X02102187Y01330877D01*
X02106890Y01319524D01*
X02106890Y01307235D01*
X02103597Y01299287D01*
X02105787Y01297097D01*
X02110489Y01285744D01*
X02110489Y01273455D01*
X02110105Y01272527D01*
X02170645Y01272527D01*
X02175000Y01268172D01*
X02179355Y01272527D01*
X02182402Y01272527D01*
X02182402Y01277152D01*
X02182110Y01277856D01*
X02182110Y01290144D01*
X02186813Y01301498D01*
X02195502Y01310187D01*
X02206856Y01314890D01*
X02219144Y01314890D01*
X02230498Y01310187D01*
X02239187Y01301498D01*
X02243890Y01290144D01*
X02243890Y01277856D01*
X02242401Y01274263D01*
X02242401Y01272527D01*
X02245448Y01272527D01*
X02255992Y01261983D01*
X02255992Y01188016D01*
X02245448Y01177472D01*
X02179355Y01177472D01*
X02175000Y01181828D01*
X02170645Y01177472D01*
X02141801Y01177472D01*
X02148498Y01174699D01*
X02157187Y01166009D01*
X02161890Y01154656D01*
X02161890Y01147622D01*
X02273681Y01147622D01*
X02459270Y01333211D01*
X02453937Y01327877D02*
X02103430Y01327877D01*
X02100000Y01343876D02*
X02372183Y01343876D01*
X02356184Y01359875D02*
X02100000Y01359875D01*
X02092068Y01375873D02*
X02340186Y01375873D01*
X02324187Y01391872D02*
X02076069Y01391872D01*
X02060913Y01407870D02*
X02308189Y01407870D01*
X02292190Y01423869D02*
X02060913Y01423869D01*
X02060913Y01439867D02*
X02276192Y01439867D01*
X02260193Y01455866D02*
X02060913Y01455866D01*
X02060913Y01471864D02*
X02244195Y01471864D01*
X02228196Y01487863D02*
X02060913Y01487863D01*
X02060913Y01503861D02*
X02212198Y01503861D01*
X02196199Y01519860D02*
X02060913Y01519860D01*
X02060913Y01535858D02*
X02180201Y01535858D01*
X02164202Y01551857D02*
X02060913Y01551857D01*
X02060913Y01567855D02*
X02148203Y01567855D01*
X02132205Y01583854D02*
X02060913Y01583854D01*
X02060913Y01599852D02*
X02116206Y01599852D01*
X02100208Y01615851D02*
X02060913Y01615851D01*
X02060913Y01631849D02*
X02084209Y01631849D01*
X02079000Y01647848D02*
X02060913Y01647848D01*
X02060913Y01663846D02*
X02079000Y01663846D01*
X02071413Y01679845D02*
X02060913Y01679845D01*
X02023229Y01698803D02*
X02023228Y01698803D01*
X02023228Y01718394D01*
X02001173Y01718394D01*
X01996595Y01717167D01*
X01992491Y01714797D01*
X01989140Y01711446D01*
X01986770Y01707341D01*
X01985543Y01702763D01*
X01985543Y01699000D01*
X01983226Y01699000D01*
X01974405Y01695346D01*
X01968488Y01689429D01*
X01968488Y01778002D01*
X01968394Y01778230D01*
X01968394Y01782865D01*
X02032865Y01718394D01*
X02023229Y01718394D01*
X02023229Y01698803D01*
X02023228Y01711842D02*
X02023229Y01711842D01*
X02023418Y01727841D02*
X01968488Y01727841D01*
X01968488Y01743839D02*
X02007419Y01743839D01*
X01991421Y01759838D02*
X01968488Y01759838D01*
X01968488Y01775836D02*
X01975422Y01775836D01*
X01940345Y01810913D02*
X01933078Y01810913D01*
X01924804Y01810913D01*
X01924804Y01804590D01*
X01924803Y01804590D01*
X01924802Y01804590D01*
X01924802Y01810913D01*
X01916528Y01810913D01*
X01914961Y01810493D01*
X01913393Y01810913D01*
X01905119Y01810913D01*
X01905119Y01804590D01*
X01905118Y01804590D01*
X01905117Y01804590D01*
X01905117Y01810913D01*
X01827008Y01810913D01*
X01827008Y01828000D01*
X01845315Y01828000D01*
X01848502Y01824813D01*
X01859856Y01820110D01*
X01872144Y01820110D01*
X01883498Y01824813D01*
X01892187Y01833502D01*
X01896890Y01844856D01*
X01896890Y01854369D01*
X01940345Y01810913D01*
X01924804Y01807833D02*
X01924802Y01807833D01*
X01927427Y01823832D02*
X01881129Y01823832D01*
X01894808Y01839830D02*
X01911428Y01839830D01*
X01905117Y01807833D02*
X01905119Y01807833D01*
X01909338Y01773229D02*
X01920488Y01773229D01*
X01920488Y01773228D01*
X01909338Y01773228D01*
X01909338Y01773229D01*
X01850871Y01823832D02*
X01827008Y01823832D01*
X01781008Y01823832D02*
X01676573Y01823832D01*
X01680631Y01827890D02*
X01781008Y01827890D01*
X01781008Y01810913D01*
X01668898Y01810913D01*
X01668898Y01804590D01*
X01668898Y01804590D01*
X01668897Y01804590D01*
X01668897Y01810913D01*
X01663655Y01810913D01*
X01680631Y01827890D01*
X01668898Y01807833D02*
X01668897Y01807833D01*
X01627518Y01839830D02*
X01574787Y01839830D01*
X01574787Y01823832D02*
X01584305Y01823832D01*
X01574787Y01855829D02*
X01643516Y01855829D01*
X01659515Y01871827D02*
X01574787Y01871827D01*
X01574787Y01887826D02*
X01863433Y01887826D01*
X01847434Y01903824D02*
X01574787Y01903824D01*
X01526787Y01897933D02*
X01507681Y01917039D01*
X01488901Y01917039D01*
X01505595Y01900346D01*
X01512346Y01893595D01*
X01516000Y01884774D01*
X01516000Y01810913D01*
X01526787Y01810913D01*
X01526787Y01897933D01*
X01520896Y01903824D02*
X01502117Y01903824D01*
X01514736Y01887826D02*
X01526787Y01887826D01*
X01526787Y01871827D02*
X01516000Y01871827D01*
X01516000Y01855829D02*
X01526787Y01855829D01*
X01526787Y01839830D02*
X01516000Y01839830D01*
X01516000Y01823832D02*
X01526787Y01823832D01*
X01468000Y01823832D02*
X01404232Y01823832D01*
X01392539Y01839830D02*
X01468000Y01839830D01*
X01468000Y01855829D02*
X01032267Y01855829D01*
X01016268Y01871827D02*
X01466232Y01871827D01*
X01450233Y01887826D02*
X01000270Y01887826D01*
X00984271Y01903824D02*
X01320896Y01903824D01*
X01266139Y01919823D02*
X01183266Y01919823D01*
X01191622Y01935821D02*
X01258378Y01935821D01*
X01258378Y01951820D02*
X01191622Y01951820D01*
X01191622Y01967818D02*
X01258378Y01967818D01*
X01258378Y01983817D02*
X01191622Y01983817D01*
X01181177Y01999815D02*
X01268454Y01999815D01*
X01258378Y02015814D02*
X01191622Y02015814D01*
X01191622Y02031813D02*
X01258378Y02031813D01*
X01258378Y02047811D02*
X01191622Y02047811D01*
X01191622Y02063810D02*
X01258378Y02063810D01*
X01265770Y02079808D02*
X01184230Y02079808D01*
X01180000Y02095807D02*
X01336767Y02095807D01*
X01334230Y02079808D02*
X01345000Y02079808D01*
X01345000Y02063810D02*
X01341622Y02063810D01*
X01321146Y02041339D02*
X01300000Y02041339D01*
X01321146Y02041339D02*
X01364673Y01997811D01*
X01364787Y01997811D01*
X01400000Y01962598D01*
X01500000Y02041339D02*
X01521146Y02041339D01*
X01564673Y01997811D01*
X01564787Y01997811D01*
X01600000Y01962598D01*
X01647527Y01967818D02*
X01783440Y01967818D01*
X01799438Y01951820D02*
X01647527Y01951820D01*
X01647527Y01935821D02*
X01815437Y01935821D01*
X01831436Y01919823D02*
X01637798Y01919823D01*
X01647527Y01983817D02*
X01767441Y01983817D01*
X01751443Y01999815D02*
X01643357Y01999815D01*
X01647527Y02015814D02*
X01735444Y02015814D01*
X01719446Y02031813D02*
X01647527Y02031813D01*
X01647527Y02047811D02*
X01703447Y02047811D01*
X01687449Y02063810D02*
X01647527Y02063810D01*
X01638167Y02079808D02*
X01671450Y02079808D01*
X01655452Y02095807D02*
X01630890Y02095807D01*
X01628545Y02111805D02*
X01639453Y02111805D01*
X01623455Y02127804D02*
X01613595Y02127804D01*
X01607456Y02143802D02*
X01373624Y02143802D01*
X01357626Y02159801D02*
X01591458Y02159801D01*
X01575459Y02175799D02*
X01341627Y02175799D01*
X01325629Y02191798D02*
X01559461Y02191798D01*
X01543462Y02207796D02*
X01309630Y02207796D01*
X01293632Y02223795D02*
X01527464Y02223795D01*
X01511465Y02239793D02*
X01277633Y02239793D01*
X01261634Y02255792D02*
X01495467Y02255792D01*
X01479577Y02271790D02*
X01196185Y02271790D01*
X01142039Y02287789D02*
X01476000Y02287789D01*
X01476000Y02303787D02*
X01126040Y02303787D01*
X01110042Y02319786D02*
X01476000Y02319786D01*
X01476000Y02335784D02*
X01094043Y02335784D01*
X01078045Y02351783D02*
X01476000Y02351783D01*
X01476000Y02367781D02*
X01062046Y02367781D01*
X01046048Y02383780D02*
X01476000Y02383780D01*
X01476000Y02399779D02*
X01030049Y02399779D01*
X01025645Y02415777D02*
X01476000Y02415777D01*
X01476000Y02431776D02*
X01025645Y02431776D01*
X01025645Y02447774D02*
X01476000Y02447774D01*
X01476000Y02463773D02*
X01025645Y02463773D01*
X01025645Y02479771D02*
X01456409Y02479771D01*
X01459097Y02543765D02*
X01340437Y02543765D01*
X01340437Y02527767D02*
X01359563Y02527767D01*
X01359563Y02511768D02*
X01340437Y02511768D01*
X01340437Y02495770D02*
X01359563Y02495770D01*
X01354965Y02559764D02*
X01368918Y02559764D01*
X01322402Y02623758D02*
X01246000Y02623758D01*
X01246000Y02639756D02*
X01306404Y02639756D01*
X01299134Y02655755D02*
X01246000Y02655755D01*
X01246000Y02671753D02*
X01299134Y02671753D01*
X01299134Y02687752D02*
X01246000Y02687752D01*
X01246000Y02703750D02*
X01285754Y02703750D01*
X01275701Y02719749D02*
X01246000Y02719749D01*
X01246000Y02735748D02*
X01275701Y02735748D01*
X01275701Y02751746D02*
X01246000Y02751746D01*
X01246000Y02767745D02*
X01275701Y02767745D01*
X01275701Y02783743D02*
X01246000Y02783743D01*
X01246000Y02799742D02*
X01275701Y02799742D01*
X01275701Y02815740D02*
X01246000Y02815740D01*
X01246000Y02831739D02*
X01275701Y02831739D01*
X01275701Y02847737D02*
X01246000Y02847737D01*
X01246000Y02863736D02*
X01275701Y02863736D01*
X01275701Y02879734D02*
X01246000Y02879734D01*
X01246000Y02895733D02*
X01285238Y02895733D01*
X01256158Y02911731D02*
X01689500Y02911731D01*
X01689500Y02927730D02*
X01272156Y02927730D01*
X01288155Y02943728D02*
X01689500Y02943728D01*
X01426970Y02895733D02*
X01373030Y02895733D01*
X01382567Y02879734D02*
X01417433Y02879734D01*
X01417433Y02863736D02*
X01382567Y02863736D01*
X01382567Y02847737D02*
X01417433Y02847737D01*
X01417433Y02831739D02*
X01382567Y02831739D01*
X01382567Y02815740D02*
X01417433Y02815740D01*
X01417433Y02799742D02*
X01382567Y02799742D01*
X01382567Y02783743D02*
X01412183Y02783743D01*
X01396184Y02767745D02*
X01382567Y02767745D01*
X01421136Y02703750D02*
X01427486Y02703750D01*
X01421136Y02687752D02*
X01673084Y02687752D01*
X01668378Y02671753D02*
X01635986Y02671753D01*
X01645169Y02591761D02*
X01677092Y02591761D01*
X01673563Y02511768D02*
X01622765Y02511768D01*
X01941614Y02591761D02*
X01957092Y02591761D01*
X01957572Y02607759D02*
X01940783Y02607759D01*
X01267296Y03007722D02*
X00028000Y03007722D01*
X00028000Y02991724D02*
X01251297Y02991724D01*
X01235299Y02975725D02*
X00028000Y02975725D01*
X00028000Y02959727D02*
X01219300Y02959727D01*
X01203302Y02943728D02*
X00874154Y02943728D01*
X00869882Y02948000D02*
X00852000Y02948000D01*
X00852000Y02902001D01*
X00848000Y02902001D01*
X00848000Y02948000D01*
X00830118Y02948000D01*
X00802000Y02919882D01*
X00802000Y02902000D01*
X00847999Y02902000D01*
X00847999Y02898000D01*
X00802000Y02898000D01*
X00802000Y02880118D01*
X00830118Y02852000D01*
X00848000Y02852000D01*
X00848000Y02897999D01*
X00852000Y02897999D01*
X00852000Y02852000D01*
X00869882Y02852000D01*
X00898000Y02880118D01*
X00898000Y02898000D01*
X00852001Y02898000D01*
X00852001Y02902000D01*
X00898000Y02902000D01*
X00898000Y02919882D01*
X00869882Y02948000D01*
X00852000Y02943728D02*
X00848000Y02943728D01*
X00848000Y02927730D02*
X00852000Y02927730D01*
X00852000Y02911731D02*
X00848000Y02911731D01*
X00848000Y02895733D02*
X00852000Y02895733D01*
X00852000Y02879734D02*
X00848000Y02879734D01*
X00848000Y02863736D02*
X00852000Y02863736D01*
X00870145Y02847737D02*
X01186000Y02847737D01*
X01186000Y02831739D02*
X01080992Y02831739D01*
X01080992Y02815740D02*
X01186000Y02815740D01*
X01186000Y02799742D02*
X01080992Y02799742D01*
X01080992Y02783743D02*
X01186000Y02783743D01*
X01186000Y02767745D02*
X01080992Y02767745D01*
X01067401Y02751746D02*
X01186000Y02751746D01*
X01186000Y02735748D02*
X01080992Y02735748D01*
X01080992Y02719749D02*
X01186000Y02719749D01*
X01186000Y02703750D02*
X01080992Y02703750D01*
X01080992Y02687752D02*
X01186000Y02687752D01*
X01186000Y02671753D02*
X01080992Y02671753D01*
X01073730Y02655755D02*
X01186000Y02655755D01*
X01186000Y02639756D02*
X01025645Y02639756D01*
X01025645Y02623758D02*
X01186000Y02623758D01*
X01186000Y02607759D02*
X01025645Y02607759D01*
X01025645Y02591761D02*
X01186000Y02591761D01*
X01186000Y02575762D02*
X01025645Y02575762D01*
X01025645Y02559764D02*
X01186000Y02559764D01*
X01186000Y02543765D02*
X01025645Y02543765D01*
X01025645Y02527767D02*
X01186000Y02527767D01*
X01188595Y02511768D02*
X01025645Y02511768D01*
X01025645Y02495770D02*
X01201804Y02495770D01*
X01246000Y02543765D02*
X01257193Y02543765D01*
X01257193Y02559764D02*
X01246000Y02559764D01*
X01246000Y02575762D02*
X01257193Y02575762D01*
X01257193Y02591761D02*
X01246000Y02591761D01*
X01246000Y02607759D02*
X01259268Y02607759D01*
X01007402Y02751746D02*
X00732195Y02751746D01*
X00748193Y02735748D02*
X00919008Y02735748D01*
X00919008Y02767745D02*
X00885627Y02767745D01*
X00886143Y02831739D02*
X00919008Y02831739D01*
X00881618Y02863736D02*
X01186000Y02863736D01*
X01186000Y02879734D02*
X00897616Y02879734D01*
X00898000Y02895733D02*
X01186000Y02895733D01*
X01186000Y02911731D02*
X00898000Y02911731D01*
X00890152Y02927730D02*
X01189215Y02927730D01*
X00825846Y02943728D02*
X00774154Y02943728D01*
X00769882Y02948000D02*
X00730118Y02948000D01*
X00702000Y02919882D01*
X00702000Y02880118D01*
X00730118Y02852000D01*
X00769882Y02852000D01*
X00798000Y02880118D01*
X00798000Y02919882D01*
X00769882Y02948000D01*
X00790152Y02927730D02*
X00809848Y02927730D01*
X00802000Y02911731D02*
X00798000Y02911731D01*
X00798000Y02895733D02*
X00802000Y02895733D01*
X00802383Y02879734D02*
X00797616Y02879734D01*
X00781618Y02863736D02*
X00818382Y02863736D01*
X00829855Y02847737D02*
X00770145Y02847737D01*
X00786143Y02831739D02*
X00813857Y02831739D01*
X00802000Y02815740D02*
X00798000Y02815740D01*
X00798000Y02799742D02*
X00802000Y02799742D01*
X00802000Y02783743D02*
X00798000Y02783743D01*
X00785627Y02767745D02*
X00814373Y02767745D01*
X00702000Y02783743D02*
X00700198Y02783743D01*
X00702000Y02799742D02*
X00698000Y02799742D01*
X00698000Y02815740D02*
X00702000Y02815740D01*
X00713857Y02831739D02*
X00686143Y02831739D01*
X00670145Y02847737D02*
X00729855Y02847737D01*
X00718382Y02863736D02*
X00681618Y02863736D01*
X00697616Y02879734D02*
X00702383Y02879734D01*
X00702000Y02895733D02*
X00698000Y02895733D01*
X00698000Y02911731D02*
X00702000Y02911731D01*
X00709848Y02927730D02*
X00690152Y02927730D01*
X00674154Y02943728D02*
X00725846Y02943728D01*
X00625846Y02943728D02*
X00574154Y02943728D01*
X00590152Y02927730D02*
X00609848Y02927730D01*
X00602000Y02911731D02*
X00598000Y02911731D01*
X00598000Y02895733D02*
X00602000Y02895733D01*
X00529855Y02847737D02*
X00470145Y02847737D01*
X00469882Y02848000D02*
X00430118Y02848000D01*
X00420716Y02838598D01*
X00347527Y02838598D01*
X00347527Y02845645D01*
X00343172Y02850000D01*
X00343931Y02850759D01*
X00346301Y02854863D01*
X00347527Y02859441D01*
X00347527Y02882606D01*
X00304796Y02882606D01*
X00304796Y02892197D01*
X00347527Y02892197D01*
X00347527Y02915362D01*
X00346301Y02919940D01*
X00343931Y02924044D01*
X00340580Y02927396D01*
X00336475Y02929765D01*
X00331897Y02930992D01*
X00304795Y02930992D01*
X00304795Y02892198D01*
X00295204Y02892198D01*
X00295204Y02930992D01*
X00268103Y02930992D01*
X00263525Y02929765D01*
X00259420Y02927396D01*
X00256069Y02924044D01*
X00253699Y02919940D01*
X00252472Y02915362D01*
X00252472Y02892197D01*
X00295204Y02892197D01*
X00295204Y02882606D01*
X00252472Y02882606D01*
X00252472Y02859441D01*
X00253699Y02854863D01*
X00256069Y02850759D01*
X00256828Y02850000D01*
X00252472Y02845645D01*
X00252472Y02779552D01*
X00263016Y02769008D01*
X00336983Y02769008D01*
X00347527Y02779552D01*
X00347527Y02786598D01*
X00402000Y02786598D01*
X00402000Y02780118D01*
X00430118Y02752000D01*
X00469882Y02752000D01*
X00498000Y02780118D01*
X00498000Y02819882D01*
X00469882Y02848000D01*
X00469882Y02852000D02*
X00498000Y02880118D01*
X00498000Y02898000D01*
X00452001Y02898000D01*
X00452001Y02902000D01*
X00498000Y02902000D01*
X00498000Y02919882D01*
X00469882Y02948000D01*
X00452000Y02948000D01*
X00452000Y02902001D01*
X00448000Y02902001D01*
X00448000Y02948000D01*
X00430118Y02948000D01*
X00402000Y02919882D01*
X00402000Y02902000D01*
X00447999Y02902000D01*
X00447999Y02898000D01*
X00402000Y02898000D01*
X00402000Y02880118D01*
X00430118Y02852000D01*
X00448000Y02852000D01*
X00448000Y02897999D01*
X00452000Y02897999D01*
X00452000Y02852000D01*
X00469882Y02852000D01*
X00481618Y02863736D02*
X00518382Y02863736D01*
X00502383Y02879734D02*
X00497616Y02879734D01*
X00498000Y02895733D02*
X00502000Y02895733D01*
X00502000Y02911731D02*
X00498000Y02911731D01*
X00490152Y02927730D02*
X00509848Y02927730D01*
X00525846Y02943728D02*
X00474154Y02943728D01*
X00452000Y02943728D02*
X00448000Y02943728D01*
X00448000Y02927730D02*
X00452000Y02927730D01*
X00452000Y02911731D02*
X00448000Y02911731D01*
X00448000Y02895733D02*
X00452000Y02895733D01*
X00452000Y02879734D02*
X00448000Y02879734D01*
X00448000Y02863736D02*
X00452000Y02863736D01*
X00429855Y02847737D02*
X00345435Y02847737D01*
X00347527Y02863736D02*
X00418382Y02863736D01*
X00402383Y02879734D02*
X00347527Y02879734D01*
X00347527Y02895733D02*
X00402000Y02895733D01*
X00402000Y02911731D02*
X00347527Y02911731D01*
X00340001Y02927730D02*
X00409848Y02927730D01*
X00425846Y02943728D02*
X00028000Y02943728D01*
X00028000Y02927730D02*
X00259999Y02927730D01*
X00252472Y02911731D02*
X00028000Y02911731D01*
X00028000Y02895733D02*
X00252472Y02895733D01*
X00252472Y02879734D02*
X00028000Y02879734D01*
X00028000Y02863736D02*
X00252472Y02863736D01*
X00254565Y02847737D02*
X00028000Y02847737D01*
X00028000Y02831739D02*
X00252472Y02831739D01*
X00252472Y02815740D02*
X00028000Y02815740D01*
X00028000Y02799742D02*
X00252472Y02799742D01*
X00252472Y02783743D02*
X00028000Y02783743D01*
X00028000Y02767745D02*
X00414373Y02767745D01*
X00402000Y02783743D02*
X00347527Y02783743D01*
X00300000Y02812598D02*
X00437402Y02812598D01*
X00450000Y02800000D01*
X00498000Y02799742D02*
X00502000Y02799742D01*
X00502000Y02815740D02*
X00498000Y02815740D01*
X00486143Y02831739D02*
X00513857Y02831739D01*
X00502000Y02783743D02*
X00498000Y02783743D01*
X00485627Y02767745D02*
X00514373Y02767745D01*
X00587945Y02751746D02*
X00028000Y02751746D01*
X00028000Y02735748D02*
X00603944Y02735748D01*
X00619942Y02719749D02*
X00028000Y02719749D01*
X00028000Y02703750D02*
X00635941Y02703750D01*
X00651939Y02687752D02*
X00028000Y02687752D01*
X00028000Y02671753D02*
X00667938Y02671753D01*
X00683936Y02655755D02*
X00028000Y02655755D01*
X00028000Y02639756D02*
X00699935Y02639756D01*
X00694097Y02623758D02*
X00718249Y02623758D01*
X00697527Y02607759D02*
X00965645Y02607759D01*
X00965645Y02591761D02*
X00654796Y02591761D01*
X00645204Y02591761D02*
X00028000Y02591761D01*
X00028000Y02607759D02*
X00602472Y02607759D01*
X00605903Y02623758D02*
X00028000Y02623758D01*
X00028000Y02575762D02*
X00602472Y02575762D01*
X00602472Y02559764D02*
X00028000Y02559764D01*
X00028000Y02543765D02*
X00602472Y02543765D01*
X00602472Y02527767D02*
X00028000Y02527767D01*
X00028000Y02511768D02*
X00602472Y02511768D01*
X00602472Y02495770D02*
X00028000Y02495770D01*
X00028000Y02479771D02*
X00602472Y02479771D01*
X00626000Y02463773D02*
X00028000Y02463773D01*
X00028000Y02447774D02*
X00429892Y02447774D01*
X00448000Y02447774D02*
X00452000Y02447774D01*
X00452000Y02431776D02*
X00448000Y02431776D01*
X00448000Y02415777D02*
X00452000Y02415777D01*
X00452001Y02399779D02*
X00502000Y02399779D01*
X00502000Y02415777D02*
X00498000Y02415777D01*
X00486106Y02431776D02*
X00513893Y02431776D01*
X00529892Y02447774D02*
X00470108Y02447774D01*
X00447999Y02399779D02*
X00028000Y02399779D01*
X00028000Y02415777D02*
X00402000Y02415777D01*
X00413893Y02431776D02*
X00028000Y02431776D01*
X00028000Y02383780D02*
X00402000Y02383780D01*
X00407473Y02367781D02*
X00028000Y02367781D01*
X00028000Y02351783D02*
X00391474Y02351783D01*
X00376115Y02335784D02*
X00028000Y02335784D01*
X00028000Y02319786D02*
X00372000Y02319786D01*
X00372000Y02303787D02*
X00028000Y02303787D01*
X00028000Y02287789D02*
X00372000Y02287789D01*
X00372977Y02271790D02*
X00028000Y02271790D01*
X00028000Y02255792D02*
X00383899Y02255792D01*
X00395110Y02239793D02*
X00028000Y02239793D01*
X00028000Y02223795D02*
X00395110Y02223795D01*
X00395110Y02207796D02*
X00028000Y02207796D01*
X00028000Y02191798D02*
X00395110Y02191798D01*
X00395110Y02175799D02*
X00028000Y02175799D01*
X00028000Y02159801D02*
X00395110Y02159801D01*
X00395110Y02143802D02*
X00028000Y02143802D01*
X00028000Y02127804D02*
X00395110Y02127804D01*
X00395110Y02111805D02*
X00028000Y02111805D01*
X00028000Y02095807D02*
X00395110Y02095807D01*
X00394220Y02079808D02*
X00028000Y02079808D01*
X00028000Y02063810D02*
X00397139Y02063810D01*
X00414860Y02047811D02*
X00028000Y02047811D01*
X00028000Y02031813D02*
X00426000Y02031813D01*
X00426000Y02015814D02*
X00028000Y02015814D01*
X00028000Y01999815D02*
X00426000Y01999815D01*
X00426000Y01983817D02*
X00028000Y01983817D01*
X00028000Y01967818D02*
X00426000Y01967818D01*
X00426000Y01951820D02*
X00028000Y01951820D01*
X00028000Y01935821D02*
X00426000Y01935821D01*
X00426000Y01919823D02*
X00028000Y01919823D01*
X00028000Y01903824D02*
X00426000Y01903824D01*
X00426000Y01887826D02*
X00028000Y01887826D01*
X00028000Y01871827D02*
X00426000Y01871827D01*
X00428281Y01855829D02*
X00028000Y01855829D01*
X00028000Y01839830D02*
X00442339Y01839830D01*
X00458337Y01823832D02*
X00028000Y01823832D01*
X00028000Y01807833D02*
X00474336Y01807833D01*
X00490334Y01791835D02*
X00028000Y01791835D01*
X00028000Y01775836D02*
X00506333Y01775836D01*
X00522331Y01759838D02*
X00028000Y01759838D01*
X00028000Y01743839D02*
X00538330Y01743839D01*
X00554328Y01727841D02*
X00028000Y01727841D01*
X00028000Y01711842D02*
X00570327Y01711842D01*
X00586326Y01695844D02*
X00028000Y01695844D01*
X00028000Y01679845D02*
X00594539Y01679845D01*
X00614188Y01663846D02*
X00028000Y01663846D01*
X00028000Y01647848D02*
X00623000Y01647848D01*
X00623000Y01631849D02*
X00028000Y01631849D01*
X00028000Y01615851D02*
X00623000Y01615851D01*
X00623000Y01599852D02*
X00028000Y01599852D01*
X00028000Y01583854D02*
X00623000Y01583854D01*
X00623000Y01567855D02*
X00028000Y01567855D01*
X00028000Y01551857D02*
X00623000Y01551857D01*
X00623000Y01535858D02*
X00028000Y01535858D01*
X00028000Y01519860D02*
X00623000Y01519860D01*
X00623000Y01503861D02*
X00028000Y01503861D01*
X00028000Y01487863D02*
X00623000Y01487863D01*
X00627195Y01471864D02*
X00028000Y01471864D01*
X00028000Y01455866D02*
X00643193Y01455866D01*
X00659192Y01439867D02*
X00028000Y01439867D01*
X00028000Y01423869D02*
X00675190Y01423869D01*
X00691189Y01407870D02*
X00028000Y01407870D01*
X00028000Y01391872D02*
X00707187Y01391872D01*
X00723186Y01375873D02*
X00028000Y01375873D01*
X00028000Y01359875D02*
X00739184Y01359875D01*
X00755183Y01343876D02*
X00028000Y01343876D01*
X00028000Y01327877D02*
X00771181Y01327877D01*
X00787180Y01311879D02*
X00028000Y01311879D01*
X00028000Y01295880D02*
X01139087Y01295880D01*
X01135021Y01279882D02*
X00028000Y01279882D01*
X00028000Y01263883D02*
X01119022Y01263883D01*
X01103023Y01247885D02*
X00028000Y01247885D01*
X00028000Y01231886D02*
X01087025Y01231886D01*
X01071026Y01215888D02*
X00028000Y01215888D01*
X00028000Y01199889D02*
X01055028Y01199889D01*
X01039029Y01183891D02*
X00028000Y01183891D01*
X00028000Y01167892D02*
X01023031Y01167892D01*
X01007032Y01151894D02*
X00028000Y01151894D01*
X00028000Y01135895D02*
X00991034Y01135895D01*
X00975035Y01119897D02*
X00028000Y01119897D01*
X00028000Y01103898D02*
X00959037Y01103898D01*
X00943038Y01087900D02*
X00028000Y01087900D01*
X00028000Y01071901D02*
X00927040Y01071901D01*
X00911041Y01055903D02*
X00028000Y01055903D01*
X00028000Y01039904D02*
X00895043Y01039904D01*
X00879044Y01023906D02*
X00028000Y01023906D01*
X00028000Y01007907D02*
X00863046Y01007907D01*
X00847047Y00991908D02*
X00028000Y00991908D01*
X00028000Y00975910D02*
X00831049Y00975910D01*
X00815050Y00959911D02*
X00028000Y00959911D01*
X00028000Y00943913D02*
X00799052Y00943913D01*
X00783053Y00927914D02*
X00028000Y00927914D01*
X00028000Y00911916D02*
X00767055Y00911916D01*
X00751056Y00895917D02*
X00028000Y00895917D01*
X00028000Y00879919D02*
X00735057Y00879919D01*
X00719059Y00863920D02*
X00028000Y00863920D01*
X00028000Y00847922D02*
X00704109Y00847922D01*
X00701197Y00831923D02*
X00028000Y00831923D01*
X00028000Y00815925D02*
X00701197Y00815925D01*
X00701197Y00799926D02*
X00028000Y00799926D01*
X00028000Y00783928D02*
X00701197Y00783928D01*
X00701197Y00767929D02*
X00028000Y00767929D01*
X00028000Y00751931D02*
X00701197Y00751931D01*
X00701197Y00735932D02*
X00028000Y00735932D01*
X00028000Y00719934D02*
X00701197Y00719934D01*
X00701197Y00703935D02*
X00028000Y00703935D01*
X00028000Y00687937D02*
X00701197Y00687937D01*
X00701197Y00671938D02*
X00028000Y00671938D01*
X00028000Y00655939D02*
X00701197Y00655939D01*
X00701197Y00639941D02*
X00028000Y00639941D01*
X00028000Y00623942D02*
X00701197Y00623942D01*
X00701197Y00607944D02*
X00028000Y00607944D01*
X00028000Y00591945D02*
X00701197Y00591945D01*
X00701197Y00575947D02*
X00028000Y00575947D01*
X00028000Y00559948D02*
X00558508Y00559948D01*
X00555622Y00543950D02*
X00028000Y00543950D01*
X00028000Y00527951D02*
X00555622Y00527951D01*
X00555622Y00511953D02*
X00028000Y00511953D01*
X00028000Y00495954D02*
X00555622Y00495954D01*
X00555622Y00479956D02*
X00028000Y00479956D01*
X00028000Y00463957D02*
X00555622Y00463957D01*
X00555622Y00447959D02*
X00028000Y00447959D01*
X00028000Y00431960D02*
X00555622Y00431960D01*
X00563701Y00415962D02*
X00028000Y00415962D01*
X00028000Y00399963D02*
X00642142Y00399963D01*
X00642236Y00383965D02*
X00028000Y00383965D01*
X00028000Y00367966D02*
X00642236Y00367966D01*
X00705512Y00363717D02*
X00705512Y00363717D01*
X00701197Y00527951D02*
X00695985Y00527951D01*
X00701197Y00543950D02*
X00670362Y00543950D01*
X00667476Y00559948D02*
X00701197Y00559948D01*
X00886992Y00559948D02*
X00888553Y00559948D01*
X00886992Y00558388D02*
X00886992Y00783407D01*
X01139087Y01035502D01*
X01139087Y01005512D01*
X01145410Y01005512D01*
X01145411Y01005511D01*
X01139087Y01005511D01*
X01139087Y00997236D01*
X01140313Y00992658D01*
X01142683Y00988554D01*
X01146034Y00985203D01*
X01150139Y00982833D01*
X01154717Y00981606D01*
X01176771Y00981606D01*
X01176771Y01001291D01*
X01176772Y01001291D01*
X01176772Y00981606D01*
X01185457Y00981606D01*
X01185457Y00981015D01*
X01184457Y00978601D01*
X01184457Y00969053D01*
X01185457Y00966639D01*
X01185457Y00964300D01*
X01187110Y00962646D01*
X01188110Y00960232D01*
X01231606Y00916736D01*
X01231606Y00899631D01*
X01242150Y00889087D01*
X01266922Y00889087D01*
X01275196Y00889086D01*
X01275196Y00895410D01*
X01275197Y00895410D01*
X01275197Y00889087D01*
X01283472Y00889087D01*
X01285039Y00889507D01*
X01286607Y00889087D01*
X01290567Y00889087D01*
X01290567Y00870523D01*
X01169043Y00749000D01*
X01092319Y00749000D01*
X01082771Y00749000D01*
X01073950Y00745346D01*
X00886992Y00558388D01*
X00886992Y00575947D02*
X00904551Y00575947D01*
X00920550Y00591945D02*
X00886992Y00591945D01*
X00886992Y00607944D02*
X00936548Y00607944D01*
X00952547Y00623942D02*
X00886992Y00623942D01*
X00886992Y00639941D02*
X00968545Y00639941D01*
X00984544Y00655939D02*
X00886992Y00655939D01*
X00886992Y00671938D02*
X01000542Y00671938D01*
X01016541Y00687937D02*
X00886992Y00687937D01*
X00886992Y00703935D02*
X01032539Y00703935D01*
X01048538Y00719934D02*
X00886992Y00719934D01*
X00886992Y00735932D02*
X01064536Y00735932D01*
X00935508Y00831923D02*
X01251967Y00831923D01*
X01267965Y00847922D02*
X00951506Y00847922D01*
X00967505Y00863920D02*
X01283964Y00863920D01*
X01290567Y00879919D02*
X00983503Y00879919D01*
X00999502Y00895917D02*
X01235320Y00895917D01*
X01231606Y00911916D02*
X01015500Y00911916D01*
X01031499Y00927914D02*
X01220428Y00927914D01*
X01204429Y00943913D02*
X01047498Y00943913D01*
X01063496Y00959911D02*
X01188431Y00959911D01*
X01184457Y00975910D02*
X01079495Y00975910D01*
X01095493Y00991908D02*
X01140746Y00991908D01*
X01139087Y01007907D02*
X01111492Y01007907D01*
X01127490Y01023906D02*
X01139087Y01023906D01*
X01176771Y01049102D02*
X01176771Y01060346D01*
X01176772Y01060346D01*
X01176772Y01049102D01*
X01176771Y01049102D01*
X01176771Y01055903D02*
X01176772Y01055903D01*
X01208133Y01064567D02*
X01208133Y01064567D01*
X01208134Y01064566D01*
X01214457Y01064566D01*
X01214457Y01056292D01*
X01214037Y01054724D01*
X01214457Y01053157D01*
X01214457Y01048070D01*
X01231457Y01031070D01*
X01231457Y00984768D01*
X01244074Y00972151D01*
X01335518Y01063595D01*
X01342269Y01070346D01*
X01351090Y01074000D01*
X01676000Y01074000D01*
X01676000Y01171110D01*
X01668966Y01171110D01*
X01657613Y01175813D01*
X01648923Y01184502D01*
X01644220Y01195856D01*
X01644220Y01198949D01*
X01526551Y01316618D01*
X01530890Y01306144D01*
X01530890Y01293856D01*
X01526187Y01282502D01*
X01517498Y01273813D01*
X01506144Y01269110D01*
X01493856Y01269110D01*
X01482502Y01273813D01*
X01473813Y01282502D01*
X01473000Y01284465D01*
X01473000Y01193685D01*
X01475187Y01191498D01*
X01479890Y01180144D01*
X01479890Y01167856D01*
X01475187Y01156502D01*
X01466498Y01147813D01*
X01455144Y01143110D01*
X01442856Y01143110D01*
X01431502Y01147813D01*
X01422813Y01156502D01*
X01418110Y01167856D01*
X01418110Y01180144D01*
X01422813Y01191498D01*
X01425000Y01193685D01*
X01425000Y01278059D01*
X01308559Y01394500D01*
X01280890Y01394500D01*
X01280890Y01393856D01*
X01276187Y01382502D01*
X01267498Y01373813D01*
X01256144Y01369110D01*
X01253051Y01369110D01*
X01243122Y01359181D01*
X01234301Y01355528D01*
X01214457Y01355528D01*
X01214457Y01340158D01*
X01208133Y01340158D01*
X01208133Y01340157D01*
X01208134Y01340157D01*
X01214457Y01340157D01*
X01214457Y01280218D01*
X01215022Y01279984D01*
X01221773Y01273233D01*
X01222052Y01272954D01*
X01228803Y01266203D01*
X01232457Y01257382D01*
X01232457Y01169890D01*
X01242144Y01169890D01*
X01253498Y01165187D01*
X01262187Y01156498D01*
X01266890Y01145144D01*
X01266890Y01132856D01*
X01262187Y01121502D01*
X01253498Y01112813D01*
X01242144Y01108110D01*
X01229856Y01108110D01*
X01218502Y01112813D01*
X01214457Y01116859D01*
X01214457Y01064567D01*
X01208133Y01064567D01*
X01214457Y01071901D02*
X01346023Y01071901D01*
X01327826Y01055903D02*
X01214352Y01055903D01*
X01222623Y01039904D02*
X01311827Y01039904D01*
X01295829Y01023906D02*
X01231457Y01023906D01*
X01231457Y01007907D02*
X01279830Y01007907D01*
X01263832Y00991908D02*
X01231457Y00991908D01*
X01240314Y00975910D02*
X01247833Y00975910D01*
X01176772Y00991908D02*
X01176771Y00991908D01*
X01214457Y01087900D02*
X01676000Y01087900D01*
X01676000Y01103898D02*
X01214457Y01103898D01*
X01260581Y01119897D02*
X01676000Y01119897D01*
X01676000Y01135895D02*
X01266890Y01135895D01*
X01264094Y01151894D02*
X01427422Y01151894D01*
X01418110Y01167892D02*
X01246967Y01167892D01*
X01232457Y01183891D02*
X01419662Y01183891D01*
X01425000Y01199889D02*
X01232457Y01199889D01*
X01232457Y01215888D02*
X01425000Y01215888D01*
X01425000Y01231886D02*
X01232457Y01231886D01*
X01232457Y01247885D02*
X01425000Y01247885D01*
X01425000Y01263883D02*
X01229764Y01263883D01*
X01215124Y01279882D02*
X01423177Y01279882D01*
X01407178Y01295880D02*
X01214457Y01295880D01*
X01214457Y01311879D02*
X01391180Y01311879D01*
X01375181Y01327877D02*
X01214457Y01327877D01*
X01214457Y01343876D02*
X01359183Y01343876D01*
X01343184Y01359875D02*
X01243816Y01359875D01*
X01269558Y01375873D02*
X01327186Y01375873D01*
X01311187Y01391872D02*
X01280068Y01391872D01*
X01407190Y01503861D02*
X01782920Y01503861D01*
X01766922Y01487863D02*
X01423188Y01487863D01*
X01439187Y01471864D02*
X01750923Y01471864D01*
X01734925Y01455866D02*
X01455186Y01455866D01*
X01471184Y01439867D02*
X01718926Y01439867D01*
X01702928Y01423869D02*
X01487183Y01423869D01*
X01503181Y01407870D02*
X01686929Y01407870D01*
X01679654Y01400595D02*
X01676000Y01391774D01*
X01676000Y01235051D01*
X01378890Y01532162D01*
X01378890Y01691084D01*
X01375236Y01699905D01*
X01343656Y01731485D01*
X01339597Y01735543D01*
X01342527Y01735543D01*
X01492617Y01735543D01*
X01492851Y01734978D01*
X01608923Y01618905D01*
X01615675Y01612154D01*
X01624496Y01608500D01*
X01887559Y01608500D01*
X01878449Y01599390D01*
X01874371Y01599390D01*
X01863018Y01594687D01*
X01854329Y01585998D01*
X01849626Y01574644D01*
X01849626Y01570567D01*
X01679654Y01400595D01*
X01676040Y01391872D02*
X01519180Y01391872D01*
X01535178Y01375873D02*
X01676000Y01375873D01*
X01676000Y01359875D02*
X01551177Y01359875D01*
X01567175Y01343876D02*
X01676000Y01343876D01*
X01676000Y01327877D02*
X01583174Y01327877D01*
X01599172Y01311879D02*
X01676000Y01311879D01*
X01676000Y01295880D02*
X01615171Y01295880D01*
X01631169Y01279882D02*
X01676000Y01279882D01*
X01676000Y01263883D02*
X01647168Y01263883D01*
X01663166Y01247885D02*
X01676000Y01247885D01*
X01724000Y01247885D02*
X01870000Y01247885D01*
X01870000Y01263883D02*
X01724000Y01263883D01*
X01724000Y01279882D02*
X01870000Y01279882D01*
X01870000Y01295880D02*
X01724000Y01295880D01*
X01724000Y01311879D02*
X01870000Y01311879D01*
X01870000Y01327877D02*
X01724000Y01327877D01*
X01724000Y01343876D02*
X01870000Y01343876D01*
X01870000Y01359875D02*
X01724000Y01359875D01*
X01724000Y01375873D02*
X01870000Y01375873D01*
X01870000Y01391872D02*
X01738813Y01391872D01*
X01724000Y01377059D02*
X01884551Y01537610D01*
X01886660Y01537610D01*
X01898013Y01542313D01*
X01906703Y01551002D01*
X01911405Y01562356D01*
X01911405Y01564464D01*
X01959095Y01612154D01*
X01965846Y01618905D01*
X01985543Y01638602D01*
X01985543Y01635434D01*
X01991866Y01635434D01*
X01991867Y01635433D01*
X01991866Y01635432D01*
X01985543Y01635432D01*
X01985543Y01602996D01*
X01976144Y01606890D01*
X01963856Y01606890D01*
X01952502Y01602187D01*
X01943813Y01593498D01*
X01939110Y01582144D01*
X01939110Y01569856D01*
X01943813Y01558502D01*
X01952502Y01549813D01*
X01963856Y01545110D01*
X01976144Y01545110D01*
X01985543Y01549003D01*
X01985543Y01497638D01*
X01991867Y01497638D01*
X01991866Y01497637D01*
X01985543Y01497637D01*
X01985543Y01462141D01*
X01983498Y01464187D01*
X01972144Y01468890D01*
X01959856Y01468890D01*
X01948502Y01464187D01*
X01939813Y01455498D01*
X01935110Y01444144D01*
X01935110Y01431856D01*
X01939813Y01420502D01*
X01948502Y01411813D01*
X01959856Y01407110D01*
X01972144Y01407110D01*
X01983498Y01411813D01*
X01985543Y01413859D01*
X01985543Y01241733D01*
X01991866Y01241733D01*
X01991867Y01241732D01*
X01991866Y01241732D01*
X01985543Y01241732D01*
X01985543Y01233457D01*
X01985963Y01231890D01*
X01985543Y01230322D01*
X01985543Y01226362D01*
X01967212Y01226362D01*
X01965387Y01228187D01*
X01954034Y01232890D01*
X01941745Y01232890D01*
X01930392Y01228187D01*
X01930000Y01227795D01*
X01930000Y01451403D01*
X01937593Y01458995D01*
X01942295Y01470348D01*
X01942295Y01482637D01*
X01937593Y01493990D01*
X01928903Y01502680D01*
X01917550Y01507383D01*
X01905261Y01507383D01*
X01893908Y01502680D01*
X01885218Y01493990D01*
X01884329Y01491842D01*
X01874567Y01482081D01*
X01870000Y01471055D01*
X01870000Y01108292D01*
X01869110Y01106144D01*
X01869110Y01093856D01*
X01873813Y01082502D01*
X01877000Y01079315D01*
X01877000Y01038312D01*
X01819631Y00980943D01*
X01819631Y00980943D01*
X01806157Y00967470D01*
X01806157Y00964457D01*
X01771543Y00964457D01*
X01771543Y01007231D01*
X01767889Y01016052D01*
X01761138Y01022803D01*
X01724000Y01059941D01*
X01724000Y01377059D01*
X01754811Y01407870D02*
X01870000Y01407870D01*
X01870000Y01423869D02*
X01770810Y01423869D01*
X01786808Y01439867D02*
X01870000Y01439867D01*
X01870000Y01455866D02*
X01802807Y01455866D01*
X01818805Y01471864D02*
X01870335Y01471864D01*
X01880349Y01487863D02*
X01834804Y01487863D01*
X01850802Y01503861D02*
X01896760Y01503861D01*
X01926051Y01503861D02*
X01985543Y01503861D01*
X01991867Y01497638D02*
X01991867Y01497638D01*
X01985543Y01487863D02*
X01940131Y01487863D01*
X01942295Y01471864D02*
X01985543Y01471864D01*
X01940181Y01455866D02*
X01934463Y01455866D01*
X01935110Y01439867D02*
X01930000Y01439867D01*
X01930000Y01423869D02*
X01938418Y01423869D01*
X01930000Y01407870D02*
X01958021Y01407870D01*
X01973979Y01407870D02*
X01985543Y01407870D01*
X01985543Y01391872D02*
X01930000Y01391872D01*
X01930000Y01375873D02*
X01985543Y01375873D01*
X01985543Y01359875D02*
X01930000Y01359875D01*
X01930000Y01343876D02*
X01985543Y01343876D01*
X01985543Y01327877D02*
X01930000Y01327877D01*
X01930000Y01311879D02*
X01985543Y01311879D01*
X01985543Y01295880D02*
X01930000Y01295880D01*
X01930000Y01279882D02*
X01985543Y01279882D01*
X01985543Y01263883D02*
X01930000Y01263883D01*
X01930000Y01247885D02*
X01985543Y01247885D01*
X01985962Y01231886D02*
X01956456Y01231886D01*
X01939323Y01231886D02*
X01930000Y01231886D01*
X01930000Y01176205D02*
X01930392Y01175813D01*
X01941745Y01171110D01*
X01954034Y01171110D01*
X01965387Y01175813D01*
X01967937Y01178362D01*
X01985543Y01178362D01*
X01985543Y01169316D01*
X01985543Y01107000D01*
X01952527Y01107000D01*
X01950000Y01109527D01*
X01936527Y01123000D01*
X01930000Y01123000D01*
X01930000Y01176205D01*
X01930000Y01167892D02*
X01985543Y01167892D01*
X01985543Y01151894D02*
X01930000Y01151894D01*
X01930000Y01135895D02*
X01985543Y01135895D01*
X01985543Y01119897D02*
X01939630Y01119897D01*
X01923000Y01055903D02*
X01985543Y01055903D01*
X01985543Y01039904D02*
X01923000Y01039904D01*
X01923000Y01023906D02*
X01985543Y01023906D01*
X01985543Y01007907D02*
X01911648Y01007907D01*
X01909527Y01005785D02*
X01909527Y01005785D01*
X01895650Y00991908D02*
X01985785Y00991908D01*
X01962395Y00959911D02*
X02126225Y00959911D01*
X02118310Y00975910D02*
X01879651Y00975910D01*
X01865749Y00962007D02*
X01865749Y00958133D01*
X01865748Y00958133D01*
X01865747Y00958134D01*
X01865747Y00962006D01*
X01865749Y00962007D01*
X01865747Y00959911D02*
X01865749Y00959911D01*
X01830596Y00991908D02*
X01771543Y00991908D01*
X01771543Y00975910D02*
X01814598Y00975910D01*
X01846595Y01007907D02*
X01771263Y01007907D01*
X01761138Y01022803D02*
X01761138Y01022803D01*
X01760035Y01023906D02*
X01862593Y01023906D01*
X01877000Y01039904D02*
X01744037Y01039904D01*
X01728038Y01055903D02*
X01877000Y01055903D01*
X01877000Y01071901D02*
X01724000Y01071901D01*
X01724000Y01087900D02*
X01871577Y01087900D01*
X01869110Y01103898D02*
X01724000Y01103898D01*
X01724000Y01119897D02*
X01870000Y01119897D01*
X01870000Y01135895D02*
X01724000Y01135895D01*
X01724000Y01151894D02*
X01870000Y01151894D01*
X01870000Y01167892D02*
X01724000Y01167892D01*
X01724000Y01183891D02*
X01870000Y01183891D01*
X01870000Y01199889D02*
X01724000Y01199889D01*
X01724000Y01215888D02*
X01870000Y01215888D01*
X01870000Y01231886D02*
X01724000Y01231886D01*
X01676000Y01167892D02*
X01479890Y01167892D01*
X01478338Y01183891D02*
X01649535Y01183891D01*
X01643280Y01199889D02*
X01473000Y01199889D01*
X01473000Y01215888D02*
X01627281Y01215888D01*
X01611283Y01231886D02*
X01473000Y01231886D01*
X01473000Y01247885D02*
X01595284Y01247885D01*
X01579286Y01263883D02*
X01473000Y01263883D01*
X01473000Y01279882D02*
X01476433Y01279882D01*
X01523567Y01279882D02*
X01563287Y01279882D01*
X01547289Y01295880D02*
X01530890Y01295880D01*
X01531290Y01311879D02*
X01528514Y01311879D01*
X01470578Y01151894D02*
X01676000Y01151894D01*
X01690059Y01026000D02*
X01597292Y01026000D01*
X01606498Y01022187D01*
X01615187Y01013498D01*
X01619890Y01002144D01*
X01619890Y00989856D01*
X01615187Y00978502D01*
X01614157Y00977473D01*
X01614157Y00964457D01*
X01629527Y00964457D01*
X01629527Y00958133D01*
X01629527Y00958133D01*
X01629528Y00958133D01*
X01629528Y00964457D01*
X01719677Y00964457D01*
X01723543Y00964457D01*
X01723543Y00992516D01*
X01690059Y01026000D01*
X01692153Y01023906D02*
X01602349Y01023906D01*
X01617503Y01007907D02*
X01708152Y01007907D01*
X01723543Y00991908D02*
X01619890Y00991908D01*
X01614157Y00975910D02*
X01723543Y00975910D01*
X01629528Y00959911D02*
X01629527Y00959911D01*
X01507102Y00889087D02*
X01507102Y00883411D01*
X01496047Y00872356D01*
X01496047Y00889087D01*
X01498056Y00889087D01*
X01507102Y00889087D01*
X01503610Y00879919D02*
X01496047Y00879919D01*
X01630472Y00735932D02*
X02329671Y00735932D01*
X02313672Y00751931D02*
X01646470Y00751931D01*
X01662469Y00767929D02*
X02297674Y00767929D01*
X02292000Y00783928D02*
X01678467Y00783928D01*
X01694466Y00799926D02*
X02292000Y00799926D01*
X02292000Y00815925D02*
X01710464Y00815925D01*
X01726463Y00831923D02*
X02292000Y00831923D01*
X02292000Y00847922D02*
X01742461Y00847922D01*
X01758460Y00863920D02*
X02292000Y00863920D01*
X02287563Y00879919D02*
X01774459Y00879919D01*
X01964680Y00895917D02*
X02271564Y00895917D01*
X02245822Y00911916D02*
X01968394Y00911916D01*
X01968394Y00927914D02*
X02234322Y00927914D01*
X02151967Y00943913D02*
X01968394Y00943913D01*
X02161890Y01151894D02*
X02277953Y01151894D01*
X02293951Y01167892D02*
X02155304Y01167892D01*
X02251866Y01183891D02*
X02309950Y01183891D01*
X02325948Y01199889D02*
X02255992Y01199889D01*
X02255992Y01215888D02*
X02341947Y01215888D01*
X02357945Y01231886D02*
X02255992Y01231886D01*
X02255992Y01247885D02*
X02373944Y01247885D01*
X02389942Y01263883D02*
X02254092Y01263883D01*
X02243890Y01279882D02*
X02405941Y01279882D01*
X02421939Y01295880D02*
X02241514Y01295880D01*
X02226413Y01311879D02*
X02437938Y01311879D01*
X02413510Y01455866D02*
X02328075Y01455866D01*
X02312077Y01471864D02*
X02397899Y01471864D01*
X02395417Y01487863D02*
X02296078Y01487863D01*
X02280080Y01503861D02*
X02402484Y01503861D01*
X02199587Y01311879D02*
X02106890Y01311879D01*
X02106291Y01295880D02*
X02184486Y01295880D01*
X02182110Y01279882D02*
X02110489Y01279882D01*
X02023229Y01237417D02*
X02023229Y01226362D01*
X02023228Y01226362D01*
X02023228Y01237417D01*
X02023229Y01237417D01*
X02023228Y01231886D02*
X02023229Y01231886D01*
X01985543Y01519860D02*
X01866801Y01519860D01*
X01882799Y01535858D02*
X01985543Y01535858D01*
X01950458Y01551857D02*
X01907057Y01551857D01*
X01914796Y01567855D02*
X01939939Y01567855D01*
X01939818Y01583854D02*
X01930795Y01583854D01*
X01946793Y01599852D02*
X01950168Y01599852D01*
X01959095Y01612154D02*
X01959095Y01612154D01*
X01962792Y01615851D02*
X01985543Y01615851D01*
X01985543Y01631849D02*
X01978790Y01631849D01*
X02023228Y01639653D02*
X02023228Y01650803D01*
X02023229Y01650803D01*
X02023229Y01639653D01*
X02023228Y01639653D01*
X02023228Y01647848D02*
X02023229Y01647848D01*
X01975606Y01695844D02*
X01968488Y01695844D01*
X01968488Y01711842D02*
X01989536Y01711842D01*
X01878911Y01599852D02*
X01378890Y01599852D01*
X01378890Y01583854D02*
X01853441Y01583854D01*
X01846914Y01567855D02*
X01378890Y01567855D01*
X01378890Y01551857D02*
X01830916Y01551857D01*
X01814917Y01535858D02*
X01378890Y01535858D01*
X01391191Y01519860D02*
X01798919Y01519860D01*
X01611978Y01615851D02*
X01378890Y01615851D01*
X01378890Y01631849D02*
X01595979Y01631849D01*
X01579981Y01647848D02*
X01378890Y01647848D01*
X01378890Y01663846D02*
X01563982Y01663846D01*
X01547984Y01679845D02*
X01378890Y01679845D01*
X01376918Y01695844D02*
X01531985Y01695844D01*
X01515986Y01711842D02*
X01363298Y01711842D01*
X01347300Y01727841D02*
X01499988Y01727841D01*
X01357461Y01839830D02*
X01048266Y01839830D01*
X01064264Y01823832D02*
X01345768Y01823832D01*
X01334252Y01807833D02*
X01334251Y01807833D01*
X01334252Y01804590D02*
X01334252Y01804590D01*
X01239070Y01807833D02*
X01080263Y01807833D01*
X01096261Y01791835D02*
X01118058Y01791835D01*
X01136296Y01791835D02*
X01231606Y01791835D01*
X01231606Y01775836D02*
X01154954Y01775836D01*
X01163458Y01759838D02*
X01231606Y01759838D01*
X01233855Y01743839D02*
X01179456Y01743839D01*
X01117603Y01622000D02*
X01053941Y01622000D01*
X01024772Y01592830D01*
X01024772Y01580867D01*
X01025159Y01580707D01*
X01033848Y01572017D01*
X01034273Y01570993D01*
X01035297Y01571417D01*
X01036969Y01571417D01*
X01062564Y01597012D01*
X01069316Y01603763D01*
X01078137Y01607417D01*
X01131540Y01607417D01*
X01139087Y01604291D01*
X01139087Y01604338D01*
X01139087Y01611433D01*
X01133337Y01611433D01*
X01124516Y01615087D01*
X01117603Y01622000D01*
X01123752Y01615851D02*
X01047792Y01615851D01*
X01031793Y01599852D02*
X01065405Y01599852D01*
X01049406Y01583854D02*
X01024772Y01583854D01*
X00968273Y01919823D02*
X01116734Y01919823D01*
X01108378Y01935821D02*
X00952274Y01935821D01*
X00936276Y01951820D02*
X01108378Y01951820D01*
X01108378Y01967818D02*
X00920277Y01967818D01*
X00904279Y01983817D02*
X01108378Y01983817D01*
X01118823Y01999815D02*
X00888280Y01999815D01*
X00874000Y02015814D02*
X01108378Y02015814D01*
X01108378Y02031813D02*
X00874000Y02031813D01*
X00874000Y02047811D02*
X01108378Y02047811D01*
X01108378Y02063810D02*
X00874000Y02063810D01*
X00874000Y02079808D02*
X01115770Y02079808D01*
X01120000Y02095807D02*
X00874000Y02095807D01*
X00874000Y02111805D02*
X01120000Y02111805D01*
X01104221Y02127804D02*
X00874000Y02127804D01*
X00874000Y02143802D02*
X01102472Y02143802D01*
X01102472Y02159801D02*
X00874000Y02159801D01*
X00874000Y02175799D02*
X01102472Y02175799D01*
X01102472Y02191798D02*
X00874000Y02191798D01*
X00874000Y02207796D02*
X01102472Y02207796D01*
X01102472Y02223795D02*
X00874000Y02223795D01*
X00874000Y02239793D02*
X01102472Y02239793D01*
X01089183Y02255792D02*
X00874000Y02255792D01*
X00889672Y02271790D02*
X01073185Y02271790D01*
X01057186Y02287789D02*
X00898000Y02287789D01*
X00898000Y02303787D02*
X01041188Y02303787D01*
X01025189Y02319786D02*
X00898000Y02319786D01*
X00882098Y02335784D02*
X01009191Y02335784D01*
X00993192Y02351783D02*
X00791555Y02351783D01*
X00785664Y02367781D02*
X00814336Y02367781D01*
X00802000Y02380118D02*
X00830118Y02352000D01*
X00848000Y02352000D01*
X00848000Y02397999D01*
X00852000Y02397999D01*
X00852000Y02352000D01*
X00869882Y02352000D01*
X00898000Y02380118D01*
X00898000Y02398000D01*
X00852001Y02398000D01*
X00852001Y02402000D01*
X00898000Y02402000D01*
X00898000Y02419882D01*
X00869882Y02448000D01*
X00852000Y02448000D01*
X00852000Y02402001D01*
X00848000Y02402001D01*
X00848000Y02448000D01*
X00830118Y02448000D01*
X00802000Y02419882D01*
X00802000Y02402000D01*
X00847999Y02402000D01*
X00847999Y02398000D01*
X00802000Y02398000D01*
X00802000Y02380118D01*
X00802000Y02383780D02*
X00798000Y02383780D01*
X00798000Y02399779D02*
X00847999Y02399779D01*
X00852001Y02399779D02*
X00965645Y02399779D01*
X00965645Y02415777D02*
X00898000Y02415777D01*
X00886106Y02431776D02*
X00965645Y02431776D01*
X00965645Y02447774D02*
X00870108Y02447774D01*
X00852000Y02447774D02*
X00848000Y02447774D01*
X00848000Y02431776D02*
X00852000Y02431776D01*
X00852000Y02415777D02*
X00848000Y02415777D01*
X00848000Y02383780D02*
X00852000Y02383780D01*
X00852000Y02367781D02*
X00848000Y02367781D01*
X00885664Y02367781D02*
X00977194Y02367781D01*
X00966477Y02383780D02*
X00898000Y02383780D01*
X00817902Y02335784D02*
X00807554Y02335784D01*
X00805595Y02337743D02*
X00805595Y02337743D01*
X00702000Y02383780D02*
X00700161Y02383780D01*
X00702000Y02399779D02*
X00698000Y02399779D01*
X00698000Y02415777D02*
X00702000Y02415777D01*
X00713893Y02431776D02*
X00686106Y02431776D01*
X00674000Y02447774D02*
X00729892Y02447774D01*
X00770108Y02447774D02*
X00829892Y02447774D01*
X00813893Y02431776D02*
X00786106Y02431776D01*
X00798000Y02415777D02*
X00802000Y02415777D01*
X00697527Y02479771D02*
X00965645Y02479771D01*
X00965645Y02463773D02*
X00674000Y02463773D01*
X00697527Y02495770D02*
X00965645Y02495770D01*
X00965645Y02511768D02*
X00697527Y02511768D01*
X00697527Y02527767D02*
X00965645Y02527767D01*
X00965645Y02543765D02*
X00697527Y02543765D01*
X00697527Y02559764D02*
X00965645Y02559764D01*
X00965645Y02575762D02*
X00697527Y02575762D01*
X00654795Y02607759D02*
X00645204Y02607759D01*
X00645204Y02623758D02*
X00654795Y02623758D01*
X00626000Y02447774D02*
X00570108Y02447774D01*
X00586106Y02431776D02*
X00613893Y02431776D01*
X00602000Y02415777D02*
X00598000Y02415777D01*
X00598000Y02399779D02*
X00602000Y02399779D01*
X00602000Y02383780D02*
X00598000Y02383780D01*
X00585664Y02367781D02*
X00614336Y02367781D01*
X00617902Y02335784D02*
X00582098Y02335784D01*
X00598000Y02319786D02*
X00602000Y02319786D01*
X00602000Y02303787D02*
X00598000Y02303787D01*
X00598000Y02287789D02*
X00602000Y02287789D01*
X00610327Y02271790D02*
X00589672Y02271790D01*
X00574000Y02255792D02*
X00626000Y02255792D01*
X00626000Y02239793D02*
X00574000Y02239793D01*
X00594181Y02223795D02*
X00605819Y02223795D01*
X00602472Y02207796D02*
X00597527Y02207796D01*
X00597527Y02191798D02*
X00602472Y02191798D01*
X00602472Y02175799D02*
X00597527Y02175799D01*
X00544209Y02351783D02*
X00664276Y02351783D01*
X01197527Y02191798D02*
X01240776Y02191798D01*
X01256774Y02175799D02*
X01197527Y02175799D01*
X01197527Y02159801D02*
X01272773Y02159801D01*
X01288771Y02143802D02*
X01197527Y02143802D01*
X01195779Y02127804D02*
X01304770Y02127804D01*
X01320768Y02111805D02*
X01180000Y02111805D01*
X01153811Y01951820D02*
X01146189Y01951820D01*
X01146189Y01935821D02*
X01153811Y01935821D01*
X01153811Y01919823D02*
X01146189Y01919823D01*
X01755331Y02063810D02*
X02594700Y02063810D01*
X02591110Y02047811D02*
X01771329Y02047811D01*
X01787328Y02031813D02*
X01917423Y02031813D01*
X01903903Y02015814D02*
X01803327Y02015814D01*
X01819325Y01999815D02*
X01887905Y01999815D01*
X01871906Y01983817D02*
X01835324Y01983817D01*
X01851322Y01967818D02*
X01854649Y01967818D01*
X01967167Y02031813D02*
X02595684Y02031813D01*
X02622000Y02049000D02*
X02623000Y02050000D01*
X02642252Y02863736D02*
X02657748Y02863736D01*
X02657748Y02879734D02*
X02642252Y02879734D01*
X02642252Y02895733D02*
X02657748Y02895733D01*
X04016000Y03133291D02*
X04028788Y03102418D01*
X04052418Y03078788D01*
X04083291Y03066000D01*
X04116709Y03066000D01*
X04147582Y03078788D01*
X04171212Y03102418D01*
X04184000Y03133291D01*
X04184000Y03166709D01*
X04171212Y03197582D01*
X04147582Y03221212D01*
X04116709Y03234000D01*
X04083291Y03234000D01*
X04052418Y03221212D01*
X04028788Y03197582D01*
X04016000Y03166709D01*
X04016000Y03133291D01*
X04016000Y03135711D02*
X00234000Y03135711D01*
X00234000Y03133291D02*
X00221212Y03102418D01*
X00197582Y03078788D01*
X00166709Y03066000D01*
X00133291Y03066000D01*
X00102418Y03078788D01*
X00078788Y03102418D01*
X00066000Y03133291D01*
X00066000Y03166709D01*
X00078788Y03197582D01*
X00102418Y03221212D01*
X00133291Y03234000D01*
X00166709Y03234000D01*
X00197582Y03221212D01*
X00221212Y03197582D01*
X00234000Y03166709D01*
X00234000Y03133291D01*
X00228375Y03119712D02*
X04021625Y03119712D01*
X04028251Y03103714D02*
X00221748Y03103714D01*
X00206509Y03087715D02*
X04043491Y03087715D01*
X04069490Y03071717D02*
X00180509Y03071717D01*
X00119490Y03071717D02*
X00028000Y03071717D01*
X00028000Y03087715D02*
X00093491Y03087715D01*
X00078251Y03103714D02*
X00028000Y03103714D01*
X00028000Y03119712D02*
X00071625Y03119712D01*
X00066000Y03135711D02*
X00028000Y03135711D01*
X00028000Y03151709D02*
X00066000Y03151709D01*
X00066414Y03167708D02*
X00028000Y03167708D01*
X00028000Y03183706D02*
X00073041Y03183706D01*
X00080911Y03199705D02*
X00028000Y03199705D01*
X00028000Y03215703D02*
X00096909Y03215703D01*
X00127743Y03231702D02*
X00028000Y03231702D01*
X00028000Y03247700D02*
X04222000Y03247700D01*
X04222000Y03231702D02*
X04122257Y03231702D01*
X04153090Y03215703D02*
X04222000Y03215703D01*
X04222000Y03199705D02*
X04169089Y03199705D01*
X04176959Y03183706D02*
X04222000Y03183706D01*
X04222000Y03167708D02*
X04183586Y03167708D01*
X04184000Y03151709D02*
X04222000Y03151709D01*
X04222000Y03135711D02*
X04184000Y03135711D01*
X04178375Y03119712D02*
X04222000Y03119712D01*
X04222000Y03103714D02*
X04171748Y03103714D01*
X04156509Y03087715D02*
X04222000Y03087715D01*
X04222000Y03071717D02*
X04130509Y03071717D01*
X04222000Y03055718D02*
X00028000Y03055718D01*
X00028000Y03039719D02*
X04222000Y03039719D01*
X04222000Y03023721D02*
X00028000Y03023721D01*
X00234000Y03151709D02*
X04016000Y03151709D01*
X04016414Y03167708D02*
X00233586Y03167708D01*
X00226959Y03183706D02*
X04023041Y03183706D01*
X04030911Y03199705D02*
X00219089Y03199705D01*
X00203090Y03215703D02*
X04046909Y03215703D01*
X04077743Y03231702D02*
X00172257Y03231702D01*
X00028000Y03263699D02*
X04222000Y03263699D01*
X04222000Y03272000D02*
X04222000Y00028000D01*
X00028000Y00028000D01*
X00028000Y03272000D01*
X04222000Y03272000D01*
X01275197Y00895410D02*
X01275197Y00895410D01*
X01235968Y00815925D02*
X00919509Y00815925D01*
X00903511Y00799926D02*
X01219970Y00799926D01*
X01203971Y00783928D02*
X00887512Y00783928D01*
X00886992Y00767929D02*
X01187973Y00767929D01*
X01171974Y00751931D02*
X00886992Y00751931D01*
X01192000Y00351968D02*
X00028000Y00351968D01*
X00028000Y00335969D02*
X01188510Y00335969D01*
X01184221Y00319970D02*
X00028000Y00319970D01*
X00028000Y00303972D02*
X01188095Y00303972D01*
X01244103Y00287973D02*
X00028000Y00287973D01*
X00028000Y00271975D02*
X04222000Y00271975D01*
X04222000Y00287973D02*
X01258677Y00287973D01*
X01278853Y00303972D02*
X04222000Y00303972D01*
X04222000Y00319970D02*
X01327345Y00319970D01*
X01365150Y00335969D02*
X04222000Y00335969D01*
X04222000Y00351968D02*
X01372890Y00351968D01*
X01550479Y00655939D02*
X02349542Y00655939D01*
X02348142Y00671938D02*
X01566478Y00671938D01*
X01582476Y00687937D02*
X02348142Y00687937D01*
X02349940Y00703935D02*
X01598475Y00703935D01*
X01614473Y00719934D02*
X02348142Y00719934D01*
X02389763Y00671938D02*
X02389764Y00671938D01*
X02389763Y00655939D02*
X02389764Y00655939D01*
X02927000Y00575947D02*
X03061284Y00575947D01*
X03077282Y00559948D02*
X02927000Y00559948D01*
X02927000Y00543950D02*
X03097535Y00543950D01*
X04016000Y00166709D02*
X04016000Y00133291D01*
X04028788Y00102418D01*
X04052418Y00078788D01*
X04083291Y00066000D01*
X04116709Y00066000D01*
X04147582Y00078788D01*
X04171212Y00102418D01*
X04184000Y00133291D01*
X04184000Y00166709D01*
X04171212Y00197582D01*
X04147582Y00221212D01*
X04116709Y00234000D01*
X04083291Y00234000D01*
X04052418Y00221212D01*
X04028788Y00197582D01*
X04016000Y00166709D01*
X04016000Y00159985D02*
X00234000Y00159985D01*
X00234000Y00166709D02*
X00234000Y00133291D01*
X00221212Y00102418D01*
X00197582Y00078788D01*
X00166709Y00066000D01*
X00133291Y00066000D01*
X00102418Y00078788D01*
X00078788Y00102418D01*
X00066000Y00133291D01*
X00066000Y00166709D01*
X00078788Y00197582D01*
X00102418Y00221212D01*
X00133291Y00234000D01*
X00166709Y00234000D01*
X00197582Y00221212D01*
X00221212Y00197582D01*
X00234000Y00166709D01*
X00230158Y00175984D02*
X04019842Y00175984D01*
X04026469Y00191982D02*
X00223531Y00191982D01*
X00210813Y00207981D02*
X04039187Y00207981D01*
X04059100Y00223979D02*
X00190900Y00223979D01*
X00109100Y00223979D02*
X00028000Y00223979D01*
X00028000Y00207981D02*
X00089187Y00207981D01*
X00076469Y00191982D02*
X00028000Y00191982D01*
X00028000Y00175984D02*
X00069842Y00175984D01*
X00066000Y00159985D02*
X00028000Y00159985D01*
X00028000Y00143987D02*
X00066000Y00143987D01*
X00068196Y00127988D02*
X00028000Y00127988D01*
X00028000Y00111990D02*
X00074823Y00111990D01*
X00085215Y00095991D02*
X00028000Y00095991D01*
X00028000Y00079993D02*
X00101213Y00079993D01*
X00028000Y00063994D02*
X04222000Y00063994D01*
X04222000Y00047996D02*
X00028000Y00047996D01*
X00028000Y00031997D02*
X04222000Y00031997D01*
X04222000Y00079993D02*
X04148786Y00079993D01*
X04164785Y00095991D02*
X04222000Y00095991D01*
X04222000Y00111990D02*
X04175176Y00111990D01*
X04181803Y00127988D02*
X04222000Y00127988D01*
X04222000Y00143987D02*
X04184000Y00143987D01*
X04184000Y00159985D02*
X04222000Y00159985D01*
X04222000Y00175984D02*
X04180158Y00175984D01*
X04173531Y00191982D02*
X04222000Y00191982D01*
X04222000Y00207981D02*
X04160813Y00207981D01*
X04140900Y00223979D02*
X04222000Y00223979D01*
X04222000Y00239978D02*
X00028000Y00239978D01*
X00028000Y00255976D02*
X04222000Y00255976D01*
X04016000Y00143987D02*
X00234000Y00143987D01*
X00231803Y00127988D02*
X04018196Y00127988D01*
X04024823Y00111990D02*
X00225176Y00111990D01*
X00214785Y00095991D02*
X04035215Y00095991D01*
X04051213Y00079993D02*
X00198786Y00079993D01*
X00295204Y02895733D02*
X00304795Y02895733D01*
X00304795Y02911731D02*
X00295204Y02911731D01*
X00295204Y02927730D02*
X00304795Y02927730D01*
D37*
X00650000Y02800000D02*
X00750000Y02700000D01*
X00962598Y02700000D01*
X00962598Y02800000D02*
X00850000Y02800000D01*
X00650000Y02512598D02*
X00650000Y02400000D01*
X00692000Y02358000D01*
X00692000Y02082510D01*
X00665000Y02055510D01*
X00665000Y01513000D01*
X00665000Y01493456D01*
X00759456Y01399000D01*
X01176559Y01399000D01*
X01176772Y01399213D01*
X01176772Y01418898D02*
X00765014Y01418898D01*
X00683912Y01500000D01*
X00683912Y01626022D01*
X00689890Y01632000D01*
X00714780Y01642310D02*
X00683000Y01674089D01*
X00683000Y02040000D01*
X00750000Y02107000D01*
X00750000Y02300000D01*
X00792000Y02317397D02*
X00792000Y02036699D01*
X01152211Y01676488D01*
X01175087Y01676488D01*
X01176772Y01674803D01*
X01176969Y01675000D01*
X01280000Y01675000D01*
X01264289Y01694488D02*
X01269690Y01699890D01*
X01290310Y01699890D01*
X01314200Y01676000D01*
X01330000Y01676000D01*
X01354890Y01686310D02*
X01323310Y01717890D01*
X01171465Y01717890D01*
X01127177Y01762177D01*
X01159667Y01694488D02*
X01191000Y01694488D01*
X01264289Y01694488D01*
X01354890Y01686310D02*
X01354890Y01522220D01*
X01675110Y01202000D01*
X01700000Y01050000D02*
X01510000Y01050000D01*
X01511417Y01048583D01*
X01511417Y00926772D01*
X01493417Y00925087D02*
X01493417Y00902211D01*
X01506213Y00889415D01*
X01506213Y00886000D01*
X01531102Y00873470D02*
X01238632Y00581000D01*
X01147193Y00581000D01*
X01041843Y00475650D01*
X01041843Y00401685D01*
X01040157Y00400000D01*
X01022157Y00401685D02*
X01022157Y00481421D01*
X01139737Y00599000D01*
X01231176Y00599000D01*
X01472047Y00839871D01*
X01472047Y00926772D01*
X01452362Y00926772D02*
X01452362Y00845642D01*
X01223720Y00617000D01*
X01132281Y00617000D01*
X01002472Y00487191D01*
X01002472Y00401685D01*
X01000787Y00400000D01*
X00982787Y00401685D02*
X00982787Y00492962D01*
X01124825Y00635000D01*
X01216264Y00635000D01*
X01412992Y00831728D01*
X01412992Y00926772D01*
X01393307Y00926772D02*
X01393307Y00837499D01*
X01208808Y00653000D01*
X01117369Y00653000D01*
X00961417Y00497048D01*
X00961417Y00400000D01*
X00941732Y00400000D02*
X00941732Y00502819D01*
X01109913Y00671000D01*
X01201352Y00671000D01*
X01373622Y00843270D01*
X01373622Y00926772D01*
X01353937Y00926772D02*
X01353937Y00849041D01*
X01193896Y00689000D01*
X01102457Y00689000D01*
X00922047Y00508590D01*
X00922047Y00400000D01*
X00904047Y00401685D02*
X00904047Y00516046D01*
X01095001Y00707000D01*
X01186440Y00707000D01*
X01334252Y00854812D01*
X01334252Y00926772D01*
X01314567Y00926772D02*
X01314567Y00860582D01*
X01178984Y00725000D01*
X01087545Y00725000D01*
X00882677Y00520132D01*
X00882677Y00400000D01*
X00862992Y00400000D02*
X00862992Y00793348D01*
X01152116Y01082472D01*
X01146440Y01102252D02*
X00843307Y00799119D01*
X00843307Y00400000D01*
X00823622Y00400000D02*
X00823622Y00804890D01*
X01140669Y01121937D01*
X01175087Y01121937D01*
X01176772Y01123622D01*
X01176866Y01143213D02*
X01176772Y01143213D01*
X01176866Y01143213D02*
X01199553Y01143213D01*
X01231787Y01143213D01*
X01236000Y01139000D01*
X01208457Y01152116D02*
X01199553Y01143213D01*
X01208457Y01152116D02*
X01208457Y01252608D01*
X01201427Y01259638D01*
X01178551Y01259638D01*
X01148718Y01259638D01*
X00725197Y00836117D01*
X00725197Y00400000D01*
X00744882Y00400000D02*
X00746567Y00401685D01*
X00746567Y00832031D01*
X01134898Y01220362D01*
X01175087Y01220362D01*
X01176772Y01222047D01*
X01176772Y01202362D02*
X01175087Y01200677D01*
X01140669Y01200677D01*
X00764567Y00824575D01*
X00764567Y00400000D01*
X00784252Y00400000D02*
X00784252Y00818804D01*
X01146440Y01180992D01*
X01175087Y01180992D01*
X01176772Y01182677D01*
X01152116Y01161213D02*
X00805622Y00814719D01*
X00805622Y00401685D01*
X00803937Y00400000D01*
X00902362Y00400000D02*
X00904047Y00401685D01*
X00981102Y00400000D02*
X00982787Y00401685D01*
X01020472Y00400000D02*
X01022157Y00401685D01*
X01059843Y00400000D02*
X01061528Y00401685D01*
X01061528Y00469879D01*
X01154649Y00563000D01*
X01246088Y00563000D01*
X01550787Y00867699D01*
X01550787Y00926772D01*
X01531102Y00926772D02*
X01531102Y00873470D01*
X01570472Y00861928D02*
X01253544Y00545000D01*
X01162105Y00545000D01*
X01081213Y00464108D01*
X01081213Y00401685D01*
X01079528Y00400000D01*
X01099213Y00400000D02*
X01100898Y00401685D01*
X01100898Y00458337D01*
X01169561Y00527000D01*
X01261000Y00527000D01*
X01609843Y00875843D01*
X01609843Y00926772D01*
X01629528Y00926772D02*
X01631213Y00928457D01*
X01631213Y00951333D01*
X01638337Y00958457D01*
X01650000Y00958457D01*
X01650000Y00965346D01*
X01650000Y00958457D02*
X01719144Y00958457D01*
X01726268Y00951333D01*
X01726268Y00928457D01*
X01727953Y00926772D01*
X01727858Y00926772D02*
X01726268Y00928362D01*
X01726268Y00928457D01*
X01708268Y00926772D02*
X01708268Y00871268D01*
X01292000Y00455000D01*
X01199385Y00455000D01*
X01179638Y00435253D01*
X01179638Y00434638D01*
X01178000Y00433000D01*
X01178000Y00400047D01*
X01177953Y00400000D01*
X01159000Y00400732D02*
X01159000Y00440000D01*
X01161638Y00442638D01*
X01161638Y00442709D01*
X01191929Y00473000D01*
X01284544Y00473000D01*
X01688583Y00877039D01*
X01688583Y00926772D01*
X01668898Y00926772D02*
X01668898Y00882810D01*
X01277088Y00491000D01*
X01184473Y00491000D01*
X01140268Y00446795D01*
X01140268Y00401685D01*
X01138583Y00400000D01*
X01120583Y00401685D02*
X01120583Y00452566D01*
X01177017Y00509000D01*
X01269632Y00509000D01*
X01649213Y00888580D01*
X01649213Y00926772D01*
X01590157Y00926772D02*
X01590157Y00994843D01*
X01589000Y00996000D01*
X01510000Y01050000D02*
X01355864Y01050000D01*
X01257291Y00951427D01*
X01257291Y00928551D01*
X01255512Y00926772D01*
X01208457Y00973827D01*
X01176772Y00962951D02*
X01176772Y01005417D01*
X01176677Y01005417D01*
X01153990Y01005417D01*
X01145087Y01014321D01*
X01145087Y01036073D01*
X01140916Y01036073D01*
X01025410Y00920567D01*
X01176772Y00962951D02*
X01244636Y00895087D01*
X01266388Y00895087D01*
X01273417Y00902116D01*
X01273417Y00905307D01*
X01294882Y00926772D01*
X01176772Y01005512D02*
X01176677Y01005417D01*
X01175087Y01043197D02*
X01152211Y01043197D01*
X01145087Y01036073D01*
X01175087Y01043197D02*
X01176772Y01044882D01*
X01194882Y01044882D01*
X01204000Y01054000D01*
X01204000Y01061000D01*
X01200528Y01064472D01*
X01176866Y01064472D01*
X01176772Y01064567D01*
X01176772Y01064472D02*
X01176866Y01064472D01*
X01175087Y01102252D02*
X01146440Y01102252D01*
X01175087Y01102252D02*
X01176772Y01103937D01*
X01176866Y01143213D02*
X01176772Y01143307D01*
X01178551Y01259638D02*
X01176772Y01261417D01*
X01176772Y01320472D02*
X00812528Y01320472D01*
X00647000Y01486000D01*
X00647000Y02043510D01*
X00608472Y02082037D01*
X00608472Y02145874D01*
X00650000Y02187402D01*
X00650000Y02300000D01*
X00550000Y02300000D02*
X00550000Y02187402D01*
X00508472Y02145874D01*
X00508472Y02082037D01*
X00519110Y02071400D01*
X00519110Y02030905D01*
X00450000Y01866110D02*
X00450000Y02300000D01*
X00750000Y02359397D02*
X00792000Y02317397D01*
X00750000Y02359397D02*
X00750000Y02400000D01*
X00850000Y02300000D02*
X00850000Y02004155D01*
X01159667Y01694488D01*
X01176772Y01694488D02*
X01191000Y01694488D01*
X01176772Y01655118D02*
X01176654Y01655000D01*
X01144000Y01655000D01*
X01135000Y01664000D01*
X01036544Y01664000D01*
X00982772Y01610228D01*
X00982772Y01549417D01*
X00973882Y01540528D01*
X01000772Y01561409D02*
X01000772Y01602772D01*
X01044000Y01646000D01*
X01127544Y01646000D01*
X01138111Y01635433D01*
X01176772Y01635433D01*
X01176772Y01615843D02*
X01200000Y01615843D01*
X01199906Y01615748D01*
X01176772Y01615748D01*
X01200000Y01615843D02*
X01246157Y01615843D01*
X01247000Y01615000D01*
X01176772Y01576378D02*
X01133805Y01576378D01*
X01126766Y01583417D01*
X01082911Y01583417D01*
X01050331Y01550837D01*
X01050331Y01549417D01*
X01041441Y01540528D01*
X01075220Y01540528D02*
X01084110Y01549417D01*
X01084110Y01550837D01*
X01098690Y01565417D01*
X01119310Y01565417D01*
X01128034Y01556693D01*
X01176772Y01556693D01*
X01176772Y01537008D02*
X01112520Y01537008D01*
X01109000Y01540528D01*
X01175087Y01515638D02*
X00918274Y01515638D01*
X00912000Y01521912D01*
X00912000Y01744509D01*
X00835420Y01821089D01*
X00800220Y01821089D01*
X00789911Y01845979D02*
X00947520Y01845979D01*
X01031250Y01762250D01*
X00894000Y01727310D02*
X00894000Y01514456D01*
X00910818Y01497638D01*
X01176772Y01497638D01*
X01175087Y01495953D01*
X01176772Y01477953D02*
X00905047Y01477953D01*
X00868000Y01515000D01*
X00868000Y01682800D01*
X00874890Y01689690D01*
X00874890Y01711220D01*
X00825110Y01761000D01*
X00825110Y01796200D02*
X00894000Y01727310D01*
X00850000Y01700000D02*
X00850000Y01506583D01*
X00900000Y01456583D01*
X01170481Y01456583D01*
X01170898Y01457000D01*
X01175504Y01457000D01*
X01176772Y01458268D01*
X01178354Y01439000D02*
X01225000Y01439000D01*
X01254000Y01468000D01*
X01331000Y01468000D01*
X01333000Y01470000D01*
X01318000Y01419000D02*
X01318500Y01418500D01*
X01266700Y01418500D01*
X01260310Y01424890D01*
X01239690Y01424890D01*
X01233698Y01418898D01*
X01176772Y01418898D01*
X01177354Y01438000D02*
X01178354Y01439000D01*
X01177354Y01438000D02*
X01176772Y01438583D01*
X00770785Y01438583D01*
X00714780Y01494588D01*
X00714780Y01642310D01*
X00622110Y01694000D02*
X00450000Y01866110D01*
X00707890Y01823000D02*
X00766932Y01823000D01*
X00789911Y01845979D01*
X01063000Y01613000D02*
X01136959Y01613000D01*
X01152116Y01597843D01*
X01176772Y01517323D02*
X01175087Y01515638D01*
X01176772Y01379528D02*
X01229528Y01379528D01*
X01250000Y01400000D01*
X01243843Y01340157D02*
X01176772Y01340157D01*
X01243843Y01340157D02*
X01244000Y01340000D01*
X01318500Y01418500D02*
X01449000Y01288000D01*
X01449000Y01174000D01*
X01433000Y00997000D02*
X01433000Y00927094D01*
X01432677Y00926772D01*
X01491732Y00926772D02*
X01493417Y00925087D01*
X01570472Y00926772D02*
X01570472Y00861928D01*
X01747543Y00926772D02*
X01747543Y00926866D01*
X01747638Y00926772D01*
X01747543Y00926866D02*
X01747543Y01002457D01*
X01700000Y01050000D01*
X01700000Y01387000D01*
X01945500Y01632500D01*
X01650000Y01632500D01*
X01649213Y01633287D01*
X01649213Y01773228D01*
X01668898Y01773228D02*
X01668898Y01820898D01*
X01672000Y01824000D01*
X01594000Y01825403D02*
X01594000Y01873000D01*
X01594000Y01825403D02*
X01572157Y01803560D01*
X01572157Y01774913D01*
X01570472Y01773228D01*
X01570472Y01804472D01*
X01591000Y01825000D01*
X01550787Y01773228D02*
X01550787Y01907874D01*
X01500000Y01958661D01*
X01453000Y01919000D02*
X01492000Y01880000D01*
X01492000Y01773496D01*
X01491732Y01773228D01*
X01513197Y01748573D02*
X01629270Y01632500D01*
X01650000Y01632500D01*
X01531102Y01773228D02*
X01531102Y01886898D01*
X01509000Y01909000D01*
X01453000Y01919000D02*
X01339661Y01919000D01*
X01300000Y01958661D01*
X01335000Y01833000D02*
X01334252Y01832252D01*
X01334252Y01773228D01*
X01373622Y01773228D02*
X01373622Y01812307D01*
X01375000Y01813685D01*
X01007661Y01554520D02*
X01000772Y01561409D01*
X01865748Y00960748D02*
X01865748Y00926772D01*
X01865748Y00891252D01*
X01866000Y00891000D01*
X01865748Y00960748D02*
X01866000Y00961000D01*
X02023228Y01005512D02*
X02188711Y01005512D01*
X02209310Y01026110D01*
X02199000Y01051000D02*
X02643000Y01051000D01*
X02680000Y01014000D01*
X02776184Y01014000D01*
X02851189Y01089005D01*
X02851189Y01168356D01*
X02858219Y01175386D01*
X02941781Y01175386D01*
X02948811Y01168356D01*
X02948811Y01165953D01*
X02975000Y01139764D01*
X02925000Y01139764D02*
X02898811Y01113575D01*
X02898811Y01111171D01*
X02788000Y01000360D01*
X02788000Y00910000D01*
X02779000Y00888000D02*
X02788000Y00879000D01*
X02779000Y00888000D02*
X02754030Y00888000D01*
X02642030Y01000000D01*
X02501000Y01000000D01*
X02426000Y00925000D01*
X02389764Y00925000D01*
X02363575Y00901189D02*
X02361171Y00901189D01*
X02281738Y00980622D01*
X02184399Y00980622D01*
X02201598Y00962622D02*
X02194709Y00955732D01*
X02174089Y00955732D01*
X02149199Y00980622D01*
X02201598Y00962622D02*
X02274000Y00962622D01*
X02334000Y00902622D01*
X02334000Y00791000D01*
X02350000Y00775000D01*
X02389764Y00775000D01*
X02348355Y00751189D02*
X02465978Y00751189D01*
X02492167Y00725000D01*
X02610236Y00725000D01*
X02638829Y00698811D02*
X02645858Y00691781D01*
X02645858Y00658219D01*
X02626000Y00638360D01*
X02626000Y00452456D01*
X02660456Y00418000D01*
X02792544Y00418000D01*
X02871000Y00496456D01*
X02871000Y00638000D01*
X02840000Y00638000D02*
X02840000Y00490912D01*
X02785088Y00436000D01*
X02667912Y00436000D01*
X02644000Y00459912D01*
X02644000Y00630904D01*
X02663858Y00650763D01*
X02663858Y00823781D01*
X02638829Y00848811D01*
X02613189Y00848811D01*
X02613000Y00849000D01*
X02450000Y00849000D01*
X02426000Y00825000D01*
X02389764Y00825000D01*
X02389764Y00875000D02*
X02363575Y00901189D01*
X02316000Y00885422D02*
X02316000Y00783544D01*
X02348355Y00751189D01*
X02389764Y00725000D02*
X02415953Y00698811D01*
X02638829Y00698811D01*
X02610236Y00675000D02*
X02608000Y00672764D01*
X02608000Y00445000D01*
X02653000Y00400000D01*
X02800000Y00400000D01*
X02903000Y00503000D01*
X02903000Y00638000D01*
X02966000Y00638000D02*
X02966000Y00687000D01*
X02976890Y00876263D02*
X02934000Y00919153D01*
X02934000Y00962000D01*
X02956000Y00972000D02*
X02956000Y00995970D01*
X02920810Y01031161D01*
X02920810Y01097252D01*
X02895920Y01073080D02*
X02840000Y01017161D01*
X02840000Y00962000D01*
X02768728Y01032000D02*
X02687456Y01032000D01*
X02650456Y01069000D01*
X02509890Y01069000D01*
X02503000Y01075890D01*
X02532772Y01093890D02*
X02539661Y01087000D01*
X02709000Y01087000D01*
X02725000Y01103000D01*
X02725000Y01139764D01*
X02675000Y01139764D02*
X02675000Y01191000D01*
X02734000Y01250000D01*
X03031000Y01250000D01*
X03072000Y01209000D01*
X03072000Y01029970D01*
X03038000Y00995970D01*
X03038000Y00971000D01*
X03029000Y00962000D01*
X03060000Y00962000D02*
X03060000Y00992515D01*
X03090000Y01022515D01*
X03090000Y01216456D01*
X03038456Y01268000D01*
X02792000Y01268000D01*
X02725000Y01335000D01*
X02725000Y01360236D01*
X02748811Y01386425D02*
X02748811Y01388829D01*
X02741781Y01395858D01*
X02555858Y01395858D01*
X02283622Y01123622D01*
X02023228Y01123622D01*
X02024913Y01141622D02*
X02023228Y01143307D01*
X02024913Y01141622D02*
X02122622Y01141622D01*
X02129512Y01148512D01*
X02131000Y01148512D01*
X02101228Y01166512D02*
X02097709Y01162992D01*
X02023228Y01162992D01*
X02023228Y01182677D02*
X02051677Y01182677D01*
X02094000Y01225000D01*
X02137598Y01225000D01*
X02078900Y01245100D02*
X02062583Y01261417D01*
X02023228Y01261417D01*
X02024731Y01279600D02*
X02023228Y01281102D01*
X02024731Y01279600D02*
X02079600Y01279600D01*
X02076000Y01313380D02*
X02076000Y01358000D01*
X02054472Y01379528D01*
X02023228Y01379528D01*
X02023228Y01202362D02*
X01948252Y01202362D01*
X01947890Y01202000D01*
X02023661Y01065000D02*
X02023228Y01064567D01*
X02023661Y01065000D02*
X02099000Y01065000D01*
X02139622Y01105622D01*
X02291078Y01105622D01*
X02563314Y01377858D01*
X02622110Y01377858D01*
X02629000Y01370969D01*
X02573624Y01352969D02*
X02289656Y01069000D01*
X02191544Y01069000D01*
X02167426Y01044882D01*
X02023228Y01044882D01*
X02023228Y01025197D02*
X02023425Y01025000D01*
X02173000Y01025000D01*
X02199000Y01051000D01*
X02263690Y00937732D02*
X02316000Y00885422D01*
X02337000Y00975000D02*
X02389764Y00975000D01*
X02768728Y01032000D02*
X02825000Y01088272D01*
X02825000Y01139764D01*
X02775000Y01139764D02*
X02775000Y01206000D01*
X02801000Y01232000D01*
X03023544Y01232000D01*
X03054000Y01201544D01*
X03054000Y01047000D01*
X02997000Y00990000D01*
X02997000Y00962000D01*
X02966000Y00962000D02*
X02956000Y00972000D01*
X03112000Y00910000D02*
X03112000Y01219912D01*
X03045912Y01286000D01*
X02848000Y01286000D01*
X02826000Y01308000D01*
X02826000Y01359236D01*
X02825000Y01360236D01*
X02848811Y01386425D02*
X02848811Y01388829D01*
X02823781Y01413858D01*
X02682890Y01413858D01*
X02676000Y01420748D01*
X02700089Y01431858D02*
X02937142Y01431858D01*
X02975000Y01394000D01*
X02975000Y01360236D01*
X02925000Y01360236D02*
X02925000Y01334000D01*
X02955000Y01304000D01*
X03053368Y01304000D01*
X03153000Y01204368D01*
X03153000Y00895030D01*
X03145970Y00888000D01*
X03121000Y00888000D01*
X03112000Y00879000D01*
X03237000Y01113000D02*
X03237000Y01914970D01*
X03128970Y02023000D01*
X03112000Y02023000D01*
X03085000Y02050000D01*
X03085000Y02000000D02*
X02965000Y02000000D01*
X02916000Y01951000D01*
X02916000Y01538000D01*
X02940890Y01563000D02*
X02940890Y01712890D01*
X03028000Y01800000D01*
X03085000Y01800000D01*
X02700089Y01431858D02*
X02686310Y01445638D01*
X02665690Y01445638D01*
X02642220Y01422168D01*
X02748811Y01386425D02*
X02775000Y01360236D01*
X02848811Y01386425D02*
X02875000Y01360236D01*
X02482012Y01357211D02*
X02392789Y01357211D01*
X02103000Y01647000D01*
X02103000Y01682200D01*
X01500000Y02285200D01*
X01500000Y02510000D01*
X01403783Y02510000D01*
X01401185Y02512598D01*
X01600000Y02571000D02*
X01600000Y02627165D01*
X01990000Y02650000D02*
X01991000Y02649000D01*
X02033000Y02649000D01*
X01909000Y01824000D02*
X01924803Y01808197D01*
X01924803Y01773228D01*
X01905118Y01773228D02*
X01905118Y01820118D01*
X01909000Y01824000D01*
X01944488Y01773228D02*
X01944488Y01633512D01*
X01945500Y01632500D01*
X01988000Y01675000D01*
X01988197Y01674803D01*
X02023228Y01674803D01*
X02023228Y01655118D02*
X02055118Y01655118D01*
X02057000Y01657000D01*
X02054913Y01659087D01*
X02054913Y01685679D01*
X02050000Y01690593D01*
X02050000Y01694488D01*
X02060512Y01694488D01*
X02062000Y01693000D01*
X02050000Y01694488D02*
X02023228Y01694488D01*
X02023228Y01635433D02*
X02083567Y01635433D01*
X02084000Y01635000D01*
X03237000Y01113000D02*
X03400000Y00950000D01*
X01361313Y00462687D02*
X01355118Y00456491D01*
X01355118Y00400000D01*
X01315748Y00400000D02*
X01315748Y00372203D01*
X01324557Y00363394D01*
X01335110Y00363394D01*
X01342000Y00356504D01*
X01308220Y00344531D02*
X01296063Y00356688D01*
X01296063Y00400000D01*
X01276378Y00400000D02*
X01276378Y00345048D01*
X01274441Y00343111D01*
X01251390Y00330962D02*
X01249551Y00332801D01*
X01249551Y00359290D01*
X01255008Y00364747D01*
X01255008Y00398315D01*
X01256693Y00400000D01*
X01237008Y00400000D02*
X01235228Y00398220D01*
X01251390Y00330962D02*
X01251390Y00318390D01*
X01215110Y00319470D02*
X01215000Y00319580D01*
X01158268Y00400000D02*
X01159000Y00400732D01*
X01120583Y00401685D02*
X01118898Y00400000D01*
X00685827Y00400000D02*
X00685827Y00475803D01*
X00691031Y00481008D01*
X00666142Y00503890D02*
X00666142Y00400000D01*
X00666142Y00503890D02*
X00671252Y00509000D01*
D38*
X00671252Y00509000D03*
X00691031Y00481008D03*
X01165094Y00352094D03*
X01215110Y00319470D03*
X01251390Y00318390D03*
X01274441Y00343111D03*
X01308220Y00344531D03*
X01342000Y00356504D03*
X01361313Y00462687D03*
X01506213Y00886000D03*
X01433000Y00997000D03*
X01589000Y00996000D03*
X01650000Y00965346D03*
X01800000Y01100000D03*
X01900000Y01100000D03*
X01947890Y01135000D03*
X01947890Y01202000D03*
X01958000Y01242000D03*
X02078900Y01245100D03*
X02079600Y01279600D03*
X02076000Y01313380D03*
X02213000Y01284000D03*
X02101228Y01166512D03*
X02131000Y01148512D03*
X02209310Y01026110D03*
X02184399Y00980622D03*
X02149199Y00980622D03*
X02263690Y00937732D03*
X02337000Y00975000D03*
X02450000Y01000000D03*
X02503000Y01075890D03*
X02532772Y01093890D03*
X02691915Y00914915D03*
X02895920Y01073080D03*
X02920810Y01097252D03*
X02976890Y00876263D03*
X02950000Y00752000D03*
X02966000Y00687000D03*
X03030000Y00711000D03*
X02731000Y00599000D03*
X02699000Y00760000D03*
X03264000Y01010000D03*
X02675000Y01306000D03*
X02629000Y01370969D03*
X02573624Y01352969D03*
X02482012Y01357211D03*
X02426307Y01484000D03*
X02642220Y01422168D03*
X02676000Y01420748D03*
X02916000Y01538000D03*
X02940890Y01563000D03*
X02635000Y01709000D03*
X02625000Y01857000D03*
X02622000Y02049000D03*
X02787000Y02128000D03*
X02730497Y02222000D03*
X03250000Y02100000D03*
X03367000Y01726496D03*
X02700000Y02650000D03*
X02783000Y02682000D03*
X02516000Y02713992D03*
X02450000Y02729000D03*
X02264000Y02713000D03*
X02200000Y02729000D03*
X02237000Y02643000D03*
X02033000Y02649000D03*
X01850000Y02750000D03*
X01850000Y02800000D03*
X01600000Y02874000D03*
X01600000Y02925000D03*
X01391136Y02641136D03*
X01340000Y02587000D03*
X01600000Y02571000D03*
X01550000Y02200000D03*
X01600000Y02100000D03*
X01375000Y02100000D03*
X01509000Y01909000D03*
X01375000Y01813685D03*
X01330000Y01676000D03*
X01280000Y01675000D03*
X01247000Y01615000D03*
X01109000Y01540528D03*
X01075220Y01540528D03*
X01041441Y01540528D03*
X01007661Y01554520D03*
X00973882Y01540528D03*
X01063000Y01613000D03*
X01031250Y01762250D03*
X01127177Y01762177D03*
X00850000Y01700000D03*
X00825110Y01761000D03*
X00825110Y01796200D03*
X00800220Y01821089D03*
X00707890Y01823000D03*
X00622110Y01694000D03*
X00689890Y01632000D03*
X00474890Y01943000D03*
X00519110Y02030905D03*
X00425110Y02077000D03*
X00650000Y02112598D03*
X01050000Y02500000D03*
X00729645Y02652472D03*
X01681000Y01827000D03*
X01842000Y01818000D03*
X01866000Y01851000D03*
X01880516Y01950000D03*
X01942295Y02013000D03*
X02150000Y02150000D03*
X02150000Y02200000D03*
X02100000Y01750000D03*
X01970000Y01576000D03*
X01880516Y01568500D03*
X01911406Y01476493D03*
X01966000Y01438000D03*
X02100000Y01550000D03*
X01675110Y01202000D03*
X01500000Y01300000D03*
X01449000Y01174000D03*
X01236000Y01139000D03*
X01244000Y01340000D03*
X01250000Y01400000D03*
X01333000Y01470000D03*
X01550000Y01600000D03*
X01866000Y00961000D03*
X01025410Y00920567D03*
D39*
X01900000Y01100000D02*
X01900000Y01117000D01*
X01900000Y01465087D01*
X01911406Y01476493D01*
X02212402Y01283402D02*
X02212402Y01225000D01*
X02212402Y01283402D02*
X02213000Y01284000D01*
X02426307Y01484000D02*
X02928000Y01484000D01*
X03025000Y01387000D01*
X03025000Y01360236D01*
X02691915Y00914915D02*
X02741000Y00865830D01*
X02741000Y00861544D01*
X02755544Y00847000D01*
X02788000Y00847000D01*
X02450000Y01000000D02*
X02425000Y01025000D01*
X02389764Y01025000D01*
X01880516Y01950000D02*
X01942295Y02011780D01*
X01942295Y02013000D01*
X01600000Y02037402D02*
X01600000Y02100000D01*
X01375000Y02100000D01*
X01237598Y02237402D01*
X01150000Y02237402D01*
X00995645Y02391757D01*
X00995645Y02652472D01*
X00729645Y02652472D01*
X00602000Y02780118D01*
X00602000Y02848000D01*
X00550000Y02900000D01*
X00995645Y02652472D02*
X01006189Y02663016D01*
X01006189Y02668787D01*
X01037402Y02700000D01*
X01037402Y02800000D01*
X01216000Y02914000D02*
X01286000Y02984000D01*
X01907000Y02984000D01*
X01942500Y02948500D01*
X01942500Y02900000D01*
X01942500Y02797500D01*
X01990000Y02750000D01*
X01990000Y02650000D01*
X01990000Y02550000D01*
X01991000Y02649000D02*
X01990000Y02650000D01*
X01850000Y02750000D02*
X01850000Y02800000D01*
X01757500Y02797500D02*
X01710000Y02750000D01*
X01710000Y02650000D01*
X01687165Y02627165D01*
X01600000Y02627165D01*
X01537315Y02590000D02*
X01587205Y02540110D01*
X01612795Y02540110D01*
X01622685Y02550000D01*
X01710000Y02550000D01*
X01715331Y02550000D01*
X01758922Y02506409D01*
X02335409Y02506409D01*
X02487000Y02658000D01*
X02487000Y02465497D01*
X02730497Y02222000D01*
X02963000Y02222000D01*
X03085000Y02100000D01*
X02487000Y02658000D02*
X02487000Y02700000D01*
X02500992Y02713992D01*
X02516000Y02713992D01*
X02465882Y02744882D02*
X02215882Y02744882D01*
X02200000Y02729000D01*
X02200000Y02700000D01*
X02237000Y02700000D02*
X02237000Y02643000D01*
X02237000Y02700000D02*
X02250000Y02713000D01*
X02264000Y02713000D01*
X02450000Y02700000D02*
X02450000Y02729000D01*
X02465882Y02744882D01*
X02650000Y02744882D01*
X02781890Y02750000D02*
X02783000Y02748890D01*
X02783000Y02682000D01*
X01757500Y02797500D02*
X01757500Y02900000D01*
X01600000Y02772835D02*
X01498031Y02772835D01*
X01470866Y02800000D01*
X01391136Y02720270D01*
X01391136Y02641136D01*
X01401185Y02587402D02*
X01329134Y02659453D01*
X01329134Y02800000D01*
X01216000Y02914000D02*
X01216000Y02524000D01*
X01227402Y02512598D01*
X01298815Y02512598D01*
X01299217Y02587000D02*
X01298815Y02587402D01*
X01299217Y02587000D02*
X01340000Y02587000D01*
X01401185Y02587402D02*
X01497402Y02587402D01*
X01500000Y02590000D01*
X01537315Y02590000D01*
X01150000Y02162598D02*
X01150000Y02041339D01*
X01375000Y02062402D02*
X01400000Y02037402D01*
X01375000Y02062402D02*
X01375000Y02100000D01*
X00550000Y02112598D02*
X00550000Y02018110D01*
X00474890Y01943000D01*
X00425110Y02077000D02*
X00425110Y02257007D01*
X00402000Y02280118D01*
X00402000Y02319882D01*
X00430118Y02348000D01*
X00498000Y02348000D01*
X00550000Y02400000D01*
D40*
X01275197Y00926772D02*
X01294882Y00926772D01*
D41*
X01208457Y00973827D02*
X01208457Y01021543D01*
X01204803Y01025197D01*
X01176772Y01025197D01*
X01176772Y01084252D02*
X01153896Y01084252D01*
X01152116Y01082472D01*
X01152116Y01161213D02*
X01153896Y01162992D01*
X01176772Y01162992D01*
X01767323Y00926772D02*
X01767323Y00905323D01*
X01764543Y00902543D01*
X01764543Y00902530D01*
X01300013Y00438000D01*
X01209000Y00438000D01*
X01197638Y00426638D01*
X01197638Y00400000D01*
X01214638Y00397315D02*
X01214638Y00370932D01*
X01195800Y00352094D01*
X01165094Y00352094D01*
X01215000Y00345000D02*
X01215110Y00344890D01*
X01215110Y00319470D01*
X01215000Y00345000D02*
X01222551Y00345000D01*
X01232551Y00355000D01*
X01232551Y00366332D01*
X01237008Y00370789D01*
X01237008Y00400000D01*
X01217323Y00400000D02*
X01214638Y00397315D01*
X00706000Y00399512D02*
X00706000Y00349000D01*
X00706000Y00399512D02*
X00705512Y00400000D01*
X01826378Y00926772D02*
X01829157Y00929551D01*
X01829157Y00957943D01*
X01900000Y01028785D01*
X01900000Y01100000D01*
X01927000Y01100000D01*
X01943000Y01084000D01*
X02022976Y01084000D01*
X02023228Y01084252D01*
X02023228Y01103937D02*
X01980063Y01103937D01*
X01949000Y01135000D01*
X01947890Y01135000D01*
X01900000Y01117000D02*
X01900000Y01100000D01*
X01958268Y01241732D02*
X01958000Y01242000D01*
X01958268Y01241732D02*
X02023228Y01241732D01*
X02022646Y01438000D02*
X01966000Y01438000D01*
X02022646Y01438000D02*
X02023228Y01438583D01*
X02023866Y01497000D02*
X02067000Y01497000D01*
X02023866Y01497000D02*
X02023228Y01497638D01*
X01994362Y01497638D01*
X01994000Y01498000D01*
X01970000Y01576000D02*
X01970378Y01576378D01*
X02023228Y01576378D01*
X02023228Y01635433D02*
X01993433Y01635433D01*
X01993000Y01635000D01*
X01945500Y01632500D02*
X01944516Y01632500D01*
X01880516Y01568500D01*
X01806693Y01773228D02*
X01804008Y01775913D01*
X01804008Y01839034D01*
X01792152Y01850890D01*
X01792262Y01851000D01*
X01866000Y01851000D01*
X01792152Y01850890D02*
X01671104Y01850890D01*
X01626215Y01806000D01*
X01599000Y01806000D01*
X01590157Y01797157D01*
X01590157Y01773228D01*
X01511417Y01773228D02*
X01511417Y01750352D01*
X01513197Y01748573D01*
X01668898Y01820898D02*
X01674898Y01820898D01*
X01681000Y01827000D01*
X01760008Y01827000D01*
X01787008Y01800000D01*
X01787008Y01801992D01*
X01779000Y01810000D01*
X01787008Y01800000D02*
X01787008Y01773228D01*
D42*
X01176772Y01596063D02*
X01174992Y01597843D01*
X01152116Y01597843D01*
D43*
X02650000Y02744882D02*
X02655118Y02750000D01*
X02781890Y02750000D01*
X03018110Y02750000D02*
X03085039Y02816929D01*
X03254724Y02816929D01*
X03254724Y02683071D01*
X03462000Y02499795D02*
X03462000Y01634260D01*
X03518000Y01578260D01*
X03518000Y01578000D01*
X03553874Y01542126D01*
X03875984Y01542126D01*
X03462000Y02499795D02*
X03645276Y02683071D01*
X03645276Y02816929D01*
M02*
