G75*
%MOIN*%
%OFA0B0*%
%FSLAX26Y26*%
%IPPOS*%
%LPD*%
%AMOC8*
5,1,8,0,0,1.08239X$1,22.5*
%
%ADD10R,0.051181X0.062992*%
%ADD11R,0.055118X0.039370*%
%ADD12OC8,0.060000*%
%ADD13R,0.055118X0.074803*%
%ADD14R,0.051181X0.059055*%
%ADD15R,0.078000X0.022000*%
%ADD16C,0.106299*%
%ADD17R,0.059055X0.062992*%
%ADD18R,0.063000X0.022000*%
%ADD19C,0.094488*%
%ADD20R,0.059055X0.051181*%
%ADD21R,0.052000X0.022000*%
%ADD22R,0.062992X0.051181*%
%ADD23C,0.025780*%
%ADD24C,0.016000*%
%ADD25C,0.024000*%
%ADD26C,0.012000*%
%ADD27C,0.020000*%
%ADD28C,0.010000*%
%ADD29C,0.006000*%
D10*
X01760630Y01487000D03*
X01839370Y01487000D03*
X01839370Y01713000D03*
X01760630Y01713000D03*
X02685630Y01775000D03*
X02764370Y01775000D03*
X02764370Y01625000D03*
X02685630Y01625000D03*
X03210630Y01700000D03*
X03289370Y01700000D03*
X03289370Y01825000D03*
X03210630Y01825000D03*
X02864370Y00675000D03*
X02785630Y00675000D03*
X02785630Y00525000D03*
X02864370Y00525000D03*
D11*
X02943307Y01712598D03*
X02943307Y01787402D03*
X02856693Y01750000D03*
D12*
X03300000Y00950000D03*
X03300000Y00850000D03*
X03300000Y00750000D03*
X03400000Y00750000D03*
X03400000Y00850000D03*
X03400000Y00950000D03*
X00850000Y02300000D03*
X00750000Y02300000D03*
X00650000Y02300000D03*
X00550000Y02300000D03*
X00550000Y02400000D03*
X00650000Y02400000D03*
X00750000Y02400000D03*
X00850000Y02400000D03*
X00450000Y02400000D03*
X00450000Y02300000D03*
X00450000Y02800000D03*
X00450000Y02900000D03*
X00550000Y02900000D03*
X00650000Y02900000D03*
X00750000Y02900000D03*
X00850000Y02900000D03*
X00850000Y02800000D03*
X00750000Y02800000D03*
X00650000Y02800000D03*
X00550000Y02800000D03*
D13*
X02502756Y01786614D03*
X02597244Y01786614D03*
X02597244Y01613386D03*
X02502756Y01613386D03*
X02602756Y00686614D03*
X02697244Y00686614D03*
X02697244Y00513386D03*
X02602756Y00513386D03*
D14*
X03112598Y01050000D03*
X03187402Y01050000D03*
X03137402Y01700000D03*
X03062598Y01700000D03*
X03062598Y01825000D03*
X03137402Y01825000D03*
X03112598Y01950000D03*
X03187402Y01950000D03*
D15*
X02993000Y01925000D03*
X02993000Y01975000D03*
X02993000Y02025000D03*
X02993000Y02075000D03*
X02807000Y02075000D03*
X02807000Y02025000D03*
X02807000Y01975000D03*
X02807000Y01925000D03*
D16*
X03718504Y01778346D03*
X03875984Y01699606D03*
X04033465Y01620866D03*
X03875984Y01542126D03*
X04033465Y01463386D03*
X03718504Y01463386D03*
X03718504Y01620866D03*
X04033465Y01778346D03*
D17*
X01474803Y01600394D03*
X01325197Y01600394D03*
X01325197Y01399606D03*
X01474803Y01399606D03*
D18*
X01504000Y01225000D03*
X01504000Y01175000D03*
X01504000Y01125000D03*
X01504000Y01075000D03*
X01296000Y01075000D03*
X01296000Y01125000D03*
X01296000Y01175000D03*
X01296000Y01225000D03*
D19*
X03207480Y02683071D02*
X03301969Y02683071D01*
X03301969Y02816929D02*
X03207480Y02816929D01*
X03598031Y02816929D02*
X03692520Y02816929D01*
X03692520Y02683071D02*
X03598031Y02683071D01*
D20*
X03450000Y01787402D03*
X03450000Y01712598D03*
D21*
X01847000Y01637000D03*
X01847000Y01563000D03*
X01753000Y01600000D03*
D22*
X02150000Y02760630D03*
X02150000Y02839370D03*
X02250000Y02839370D03*
X02250000Y02760630D03*
X02400000Y02760630D03*
X02400000Y02839370D03*
X02500000Y02839370D03*
X02500000Y02760630D03*
D23*
X02516000Y02713992D03*
X02450000Y02729000D03*
X02264000Y02713000D03*
X02200000Y02729000D03*
X02237000Y02643000D03*
X02033000Y02649000D03*
X01850000Y02750000D03*
X01850000Y02800000D03*
X01600000Y02874000D03*
X01600000Y02925000D03*
X01391136Y02641136D03*
X01340000Y02587000D03*
X01600000Y02571000D03*
X01550000Y02200000D03*
X01600000Y02100000D03*
X01375000Y02100000D03*
X01509000Y01909000D03*
X01375000Y01813685D03*
X01330000Y01676000D03*
X01280000Y01675000D03*
X01247000Y01615000D03*
X01109000Y01540528D03*
X01075220Y01540528D03*
X01041441Y01540528D03*
X01007661Y01554520D03*
X00973882Y01540528D03*
X01063000Y01613000D03*
X01031250Y01762250D03*
X01127177Y01762177D03*
X00850000Y01700000D03*
X00825110Y01761000D03*
X00825110Y01796200D03*
X00800220Y01821089D03*
X00707890Y01823000D03*
X00622110Y01694000D03*
X00689890Y01632000D03*
X00474890Y01943000D03*
X00519110Y02030905D03*
X00425110Y02077000D03*
X00650000Y02112598D03*
X01050000Y02500000D03*
X00729645Y02652472D03*
X01681000Y01827000D03*
X01842000Y01818000D03*
X01866000Y01851000D03*
X01880516Y01950000D03*
X01942295Y02013000D03*
X02150000Y02150000D03*
X02150000Y02200000D03*
X02622000Y02049000D03*
X02787000Y02128000D03*
X02730497Y02222000D03*
X02625000Y01857000D03*
X02635000Y01709000D03*
X02426307Y01484000D03*
X02482012Y01357211D03*
X02573624Y01352969D03*
X02629000Y01370969D03*
X02675000Y01306000D03*
X02676000Y01420748D03*
X02642220Y01422168D03*
X02916000Y01538000D03*
X02940890Y01563000D03*
X03367000Y01726496D03*
X03250000Y02100000D03*
X02700000Y02650000D03*
X02783000Y02682000D03*
X02100000Y01750000D03*
X01970000Y01576000D03*
X01880516Y01568500D03*
X01911406Y01476493D03*
X01966000Y01438000D03*
X02076000Y01313380D03*
X02079600Y01279600D03*
X02078900Y01245100D03*
X02101228Y01166512D03*
X02131000Y01148512D03*
X02209310Y01026110D03*
X02184399Y00980622D03*
X02149199Y00980622D03*
X02263690Y00937732D03*
X02337000Y00975000D03*
X02450000Y01000000D03*
X02503000Y01075890D03*
X02532772Y01093890D03*
X02691915Y00914915D03*
X02895920Y01073080D03*
X02920810Y01097252D03*
X02976890Y00876263D03*
X02950000Y00752000D03*
X02966000Y00687000D03*
X03030000Y00711000D03*
X02731000Y00599000D03*
X02699000Y00760000D03*
X03264000Y01010000D03*
X02213000Y01284000D03*
X01958000Y01242000D03*
X01947890Y01202000D03*
X01947890Y01135000D03*
X01900000Y01100000D03*
X01800000Y01100000D03*
X01675110Y01202000D03*
X01500000Y01300000D03*
X01449000Y01174000D03*
X01236000Y01139000D03*
X01433000Y00997000D03*
X01506213Y00886000D03*
X01589000Y00996000D03*
X01650000Y00965346D03*
X01866000Y00961000D03*
X01244000Y01340000D03*
X01250000Y01400000D03*
X01333000Y01470000D03*
X01550000Y01600000D03*
X02100000Y01550000D03*
X01025410Y00920567D03*
X00671252Y00509000D03*
X00691031Y00481008D03*
X01165094Y00352094D03*
X01215110Y00319470D03*
X01251390Y00318390D03*
X01274441Y00343111D03*
X01308220Y00344531D03*
X01342000Y00356504D03*
X01361313Y00462687D03*
D24*
X00028000Y00028000D02*
X00028000Y03272000D01*
X04222000Y03272000D01*
X04222000Y00028000D01*
X00028000Y00028000D01*
X00028000Y00031997D02*
X04222000Y00031997D01*
X04222000Y00047996D02*
X00028000Y00047996D01*
X00028000Y00063994D02*
X04222000Y00063994D01*
X04222000Y00079993D02*
X04148786Y00079993D01*
X04147582Y00078788D02*
X04171212Y00102418D01*
X04184000Y00133291D01*
X04184000Y00166709D01*
X04171212Y00197582D01*
X04147582Y00221212D01*
X04116709Y00234000D01*
X04083291Y00234000D01*
X04052418Y00221212D01*
X04028788Y00197582D01*
X04016000Y00166709D01*
X04016000Y00133291D01*
X04028788Y00102418D01*
X04052418Y00078788D01*
X04083291Y00066000D01*
X04116709Y00066000D01*
X04147582Y00078788D01*
X04164785Y00095991D02*
X04222000Y00095991D01*
X04222000Y00111990D02*
X04175176Y00111990D01*
X04181803Y00127988D02*
X04222000Y00127988D01*
X04222000Y00143987D02*
X04184000Y00143987D01*
X04184000Y00159985D02*
X04222000Y00159985D01*
X04222000Y00175984D02*
X04180158Y00175984D01*
X04173531Y00191982D02*
X04222000Y00191982D01*
X04222000Y00207981D02*
X04160813Y00207981D01*
X04140900Y00223979D02*
X04222000Y00223979D01*
X04222000Y00239978D02*
X00028000Y00239978D01*
X00028000Y00255976D02*
X04222000Y00255976D01*
X04222000Y00271975D02*
X00028000Y00271975D01*
X00028000Y00287973D02*
X01244103Y00287973D01*
X01245246Y00287500D02*
X01257534Y00287500D01*
X01268888Y00292203D01*
X01277577Y00300892D01*
X01282280Y00312246D01*
X01282280Y00312923D01*
X01291938Y00316924D01*
X01292586Y00317572D01*
X01302076Y00313641D01*
X01314365Y00313641D01*
X01325718Y00318344D01*
X01333828Y00326454D01*
X01335856Y00325614D01*
X01348144Y00325614D01*
X01359498Y00330317D01*
X01368187Y00339006D01*
X01372890Y00350359D01*
X01372890Y00362648D01*
X01368187Y00374001D01*
X01359498Y00382691D01*
X01348144Y00387394D01*
X01345051Y00387394D01*
X01300000Y00432445D01*
X01300000Y00811774D01*
X01296346Y00820595D01*
X01289595Y00827346D01*
X01133000Y00983941D01*
X01133000Y01520843D01*
X01135187Y01523030D01*
X01139890Y01534383D01*
X01139890Y01546672D01*
X01135187Y01558025D01*
X01126498Y01566715D01*
X01115144Y01571417D01*
X01102856Y01571417D01*
X01092110Y01566966D01*
X01081365Y01571417D01*
X01069076Y01571417D01*
X01058331Y01566966D01*
X01047585Y01571417D01*
X01035297Y01571417D01*
X01034273Y01570993D01*
X01033848Y01572017D01*
X01025159Y01580707D01*
X01013806Y01585409D01*
X01001517Y01585409D01*
X00990164Y01580707D01*
X00981474Y01572017D01*
X00981050Y01570993D01*
X00980026Y01571417D01*
X00967737Y01571417D01*
X00956384Y01566715D01*
X00947695Y01558025D01*
X00942992Y01546672D01*
X00942992Y01534383D01*
X00947695Y01523030D01*
X00956384Y01514340D01*
X00967737Y01509638D01*
X00969410Y01509638D01*
X01013000Y01466048D01*
X01013000Y00939402D01*
X01016654Y00930581D01*
X01023405Y00923830D01*
X01180000Y00767235D01*
X01180000Y00335550D01*
X01183654Y00326729D01*
X01184381Y00326002D01*
X01184221Y00325614D01*
X01184221Y00313326D01*
X01188923Y00301972D01*
X01197613Y00293283D01*
X01208966Y00288580D01*
X01221255Y00288580D01*
X01232608Y00293283D01*
X01232710Y00293385D01*
X01233892Y00292203D01*
X01245246Y00287500D01*
X01258677Y00287973D02*
X04222000Y00287973D01*
X04222000Y00303972D02*
X01278853Y00303972D01*
X01327345Y00319970D02*
X04222000Y00319970D01*
X04222000Y00335969D02*
X01365150Y00335969D01*
X01372890Y00351968D02*
X04222000Y00351968D01*
X04222000Y00367966D02*
X01370687Y00367966D01*
X01356423Y00383965D02*
X04222000Y00383965D01*
X04222000Y00399963D02*
X01332482Y00399963D01*
X01316483Y00415962D02*
X04222000Y00415962D01*
X04222000Y00431960D02*
X01300485Y00431960D01*
X01300000Y00447959D02*
X04222000Y00447959D01*
X04222000Y00463957D02*
X02738232Y00463957D01*
X02742803Y00468528D02*
X02742803Y00485284D01*
X02752583Y00475504D01*
X02818676Y00475504D01*
X02825000Y00481828D01*
X02827727Y00479100D01*
X02831832Y00476731D01*
X02836410Y00475504D01*
X02859575Y00475504D01*
X02859575Y00520204D01*
X02869165Y00520204D01*
X02869165Y00475504D01*
X02892330Y00475504D01*
X02896908Y00476731D01*
X02901013Y00479100D01*
X02904364Y00482452D01*
X02906734Y00486556D01*
X02907961Y00491134D01*
X02907961Y00520204D01*
X02869166Y00520204D01*
X02869166Y00529795D01*
X02907960Y00529795D01*
X02907961Y00558866D01*
X02906734Y00563444D01*
X02904364Y00567548D01*
X02901013Y00570900D01*
X02896908Y00573269D01*
X02892330Y00574496D01*
X02869165Y00574496D01*
X02869165Y00529796D01*
X02859575Y00529796D01*
X02859575Y00574496D01*
X02836410Y00574496D01*
X02831832Y00573269D01*
X02827727Y00570900D01*
X02825000Y00568172D01*
X02818676Y00574496D01*
X02757663Y00574496D01*
X02756602Y00575557D01*
X02756602Y00580917D01*
X02757187Y00581502D01*
X02761890Y00592856D01*
X02761890Y00605144D01*
X02757187Y00616498D01*
X02748498Y00625187D01*
X02737144Y00629890D01*
X02724856Y00629890D01*
X02713502Y00625187D01*
X02704813Y00616498D01*
X02700110Y00605144D01*
X02700110Y00592856D01*
X02700967Y00590787D01*
X02648986Y00590787D01*
X02639430Y00586829D01*
X02621388Y00568787D01*
X02567741Y00568787D01*
X02557197Y00558243D01*
X02557197Y00468528D01*
X02567741Y00457984D01*
X02637771Y00457984D01*
X02648315Y00468528D01*
X02648315Y00522175D01*
X02651685Y00525546D01*
X02651685Y00468528D01*
X02662229Y00457984D01*
X02732259Y00457984D01*
X02742803Y00468528D01*
X02742803Y00479956D02*
X02748132Y00479956D01*
X02823128Y00479956D02*
X02826872Y00479956D01*
X02859575Y00479956D02*
X02869165Y00479956D01*
X02869165Y00495954D02*
X02859575Y00495954D01*
X02859575Y00511953D02*
X02869165Y00511953D01*
X02869166Y00527951D02*
X04222000Y00527951D01*
X04222000Y00511953D02*
X02907961Y00511953D01*
X02907961Y00495954D02*
X04222000Y00495954D01*
X04222000Y00479956D02*
X02901868Y00479956D01*
X02907960Y00543950D02*
X04222000Y00543950D01*
X04222000Y00559948D02*
X02907671Y00559948D01*
X02869165Y00559948D02*
X02859575Y00559948D01*
X02859575Y00543950D02*
X02869165Y00543950D01*
X02785630Y00525000D02*
X02770390Y00525000D01*
X02730602Y00564787D01*
X02730602Y00597602D01*
X02731000Y00598000D01*
X02731000Y00599000D01*
X02701270Y00607944D02*
X01300000Y00607944D01*
X01300000Y00623942D02*
X02712258Y00623942D01*
X02732259Y00631213D02*
X02662229Y00631213D01*
X02651685Y00641757D01*
X02651685Y00731472D01*
X02662229Y00742016D01*
X02673000Y00742016D01*
X02673000Y00742315D01*
X02672813Y00742502D01*
X02668110Y00753856D01*
X02668110Y00766144D01*
X02672813Y00777498D01*
X02681502Y00786187D01*
X02692856Y00790890D01*
X02705144Y00790890D01*
X02716498Y00786187D01*
X02725187Y00777498D01*
X02729890Y00766144D01*
X02729890Y00753856D01*
X02725187Y00742502D01*
X02725000Y00742315D01*
X02725000Y00742016D01*
X02732259Y00742016D01*
X02742803Y00731472D01*
X02742803Y00714715D01*
X02752583Y00724496D01*
X02818676Y00724496D01*
X02825000Y00718172D01*
X02827727Y00720900D01*
X02831832Y00723269D01*
X02836410Y00724496D01*
X02859575Y00724496D01*
X02859575Y00679796D01*
X02869165Y00679796D01*
X02869165Y00724496D01*
X02892330Y00724496D01*
X02896908Y00723269D01*
X02901013Y00720900D01*
X02904364Y00717548D01*
X02906734Y00713444D01*
X02907961Y00708866D01*
X02907960Y00679795D01*
X02869166Y00679795D01*
X02869166Y00670204D01*
X02907961Y00670204D01*
X02907961Y00641134D01*
X02906734Y00636556D01*
X02904364Y00632452D01*
X02901013Y00629100D01*
X02896908Y00626731D01*
X02892330Y00625504D01*
X02869165Y00625504D01*
X02869165Y00670204D01*
X02859575Y00670204D01*
X02859575Y00625504D01*
X02836410Y00625504D01*
X02831832Y00626731D01*
X02827727Y00629100D01*
X02825000Y00631828D01*
X02818676Y00625504D01*
X02752583Y00625504D01*
X02742039Y00636048D01*
X02742039Y00640993D01*
X02732259Y00631213D01*
X02740987Y00639941D02*
X02742039Y00639941D01*
X02749742Y00623942D02*
X04222000Y00623942D01*
X04222000Y00607944D02*
X02760730Y00607944D01*
X02761513Y00591945D02*
X04222000Y00591945D01*
X04222000Y00575947D02*
X02756602Y00575947D01*
X02730602Y00564787D02*
X02654157Y00564787D01*
X02602756Y00513386D01*
X02648315Y00511953D02*
X02651685Y00511953D01*
X02651685Y00495954D02*
X02648315Y00495954D01*
X02648315Y00479956D02*
X02651685Y00479956D01*
X02656256Y00463957D02*
X02643744Y00463957D01*
X02561768Y00463957D02*
X01300000Y00463957D01*
X01300000Y00479956D02*
X02557197Y00479956D01*
X02557197Y00495954D02*
X01300000Y00495954D01*
X01300000Y00511953D02*
X02557197Y00511953D01*
X02557197Y00527951D02*
X01300000Y00527951D01*
X01300000Y00543950D02*
X02557197Y00543950D01*
X02558902Y00559948D02*
X01300000Y00559948D01*
X01300000Y00575947D02*
X02628548Y00575947D01*
X02637771Y00631213D02*
X02567741Y00631213D01*
X02557197Y00641757D01*
X02557197Y00731472D01*
X02567741Y00742016D01*
X02637771Y00742016D01*
X02648315Y00731472D01*
X02648315Y00641757D01*
X02637771Y00631213D01*
X02646499Y00639941D02*
X02653501Y00639941D01*
X02651685Y00655939D02*
X02648315Y00655939D01*
X02648315Y00671938D02*
X02651685Y00671938D01*
X02651685Y00687937D02*
X02648315Y00687937D01*
X02648315Y00703935D02*
X02651685Y00703935D01*
X02651685Y00719934D02*
X02648315Y00719934D01*
X02643854Y00735932D02*
X02656146Y00735932D01*
X02668907Y00751931D02*
X01300000Y00751931D01*
X01300000Y00767929D02*
X02668850Y00767929D01*
X02679243Y00783928D02*
X01300000Y00783928D01*
X01300000Y00799926D02*
X02832933Y00799926D01*
X02848932Y00783928D02*
X02718757Y00783928D01*
X02729150Y00767929D02*
X02864930Y00767929D01*
X02880929Y00751931D02*
X02729092Y00751931D01*
X02738343Y00735932D02*
X02896927Y00735932D01*
X02901979Y00719934D02*
X02912926Y00719934D01*
X02907960Y00703935D02*
X02928924Y00703935D01*
X02936459Y00696400D02*
X02935110Y00693144D01*
X02935110Y00680856D01*
X02939813Y00669502D01*
X02948502Y00660813D01*
X02959856Y00656110D01*
X02972144Y00656110D01*
X02983498Y00660813D01*
X02992187Y00669502D01*
X02996890Y00680856D01*
X02996890Y00693144D01*
X02992187Y00704498D01*
X02989215Y00707470D01*
X02986346Y00714395D01*
X02971213Y00729528D01*
X02976187Y00734502D01*
X02980890Y00745856D01*
X02980890Y00758144D01*
X02976187Y00769498D01*
X02976000Y00769685D01*
X02976000Y00845374D01*
X02983034Y00845374D01*
X02994387Y00850076D01*
X03003077Y00858766D01*
X03007779Y00870119D01*
X03007779Y00873212D01*
X03119040Y00984472D01*
X03147933Y00984472D01*
X03156754Y00988126D01*
X03171100Y01002472D01*
X03220448Y01002472D01*
X03230992Y01013016D01*
X03230992Y01026000D01*
X03290059Y01026000D01*
X03318059Y00998000D01*
X03302000Y00998000D01*
X03302000Y00952001D01*
X03298000Y00952001D01*
X03298000Y00998000D01*
X03280118Y00998000D01*
X03252000Y00969882D01*
X03252000Y00952000D01*
X03297999Y00952000D01*
X03297999Y00948000D01*
X03252000Y00948000D01*
X03252000Y00930118D01*
X03280118Y00902000D01*
X03298000Y00902000D01*
X03298000Y00947999D01*
X03302000Y00947999D01*
X03302000Y00902000D01*
X03319882Y00902000D01*
X03348000Y00930118D01*
X03348000Y00948000D01*
X03302001Y00948000D01*
X03302001Y00952000D01*
X03348000Y00952000D01*
X03348000Y00968059D01*
X03352000Y00964059D01*
X03352000Y00930118D01*
X03380118Y00902000D01*
X03418000Y00902000D01*
X03418000Y00898000D01*
X03380118Y00898000D01*
X03352000Y00869882D01*
X03352000Y00832000D01*
X03348000Y00832000D01*
X03348000Y00869882D01*
X03319882Y00898000D01*
X03280118Y00898000D01*
X03258118Y00876000D01*
X03197941Y00876000D01*
X03188385Y00872042D01*
X03183343Y00867000D01*
X03154828Y00867000D01*
X03145272Y00863042D01*
X03137958Y00855728D01*
X03024120Y00741890D01*
X03023856Y00741890D01*
X03012502Y00737187D01*
X03003813Y00728498D01*
X02999110Y00717144D01*
X02999110Y00704856D01*
X03003813Y00693502D01*
X03012502Y00684813D01*
X03023856Y00680110D01*
X03036144Y00680110D01*
X03047498Y00684813D01*
X03056187Y00693502D01*
X03060890Y00704856D01*
X03060890Y00705120D01*
X03170769Y00815000D01*
X03199285Y00815000D01*
X03208841Y00818958D01*
X03213882Y00824000D01*
X03258118Y00824000D01*
X03280118Y00802000D01*
X03309574Y00802000D01*
X03305573Y00798000D01*
X03280118Y00798000D01*
X03252000Y00769882D01*
X03252000Y00730118D01*
X03280118Y00702000D01*
X03319882Y00702000D01*
X03348000Y00730118D01*
X03348000Y00755573D01*
X03352000Y00759574D01*
X03352000Y00730118D01*
X03380118Y00702000D01*
X03419882Y00702000D01*
X03448000Y00730118D01*
X03448000Y00769882D01*
X03439095Y00778787D01*
X03445315Y00785006D01*
X03445315Y00785006D01*
X03464993Y00804685D01*
X03464994Y00804685D01*
X03473433Y00813124D01*
X03478000Y00824150D01*
X03478000Y00975850D01*
X03473433Y00986876D01*
X03345788Y01114521D01*
X03337348Y01122960D01*
X03326322Y01127527D01*
X03148388Y01127527D01*
X03137361Y01122960D01*
X03128922Y01114521D01*
X03111929Y01097527D01*
X03079552Y01097527D01*
X03069008Y01086983D01*
X03069008Y01060874D01*
X02924298Y01060874D01*
X02926572Y01066362D01*
X02926954Y01066362D01*
X02938307Y01071065D01*
X02946997Y01079754D01*
X02951699Y01091108D01*
X02951699Y01103396D01*
X02946997Y01114750D01*
X02938307Y01123439D01*
X02938000Y01123566D01*
X02938000Y01391398D01*
X02940000Y01396226D01*
X02940000Y01518315D01*
X02942187Y01520502D01*
X02946890Y01531856D01*
X02946890Y01532110D01*
X02947034Y01532110D01*
X02958387Y01536813D01*
X02967077Y01545502D01*
X02971779Y01556856D01*
X02971779Y01569144D01*
X02967077Y01580498D01*
X02958387Y01589187D01*
X02947034Y01593890D01*
X02934745Y01593890D01*
X02923392Y01589187D01*
X02921095Y01586890D01*
X02900916Y01586890D01*
X02892095Y01583236D01*
X02885344Y01576485D01*
X02885344Y01576484D01*
X02870764Y01561905D01*
X02867110Y01553084D01*
X02867110Y01522916D01*
X02870764Y01514095D01*
X02871920Y01512940D01*
X02871920Y01095822D01*
X02740309Y01227433D01*
X02729283Y01232000D01*
X02649000Y01232000D01*
X02649000Y01269875D01*
X02644433Y01280901D01*
X02594837Y01330497D01*
X02599811Y01335471D01*
X02604514Y01346824D01*
X02604514Y01349917D01*
X02605440Y01350844D01*
X02611502Y01344781D01*
X02622856Y01340079D01*
X02635144Y01340079D01*
X02646498Y01344781D01*
X02655187Y01353471D01*
X02659890Y01364824D01*
X02659890Y01370697D01*
X02679051Y01389858D01*
X02682144Y01389858D01*
X02693498Y01394561D01*
X02702187Y01403250D01*
X02706890Y01414604D01*
X02706890Y01426892D01*
X02702187Y01438246D01*
X02693498Y01446935D01*
X02682144Y01451638D01*
X02669856Y01451638D01*
X02660366Y01447707D01*
X02659718Y01448355D01*
X02648365Y01453058D01*
X02636076Y01453058D01*
X02624723Y01448355D01*
X02616033Y01439666D01*
X02611331Y01428312D01*
X02611331Y01424616D01*
X02570573Y01383858D01*
X02567480Y01383858D01*
X02556126Y01379156D01*
X02551152Y01374181D01*
X02487197Y01438137D01*
X02487197Y01557984D01*
X02537771Y01557984D01*
X02548315Y01568528D01*
X02548315Y01622175D01*
X02551685Y01625546D01*
X02551685Y01568528D01*
X02562229Y01557984D01*
X02632259Y01557984D01*
X02642803Y01568528D01*
X02642803Y01585284D01*
X02652583Y01575504D01*
X02718676Y01575504D01*
X02725000Y01581828D01*
X02727727Y01579100D01*
X02731832Y01576731D01*
X02736410Y01575504D01*
X02759575Y01575504D01*
X02759575Y01620204D01*
X02769165Y01620204D01*
X02769165Y01575504D01*
X02792330Y01575504D01*
X02796908Y01576731D01*
X02801013Y01579100D01*
X02804364Y01582452D01*
X02806734Y01586556D01*
X02807961Y01591134D01*
X02807961Y01620204D01*
X02769166Y01620204D01*
X02769166Y01629795D01*
X02807960Y01629795D01*
X02807961Y01658866D01*
X02806734Y01663444D01*
X02804364Y01667548D01*
X02801013Y01670900D01*
X02796908Y01673269D01*
X02792330Y01674496D01*
X02769165Y01674496D01*
X02769165Y01629796D01*
X02759575Y01629796D01*
X02759575Y01674496D01*
X02736410Y01674496D01*
X02731832Y01673269D01*
X02727727Y01670900D01*
X02725000Y01668172D01*
X02718676Y01674496D01*
X02657663Y01674496D01*
X02656602Y01675557D01*
X02656602Y01686917D01*
X02661187Y01691502D01*
X02665890Y01702856D01*
X02665890Y01715144D01*
X02661598Y01725504D01*
X02718676Y01725504D01*
X02725000Y01731828D01*
X02727727Y01729100D01*
X02731832Y01726731D01*
X02736410Y01725504D01*
X02759575Y01725504D01*
X02759575Y01770204D01*
X02769165Y01770204D01*
X02769165Y01725504D01*
X02792330Y01725504D01*
X02796908Y01726731D01*
X02801013Y01729100D01*
X02804364Y01732452D01*
X02806734Y01736556D01*
X02807961Y01741134D01*
X02807961Y01770204D01*
X02769166Y01770204D01*
X02769166Y01779795D01*
X02807960Y01779795D01*
X02807961Y01808866D01*
X02806734Y01813444D01*
X02804364Y01817548D01*
X02801013Y01820900D01*
X02796908Y01823269D01*
X02792330Y01824496D01*
X02769165Y01824496D01*
X02769165Y01779796D01*
X02759575Y01779796D01*
X02759575Y01824496D01*
X02736410Y01824496D01*
X02731832Y01823269D01*
X02727727Y01820900D01*
X02725000Y01818172D01*
X02718676Y01824496D01*
X02652583Y01824496D01*
X02642803Y01814715D01*
X02642803Y01831118D01*
X02651187Y01839502D01*
X02655890Y01850856D01*
X02655890Y01863144D01*
X02651187Y01874498D01*
X02642498Y01883187D01*
X02631144Y01887890D01*
X02618856Y01887890D01*
X02607502Y01883187D01*
X02598813Y01874498D01*
X02594110Y01863144D01*
X02594110Y01862880D01*
X02575202Y01843972D01*
X02574392Y01842016D01*
X02562229Y01842016D01*
X02551685Y01831472D01*
X02551685Y01741757D01*
X02562229Y01731213D01*
X02613528Y01731213D01*
X02608813Y01726498D01*
X02604110Y01715144D01*
X02604110Y01702856D01*
X02604602Y01701668D01*
X02604602Y01690787D01*
X02548986Y01690787D01*
X02539430Y01686829D01*
X02532116Y01679515D01*
X02521388Y01668787D01*
X02487197Y01668787D01*
X02487197Y01731213D01*
X02537771Y01731213D01*
X02548315Y01741757D01*
X02548315Y01831472D01*
X02537771Y01842016D01*
X02510167Y01842016D01*
X02612606Y01944454D01*
X02617173Y01955481D01*
X02617173Y01984173D01*
X02642393Y01984173D01*
X02653420Y01988740D01*
X02659679Y01995000D01*
X02752412Y01995000D01*
X02751227Y01992948D01*
X02750000Y01988370D01*
X02750000Y01975000D01*
X02806999Y01975000D01*
X02806999Y01974999D01*
X02750000Y01974999D01*
X02750000Y01961630D01*
X02751227Y01957052D01*
X02753596Y01952948D01*
X02756544Y01950000D01*
X02750000Y01943456D01*
X02750000Y01906544D01*
X02760544Y01896000D01*
X02853456Y01896000D01*
X02864000Y01906544D01*
X02864000Y01926912D01*
X02866527Y01927958D01*
X02873841Y01935272D01*
X02874728Y01936159D01*
X02875748Y01937180D01*
X02875748Y01787685D01*
X02858535Y01787685D01*
X02858535Y01751843D01*
X02854850Y01751843D01*
X02854850Y01787685D01*
X02826764Y01787685D01*
X02822186Y01786458D01*
X02818082Y01784089D01*
X02814730Y01780737D01*
X02812360Y01776633D01*
X02811134Y01772055D01*
X02811134Y01751843D01*
X02854850Y01751843D01*
X02854850Y01748157D01*
X02858535Y01748157D01*
X02858535Y01712315D01*
X02886622Y01712315D01*
X02891200Y01713542D01*
X02895304Y01715911D01*
X02897748Y01718355D01*
X02897748Y01685457D01*
X02908292Y01674913D01*
X02948529Y01674913D01*
X02950734Y01674000D01*
X03019008Y01674000D01*
X03019008Y01663016D01*
X03029552Y01652472D01*
X03073356Y01652472D01*
X03075689Y01650140D01*
X03075769Y01649946D01*
X03085939Y01639776D01*
X03093253Y01632462D01*
X03102809Y01628504D01*
X03325931Y01628504D01*
X03335487Y01632462D01*
X03342801Y01639776D01*
X03376631Y01673606D01*
X03408418Y01673606D01*
X03413016Y01669008D01*
X03486983Y01669008D01*
X03491582Y01673606D01*
X03670624Y01673606D01*
X03658186Y01661169D01*
X03647354Y01635019D01*
X03647354Y01606713D01*
X03658186Y01580563D01*
X03678201Y01560548D01*
X03704351Y01549717D01*
X03732656Y01549717D01*
X03758807Y01560548D01*
X03778822Y01580563D01*
X03789653Y01606713D01*
X03789653Y01635019D01*
X03778822Y01661169D01*
X03766384Y01673606D01*
X03809742Y01673606D01*
X03815666Y01659303D01*
X03835681Y01639289D01*
X03861832Y01628457D01*
X03890137Y01628457D01*
X03916287Y01639289D01*
X03936302Y01659303D01*
X03947134Y01685454D01*
X03947134Y01713759D01*
X03936302Y01739909D01*
X03916287Y01759924D01*
X03890137Y01770756D01*
X03861832Y01770756D01*
X03835681Y01759924D01*
X03815666Y01739909D01*
X03809742Y01725606D01*
X03766384Y01725606D01*
X03778822Y01738043D01*
X03789653Y01764194D01*
X03789653Y01792499D01*
X03778822Y01818649D01*
X03758807Y01838664D01*
X03732656Y01849496D01*
X03704351Y01849496D01*
X03678201Y01838664D01*
X03658186Y01818649D01*
X03652262Y01804346D01*
X03497527Y01804346D01*
X03497527Y01820448D01*
X03486983Y01830992D01*
X03413016Y01830992D01*
X03402472Y01820448D01*
X03402472Y01804346D01*
X03332961Y01804346D01*
X03332961Y01820204D01*
X03294166Y01820204D01*
X03294166Y01829795D01*
X03332960Y01829795D01*
X03332961Y01858866D01*
X03331734Y01863444D01*
X03329364Y01867548D01*
X03326013Y01870900D01*
X03321908Y01873269D01*
X03317330Y01874496D01*
X03294165Y01874496D01*
X03294165Y01829796D01*
X03284575Y01829796D01*
X03284575Y01874496D01*
X03261410Y01874496D01*
X03256832Y01873269D01*
X03252727Y01870900D01*
X03250000Y01868172D01*
X03243676Y01874496D01*
X03177583Y01874496D01*
X03173031Y01869944D01*
X03170448Y01872527D01*
X03104355Y01872527D01*
X03100000Y01868172D01*
X03095645Y01872527D01*
X03029552Y01872527D01*
X03019008Y01861983D01*
X03019008Y01818179D01*
X03014230Y01813401D01*
X02988866Y01813401D01*
X02988866Y01814542D01*
X02978322Y01825086D01*
X02959000Y01825086D01*
X02959000Y01896000D01*
X03039456Y01896000D01*
X03042456Y01899000D01*
X03092770Y01899000D01*
X03101153Y01902472D01*
X03145645Y01902472D01*
X03150000Y01906828D01*
X03150759Y01906069D01*
X03154863Y01903699D01*
X03159441Y01902472D01*
X03182606Y01902472D01*
X03182606Y01945204D01*
X03192197Y01945204D01*
X03192197Y01902472D01*
X03215362Y01902472D01*
X03219940Y01903699D01*
X03224044Y01906069D01*
X03227396Y01909420D01*
X03229765Y01913525D01*
X03230992Y01918103D01*
X03230992Y01945204D01*
X03192198Y01945204D01*
X03192198Y01954795D01*
X03230992Y01954795D01*
X03230992Y01981897D01*
X03229765Y01986475D01*
X03227396Y01990580D01*
X03224044Y01993931D01*
X03219940Y01996301D01*
X03215362Y01997527D01*
X03192197Y01997527D01*
X03192197Y01954796D01*
X03182606Y01954796D01*
X03182606Y01997527D01*
X03159441Y01997527D01*
X03154863Y01996301D01*
X03150759Y01993931D01*
X03150000Y01993172D01*
X03145645Y01997527D01*
X03079552Y01997527D01*
X03069008Y01986983D01*
X03069008Y01951000D01*
X03044456Y01951000D01*
X03050000Y01956544D01*
X03050000Y01993456D01*
X03043456Y02000000D01*
X03050000Y02006544D01*
X03050000Y02043456D01*
X03043456Y02050000D01*
X03050000Y02056544D01*
X03050000Y02093456D01*
X03039456Y02104000D01*
X02946544Y02104000D01*
X02936000Y02093456D01*
X02936000Y02056544D01*
X02942544Y02050000D01*
X02941929Y02049385D01*
X02936272Y02047042D01*
X02928958Y02039728D01*
X02886000Y01996769D01*
X02886000Y02096971D01*
X02882042Y02106527D01*
X02874728Y02113841D01*
X02873841Y02114728D01*
X02866527Y02122042D01*
X02856971Y02126000D01*
X02849769Y02126000D01*
X02833042Y02142728D01*
X02825728Y02150042D01*
X02816172Y02154000D01*
X02804685Y02154000D01*
X02804498Y02154187D01*
X02793144Y02158890D01*
X02780856Y02158890D01*
X02769502Y02154187D01*
X02760813Y02145498D01*
X02756110Y02134144D01*
X02756110Y02121856D01*
X02760813Y02110502D01*
X02767315Y02104000D01*
X02760544Y02104000D01*
X02757544Y02101000D01*
X02667173Y02101000D01*
X02755930Y02189756D01*
X02760497Y02200782D01*
X02760497Y02213708D01*
X02761386Y02215856D01*
X02761386Y02228144D01*
X02756684Y02239498D01*
X02747994Y02248187D01*
X02736641Y02252890D01*
X02724352Y02252890D01*
X02712999Y02248187D01*
X02704310Y02239498D01*
X02699607Y02228144D01*
X02699607Y02218286D01*
X02561740Y02080420D01*
X02557173Y02069393D01*
X02557173Y01973875D01*
X02440203Y01856904D01*
X02431764Y01848465D01*
X02427197Y01837439D01*
X02427197Y01514890D01*
X02420163Y01514890D01*
X02418015Y01514000D01*
X02407032Y01514000D01*
X02396006Y01509433D01*
X02213000Y01326426D01*
X01988555Y01550871D01*
X01996187Y01558502D01*
X02000890Y01569856D01*
X02000890Y01582144D01*
X01996187Y01593498D01*
X01987498Y01602187D01*
X01976144Y01606890D01*
X01963856Y01606890D01*
X01952502Y01602187D01*
X01949315Y01599000D01*
X01946473Y01599000D01*
X01943450Y01595977D01*
X01941405Y01598021D01*
X01941405Y01982110D01*
X01948440Y01982110D01*
X01959793Y01986813D01*
X01968482Y01995502D01*
X01969372Y01997650D01*
X02136104Y02164382D01*
X02144543Y02172821D01*
X02149110Y02183847D01*
X02149110Y02200368D01*
X02600742Y02652000D01*
X02774708Y02652000D01*
X02776856Y02651110D01*
X02789144Y02651110D01*
X02800498Y02655813D01*
X02809187Y02664502D01*
X02813890Y02675856D01*
X02813890Y02688144D01*
X02809187Y02699498D01*
X02800498Y02708187D01*
X02789144Y02712890D01*
X02776856Y02712890D01*
X02774708Y02712000D01*
X02582348Y02712000D01*
X02571321Y02707433D01*
X02562882Y02698994D01*
X02562882Y02698993D01*
X02093677Y02229789D01*
X02089110Y02218762D01*
X02089110Y02202241D01*
X01941405Y02054536D01*
X01941405Y02304979D01*
X02252350Y02615923D01*
X02254498Y02616813D01*
X02263187Y02625502D01*
X02267890Y02636856D01*
X02267890Y02649144D01*
X02263187Y02660498D01*
X02254498Y02669187D01*
X02243144Y02673890D01*
X02230856Y02673890D01*
X02219502Y02669187D01*
X02210813Y02660498D01*
X02209923Y02658350D01*
X01894412Y02342838D01*
X01885973Y02334399D01*
X01881406Y02323373D01*
X01881406Y02180000D01*
X01644032Y02180000D01*
X01633006Y02175433D01*
X01584650Y02127077D01*
X01582502Y02126187D01*
X01573813Y02117498D01*
X01569110Y02106144D01*
X01569110Y02093856D01*
X01573813Y02082502D01*
X01582502Y02073813D01*
X01593856Y02069110D01*
X01606144Y02069110D01*
X01617498Y02073813D01*
X01626187Y02082502D01*
X01627077Y02084650D01*
X01662426Y02120000D01*
X01881406Y02120000D01*
X01881406Y01980890D01*
X01874371Y01980890D01*
X01863018Y01976187D01*
X01854329Y01967498D01*
X01849626Y01956144D01*
X01849626Y01943856D01*
X01850516Y01941708D01*
X01850516Y01921627D01*
X01770347Y01841458D01*
X01765780Y01830432D01*
X01765780Y01762496D01*
X01727583Y01762496D01*
X01717039Y01751952D01*
X01717039Y01674048D01*
X01723000Y01668087D01*
X01723000Y01629000D01*
X01719544Y01629000D01*
X01709000Y01618456D01*
X01709000Y01581544D01*
X01719544Y01571000D01*
X01744618Y01571000D01*
X01747032Y01570000D01*
X01758967Y01570000D01*
X01761382Y01571000D01*
X01786456Y01571000D01*
X01797000Y01581544D01*
X01797000Y01618456D01*
X01786456Y01629000D01*
X01783000Y01629000D01*
X01783000Y01663504D01*
X01793676Y01663504D01*
X01800000Y01669828D01*
X01802727Y01667100D01*
X01806832Y01664731D01*
X01811410Y01663504D01*
X01811854Y01663504D01*
X01809948Y01662404D01*
X01806596Y01659052D01*
X01804227Y01654948D01*
X01803000Y01650370D01*
X01803000Y01637000D01*
X01846999Y01637000D01*
X01846999Y01636999D01*
X01847000Y01636999D01*
X01847000Y01608000D01*
X01875370Y01608000D01*
X01879948Y01609227D01*
X01881406Y01610068D01*
X01881406Y01599390D01*
X01874371Y01599390D01*
X01863018Y01594687D01*
X01860331Y01592000D01*
X01855382Y01592000D01*
X01852967Y01593000D01*
X01841032Y01593000D01*
X01838618Y01592000D01*
X01813544Y01592000D01*
X01803000Y01581456D01*
X01803000Y01544544D01*
X01811048Y01536496D01*
X01806324Y01536496D01*
X01800000Y01530172D01*
X01797273Y01532900D01*
X01793168Y01535269D01*
X01788590Y01536496D01*
X01765425Y01536496D01*
X01765425Y01491796D01*
X01755834Y01491796D01*
X01755834Y01536496D01*
X01732670Y01536496D01*
X01728092Y01535269D01*
X01723987Y01532900D01*
X01720636Y01529548D01*
X01718266Y01525444D01*
X01717039Y01520866D01*
X01717039Y01491795D01*
X01755834Y01491795D01*
X01755834Y01482204D01*
X01765425Y01482204D01*
X01765425Y01437504D01*
X01788590Y01437504D01*
X01793168Y01438731D01*
X01797273Y01441100D01*
X01800000Y01443828D01*
X01806324Y01437504D01*
X01829735Y01437504D01*
X01553500Y01161269D01*
X01553500Y01193456D01*
X01546956Y01200000D01*
X01553500Y01206544D01*
X01553500Y01243456D01*
X01542956Y01254000D01*
X01465044Y01254000D01*
X01461492Y01250448D01*
X01427000Y01284941D01*
X01427000Y01321774D01*
X01426724Y01322439D01*
X01426724Y01631090D01*
X01423070Y01639911D01*
X01366635Y01696346D01*
X01357814Y01700000D01*
X01349685Y01700000D01*
X01347498Y01702187D01*
X01336144Y01706890D01*
X01323856Y01706890D01*
X01312502Y01702187D01*
X01304500Y01694185D01*
X01301213Y01697471D01*
X01390350Y01786608D01*
X01392498Y01787498D01*
X01401187Y01796187D01*
X01405890Y01807540D01*
X01405890Y01819829D01*
X01405000Y01821977D01*
X01405000Y02091708D01*
X01405890Y02093856D01*
X01405890Y02106144D01*
X01401187Y02117498D01*
X01392498Y02126187D01*
X01381144Y02130890D01*
X01368856Y02130890D01*
X01357502Y02126187D01*
X01348813Y02117498D01*
X01344110Y02106144D01*
X01344110Y02093856D01*
X01345000Y02091708D01*
X01345000Y01826111D01*
X01223677Y01704789D01*
X01219110Y01693762D01*
X01219110Y01656237D01*
X01223677Y01645211D01*
X01228602Y01640287D01*
X01220813Y01632498D01*
X01216110Y01621144D01*
X01216110Y01608856D01*
X01220813Y01597502D01*
X01229502Y01588813D01*
X01240856Y01584110D01*
X01253144Y01584110D01*
X01264498Y01588813D01*
X01266685Y01591000D01*
X01277669Y01591000D01*
X01277669Y01561442D01*
X01288213Y01550898D01*
X01360724Y01550898D01*
X01360724Y01483786D01*
X01359187Y01487498D01*
X01350498Y01496187D01*
X01339144Y01500890D01*
X01326856Y01500890D01*
X01315502Y01496187D01*
X01306813Y01487498D01*
X01302110Y01476144D01*
X01302110Y01463856D01*
X01306813Y01452502D01*
X01310213Y01449102D01*
X01288213Y01449102D01*
X01277669Y01438558D01*
X01277669Y01424000D01*
X01269685Y01424000D01*
X01267498Y01426187D01*
X01256144Y01430890D01*
X01243856Y01430890D01*
X01232502Y01426187D01*
X01223813Y01417498D01*
X01219110Y01406144D01*
X01219110Y01393856D01*
X01223813Y01382502D01*
X01232502Y01373813D01*
X01243856Y01369110D01*
X01256144Y01369110D01*
X01267498Y01373813D01*
X01269685Y01376000D01*
X01277669Y01376000D01*
X01277669Y01360654D01*
X01288213Y01350110D01*
X01342724Y01350110D01*
X01342724Y01245630D01*
X01341904Y01247052D01*
X01338552Y01250404D01*
X01334448Y01252773D01*
X01329870Y01254000D01*
X01296000Y01254000D01*
X01296000Y01225001D01*
X01295999Y01225001D01*
X01295999Y01254000D01*
X01262130Y01254000D01*
X01257552Y01252773D01*
X01253448Y01250404D01*
X01250096Y01247052D01*
X01247727Y01242948D01*
X01246500Y01238370D01*
X01246500Y01225000D01*
X01295999Y01225000D01*
X01295999Y01224999D01*
X01246500Y01224999D01*
X01246500Y01211630D01*
X01247727Y01207052D01*
X01250096Y01202948D01*
X01253044Y01200000D01*
X01246500Y01193456D01*
X01246500Y01192441D01*
X01242654Y01188595D01*
X01219772Y01165713D01*
X01218502Y01165187D01*
X01209813Y01156498D01*
X01205110Y01145144D01*
X01205110Y01132856D01*
X01209813Y01121502D01*
X01212000Y01119315D01*
X01212000Y01062226D01*
X01215654Y01053405D01*
X01222405Y01046654D01*
X01292405Y00976654D01*
X01301226Y00973000D01*
X01413315Y00973000D01*
X01415502Y00970813D01*
X01426856Y00966110D01*
X01439144Y00966110D01*
X01450498Y00970813D01*
X01451685Y00972000D01*
X01569315Y00972000D01*
X01571502Y00969813D01*
X01582856Y00965110D01*
X01595144Y00965110D01*
X01606498Y00969813D01*
X01615187Y00978502D01*
X01619890Y00989856D01*
X01619890Y01002144D01*
X01615187Y01013498D01*
X01606498Y01022187D01*
X01595144Y01026890D01*
X01592051Y01026890D01*
X01553500Y01065441D01*
X01553500Y01093456D01*
X01547956Y01099000D01*
X01559172Y01099000D01*
X01568728Y01102958D01*
X01576042Y01110272D01*
X01649597Y01183828D01*
X01657613Y01175813D01*
X01668966Y01171110D01*
X01681255Y01171110D01*
X01692608Y01175813D01*
X01694795Y01178000D01*
X01928205Y01178000D01*
X01930392Y01175813D01*
X01941745Y01171110D01*
X01954034Y01171110D01*
X01965387Y01175813D01*
X01974077Y01184502D01*
X01978779Y01195856D01*
X01978779Y01208144D01*
X01974077Y01219498D01*
X01965387Y01228187D01*
X01954034Y01232890D01*
X01941745Y01232890D01*
X01930392Y01228187D01*
X01928205Y01226000D01*
X01694795Y01226000D01*
X01693282Y01227513D01*
X01877769Y01412000D01*
X01948315Y01412000D01*
X01948502Y01411813D01*
X01959856Y01407110D01*
X01972144Y01407110D01*
X01983498Y01411813D01*
X01992187Y01420502D01*
X01996890Y01431856D01*
X01996890Y01444144D01*
X01992187Y01455498D01*
X01983498Y01464187D01*
X01972144Y01468890D01*
X01959856Y01468890D01*
X01948502Y01464187D01*
X01948315Y01464000D01*
X01939665Y01464000D01*
X01942295Y01470348D01*
X01942295Y01482637D01*
X01941405Y01484785D01*
X01941405Y01513168D01*
X02185923Y01268650D01*
X02186813Y01266502D01*
X02195502Y01257813D01*
X02206856Y01253110D01*
X02219144Y01253110D01*
X02230498Y01257813D01*
X02239187Y01266502D01*
X02240077Y01268650D01*
X02424537Y01453110D01*
X02427197Y01453110D01*
X02427197Y01419743D01*
X02431764Y01408717D01*
X02440203Y01400278D01*
X02460799Y01379683D01*
X02455825Y01374709D01*
X02451122Y01363356D01*
X02451122Y01351067D01*
X02455825Y01339714D01*
X02464514Y01331024D01*
X02475867Y01326321D01*
X02478960Y01326321D01*
X02571000Y01234282D01*
X02571000Y01067026D01*
X02574654Y01058205D01*
X02936459Y00696400D01*
X02935110Y00687937D02*
X02907960Y00687937D01*
X02907961Y00655939D02*
X04222000Y00655939D01*
X04222000Y00639941D02*
X02907641Y00639941D01*
X02869165Y00639941D02*
X02859575Y00639941D01*
X02859575Y00655939D02*
X02869165Y00655939D01*
X02869166Y00671938D02*
X02938804Y00671938D01*
X02993196Y00671938D02*
X04222000Y00671938D01*
X04222000Y00687937D02*
X03050621Y00687937D01*
X03060508Y00703935D02*
X03278183Y00703935D01*
X03262184Y00719934D02*
X03075703Y00719934D01*
X03091702Y00735932D02*
X03252000Y00735932D01*
X03252000Y00751931D02*
X03107700Y00751931D01*
X03123699Y00767929D02*
X03252000Y00767929D01*
X03266046Y00783928D02*
X03139697Y00783928D01*
X03155696Y00799926D02*
X03307500Y00799926D01*
X03266193Y00815925D02*
X03201517Y00815925D01*
X03194113Y00841000D02*
X03160000Y00841000D01*
X03030000Y00711000D01*
X03029000Y00710000D01*
X03009379Y00687937D02*
X02996890Y00687937D01*
X02999492Y00703935D02*
X02992420Y00703935D01*
X03000266Y00719934D02*
X02980808Y00719934D01*
X02976779Y00735932D02*
X03011247Y00735932D01*
X03034161Y00751931D02*
X02980890Y00751931D01*
X02976837Y00767929D02*
X03050160Y00767929D01*
X03066158Y00783928D02*
X02976000Y00783928D01*
X02976000Y00799926D02*
X03082157Y00799926D01*
X03098155Y00815925D02*
X02976000Y00815925D01*
X02976000Y00831923D02*
X03114154Y00831923D01*
X03130152Y00847922D02*
X02989186Y00847922D01*
X03005212Y00863920D02*
X03147393Y00863920D01*
X03194113Y00841000D02*
X03203113Y00850000D01*
X03300000Y00850000D01*
X03348000Y00847922D02*
X03352000Y00847922D01*
X03352000Y00863920D02*
X03348000Y00863920D01*
X03337963Y00879919D02*
X03362037Y00879919D01*
X03378035Y00895917D02*
X03321965Y00895917D01*
X03329798Y00911916D02*
X03370202Y00911916D01*
X03354203Y00927914D02*
X03345797Y00927914D01*
X03348000Y00943913D02*
X03352000Y00943913D01*
X03352000Y00959911D02*
X03348000Y00959911D01*
X03302000Y00959911D02*
X03298000Y00959911D01*
X03298000Y00943913D02*
X03302000Y00943913D01*
X03302000Y00927914D02*
X03298000Y00927914D01*
X03298000Y00911916D02*
X03302000Y00911916D01*
X03278035Y00895917D02*
X03030485Y00895917D01*
X03014486Y00879919D02*
X03262037Y00879919D01*
X03270202Y00911916D02*
X03046483Y00911916D01*
X03062482Y00927914D02*
X03254203Y00927914D01*
X03252000Y00943913D02*
X03078480Y00943913D01*
X03094479Y00959911D02*
X03252000Y00959911D01*
X03258028Y00975910D02*
X03110477Y00975910D01*
X03160536Y00991908D02*
X03274026Y00991908D01*
X03298000Y00991908D02*
X03302000Y00991908D01*
X03302000Y00975910D02*
X03298000Y00975910D01*
X03308152Y01007907D02*
X03225883Y01007907D01*
X03230992Y01023906D02*
X03292153Y01023906D01*
X03356411Y01103898D02*
X04222000Y01103898D01*
X04222000Y01087900D02*
X03372409Y01087900D01*
X03388408Y01071901D02*
X04222000Y01071901D01*
X04222000Y01055903D02*
X03404406Y01055903D01*
X03420405Y01039904D02*
X04222000Y01039904D01*
X04222000Y01023906D02*
X03436403Y01023906D01*
X03452402Y01007907D02*
X04222000Y01007907D01*
X04222000Y00991908D02*
X03468400Y00991908D01*
X03477975Y00975910D02*
X04222000Y00975910D01*
X04222000Y00959911D02*
X03478000Y00959911D01*
X03478000Y00943913D02*
X04222000Y00943913D01*
X04222000Y00927914D02*
X03478000Y00927914D01*
X03478000Y00911916D02*
X04222000Y00911916D01*
X04222000Y00895917D02*
X03478000Y00895917D01*
X03478000Y00879919D02*
X04222000Y00879919D01*
X04222000Y00863920D02*
X03478000Y00863920D01*
X03478000Y00847922D02*
X04222000Y00847922D01*
X04222000Y00831923D02*
X03478000Y00831923D01*
X03474593Y00815925D02*
X04222000Y00815925D01*
X04222000Y00799926D02*
X03460235Y00799926D01*
X03444236Y00783928D02*
X04222000Y00783928D01*
X04222000Y00767929D02*
X03448000Y00767929D01*
X03448000Y00751931D02*
X04222000Y00751931D01*
X04222000Y00735932D02*
X03448000Y00735932D01*
X03437816Y00719934D02*
X04222000Y00719934D01*
X04222000Y00703935D02*
X03421817Y00703935D01*
X03378183Y00703935D02*
X03321817Y00703935D01*
X03337816Y00719934D02*
X03362184Y00719934D01*
X03352000Y00735932D02*
X03348000Y00735932D01*
X03348000Y00751931D02*
X03352000Y00751931D01*
X03112598Y01050000D02*
X02950000Y00887402D01*
X02950000Y00752000D01*
X02869165Y00719934D02*
X02859575Y00719934D01*
X02859575Y00703935D02*
X02869165Y00703935D01*
X02869165Y00687937D02*
X02859575Y00687937D01*
X02826761Y00719934D02*
X02823239Y00719934D01*
X02785630Y00675000D02*
X02708858Y00675000D01*
X02697244Y00686614D01*
X02699000Y00688370D01*
X02699000Y00760000D01*
X02742803Y00719934D02*
X02748021Y00719934D01*
X02816935Y00815925D02*
X01298281Y00815925D01*
X01285018Y00831923D02*
X02800936Y00831923D01*
X02784938Y00847922D02*
X01269019Y00847922D01*
X01253021Y00863920D02*
X02768939Y00863920D01*
X02752940Y00879919D02*
X02422345Y00879919D01*
X02425433Y00883006D02*
X02475433Y00933006D01*
X02480000Y00944032D01*
X02480000Y00991708D01*
X02480890Y00993856D01*
X02480890Y01006144D01*
X02476187Y01017498D01*
X02467498Y01026187D01*
X02456144Y01030890D01*
X02443856Y01030890D01*
X02432502Y01026187D01*
X02423813Y01017498D01*
X02419110Y01006144D01*
X02419110Y00993856D01*
X02420000Y00991708D01*
X02420000Y00962426D01*
X02387573Y00930000D01*
X02293922Y00930000D01*
X02294580Y00931588D01*
X02294580Y00943877D01*
X02289877Y00955230D01*
X02281188Y00963919D01*
X02269835Y00968622D01*
X02266742Y00968622D01*
X02266036Y00969327D01*
X02259285Y00976078D01*
X02256528Y00977220D01*
X02300838Y00977220D01*
X02306110Y00971949D01*
X02306110Y00968856D01*
X02310813Y00957502D01*
X02319502Y00948813D01*
X02330856Y00944110D01*
X02343144Y00944110D01*
X02354498Y00948813D01*
X02363187Y00957502D01*
X02367890Y00968856D01*
X02367890Y00981144D01*
X02363187Y00992498D01*
X02354498Y01001187D01*
X02343144Y01005890D01*
X02340051Y01005890D01*
X02331126Y01014815D01*
X02324374Y01021567D01*
X02315553Y01025220D01*
X02242361Y01025220D01*
X02269030Y01051890D01*
X02483315Y01051890D01*
X02485502Y01049703D01*
X02496856Y01045000D01*
X02509144Y01045000D01*
X02520498Y01049703D01*
X02529187Y01058392D01*
X02531096Y01063000D01*
X02538916Y01063000D01*
X02550269Y01067703D01*
X02558959Y01076392D01*
X02563661Y01087745D01*
X02563661Y01100034D01*
X02558959Y01111387D01*
X02550269Y01120077D01*
X02538916Y01124779D01*
X02526627Y01124779D01*
X02522355Y01123010D01*
X02518084Y01124779D01*
X02487916Y01124779D01*
X02479095Y01121126D01*
X02475859Y01117890D01*
X02195563Y01117890D01*
X02161890Y01151563D01*
X02161890Y01154656D01*
X02157187Y01166009D01*
X02148498Y01174699D01*
X02137144Y01179401D01*
X02129324Y01179401D01*
X02127415Y01184009D01*
X02118726Y01192699D01*
X02107373Y01197401D01*
X02102900Y01197401D01*
X02102900Y01225415D01*
X02105087Y01227602D01*
X02109790Y01238955D01*
X02109790Y01251244D01*
X02105437Y01261752D01*
X02105787Y01262102D01*
X02110489Y01273455D01*
X02110489Y01285744D01*
X02105787Y01297097D01*
X02103597Y01299287D01*
X02106890Y01307235D01*
X02106890Y01319524D01*
X02102187Y01330877D01*
X02093498Y01339567D01*
X02082144Y01344269D01*
X02069856Y01344269D01*
X02058502Y01339567D01*
X02049813Y01330877D01*
X02045110Y01319524D01*
X02045110Y01314251D01*
X02022415Y01291556D01*
X02015664Y01284805D01*
X02012010Y01275984D01*
X02012010Y01053837D01*
X02015664Y01045016D01*
X02022415Y01038265D01*
X02125295Y00935386D01*
X02134116Y00931732D01*
X02232800Y00931732D01*
X02232800Y00931588D01*
X02233458Y00930000D01*
X02062426Y00930000D01*
X01930000Y01062426D01*
X01930000Y01091708D01*
X01930890Y01093856D01*
X01930890Y01106144D01*
X01926187Y01117498D01*
X01917498Y01126187D01*
X01906144Y01130890D01*
X01893856Y01130890D01*
X01882502Y01126187D01*
X01873813Y01117498D01*
X01869110Y01106144D01*
X01869110Y01093856D01*
X01870000Y01091708D01*
X01870000Y01044032D01*
X01874567Y01033006D01*
X01883006Y01024567D01*
X02033006Y00874567D01*
X02044032Y00870000D01*
X02405967Y00870000D01*
X02416994Y00874567D01*
X02425433Y00883006D01*
X02438344Y00895917D02*
X02736942Y00895917D01*
X02720943Y00911916D02*
X02454342Y00911916D01*
X02470341Y00927914D02*
X02704945Y00927914D01*
X02688946Y00943913D02*
X02479950Y00943913D01*
X02480000Y00959911D02*
X02672948Y00959911D01*
X02656949Y00975910D02*
X02480000Y00975910D01*
X02480083Y00991908D02*
X02640951Y00991908D01*
X02624952Y01007907D02*
X02480160Y01007907D01*
X02469779Y01023906D02*
X02608954Y01023906D01*
X02592955Y01039904D02*
X02257045Y01039904D01*
X02318728Y01023906D02*
X02430221Y01023906D01*
X02419840Y01007907D02*
X02338034Y01007907D01*
X02363431Y00991908D02*
X02419917Y00991908D01*
X02420000Y00975910D02*
X02367890Y00975910D01*
X02364185Y00959911D02*
X02417485Y00959911D01*
X02401486Y00943913D02*
X02294565Y00943913D01*
X02285196Y00959911D02*
X02309815Y00959911D01*
X02302149Y00975910D02*
X02259453Y00975910D01*
X02116768Y00943913D02*
X02048513Y00943913D01*
X02032515Y00959911D02*
X02100769Y00959911D01*
X02084771Y00975910D02*
X02016516Y00975910D01*
X02000518Y00991908D02*
X02068772Y00991908D01*
X02052774Y01007907D02*
X01984519Y01007907D01*
X01968521Y01023906D02*
X02036775Y01023906D01*
X02020777Y01039904D02*
X01952522Y01039904D01*
X01936524Y01055903D02*
X02012010Y01055903D01*
X02012010Y01071901D02*
X01930000Y01071901D01*
X01930000Y01087900D02*
X02012010Y01087900D01*
X02012010Y01103898D02*
X01930890Y01103898D01*
X01923788Y01119897D02*
X02012010Y01119897D01*
X02012010Y01135895D02*
X01601664Y01135895D01*
X01585666Y01119897D02*
X01876212Y01119897D01*
X01869110Y01103898D02*
X01569668Y01103898D01*
X01553500Y01087900D02*
X01870000Y01087900D01*
X01870000Y01071901D02*
X01553500Y01071901D01*
X01563038Y01055903D02*
X01870000Y01055903D01*
X01871710Y01039904D02*
X01579037Y01039904D01*
X01602349Y01023906D02*
X01883668Y01023906D01*
X01899666Y01007907D02*
X01617503Y01007907D01*
X01619890Y00991908D02*
X01915665Y00991908D01*
X01931664Y00975910D02*
X01612595Y00975910D01*
X01504000Y01075000D02*
X01504000Y01125000D01*
X01554000Y01125000D01*
X01867000Y01438000D01*
X01873000Y01438000D01*
X01893000Y01458000D01*
X01873000Y01438000D02*
X01966000Y01438000D01*
X01996890Y01439867D02*
X02014706Y01439867D01*
X01998708Y01455866D02*
X01991819Y01455866D01*
X01982709Y01471864D02*
X01942295Y01471864D01*
X01941405Y01487863D02*
X01966711Y01487863D01*
X01950712Y01503861D02*
X01941405Y01503861D01*
X01989541Y01551857D02*
X02427197Y01551857D01*
X02427197Y01567855D02*
X02000061Y01567855D01*
X02000182Y01583854D02*
X02427197Y01583854D01*
X02427197Y01599852D02*
X01989832Y01599852D01*
X01950168Y01599852D02*
X01941405Y01599852D01*
X01941405Y01615851D02*
X02427197Y01615851D01*
X02427197Y01631849D02*
X01941405Y01631849D01*
X01941405Y01647848D02*
X02427197Y01647848D01*
X02427197Y01663846D02*
X01941405Y01663846D01*
X01941405Y01679845D02*
X02427197Y01679845D01*
X02427197Y01695844D02*
X01941405Y01695844D01*
X01941405Y01711842D02*
X02427197Y01711842D01*
X02427197Y01727841D02*
X01941405Y01727841D01*
X01941405Y01743839D02*
X02427197Y01743839D01*
X02427197Y01759838D02*
X01941405Y01759838D01*
X01941405Y01775836D02*
X02427197Y01775836D01*
X02427197Y01791835D02*
X01941405Y01791835D01*
X01941405Y01807833D02*
X02427197Y01807833D01*
X02427197Y01823832D02*
X01941405Y01823832D01*
X01941405Y01839830D02*
X02428187Y01839830D01*
X02439127Y01855829D02*
X01941405Y01855829D01*
X01941405Y01871827D02*
X02455126Y01871827D01*
X02471125Y01887826D02*
X01941405Y01887826D01*
X01941405Y01903824D02*
X02487123Y01903824D01*
X02503122Y01919823D02*
X01941405Y01919823D01*
X01941405Y01935821D02*
X02519120Y01935821D01*
X02535119Y01951820D02*
X01941405Y01951820D01*
X01941405Y01967818D02*
X02551117Y01967818D01*
X02557173Y01983817D02*
X01952560Y01983817D01*
X01971537Y01999815D02*
X02557173Y01999815D01*
X02557173Y02015814D02*
X01987536Y02015814D01*
X02003534Y02031813D02*
X02557173Y02031813D01*
X02557173Y02047811D02*
X02019533Y02047811D01*
X02035531Y02063810D02*
X02557173Y02063810D01*
X02561487Y02079808D02*
X02051530Y02079808D01*
X02067528Y02095807D02*
X02577127Y02095807D01*
X02593126Y02111805D02*
X02083527Y02111805D01*
X02099525Y02127804D02*
X02609125Y02127804D01*
X02625123Y02143802D02*
X02115524Y02143802D01*
X02131522Y02159801D02*
X02641122Y02159801D01*
X02657120Y02175799D02*
X02145776Y02175799D01*
X02136104Y02164382D02*
X02136104Y02164382D01*
X02149110Y02191798D02*
X02673119Y02191798D01*
X02689117Y02207796D02*
X02156538Y02207796D01*
X02172536Y02223795D02*
X02699607Y02223795D01*
X02704605Y02239793D02*
X02188535Y02239793D01*
X02204533Y02255792D02*
X04222000Y02255792D01*
X04222000Y02271790D02*
X02220532Y02271790D01*
X02236531Y02287789D02*
X04222000Y02287789D01*
X04222000Y02303787D02*
X02252529Y02303787D01*
X02268528Y02319786D02*
X04222000Y02319786D01*
X04222000Y02335784D02*
X02284526Y02335784D01*
X02300525Y02351783D02*
X04222000Y02351783D01*
X04222000Y02367781D02*
X02316523Y02367781D01*
X02332522Y02383780D02*
X04222000Y02383780D01*
X04222000Y02399779D02*
X02348520Y02399779D01*
X02364519Y02415777D02*
X04222000Y02415777D01*
X04222000Y02431776D02*
X02380517Y02431776D01*
X02396516Y02447774D02*
X04222000Y02447774D01*
X04222000Y02463773D02*
X02412514Y02463773D01*
X02428513Y02479771D02*
X04222000Y02479771D01*
X04222000Y02495770D02*
X02444511Y02495770D01*
X02460510Y02511768D02*
X04222000Y02511768D01*
X04222000Y02527767D02*
X02476508Y02527767D01*
X02492507Y02543765D02*
X04222000Y02543765D01*
X04222000Y02559764D02*
X02508505Y02559764D01*
X02524504Y02575762D02*
X04222000Y02575762D01*
X04222000Y02591761D02*
X02540502Y02591761D01*
X02556501Y02607759D02*
X04222000Y02607759D01*
X04222000Y02623758D02*
X03719816Y02623758D01*
X03729477Y02627760D02*
X03747831Y02646113D01*
X03757764Y02670093D01*
X03757764Y02696049D01*
X03747831Y02720029D01*
X03729477Y02738382D01*
X03705498Y02748315D01*
X03585054Y02748315D01*
X03561074Y02738382D01*
X03542720Y02720029D01*
X03532787Y02696049D01*
X03532787Y02670093D01*
X03542720Y02646113D01*
X03561074Y02627760D01*
X03585054Y02617827D01*
X03705498Y02617827D01*
X03729477Y02627760D01*
X03741474Y02639756D02*
X04222000Y02639756D01*
X04222000Y02655755D02*
X03751825Y02655755D01*
X03757764Y02671753D02*
X04222000Y02671753D01*
X04222000Y02687752D02*
X03757764Y02687752D01*
X03754574Y02703750D02*
X04222000Y02703750D01*
X04222000Y02719749D02*
X03747947Y02719749D01*
X03732112Y02735748D02*
X04222000Y02735748D01*
X04222000Y02751746D02*
X03705645Y02751746D01*
X03705498Y02751685D02*
X03729477Y02761618D01*
X03747831Y02779971D01*
X03757764Y02803951D01*
X03757764Y02829907D01*
X03747831Y02853887D01*
X03729477Y02872240D01*
X03705498Y02882173D01*
X03585054Y02882173D01*
X03561074Y02872240D01*
X03542720Y02853887D01*
X03532787Y02829907D01*
X03532787Y02803951D01*
X03542720Y02779971D01*
X03561074Y02761618D01*
X03585054Y02751685D01*
X03705498Y02751685D01*
X03735604Y02767745D02*
X04222000Y02767745D01*
X04222000Y02783743D02*
X03749393Y02783743D01*
X03756020Y02799742D02*
X04222000Y02799742D01*
X04222000Y02815740D02*
X03757764Y02815740D01*
X03757005Y02831739D02*
X04222000Y02831739D01*
X04222000Y02847737D02*
X03750378Y02847737D01*
X03737982Y02863736D02*
X04222000Y02863736D01*
X04222000Y02879734D02*
X03711385Y02879734D01*
X03579166Y02879734D02*
X03320834Y02879734D01*
X03314946Y02882173D02*
X03338926Y02872240D01*
X03357280Y02853887D01*
X03367212Y02829907D01*
X03367212Y02803951D01*
X03357280Y02779971D01*
X03338926Y02761618D01*
X03314946Y02751685D01*
X03194502Y02751685D01*
X03170522Y02761618D01*
X03152169Y02779971D01*
X03142236Y02803951D01*
X03142236Y02829907D01*
X03152169Y02853887D01*
X03170522Y02872240D01*
X03194502Y02882173D01*
X03314946Y02882173D01*
X03347431Y02863736D02*
X03552569Y02863736D01*
X03540173Y02847737D02*
X03359827Y02847737D01*
X03366454Y02831739D02*
X03533546Y02831739D01*
X03532787Y02815740D02*
X03367212Y02815740D01*
X03365469Y02799742D02*
X03534531Y02799742D01*
X03541158Y02783743D02*
X03358842Y02783743D01*
X03345053Y02767745D02*
X03554947Y02767745D01*
X03558439Y02735748D02*
X03341561Y02735748D01*
X03338926Y02738382D02*
X03314946Y02748315D01*
X03194502Y02748315D01*
X03170522Y02738382D01*
X03152169Y02720029D01*
X03142236Y02696049D01*
X03142236Y02670093D01*
X03152169Y02646113D01*
X03170522Y02627760D01*
X03194502Y02617827D01*
X03314946Y02617827D01*
X03338926Y02627760D01*
X03357280Y02646113D01*
X03367212Y02670093D01*
X03367212Y02696049D01*
X03357280Y02720029D01*
X03338926Y02738382D01*
X03357396Y02719749D02*
X03542604Y02719749D01*
X03535978Y02703750D02*
X03364022Y02703750D01*
X03367212Y02687752D02*
X03532787Y02687752D01*
X03532787Y02671753D02*
X03367212Y02671753D01*
X03361273Y02655755D02*
X03538726Y02655755D01*
X03549077Y02639756D02*
X03350923Y02639756D01*
X03329265Y02623758D02*
X03570734Y02623758D01*
X03584906Y02751746D02*
X03315094Y02751746D01*
X03194355Y02751746D02*
X02549496Y02751746D01*
X02549496Y02735748D02*
X03167888Y02735748D01*
X03152053Y02719749D02*
X02546890Y02719749D01*
X02546890Y02720136D02*
X02545472Y02723559D01*
X02549496Y02727583D01*
X02549496Y02793676D01*
X02543172Y02800000D01*
X02545900Y02802727D01*
X02548269Y02806832D01*
X02549496Y02811410D01*
X02549496Y02834575D01*
X02504796Y02834575D01*
X02504796Y02844165D01*
X02549496Y02844165D01*
X02549496Y02867330D01*
X02548269Y02871908D01*
X02545900Y02876013D01*
X02542548Y02879364D01*
X02538444Y02881734D01*
X02533866Y02882961D01*
X02504795Y02882961D01*
X02504795Y02844166D01*
X02495204Y02844166D01*
X02495204Y02882960D01*
X02466134Y02882961D01*
X02461556Y02881734D01*
X02457452Y02879364D01*
X02454100Y02876013D01*
X02451731Y02871908D01*
X02450504Y02867330D01*
X02450504Y02844165D01*
X02495204Y02844165D01*
X02495204Y02834575D01*
X02450504Y02834575D01*
X02450504Y02811410D01*
X02451731Y02806832D01*
X02454100Y02802727D01*
X02456828Y02800000D01*
X02450504Y02793676D01*
X02450504Y02759890D01*
X02449496Y02759890D01*
X02449496Y02793676D01*
X02443172Y02800000D01*
X02445900Y02802727D01*
X02448269Y02806832D01*
X02449496Y02811410D01*
X02449496Y02834575D01*
X02404796Y02834575D01*
X02404796Y02844165D01*
X02449496Y02844165D01*
X02449496Y02867330D01*
X02448269Y02871908D01*
X02445900Y02876013D01*
X02442548Y02879364D01*
X02438444Y02881734D01*
X02433866Y02882961D01*
X02404795Y02882961D01*
X02404795Y02844166D01*
X02395204Y02844166D01*
X02395204Y02882960D01*
X02366134Y02882961D01*
X02361556Y02881734D01*
X02357452Y02879364D01*
X02354100Y02876013D01*
X02351731Y02871908D01*
X02350504Y02867330D01*
X02350504Y02844165D01*
X02395204Y02844165D01*
X02395204Y02834575D01*
X02350504Y02834575D01*
X02350504Y02811410D01*
X02351731Y02806832D01*
X02354100Y02802727D01*
X02356828Y02800000D01*
X02350504Y02793676D01*
X02350504Y02727583D01*
X02361048Y02717039D01*
X02401164Y02717039D01*
X02406197Y02712006D01*
X02414636Y02703567D01*
X02425662Y02699000D01*
X02441708Y02699000D01*
X02443856Y02698110D01*
X02456144Y02698110D01*
X02467498Y02702813D01*
X02476187Y02711502D01*
X02478480Y02717039D01*
X02482000Y02717039D01*
X02482000Y02712025D01*
X02486567Y02700998D01*
X02488923Y02698642D01*
X02489813Y02696494D01*
X02498502Y02687805D01*
X02509856Y02683102D01*
X02522144Y02683102D01*
X02533498Y02687805D01*
X02542187Y02696494D01*
X02546890Y02707848D01*
X02546890Y02720136D01*
X02545192Y02703750D02*
X02567639Y02703750D01*
X02551641Y02687752D02*
X02533369Y02687752D01*
X02535642Y02671753D02*
X02248302Y02671753D01*
X02257856Y02682110D02*
X02270144Y02682110D01*
X02281498Y02686813D01*
X02290187Y02695502D01*
X02294890Y02706856D01*
X02294890Y02719144D01*
X02294000Y02721292D01*
X02294000Y02722087D01*
X02299496Y02727583D01*
X02299496Y02793676D01*
X02293172Y02800000D01*
X02295900Y02802727D01*
X02298269Y02806832D01*
X02299496Y02811410D01*
X02299496Y02834575D01*
X02254796Y02834575D01*
X02254796Y02844165D01*
X02299496Y02844165D01*
X02299496Y02867330D01*
X02298269Y02871908D01*
X02295900Y02876013D01*
X02292548Y02879364D01*
X02288444Y02881734D01*
X02283866Y02882961D01*
X02254795Y02882961D01*
X02254795Y02844166D01*
X02245204Y02844166D01*
X02245204Y02882960D01*
X02216134Y02882961D01*
X02211556Y02881734D01*
X02207452Y02879364D01*
X02204100Y02876013D01*
X02201731Y02871908D01*
X02200504Y02867330D01*
X02200504Y02844165D01*
X02245204Y02844165D01*
X02245204Y02834575D01*
X02200504Y02834575D01*
X02200504Y02811410D01*
X02201731Y02806832D01*
X02204100Y02802727D01*
X02206828Y02800000D01*
X02200504Y02793676D01*
X02200504Y02759890D01*
X02199496Y02759890D01*
X02199496Y02793676D01*
X02193172Y02800000D01*
X02195900Y02802727D01*
X02198269Y02806832D01*
X02199496Y02811410D01*
X02199496Y02834575D01*
X02154796Y02834575D01*
X02154796Y02844165D01*
X02199496Y02844165D01*
X02199496Y02867330D01*
X02198269Y02871908D01*
X02195900Y02876013D01*
X02192548Y02879364D01*
X02188444Y02881734D01*
X02183866Y02882961D01*
X02154795Y02882961D01*
X02154795Y02844166D01*
X02145204Y02844166D01*
X02145204Y02882960D01*
X02116134Y02882961D01*
X02111556Y02881734D01*
X02107452Y02879364D01*
X02104100Y02876013D01*
X02101731Y02871908D01*
X02100504Y02867330D01*
X02100504Y02844165D01*
X02145204Y02844165D01*
X02145204Y02834575D01*
X02100504Y02834575D01*
X02100504Y02811410D01*
X02101731Y02806832D01*
X02104100Y02802727D01*
X02106828Y02800000D01*
X02100504Y02793676D01*
X02100504Y02727583D01*
X02111048Y02717039D01*
X02151164Y02717039D01*
X02156197Y02712006D01*
X02164636Y02703567D01*
X02175662Y02699000D01*
X02191708Y02699000D01*
X02193856Y02698110D01*
X02206144Y02698110D01*
X02217498Y02702813D01*
X02226187Y02711502D01*
X02228480Y02717039D01*
X02233110Y02717039D01*
X02233110Y02706856D01*
X02237813Y02695502D01*
X02246502Y02686813D01*
X02257856Y02682110D01*
X02245563Y02687752D02*
X00874000Y02687752D01*
X00874000Y02671753D02*
X01384335Y02671753D01*
X01384991Y02672025D02*
X01373638Y02667323D01*
X01364949Y02658633D01*
X01364059Y02656485D01*
X01323006Y02615433D01*
X01314567Y02606994D01*
X01310000Y02595967D01*
X01310000Y02595292D01*
X01309110Y02593144D01*
X01309110Y02580856D01*
X01313813Y02569502D01*
X01322502Y02560813D01*
X01333856Y02556110D01*
X01346144Y02556110D01*
X01357498Y02560813D01*
X01366187Y02569502D01*
X01369198Y02576772D01*
X01406485Y02614059D01*
X01408633Y02614949D01*
X01417323Y02623638D01*
X01422025Y02634991D01*
X01422025Y02647280D01*
X01417323Y02658633D01*
X01408633Y02667323D01*
X01397280Y02672025D01*
X01384991Y02672025D01*
X01397937Y02671753D02*
X01635017Y02671753D01*
X01638026Y02673000D02*
X01629205Y02669346D01*
X01622454Y02662595D01*
X00918405Y01958546D01*
X00911654Y01951794D01*
X00908000Y01942973D01*
X00908000Y01722941D01*
X00899654Y01714595D01*
X00896000Y01705774D01*
X00896000Y01696226D01*
X00896000Y01655397D01*
X00659437Y01418834D01*
X00652685Y01412082D01*
X00649031Y01403261D01*
X00649031Y00592818D01*
X00647252Y00588522D01*
X00647252Y00528685D01*
X00645065Y00526498D01*
X00640362Y00515144D01*
X00640362Y00502856D01*
X00645065Y00491502D01*
X00653754Y00482813D01*
X00660142Y00480167D01*
X00660142Y00474863D01*
X00664844Y00463510D01*
X00673534Y00454821D01*
X00684887Y00450118D01*
X00697176Y00450118D01*
X00708529Y00454821D01*
X00717219Y00463510D01*
X00721921Y00474863D01*
X00721921Y00487152D01*
X00719630Y00492682D01*
X00720142Y00493916D01*
X00720142Y01386201D01*
X00963595Y01629654D01*
X00970346Y01636405D01*
X00974000Y01645226D01*
X00974000Y01911059D01*
X01603051Y02540110D01*
X01606144Y02540110D01*
X01617498Y02544813D01*
X01626187Y02553502D01*
X01630890Y02564856D01*
X01630890Y02577144D01*
X01626187Y02588498D01*
X01621213Y02593472D01*
X01652741Y02625000D01*
X02013315Y02625000D01*
X02015502Y02622813D01*
X02026856Y02618110D01*
X02039144Y02618110D01*
X02050498Y02622813D01*
X02059187Y02631502D01*
X02063890Y02642856D01*
X02063890Y02655144D01*
X02059187Y02666498D01*
X02050498Y02675187D01*
X02039144Y02679890D01*
X02026856Y02679890D01*
X02015502Y02675187D01*
X02013315Y02673000D01*
X01638026Y02673000D01*
X01622454Y02662595D02*
X01622454Y02662595D01*
X01615614Y02655755D02*
X01418515Y02655755D01*
X01422025Y02639756D02*
X01599616Y02639756D01*
X01583617Y02623758D02*
X01417372Y02623758D01*
X01400186Y02607759D02*
X01567619Y02607759D01*
X01551620Y02591761D02*
X01384187Y02591761D01*
X01368780Y02575762D02*
X01535622Y02575762D01*
X01519623Y02559764D02*
X01354965Y02559764D01*
X01325035Y02559764D02*
X00874000Y02559764D01*
X00874000Y02575762D02*
X01311220Y02575762D01*
X01309110Y02591761D02*
X00874000Y02591761D01*
X00874000Y02607759D02*
X01315333Y02607759D01*
X01331332Y02623758D02*
X00874000Y02623758D01*
X00874000Y02639756D02*
X01347330Y02639756D01*
X01363329Y02655755D02*
X00874000Y02655755D01*
X00826000Y02657941D02*
X00821595Y02662346D01*
X00731941Y02752000D01*
X00769882Y02752000D01*
X00798000Y02780118D01*
X00798000Y02819882D01*
X00769882Y02848000D01*
X00730118Y02848000D01*
X00702000Y02819882D01*
X00702000Y02781941D01*
X00698000Y02785941D01*
X00698000Y02819882D01*
X00669882Y02848000D01*
X00630118Y02848000D01*
X00602000Y02819882D01*
X00602000Y02780118D01*
X00630118Y02752000D01*
X00664059Y02752000D01*
X00732697Y02683362D01*
X00723501Y02683362D01*
X00712148Y02678659D01*
X00703458Y02669970D01*
X00702568Y02667822D01*
X00681006Y02646260D01*
X00672567Y02637821D01*
X00668000Y02626795D01*
X00668000Y02448000D01*
X00630118Y02448000D01*
X00612570Y02430452D01*
X00612346Y02430992D01*
X00605595Y02437743D01*
X00574000Y02469338D01*
X00574000Y02756118D01*
X00598000Y02780118D01*
X00598000Y02819882D01*
X00571213Y02846669D01*
X00575433Y02850889D01*
X00580000Y02861915D01*
X00580000Y02862118D01*
X00598000Y02880118D01*
X00598000Y02919882D01*
X00569882Y02948000D01*
X00530118Y02948000D01*
X00502000Y02919882D01*
X00502000Y02880118D01*
X00510905Y02871213D01*
X00485006Y02845315D01*
X00478787Y02839095D01*
X00469882Y02848000D01*
X00430118Y02848000D01*
X00402000Y02819882D01*
X00402000Y02780118D01*
X00426000Y02756118D01*
X00426000Y02454623D01*
X00429146Y02447028D01*
X00402000Y02419882D01*
X00402000Y02402000D01*
X00447999Y02402000D01*
X00447999Y02398000D01*
X00402000Y02398000D01*
X00402000Y02380118D01*
X00430118Y02352000D01*
X00448000Y02352000D01*
X00448000Y02397999D01*
X00452000Y02397999D01*
X00452000Y02352000D01*
X00468000Y02352000D01*
X00468000Y02348000D01*
X00430118Y02348000D01*
X00402000Y02319882D01*
X00402000Y02280118D01*
X00430118Y02252000D01*
X00468000Y02252000D01*
X00468000Y02089336D01*
X00471654Y02080515D01*
X00478405Y02073764D01*
X00498345Y02053824D01*
X00492923Y02048403D01*
X00488220Y02037050D01*
X00488220Y02024761D01*
X00492923Y02013408D01*
X00501613Y02004718D01*
X00512966Y02000016D01*
X00516059Y02000016D01*
X00679908Y01836166D01*
X00677000Y01829144D01*
X00677000Y01816856D01*
X00681703Y01805502D01*
X00690392Y01796813D01*
X00701745Y01792110D01*
X00714034Y01792110D01*
X00725387Y01796813D01*
X00734077Y01805502D01*
X00737764Y01814405D01*
X00794220Y01757949D01*
X00794220Y01754856D01*
X00798923Y01743502D01*
X00807613Y01734813D01*
X00818966Y01730110D01*
X00826000Y01730110D01*
X00826000Y01719685D01*
X00823813Y01717498D01*
X00819110Y01706144D01*
X00819110Y01693856D01*
X00823813Y01682502D01*
X00832502Y01673813D01*
X00843856Y01669110D01*
X00856144Y01669110D01*
X00867498Y01673813D01*
X00876187Y01682502D01*
X00880890Y01693856D01*
X00880890Y01706144D01*
X00876187Y01717498D01*
X00874000Y01719685D01*
X00874000Y02230662D01*
X00905595Y02262257D01*
X00912346Y02269008D01*
X00916000Y02277829D01*
X00916000Y02422171D01*
X00912346Y02430992D01*
X00905595Y02437743D01*
X00874000Y02469338D01*
X00874000Y02756118D01*
X00898000Y02780118D01*
X00898000Y02819882D01*
X00869882Y02848000D01*
X00830118Y02848000D01*
X00802000Y02819882D01*
X00802000Y02780118D01*
X00826000Y02756118D01*
X00826000Y02657941D01*
X00826000Y02671753D02*
X00812188Y02671753D01*
X00826000Y02687752D02*
X00796189Y02687752D01*
X00780190Y02703750D02*
X00826000Y02703750D01*
X00826000Y02719749D02*
X00764192Y02719749D01*
X00748193Y02735748D02*
X00826000Y02735748D01*
X00826000Y02751746D02*
X00732195Y02751746D01*
X00702000Y02783743D02*
X00700198Y02783743D01*
X00702000Y02799742D02*
X00698000Y02799742D01*
X00698000Y02815740D02*
X00702000Y02815740D01*
X00713857Y02831739D02*
X00686143Y02831739D01*
X00670145Y02847737D02*
X00729855Y02847737D01*
X00730118Y02852000D02*
X00769882Y02852000D01*
X00798000Y02880118D01*
X00798000Y02919882D01*
X00769882Y02948000D01*
X00730118Y02948000D01*
X00702000Y02919882D01*
X00702000Y02880118D01*
X00730118Y02852000D01*
X00718382Y02863736D02*
X00681618Y02863736D01*
X00669882Y02852000D02*
X00698000Y02880118D01*
X00698000Y02919882D01*
X00669882Y02948000D01*
X00630118Y02948000D01*
X00602000Y02919882D01*
X00602000Y02880118D01*
X00630118Y02852000D01*
X00669882Y02852000D01*
X00697616Y02879734D02*
X00702383Y02879734D01*
X00702000Y02895733D02*
X00698000Y02895733D01*
X00698000Y02911731D02*
X00702000Y02911731D01*
X00709848Y02927730D02*
X00690152Y02927730D01*
X00674154Y02943728D02*
X00725846Y02943728D01*
X00774154Y02943728D02*
X00825846Y02943728D01*
X00830118Y02948000D02*
X00802000Y02919882D01*
X00802000Y02902000D01*
X00847999Y02902000D01*
X00847999Y02898000D01*
X00802000Y02898000D01*
X00802000Y02880118D01*
X00830118Y02852000D01*
X00848000Y02852000D01*
X00848000Y02897999D01*
X00852000Y02897999D01*
X00852000Y02852000D01*
X00869882Y02852000D01*
X00898000Y02880118D01*
X00898000Y02898000D01*
X00852001Y02898000D01*
X00852001Y02902000D01*
X00898000Y02902000D01*
X00898000Y02919882D01*
X00869882Y02948000D01*
X00852000Y02948000D01*
X00852000Y02902001D01*
X00848000Y02902001D01*
X00848000Y02948000D01*
X00830118Y02948000D01*
X00848000Y02943728D02*
X00852000Y02943728D01*
X00852000Y02927730D02*
X00848000Y02927730D01*
X00848000Y02911731D02*
X00852000Y02911731D01*
X00852000Y02895733D02*
X00848000Y02895733D01*
X00848000Y02879734D02*
X00852000Y02879734D01*
X00852000Y02863736D02*
X00848000Y02863736D01*
X00829855Y02847737D02*
X00770145Y02847737D01*
X00781618Y02863736D02*
X00818382Y02863736D01*
X00802383Y02879734D02*
X00797616Y02879734D01*
X00798000Y02895733D02*
X00802000Y02895733D01*
X00802000Y02911731D02*
X00798000Y02911731D01*
X00790152Y02927730D02*
X00809848Y02927730D01*
X00874154Y02943728D02*
X04222000Y02943728D01*
X04222000Y02927730D02*
X00890152Y02927730D01*
X00898000Y02911731D02*
X04222000Y02911731D01*
X04222000Y02895733D02*
X00898000Y02895733D01*
X00897616Y02879734D02*
X02108093Y02879734D01*
X02100504Y02863736D02*
X00881618Y02863736D01*
X00870145Y02847737D02*
X02100504Y02847737D01*
X02100504Y02831739D02*
X00886143Y02831739D01*
X00898000Y02815740D02*
X02100504Y02815740D01*
X02106569Y02799742D02*
X00898000Y02799742D01*
X00898000Y02783743D02*
X02100504Y02783743D01*
X02100504Y02767745D02*
X00885627Y02767745D01*
X00874000Y02751746D02*
X02100504Y02751746D01*
X02100504Y02735748D02*
X00874000Y02735748D01*
X00874000Y02719749D02*
X02108338Y02719749D01*
X02053931Y02671753D02*
X02225698Y02671753D01*
X02207329Y02655755D02*
X02063637Y02655755D01*
X02062606Y02639756D02*
X02191330Y02639756D01*
X02175332Y02623758D02*
X02051443Y02623758D01*
X02014557Y02623758D02*
X01651499Y02623758D01*
X01635501Y02607759D02*
X02159333Y02607759D01*
X02143335Y02591761D02*
X01622924Y02591761D01*
X01630890Y02575762D02*
X02127336Y02575762D01*
X02111337Y02559764D02*
X01628781Y02559764D01*
X01614968Y02543765D02*
X02095339Y02543765D01*
X02079340Y02527767D02*
X01590708Y02527767D01*
X01574709Y02511768D02*
X02063342Y02511768D01*
X02047343Y02495770D02*
X01558711Y02495770D01*
X01542712Y02479771D02*
X02031345Y02479771D01*
X02015346Y02463773D02*
X01526714Y02463773D01*
X01510715Y02447774D02*
X01999348Y02447774D01*
X01983349Y02431776D02*
X01494717Y02431776D01*
X01478718Y02415777D02*
X01967351Y02415777D01*
X01951352Y02399779D02*
X01462720Y02399779D01*
X01446721Y02383780D02*
X01935354Y02383780D01*
X01919355Y02367781D02*
X01430723Y02367781D01*
X01414724Y02351783D02*
X01903357Y02351783D01*
X01894412Y02342838D02*
X01894412Y02342838D01*
X01887358Y02335784D02*
X01398726Y02335784D01*
X01382727Y02319786D02*
X01881406Y02319786D01*
X01881406Y02303787D02*
X01366728Y02303787D01*
X01350730Y02287789D02*
X01881406Y02287789D01*
X01881406Y02271790D02*
X01334731Y02271790D01*
X01318733Y02255792D02*
X01881406Y02255792D01*
X01881406Y02239793D02*
X01302734Y02239793D01*
X01286736Y02223795D02*
X01881406Y02223795D01*
X01881406Y02207796D02*
X01270737Y02207796D01*
X01254739Y02191798D02*
X01881406Y02191798D01*
X01941405Y02191798D02*
X02078667Y02191798D01*
X02089110Y02207796D02*
X01941405Y02207796D01*
X01941405Y02223795D02*
X02091195Y02223795D01*
X02103682Y02239793D02*
X01941405Y02239793D01*
X01941405Y02255792D02*
X02119681Y02255792D01*
X02135679Y02271790D02*
X01941405Y02271790D01*
X01941405Y02287789D02*
X02151678Y02287789D01*
X02167676Y02303787D02*
X01941405Y02303787D01*
X01956212Y02319786D02*
X02183675Y02319786D01*
X02199673Y02335784D02*
X01972211Y02335784D01*
X01988209Y02351783D02*
X02215672Y02351783D01*
X02231670Y02367781D02*
X02004208Y02367781D01*
X02020206Y02383780D02*
X02247669Y02383780D01*
X02263667Y02399779D02*
X02036205Y02399779D01*
X02052203Y02415777D02*
X02279666Y02415777D01*
X02295664Y02431776D02*
X02068202Y02431776D01*
X02084200Y02447774D02*
X02311663Y02447774D01*
X02327662Y02463773D02*
X02100199Y02463773D01*
X02116197Y02479771D02*
X02343660Y02479771D01*
X02359659Y02495770D02*
X02132196Y02495770D01*
X02148195Y02511768D02*
X02375657Y02511768D01*
X02391656Y02527767D02*
X02164193Y02527767D01*
X02180192Y02543765D02*
X02407654Y02543765D01*
X02423653Y02559764D02*
X02196190Y02559764D01*
X02212189Y02575762D02*
X02439651Y02575762D01*
X02455650Y02591761D02*
X02228187Y02591761D01*
X02244186Y02607759D02*
X02471648Y02607759D01*
X02487647Y02623758D02*
X02261443Y02623758D01*
X02267890Y02639756D02*
X02503645Y02639756D01*
X02519644Y02655755D02*
X02265152Y02655755D01*
X02282437Y02687752D02*
X02498630Y02687752D01*
X02485427Y02703750D02*
X02468435Y02703750D01*
X02414453Y02703750D02*
X02293603Y02703750D01*
X02294639Y02719749D02*
X02358338Y02719749D01*
X02350504Y02735748D02*
X02299496Y02735748D01*
X02299496Y02751746D02*
X02350504Y02751746D01*
X02350504Y02767745D02*
X02299496Y02767745D01*
X02299496Y02783743D02*
X02350504Y02783743D01*
X02356569Y02799742D02*
X02293431Y02799742D01*
X02299496Y02815740D02*
X02350504Y02815740D01*
X02350504Y02831739D02*
X02299496Y02831739D01*
X02299496Y02847737D02*
X02350504Y02847737D01*
X02350504Y02863736D02*
X02299496Y02863736D01*
X02291907Y02879734D02*
X02358093Y02879734D01*
X02395204Y02879734D02*
X02404795Y02879734D01*
X02404795Y02863736D02*
X02395204Y02863736D01*
X02395204Y02847737D02*
X02404795Y02847737D01*
X02449496Y02847737D02*
X02450504Y02847737D01*
X02450504Y02831739D02*
X02449496Y02831739D01*
X02449496Y02815740D02*
X02450504Y02815740D01*
X02456569Y02799742D02*
X02443431Y02799742D01*
X02449496Y02783743D02*
X02450504Y02783743D01*
X02450504Y02767745D02*
X02449496Y02767745D01*
X02543431Y02799742D02*
X03143980Y02799742D01*
X03142236Y02815740D02*
X02549496Y02815740D01*
X02549496Y02831739D02*
X03142995Y02831739D01*
X03149622Y02847737D02*
X02549496Y02847737D01*
X02549496Y02863736D02*
X03162018Y02863736D01*
X03188615Y02879734D02*
X02541907Y02879734D01*
X02504795Y02879734D02*
X02495204Y02879734D01*
X02495204Y02863736D02*
X02504795Y02863736D01*
X02504795Y02847737D02*
X02495204Y02847737D01*
X02450504Y02863736D02*
X02449496Y02863736D01*
X02441907Y02879734D02*
X02458093Y02879734D01*
X02549496Y02783743D02*
X03150607Y02783743D01*
X03164396Y02767745D02*
X02549496Y02767745D01*
X02588498Y02639756D02*
X03158526Y02639756D01*
X03148175Y02655755D02*
X02800358Y02655755D01*
X02812190Y02671753D02*
X03142236Y02671753D01*
X03142236Y02687752D02*
X02813890Y02687752D01*
X02804934Y02703750D02*
X03145426Y02703750D01*
X03180183Y02623758D02*
X02572500Y02623758D01*
X02234396Y02703750D02*
X02218435Y02703750D01*
X02164453Y02703750D02*
X00874000Y02703750D01*
X00814373Y02767745D02*
X00785627Y02767745D01*
X00798000Y02783743D02*
X00802000Y02783743D01*
X00802000Y02799742D02*
X00798000Y02799742D01*
X00798000Y02815740D02*
X00802000Y02815740D01*
X00813857Y02831739D02*
X00786143Y02831739D01*
X00680311Y02735748D02*
X00574000Y02735748D01*
X00574000Y02751746D02*
X00664313Y02751746D01*
X00696310Y02719749D02*
X00574000Y02719749D01*
X00574000Y02703750D02*
X00712308Y02703750D01*
X00728307Y02687752D02*
X00574000Y02687752D01*
X00574000Y02671753D02*
X00705242Y02671753D01*
X00690501Y02655755D02*
X00574000Y02655755D01*
X00574000Y02639756D02*
X00674503Y02639756D01*
X00668000Y02623758D02*
X00574000Y02623758D01*
X00574000Y02607759D02*
X00668000Y02607759D01*
X00668000Y02591761D02*
X00574000Y02591761D01*
X00574000Y02575762D02*
X00668000Y02575762D01*
X00668000Y02559764D02*
X00574000Y02559764D01*
X00574000Y02543765D02*
X00668000Y02543765D01*
X00668000Y02527767D02*
X00574000Y02527767D01*
X00574000Y02511768D02*
X00668000Y02511768D01*
X00668000Y02495770D02*
X00574000Y02495770D01*
X00574000Y02479771D02*
X00668000Y02479771D01*
X00668000Y02463773D02*
X00579565Y02463773D01*
X00595564Y02447774D02*
X00629892Y02447774D01*
X00613894Y02431776D02*
X00611563Y02431776D01*
X00468000Y02351783D02*
X00028000Y02351783D01*
X00028000Y02367781D02*
X00414336Y02367781D01*
X00402000Y02383780D02*
X00028000Y02383780D01*
X00028000Y02399779D02*
X00447999Y02399779D01*
X00448000Y02383780D02*
X00452000Y02383780D01*
X00452000Y02367781D02*
X00448000Y02367781D01*
X00417902Y02335784D02*
X00028000Y02335784D01*
X00028000Y02319786D02*
X00402000Y02319786D01*
X00402000Y02303787D02*
X00028000Y02303787D01*
X00028000Y02287789D02*
X00402000Y02287789D01*
X00410327Y02271790D02*
X00028000Y02271790D01*
X00028000Y02255792D02*
X00426326Y02255792D01*
X00468000Y02239793D02*
X00028000Y02239793D01*
X00028000Y02223795D02*
X00468000Y02223795D01*
X00468000Y02207796D02*
X00028000Y02207796D01*
X00028000Y02191798D02*
X00468000Y02191798D01*
X00468000Y02175799D02*
X00028000Y02175799D01*
X00028000Y02159801D02*
X00468000Y02159801D01*
X00468000Y02143802D02*
X00028000Y02143802D01*
X00028000Y02127804D02*
X00468000Y02127804D01*
X00468000Y02111805D02*
X00028000Y02111805D01*
X00028000Y02095807D02*
X00400232Y02095807D01*
X00398923Y02094498D02*
X00394220Y02083144D01*
X00394220Y02070856D01*
X00395110Y02068708D01*
X00395110Y01986812D01*
X00399677Y01975786D01*
X00408117Y01967347D01*
X00447813Y01927650D01*
X00448703Y01925502D01*
X00457392Y01916813D01*
X00468745Y01912110D01*
X00481034Y01912110D01*
X00492387Y01916813D01*
X00501077Y01925502D01*
X00505779Y01936856D01*
X00505779Y01949144D01*
X00501077Y01960498D01*
X00492387Y01969187D01*
X00490239Y01970077D01*
X00455110Y02005206D01*
X00455110Y02068708D01*
X00456000Y02070856D01*
X00456000Y02083144D01*
X00451297Y02094498D01*
X00442608Y02103187D01*
X00431255Y02107890D01*
X00418966Y02107890D01*
X00407613Y02103187D01*
X00398923Y02094498D01*
X00394220Y02079808D02*
X00028000Y02079808D01*
X00028000Y02063810D02*
X00395110Y02063810D01*
X00395110Y02047811D02*
X00028000Y02047811D01*
X00028000Y02031813D02*
X00395110Y02031813D01*
X00395110Y02015814D02*
X00028000Y02015814D01*
X00028000Y01999815D02*
X00395110Y01999815D01*
X00396351Y01983817D02*
X00028000Y01983817D01*
X00028000Y01967818D02*
X00407645Y01967818D01*
X00423643Y01951820D02*
X00028000Y01951820D01*
X00028000Y01935821D02*
X00439642Y01935821D01*
X00454382Y01919823D02*
X00028000Y01919823D01*
X00028000Y01903824D02*
X00612250Y01903824D01*
X00628249Y01887826D02*
X00028000Y01887826D01*
X00028000Y01871827D02*
X00644247Y01871827D01*
X00660246Y01855829D02*
X00028000Y01855829D01*
X00028000Y01839830D02*
X00676244Y01839830D01*
X00677000Y01823832D02*
X00028000Y01823832D01*
X00028000Y01807833D02*
X00680737Y01807833D01*
X00735042Y01807833D02*
X00744336Y01807833D01*
X00760334Y01791835D02*
X00028000Y01791835D01*
X00028000Y01775836D02*
X00776333Y01775836D01*
X00792331Y01759838D02*
X00028000Y01759838D01*
X00028000Y01743839D02*
X00798784Y01743839D01*
X00826000Y01727841D02*
X00028000Y01727841D01*
X00028000Y01711842D02*
X00596268Y01711842D01*
X00595923Y01711498D02*
X00591220Y01700144D01*
X00591220Y01687856D01*
X00595923Y01676502D01*
X00604613Y01667813D01*
X00615966Y01663110D01*
X00619059Y01663110D01*
X00660900Y01621269D01*
X00663703Y01614502D01*
X00672392Y01605813D01*
X00683745Y01601110D01*
X00696034Y01601110D01*
X00707387Y01605813D01*
X00716077Y01614502D01*
X00720779Y01625856D01*
X00720779Y01638144D01*
X00716077Y01649498D01*
X00707387Y01658187D01*
X00696034Y01662890D01*
X00687162Y01662890D01*
X00653000Y01697051D01*
X00653000Y01700144D01*
X00648297Y01711498D01*
X00639608Y01720187D01*
X00628255Y01724890D01*
X00615966Y01724890D01*
X00604613Y01720187D01*
X00595923Y01711498D01*
X00591220Y01695844D02*
X00028000Y01695844D01*
X00028000Y01679845D02*
X00594539Y01679845D01*
X00614188Y01663846D02*
X00028000Y01663846D01*
X00028000Y01647848D02*
X00634321Y01647848D01*
X00650320Y01631849D02*
X00028000Y01631849D01*
X00028000Y01615851D02*
X00663144Y01615851D01*
X00716635Y01615851D02*
X00856454Y01615851D01*
X00872452Y01631849D02*
X00720779Y01631849D01*
X00716760Y01647848D02*
X00888451Y01647848D01*
X00896000Y01663846D02*
X00686205Y01663846D01*
X00670206Y01679845D02*
X00826470Y01679845D01*
X00819110Y01695844D02*
X00654208Y01695844D01*
X00647953Y01711842D02*
X00821470Y01711842D01*
X00874000Y01727841D02*
X00908000Y01727841D01*
X00908000Y01743839D02*
X00874000Y01743839D01*
X00874000Y01759838D02*
X00908000Y01759838D01*
X00908000Y01775836D02*
X00874000Y01775836D01*
X00874000Y01791835D02*
X00908000Y01791835D01*
X00908000Y01807833D02*
X00874000Y01807833D01*
X00874000Y01823832D02*
X00908000Y01823832D01*
X00908000Y01839830D02*
X00874000Y01839830D01*
X00874000Y01855829D02*
X00908000Y01855829D01*
X00908000Y01871827D02*
X00874000Y01871827D01*
X00874000Y01887826D02*
X00908000Y01887826D01*
X00908000Y01903824D02*
X00874000Y01903824D01*
X00874000Y01919823D02*
X00908000Y01919823D01*
X00908000Y01935821D02*
X00874000Y01935821D01*
X00874000Y01951820D02*
X00911679Y01951820D01*
X00918405Y01958546D02*
X00918405Y01958546D01*
X00927678Y01967818D02*
X00874000Y01967818D01*
X00874000Y01983817D02*
X00943676Y01983817D01*
X00959675Y01999815D02*
X00874000Y01999815D01*
X00874000Y02015814D02*
X00975673Y02015814D01*
X00991672Y02031813D02*
X00874000Y02031813D01*
X00874000Y02047811D02*
X01007671Y02047811D01*
X01023669Y02063810D02*
X00874000Y02063810D01*
X00874000Y02079808D02*
X01039668Y02079808D01*
X01055666Y02095807D02*
X00874000Y02095807D01*
X00874000Y02111805D02*
X01071665Y02111805D01*
X01087663Y02127804D02*
X00874000Y02127804D01*
X00874000Y02143802D02*
X01103662Y02143802D01*
X01119660Y02159801D02*
X00874000Y02159801D01*
X00874000Y02175799D02*
X01135659Y02175799D01*
X01151657Y02191798D02*
X00874000Y02191798D01*
X00874000Y02207796D02*
X01167656Y02207796D01*
X01183654Y02223795D02*
X00874000Y02223795D01*
X00883131Y02239793D02*
X01199653Y02239793D01*
X01215651Y02255792D02*
X00899130Y02255792D01*
X00905595Y02262257D02*
X00905595Y02262257D01*
X00913499Y02271790D02*
X01231650Y02271790D01*
X01247648Y02287789D02*
X00916000Y02287789D01*
X00916000Y02303787D02*
X01263647Y02303787D01*
X01279645Y02319786D02*
X00916000Y02319786D01*
X00916000Y02335784D02*
X01295644Y02335784D01*
X01311642Y02351783D02*
X00916000Y02351783D01*
X00916000Y02367781D02*
X01327641Y02367781D01*
X01343640Y02383780D02*
X00916000Y02383780D01*
X00916000Y02399779D02*
X01359638Y02399779D01*
X01375637Y02415777D02*
X00916000Y02415777D01*
X00911563Y02431776D02*
X01391635Y02431776D01*
X01407634Y02447774D02*
X00895564Y02447774D01*
X00879565Y02463773D02*
X01423632Y02463773D01*
X01439631Y02479771D02*
X00874000Y02479771D01*
X00874000Y02495770D02*
X01455629Y02495770D01*
X01471628Y02511768D02*
X00874000Y02511768D01*
X00874000Y02527767D02*
X01487626Y02527767D01*
X01503625Y02543765D02*
X00874000Y02543765D01*
X00852000Y02397999D02*
X00852000Y02352000D01*
X00868000Y02352000D01*
X00868000Y02348000D01*
X00832000Y02348000D01*
X00832000Y02352000D01*
X00848000Y02352000D01*
X00848000Y02397999D01*
X00852000Y02397999D01*
X00852000Y02383780D02*
X00848000Y02383780D01*
X00848000Y02367781D02*
X00852000Y02367781D01*
X00868000Y02351783D02*
X00832000Y02351783D01*
X01158748Y02095807D02*
X01344110Y02095807D01*
X01345000Y02079808D02*
X01142749Y02079808D01*
X01126751Y02063810D02*
X01345000Y02063810D01*
X01345000Y02047811D02*
X01110752Y02047811D01*
X01094754Y02031813D02*
X01345000Y02031813D01*
X01345000Y02015814D02*
X01078755Y02015814D01*
X01062757Y01999815D02*
X01345000Y01999815D01*
X01345000Y01983817D02*
X01046758Y01983817D01*
X01030759Y01967818D02*
X01345000Y01967818D01*
X01345000Y01951820D02*
X01014761Y01951820D01*
X00998762Y01935821D02*
X01345000Y01935821D01*
X01345000Y01919823D02*
X00982764Y01919823D01*
X00974000Y01903824D02*
X01345000Y01903824D01*
X01345000Y01887826D02*
X00974000Y01887826D01*
X00974000Y01871827D02*
X01345000Y01871827D01*
X01345000Y01855829D02*
X00974000Y01855829D01*
X00974000Y01839830D02*
X01345000Y01839830D01*
X01342720Y01823832D02*
X00974000Y01823832D01*
X00974000Y01807833D02*
X01326722Y01807833D01*
X01310723Y01791835D02*
X01136296Y01791835D01*
X01133321Y01793067D02*
X01121033Y01793067D01*
X01109680Y01788364D01*
X01107492Y01786177D01*
X01051007Y01786177D01*
X01048747Y01788437D01*
X01037394Y01793139D01*
X01025105Y01793139D01*
X01013752Y01788437D01*
X01005063Y01779747D01*
X01000360Y01768394D01*
X01000360Y01756105D01*
X01005063Y01744752D01*
X01013752Y01736063D01*
X01025105Y01731360D01*
X01037394Y01731360D01*
X01048747Y01736063D01*
X01050862Y01738177D01*
X01107492Y01738177D01*
X01109680Y01735990D01*
X01121033Y01731287D01*
X01133321Y01731287D01*
X01144675Y01735990D01*
X01153364Y01744680D01*
X01158067Y01756033D01*
X01158067Y01768321D01*
X01153364Y01779675D01*
X01144675Y01788364D01*
X01133321Y01793067D01*
X01118058Y01791835D02*
X01040544Y01791835D01*
X01021956Y01791835D02*
X00974000Y01791835D01*
X00974000Y01775836D02*
X01003443Y01775836D01*
X01000360Y01759838D02*
X00974000Y01759838D01*
X00974000Y01743839D02*
X01005975Y01743839D01*
X00974000Y01727841D02*
X01246729Y01727841D01*
X01262728Y01743839D02*
X01152524Y01743839D01*
X01158067Y01759838D02*
X01278726Y01759838D01*
X01294725Y01775836D02*
X01154954Y01775836D01*
X01230731Y01711842D02*
X00974000Y01711842D01*
X00974000Y01695844D02*
X01219972Y01695844D01*
X01219110Y01679845D02*
X00974000Y01679845D01*
X00974000Y01663846D02*
X01219110Y01663846D01*
X01222585Y01647848D02*
X00974000Y01647848D01*
X00965790Y01631849D02*
X01220544Y01631849D01*
X01216110Y01615851D02*
X00949792Y01615851D01*
X00933793Y01599852D02*
X01219839Y01599852D01*
X01277669Y01583854D02*
X01017561Y01583854D01*
X00997762Y01583854D02*
X00917795Y01583854D01*
X00901796Y01567855D02*
X00959138Y01567855D01*
X00945140Y01551857D02*
X00885798Y01551857D01*
X00869799Y01535858D02*
X00942992Y01535858D01*
X00950865Y01519860D02*
X00853801Y01519860D01*
X00837802Y01503861D02*
X00975187Y01503861D01*
X00991186Y01487863D02*
X00821804Y01487863D01*
X00805805Y01471864D02*
X01007184Y01471864D01*
X01013000Y01455866D02*
X00789807Y01455866D01*
X00773808Y01439867D02*
X01013000Y01439867D01*
X01013000Y01423869D02*
X00757810Y01423869D01*
X00741811Y01407870D02*
X01013000Y01407870D01*
X01013000Y01391872D02*
X00725813Y01391872D01*
X00720142Y01375873D02*
X01013000Y01375873D01*
X01013000Y01359875D02*
X00720142Y01359875D01*
X00720142Y01343876D02*
X01013000Y01343876D01*
X01013000Y01327877D02*
X00720142Y01327877D01*
X00720142Y01311879D02*
X01013000Y01311879D01*
X01013000Y01295880D02*
X00720142Y01295880D01*
X00720142Y01279882D02*
X01013000Y01279882D01*
X01013000Y01263883D02*
X00720142Y01263883D01*
X00720142Y01247885D02*
X01013000Y01247885D01*
X01013000Y01231886D02*
X00720142Y01231886D01*
X00720142Y01215888D02*
X01013000Y01215888D01*
X01013000Y01199889D02*
X00720142Y01199889D01*
X00720142Y01183891D02*
X01013000Y01183891D01*
X01013000Y01167892D02*
X00720142Y01167892D01*
X00720142Y01151894D02*
X01013000Y01151894D01*
X01013000Y01135895D02*
X00720142Y01135895D01*
X00720142Y01119897D02*
X01013000Y01119897D01*
X01013000Y01103898D02*
X00720142Y01103898D01*
X00720142Y01087900D02*
X01013000Y01087900D01*
X01013000Y01071901D02*
X00720142Y01071901D01*
X00720142Y01055903D02*
X01013000Y01055903D01*
X01013000Y01039904D02*
X00720142Y01039904D01*
X00720142Y01023906D02*
X01013000Y01023906D01*
X01013000Y01007907D02*
X00720142Y01007907D01*
X00720142Y00991908D02*
X01013000Y00991908D01*
X01013000Y00975910D02*
X00720142Y00975910D01*
X00720142Y00959911D02*
X01013000Y00959911D01*
X01013000Y00943913D02*
X00720142Y00943913D01*
X00720142Y00927914D02*
X01019321Y00927914D01*
X01035319Y00911916D02*
X00720142Y00911916D01*
X00720142Y00895917D02*
X01051318Y00895917D01*
X01067316Y00879919D02*
X00720142Y00879919D01*
X00720142Y00863920D02*
X01083315Y00863920D01*
X01099313Y00847922D02*
X00720142Y00847922D01*
X00720142Y00831923D02*
X01115312Y00831923D01*
X01131310Y00815925D02*
X00720142Y00815925D01*
X00720142Y00799926D02*
X01147309Y00799926D01*
X01163307Y00783928D02*
X00720142Y00783928D01*
X00720142Y00767929D02*
X01179306Y00767929D01*
X01180000Y00751931D02*
X00720142Y00751931D01*
X00720142Y00735932D02*
X01180000Y00735932D01*
X01180000Y00719934D02*
X00720142Y00719934D01*
X00720142Y00703935D02*
X01180000Y00703935D01*
X01180000Y00687937D02*
X00720142Y00687937D01*
X00720142Y00671938D02*
X01180000Y00671938D01*
X01180000Y00655939D02*
X00720142Y00655939D01*
X00720142Y00639941D02*
X01180000Y00639941D01*
X01180000Y00623942D02*
X00720142Y00623942D01*
X00720142Y00607944D02*
X01180000Y00607944D01*
X01180000Y00591945D02*
X00720142Y00591945D01*
X00720142Y00575947D02*
X01180000Y00575947D01*
X01180000Y00559948D02*
X00720142Y00559948D01*
X00720142Y00543950D02*
X01180000Y00543950D01*
X01180000Y00527951D02*
X00720142Y00527951D01*
X00720142Y00511953D02*
X01180000Y00511953D01*
X01180000Y00495954D02*
X00720142Y00495954D01*
X00721921Y00479956D02*
X01180000Y00479956D01*
X01180000Y00463957D02*
X00717404Y00463957D01*
X00664659Y00463957D02*
X00028000Y00463957D01*
X00028000Y00447959D02*
X01180000Y00447959D01*
X01180000Y00431960D02*
X00028000Y00431960D01*
X00028000Y00415962D02*
X01180000Y00415962D01*
X01180000Y00399963D02*
X00028000Y00399963D01*
X00028000Y00383965D02*
X01180000Y00383965D01*
X01180000Y00367966D02*
X00028000Y00367966D01*
X00028000Y00351968D02*
X01180000Y00351968D01*
X01180000Y00335969D02*
X00028000Y00335969D01*
X00028000Y00319970D02*
X01184221Y00319970D01*
X01188095Y00303972D02*
X00028000Y00303972D01*
X00102418Y00221212D02*
X00133291Y00234000D01*
X00166709Y00234000D01*
X00197582Y00221212D01*
X00221212Y00197582D01*
X00234000Y00166709D01*
X00234000Y00133291D01*
X00221212Y00102418D01*
X00197582Y00078788D01*
X00166709Y00066000D01*
X00133291Y00066000D01*
X00102418Y00078788D01*
X00078788Y00102418D01*
X00066000Y00133291D01*
X00066000Y00166709D01*
X00078788Y00197582D01*
X00102418Y00221212D01*
X00109100Y00223979D02*
X00028000Y00223979D01*
X00028000Y00207981D02*
X00089187Y00207981D01*
X00076469Y00191982D02*
X00028000Y00191982D01*
X00028000Y00175984D02*
X00069842Y00175984D01*
X00066000Y00159985D02*
X00028000Y00159985D01*
X00028000Y00143987D02*
X00066000Y00143987D01*
X00068196Y00127988D02*
X00028000Y00127988D01*
X00028000Y00111990D02*
X00074823Y00111990D01*
X00085215Y00095991D02*
X00028000Y00095991D01*
X00028000Y00079993D02*
X00101213Y00079993D01*
X00198786Y00079993D02*
X04051213Y00079993D01*
X04035215Y00095991D02*
X00214785Y00095991D01*
X00225176Y00111990D02*
X04024823Y00111990D01*
X04018196Y00127988D02*
X00231803Y00127988D01*
X00234000Y00143987D02*
X04016000Y00143987D01*
X04016000Y00159985D02*
X00234000Y00159985D01*
X00230158Y00175984D02*
X04019842Y00175984D01*
X04026469Y00191982D02*
X00223531Y00191982D01*
X00210813Y00207981D02*
X04039187Y00207981D01*
X04059100Y00223979D02*
X00190900Y00223979D01*
X00028000Y00479956D02*
X00660142Y00479956D01*
X00643221Y00495954D02*
X00028000Y00495954D01*
X00028000Y00511953D02*
X00640362Y00511953D01*
X00646519Y00527951D02*
X00028000Y00527951D01*
X00028000Y00543950D02*
X00647252Y00543950D01*
X00647252Y00559948D02*
X00028000Y00559948D01*
X00028000Y00575947D02*
X00647252Y00575947D01*
X00648670Y00591945D02*
X00028000Y00591945D01*
X00028000Y00607944D02*
X00649031Y00607944D01*
X00649031Y00623942D02*
X00028000Y00623942D01*
X00028000Y00639941D02*
X00649031Y00639941D01*
X00649031Y00655939D02*
X00028000Y00655939D01*
X00028000Y00671938D02*
X00649031Y00671938D01*
X00649031Y00687937D02*
X00028000Y00687937D01*
X00028000Y00703935D02*
X00649031Y00703935D01*
X00649031Y00719934D02*
X00028000Y00719934D01*
X00028000Y00735932D02*
X00649031Y00735932D01*
X00649031Y00751931D02*
X00028000Y00751931D01*
X00028000Y00767929D02*
X00649031Y00767929D01*
X00649031Y00783928D02*
X00028000Y00783928D01*
X00028000Y00799926D02*
X00649031Y00799926D01*
X00649031Y00815925D02*
X00028000Y00815925D01*
X00028000Y00831923D02*
X00649031Y00831923D01*
X00649031Y00847922D02*
X00028000Y00847922D01*
X00028000Y00863920D02*
X00649031Y00863920D01*
X00649031Y00879919D02*
X00028000Y00879919D01*
X00028000Y00895917D02*
X00649031Y00895917D01*
X00649031Y00911916D02*
X00028000Y00911916D01*
X00028000Y00927914D02*
X00649031Y00927914D01*
X00649031Y00943913D02*
X00028000Y00943913D01*
X00028000Y00959911D02*
X00649031Y00959911D01*
X00649031Y00975910D02*
X00028000Y00975910D01*
X00028000Y00991908D02*
X00649031Y00991908D01*
X00649031Y01007907D02*
X00028000Y01007907D01*
X00028000Y01023906D02*
X00649031Y01023906D01*
X00649031Y01039904D02*
X00028000Y01039904D01*
X00028000Y01055903D02*
X00649031Y01055903D01*
X00649031Y01071901D02*
X00028000Y01071901D01*
X00028000Y01087900D02*
X00649031Y01087900D01*
X00649031Y01103898D02*
X00028000Y01103898D01*
X00028000Y01119897D02*
X00649031Y01119897D01*
X00649031Y01135895D02*
X00028000Y01135895D01*
X00028000Y01151894D02*
X00649031Y01151894D01*
X00649031Y01167892D02*
X00028000Y01167892D01*
X00028000Y01183891D02*
X00649031Y01183891D01*
X00649031Y01199889D02*
X00028000Y01199889D01*
X00028000Y01215888D02*
X00649031Y01215888D01*
X00649031Y01231886D02*
X00028000Y01231886D01*
X00028000Y01247885D02*
X00649031Y01247885D01*
X00649031Y01263883D02*
X00028000Y01263883D01*
X00028000Y01279882D02*
X00649031Y01279882D01*
X00649031Y01295880D02*
X00028000Y01295880D01*
X00028000Y01311879D02*
X00649031Y01311879D01*
X00649031Y01327877D02*
X00028000Y01327877D01*
X00028000Y01343876D02*
X00649031Y01343876D01*
X00649031Y01359875D02*
X00028000Y01359875D01*
X00028000Y01375873D02*
X00649031Y01375873D01*
X00649031Y01391872D02*
X00028000Y01391872D01*
X00028000Y01407870D02*
X00650941Y01407870D01*
X00664472Y01423869D02*
X00028000Y01423869D01*
X00028000Y01439867D02*
X00680470Y01439867D01*
X00696469Y01455866D02*
X00028000Y01455866D01*
X00028000Y01471864D02*
X00712467Y01471864D01*
X00728466Y01487863D02*
X00028000Y01487863D01*
X00028000Y01503861D02*
X00744464Y01503861D01*
X00760463Y01519860D02*
X00028000Y01519860D01*
X00028000Y01535858D02*
X00776461Y01535858D01*
X00792460Y01551857D02*
X00028000Y01551857D01*
X00028000Y01567855D02*
X00808458Y01567855D01*
X00824457Y01583854D02*
X00028000Y01583854D01*
X00028000Y01599852D02*
X00840455Y01599852D01*
X00873530Y01679845D02*
X00896000Y01679845D01*
X00896000Y01695844D02*
X00880890Y01695844D01*
X00878530Y01711842D02*
X00898514Y01711842D01*
X01056184Y01567855D02*
X01060477Y01567855D01*
X01089964Y01567855D02*
X01094257Y01567855D01*
X01123744Y01567855D02*
X01277669Y01567855D01*
X01287254Y01551857D02*
X01137742Y01551857D01*
X01139890Y01535858D02*
X01360724Y01535858D01*
X01360724Y01519860D02*
X01133000Y01519860D01*
X01133000Y01503861D02*
X01360724Y01503861D01*
X01360724Y01487863D02*
X01358822Y01487863D01*
X01426724Y01487863D02*
X01755834Y01487863D01*
X01755834Y01482204D02*
X01717039Y01482204D01*
X01717039Y01453134D01*
X01718266Y01448556D01*
X01720636Y01444452D01*
X01723987Y01441100D01*
X01728092Y01438731D01*
X01732670Y01437504D01*
X01755834Y01437504D01*
X01755834Y01482204D01*
X01755834Y01471864D02*
X01765425Y01471864D01*
X01765425Y01455866D02*
X01755834Y01455866D01*
X01755834Y01439867D02*
X01765425Y01439867D01*
X01795137Y01439867D02*
X01803960Y01439867D01*
X01816099Y01423869D02*
X01522330Y01423869D01*
X01522331Y01433472D02*
X01521104Y01438050D01*
X01518734Y01442155D01*
X01515383Y01445506D01*
X01511278Y01447876D01*
X01506700Y01449102D01*
X01481567Y01449102D01*
X01481567Y01406371D01*
X01468039Y01406371D01*
X01468039Y01449102D01*
X01442906Y01449102D01*
X01438328Y01447876D01*
X01434223Y01445506D01*
X01430872Y01442155D01*
X01428502Y01438050D01*
X01427276Y01433472D01*
X01427276Y01406370D01*
X01468039Y01406370D01*
X01468039Y01392842D01*
X01481567Y01392842D01*
X01481567Y01350110D01*
X01506700Y01350110D01*
X01511278Y01351337D01*
X01515383Y01353707D01*
X01518734Y01357058D01*
X01521104Y01361162D01*
X01522331Y01365740D01*
X01522331Y01392842D01*
X01481568Y01392842D01*
X01481568Y01406370D01*
X01522330Y01406370D01*
X01522331Y01433472D01*
X01520055Y01439867D02*
X01726123Y01439867D01*
X01717039Y01455866D02*
X01426724Y01455866D01*
X01426724Y01471864D02*
X01717039Y01471864D01*
X01717039Y01503861D02*
X01426724Y01503861D01*
X01426724Y01519860D02*
X01717039Y01519860D01*
X01730290Y01535858D02*
X01426724Y01535858D01*
X01426724Y01551857D02*
X01436860Y01551857D01*
X01437820Y01550898D02*
X01511787Y01550898D01*
X01522331Y01561442D01*
X01522331Y01639346D01*
X01511787Y01649890D01*
X01437820Y01649890D01*
X01427276Y01639346D01*
X01427276Y01561442D01*
X01437820Y01550898D01*
X01427276Y01567855D02*
X01426724Y01567855D01*
X01426724Y01583854D02*
X01427276Y01583854D01*
X01427276Y01599852D02*
X01426724Y01599852D01*
X01426724Y01615851D02*
X01427276Y01615851D01*
X01427276Y01631849D02*
X01426410Y01631849D01*
X01435778Y01647848D02*
X01415134Y01647848D01*
X01399135Y01663846D02*
X01723000Y01663846D01*
X01723000Y01647848D02*
X01513828Y01647848D01*
X01522331Y01631849D02*
X01723000Y01631849D01*
X01709000Y01615851D02*
X01522331Y01615851D01*
X01522331Y01599852D02*
X01709000Y01599852D01*
X01709000Y01583854D02*
X01522331Y01583854D01*
X01522331Y01567855D02*
X01803000Y01567855D01*
X01803000Y01551857D02*
X01512746Y01551857D01*
X01481567Y01439867D02*
X01468039Y01439867D01*
X01468039Y01423869D02*
X01481567Y01423869D01*
X01481567Y01407870D02*
X01468039Y01407870D01*
X01468039Y01392842D02*
X01427276Y01392842D01*
X01427276Y01365740D01*
X01428502Y01361162D01*
X01430872Y01357058D01*
X01434223Y01353707D01*
X01438328Y01351337D01*
X01442906Y01350110D01*
X01468039Y01350110D01*
X01468039Y01392842D01*
X01468039Y01391872D02*
X01481567Y01391872D01*
X01481567Y01375873D02*
X01468039Y01375873D01*
X01468039Y01359875D02*
X01481567Y01359875D01*
X01493856Y01330890D02*
X01482502Y01326187D01*
X01473813Y01317498D01*
X01469110Y01306144D01*
X01469110Y01293856D01*
X01473813Y01282502D01*
X01482502Y01273813D01*
X01493856Y01269110D01*
X01506144Y01269110D01*
X01517498Y01273813D01*
X01526187Y01282502D01*
X01530890Y01293856D01*
X01530890Y01306144D01*
X01526187Y01317498D01*
X01517498Y01326187D01*
X01506144Y01330890D01*
X01493856Y01330890D01*
X01486584Y01327877D02*
X01426724Y01327877D01*
X01426724Y01343876D02*
X01736107Y01343876D01*
X01752105Y01359875D02*
X01520360Y01359875D01*
X01522331Y01375873D02*
X01768104Y01375873D01*
X01784102Y01391872D02*
X01522331Y01391872D01*
X01522330Y01407870D02*
X01800101Y01407870D01*
X01841642Y01375873D02*
X02078701Y01375873D01*
X02094699Y01359875D02*
X01825644Y01359875D01*
X01809645Y01343876D02*
X02068906Y01343876D01*
X02083094Y01343876D02*
X02110698Y01343876D01*
X02103430Y01327877D02*
X02126696Y01327877D01*
X02142695Y01311879D02*
X02106890Y01311879D01*
X02106291Y01295880D02*
X02158693Y01295880D01*
X02174692Y01279882D02*
X02110489Y01279882D01*
X02106524Y01263883D02*
X02189432Y01263883D01*
X02236568Y01263883D02*
X02541398Y01263883D01*
X02525400Y01279882D02*
X02251308Y01279882D01*
X02267307Y01295880D02*
X02509401Y01295880D01*
X02493403Y01311879D02*
X02283305Y01311879D01*
X02299304Y01327877D02*
X02472111Y01327877D01*
X02454100Y01343876D02*
X02315302Y01343876D01*
X02331301Y01359875D02*
X02451122Y01359875D01*
X02456989Y01375873D02*
X02347299Y01375873D01*
X02363298Y01391872D02*
X02448610Y01391872D01*
X02432611Y01407870D02*
X02379297Y01407870D01*
X02395295Y01423869D02*
X02427197Y01423869D01*
X02427197Y01439867D02*
X02411294Y01439867D01*
X02358438Y01471864D02*
X02067562Y01471864D01*
X02083561Y01455866D02*
X02342439Y01455866D01*
X02326441Y01439867D02*
X02099559Y01439867D01*
X02115558Y01423869D02*
X02310442Y01423869D01*
X02294444Y01407870D02*
X02131556Y01407870D01*
X02147555Y01391872D02*
X02278445Y01391872D01*
X02262447Y01375873D02*
X02163553Y01375873D01*
X02179552Y01359875D02*
X02246448Y01359875D01*
X02230450Y01343876D02*
X02195550Y01343876D01*
X02211549Y01327877D02*
X02214451Y01327877D01*
X02109790Y01247885D02*
X02557397Y01247885D01*
X02571000Y01231886D02*
X02106862Y01231886D01*
X02102900Y01215888D02*
X02571000Y01215888D01*
X02571000Y01199889D02*
X02102900Y01199889D01*
X02127465Y01183891D02*
X02571000Y01183891D01*
X02571000Y01167892D02*
X02155304Y01167892D01*
X02161890Y01151894D02*
X02571000Y01151894D01*
X02571000Y01135895D02*
X02177558Y01135895D01*
X02193556Y01119897D02*
X02477866Y01119897D01*
X02526697Y01055903D02*
X02576957Y01055903D01*
X02571000Y01071901D02*
X02554468Y01071901D01*
X02563661Y01087900D02*
X02571000Y01087900D01*
X02571000Y01103898D02*
X02562061Y01103898D01*
X02571000Y01119897D02*
X02550449Y01119897D01*
X02729557Y01231886D02*
X02871920Y01231886D01*
X02871920Y01215888D02*
X02751854Y01215888D01*
X02767852Y01199889D02*
X02871920Y01199889D01*
X02871920Y01183891D02*
X02783851Y01183891D01*
X02799849Y01167892D02*
X02871920Y01167892D01*
X02871920Y01151894D02*
X02815848Y01151894D01*
X02831846Y01135895D02*
X02871920Y01135895D01*
X02871920Y01119897D02*
X02847845Y01119897D01*
X02863843Y01103898D02*
X02871920Y01103898D01*
X02941850Y01119897D02*
X03134298Y01119897D01*
X03128922Y01114521D02*
X03128922Y01114521D01*
X03118299Y01103898D02*
X02951492Y01103898D01*
X02950371Y01087900D02*
X03069924Y01087900D01*
X03069008Y01071901D02*
X02939144Y01071901D01*
X02938000Y01135895D02*
X03848721Y01135895D01*
X03848029Y01136182D02*
X03878940Y01123378D01*
X03912398Y01123378D01*
X03943309Y01136182D01*
X03966968Y01159840D01*
X03979772Y01190751D01*
X03979772Y01224209D01*
X03966968Y01255120D01*
X03943309Y01278779D01*
X03912398Y01291583D01*
X03878940Y01291583D01*
X03848029Y01278779D01*
X03824371Y01255120D01*
X03811567Y01224209D01*
X03811567Y01190751D01*
X03824371Y01159840D01*
X03848029Y01136182D01*
X03832317Y01151894D02*
X02938000Y01151894D01*
X02938000Y01167892D02*
X03821035Y01167892D01*
X03814409Y01183891D02*
X02938000Y01183891D01*
X02938000Y01199889D02*
X03811567Y01199889D01*
X03811567Y01215888D02*
X02938000Y01215888D01*
X02938000Y01231886D02*
X03814747Y01231886D01*
X03821374Y01247885D02*
X02938000Y01247885D01*
X02938000Y01263883D02*
X03833134Y01263883D01*
X03850692Y01279882D02*
X02938000Y01279882D01*
X02938000Y01295880D02*
X04222000Y01295880D01*
X04222000Y01279882D02*
X03940646Y01279882D01*
X03958205Y01263883D02*
X04222000Y01263883D01*
X04222000Y01247885D02*
X03969965Y01247885D01*
X03976592Y01231886D02*
X04222000Y01231886D01*
X04222000Y01215888D02*
X03979772Y01215888D01*
X03979772Y01199889D02*
X04222000Y01199889D01*
X04222000Y01183891D02*
X03976930Y01183891D01*
X03970303Y01167892D02*
X04222000Y01167892D01*
X04222000Y01151894D02*
X03959021Y01151894D01*
X03942618Y01135895D02*
X04222000Y01135895D01*
X04222000Y01119897D02*
X03340412Y01119897D01*
X03664896Y01416373D02*
X03671491Y01409778D01*
X03678891Y01404100D01*
X03686968Y01399437D01*
X03695585Y01395867D01*
X03704594Y01393454D01*
X03710504Y01392675D01*
X03710504Y01455385D01*
X03726504Y01455385D01*
X03726504Y01392675D01*
X03732414Y01393454D01*
X03741423Y01395867D01*
X03750040Y01399437D01*
X03758117Y01404100D01*
X03765517Y01409778D01*
X03772112Y01416373D01*
X03777789Y01423772D01*
X03782453Y01431850D01*
X03786022Y01440466D01*
X03788436Y01449475D01*
X03789214Y01455386D01*
X03726504Y01455386D01*
X03726504Y01471386D01*
X03710504Y01471386D01*
X03710504Y01534096D01*
X03704594Y01533318D01*
X03695585Y01530904D01*
X03686968Y01527335D01*
X03678891Y01522671D01*
X03671491Y01516994D01*
X03664896Y01510399D01*
X03659218Y01502999D01*
X03654555Y01494922D01*
X03650986Y01486305D01*
X03648572Y01477296D01*
X03647794Y01471386D01*
X03710503Y01471386D01*
X03710503Y01455386D01*
X03647794Y01455386D01*
X03648572Y01449475D01*
X03650986Y01440466D01*
X03654555Y01431850D01*
X03659218Y01423772D01*
X03664896Y01416373D01*
X03659163Y01423869D02*
X02940000Y01423869D01*
X02940000Y01439867D02*
X03651234Y01439867D01*
X03647857Y01471864D02*
X02940000Y01471864D01*
X02940000Y01455866D02*
X03710503Y01455866D01*
X03710504Y01471864D02*
X03726504Y01471864D01*
X03726504Y01471386D02*
X03726504Y01534096D01*
X03732414Y01533318D01*
X03741423Y01530904D01*
X03750040Y01527335D01*
X03758117Y01522671D01*
X03765517Y01516994D01*
X03772112Y01510399D01*
X03777789Y01502999D01*
X03782453Y01494922D01*
X03786022Y01486305D01*
X03788436Y01477296D01*
X03789214Y01471386D01*
X03726504Y01471386D01*
X03726504Y01455866D02*
X03962315Y01455866D01*
X03962315Y01449233D02*
X03973147Y01423083D01*
X03993162Y01403068D01*
X04019312Y01392236D01*
X04047617Y01392236D01*
X04073767Y01403068D01*
X04093782Y01423083D01*
X04104614Y01449233D01*
X04104614Y01477538D01*
X04093782Y01503689D01*
X04073767Y01523703D01*
X04047617Y01534535D01*
X04019312Y01534535D01*
X03993162Y01523703D01*
X03973147Y01503689D01*
X03962315Y01477538D01*
X03962315Y01449233D01*
X03966194Y01439867D02*
X03785774Y01439867D01*
X03777845Y01423869D02*
X03972821Y01423869D01*
X03988359Y01407870D02*
X03763030Y01407870D01*
X03726504Y01407870D02*
X03710504Y01407870D01*
X03710504Y01423869D02*
X03726504Y01423869D01*
X03726504Y01439867D02*
X03710504Y01439867D01*
X03673977Y01407870D02*
X02940000Y01407870D01*
X02938196Y01391872D02*
X04222000Y01391872D01*
X04222000Y01407870D02*
X04078570Y01407870D01*
X04094108Y01423869D02*
X04222000Y01423869D01*
X04222000Y01439867D02*
X04100734Y01439867D01*
X04104614Y01455866D02*
X04222000Y01455866D01*
X04222000Y01471864D02*
X04104614Y01471864D01*
X04100338Y01487863D02*
X04222000Y01487863D01*
X04222000Y01503861D02*
X04093610Y01503861D01*
X04077611Y01519860D02*
X04222000Y01519860D01*
X04222000Y01535858D02*
X03947134Y01535858D01*
X03947134Y01527973D02*
X03936302Y01501823D01*
X03916287Y01481808D01*
X03890137Y01470976D01*
X03861832Y01470976D01*
X03835681Y01481808D01*
X03815666Y01501823D01*
X03804835Y01527973D01*
X03804835Y01556279D01*
X03815666Y01582429D01*
X03835681Y01602444D01*
X03861832Y01613275D01*
X03890137Y01613275D01*
X03916287Y01602444D01*
X03936302Y01582429D01*
X03947134Y01556279D01*
X03947134Y01527973D01*
X03943773Y01519860D02*
X03989318Y01519860D01*
X03973319Y01503861D02*
X03937146Y01503861D01*
X03922342Y01487863D02*
X03966592Y01487863D01*
X03962315Y01471864D02*
X03892280Y01471864D01*
X03859688Y01471864D02*
X03789151Y01471864D01*
X03785377Y01487863D02*
X03829627Y01487863D01*
X03814822Y01503861D02*
X03777128Y01503861D01*
X03761781Y01519860D02*
X03808195Y01519860D01*
X03804835Y01535858D02*
X02956083Y01535858D01*
X02969709Y01551857D02*
X03699184Y01551857D01*
X03670894Y01567855D02*
X02971779Y01567855D01*
X02963720Y01583854D02*
X03656823Y01583854D01*
X03650196Y01599852D02*
X02807961Y01599852D01*
X02807961Y01615851D02*
X03647354Y01615851D01*
X03647354Y01631849D02*
X03334008Y01631849D01*
X03350873Y01647848D02*
X03652668Y01647848D01*
X03660864Y01663846D02*
X03366872Y01663846D01*
X03365862Y01699606D02*
X03320760Y01654504D01*
X03107981Y01654504D01*
X03097811Y01664673D01*
X03097811Y01664787D01*
X03062598Y01700000D01*
X02955906Y01700000D01*
X02943307Y01712598D01*
X02943307Y01720359D01*
X02901748Y01761918D01*
X02901748Y01975748D01*
X02951000Y02025000D01*
X02993000Y02025000D01*
X03043640Y01999815D02*
X03818901Y01999815D01*
X03824371Y01986612D02*
X03848029Y01962953D01*
X03878940Y01950150D01*
X03912398Y01950150D01*
X03943309Y01962953D01*
X03966968Y01986612D01*
X03979772Y02017523D01*
X03979772Y02050981D01*
X03966968Y02081892D01*
X03943309Y02105550D01*
X03912398Y02118354D01*
X03878940Y02118354D01*
X03848029Y02105550D01*
X03824371Y02081892D01*
X03811567Y02050981D01*
X03811567Y02017523D01*
X03824371Y01986612D01*
X03827165Y01983817D02*
X03230478Y01983817D01*
X03230992Y01967818D02*
X03843164Y01967818D01*
X03874908Y01951820D02*
X03192198Y01951820D01*
X03192197Y01967818D02*
X03182606Y01967818D01*
X03182606Y01983817D02*
X03192197Y01983817D01*
X03192197Y01935821D02*
X03182606Y01935821D01*
X03182606Y01919823D02*
X03192197Y01919823D01*
X03192197Y01903824D02*
X03182606Y01903824D01*
X03154646Y01903824D02*
X03146997Y01903824D01*
X03171148Y01871827D02*
X03174915Y01871827D01*
X03220157Y01903824D02*
X04222000Y01903824D01*
X04222000Y01887826D02*
X02959000Y01887826D01*
X02959000Y01871827D02*
X03028852Y01871827D01*
X03019008Y01855829D02*
X02959000Y01855829D01*
X02959000Y01839830D02*
X03019008Y01839830D01*
X03019008Y01823832D02*
X02979577Y01823832D01*
X02943307Y01787402D02*
X02933000Y01797709D01*
X02933000Y01962000D01*
X02946000Y01975000D01*
X02993000Y01975000D01*
X02993000Y01925000D02*
X03087598Y01925000D01*
X03112598Y01950000D01*
X03069008Y01951820D02*
X03045276Y01951820D01*
X03050000Y01967818D02*
X03069008Y01967818D01*
X03069008Y01983817D02*
X03050000Y01983817D01*
X03050000Y02015814D02*
X03812275Y02015814D01*
X03811567Y02031813D02*
X03050000Y02031813D01*
X03045645Y02047811D02*
X03811567Y02047811D01*
X03816881Y02063810D02*
X03050000Y02063810D01*
X03050000Y02079808D02*
X03823508Y02079808D01*
X03838285Y02095807D02*
X03047649Y02095807D01*
X02938351Y02095807D02*
X02886000Y02095807D01*
X02886000Y02079808D02*
X02936000Y02079808D01*
X02936000Y02063810D02*
X02886000Y02063810D01*
X02886000Y02047811D02*
X02938130Y02047811D01*
X02921043Y02031813D02*
X02886000Y02031813D01*
X02886000Y02015814D02*
X02905045Y02015814D01*
X02889046Y01999815D02*
X02886000Y01999815D01*
X02860000Y01958201D02*
X02860000Y02091799D01*
X02851799Y02100000D01*
X02839000Y02100000D01*
X02811000Y02128000D01*
X02787000Y02128000D01*
X02756110Y02127804D02*
X02693977Y02127804D01*
X02709976Y02143802D02*
X02760111Y02143802D01*
X02760273Y02111805D02*
X02677979Y02111805D01*
X02648000Y02075000D02*
X02622000Y02049000D01*
X02648000Y02075000D02*
X02807000Y02075000D01*
X02847966Y02127804D02*
X04222000Y02127804D01*
X04222000Y02143802D02*
X02831967Y02143802D01*
X02876763Y02111805D02*
X03863129Y02111805D01*
X03928209Y02111805D02*
X04222000Y02111805D01*
X04222000Y02095807D02*
X03953053Y02095807D01*
X03967831Y02079808D02*
X04222000Y02079808D01*
X04222000Y02063810D02*
X03974458Y02063810D01*
X03979772Y02047811D02*
X04222000Y02047811D01*
X04222000Y02031813D02*
X03979772Y02031813D01*
X03979064Y02015814D02*
X04222000Y02015814D01*
X04222000Y01999815D02*
X03972437Y01999815D01*
X03964173Y01983817D02*
X04222000Y01983817D01*
X04222000Y01967818D02*
X03948174Y01967818D01*
X03916431Y01951820D02*
X04222000Y01951820D01*
X04222000Y01935821D02*
X03230992Y01935821D01*
X03230992Y01919823D02*
X04222000Y01919823D01*
X04222000Y01871827D02*
X03324406Y01871827D01*
X03332960Y01855829D02*
X04222000Y01855829D01*
X04222000Y01839830D02*
X04070952Y01839830D01*
X04073767Y01838664D02*
X04047617Y01849496D01*
X04019312Y01849496D01*
X03993162Y01838664D01*
X03973147Y01818649D01*
X03962315Y01792499D01*
X03962315Y01764194D01*
X03973147Y01738043D01*
X03993162Y01718029D01*
X04019312Y01707197D01*
X04047617Y01707197D01*
X04073767Y01718029D01*
X04093782Y01738043D01*
X04104614Y01764194D01*
X04104614Y01792499D01*
X04093782Y01818649D01*
X04073767Y01838664D01*
X04088600Y01823832D02*
X04222000Y01823832D01*
X04222000Y01807833D02*
X04098263Y01807833D01*
X04104614Y01791835D02*
X04222000Y01791835D01*
X04222000Y01775836D02*
X04104614Y01775836D01*
X04102810Y01759838D02*
X04222000Y01759838D01*
X04222000Y01743839D02*
X04096183Y01743839D01*
X04083579Y01727841D02*
X04222000Y01727841D01*
X04222000Y01711842D02*
X04058832Y01711842D01*
X04047617Y01692016D02*
X04019312Y01692016D01*
X03993162Y01681184D01*
X03973147Y01661169D01*
X03962315Y01635019D01*
X03962315Y01606713D01*
X03973147Y01580563D01*
X03993162Y01560548D01*
X04019312Y01549717D01*
X04047617Y01549717D01*
X04073767Y01560548D01*
X04093782Y01580563D01*
X04104614Y01606713D01*
X04104614Y01635019D01*
X04093782Y01661169D01*
X04073767Y01681184D01*
X04047617Y01692016D01*
X04075106Y01679845D02*
X04222000Y01679845D01*
X04222000Y01695844D02*
X03947134Y01695844D01*
X03947134Y01711842D02*
X04008097Y01711842D01*
X03983350Y01727841D02*
X03941301Y01727841D01*
X03932372Y01743839D02*
X03970746Y01743839D01*
X03964119Y01759838D02*
X03916374Y01759838D01*
X03962315Y01775836D02*
X03789653Y01775836D01*
X03789653Y01791835D02*
X03962315Y01791835D01*
X03968667Y01807833D02*
X03783302Y01807833D01*
X03773639Y01823832D02*
X03978329Y01823832D01*
X03995977Y01839830D02*
X03755992Y01839830D01*
X03718504Y01778346D02*
X03450000Y01778346D01*
X03109138Y01778346D01*
X03097811Y01789673D01*
X03097811Y01789787D01*
X03062598Y01825000D01*
X03025000Y01787402D01*
X02943307Y01787402D01*
X02978605Y01750000D02*
X02988866Y01760261D01*
X02988866Y01761402D01*
X03030172Y01761402D01*
X03039728Y01765360D01*
X03051840Y01777472D01*
X03073356Y01777472D01*
X03075689Y01775140D01*
X03075769Y01774946D01*
X03094410Y01756305D01*
X03103966Y01752346D01*
X03404481Y01752346D01*
X03406828Y01750000D01*
X03402472Y01745645D01*
X03402472Y01725606D01*
X03360690Y01725606D01*
X03351134Y01721648D01*
X03343820Y01714334D01*
X03324691Y01695204D01*
X03294166Y01695204D01*
X03294166Y01704795D01*
X03332960Y01704795D01*
X03332961Y01733866D01*
X03331734Y01738444D01*
X03329364Y01742548D01*
X03326013Y01745900D01*
X03321908Y01748269D01*
X03317330Y01749496D01*
X03294165Y01749496D01*
X03294165Y01704796D01*
X03284575Y01704796D01*
X03284575Y01749496D01*
X03261410Y01749496D01*
X03256832Y01748269D01*
X03252727Y01745900D01*
X03250000Y01743172D01*
X03243676Y01749496D01*
X03177583Y01749496D01*
X03173031Y01744944D01*
X03170448Y01747527D01*
X03104355Y01747527D01*
X03100000Y01743172D01*
X03095645Y01747527D01*
X03029552Y01747527D01*
X03019008Y01736983D01*
X03019008Y01726000D01*
X02988866Y01726000D01*
X02988866Y01739739D01*
X02978605Y01750000D01*
X02984766Y01743839D02*
X03025864Y01743839D01*
X03019008Y01727841D02*
X02988866Y01727841D01*
X02988443Y01759838D02*
X03090877Y01759838D01*
X03099333Y01743839D02*
X03100667Y01743839D01*
X03074993Y01775836D02*
X03050204Y01775836D01*
X03137402Y01825000D02*
X03210630Y01825000D01*
X03246345Y01871827D02*
X03254334Y01871827D01*
X03284575Y01871827D02*
X03294165Y01871827D01*
X03294165Y01855829D02*
X03284575Y01855829D01*
X03284575Y01839830D02*
X03294165Y01839830D01*
X03294166Y01823832D02*
X03405856Y01823832D01*
X03402472Y01807833D02*
X03332961Y01807833D01*
X03332960Y01839830D02*
X03681016Y01839830D01*
X03663368Y01823832D02*
X03494144Y01823832D01*
X03497527Y01807833D02*
X03653706Y01807833D01*
X03768619Y01727841D02*
X03810668Y01727841D01*
X03819596Y01743839D02*
X03781222Y01743839D01*
X03787849Y01759838D02*
X03835595Y01759838D01*
X03875984Y01699606D02*
X03450000Y01699606D01*
X03365862Y01699606D01*
X03362110Y01721606D02*
X03367000Y01726496D01*
X03362110Y01721606D02*
X03356749Y01721606D01*
X03335143Y01700000D01*
X03289370Y01700000D01*
X03294166Y01695844D02*
X03325330Y01695844D01*
X03332960Y01711842D02*
X03341328Y01711842D01*
X03332960Y01727841D02*
X03402472Y01727841D01*
X03402472Y01743839D02*
X03328073Y01743839D01*
X03294165Y01743839D02*
X03284575Y01743839D01*
X03284575Y01727841D02*
X03294165Y01727841D01*
X03294165Y01711842D02*
X03284575Y01711842D01*
X03250667Y01743839D02*
X03249333Y01743839D01*
X03210630Y01700000D02*
X03137402Y01700000D01*
X03077867Y01647848D02*
X02807960Y01647848D01*
X02807960Y01631849D02*
X03094732Y01631849D01*
X03019008Y01663846D02*
X02806501Y01663846D01*
X02769165Y01663846D02*
X02759575Y01663846D01*
X02759575Y01647848D02*
X02769165Y01647848D01*
X02769165Y01631849D02*
X02759575Y01631849D01*
X02759575Y01615851D02*
X02769165Y01615851D01*
X02769165Y01599852D02*
X02759575Y01599852D01*
X02759575Y01583854D02*
X02769165Y01583854D01*
X02805174Y01583854D02*
X02893587Y01583854D01*
X02876715Y01567855D02*
X02642130Y01567855D01*
X02642803Y01583854D02*
X02644234Y01583854D01*
X02670390Y01625000D02*
X02630602Y01664787D01*
X02630602Y01705602D01*
X02634000Y01709000D01*
X02635000Y01709000D01*
X02662985Y01695844D02*
X02897748Y01695844D01*
X02897748Y01711842D02*
X02665890Y01711842D01*
X02656602Y01679845D02*
X02903360Y01679845D01*
X02854850Y01712315D02*
X02854850Y01748157D01*
X02811134Y01748157D01*
X02811134Y01727945D01*
X02812360Y01723367D01*
X02814730Y01719263D01*
X02818082Y01715911D01*
X02822186Y01713542D01*
X02826764Y01712315D01*
X02854850Y01712315D01*
X02854850Y01727841D02*
X02858535Y01727841D01*
X02858535Y01743839D02*
X02854850Y01743839D01*
X02854850Y01759838D02*
X02858535Y01759838D01*
X02858535Y01775836D02*
X02854850Y01775836D01*
X02875748Y01791835D02*
X02807960Y01791835D01*
X02807960Y01807833D02*
X02875748Y01807833D01*
X02875748Y01823832D02*
X02794810Y01823832D01*
X02769165Y01823832D02*
X02759575Y01823832D01*
X02759575Y01807833D02*
X02769165Y01807833D01*
X02769165Y01791835D02*
X02759575Y01791835D01*
X02769166Y01775836D02*
X02812147Y01775836D01*
X02811134Y01759838D02*
X02807961Y01759838D01*
X02807961Y01743839D02*
X02811134Y01743839D01*
X02811162Y01727841D02*
X02798831Y01727841D01*
X02769165Y01727841D02*
X02759575Y01727841D01*
X02759575Y01743839D02*
X02769165Y01743839D01*
X02769165Y01759838D02*
X02759575Y01759838D01*
X02729909Y01727841D02*
X02721013Y01727841D01*
X02685630Y01775000D02*
X02608858Y01775000D01*
X02597244Y01786614D01*
X02597244Y01829244D01*
X02625000Y01857000D01*
X02655890Y01855829D02*
X02875748Y01855829D01*
X02875748Y01871827D02*
X02652293Y01871827D01*
X02631298Y01887826D02*
X02875748Y01887826D01*
X02875748Y01903824D02*
X02861280Y01903824D01*
X02864000Y01919823D02*
X02875748Y01919823D01*
X02875748Y01935821D02*
X02874390Y01935821D01*
X02860000Y01958201D02*
X02851799Y01950000D01*
X02832000Y01950000D01*
X02807000Y01925000D01*
X02750000Y01919823D02*
X02587974Y01919823D01*
X02571976Y01903824D02*
X02752720Y01903824D01*
X02750000Y01935821D02*
X02603973Y01935821D01*
X02615657Y01951820D02*
X02754724Y01951820D01*
X02750000Y01967818D02*
X02617173Y01967818D01*
X02617173Y01983817D02*
X02750000Y01983817D01*
X02618702Y01887826D02*
X02555977Y01887826D01*
X02539979Y01871827D02*
X02597707Y01871827D01*
X02587059Y01855829D02*
X02523980Y01855829D01*
X02539956Y01839830D02*
X02560044Y01839830D01*
X02551685Y01823832D02*
X02548315Y01823832D01*
X02548315Y01807833D02*
X02551685Y01807833D01*
X02551685Y01791835D02*
X02548315Y01791835D01*
X02548315Y01775836D02*
X02551685Y01775836D01*
X02551685Y01759838D02*
X02548315Y01759838D01*
X02548315Y01743839D02*
X02551685Y01743839D01*
X02610156Y01727841D02*
X02487197Y01727841D01*
X02487197Y01711842D02*
X02604110Y01711842D01*
X02604602Y01695844D02*
X02487197Y01695844D01*
X02487197Y01679845D02*
X02532446Y01679845D01*
X02554157Y01664787D02*
X02630602Y01664787D01*
X02554157Y01664787D02*
X02502756Y01613386D01*
X02548315Y01615851D02*
X02551685Y01615851D01*
X02551685Y01599852D02*
X02548315Y01599852D01*
X02548315Y01583854D02*
X02551685Y01583854D01*
X02552358Y01567855D02*
X02547642Y01567855D01*
X02487197Y01551857D02*
X02867110Y01551857D01*
X02867110Y01535858D02*
X02487197Y01535858D01*
X02487197Y01519860D02*
X02868376Y01519860D01*
X02871920Y01503861D02*
X02487197Y01503861D01*
X02487197Y01487863D02*
X02871920Y01487863D01*
X02871920Y01471864D02*
X02487197Y01471864D01*
X02487197Y01455866D02*
X02871920Y01455866D01*
X02871920Y01439867D02*
X02700565Y01439867D01*
X02706890Y01423869D02*
X02871920Y01423869D01*
X02871920Y01407870D02*
X02704101Y01407870D01*
X02687005Y01391872D02*
X02871920Y01391872D01*
X02871920Y01375873D02*
X02665066Y01375873D01*
X02657839Y01359875D02*
X02871920Y01359875D01*
X02871920Y01343876D02*
X02644312Y01343876D01*
X02613688Y01343876D02*
X02603292Y01343876D01*
X02597457Y01327877D02*
X02871920Y01327877D01*
X02871920Y01311879D02*
X02613455Y01311879D01*
X02629454Y01295880D02*
X02871920Y01295880D01*
X02871920Y01279882D02*
X02644855Y01279882D01*
X02649000Y01263883D02*
X02871920Y01263883D01*
X02871920Y01247885D02*
X02649000Y01247885D01*
X02552844Y01375873D02*
X02549461Y01375873D01*
X02533462Y01391872D02*
X02578586Y01391872D01*
X02594585Y01407870D02*
X02517464Y01407870D01*
X02501465Y01423869D02*
X02610583Y01423869D01*
X02616235Y01439867D02*
X02487197Y01439867D01*
X02390435Y01503861D02*
X02035565Y01503861D01*
X02051563Y01487863D02*
X02374436Y01487863D01*
X02427197Y01519860D02*
X02019566Y01519860D01*
X02003568Y01535858D02*
X02427197Y01535858D01*
X02670390Y01625000D02*
X02685630Y01625000D01*
X02941544Y01519860D02*
X03675226Y01519860D01*
X03659880Y01503861D02*
X02940000Y01503861D01*
X02940000Y01487863D02*
X03651631Y01487863D01*
X03710504Y01487863D02*
X03726504Y01487863D01*
X03726504Y01503861D02*
X03710504Y01503861D01*
X03710504Y01519860D02*
X03726504Y01519860D01*
X03737823Y01551857D02*
X03804835Y01551857D01*
X03809630Y01567855D02*
X03766114Y01567855D01*
X03780185Y01583854D02*
X03817091Y01583854D01*
X03833090Y01599852D02*
X03786811Y01599852D01*
X03789653Y01615851D02*
X03962315Y01615851D01*
X03962315Y01631849D02*
X03898328Y01631849D01*
X03924847Y01647848D02*
X03967629Y01647848D01*
X03975824Y01663846D02*
X03938184Y01663846D01*
X03944811Y01679845D02*
X03991823Y01679845D01*
X03965157Y01599852D02*
X03918878Y01599852D01*
X03934877Y01583854D02*
X03971784Y01583854D01*
X03985855Y01567855D02*
X03942339Y01567855D01*
X03947134Y01551857D02*
X04014145Y01551857D01*
X04052784Y01551857D02*
X04222000Y01551857D01*
X04222000Y01567855D02*
X04081074Y01567855D01*
X04095145Y01583854D02*
X04222000Y01583854D01*
X04222000Y01599852D02*
X04101772Y01599852D01*
X04104614Y01615851D02*
X04222000Y01615851D01*
X04222000Y01631849D02*
X04104614Y01631849D01*
X04099300Y01647848D02*
X04222000Y01647848D01*
X04222000Y01663846D02*
X04091105Y01663846D01*
X03853641Y01631849D02*
X03789653Y01631849D01*
X03784339Y01647848D02*
X03827122Y01647848D01*
X03813785Y01663846D02*
X03776144Y01663846D01*
X04222000Y01375873D02*
X02938000Y01375873D01*
X02938000Y01359875D02*
X04222000Y01359875D01*
X04222000Y01343876D02*
X02938000Y01343876D01*
X02938000Y01327877D02*
X04222000Y01327877D01*
X04222000Y01311879D02*
X02938000Y01311879D01*
X02875748Y01839830D02*
X02651323Y01839830D01*
X02651919Y01823832D02*
X02642803Y01823832D01*
X02719341Y01823832D02*
X02733931Y01823832D01*
X03096345Y01871827D02*
X03103655Y01871827D01*
X02725974Y02159801D02*
X04222000Y02159801D01*
X04222000Y02175799D02*
X02741973Y02175799D01*
X02756775Y02191798D02*
X04222000Y02191798D01*
X04222000Y02207796D02*
X02760497Y02207796D01*
X02761386Y02223795D02*
X04222000Y02223795D01*
X04222000Y02239793D02*
X02756388Y02239793D01*
X02200504Y02767745D02*
X02199496Y02767745D01*
X02199496Y02783743D02*
X02200504Y02783743D01*
X02206569Y02799742D02*
X02193431Y02799742D01*
X02199496Y02815740D02*
X02200504Y02815740D01*
X02200504Y02831739D02*
X02199496Y02831739D01*
X02199496Y02847737D02*
X02200504Y02847737D01*
X02200504Y02863736D02*
X02199496Y02863736D01*
X02191907Y02879734D02*
X02208093Y02879734D01*
X02245204Y02879734D02*
X02254795Y02879734D01*
X02254795Y02863736D02*
X02245204Y02863736D01*
X02245204Y02847737D02*
X02254795Y02847737D01*
X02154795Y02847737D02*
X02145204Y02847737D01*
X02145204Y02863736D02*
X02154795Y02863736D01*
X02154795Y02879734D02*
X02145204Y02879734D01*
X02062668Y02175799D02*
X01941405Y02175799D01*
X01941405Y02159801D02*
X02046670Y02159801D01*
X02030671Y02143802D02*
X01941405Y02143802D01*
X01941405Y02127804D02*
X02014673Y02127804D01*
X01998674Y02111805D02*
X01941405Y02111805D01*
X01941405Y02095807D02*
X01982676Y02095807D01*
X01966677Y02079808D02*
X01941405Y02079808D01*
X01941405Y02063810D02*
X01950679Y02063810D01*
X01881406Y02063810D02*
X01405000Y02063810D01*
X01405000Y02079808D02*
X01576507Y02079808D01*
X01569110Y02095807D02*
X01405890Y02095807D01*
X01403545Y02111805D02*
X01571455Y02111805D01*
X01585377Y02127804D02*
X01388595Y02127804D01*
X01361405Y02127804D02*
X01190745Y02127804D01*
X01206743Y02143802D02*
X01601376Y02143802D01*
X01617374Y02159801D02*
X01222742Y02159801D01*
X01238740Y02175799D02*
X01633891Y02175799D01*
X01654231Y02111805D02*
X01881406Y02111805D01*
X01881406Y02095807D02*
X01638233Y02095807D01*
X01623493Y02079808D02*
X01881406Y02079808D01*
X01881406Y02047811D02*
X01405000Y02047811D01*
X01405000Y02031813D02*
X01881406Y02031813D01*
X01881406Y02015814D02*
X01405000Y02015814D01*
X01405000Y01999815D02*
X01881406Y01999815D01*
X01881406Y01983817D02*
X01405000Y01983817D01*
X01405000Y01967818D02*
X01854649Y01967818D01*
X01849626Y01951820D02*
X01405000Y01951820D01*
X01405000Y01935821D02*
X01850516Y01935821D01*
X01848712Y01919823D02*
X01405000Y01919823D01*
X01405000Y01903824D02*
X01832713Y01903824D01*
X01816715Y01887826D02*
X01405000Y01887826D01*
X01405000Y01871827D02*
X01800716Y01871827D01*
X01784718Y01855829D02*
X01405000Y01855829D01*
X01405000Y01839830D02*
X01769672Y01839830D01*
X01765780Y01823832D02*
X01405000Y01823832D01*
X01405890Y01807833D02*
X01765780Y01807833D01*
X01765780Y01791835D02*
X01396835Y01791835D01*
X01379578Y01775836D02*
X01765780Y01775836D01*
X01724925Y01759838D02*
X01363579Y01759838D01*
X01347581Y01743839D02*
X01717039Y01743839D01*
X01717039Y01727841D02*
X01331582Y01727841D01*
X01315584Y01711842D02*
X01717039Y01711842D01*
X01717039Y01695844D02*
X01367138Y01695844D01*
X01383137Y01679845D02*
X01717039Y01679845D01*
X01783000Y01647848D02*
X01803000Y01647848D01*
X01803000Y01636999D02*
X01803000Y01623630D01*
X01804227Y01619052D01*
X01806596Y01614948D01*
X01809948Y01611596D01*
X01814052Y01609227D01*
X01818630Y01608000D01*
X01846999Y01608000D01*
X01846999Y01636999D01*
X01803000Y01636999D01*
X01803000Y01631849D02*
X01783000Y01631849D01*
X01797000Y01615851D02*
X01806075Y01615851D01*
X01797000Y01599852D02*
X01881406Y01599852D01*
X01847000Y01615851D02*
X01846999Y01615851D01*
X01846999Y01631849D02*
X01847000Y01631849D01*
X01810131Y01663846D02*
X01794019Y01663846D01*
X01834575Y01717796D02*
X01834575Y01762496D01*
X01825779Y01762496D01*
X01825779Y01812038D01*
X01843528Y01829787D01*
X01848502Y01824813D01*
X01859856Y01820110D01*
X01872144Y01820110D01*
X01881406Y01823946D01*
X01881406Y01752012D01*
X01879364Y01755548D01*
X01876013Y01758900D01*
X01871908Y01761269D01*
X01867330Y01762496D01*
X01844165Y01762496D01*
X01844165Y01717796D01*
X01834575Y01717796D01*
X01834575Y01727841D02*
X01844165Y01727841D01*
X01844165Y01743839D02*
X01834575Y01743839D01*
X01834575Y01759838D02*
X01844165Y01759838D01*
X01825779Y01775836D02*
X01881406Y01775836D01*
X01881406Y01759838D02*
X01874388Y01759838D01*
X01881406Y01791835D02*
X01825779Y01791835D01*
X01825779Y01807833D02*
X01881406Y01807833D01*
X01881406Y01823832D02*
X01881129Y01823832D01*
X01850871Y01823832D02*
X01837573Y01823832D01*
X01805398Y01583854D02*
X01797000Y01583854D01*
X01790970Y01535858D02*
X01805686Y01535858D01*
X01765425Y01535858D02*
X01755834Y01535858D01*
X01755834Y01519860D02*
X01765425Y01519860D01*
X01765425Y01503861D02*
X01755834Y01503861D01*
X01857641Y01391872D02*
X02062702Y01391872D01*
X02046703Y01407870D02*
X01973979Y01407870D01*
X01958021Y01407870D02*
X01873639Y01407870D01*
X01793647Y01327877D02*
X02048570Y01327877D01*
X02042738Y01311879D02*
X01777648Y01311879D01*
X01761650Y01295880D02*
X02026740Y01295880D01*
X02013625Y01279882D02*
X01745651Y01279882D01*
X01729653Y01263883D02*
X02012010Y01263883D01*
X02012010Y01247885D02*
X01713654Y01247885D01*
X01697656Y01231886D02*
X01939323Y01231886D01*
X01956456Y01231886D02*
X02012010Y01231886D01*
X02012010Y01215888D02*
X01975572Y01215888D01*
X01978779Y01199889D02*
X02012010Y01199889D01*
X02012010Y01183891D02*
X01973465Y01183891D01*
X02012010Y01167892D02*
X01633662Y01167892D01*
X01617663Y01151894D02*
X02012010Y01151894D01*
X01947662Y00959911D02*
X01157030Y00959911D01*
X01173028Y00943913D02*
X01963661Y00943913D01*
X01979659Y00927914D02*
X01189027Y00927914D01*
X01205025Y00911916D02*
X01995658Y00911916D01*
X02011656Y00895917D02*
X01221024Y00895917D01*
X01237022Y00879919D02*
X02027655Y00879919D01*
X01624117Y01231886D02*
X01553500Y01231886D01*
X01553500Y01215888D02*
X01608118Y01215888D01*
X01592120Y01199889D02*
X01547066Y01199889D01*
X01553500Y01183891D02*
X01576121Y01183891D01*
X01560123Y01167892D02*
X01553500Y01167892D01*
X01549071Y01247885D02*
X01640116Y01247885D01*
X01656114Y01263883D02*
X01448058Y01263883D01*
X01432059Y01279882D02*
X01476433Y01279882D01*
X01469110Y01295880D02*
X01427000Y01295880D01*
X01427000Y01311879D02*
X01471486Y01311879D01*
X01513416Y01327877D02*
X01720108Y01327877D01*
X01704110Y01311879D02*
X01528514Y01311879D01*
X01530890Y01295880D02*
X01688111Y01295880D01*
X01672113Y01279882D02*
X01523567Y01279882D01*
X01429246Y01359875D02*
X01426724Y01359875D01*
X01426724Y01375873D02*
X01427276Y01375873D01*
X01427276Y01391872D02*
X01426724Y01391872D01*
X01426724Y01407870D02*
X01427276Y01407870D01*
X01427276Y01423869D02*
X01426724Y01423869D01*
X01426724Y01439867D02*
X01429551Y01439867D01*
X01342724Y01343876D02*
X01133000Y01343876D01*
X01133000Y01359875D02*
X01278449Y01359875D01*
X01277669Y01375873D02*
X01269558Y01375873D01*
X01230442Y01375873D02*
X01133000Y01375873D01*
X01133000Y01391872D02*
X01219932Y01391872D01*
X01219825Y01407870D02*
X01133000Y01407870D01*
X01133000Y01423869D02*
X01230184Y01423869D01*
X01278978Y01439867D02*
X01133000Y01439867D01*
X01133000Y01455866D02*
X01305420Y01455866D01*
X01302110Y01471864D02*
X01133000Y01471864D01*
X01133000Y01487863D02*
X01307178Y01487863D01*
X01342724Y01327877D02*
X01133000Y01327877D01*
X01133000Y01311879D02*
X01342724Y01311879D01*
X01342724Y01295880D02*
X01133000Y01295880D01*
X01133000Y01279882D02*
X01342724Y01279882D01*
X01342724Y01263883D02*
X01133000Y01263883D01*
X01133000Y01247885D02*
X01250929Y01247885D01*
X01246500Y01231886D02*
X01133000Y01231886D01*
X01133000Y01215888D02*
X01246500Y01215888D01*
X01252934Y01199889D02*
X01133000Y01199889D01*
X01133000Y01183891D02*
X01237950Y01183891D01*
X01221951Y01167892D02*
X01133000Y01167892D01*
X01133000Y01151894D02*
X01207906Y01151894D01*
X01205110Y01135895D02*
X01133000Y01135895D01*
X01133000Y01119897D02*
X01211419Y01119897D01*
X01212000Y01103898D02*
X01133000Y01103898D01*
X01133000Y01087900D02*
X01212000Y01087900D01*
X01212000Y01071901D02*
X01133000Y01071901D01*
X01133000Y01055903D02*
X01214619Y01055903D01*
X01222405Y01046654D02*
X01222405Y01046654D01*
X01229155Y01039904D02*
X01133000Y01039904D01*
X01133000Y01023906D02*
X01245153Y01023906D01*
X01261152Y01007907D02*
X01133000Y01007907D01*
X01133000Y00991908D02*
X01277150Y00991908D01*
X01294201Y00975910D02*
X01141031Y00975910D01*
X01300000Y00735932D02*
X02561657Y00735932D01*
X02557197Y00719934D02*
X01300000Y00719934D01*
X01300000Y00703935D02*
X02557197Y00703935D01*
X02557197Y00687937D02*
X01300000Y00687937D01*
X01300000Y00671938D02*
X02557197Y00671938D01*
X02557197Y00655939D02*
X01300000Y00655939D01*
X01300000Y00639941D02*
X02559013Y00639941D01*
X02700487Y00591945D02*
X01300000Y00591945D01*
X01295999Y01231886D02*
X01296000Y01231886D01*
X01295999Y01247885D02*
X01296000Y01247885D01*
X01341071Y01247885D02*
X01342724Y01247885D01*
X01306159Y01695844D02*
X01302841Y01695844D01*
X01346455Y02111805D02*
X01174746Y02111805D01*
X00596252Y01919823D02*
X00495397Y01919823D01*
X00505351Y01935821D02*
X00580253Y01935821D01*
X00564255Y01951820D02*
X00504671Y01951820D01*
X00493756Y01967818D02*
X00548256Y01967818D01*
X00532258Y01983817D02*
X00476499Y01983817D01*
X00460501Y01999815D02*
X00516259Y01999815D01*
X00491926Y02015814D02*
X00455110Y02015814D01*
X00455110Y02031813D02*
X00488220Y02031813D01*
X00492678Y02047811D02*
X00455110Y02047811D01*
X00455110Y02063810D02*
X00488359Y02063810D01*
X00472361Y02079808D02*
X00456000Y02079808D01*
X00449988Y02095807D02*
X00468000Y02095807D01*
X00402000Y02415777D02*
X00028000Y02415777D01*
X00028000Y02431776D02*
X00413893Y02431776D01*
X00428837Y02447774D02*
X00028000Y02447774D01*
X00028000Y02463773D02*
X00426000Y02463773D01*
X00426000Y02479771D02*
X00028000Y02479771D01*
X00028000Y02495770D02*
X00426000Y02495770D01*
X00426000Y02511768D02*
X00028000Y02511768D01*
X00028000Y02527767D02*
X00426000Y02527767D01*
X00426000Y02543765D02*
X00028000Y02543765D01*
X00028000Y02559764D02*
X00426000Y02559764D01*
X00426000Y02575762D02*
X00028000Y02575762D01*
X00028000Y02591761D02*
X00426000Y02591761D01*
X00426000Y02607759D02*
X00028000Y02607759D01*
X00028000Y02623758D02*
X00426000Y02623758D01*
X00426000Y02639756D02*
X00028000Y02639756D01*
X00028000Y02655755D02*
X00426000Y02655755D01*
X00426000Y02671753D02*
X00028000Y02671753D01*
X00028000Y02687752D02*
X00426000Y02687752D01*
X00426000Y02703750D02*
X00028000Y02703750D01*
X00028000Y02719749D02*
X00426000Y02719749D01*
X00426000Y02735748D02*
X00028000Y02735748D01*
X00028000Y02751746D02*
X00426000Y02751746D01*
X00414373Y02767745D02*
X00028000Y02767745D01*
X00028000Y02783743D02*
X00402000Y02783743D01*
X00402000Y02799742D02*
X00028000Y02799742D01*
X00028000Y02815740D02*
X00402000Y02815740D01*
X00413857Y02831739D02*
X00028000Y02831739D01*
X00028000Y02847737D02*
X00429855Y02847737D01*
X00430118Y02852000D02*
X00448000Y02852000D01*
X00448000Y02897999D01*
X00452000Y02897999D01*
X00452000Y02852000D01*
X00469882Y02852000D01*
X00498000Y02880118D01*
X00498000Y02898000D01*
X00452001Y02898000D01*
X00452001Y02902000D01*
X00498000Y02902000D01*
X00498000Y02919882D01*
X00469882Y02948000D01*
X00452000Y02948000D01*
X00452000Y02902001D01*
X00448000Y02902001D01*
X00448000Y02948000D01*
X00430118Y02948000D01*
X00402000Y02919882D01*
X00402000Y02902000D01*
X00447999Y02902000D01*
X00447999Y02898000D01*
X00402000Y02898000D01*
X00402000Y02880118D01*
X00430118Y02852000D01*
X00418382Y02863736D02*
X00028000Y02863736D01*
X00028000Y02879734D02*
X00402383Y02879734D01*
X00402000Y02895733D02*
X00028000Y02895733D01*
X00028000Y02911731D02*
X00402000Y02911731D01*
X00409848Y02927730D02*
X00028000Y02927730D01*
X00028000Y02943728D02*
X00425846Y02943728D01*
X00448000Y02943728D02*
X00452000Y02943728D01*
X00452000Y02927730D02*
X00448000Y02927730D01*
X00448000Y02911731D02*
X00452000Y02911731D01*
X00452000Y02895733D02*
X00448000Y02895733D01*
X00448000Y02879734D02*
X00452000Y02879734D01*
X00452000Y02863736D02*
X00448000Y02863736D01*
X00470145Y02847737D02*
X00487428Y02847737D01*
X00481618Y02863736D02*
X00503427Y02863736D01*
X00502383Y02879734D02*
X00497616Y02879734D01*
X00498000Y02895733D02*
X00502000Y02895733D01*
X00502000Y02911731D02*
X00498000Y02911731D01*
X00490152Y02927730D02*
X00509848Y02927730D01*
X00525846Y02943728D02*
X00474154Y02943728D01*
X00574154Y02943728D02*
X00625846Y02943728D01*
X00609848Y02927730D02*
X00590152Y02927730D01*
X00598000Y02911731D02*
X00602000Y02911731D01*
X00602000Y02895733D02*
X00598000Y02895733D01*
X00597616Y02879734D02*
X00602383Y02879734D01*
X00618382Y02863736D02*
X00581618Y02863736D01*
X00572281Y02847737D02*
X00629855Y02847737D01*
X00613857Y02831739D02*
X00586143Y02831739D01*
X00598000Y02815740D02*
X00602000Y02815740D01*
X00602000Y02799742D02*
X00598000Y02799742D01*
X00598000Y02783743D02*
X00602000Y02783743D01*
X00614373Y02767745D02*
X00585627Y02767745D01*
X00221212Y03102418D02*
X00197582Y03078788D01*
X00166709Y03066000D01*
X00133291Y03066000D01*
X00102418Y03078788D01*
X00078788Y03102418D01*
X00066000Y03133291D01*
X00066000Y03166709D01*
X00078788Y03197582D01*
X00102418Y03221212D01*
X00133291Y03234000D01*
X00166709Y03234000D01*
X00197582Y03221212D01*
X00221212Y03197582D01*
X00234000Y03166709D01*
X00234000Y03133291D01*
X00221212Y03102418D01*
X00221748Y03103714D02*
X04028251Y03103714D01*
X04028788Y03102418D02*
X04052418Y03078788D01*
X04083291Y03066000D01*
X04116709Y03066000D01*
X04147582Y03078788D01*
X04171212Y03102418D01*
X04184000Y03133291D01*
X04184000Y03166709D01*
X04171212Y03197582D01*
X04147582Y03221212D01*
X04116709Y03234000D01*
X04083291Y03234000D01*
X04052418Y03221212D01*
X04028788Y03197582D01*
X04016000Y03166709D01*
X04016000Y03133291D01*
X04028788Y03102418D01*
X04021625Y03119712D02*
X00228375Y03119712D01*
X00234000Y03135711D02*
X04016000Y03135711D01*
X04016000Y03151709D02*
X00234000Y03151709D01*
X00233586Y03167708D02*
X04016414Y03167708D01*
X04023041Y03183706D02*
X00226959Y03183706D01*
X00219089Y03199705D02*
X04030911Y03199705D01*
X04046909Y03215703D02*
X00203090Y03215703D01*
X00172257Y03231702D02*
X04077743Y03231702D01*
X04122257Y03231702D02*
X04222000Y03231702D01*
X04222000Y03247700D02*
X00028000Y03247700D01*
X00028000Y03231702D02*
X00127743Y03231702D01*
X00096909Y03215703D02*
X00028000Y03215703D01*
X00028000Y03199705D02*
X00080911Y03199705D01*
X00073041Y03183706D02*
X00028000Y03183706D01*
X00028000Y03167708D02*
X00066414Y03167708D01*
X00066000Y03151709D02*
X00028000Y03151709D01*
X00028000Y03135711D02*
X00066000Y03135711D01*
X00071625Y03119712D02*
X00028000Y03119712D01*
X00028000Y03103714D02*
X00078251Y03103714D01*
X00093491Y03087715D02*
X00028000Y03087715D01*
X00028000Y03071717D02*
X00119490Y03071717D01*
X00028000Y03055718D02*
X04222000Y03055718D01*
X04222000Y03039719D02*
X00028000Y03039719D01*
X00028000Y03023721D02*
X04222000Y03023721D01*
X04222000Y03007722D02*
X00028000Y03007722D01*
X00028000Y02991724D02*
X04222000Y02991724D01*
X04222000Y02975725D02*
X00028000Y02975725D01*
X00028000Y02959727D02*
X04222000Y02959727D01*
X04222000Y03071717D02*
X04130509Y03071717D01*
X04156509Y03087715D02*
X04222000Y03087715D01*
X04222000Y03103714D02*
X04171748Y03103714D01*
X04178375Y03119712D02*
X04222000Y03119712D01*
X04222000Y03135711D02*
X04184000Y03135711D01*
X04184000Y03151709D02*
X04222000Y03151709D01*
X04222000Y03167708D02*
X04183586Y03167708D01*
X04176959Y03183706D02*
X04222000Y03183706D01*
X04222000Y03199705D02*
X04169089Y03199705D01*
X04153090Y03215703D02*
X04222000Y03215703D01*
X04222000Y03263699D02*
X00028000Y03263699D01*
X00180509Y03071717D02*
X04069490Y03071717D01*
X04043491Y03087715D02*
X00206509Y03087715D01*
X01993581Y01423869D02*
X02030705Y01423869D01*
D25*
X01911406Y01476493D02*
X01911406Y01585594D01*
X01938500Y01558500D01*
X02213000Y01284000D01*
X02413000Y01484000D01*
X02426307Y01484000D01*
X02457197Y01425711D02*
X02457197Y01831472D01*
X02587173Y01961448D01*
X02587173Y02034574D01*
X02587173Y02063426D01*
X02730497Y02206750D01*
X02730497Y02222000D01*
X02807000Y02025000D02*
X02647253Y02025000D01*
X02636426Y02014173D01*
X02607574Y02014173D01*
X02587173Y02034574D01*
X02119110Y02189815D02*
X02119110Y02212795D01*
X02588315Y02682000D01*
X02783000Y02682000D01*
X02516000Y02713992D02*
X02512000Y02717992D01*
X02512000Y02748630D01*
X02500000Y02760630D01*
X02450000Y02729000D02*
X02431630Y02729000D01*
X02400000Y02760630D01*
X02264000Y02746630D02*
X02264000Y02713000D01*
X02264000Y02746630D02*
X02250000Y02760630D01*
X02200000Y02729000D02*
X02181630Y02729000D01*
X02150000Y02760630D01*
X02237000Y02643000D02*
X01911406Y02317406D01*
X01911406Y02150000D01*
X01650000Y02150000D01*
X01600000Y02100000D01*
X01375000Y02100000D02*
X01375000Y01813685D01*
X01249110Y01687795D01*
X01249110Y01662205D01*
X01291425Y01619890D01*
X01305701Y01619890D01*
X01325197Y01600394D01*
X01753000Y01600000D02*
X01753000Y01705370D01*
X01760630Y01713000D01*
X01795780Y01748150D01*
X01795780Y01824464D01*
X01880516Y01909201D01*
X01880516Y01950000D01*
X01942295Y02013000D02*
X02119110Y02189815D01*
X01911406Y02150000D02*
X01911406Y01851000D01*
X01911406Y01585594D01*
X01847000Y01563000D02*
X01847000Y01494630D01*
X01839370Y01487000D01*
X01847000Y01637000D02*
X01847000Y01705370D01*
X01839370Y01713000D01*
X02457197Y01425711D02*
X02619000Y01263908D01*
X02619000Y01202000D01*
X02723315Y01202000D01*
X02894441Y01030874D01*
X03087701Y01030874D01*
X03154355Y01097528D01*
X03320355Y01097528D01*
X03448000Y00969882D01*
X03448000Y00830118D01*
X03419882Y00802000D01*
X03352000Y00802000D01*
X03300000Y00750000D01*
X02450000Y00950000D02*
X02400000Y00900000D01*
X02050000Y00900000D01*
X01900000Y01050000D01*
X01900000Y01100000D01*
X02450000Y01000000D02*
X02450000Y00950000D01*
X00698000Y02280118D02*
X00698000Y02620827D01*
X00729645Y02652472D01*
X00550000Y02867882D02*
X00502000Y02819882D01*
X00502000Y02473456D01*
X00550000Y02425456D01*
X00550000Y02400000D01*
X00698000Y02280118D02*
X00650000Y02232118D01*
X00650000Y02112598D01*
X00425110Y02077000D02*
X00425110Y01992780D01*
X00474890Y01943000D01*
X01340000Y02587000D02*
X01340000Y02590000D01*
X01391136Y02641136D01*
X00550000Y02867882D02*
X00550000Y02900000D01*
D26*
X00550000Y02800000D02*
X00550000Y02459397D01*
X00592000Y02417397D01*
X00592000Y02029310D01*
X00800220Y01821089D01*
X00825110Y01796200D02*
X00825110Y02265493D01*
X00808000Y02282603D01*
X00808000Y02642000D01*
X00650000Y02800000D01*
X00850000Y02800000D02*
X00850000Y02459397D01*
X00892000Y02417397D01*
X00892000Y02282603D01*
X00850000Y02240603D01*
X00850000Y01700000D01*
X00825110Y01761000D02*
X00492000Y02094110D01*
X00492000Y02417397D01*
X00450000Y02459397D01*
X00450000Y02800000D01*
X00519110Y02030905D02*
X00707890Y01842126D01*
X00707890Y01823000D01*
X00622110Y01694000D02*
X00684110Y01632000D01*
X00689890Y01632000D01*
X00920000Y01645456D02*
X00673031Y01398487D01*
X00673031Y00585528D01*
X00671252Y00583748D01*
X00671252Y00509000D01*
X00691031Y00493580D02*
X00696142Y00498690D01*
X00696142Y01396142D01*
X00950000Y01650000D01*
X00950000Y01921000D01*
X01600000Y02571000D01*
X01642800Y02649000D02*
X02033000Y02649000D01*
X01642800Y02649000D02*
X00932000Y01938200D01*
X00932000Y01713000D01*
X00920000Y01701000D01*
X00920000Y01645456D01*
X00973882Y01540528D02*
X00982772Y01531638D01*
X00982772Y01530218D01*
X01037000Y01475989D01*
X01037000Y00944176D01*
X01204000Y00777176D01*
X01204000Y00340324D01*
X01215110Y00329214D01*
X01215110Y00319470D01*
X01222000Y00347780D02*
X01251390Y00318390D01*
X01274441Y00343111D02*
X01274441Y00373151D01*
X01240000Y00407592D01*
X01240000Y00792088D01*
X01073000Y00959088D01*
X01073000Y01507548D01*
X01050331Y01530218D01*
X01050331Y01531638D01*
X01041441Y01540528D01*
X01075220Y01540528D02*
X01084110Y01531638D01*
X01084110Y01530218D01*
X01091000Y01523328D01*
X01091000Y00966544D01*
X01258000Y00799544D01*
X01258000Y00415048D01*
X01308220Y00364828D01*
X01308220Y00344531D01*
X01342000Y00356504D02*
X01276000Y00422504D01*
X01276000Y00807000D01*
X01109000Y00974000D01*
X01109000Y01540528D01*
X01055000Y01484865D02*
X01055000Y00951632D01*
X01222000Y00784632D01*
X01222000Y00347780D01*
X00691031Y00481008D02*
X00691031Y00493580D01*
X01236000Y01067000D02*
X01306000Y00997000D01*
X01433000Y00997000D01*
X01434000Y00996000D01*
X01589000Y00996000D01*
X01510000Y01075000D01*
X01504000Y01075000D01*
X01504000Y01175000D02*
X01450000Y01175000D01*
X01449000Y01174000D01*
X01453000Y01225000D02*
X01504000Y01225000D01*
X01453000Y01225000D02*
X01403000Y01275000D01*
X01403000Y01317000D01*
X01402724Y01317276D01*
X01402724Y01626316D01*
X01353041Y01676000D01*
X01330000Y01676000D01*
X01311110Y01643890D02*
X01280000Y01675000D01*
X01311110Y01643890D02*
X01359695Y01643890D01*
X01384724Y01618860D01*
X01384724Y01154254D01*
X01332470Y01102000D01*
X01323000Y01102000D01*
X01296000Y01075000D01*
X01296000Y01125000D02*
X01323000Y01152000D01*
X01332470Y01152000D01*
X01366724Y01186254D01*
X01366724Y01436073D01*
X01333000Y01469797D01*
X01333000Y01470000D01*
X01324803Y01400000D02*
X01250000Y01400000D01*
X01324803Y01400000D02*
X01325197Y01399606D01*
X01325197Y01600394D02*
X01310591Y01615000D01*
X01247000Y01615000D01*
X01127177Y01762177D02*
X01031322Y01762177D01*
X01031250Y01762250D01*
X01007661Y01554520D02*
X01007661Y01532204D01*
X01055000Y01484865D01*
X01263000Y01175000D02*
X01296000Y01175000D01*
X01263000Y01175000D02*
X01236000Y01148000D01*
X01236000Y01139000D01*
X01236000Y01067000D01*
X01675110Y01202000D02*
X01947890Y01202000D01*
X02054010Y01234790D02*
X02058339Y01230462D01*
X02058339Y01081226D01*
X02149199Y00990366D01*
X02149199Y00980622D01*
X02138890Y00955732D02*
X02036010Y01058611D01*
X02036010Y01271210D01*
X02076000Y01311200D01*
X02076000Y01313380D01*
X02079600Y01279600D02*
X02069990Y01269990D01*
X02068591Y01269990D01*
X02054010Y01255410D01*
X02054010Y01234790D01*
X02078900Y01245100D02*
X02078900Y01179383D01*
X02076339Y01176822D01*
X02076339Y01088682D01*
X02184399Y00980622D01*
X02199000Y01001220D02*
X02106110Y01094110D01*
X02106110Y01161630D01*
X02101228Y01166512D01*
X02131000Y01148512D02*
X02185622Y01093890D01*
X02485800Y01093890D01*
X02492690Y01100780D01*
X02513310Y01100780D01*
X02520200Y01093890D01*
X02532772Y01093890D01*
X02503000Y01075890D02*
X02259089Y01075890D01*
X02209310Y01026110D01*
X02199000Y01001220D02*
X02310780Y01001220D01*
X02337000Y00975000D01*
X02263690Y00937732D02*
X02245690Y00955732D01*
X02138890Y00955732D01*
X02595000Y01071800D02*
X02966000Y00700800D01*
X02966000Y00687000D01*
X02976890Y00876263D02*
X03109099Y01008472D01*
X03143159Y01008472D01*
X03184687Y01050000D01*
X03187402Y01050000D01*
X03300000Y01050000D01*
X03400000Y00950000D01*
X02920810Y01097252D02*
X02914000Y01104061D01*
X02914000Y01399000D01*
X02916000Y01401000D01*
X02916000Y01538000D01*
X02895920Y01522881D02*
X02895920Y01398920D01*
X02896000Y01399000D01*
X02895920Y01398920D02*
X02895920Y01073080D01*
X02595000Y01071800D02*
X02595000Y01245000D01*
X02594223Y01245000D01*
X02482012Y01357211D01*
X02573624Y01352969D02*
X02642220Y01421565D01*
X02642220Y01422168D01*
X02676000Y01420748D02*
X02629000Y01373748D01*
X02629000Y01370969D01*
X02891110Y01527690D02*
X02895920Y01522881D01*
X02891110Y01527690D02*
X02891110Y01548310D01*
X02905690Y01562890D01*
X02940780Y01562890D01*
X02940890Y01563000D01*
D27*
X01911406Y01476493D02*
X01893000Y01458087D01*
X01893000Y01458000D01*
D28*
X01876000Y01563000D02*
X01881500Y01568500D01*
X01880516Y01568500D02*
X01875016Y01563000D01*
X01847000Y01563000D01*
X01876000Y01563000D01*
X01938500Y01558500D02*
X01956000Y01576000D01*
X01970000Y01576000D01*
X01911406Y01851000D02*
X01866000Y01851000D01*
D29*
X03450000Y01787402D02*
X03450000Y01778346D01*
X03450000Y01712598D02*
X03450000Y01699606D01*
M02*
