G75*
%MOIN*%
%OFA0B0*%
%FSLAX25Y25*%
%IPPOS*%
%LPD*%
%AMOC8*
5,1,8,0,0,1.08239X$1,22.5*
%
%ADD10C,0.00000*%
%ADD11C,0.00300*%
%ADD12C,0.00200*%
%ADD13R,0.00100X0.00200*%
%ADD14R,0.00100X0.00900*%
%ADD15R,0.00100X0.00400*%
%ADD16R,0.00100X0.00300*%
%ADD17R,0.00100X0.00700*%
%ADD18R,0.00100X0.01400*%
%ADD19R,0.00100X0.01200*%
%ADD20R,0.00100X0.01100*%
%ADD21R,0.00100X0.01300*%
%ADD22R,0.00100X0.00800*%
%ADD23R,0.00100X0.01000*%
%ADD24R,0.00100X0.01500*%
%ADD25R,0.00100X0.00500*%
%ADD26R,0.00100X0.00600*%
%ADD27R,0.00100X0.01900*%
%ADD28R,0.00100X0.04200*%
%ADD29R,0.00100X0.01800*%
%ADD30R,0.00100X0.02100*%
%ADD31R,0.00100X0.04300*%
%ADD32R,0.00100X0.02200*%
%ADD33R,0.00100X0.02000*%
%ADD34R,0.00100X0.04100*%
%ADD35R,0.00100X0.02300*%
%ADD36R,0.00100X0.00100*%
%ADD37R,0.00100X0.02400*%
%ADD38R,0.00100X0.02500*%
%ADD39R,0.00100X0.02600*%
%ADD40R,0.00100X0.02700*%
%ADD41R,0.00100X0.01700*%
%ADD42R,0.00100X0.02800*%
%ADD43R,0.00100X0.02900*%
%ADD44R,0.00100X0.03100*%
%ADD45R,0.00100X0.03400*%
%ADD46R,0.00100X0.03600*%
%ADD47R,0.00100X0.03800*%
%ADD48R,0.00100X0.04000*%
%ADD49R,0.00100X0.04400*%
%ADD50R,0.00100X0.04500*%
%ADD51R,0.00100X0.04600*%
%ADD52R,0.00100X0.04700*%
%ADD53R,0.00100X0.03700*%
%ADD54R,0.00100X0.03500*%
%ADD55R,0.00100X0.03200*%
%ADD56R,0.00100X0.01600*%
%ADD57R,0.00100X0.03000*%
%ADD58R,0.00100X0.03900*%
%ADD59R,0.00100X0.03300*%
%ADD60C,0.00600*%
%ADD61C,0.00500*%
D10*
X0001000Y0001000D02*
X0001000Y0171000D01*
X0121000Y0171000D01*
X0121000Y0001000D01*
X0001000Y0001000D01*
D11*
X0035284Y0043606D02*
X0038317Y0043606D01*
X0038924Y0044213D01*
X0038924Y0045426D01*
X0038317Y0046033D01*
X0035284Y0046033D01*
X0035891Y0047231D02*
X0035284Y0047838D01*
X0035284Y0049051D01*
X0035891Y0049658D01*
X0037104Y0049051D02*
X0037104Y0047838D01*
X0036497Y0047231D01*
X0035891Y0047231D01*
X0034677Y0048444D02*
X0039531Y0048444D01*
X0038924Y0047838D02*
X0038924Y0049051D01*
X0038317Y0049658D01*
X0037711Y0049658D01*
X0037104Y0049051D01*
X0037104Y0050856D02*
X0037104Y0053283D01*
X0038924Y0052676D02*
X0035284Y0052676D01*
X0037104Y0050856D01*
X0038924Y0047838D02*
X0038317Y0047231D01*
X0075530Y0086287D02*
X0076147Y0086287D01*
X0077381Y0086287D02*
X0077381Y0085670D01*
X0077381Y0086287D02*
X0079850Y0086287D01*
X0079850Y0085670D02*
X0079850Y0086904D01*
X0079850Y0088125D02*
X0079850Y0089977D01*
X0079233Y0090594D01*
X0078616Y0089977D01*
X0078616Y0088742D01*
X0077998Y0088125D01*
X0077381Y0088742D01*
X0077381Y0090594D01*
X0077381Y0091808D02*
X0077381Y0093660D01*
X0077998Y0094277D01*
X0079233Y0094277D01*
X0079850Y0093660D01*
X0079850Y0091808D01*
X0081084Y0091808D02*
X0077381Y0091808D01*
X0076147Y0095492D02*
X0076147Y0096109D01*
X0079850Y0096109D01*
X0079850Y0095492D02*
X0079850Y0096726D01*
X0079233Y0097947D02*
X0078616Y0098564D01*
X0078616Y0100416D01*
X0077998Y0100416D02*
X0079850Y0100416D01*
X0079850Y0098564D01*
X0079233Y0097947D01*
X0077381Y0098564D02*
X0077381Y0099799D01*
X0077998Y0100416D01*
X0077381Y0101630D02*
X0079233Y0101630D01*
X0079850Y0102247D01*
X0079850Y0104099D01*
X0080467Y0104099D02*
X0081084Y0103482D01*
X0081084Y0102865D01*
X0080467Y0104099D02*
X0077381Y0104099D01*
X0082764Y0105317D02*
X0085233Y0105317D01*
X0085850Y0105934D01*
X0085850Y0103485D02*
X0083381Y0103485D01*
X0083381Y0104699D02*
X0083381Y0105934D01*
X0085850Y0103485D02*
X0085850Y0101633D01*
X0085233Y0101016D01*
X0083381Y0101016D01*
X0083998Y0099802D02*
X0083381Y0099185D01*
X0083381Y0097950D01*
X0083998Y0097333D01*
X0085233Y0097333D01*
X0085850Y0097950D01*
X0085850Y0099185D01*
X0085233Y0099802D01*
X0083998Y0099802D01*
X0083381Y0096115D02*
X0084616Y0094264D01*
X0085850Y0096115D01*
X0085850Y0094264D02*
X0082147Y0094264D01*
X0083381Y0092432D02*
X0083998Y0093049D01*
X0085850Y0093049D01*
X0085850Y0091198D01*
X0085233Y0090581D01*
X0084616Y0091198D01*
X0084616Y0093049D01*
X0083381Y0092432D02*
X0083381Y0091198D01*
X0083998Y0089366D02*
X0084616Y0089366D01*
X0084616Y0086898D01*
X0085233Y0086898D02*
X0083998Y0086898D01*
X0083381Y0087515D01*
X0083381Y0088749D01*
X0083998Y0089366D01*
X0085850Y0087515D02*
X0085233Y0086898D01*
X0085850Y0087515D02*
X0085850Y0088749D01*
X0083381Y0085680D02*
X0083381Y0085063D01*
X0084616Y0083828D01*
X0084616Y0082614D02*
X0085233Y0082614D01*
X0085850Y0081997D01*
X0085850Y0080145D01*
X0082147Y0080145D01*
X0082147Y0081997D01*
X0082764Y0082614D01*
X0083381Y0082614D01*
X0083998Y0081997D01*
X0083998Y0080145D01*
X0083998Y0081997D02*
X0084616Y0082614D01*
X0085850Y0083828D02*
X0083381Y0083828D01*
X0079850Y0083838D02*
X0079850Y0081987D01*
X0076147Y0081987D01*
X0076147Y0083838D01*
X0076764Y0084455D01*
X0079233Y0084455D01*
X0079850Y0083838D01*
X0092148Y0086023D02*
X0093115Y0086991D01*
X0095050Y0086991D01*
X0095050Y0088003D02*
X0093115Y0088003D01*
X0093115Y0089454D01*
X0093599Y0089937D01*
X0095050Y0089937D01*
X0094566Y0090949D02*
X0093599Y0090949D01*
X0093115Y0091433D01*
X0093115Y0092884D01*
X0092148Y0092884D02*
X0095050Y0092884D01*
X0095050Y0091433D01*
X0094566Y0090949D01*
X0094083Y0093896D02*
X0093115Y0094863D01*
X0093115Y0095347D01*
X0093599Y0096351D02*
X0093115Y0096835D01*
X0093115Y0097802D01*
X0093599Y0098286D01*
X0094083Y0098286D01*
X0094083Y0096351D01*
X0094566Y0096351D02*
X0093599Y0096351D01*
X0094566Y0096351D02*
X0095050Y0096835D01*
X0095050Y0097802D01*
X0094566Y0099297D02*
X0093115Y0099297D01*
X0094566Y0099297D02*
X0095050Y0099781D01*
X0094566Y0100265D01*
X0095050Y0100749D01*
X0094566Y0101232D01*
X0093115Y0101232D01*
X0096948Y0097088D02*
X0099850Y0097088D01*
X0099850Y0096091D02*
X0099366Y0095607D01*
X0097431Y0095607D01*
X0097915Y0095123D02*
X0097915Y0096091D01*
X0098399Y0097088D02*
X0097915Y0097571D01*
X0097915Y0098539D01*
X0098399Y0099023D01*
X0099850Y0099023D01*
X0099850Y0094126D02*
X0099850Y0093159D01*
X0099850Y0093643D02*
X0097915Y0093643D01*
X0097915Y0093159D01*
X0096948Y0093643D02*
X0096464Y0093643D01*
X0098399Y0092147D02*
X0099850Y0092147D01*
X0099850Y0091180D02*
X0098399Y0091180D01*
X0097915Y0091664D01*
X0098399Y0092147D01*
X0098399Y0091180D02*
X0097915Y0090696D01*
X0097915Y0090212D01*
X0099850Y0090212D01*
X0099366Y0089201D02*
X0099850Y0088717D01*
X0099850Y0087750D01*
X0099366Y0087266D01*
X0098399Y0087750D02*
X0098399Y0088717D01*
X0098883Y0089201D01*
X0099366Y0089201D01*
X0098399Y0087750D02*
X0097915Y0087266D01*
X0097431Y0087266D01*
X0096948Y0087750D01*
X0096948Y0088717D01*
X0097431Y0089201D01*
X0095050Y0085056D02*
X0093115Y0085056D01*
X0092148Y0086023D01*
X0093599Y0085056D02*
X0093599Y0086991D01*
X0093115Y0093896D02*
X0095050Y0093896D01*
D12*
X0104898Y0094334D02*
X0107100Y0094334D01*
X0107100Y0093600D02*
X0107100Y0095068D01*
X0106733Y0095810D02*
X0106366Y0095810D01*
X0105999Y0096177D01*
X0105999Y0096911D01*
X0106366Y0097278D01*
X0106733Y0097278D01*
X0107100Y0096911D01*
X0107100Y0096177D01*
X0106733Y0095810D01*
X0105999Y0096177D02*
X0105632Y0095810D01*
X0105265Y0095810D01*
X0104898Y0096177D01*
X0104898Y0096911D01*
X0105265Y0097278D01*
X0105632Y0097278D01*
X0105999Y0096911D01*
X0104898Y0094334D02*
X0105632Y0093600D01*
X0105265Y0092858D02*
X0104898Y0092491D01*
X0104898Y0091757D01*
X0105265Y0091390D01*
X0106733Y0091390D01*
X0105265Y0092858D01*
X0106733Y0092858D01*
X0107100Y0092491D01*
X0107100Y0091757D01*
X0106733Y0091390D01*
X0107100Y0090648D02*
X0107100Y0089180D01*
X0105632Y0090648D01*
X0105265Y0090648D01*
X0104898Y0090281D01*
X0104898Y0089547D01*
X0105265Y0089180D01*
D13*
X0069900Y0082850D03*
X0069500Y0083850D03*
X0069400Y0083850D03*
X0069300Y0083850D03*
X0069200Y0083850D03*
X0069100Y0083850D03*
X0069400Y0084250D03*
X0069500Y0084650D03*
X0069300Y0085250D03*
X0068400Y0085450D03*
X0068400Y0086450D03*
X0068500Y0086450D03*
X0069000Y0086850D03*
X0069200Y0086250D03*
X0069100Y0088750D03*
X0068900Y0090050D03*
X0068400Y0091550D03*
X0069300Y0093950D03*
X0069400Y0093950D03*
X0069400Y0095050D03*
X0068900Y0095150D03*
X0068800Y0095150D03*
X0068900Y0096050D03*
X0069600Y0095850D03*
X0069700Y0096750D03*
X0069200Y0098450D03*
X0069400Y0098950D03*
X0068500Y0098650D03*
X0068400Y0098650D03*
X0068800Y0100150D03*
X0068900Y0100150D03*
X0069400Y0100050D03*
X0067200Y0101050D03*
X0067100Y0101050D03*
X0067000Y0101150D03*
X0066900Y0101150D03*
X0066700Y0101950D03*
X0060700Y0102450D03*
X0060600Y0102450D03*
X0060500Y0102550D03*
X0061000Y0110150D03*
X0060800Y0110250D03*
X0060700Y0110250D03*
X0057500Y0110150D03*
X0054300Y0110150D03*
X0054200Y0110150D03*
X0054100Y0110250D03*
X0054000Y0110250D03*
X0068800Y0083050D03*
X0069900Y0078750D03*
D14*
X0069900Y0080800D03*
X0068400Y0082500D03*
X0068500Y0094700D03*
X0068500Y0099700D03*
X0065800Y0102700D03*
X0065700Y0102800D03*
X0064200Y0102100D03*
X0064100Y0102100D03*
X0064000Y0102200D03*
X0063900Y0102200D03*
X0063800Y0102200D03*
X0063600Y0102300D03*
X0059100Y0103100D03*
X0059000Y0103100D03*
X0055100Y0109600D03*
X0063700Y0096000D03*
X0063800Y0096000D03*
X0063900Y0096000D03*
X0064000Y0096000D03*
X0064100Y0096000D03*
X0064200Y0096000D03*
X0064300Y0096000D03*
X0064400Y0096000D03*
X0064500Y0096000D03*
X0064600Y0096000D03*
X0064700Y0096000D03*
X0064800Y0096000D03*
X0064900Y0096000D03*
D15*
X0068600Y0095050D03*
X0069700Y0094850D03*
X0069700Y0094050D03*
X0069300Y0097450D03*
X0069700Y0099050D03*
X0069700Y0099850D03*
X0069600Y0099950D03*
X0068600Y0100050D03*
X0066600Y0101250D03*
X0066400Y0101350D03*
X0066300Y0101350D03*
X0066100Y0101450D03*
X0066000Y0101450D03*
X0060200Y0102650D03*
X0060100Y0102650D03*
X0061200Y0110050D03*
X0057900Y0109950D03*
X0054500Y0110050D03*
X0068500Y0088650D03*
X0069300Y0088750D03*
X0069700Y0086050D03*
X0069700Y0085250D03*
X0068700Y0084750D03*
X0068600Y0084850D03*
X0068500Y0084850D03*
X0069800Y0083950D03*
X0069600Y0082750D03*
X0069000Y0082950D03*
X0069500Y0081850D03*
X0069700Y0081750D03*
X0069800Y0081750D03*
X0069900Y0081650D03*
X0069400Y0081350D03*
X0069100Y0081450D03*
X0068700Y0080450D03*
X0068800Y0080350D03*
X0069000Y0080250D03*
X0069500Y0080250D03*
X0069000Y0079050D03*
X0069300Y0078950D03*
D16*
X0069400Y0078900D03*
X0069500Y0078800D03*
X0069600Y0078800D03*
X0069700Y0078800D03*
X0069800Y0078800D03*
X0068900Y0079100D03*
X0068800Y0079100D03*
X0068700Y0079100D03*
X0069100Y0080200D03*
X0069200Y0080200D03*
X0069300Y0080200D03*
X0069400Y0080200D03*
X0068900Y0080300D03*
X0068800Y0081400D03*
X0068700Y0081400D03*
X0068900Y0081500D03*
X0069000Y0081500D03*
X0069200Y0081400D03*
X0069300Y0081400D03*
X0069600Y0081800D03*
X0069400Y0081900D03*
X0069000Y0082000D03*
X0068900Y0082000D03*
X0068800Y0082000D03*
X0068700Y0082100D03*
X0069400Y0082600D03*
X0069500Y0082700D03*
X0069700Y0082800D03*
X0069800Y0082800D03*
X0069800Y0083300D03*
X0069700Y0083300D03*
X0069600Y0083400D03*
X0069500Y0083400D03*
X0069400Y0083400D03*
X0069300Y0083400D03*
X0069200Y0083500D03*
X0069100Y0083500D03*
X0068900Y0083000D03*
X0068700Y0083100D03*
X0068500Y0083700D03*
X0068400Y0083700D03*
X0069300Y0084300D03*
X0069500Y0084200D03*
X0069600Y0084600D03*
X0069700Y0084600D03*
X0069800Y0084600D03*
X0069900Y0084500D03*
X0069400Y0084700D03*
X0069300Y0084700D03*
X0069400Y0085200D03*
X0069500Y0085200D03*
X0069600Y0085200D03*
X0069200Y0085300D03*
X0069100Y0085300D03*
X0069000Y0085300D03*
X0068900Y0085400D03*
X0068800Y0085400D03*
X0068700Y0085400D03*
X0068600Y0085400D03*
X0068500Y0085500D03*
X0068400Y0084900D03*
X0068900Y0086300D03*
X0069000Y0086300D03*
X0069100Y0086300D03*
X0069300Y0086200D03*
X0069400Y0086200D03*
X0069500Y0086200D03*
X0069600Y0086100D03*
X0069600Y0086700D03*
X0069700Y0086700D03*
X0069500Y0086700D03*
X0069400Y0086700D03*
X0069300Y0086800D03*
X0069200Y0086800D03*
X0069100Y0086800D03*
X0068900Y0086900D03*
X0068800Y0086900D03*
X0068700Y0086900D03*
X0068600Y0087000D03*
X0068500Y0087000D03*
X0068400Y0087000D03*
X0068600Y0086400D03*
X0068700Y0086400D03*
X0068800Y0086400D03*
X0069700Y0087800D03*
X0069600Y0087900D03*
X0069300Y0088100D03*
X0069200Y0088100D03*
X0069100Y0088200D03*
X0069000Y0088300D03*
X0068900Y0088300D03*
X0068900Y0088700D03*
X0069000Y0088700D03*
X0069200Y0088800D03*
X0069600Y0088800D03*
X0069700Y0088800D03*
X0069800Y0088800D03*
X0069900Y0088800D03*
X0069700Y0089800D03*
X0069600Y0089800D03*
X0069500Y0089900D03*
X0069400Y0089900D03*
X0069300Y0089900D03*
X0069000Y0090000D03*
X0068800Y0090100D03*
X0068700Y0090100D03*
X0069000Y0091400D03*
X0069100Y0091400D03*
X0069200Y0091400D03*
X0069300Y0091400D03*
X0069400Y0091300D03*
X0069500Y0091300D03*
X0069600Y0091300D03*
X0069700Y0091200D03*
X0068900Y0091500D03*
X0068800Y0091500D03*
X0068700Y0091500D03*
X0068600Y0091500D03*
X0068500Y0091600D03*
X0068700Y0092700D03*
X0068800Y0092700D03*
X0068900Y0092700D03*
X0069000Y0092700D03*
X0069300Y0092600D03*
X0069400Y0092500D03*
X0069500Y0092500D03*
X0069600Y0092500D03*
X0069700Y0092400D03*
X0069600Y0094000D03*
X0069500Y0094000D03*
X0069200Y0094000D03*
X0069100Y0094000D03*
X0069000Y0094000D03*
X0068900Y0094100D03*
X0068800Y0094100D03*
X0068700Y0094200D03*
X0068700Y0095100D03*
X0069500Y0095000D03*
X0069600Y0094900D03*
X0069700Y0095800D03*
X0069800Y0095800D03*
X0069900Y0095800D03*
X0069500Y0095900D03*
X0069400Y0095900D03*
X0069300Y0095900D03*
X0069200Y0096000D03*
X0069100Y0096000D03*
X0069000Y0096000D03*
X0068800Y0096100D03*
X0068700Y0096100D03*
X0069000Y0096900D03*
X0068900Y0097000D03*
X0068800Y0097000D03*
X0068700Y0097000D03*
X0069300Y0096900D03*
X0069400Y0096800D03*
X0069500Y0096800D03*
X0069600Y0096800D03*
X0069800Y0096700D03*
X0069900Y0096700D03*
X0069500Y0097600D03*
X0069400Y0097600D03*
X0069600Y0097700D03*
X0069700Y0097700D03*
X0069800Y0097800D03*
X0069900Y0097800D03*
X0069900Y0098300D03*
X0069800Y0098300D03*
X0069700Y0098300D03*
X0069600Y0098300D03*
X0069500Y0098400D03*
X0069400Y0098400D03*
X0069300Y0098400D03*
X0069100Y0098500D03*
X0069000Y0098500D03*
X0068900Y0098500D03*
X0068800Y0098600D03*
X0068700Y0098600D03*
X0068600Y0098600D03*
X0068800Y0099100D03*
X0068900Y0099100D03*
X0069000Y0099000D03*
X0069100Y0099000D03*
X0069200Y0099000D03*
X0069300Y0099000D03*
X0069500Y0099000D03*
X0069600Y0099000D03*
X0068700Y0099200D03*
X0068700Y0100100D03*
X0069500Y0100000D03*
X0068900Y0098000D03*
X0068800Y0098000D03*
X0068700Y0098000D03*
X0069000Y0097900D03*
X0066800Y0101200D03*
X0066700Y0101200D03*
X0066500Y0101300D03*
X0066200Y0101400D03*
X0066600Y0102000D03*
X0066500Y0102100D03*
X0066400Y0102200D03*
X0060400Y0102600D03*
X0060300Y0102600D03*
X0057800Y0110000D03*
X0057700Y0110100D03*
X0057600Y0110100D03*
X0060900Y0110200D03*
X0061100Y0110100D03*
X0054400Y0110100D03*
X0068400Y0088600D03*
X0069900Y0083900D03*
X0069900Y0083300D03*
D17*
X0069900Y0085600D03*
X0069900Y0094400D03*
X0068400Y0094700D03*
X0065100Y0101800D03*
X0065000Y0101800D03*
X0064900Y0101800D03*
X0064800Y0101900D03*
X0064700Y0101900D03*
X0066000Y0102500D03*
X0061700Y0109700D03*
X0061600Y0109800D03*
X0058200Y0109700D03*
X0055000Y0109700D03*
X0059300Y0103000D03*
X0059400Y0102900D03*
X0059500Y0102900D03*
D18*
X0058400Y0103450D03*
X0062200Y0109150D03*
X0065200Y0103250D03*
X0062500Y0102750D03*
X0069900Y0087150D03*
X0069700Y0080750D03*
D19*
X0069200Y0082350D03*
X0069100Y0082450D03*
X0068600Y0082550D03*
X0068500Y0082550D03*
X0069500Y0088350D03*
X0069800Y0090250D03*
X0069900Y0090250D03*
X0068600Y0090550D03*
X0069100Y0093050D03*
X0069200Y0093050D03*
X0068500Y0093250D03*
X0068400Y0093250D03*
X0068400Y0096150D03*
X0068600Y0096150D03*
X0065400Y0103050D03*
X0062900Y0102550D03*
X0058700Y0103250D03*
X0058600Y0109250D03*
X0055300Y0109350D03*
D20*
X0058500Y0109400D03*
X0062000Y0109400D03*
X0058800Y0103200D03*
X0063000Y0102500D03*
X0063100Y0102500D03*
X0063200Y0102400D03*
X0063300Y0102400D03*
X0065500Y0103000D03*
X0068500Y0097500D03*
X0069200Y0097300D03*
X0068600Y0093200D03*
X0069800Y0091600D03*
X0069900Y0091600D03*
X0069200Y0090400D03*
X0069100Y0090400D03*
X0068500Y0090600D03*
X0068400Y0090600D03*
X0069400Y0088400D03*
X0069800Y0080800D03*
X0069200Y0079400D03*
X0069100Y0079400D03*
X0068600Y0079500D03*
X0068500Y0079500D03*
D21*
X0069800Y0092900D03*
X0069900Y0092900D03*
X0068500Y0096100D03*
X0068600Y0097500D03*
X0069100Y0097400D03*
X0065300Y0103200D03*
X0062800Y0102600D03*
X0062700Y0102700D03*
X0062600Y0102700D03*
X0058600Y0103300D03*
X0058500Y0103400D03*
X0058700Y0109100D03*
X0062100Y0109300D03*
X0055400Y0109200D03*
D22*
X0058300Y0109550D03*
X0061800Y0109650D03*
X0059200Y0103050D03*
X0064300Y0102050D03*
X0064400Y0102050D03*
X0064500Y0101950D03*
X0064600Y0101950D03*
X0065900Y0102650D03*
X0069900Y0099450D03*
D23*
X0069800Y0099450D03*
X0068400Y0097450D03*
X0069800Y0094450D03*
X0069800Y0085650D03*
X0069300Y0082250D03*
X0068500Y0080950D03*
X0068400Y0079550D03*
X0063700Y0102250D03*
X0063500Y0102350D03*
X0063400Y0102350D03*
X0065600Y0102850D03*
X0061900Y0109550D03*
X0058400Y0109450D03*
X0055200Y0109450D03*
X0058900Y0103150D03*
D24*
X0062300Y0102900D03*
X0062400Y0102800D03*
X0065100Y0103400D03*
X0058800Y0109000D03*
X0055500Y0109100D03*
X0069800Y0087200D03*
D25*
X0068700Y0088600D03*
X0068600Y0088600D03*
X0068800Y0084700D03*
X0068900Y0084700D03*
X0069600Y0084000D03*
X0069700Y0084000D03*
X0068900Y0083700D03*
X0068800Y0083700D03*
X0068700Y0083700D03*
X0068600Y0083700D03*
X0068600Y0081300D03*
X0068600Y0080600D03*
X0069600Y0080300D03*
X0069500Y0081300D03*
X0068600Y0094400D03*
X0068600Y0099400D03*
X0065900Y0101500D03*
X0065800Y0101500D03*
X0065700Y0101600D03*
X0065600Y0101600D03*
X0065500Y0101600D03*
X0066300Y0102300D03*
X0061400Y0109900D03*
X0061300Y0110000D03*
X0058000Y0109900D03*
X0054700Y0109900D03*
X0054600Y0110000D03*
X0059700Y0102800D03*
X0059800Y0102800D03*
X0059900Y0102700D03*
X0060000Y0102700D03*
D26*
X0059600Y0102850D03*
X0058100Y0109750D03*
X0054900Y0109750D03*
X0054800Y0109850D03*
X0061500Y0109850D03*
X0066100Y0102450D03*
X0066200Y0102350D03*
X0065400Y0101650D03*
X0065300Y0101750D03*
X0065200Y0101750D03*
X0068400Y0099750D03*
X0068800Y0088550D03*
X0069000Y0084650D03*
X0069100Y0084550D03*
X0069200Y0084550D03*
X0069000Y0083650D03*
X0069600Y0081250D03*
X0068400Y0080950D03*
D27*
X0067800Y0079900D03*
X0067700Y0079900D03*
X0067600Y0079900D03*
X0067500Y0079900D03*
X0067300Y0080000D03*
X0067200Y0080000D03*
X0067100Y0080000D03*
X0067000Y0080000D03*
X0066900Y0080100D03*
X0066800Y0080100D03*
X0066700Y0080100D03*
X0066600Y0080100D03*
X0066500Y0080100D03*
X0066400Y0080200D03*
X0066300Y0080200D03*
X0066200Y0080200D03*
X0066100Y0080200D03*
X0066000Y0080300D03*
X0065900Y0080300D03*
X0065800Y0080300D03*
X0065700Y0080300D03*
X0065600Y0080300D03*
X0065500Y0080400D03*
X0065400Y0080400D03*
X0065300Y0080400D03*
X0065200Y0080400D03*
X0065000Y0080500D03*
X0064900Y0080500D03*
X0064800Y0080500D03*
X0064700Y0080500D03*
X0064500Y0080600D03*
X0064400Y0080600D03*
X0064300Y0080600D03*
X0064200Y0080600D03*
X0064000Y0080700D03*
X0063900Y0080700D03*
X0063800Y0080700D03*
X0063700Y0080700D03*
X0063500Y0080800D03*
X0063400Y0080800D03*
X0063300Y0080800D03*
X0063200Y0080800D03*
X0063100Y0080900D03*
X0063000Y0080900D03*
X0062900Y0080900D03*
X0062800Y0080900D03*
X0062600Y0081000D03*
X0062500Y0081000D03*
X0062400Y0081000D03*
X0062300Y0081000D03*
X0062100Y0081100D03*
X0062000Y0081100D03*
X0061900Y0081100D03*
X0061800Y0081100D03*
X0061700Y0081200D03*
X0061600Y0081200D03*
X0061500Y0081200D03*
X0061400Y0081200D03*
X0061000Y0081300D03*
X0061500Y0083500D03*
X0061600Y0083500D03*
X0061700Y0083500D03*
X0061900Y0083400D03*
X0062000Y0083400D03*
X0061300Y0083600D03*
X0061200Y0083600D03*
X0061100Y0083600D03*
X0061000Y0083600D03*
X0060900Y0083700D03*
X0060800Y0083700D03*
X0063300Y0083100D03*
X0063800Y0083000D03*
X0063900Y0083000D03*
X0064300Y0082900D03*
X0064400Y0082900D03*
X0064500Y0082900D03*
X0064800Y0082800D03*
X0065300Y0082700D03*
X0065400Y0082700D03*
X0065800Y0082600D03*
X0066300Y0082500D03*
X0066300Y0087000D03*
X0065900Y0087100D03*
X0065400Y0087200D03*
X0065000Y0087300D03*
X0064900Y0087300D03*
X0064700Y0087400D03*
X0064600Y0087400D03*
X0064500Y0087400D03*
X0064300Y0087500D03*
X0064200Y0087500D03*
X0064100Y0087500D03*
X0064000Y0087500D03*
X0063800Y0087600D03*
X0063700Y0087600D03*
X0063600Y0087600D03*
X0063500Y0087600D03*
X0063400Y0087700D03*
X0063300Y0087700D03*
X0063200Y0087700D03*
X0063100Y0087700D03*
X0062900Y0087800D03*
X0062800Y0087800D03*
X0062500Y0087900D03*
X0062400Y0087900D03*
X0062300Y0087900D03*
X0062200Y0087900D03*
X0062100Y0087900D03*
X0061900Y0088000D03*
X0061800Y0088000D03*
X0061700Y0088000D03*
X0061600Y0088100D03*
X0061500Y0088100D03*
X0061400Y0088100D03*
X0061300Y0088100D03*
X0061200Y0088100D03*
X0061100Y0088200D03*
X0061000Y0088200D03*
X0060900Y0088200D03*
X0060800Y0088200D03*
X0061400Y0092600D03*
X0061500Y0092600D03*
X0061600Y0092600D03*
X0061700Y0092600D03*
X0062000Y0092500D03*
X0062100Y0092500D03*
X0062200Y0092500D03*
X0062300Y0092400D03*
X0062400Y0092400D03*
X0062500Y0092400D03*
X0062600Y0092400D03*
X0062900Y0092300D03*
X0063000Y0092300D03*
X0063100Y0092300D03*
X0063200Y0092300D03*
X0063300Y0092300D03*
X0063400Y0092200D03*
X0063500Y0092200D03*
X0063600Y0092200D03*
X0063700Y0092200D03*
X0064000Y0092100D03*
X0064100Y0092100D03*
X0064200Y0092100D03*
X0064400Y0092000D03*
X0064500Y0092000D03*
X0064600Y0092000D03*
X0064700Y0092000D03*
X0065000Y0091900D03*
X0065100Y0091900D03*
X0065300Y0091800D03*
X0065400Y0091800D03*
X0065700Y0091700D03*
X0065800Y0091700D03*
X0065900Y0091700D03*
X0066200Y0091600D03*
X0066300Y0091600D03*
X0066400Y0091600D03*
X0066600Y0091500D03*
X0066700Y0091500D03*
X0066800Y0091500D03*
X0066900Y0091500D03*
X0067100Y0091400D03*
X0067200Y0091400D03*
X0067300Y0091400D03*
X0067700Y0091300D03*
X0067800Y0091300D03*
X0067000Y0093800D03*
X0067700Y0099300D03*
X0067800Y0099300D03*
X0067500Y0099400D03*
X0067400Y0099400D03*
X0067300Y0099400D03*
X0067200Y0099400D03*
X0067000Y0099500D03*
X0066900Y0099500D03*
X0066800Y0099500D03*
X0066700Y0099500D03*
X0066600Y0099600D03*
X0066500Y0099600D03*
X0066400Y0099600D03*
X0066300Y0099600D03*
X0066200Y0099700D03*
X0066100Y0099700D03*
X0066000Y0099700D03*
X0065900Y0099700D03*
X0065800Y0099700D03*
X0065700Y0099800D03*
X0065600Y0099800D03*
X0065500Y0099800D03*
X0065300Y0099900D03*
X0065200Y0099900D03*
X0065100Y0099900D03*
X0065000Y0099900D03*
X0064900Y0099900D03*
X0064700Y0100000D03*
X0064600Y0100000D03*
X0064500Y0100000D03*
X0064400Y0100000D03*
X0064300Y0100100D03*
X0064200Y0100100D03*
X0064100Y0100100D03*
X0064000Y0100100D03*
X0063900Y0100100D03*
X0063800Y0100200D03*
X0063700Y0100200D03*
X0063600Y0100200D03*
X0063500Y0100200D03*
X0063300Y0100300D03*
X0063200Y0100300D03*
X0063100Y0100300D03*
X0062900Y0100400D03*
X0062800Y0100400D03*
X0062700Y0100400D03*
X0062600Y0100400D03*
X0062500Y0100500D03*
X0062400Y0100500D03*
X0062300Y0100500D03*
X0062200Y0100500D03*
X0062100Y0100500D03*
X0062000Y0100600D03*
X0061900Y0100600D03*
X0061800Y0100600D03*
X0061700Y0100600D03*
X0061600Y0100600D03*
X0061500Y0100700D03*
X0061400Y0100700D03*
X0061300Y0100700D03*
X0061200Y0100700D03*
X0061100Y0100800D03*
X0061000Y0100800D03*
X0060900Y0100800D03*
X0060800Y0100800D03*
X0060800Y0098400D03*
X0063200Y0097900D03*
X0061300Y0092700D03*
X0061200Y0092700D03*
X0061100Y0092700D03*
X0061700Y0103300D03*
X0064900Y0103700D03*
X0062400Y0108800D03*
X0059000Y0108600D03*
X0058100Y0103800D03*
D28*
X0063200Y0106950D03*
X0064000Y0105550D03*
X0066400Y0088150D03*
X0066500Y0088150D03*
X0066600Y0088150D03*
X0066700Y0088150D03*
X0066900Y0088050D03*
X0067000Y0088050D03*
X0067100Y0088050D03*
X0067300Y0087950D03*
X0067400Y0087950D03*
X0067500Y0087950D03*
X0067600Y0087950D03*
X0067800Y0087850D03*
X0067000Y0083550D03*
X0066900Y0083550D03*
X0066800Y0083550D03*
X0066700Y0083550D03*
X0066600Y0083550D03*
X0067100Y0083450D03*
X0067200Y0083450D03*
X0067300Y0083450D03*
X0067400Y0083450D03*
X0067600Y0083350D03*
X0067700Y0083350D03*
X0067800Y0083350D03*
D29*
X0066200Y0082550D03*
X0066100Y0082550D03*
X0066000Y0082550D03*
X0065900Y0082550D03*
X0065700Y0082650D03*
X0065600Y0082650D03*
X0065500Y0082650D03*
X0065200Y0082750D03*
X0065100Y0082750D03*
X0065000Y0082750D03*
X0064900Y0082750D03*
X0064700Y0082850D03*
X0064600Y0082850D03*
X0064200Y0082950D03*
X0064100Y0082950D03*
X0064000Y0082950D03*
X0063700Y0083050D03*
X0063600Y0083050D03*
X0063500Y0083050D03*
X0063400Y0083050D03*
X0063200Y0083150D03*
X0063100Y0083150D03*
X0063000Y0083150D03*
X0062900Y0083150D03*
X0062800Y0083250D03*
X0062700Y0083250D03*
X0062600Y0083250D03*
X0062500Y0083250D03*
X0062400Y0083250D03*
X0062300Y0083350D03*
X0062200Y0083350D03*
X0062100Y0083350D03*
X0061800Y0083450D03*
X0061300Y0081250D03*
X0061200Y0081250D03*
X0061100Y0081250D03*
X0060900Y0081350D03*
X0060800Y0081350D03*
X0063600Y0080750D03*
X0065100Y0080450D03*
X0066000Y0087050D03*
X0066100Y0087050D03*
X0066200Y0087050D03*
X0065800Y0087150D03*
X0065700Y0087150D03*
X0065600Y0087150D03*
X0065500Y0087150D03*
X0065300Y0087250D03*
X0065200Y0087250D03*
X0065100Y0087250D03*
X0064800Y0087350D03*
X0064400Y0087450D03*
X0063000Y0087750D03*
X0062700Y0087850D03*
X0062600Y0087850D03*
X0063800Y0092150D03*
X0063900Y0092150D03*
X0064800Y0091950D03*
X0064900Y0091950D03*
X0065600Y0094050D03*
X0065700Y0094050D03*
X0065800Y0094050D03*
X0065900Y0094050D03*
X0066000Y0094050D03*
X0066100Y0093950D03*
X0066200Y0093950D03*
X0066300Y0093950D03*
X0066400Y0093950D03*
X0066500Y0093850D03*
X0066600Y0093850D03*
X0066700Y0093850D03*
X0066800Y0093850D03*
X0066900Y0093850D03*
X0067100Y0093750D03*
X0067200Y0093750D03*
X0067300Y0093750D03*
X0067400Y0093750D03*
X0067500Y0093650D03*
X0067600Y0093650D03*
X0067700Y0093650D03*
X0067800Y0093650D03*
X0065500Y0094150D03*
X0065400Y0094150D03*
X0065300Y0094150D03*
X0065200Y0094150D03*
X0065000Y0094250D03*
X0064900Y0094250D03*
X0064800Y0094250D03*
X0064700Y0094250D03*
X0064600Y0094350D03*
X0064500Y0094350D03*
X0064400Y0094350D03*
X0064300Y0094350D03*
X0064100Y0094450D03*
X0064000Y0094450D03*
X0063900Y0094450D03*
X0064300Y0097650D03*
X0064400Y0097650D03*
X0064500Y0097650D03*
X0064600Y0097650D03*
X0064800Y0097550D03*
X0064900Y0097550D03*
X0064100Y0097750D03*
X0064000Y0097750D03*
X0063900Y0097750D03*
X0063800Y0097750D03*
X0063700Y0097850D03*
X0063600Y0097850D03*
X0063500Y0097850D03*
X0063400Y0097850D03*
X0063300Y0097850D03*
X0063100Y0097950D03*
X0063000Y0097950D03*
X0062900Y0097950D03*
X0062800Y0098050D03*
X0062700Y0098050D03*
X0062600Y0098050D03*
X0062500Y0098050D03*
X0062300Y0098150D03*
X0062200Y0098150D03*
X0062100Y0098150D03*
X0062000Y0098150D03*
X0061800Y0098250D03*
X0061700Y0098250D03*
X0061600Y0098250D03*
X0061500Y0098250D03*
X0061400Y0098250D03*
X0061300Y0098350D03*
X0061200Y0098350D03*
X0061100Y0098350D03*
X0061000Y0098350D03*
X0060900Y0098350D03*
X0061900Y0103150D03*
X0061800Y0103250D03*
X0058200Y0103650D03*
X0055600Y0108850D03*
X0064800Y0099950D03*
X0065400Y0099850D03*
X0061000Y0092750D03*
X0060900Y0092750D03*
X0060800Y0092750D03*
D30*
X0067800Y0096800D03*
X0064800Y0103900D03*
X0061500Y0103500D03*
X0058000Y0103900D03*
X0055700Y0108700D03*
D31*
X0056500Y0106800D03*
X0057300Y0105300D03*
X0059900Y0106600D03*
X0060600Y0105300D03*
X0066800Y0088100D03*
X0067200Y0088000D03*
X0067700Y0087900D03*
D32*
X0067700Y0096750D03*
X0067600Y0096750D03*
X0067500Y0096750D03*
X0061100Y0095250D03*
X0061000Y0095250D03*
X0060900Y0095250D03*
X0060800Y0095250D03*
X0061400Y0103650D03*
X0062500Y0108550D03*
D33*
X0061600Y0103450D03*
X0063000Y0100350D03*
X0063400Y0100250D03*
X0067100Y0099450D03*
X0067600Y0099350D03*
X0066100Y0091650D03*
X0066000Y0091650D03*
X0065600Y0091750D03*
X0065500Y0091750D03*
X0065200Y0091850D03*
X0064300Y0092050D03*
X0062800Y0092350D03*
X0062700Y0092350D03*
X0061900Y0092550D03*
X0061800Y0092550D03*
X0062000Y0087950D03*
X0063900Y0087550D03*
X0061400Y0083550D03*
X0062200Y0081050D03*
X0062700Y0080950D03*
X0064100Y0080650D03*
X0064600Y0080550D03*
X0067400Y0079950D03*
X0067400Y0091350D03*
X0067500Y0091350D03*
X0067600Y0091350D03*
X0067000Y0091450D03*
X0066500Y0091550D03*
D34*
X0066500Y0083600D03*
X0066400Y0083600D03*
X0067500Y0083400D03*
X0060700Y0105100D03*
X0059800Y0106800D03*
X0057400Y0105100D03*
X0056400Y0107000D03*
D35*
X0055800Y0108500D03*
X0059100Y0108400D03*
X0067100Y0096800D03*
X0067200Y0096800D03*
X0067300Y0096800D03*
X0067400Y0096800D03*
X0061200Y0095300D03*
D36*
X0060800Y0102400D03*
X0057400Y0110200D03*
X0067300Y0101000D03*
X0067400Y0101000D03*
D37*
X0064700Y0104050D03*
X0066500Y0096850D03*
X0066600Y0096850D03*
X0066700Y0096850D03*
X0066800Y0096850D03*
X0066900Y0096850D03*
X0067000Y0096850D03*
X0061700Y0095250D03*
X0061600Y0095250D03*
X0061500Y0095250D03*
X0061400Y0095250D03*
X0061300Y0095250D03*
X0057900Y0104050D03*
D38*
X0059200Y0108200D03*
X0061300Y0103800D03*
X0062600Y0108400D03*
X0066200Y0096900D03*
X0066300Y0096900D03*
X0066400Y0096900D03*
X0062300Y0095200D03*
X0062200Y0095200D03*
X0062100Y0095200D03*
X0062000Y0095200D03*
X0061900Y0095200D03*
X0061800Y0095200D03*
D39*
X0062400Y0095150D03*
X0062500Y0095150D03*
X0062600Y0095150D03*
X0062700Y0095150D03*
X0062800Y0095150D03*
X0065700Y0096950D03*
X0065800Y0096950D03*
X0065900Y0096950D03*
X0066000Y0096950D03*
X0066100Y0096950D03*
X0055900Y0108250D03*
D40*
X0061200Y0104000D03*
X0064600Y0104300D03*
X0065200Y0097000D03*
X0065300Y0097000D03*
X0065400Y0097000D03*
X0065500Y0097000D03*
X0065600Y0097000D03*
X0063300Y0095100D03*
X0063200Y0095100D03*
X0063100Y0095100D03*
X0063000Y0095100D03*
X0062900Y0095100D03*
D41*
X0063700Y0094500D03*
X0063800Y0094500D03*
X0064200Y0094400D03*
X0065100Y0094200D03*
X0064700Y0097600D03*
X0064200Y0097700D03*
X0062400Y0098100D03*
X0061900Y0098200D03*
X0062100Y0103000D03*
X0062000Y0103100D03*
X0065000Y0103500D03*
X0062300Y0109000D03*
X0058900Y0108800D03*
D42*
X0059300Y0107950D03*
X0057800Y0104250D03*
X0056000Y0108050D03*
X0063400Y0095050D03*
X0063500Y0095050D03*
X0063600Y0095050D03*
X0065100Y0097050D03*
D43*
X0065000Y0097000D03*
X0062700Y0108100D03*
D44*
X0064500Y0104500D03*
X0059400Y0107700D03*
X0057700Y0104500D03*
D45*
X0059500Y0107450D03*
X0061000Y0104450D03*
X0064400Y0104750D03*
D46*
X0064300Y0104950D03*
X0059600Y0107250D03*
D47*
X0056300Y0107250D03*
X0064200Y0105150D03*
D48*
X0064100Y0105350D03*
X0063100Y0107150D03*
D49*
X0063300Y0106750D03*
X0063900Y0105750D03*
X0060000Y0106350D03*
D50*
X0060100Y0106200D03*
X0060200Y0106000D03*
X0060400Y0105700D03*
X0060500Y0105500D03*
X0057200Y0105500D03*
X0063800Y0105900D03*
D51*
X0063700Y0106050D03*
X0063500Y0106350D03*
X0063400Y0106550D03*
X0060300Y0105850D03*
X0057100Y0105650D03*
X0057000Y0105850D03*
X0056700Y0106350D03*
X0056600Y0106550D03*
D52*
X0056800Y0106200D03*
X0056900Y0106000D03*
X0063600Y0106200D03*
D53*
X0063000Y0107400D03*
X0060900Y0104700D03*
X0057500Y0104900D03*
D54*
X0057600Y0104700D03*
X0056200Y0107600D03*
X0062900Y0107600D03*
D55*
X0062800Y0107850D03*
D56*
X0062200Y0102950D03*
X0058300Y0103550D03*
D57*
X0061100Y0104250D03*
D58*
X0060800Y0104900D03*
X0059700Y0107000D03*
D59*
X0056100Y0107800D03*
D60*
X0054200Y0113200D02*
X0051700Y0115700D01*
X0051700Y0120700D01*
X0054200Y0123200D01*
X0069200Y0123200D01*
X0071700Y0125700D01*
X0071700Y0130700D01*
X0069200Y0133200D01*
X0054200Y0133200D01*
X0051700Y0135700D01*
X0051700Y0140700D01*
X0054200Y0143200D01*
X0069200Y0143200D01*
X0071700Y0145700D01*
X0071700Y0150700D01*
X0069200Y0153200D01*
X0071700Y0155700D01*
X0071700Y0160700D01*
X0069200Y0163200D01*
X0054200Y0163200D01*
X0051700Y0160700D01*
X0051700Y0155700D01*
X0054200Y0153200D01*
X0069200Y0153200D01*
X0069200Y0143200D02*
X0071700Y0140700D01*
X0071700Y0135700D01*
X0069200Y0133200D01*
X0069200Y0123200D02*
X0071700Y0120700D01*
X0071700Y0115700D01*
X0069200Y0113200D01*
X0054200Y0113200D01*
X0054200Y0123200D02*
X0051700Y0125700D01*
X0051700Y0130700D01*
X0054200Y0133200D01*
X0054200Y0143200D02*
X0051700Y0145700D01*
X0051700Y0150700D01*
X0054200Y0153200D01*
X0084400Y0149600D02*
X0084400Y0144600D01*
X0086900Y0142100D01*
X0101900Y0142100D01*
X0104400Y0144600D01*
X0104400Y0149600D01*
X0101900Y0152100D01*
X0086900Y0152100D01*
X0084400Y0149600D01*
X0086900Y0142100D02*
X0084400Y0139600D01*
X0084400Y0134600D01*
X0086900Y0132100D01*
X0101900Y0132100D01*
X0104400Y0134600D01*
X0104400Y0139600D01*
X0101900Y0142100D01*
X0101900Y0132100D02*
X0104400Y0129600D01*
X0104400Y0124600D01*
X0101900Y0122100D01*
X0086900Y0122100D01*
X0084400Y0124600D01*
X0084400Y0129600D01*
X0086900Y0132100D01*
X0086900Y0122100D02*
X0084400Y0119600D01*
X0084400Y0114600D01*
X0086900Y0112100D01*
X0101900Y0112100D01*
X0104400Y0114600D01*
X0104400Y0119600D01*
X0101900Y0122100D01*
X0102100Y0073200D02*
X0087100Y0073200D01*
X0084600Y0070700D01*
X0084600Y0065700D01*
X0087100Y0063200D01*
X0102100Y0063200D01*
X0104600Y0065700D01*
X0104600Y0070700D01*
X0102100Y0073200D01*
X0102100Y0063200D02*
X0104600Y0060700D01*
X0104600Y0055700D01*
X0102100Y0053200D01*
X0087100Y0053200D01*
X0084600Y0055700D01*
X0084600Y0060700D01*
X0087100Y0063200D01*
X0087100Y0053200D02*
X0084600Y0050700D01*
X0084600Y0045700D01*
X0087100Y0043200D01*
X0102100Y0043200D01*
X0104600Y0045700D01*
X0104600Y0050700D01*
X0102100Y0053200D01*
X0102100Y0043200D02*
X0104600Y0040700D01*
X0104600Y0035700D01*
X0102100Y0033200D01*
X0087100Y0033200D01*
X0084600Y0035700D01*
X0084600Y0040700D01*
X0087100Y0043200D01*
X0072400Y0040900D02*
X0072400Y0035900D01*
X0069900Y0033400D01*
X0054900Y0033400D01*
X0052400Y0035900D01*
X0052400Y0040900D01*
X0054900Y0043400D01*
X0069900Y0043400D01*
X0072400Y0045900D01*
X0072400Y0050900D01*
X0069900Y0053400D01*
X0054900Y0053400D01*
X0052400Y0055900D01*
X0052400Y0060900D01*
X0054900Y0063400D01*
X0052400Y0065900D01*
X0052400Y0070900D01*
X0054900Y0073400D01*
X0069900Y0073400D01*
X0072400Y0070900D01*
X0072400Y0065900D01*
X0069900Y0063400D01*
X0054900Y0063400D01*
X0054900Y0053400D02*
X0052400Y0050900D01*
X0052400Y0045900D01*
X0054900Y0043400D01*
X0054900Y0031100D02*
X0069900Y0031100D01*
X0072400Y0028600D01*
X0072400Y0023600D01*
X0069900Y0021100D01*
X0054900Y0021100D01*
X0052400Y0023600D01*
X0052400Y0028600D01*
X0054900Y0031100D01*
X0054900Y0021100D02*
X0052400Y0018600D01*
X0052400Y0013600D01*
X0054900Y0011100D01*
X0069900Y0011100D01*
X0072400Y0013600D01*
X0072400Y0018600D01*
X0069900Y0021100D01*
X0072400Y0040900D02*
X0069900Y0043400D01*
X0069900Y0053400D02*
X0072400Y0055900D01*
X0072400Y0060900D01*
X0069900Y0063400D01*
D61*
X0077346Y0054868D02*
X0081850Y0054868D01*
X0077346Y0051866D01*
X0081850Y0051866D01*
X0081850Y0050264D02*
X0081850Y0047262D01*
X0077346Y0047262D01*
X0077346Y0050264D01*
X0079598Y0048763D02*
X0079598Y0047262D01*
X0077346Y0045660D02*
X0077346Y0042658D01*
X0081850Y0042658D01*
X0081850Y0045660D01*
X0079598Y0044159D02*
X0079598Y0042658D01*
X0079598Y0041056D02*
X0078097Y0041056D01*
X0077346Y0040306D01*
X0077346Y0038054D01*
X0081850Y0038054D01*
X0081099Y0036453D02*
X0079598Y0036453D01*
X0079598Y0034951D01*
X0078097Y0033450D02*
X0081099Y0033450D01*
X0081850Y0034201D01*
X0081850Y0035702D01*
X0081099Y0036453D01*
X0080349Y0038054D02*
X0080349Y0040306D01*
X0079598Y0041056D01*
X0080349Y0039555D02*
X0081850Y0041056D01*
X0078097Y0036453D02*
X0077346Y0035702D01*
X0077346Y0034201D01*
X0078097Y0033450D01*
X0049650Y0033650D02*
X0045146Y0033650D01*
X0045146Y0035902D01*
X0045897Y0036653D01*
X0047398Y0036653D01*
X0048149Y0035902D01*
X0048149Y0033650D01*
X0048149Y0035151D02*
X0049650Y0036653D01*
X0049650Y0038254D02*
X0049650Y0041256D01*
X0049650Y0042858D02*
X0049650Y0045110D01*
X0048899Y0045860D01*
X0045897Y0045860D01*
X0045146Y0045110D01*
X0045146Y0042858D01*
X0049650Y0042858D01*
X0047398Y0039755D02*
X0047398Y0038254D01*
X0045146Y0038254D02*
X0045146Y0041256D01*
X0045146Y0038254D02*
X0049650Y0038254D01*
X0049650Y0023560D02*
X0048149Y0022059D01*
X0048149Y0022810D02*
X0047398Y0023560D01*
X0045897Y0023560D01*
X0045146Y0022810D01*
X0045146Y0020558D01*
X0049650Y0020558D01*
X0048149Y0020558D02*
X0048149Y0022810D01*
X0049650Y0018956D02*
X0045146Y0018956D01*
X0045146Y0015954D02*
X0049650Y0015954D01*
X0048149Y0017455D01*
X0049650Y0018956D01*
X0047398Y0014353D02*
X0045897Y0014353D01*
X0045146Y0013602D01*
X0045146Y0011350D01*
X0049650Y0011350D01*
X0048149Y0011350D02*
X0048149Y0013602D01*
X0047398Y0014353D01*
X0048199Y0113450D02*
X0045197Y0113450D01*
X0044446Y0114201D01*
X0044446Y0115702D01*
X0045197Y0116453D01*
X0044446Y0118054D02*
X0044446Y0121056D01*
X0044446Y0119555D02*
X0048950Y0119555D01*
X0048950Y0122658D02*
X0044446Y0122658D01*
X0044446Y0124910D01*
X0045197Y0125660D01*
X0046698Y0125660D01*
X0047449Y0124910D01*
X0047449Y0122658D01*
X0047449Y0124159D02*
X0048950Y0125660D01*
X0048950Y0127262D02*
X0048950Y0130264D01*
X0048950Y0127262D02*
X0044446Y0127262D01*
X0048199Y0116453D02*
X0048950Y0115702D01*
X0048950Y0114201D01*
X0048199Y0113450D01*
X0077146Y0112350D02*
X0077146Y0114602D01*
X0077897Y0115353D01*
X0078647Y0115353D01*
X0079398Y0114602D01*
X0079398Y0112350D01*
X0081650Y0112350D02*
X0077146Y0112350D01*
X0079398Y0114602D02*
X0080149Y0115353D01*
X0080899Y0115353D01*
X0081650Y0114602D01*
X0081650Y0112350D01*
X0081650Y0116954D02*
X0081650Y0119956D01*
X0080899Y0121558D02*
X0081650Y0122308D01*
X0081650Y0123810D01*
X0080899Y0124560D01*
X0077146Y0124560D01*
X0077146Y0126162D02*
X0081650Y0126162D01*
X0081650Y0129164D01*
X0079398Y0127663D02*
X0079398Y0126162D01*
X0077146Y0126162D02*
X0077146Y0129164D01*
X0077146Y0121558D02*
X0080899Y0121558D01*
X0081650Y0116954D02*
X0077146Y0116954D01*
M02*
