G75*
%MOIN*%
%OFA0B0*%
%FSLAX25Y25*%
%IPPOS*%
%LPD*%
%AMOC8*
5,1,8,0,0,1.08239X$1,22.5*
%
%ADD10C,0.00512*%
%ADD11C,0.00700*%
%ADD12OC8,0.06000*%
%ADD13R,0.04724X0.04724*%
%ADD14R,0.05906X0.05118*%
%ADD15R,0.07800X0.02200*%
%ADD16R,0.05800X0.02000*%
%ADD17R,0.02000X0.05800*%
%ADD18R,0.02362X0.04724*%
%ADD19R,0.04724X0.02362*%
%ADD20R,0.01181X0.04921*%
%ADD21R,0.07874X0.11811*%
%ADD22C,0.10630*%
%ADD23R,0.03937X0.01181*%
%ADD24R,0.01181X0.03937*%
%ADD25R,0.05118X0.05906*%
%ADD26R,0.07087X0.06299*%
%ADD27R,0.06299X0.08661*%
%ADD28C,0.09449*%
%ADD29R,0.02200X0.05200*%
%ADD30R,0.04724X0.02165*%
%ADD31R,0.04724X0.05118*%
%ADD32R,0.07087X0.15748*%
%ADD33R,0.05512X0.05512*%
%ADD34R,0.05118X0.04724*%
%ADD35R,0.10000X0.10000*%
%ADD36C,0.01600*%
%ADD37C,0.01200*%
%ADD38C,0.02578*%
%ADD39C,0.02400*%
%ADD40C,0.00600*%
%ADD41C,0.01000*%
%ADD42C,0.00800*%
%ADD43C,0.03365*%
%ADD44C,0.03200*%
D10*
X0008085Y0001800D02*
X0025762Y0001800D01*
X0015762Y0002056D02*
X0016785Y0012036D01*
X0017019Y0012036D02*
X0015762Y0002056D01*
X0014738Y0012036D01*
X0014505Y0012036D02*
X0017019Y0012036D01*
X0016274Y0012036D02*
X0015762Y0002056D01*
X0015250Y0012036D01*
X0014505Y0012036D02*
X0015762Y0002056D01*
X0015762Y0331544D01*
X0016785Y0321564D01*
X0017019Y0321564D02*
X0015762Y0331544D01*
X0014738Y0321564D01*
X0014505Y0321564D02*
X0017019Y0321564D01*
X0016274Y0321564D02*
X0015762Y0331544D01*
X0015250Y0321564D01*
X0014505Y0321564D02*
X0015762Y0331544D01*
X0008085Y0331800D02*
X0025762Y0331800D01*
X0025762Y0349477D01*
X0026018Y0341800D02*
X0035998Y0340776D01*
X0035998Y0340543D02*
X0026018Y0341800D01*
X0035998Y0342824D01*
X0035998Y0343057D02*
X0035998Y0340543D01*
X0035998Y0341288D02*
X0026018Y0341800D01*
X0035998Y0342312D01*
X0035998Y0343057D02*
X0026018Y0341800D01*
X0450506Y0341800D01*
X0440526Y0340776D01*
X0440526Y0340543D02*
X0450506Y0341800D01*
X0440526Y0342824D01*
X0440526Y0343057D02*
X0440526Y0340543D01*
X0440526Y0341288D02*
X0450506Y0341800D01*
X0440526Y0342312D01*
X0440526Y0343057D02*
X0450506Y0341800D01*
X0450762Y0349477D02*
X0450762Y0331800D01*
X0473439Y0331800D01*
X0465762Y0331544D02*
X0466785Y0321564D01*
X0467019Y0321564D02*
X0465762Y0331544D01*
X0464738Y0321564D01*
X0464505Y0321564D02*
X0467019Y0321564D01*
X0466274Y0321564D02*
X0465762Y0331544D01*
X0465250Y0321564D01*
X0464505Y0321564D02*
X0465762Y0331544D01*
X0465762Y0222056D01*
X0466785Y0232036D01*
X0467019Y0232036D02*
X0465762Y0222056D01*
X0464738Y0232036D01*
X0464505Y0232036D02*
X0467019Y0232036D01*
X0466274Y0232036D02*
X0465762Y0222056D01*
X0465250Y0232036D01*
X0464505Y0232036D02*
X0465762Y0222056D01*
X0473439Y0221800D02*
X0450762Y0221800D01*
X0450762Y0106800D02*
X0473439Y0106800D01*
X0465762Y0106544D02*
X0466785Y0096564D01*
X0467019Y0096564D02*
X0465762Y0106544D01*
X0464738Y0096564D01*
X0464505Y0096564D02*
X0467019Y0096564D01*
X0466274Y0096564D02*
X0465762Y0106544D01*
X0465250Y0096564D01*
X0464505Y0096564D02*
X0465762Y0106544D01*
X0465762Y0002056D01*
X0466785Y0012036D01*
X0467019Y0012036D02*
X0465762Y0002056D01*
X0464738Y0012036D01*
X0464505Y0012036D02*
X0467019Y0012036D01*
X0466274Y0012036D02*
X0465762Y0002056D01*
X0465250Y0012036D01*
X0464505Y0012036D02*
X0465762Y0002056D01*
X0473439Y0001800D02*
X0450762Y0001800D01*
D11*
X0457112Y0042157D02*
X0454343Y0044926D01*
X0462650Y0044926D01*
X0462650Y0042157D02*
X0462650Y0047695D01*
X0462650Y0050444D02*
X0462650Y0051829D01*
X0461265Y0051829D01*
X0461265Y0050444D01*
X0462650Y0050444D01*
X0461265Y0054588D02*
X0455727Y0054588D01*
X0454343Y0055972D01*
X0454343Y0058741D01*
X0455727Y0060126D01*
X0461265Y0054588D01*
X0462650Y0055972D01*
X0462650Y0058741D01*
X0461265Y0060126D01*
X0455727Y0060126D01*
X0454343Y0062875D02*
X0458496Y0062875D01*
X0457112Y0065644D01*
X0457112Y0067029D01*
X0458496Y0068413D01*
X0461265Y0068413D01*
X0462650Y0067029D01*
X0462650Y0064260D01*
X0461265Y0062875D01*
X0454343Y0062875D02*
X0454343Y0068413D01*
X0457112Y0264657D02*
X0454343Y0267426D01*
X0462650Y0267426D01*
X0462650Y0264657D02*
X0462650Y0270195D01*
X0462650Y0272944D02*
X0462650Y0274329D01*
X0461265Y0274329D01*
X0461265Y0272944D01*
X0462650Y0272944D01*
X0462650Y0277088D02*
X0462650Y0282626D01*
X0462650Y0279857D02*
X0454343Y0279857D01*
X0457112Y0277088D01*
X0455727Y0285375D02*
X0454343Y0286760D01*
X0454343Y0289529D01*
X0455727Y0290913D01*
X0461265Y0285375D01*
X0462650Y0286760D01*
X0462650Y0289529D01*
X0461265Y0290913D01*
X0455727Y0290913D01*
X0455727Y0285375D02*
X0461265Y0285375D01*
X0252375Y0346296D02*
X0250990Y0344912D01*
X0248221Y0344912D01*
X0246837Y0346296D01*
X0246837Y0349065D02*
X0249606Y0350450D01*
X0250990Y0350450D01*
X0252375Y0349065D01*
X0252375Y0346296D01*
X0246837Y0349065D02*
X0246837Y0353219D01*
X0252375Y0353219D01*
X0244088Y0351834D02*
X0242703Y0353219D01*
X0239934Y0353219D01*
X0238550Y0351834D01*
X0244088Y0351834D02*
X0244088Y0350450D01*
X0238550Y0344912D01*
X0244088Y0344912D01*
X0235791Y0344912D02*
X0234406Y0344912D01*
X0234406Y0346296D01*
X0235791Y0346296D01*
X0235791Y0344912D01*
X0230273Y0344912D02*
X0230273Y0353219D01*
X0226119Y0349065D01*
X0231657Y0349065D01*
X0012650Y0179529D02*
X0012650Y0176760D01*
X0011265Y0175375D01*
X0005727Y0180913D01*
X0011265Y0180913D01*
X0012650Y0179529D01*
X0011265Y0175375D02*
X0005727Y0175375D01*
X0004343Y0176760D01*
X0004343Y0179529D01*
X0005727Y0180913D01*
X0005727Y0172626D02*
X0007112Y0172626D01*
X0008496Y0171241D01*
X0009881Y0172626D01*
X0011265Y0172626D01*
X0012650Y0171241D01*
X0012650Y0168472D01*
X0011265Y0167088D01*
X0011265Y0164329D02*
X0012650Y0164329D01*
X0012650Y0162944D01*
X0011265Y0162944D01*
X0011265Y0164329D01*
X0011265Y0160195D02*
X0012650Y0158811D01*
X0012650Y0156042D01*
X0011265Y0154657D01*
X0008496Y0157426D02*
X0008496Y0158811D01*
X0009881Y0160195D01*
X0011265Y0160195D01*
X0008496Y0158811D02*
X0007112Y0160195D01*
X0005727Y0160195D01*
X0004343Y0158811D01*
X0004343Y0156042D01*
X0005727Y0154657D01*
X0005727Y0167088D02*
X0004343Y0168472D01*
X0004343Y0171241D01*
X0005727Y0172626D01*
X0008496Y0171241D02*
X0008496Y0169857D01*
D12*
X0070762Y0231800D03*
X0080762Y0231800D03*
X0090762Y0231800D03*
X0100762Y0231800D03*
X0110762Y0231800D03*
X0110762Y0241800D03*
X0100762Y0241800D03*
X0090762Y0241800D03*
X0080762Y0241800D03*
X0070762Y0241800D03*
X0070762Y0281800D03*
X0080762Y0281800D03*
X0090762Y0281800D03*
X0100762Y0281800D03*
X0110762Y0281800D03*
X0110762Y0291800D03*
X0100762Y0291800D03*
X0090762Y0291800D03*
X0080762Y0291800D03*
X0070762Y0291800D03*
X0355762Y0096800D03*
X0365762Y0096800D03*
X0365762Y0086800D03*
X0365762Y0076800D03*
X0355762Y0076800D03*
X0355762Y0086800D03*
D13*
X0175762Y0197666D03*
X0175762Y0205934D03*
X0155762Y0205934D03*
X0155762Y0197666D03*
X0140762Y0197666D03*
X0140762Y0205934D03*
D14*
X0140762Y0218060D03*
X0140762Y0225540D03*
X0165762Y0205540D03*
X0165762Y0198060D03*
X0185762Y0198060D03*
X0185762Y0205540D03*
X0090762Y0213060D03*
X0090762Y0220540D03*
X0080762Y0220540D03*
X0080762Y0213060D03*
X0090762Y0253060D03*
X0090762Y0260540D03*
X0055762Y0283060D03*
X0055762Y0290540D03*
D15*
X0297262Y0211800D03*
X0297262Y0206800D03*
X0297262Y0201800D03*
X0297262Y0196800D03*
X0297262Y0191800D03*
X0297262Y0186800D03*
X0297262Y0181800D03*
X0297262Y0176800D03*
X0297262Y0171800D03*
X0334262Y0171800D03*
X0334262Y0176800D03*
X0334262Y0181800D03*
X0334262Y0186800D03*
X0334262Y0191800D03*
X0334262Y0196800D03*
X0334262Y0201800D03*
X0334262Y0206800D03*
X0334262Y0211800D03*
D16*
X0336962Y0092800D03*
X0336962Y0089700D03*
X0336962Y0086500D03*
X0336962Y0083400D03*
X0336962Y0080200D03*
X0336962Y0077100D03*
X0336962Y0073900D03*
X0336962Y0070800D03*
X0304562Y0070800D03*
X0304562Y0073900D03*
X0304562Y0077100D03*
X0304562Y0080200D03*
X0304562Y0083400D03*
X0304562Y0086500D03*
X0304562Y0089700D03*
X0304562Y0092800D03*
D17*
X0309762Y0098000D03*
X0312862Y0098000D03*
X0316062Y0098000D03*
X0319162Y0098000D03*
X0322362Y0098000D03*
X0325462Y0098000D03*
X0328662Y0098000D03*
X0331762Y0098000D03*
X0331762Y0065600D03*
X0328662Y0065600D03*
X0325462Y0065600D03*
X0322362Y0065600D03*
X0319162Y0065600D03*
X0316062Y0065600D03*
X0312862Y0065600D03*
X0309762Y0065600D03*
D18*
X0308262Y0115776D03*
X0313262Y0115776D03*
X0318262Y0115776D03*
X0323262Y0115776D03*
X0328262Y0115776D03*
X0328262Y0137824D03*
X0323262Y0137824D03*
X0318262Y0137824D03*
X0313262Y0137824D03*
X0308262Y0137824D03*
X0303262Y0137824D03*
X0298262Y0137824D03*
X0293262Y0137824D03*
X0293262Y0115776D03*
X0298262Y0115776D03*
X0303262Y0115776D03*
D19*
X0286785Y0104300D03*
X0286785Y0099300D03*
X0286785Y0094300D03*
X0286785Y0089300D03*
X0286785Y0084300D03*
X0286785Y0079300D03*
X0286785Y0074300D03*
X0286785Y0069300D03*
X0264738Y0069300D03*
X0264738Y0074300D03*
X0264738Y0079300D03*
X0264738Y0084300D03*
X0264738Y0089300D03*
X0264738Y0094300D03*
X0264738Y0099300D03*
X0264738Y0104300D03*
D20*
X0169148Y0041800D03*
X0167179Y0041800D03*
X0165211Y0041800D03*
X0163242Y0041800D03*
X0161274Y0041800D03*
X0159305Y0041800D03*
X0157337Y0041800D03*
X0155368Y0041800D03*
X0153400Y0041800D03*
X0151431Y0041800D03*
X0149463Y0041800D03*
X0147494Y0041800D03*
X0145526Y0041800D03*
X0143557Y0041800D03*
X0141589Y0041800D03*
X0139620Y0041800D03*
X0137652Y0041800D03*
X0135683Y0041800D03*
X0133715Y0041800D03*
X0131746Y0041800D03*
X0129778Y0041800D03*
X0127809Y0041800D03*
X0125841Y0041800D03*
X0123872Y0041800D03*
X0121904Y0041800D03*
X0119935Y0041800D03*
X0117967Y0041800D03*
X0115998Y0041800D03*
X0114030Y0041800D03*
X0112061Y0041800D03*
X0110093Y0041800D03*
X0108124Y0041800D03*
X0106156Y0041800D03*
X0104187Y0041800D03*
X0102219Y0041800D03*
X0100250Y0041800D03*
X0098281Y0041800D03*
X0096313Y0041800D03*
X0094344Y0041800D03*
X0092376Y0041800D03*
D21*
X0087061Y0050855D03*
X0174463Y0051052D03*
D22*
X0397612Y0148139D03*
X0397612Y0163887D03*
X0413360Y0171761D03*
X0429108Y0179635D03*
X0429108Y0163887D03*
X0413360Y0156013D03*
X0429108Y0148139D03*
X0397612Y0179635D03*
D23*
X0228085Y0171249D03*
X0228085Y0169280D03*
X0228085Y0167312D03*
X0228085Y0165343D03*
X0228085Y0163375D03*
X0228085Y0161406D03*
X0228085Y0159438D03*
X0228085Y0157469D03*
X0228085Y0155501D03*
X0228085Y0153532D03*
X0228085Y0151564D03*
X0228085Y0149595D03*
X0228085Y0147627D03*
X0228085Y0145658D03*
X0228085Y0143690D03*
X0228085Y0141721D03*
X0228085Y0139753D03*
X0228085Y0137784D03*
X0228085Y0135816D03*
X0228085Y0133847D03*
X0228085Y0131879D03*
X0228085Y0129910D03*
X0228085Y0127942D03*
X0228085Y0125973D03*
X0228085Y0124005D03*
X0228085Y0122036D03*
X0228085Y0120068D03*
X0228085Y0118099D03*
X0228085Y0116131D03*
X0228085Y0114162D03*
X0228085Y0112194D03*
X0228085Y0110225D03*
X0228085Y0108257D03*
X0228085Y0106288D03*
X0228085Y0104320D03*
X0228085Y0102351D03*
X0143439Y0102351D03*
X0143439Y0104320D03*
X0143439Y0106288D03*
X0143439Y0108257D03*
X0143439Y0110225D03*
X0143439Y0112194D03*
X0143439Y0114162D03*
X0143439Y0116131D03*
X0143439Y0118099D03*
X0143439Y0120068D03*
X0143439Y0122036D03*
X0143439Y0124005D03*
X0143439Y0125973D03*
X0143439Y0127942D03*
X0143439Y0129910D03*
X0143439Y0131879D03*
X0143439Y0133847D03*
X0143439Y0135816D03*
X0143439Y0137784D03*
X0143439Y0139753D03*
X0143439Y0141721D03*
X0143439Y0143690D03*
X0143439Y0145658D03*
X0143439Y0147627D03*
X0143439Y0149595D03*
X0143439Y0151564D03*
X0143439Y0153532D03*
X0143439Y0155501D03*
X0143439Y0157469D03*
X0143439Y0159438D03*
X0143439Y0161406D03*
X0143439Y0163375D03*
X0143439Y0165343D03*
X0143439Y0167312D03*
X0143439Y0169280D03*
X0143439Y0171249D03*
D24*
X0151313Y0179123D03*
X0153281Y0179123D03*
X0155250Y0179123D03*
X0157219Y0179123D03*
X0159187Y0179123D03*
X0161156Y0179123D03*
X0163124Y0179123D03*
X0165093Y0179123D03*
X0167061Y0179123D03*
X0169030Y0179123D03*
X0170998Y0179123D03*
X0172967Y0179123D03*
X0174935Y0179123D03*
X0176904Y0179123D03*
X0178872Y0179123D03*
X0180841Y0179123D03*
X0182809Y0179123D03*
X0184778Y0179123D03*
X0186746Y0179123D03*
X0188715Y0179123D03*
X0190683Y0179123D03*
X0192652Y0179123D03*
X0194620Y0179123D03*
X0196589Y0179123D03*
X0198557Y0179123D03*
X0200526Y0179123D03*
X0202494Y0179123D03*
X0204463Y0179123D03*
X0206431Y0179123D03*
X0208400Y0179123D03*
X0210368Y0179123D03*
X0212337Y0179123D03*
X0214305Y0179123D03*
X0216274Y0179123D03*
X0218242Y0179123D03*
X0220211Y0179123D03*
X0220211Y0094477D03*
X0218242Y0094477D03*
X0216274Y0094477D03*
X0214305Y0094477D03*
X0212337Y0094477D03*
X0210368Y0094477D03*
X0208400Y0094477D03*
X0206431Y0094477D03*
X0204463Y0094477D03*
X0202494Y0094477D03*
X0200526Y0094477D03*
X0198557Y0094477D03*
X0196589Y0094477D03*
X0194620Y0094477D03*
X0192652Y0094477D03*
X0190683Y0094477D03*
X0188715Y0094477D03*
X0186746Y0094477D03*
X0184778Y0094477D03*
X0182809Y0094477D03*
X0180841Y0094477D03*
X0178872Y0094477D03*
X0176904Y0094477D03*
X0174935Y0094477D03*
X0172967Y0094477D03*
X0170998Y0094477D03*
X0169030Y0094477D03*
X0167061Y0094477D03*
X0165093Y0094477D03*
X0163124Y0094477D03*
X0161156Y0094477D03*
X0159187Y0094477D03*
X0157219Y0094477D03*
X0155250Y0094477D03*
X0153281Y0094477D03*
X0151313Y0094477D03*
D25*
X0239522Y0124300D03*
X0247002Y0124300D03*
X0129502Y0271800D03*
X0122022Y0271800D03*
X0122022Y0281800D03*
X0129502Y0281800D03*
D26*
X0290762Y0276288D03*
X0290762Y0287312D03*
D27*
X0303951Y0276800D03*
X0327573Y0276800D03*
D28*
X0346510Y0270107D02*
X0355959Y0270107D01*
X0355959Y0283493D02*
X0346510Y0283493D01*
X0385565Y0283493D02*
X0395014Y0283493D01*
X0395014Y0270107D02*
X0385565Y0270107D01*
D29*
X0274462Y0271800D03*
X0270762Y0271800D03*
X0267062Y0271800D03*
X0267062Y0281800D03*
X0274462Y0281800D03*
X0249462Y0281800D03*
X0242062Y0281800D03*
X0242062Y0271800D03*
X0245762Y0271800D03*
X0249462Y0271800D03*
D30*
X0165880Y0260540D03*
X0165880Y0253060D03*
X0155643Y0253060D03*
X0155643Y0256800D03*
X0155643Y0260540D03*
D31*
X0196762Y0256800D03*
X0204762Y0256800D03*
X0216762Y0256800D03*
X0224762Y0256800D03*
X0224762Y0266800D03*
X0216762Y0266800D03*
X0204762Y0266800D03*
X0196762Y0266800D03*
X0196762Y0276800D03*
X0204762Y0276800D03*
X0216762Y0276800D03*
X0224762Y0276800D03*
D32*
X0172848Y0281800D03*
X0158675Y0281800D03*
D33*
X0185762Y0279083D03*
X0185762Y0264517D03*
D34*
X0175762Y0260800D03*
X0175762Y0252800D03*
D35*
X0201512Y0291800D03*
X0220012Y0291800D03*
D36*
X0226812Y0291131D02*
X0285534Y0291131D01*
X0285541Y0291156D02*
X0285419Y0290698D01*
X0285418Y0288087D01*
X0289987Y0288087D01*
X0289987Y0292261D01*
X0286982Y0292261D01*
X0286524Y0292139D01*
X0286113Y0291902D01*
X0285778Y0291567D01*
X0285541Y0291156D01*
X0285419Y0289532D02*
X0226812Y0289532D01*
X0226812Y0287934D02*
X0289987Y0287934D01*
X0289987Y0288087D02*
X0289987Y0286537D01*
X0291537Y0286537D01*
X0291537Y0288087D01*
X0289987Y0288087D01*
X0289987Y0289532D02*
X0291537Y0289532D01*
X0291537Y0288087D02*
X0291537Y0292261D01*
X0294542Y0292261D01*
X0295000Y0292139D01*
X0295410Y0291902D01*
X0295745Y0291567D01*
X0295982Y0291156D01*
X0296105Y0290698D01*
X0296105Y0288087D01*
X0291537Y0288087D01*
X0291537Y0287934D02*
X0341724Y0287934D01*
X0340979Y0287189D02*
X0340856Y0286893D01*
X0333589Y0286893D01*
X0332340Y0286375D01*
X0331383Y0285419D01*
X0328895Y0282931D01*
X0323678Y0282931D01*
X0322623Y0281876D01*
X0322623Y0271724D01*
X0323678Y0270669D01*
X0331468Y0270669D01*
X0332522Y0271724D01*
X0332522Y0276941D01*
X0335674Y0280093D01*
X0340856Y0280093D01*
X0340979Y0279797D01*
X0342814Y0277962D01*
X0345212Y0276969D01*
X0347834Y0276969D01*
X0347834Y0276631D01*
X0345212Y0276631D01*
X0342814Y0275638D01*
X0340979Y0273803D01*
X0339985Y0271405D01*
X0339985Y0268809D01*
X0340979Y0266411D01*
X0342814Y0264576D01*
X0345212Y0263583D01*
X0357256Y0263583D01*
X0359654Y0264576D01*
X0361490Y0266411D01*
X0362483Y0268809D01*
X0362483Y0271405D01*
X0361490Y0273803D01*
X0359654Y0275638D01*
X0357256Y0276631D01*
X0354634Y0276631D01*
X0354634Y0276969D01*
X0357256Y0276969D01*
X0359654Y0277962D01*
X0361490Y0279797D01*
X0362483Y0282195D01*
X0362483Y0284791D01*
X0361490Y0287189D01*
X0359654Y0289024D01*
X0357256Y0290017D01*
X0345212Y0290017D01*
X0342814Y0289024D01*
X0340979Y0287189D01*
X0344041Y0289532D02*
X0296105Y0289532D01*
X0295989Y0291131D02*
X0447962Y0291131D01*
X0447962Y0292729D02*
X0226812Y0292729D01*
X0226812Y0294328D02*
X0447962Y0294328D01*
X0447962Y0295926D02*
X0226812Y0295926D01*
X0226812Y0297525D02*
X0447962Y0297525D01*
X0447962Y0299123D02*
X0221781Y0299123D01*
X0221711Y0299193D02*
X0218161Y0302743D01*
X0217059Y0303200D01*
X0153765Y0303200D01*
X0152662Y0302743D01*
X0144819Y0294899D01*
X0144362Y0293797D01*
X0144362Y0253603D01*
X0144819Y0252501D01*
X0145662Y0251657D01*
X0146803Y0250517D01*
X0147905Y0250060D01*
X0156240Y0250060D01*
X0156523Y0250177D01*
X0158751Y0250177D01*
X0159805Y0251232D01*
X0159805Y0254888D01*
X0159679Y0255015D01*
X0159683Y0255023D01*
X0159805Y0255480D01*
X0159805Y0256800D01*
X0159805Y0257411D01*
X0160376Y0257411D01*
X0161512Y0257881D01*
X0162030Y0258400D01*
X0162773Y0257657D01*
X0165000Y0257657D01*
X0165284Y0257540D01*
X0171555Y0257540D01*
X0172295Y0256800D01*
X0171403Y0255908D01*
X0171403Y0255200D01*
X0169731Y0255200D01*
X0168988Y0255943D01*
X0162773Y0255943D01*
X0161718Y0254888D01*
X0161718Y0251232D01*
X0162773Y0250177D01*
X0168988Y0250177D01*
X0169211Y0250400D01*
X0171403Y0250400D01*
X0171403Y0249692D01*
X0172457Y0248638D01*
X0173362Y0248638D01*
X0173362Y0229843D01*
X0173727Y0228960D01*
X0212699Y0189989D01*
X0211747Y0189989D01*
X0210612Y0189519D01*
X0210293Y0189200D01*
X0204035Y0189200D01*
X0204024Y0189189D01*
X0191920Y0189189D01*
X0190572Y0187842D01*
X0187431Y0184700D01*
X0184709Y0184700D01*
X0183825Y0183816D01*
X0183241Y0183231D01*
X0183241Y0193065D01*
X0182977Y0193701D01*
X0189460Y0193701D01*
X0190515Y0194755D01*
X0190515Y0201364D01*
X0190079Y0201800D01*
X0190515Y0202236D01*
X0190515Y0208845D01*
X0189460Y0209899D01*
X0188762Y0209899D01*
X0188762Y0210971D01*
X0188851Y0211186D01*
X0188851Y0212414D01*
X0188381Y0213550D01*
X0187512Y0214419D01*
X0186376Y0214889D01*
X0185147Y0214889D01*
X0184933Y0214800D01*
X0164504Y0214800D01*
X0151221Y0228083D01*
X0150118Y0228540D01*
X0145515Y0228540D01*
X0145515Y0228845D01*
X0144460Y0229899D01*
X0140645Y0229899D01*
X0128326Y0242218D01*
X0128326Y0265805D01*
X0128924Y0266402D01*
X0129191Y0267047D01*
X0132807Y0267047D01*
X0133861Y0268102D01*
X0133861Y0275498D01*
X0132807Y0276553D01*
X0132502Y0276553D01*
X0132502Y0277047D01*
X0132807Y0277047D01*
X0133861Y0278102D01*
X0133861Y0285498D01*
X0132807Y0286553D01*
X0126197Y0286553D01*
X0125762Y0286117D01*
X0125326Y0286553D01*
X0118717Y0286553D01*
X0117663Y0285498D01*
X0117663Y0284200D01*
X0115150Y0284200D01*
X0112750Y0286600D01*
X0108774Y0286600D01*
X0105962Y0283788D01*
X0105962Y0279812D01*
X0108774Y0277000D01*
X0112750Y0277000D01*
X0115150Y0279400D01*
X0117663Y0279400D01*
X0117663Y0278102D01*
X0118717Y0277047D01*
X0125326Y0277047D01*
X0125762Y0277483D01*
X0126197Y0277047D01*
X0126502Y0277047D01*
X0126502Y0276553D01*
X0126197Y0276553D01*
X0125762Y0276117D01*
X0125326Y0276553D01*
X0118717Y0276553D01*
X0117663Y0275498D01*
X0117663Y0274200D01*
X0101756Y0274200D01*
X0098956Y0277000D01*
X0102750Y0277000D01*
X0105562Y0279812D01*
X0105562Y0283788D01*
X0102750Y0286600D01*
X0098774Y0286600D01*
X0095962Y0283788D01*
X0095962Y0279994D01*
X0095562Y0280394D01*
X0095562Y0283788D01*
X0092750Y0286600D01*
X0088962Y0286600D01*
X0088962Y0287000D01*
X0092750Y0287000D01*
X0095562Y0289812D01*
X0095562Y0293788D01*
X0092750Y0296600D01*
X0088774Y0296600D01*
X0085962Y0293788D01*
X0085962Y0290843D01*
X0085562Y0291243D01*
X0085562Y0293788D01*
X0082750Y0296600D01*
X0078774Y0296600D01*
X0075962Y0293788D01*
X0075962Y0289812D01*
X0078774Y0287000D01*
X0081319Y0287000D01*
X0081719Y0286600D01*
X0078774Y0286600D01*
X0075962Y0283788D01*
X0075962Y0279812D01*
X0078774Y0277000D01*
X0082750Y0277000D01*
X0083640Y0277890D01*
X0096019Y0265512D01*
X0096108Y0265297D01*
X0096977Y0264429D01*
X0098112Y0263958D01*
X0099341Y0263958D01*
X0099556Y0264047D01*
X0122326Y0264047D01*
X0122326Y0240379D01*
X0122783Y0239276D01*
X0136009Y0226050D01*
X0136009Y0222236D01*
X0136445Y0221800D01*
X0136009Y0221364D01*
X0136009Y0214755D01*
X0137063Y0213701D01*
X0137762Y0213701D01*
X0137762Y0210096D01*
X0137654Y0210096D01*
X0136600Y0209042D01*
X0136600Y0202826D01*
X0137654Y0201772D01*
X0137951Y0201772D01*
X0137705Y0201706D01*
X0137294Y0201469D01*
X0136959Y0201134D01*
X0136722Y0200723D01*
X0136600Y0200265D01*
X0136600Y0198047D01*
X0140381Y0198047D01*
X0140381Y0197285D01*
X0141143Y0197285D01*
X0141143Y0198047D01*
X0144924Y0198047D01*
X0144924Y0200265D01*
X0144801Y0200723D01*
X0144564Y0201134D01*
X0144229Y0201469D01*
X0143819Y0201706D01*
X0143573Y0201772D01*
X0143870Y0201772D01*
X0144924Y0202826D01*
X0144924Y0209042D01*
X0143870Y0210096D01*
X0143762Y0210096D01*
X0143762Y0213701D01*
X0144460Y0213701D01*
X0145515Y0214755D01*
X0145515Y0221364D01*
X0145079Y0221800D01*
X0145515Y0222236D01*
X0145515Y0222540D01*
X0148279Y0222540D01*
X0160262Y0210557D01*
X0160262Y0207443D01*
X0160416Y0207071D01*
X0159924Y0207563D01*
X0159924Y0209042D01*
X0158870Y0210096D01*
X0152654Y0210096D01*
X0151600Y0209042D01*
X0151600Y0202826D01*
X0152626Y0201800D01*
X0151600Y0200774D01*
X0151600Y0194558D01*
X0152654Y0193504D01*
X0156530Y0193504D01*
X0157693Y0192341D01*
X0158368Y0191665D01*
X0159251Y0191300D01*
X0170068Y0191300D01*
X0172562Y0188806D01*
X0172562Y0182891D01*
X0166351Y0182891D01*
X0166351Y0183783D01*
X0165881Y0184918D01*
X0165012Y0185787D01*
X0163876Y0186257D01*
X0162647Y0186257D01*
X0161512Y0185787D01*
X0160643Y0184918D01*
X0160173Y0183783D01*
X0160173Y0182891D01*
X0159187Y0182891D01*
X0149977Y0182891D01*
X0148922Y0181837D01*
X0148922Y0176409D01*
X0149342Y0175989D01*
X0143902Y0175989D01*
X0141568Y0178323D01*
X0141568Y0178632D01*
X0141098Y0179767D01*
X0140229Y0180636D01*
X0139094Y0181107D01*
X0137865Y0181107D01*
X0136730Y0180636D01*
X0136232Y0180139D01*
X0113162Y0203210D01*
X0113162Y0227412D01*
X0115562Y0229812D01*
X0115562Y0233788D01*
X0112750Y0236600D01*
X0108774Y0236600D01*
X0107019Y0234845D01*
X0106996Y0234899D01*
X0106321Y0235574D01*
X0103823Y0238073D01*
X0105562Y0239812D01*
X0105562Y0243788D01*
X0102750Y0246600D01*
X0098774Y0246600D01*
X0095962Y0243788D01*
X0095962Y0239994D01*
X0095562Y0240394D01*
X0095562Y0243788D01*
X0093162Y0246188D01*
X0093162Y0248701D01*
X0094460Y0248701D01*
X0095515Y0249755D01*
X0095515Y0256364D01*
X0095079Y0256800D01*
X0095155Y0256876D01*
X0095392Y0257286D01*
X0095515Y0257744D01*
X0095515Y0260061D01*
X0091241Y0260061D01*
X0091241Y0261020D01*
X0090282Y0261020D01*
X0090282Y0264899D01*
X0087572Y0264899D01*
X0087114Y0264777D01*
X0086704Y0264540D01*
X0086369Y0264204D01*
X0086132Y0263794D01*
X0086009Y0263336D01*
X0086009Y0261020D01*
X0090282Y0261020D01*
X0090282Y0260061D01*
X0086009Y0260061D01*
X0086009Y0257744D01*
X0086132Y0257286D01*
X0086369Y0256876D01*
X0086445Y0256800D01*
X0086009Y0256364D01*
X0086009Y0249755D01*
X0087063Y0248701D01*
X0088362Y0248701D01*
X0088362Y0246188D01*
X0085962Y0243788D01*
X0085962Y0239812D01*
X0088774Y0237000D01*
X0092168Y0237000D01*
X0092562Y0236606D01*
X0092562Y0236600D01*
X0088774Y0236600D01*
X0085962Y0233788D01*
X0085962Y0229812D01*
X0088362Y0227412D01*
X0088362Y0224899D01*
X0087063Y0224899D01*
X0086009Y0223845D01*
X0086009Y0219182D01*
X0085515Y0218687D01*
X0085515Y0223845D01*
X0084460Y0224899D01*
X0083162Y0224899D01*
X0083162Y0227412D01*
X0085562Y0229812D01*
X0085562Y0233788D01*
X0082750Y0236600D01*
X0079804Y0236600D01*
X0080204Y0237000D01*
X0082750Y0237000D01*
X0085562Y0239812D01*
X0085562Y0243788D01*
X0082750Y0246600D01*
X0078774Y0246600D01*
X0075962Y0243788D01*
X0075962Y0241243D01*
X0075562Y0240843D01*
X0075562Y0241600D01*
X0070962Y0241600D01*
X0070962Y0242000D01*
X0075562Y0242000D01*
X0075562Y0243788D01*
X0072750Y0246600D01*
X0070962Y0246600D01*
X0070962Y0242000D01*
X0070562Y0242000D01*
X0070562Y0246600D01*
X0068774Y0246600D01*
X0065962Y0243788D01*
X0065962Y0242000D01*
X0070562Y0242000D01*
X0070562Y0241600D01*
X0065962Y0241600D01*
X0065962Y0239812D01*
X0066852Y0238921D01*
X0066230Y0238299D01*
X0063419Y0235488D01*
X0062962Y0234385D01*
X0062962Y0229215D01*
X0063419Y0228112D01*
X0064262Y0227268D01*
X0065273Y0226258D01*
X0065273Y0210329D01*
X0065184Y0210114D01*
X0065184Y0208886D01*
X0065654Y0207750D01*
X0066523Y0206881D01*
X0067658Y0206411D01*
X0068362Y0206411D01*
X0068362Y0187934D01*
X0068727Y0187052D01*
X0069402Y0186376D01*
X0084884Y0170895D01*
X0084884Y0170586D01*
X0085354Y0169450D01*
X0086223Y0168581D01*
X0087358Y0168111D01*
X0088062Y0168111D01*
X0088062Y0149923D01*
X0088427Y0149041D01*
X0089102Y0148365D01*
X0105655Y0131813D01*
X0106537Y0131447D01*
X0139670Y0131447D01*
X0139670Y0129963D01*
X0139274Y0129798D01*
X0138599Y0129123D01*
X0096247Y0086771D01*
X0095881Y0085889D01*
X0095881Y0053542D01*
X0095506Y0054450D01*
X0094637Y0055319D01*
X0093501Y0055789D01*
X0092798Y0055789D01*
X0092798Y0057506D01*
X0091744Y0058561D01*
X0082378Y0058561D01*
X0081324Y0057506D01*
X0081324Y0044204D01*
X0082378Y0043150D01*
X0089976Y0043150D01*
X0089976Y0041323D01*
X0089985Y0041300D01*
X0089985Y0038594D01*
X0091040Y0037539D01*
X0096313Y0037539D01*
X0145249Y0037539D01*
X0144962Y0037253D01*
X0144962Y0035804D01*
X0144654Y0035497D01*
X0144184Y0034361D01*
X0144184Y0033133D01*
X0144654Y0031997D01*
X0145523Y0031128D01*
X0146658Y0030658D01*
X0147887Y0030658D01*
X0149023Y0031128D01*
X0149033Y0031139D01*
X0149151Y0031020D01*
X0150286Y0030550D01*
X0151515Y0030550D01*
X0152651Y0031020D01*
X0153520Y0031889D01*
X0153990Y0033025D01*
X0153990Y0033092D01*
X0154956Y0033492D01*
X0155020Y0033557D01*
X0155969Y0033164D01*
X0157198Y0033164D01*
X0158334Y0033634D01*
X0159145Y0034445D01*
X0159347Y0034361D01*
X0160576Y0034361D01*
X0161712Y0034832D01*
X0162581Y0035701D01*
X0163051Y0036836D01*
X0163051Y0037539D01*
X0170484Y0037539D01*
X0171538Y0038594D01*
X0171538Y0043346D01*
X0179145Y0043346D01*
X0180200Y0044401D01*
X0180200Y0057703D01*
X0179145Y0058757D01*
X0172173Y0058757D01*
X0204124Y0090709D01*
X0211509Y0090709D01*
X0212337Y0090709D01*
X0221547Y0090709D01*
X0222601Y0091763D01*
X0222601Y0097191D01*
X0221547Y0098246D01*
X0212582Y0098246D01*
X0216714Y0102379D01*
X0216714Y0102379D01*
X0218062Y0103726D01*
X0218062Y0108947D01*
X0219109Y0107900D01*
X0224316Y0107900D01*
X0224316Y0101015D01*
X0225371Y0099961D01*
X0227584Y0099961D01*
X0227607Y0099951D01*
X0237593Y0099951D01*
X0237593Y0099248D01*
X0238063Y0098112D01*
X0238932Y0097243D01*
X0240067Y0096773D01*
X0240377Y0096773D01*
X0241811Y0095339D01*
X0242693Y0094973D01*
X0245710Y0094973D01*
X0246592Y0095339D01*
X0246916Y0095662D01*
X0249042Y0095662D01*
X0249042Y0094959D01*
X0249512Y0093823D01*
X0250381Y0092955D01*
X0251516Y0092484D01*
X0251826Y0092484D01*
X0254962Y0089348D01*
X0254962Y0079677D01*
X0255327Y0078795D01*
X0259238Y0074884D01*
X0260120Y0074519D01*
X0260576Y0074519D01*
X0260576Y0072373D01*
X0261149Y0071800D01*
X0260936Y0071586D01*
X0260699Y0071176D01*
X0260576Y0070718D01*
X0260576Y0069300D01*
X0264738Y0069300D01*
X0264738Y0069300D01*
X0260576Y0069300D01*
X0260576Y0067882D01*
X0260699Y0067424D01*
X0260936Y0067014D01*
X0261271Y0066679D01*
X0261681Y0066442D01*
X0262139Y0066319D01*
X0264738Y0066319D01*
X0264738Y0069300D01*
X0264738Y0069300D01*
X0264738Y0066319D01*
X0267337Y0066319D01*
X0267795Y0066442D01*
X0268206Y0066679D01*
X0268541Y0067014D01*
X0268778Y0067424D01*
X0268900Y0067882D01*
X0268900Y0069281D01*
X0282623Y0069281D01*
X0282623Y0067373D01*
X0283678Y0066319D01*
X0284162Y0066319D01*
X0284162Y0045823D01*
X0284527Y0044941D01*
X0285202Y0044265D01*
X0289702Y0039765D01*
X0290584Y0039400D01*
X0306239Y0039400D01*
X0307121Y0039765D01*
X0307796Y0040441D01*
X0318096Y0050741D01*
X0318462Y0051623D01*
X0318462Y0060900D01*
X0330385Y0060900D01*
X0334789Y0056496D01*
X0335745Y0056100D01*
X0348179Y0056100D01*
X0349135Y0056496D01*
X0349866Y0057227D01*
X0364639Y0072000D01*
X0367750Y0072000D01*
X0370562Y0074812D01*
X0370562Y0078788D01*
X0369106Y0080244D01*
X0372366Y0083505D01*
X0372762Y0084460D01*
X0372762Y0089140D01*
X0372366Y0090095D01*
X0369789Y0092673D01*
X0369106Y0093356D01*
X0370562Y0094812D01*
X0370562Y0098788D01*
X0367750Y0101600D01*
X0364356Y0101600D01*
X0351862Y0114094D01*
X0351862Y0193774D01*
X0351496Y0194657D01*
X0350821Y0195332D01*
X0340018Y0206135D01*
X0339962Y0206158D01*
X0339962Y0208646D01*
X0339307Y0209300D01*
X0339962Y0209954D01*
X0339962Y0213646D01*
X0338907Y0214700D01*
X0335604Y0214700D01*
X0324605Y0225699D01*
X0323761Y0226543D01*
X0322659Y0227000D01*
X0300054Y0227000D01*
X0277462Y0249592D01*
X0277462Y0270110D01*
X0277976Y0270110D01*
X0279112Y0270580D01*
X0279981Y0271449D01*
X0280451Y0272585D01*
X0280451Y0273288D01*
X0285419Y0273288D01*
X0285419Y0272393D01*
X0286473Y0271339D01*
X0295051Y0271339D01*
X0296105Y0272393D01*
X0296105Y0273400D01*
X0299001Y0273400D01*
X0299001Y0271724D01*
X0300056Y0270669D01*
X0300996Y0270669D01*
X0300973Y0270614D01*
X0300973Y0269386D01*
X0301443Y0268250D01*
X0302312Y0267381D01*
X0303447Y0266911D01*
X0304676Y0266911D01*
X0305812Y0267381D01*
X0306681Y0268250D01*
X0307151Y0269386D01*
X0307151Y0270614D01*
X0307128Y0270669D01*
X0307846Y0270669D01*
X0308900Y0271724D01*
X0308900Y0281876D01*
X0307846Y0282931D01*
X0300056Y0282931D01*
X0299001Y0281876D01*
X0299001Y0280200D01*
X0296088Y0280200D01*
X0295051Y0281238D01*
X0286473Y0281238D01*
X0285419Y0280183D01*
X0285419Y0279288D01*
X0277362Y0279288D01*
X0277362Y0285146D01*
X0276307Y0286200D01*
X0272616Y0286200D01*
X0271562Y0285146D01*
X0271562Y0279288D01*
X0269962Y0279288D01*
X0269962Y0285146D01*
X0268907Y0286200D01*
X0265216Y0286200D01*
X0264162Y0285146D01*
X0264162Y0279288D01*
X0252362Y0279288D01*
X0252362Y0285146D01*
X0251307Y0286200D01*
X0247616Y0286200D01*
X0246562Y0285146D01*
X0246562Y0279209D01*
X0245651Y0278831D01*
X0244227Y0277408D01*
X0244012Y0277319D01*
X0243143Y0276450D01*
X0243040Y0276200D01*
X0242062Y0276200D01*
X0242062Y0271800D01*
X0242062Y0271800D01*
X0242062Y0267400D01*
X0243399Y0267400D01*
X0243807Y0267509D01*
X0243916Y0267400D01*
X0246462Y0267400D01*
X0246462Y0266929D01*
X0246373Y0266714D01*
X0246373Y0265486D01*
X0246843Y0264350D01*
X0247712Y0263481D01*
X0248847Y0263011D01*
X0250076Y0263011D01*
X0251212Y0263481D01*
X0252081Y0264350D01*
X0252551Y0265486D01*
X0252551Y0266714D01*
X0252462Y0266929D01*
X0252462Y0270011D01*
X0252776Y0270011D01*
X0253912Y0270481D01*
X0254781Y0271350D01*
X0255251Y0272486D01*
X0255251Y0273288D01*
X0264162Y0273288D01*
X0264162Y0271800D01*
X0267062Y0271800D01*
X0267062Y0267400D01*
X0268399Y0267400D01*
X0268807Y0267509D01*
X0268916Y0267400D01*
X0270019Y0267400D01*
X0258060Y0255441D01*
X0228924Y0255441D01*
X0228924Y0260105D01*
X0227870Y0261159D01*
X0227762Y0261159D01*
X0227762Y0262441D01*
X0227870Y0262441D01*
X0228924Y0263495D01*
X0228924Y0263611D01*
X0229676Y0263611D01*
X0230812Y0264081D01*
X0231681Y0264950D01*
X0232151Y0266086D01*
X0232151Y0267314D01*
X0231681Y0268450D01*
X0230812Y0269319D01*
X0229676Y0269789D01*
X0228924Y0269789D01*
X0228924Y0270105D01*
X0227870Y0271159D01*
X0227762Y0271159D01*
X0227762Y0272441D01*
X0227870Y0272441D01*
X0228924Y0273495D01*
X0228924Y0280105D01*
X0227870Y0281159D01*
X0224645Y0281159D01*
X0223012Y0282793D01*
X0223012Y0285000D01*
X0225757Y0285000D01*
X0226812Y0286054D01*
X0226812Y0297546D01*
X0225757Y0298600D01*
X0222304Y0298600D01*
X0221711Y0299193D01*
X0220183Y0300722D02*
X0447962Y0300722D01*
X0447962Y0302320D02*
X0218584Y0302320D01*
X0213212Y0297200D02*
X0213212Y0286054D01*
X0214266Y0285000D01*
X0217012Y0285000D01*
X0217012Y0280953D01*
X0217143Y0280637D01*
X0217143Y0277181D01*
X0216381Y0277181D01*
X0216381Y0281159D01*
X0214163Y0281159D01*
X0213705Y0281036D01*
X0213294Y0280799D01*
X0212959Y0280464D01*
X0212722Y0280054D01*
X0212600Y0279596D01*
X0212600Y0277181D01*
X0216381Y0277181D01*
X0216381Y0276419D01*
X0217143Y0276419D01*
X0217143Y0272441D01*
X0219361Y0272441D01*
X0219819Y0272564D01*
X0220229Y0272801D01*
X0220564Y0273136D01*
X0220709Y0273386D01*
X0221654Y0272441D01*
X0221762Y0272441D01*
X0221762Y0271159D01*
X0221654Y0271159D01*
X0220709Y0270214D01*
X0220564Y0270464D01*
X0220229Y0270799D01*
X0219819Y0271036D01*
X0219361Y0271159D01*
X0217143Y0271159D01*
X0217143Y0267181D01*
X0216381Y0267181D01*
X0216381Y0271159D01*
X0214163Y0271159D01*
X0213705Y0271036D01*
X0213294Y0270799D01*
X0212959Y0270464D01*
X0212722Y0270054D01*
X0212600Y0269596D01*
X0212600Y0267181D01*
X0216381Y0267181D01*
X0216381Y0266419D01*
X0217143Y0266419D01*
X0217143Y0262441D01*
X0219361Y0262441D01*
X0219819Y0262564D01*
X0220229Y0262801D01*
X0220564Y0263136D01*
X0220709Y0263386D01*
X0221654Y0262441D01*
X0221762Y0262441D01*
X0221762Y0261159D01*
X0221654Y0261159D01*
X0220709Y0260214D01*
X0220564Y0260464D01*
X0220229Y0260799D01*
X0219819Y0261036D01*
X0219361Y0261159D01*
X0217143Y0261159D01*
X0217143Y0257181D01*
X0216381Y0257181D01*
X0216381Y0261159D01*
X0214163Y0261159D01*
X0213705Y0261036D01*
X0213294Y0260799D01*
X0212959Y0260464D01*
X0212722Y0260054D01*
X0212600Y0259596D01*
X0212600Y0257181D01*
X0216381Y0257181D01*
X0216381Y0256419D01*
X0212600Y0256419D01*
X0212600Y0255441D01*
X0208924Y0255441D01*
X0208924Y0256419D01*
X0205143Y0256419D01*
X0205143Y0257181D01*
X0208924Y0257181D01*
X0208924Y0259596D01*
X0208801Y0260054D01*
X0208564Y0260464D01*
X0208229Y0260799D01*
X0207819Y0261036D01*
X0207361Y0261159D01*
X0205143Y0261159D01*
X0205143Y0257181D01*
X0204381Y0257181D01*
X0204381Y0261159D01*
X0202163Y0261159D01*
X0201705Y0261036D01*
X0201294Y0260799D01*
X0200959Y0260464D01*
X0200815Y0260214D01*
X0199870Y0261159D01*
X0193654Y0261159D01*
X0192600Y0260105D01*
X0192600Y0259800D01*
X0188732Y0259800D01*
X0188666Y0259961D01*
X0189263Y0259961D01*
X0190318Y0261015D01*
X0190318Y0261517D01*
X0195075Y0261517D01*
X0196178Y0261973D01*
X0196645Y0262441D01*
X0199870Y0262441D01*
X0200815Y0263386D01*
X0200959Y0263136D01*
X0201294Y0262801D01*
X0201705Y0262564D01*
X0202163Y0262441D01*
X0204381Y0262441D01*
X0204381Y0266419D01*
X0205143Y0266419D01*
X0205143Y0267181D01*
X0208924Y0267181D01*
X0208924Y0269596D01*
X0208801Y0270054D01*
X0208564Y0270464D01*
X0208229Y0270799D01*
X0207819Y0271036D01*
X0207361Y0271159D01*
X0205143Y0271159D01*
X0205143Y0267181D01*
X0204381Y0267181D01*
X0204381Y0271159D01*
X0202163Y0271159D01*
X0201705Y0271036D01*
X0201294Y0270799D01*
X0200959Y0270464D01*
X0200815Y0270214D01*
X0199870Y0271159D01*
X0199762Y0271159D01*
X0199762Y0272441D01*
X0199870Y0272441D01*
X0200815Y0273386D01*
X0200959Y0273136D01*
X0201294Y0272801D01*
X0201705Y0272564D01*
X0202163Y0272441D01*
X0204381Y0272441D01*
X0204381Y0276419D01*
X0205143Y0276419D01*
X0205143Y0277181D01*
X0208924Y0277181D01*
X0208924Y0279596D01*
X0208801Y0280054D01*
X0208564Y0280464D01*
X0208229Y0280799D01*
X0207819Y0281036D01*
X0207361Y0281159D01*
X0205143Y0281159D01*
X0205143Y0277181D01*
X0204381Y0277181D01*
X0204381Y0280637D01*
X0204512Y0280953D01*
X0204512Y0285000D01*
X0207257Y0285000D01*
X0208312Y0286054D01*
X0208312Y0297200D01*
X0213212Y0297200D01*
X0213212Y0295926D02*
X0208312Y0295926D01*
X0208312Y0294328D02*
X0213212Y0294328D01*
X0213212Y0292729D02*
X0208312Y0292729D01*
X0208312Y0291131D02*
X0213212Y0291131D01*
X0213212Y0289532D02*
X0208312Y0289532D01*
X0208312Y0287934D02*
X0213212Y0287934D01*
X0213212Y0286335D02*
X0208312Y0286335D01*
X0204512Y0284737D02*
X0217012Y0284737D01*
X0217012Y0283138D02*
X0204512Y0283138D01*
X0204512Y0281539D02*
X0217012Y0281539D01*
X0217143Y0279941D02*
X0216381Y0279941D01*
X0216381Y0278342D02*
X0217143Y0278342D01*
X0216381Y0276744D02*
X0205143Y0276744D01*
X0205143Y0276419D02*
X0208924Y0276419D01*
X0208924Y0274004D01*
X0208801Y0273546D01*
X0208564Y0273136D01*
X0208229Y0272801D01*
X0207819Y0272564D01*
X0207361Y0272441D01*
X0205143Y0272441D01*
X0205143Y0276419D01*
X0205143Y0275145D02*
X0204381Y0275145D01*
X0204381Y0273547D02*
X0205143Y0273547D01*
X0205143Y0270350D02*
X0204381Y0270350D01*
X0204381Y0268751D02*
X0205143Y0268751D01*
X0205143Y0267153D02*
X0216381Y0267153D01*
X0216381Y0266419D02*
X0212600Y0266419D01*
X0212600Y0264004D01*
X0212722Y0263546D01*
X0212959Y0263136D01*
X0213294Y0262801D01*
X0213705Y0262564D01*
X0214163Y0262441D01*
X0216381Y0262441D01*
X0216381Y0266419D01*
X0216381Y0265554D02*
X0217143Y0265554D01*
X0217143Y0263956D02*
X0216381Y0263956D01*
X0216381Y0260759D02*
X0217143Y0260759D01*
X0217143Y0259160D02*
X0216381Y0259160D01*
X0216381Y0257562D02*
X0217143Y0257562D01*
X0220270Y0260759D02*
X0221254Y0260759D01*
X0221762Y0262357D02*
X0196562Y0262357D01*
X0193254Y0260759D02*
X0190062Y0260759D01*
X0190318Y0267517D02*
X0190318Y0268018D01*
X0189263Y0269072D01*
X0182260Y0269072D01*
X0181206Y0268018D01*
X0181206Y0263330D01*
X0181193Y0263343D01*
X0180121Y0263787D01*
X0180121Y0263908D01*
X0179066Y0264962D01*
X0172457Y0264962D01*
X0171403Y0263908D01*
X0171403Y0263540D01*
X0167123Y0263540D01*
X0166997Y0263666D01*
X0167494Y0264164D01*
X0167964Y0265299D01*
X0167964Y0266528D01*
X0167875Y0266743D01*
X0167875Y0272584D01*
X0167988Y0272697D01*
X0168560Y0272126D01*
X0177137Y0272126D01*
X0178192Y0273180D01*
X0178192Y0276083D01*
X0181206Y0276083D01*
X0181206Y0275582D01*
X0182260Y0274528D01*
X0189263Y0274528D01*
X0190318Y0275582D01*
X0190318Y0282585D01*
X0189263Y0283639D01*
X0182260Y0283639D01*
X0181206Y0282585D01*
X0181206Y0282083D01*
X0178192Y0282083D01*
X0178192Y0290420D01*
X0177137Y0291474D01*
X0168560Y0291474D01*
X0167505Y0290420D01*
X0167505Y0280699D01*
X0164018Y0277213D01*
X0164018Y0290420D01*
X0162964Y0291474D01*
X0154386Y0291474D01*
X0153332Y0290420D01*
X0153332Y0273180D01*
X0154386Y0272126D01*
X0155675Y0272126D01*
X0155675Y0267149D01*
X0156132Y0266046D01*
X0156976Y0265202D01*
X0158678Y0263500D01*
X0156337Y0263500D01*
X0156240Y0263540D01*
X0155047Y0263540D01*
X0154763Y0263423D01*
X0152536Y0263423D01*
X0151481Y0262368D01*
X0151481Y0258712D01*
X0151608Y0258585D01*
X0151604Y0258577D01*
X0151481Y0258120D01*
X0151481Y0256800D01*
X0155643Y0256800D01*
X0155643Y0256800D01*
X0151481Y0256800D01*
X0151481Y0256060D01*
X0150362Y0256060D01*
X0150362Y0291957D01*
X0155604Y0297200D01*
X0194712Y0297200D01*
X0194712Y0286054D01*
X0195766Y0285000D01*
X0198512Y0285000D01*
X0198512Y0282793D01*
X0196878Y0281159D01*
X0193654Y0281159D01*
X0192600Y0280105D01*
X0192600Y0273495D01*
X0193654Y0272441D01*
X0193762Y0272441D01*
X0193762Y0271159D01*
X0193654Y0271159D01*
X0192600Y0270105D01*
X0192600Y0267517D01*
X0190318Y0267517D01*
X0189584Y0268751D02*
X0192600Y0268751D01*
X0192845Y0270350D02*
X0167875Y0270350D01*
X0167875Y0271948D02*
X0193762Y0271948D01*
X0192600Y0273547D02*
X0178192Y0273547D01*
X0178192Y0275145D02*
X0181642Y0275145D01*
X0181939Y0268751D02*
X0167875Y0268751D01*
X0167875Y0267153D02*
X0181206Y0267153D01*
X0181206Y0265554D02*
X0167964Y0265554D01*
X0167286Y0263956D02*
X0171451Y0263956D01*
X0180073Y0263956D02*
X0181206Y0263956D01*
X0179240Y0256811D02*
X0182783Y0253268D01*
X0183886Y0252811D01*
X0187638Y0252811D01*
X0188741Y0253268D01*
X0189273Y0253800D01*
X0192600Y0253800D01*
X0192600Y0253495D01*
X0193654Y0252441D01*
X0197411Y0252441D01*
X0199955Y0249898D01*
X0201057Y0249441D01*
X0259899Y0249441D01*
X0261002Y0249898D01*
X0271462Y0260357D01*
X0271462Y0247753D01*
X0271919Y0246650D01*
X0296104Y0222465D01*
X0296193Y0222250D01*
X0297062Y0221381D01*
X0298197Y0220911D01*
X0299426Y0220911D01*
X0299641Y0221000D01*
X0320819Y0221000D01*
X0328562Y0213257D01*
X0328562Y0209954D01*
X0329216Y0209300D01*
X0328562Y0208646D01*
X0328562Y0204954D01*
X0329216Y0204300D01*
X0329116Y0204200D01*
X0321784Y0204200D01*
X0320902Y0203835D01*
X0316002Y0198935D01*
X0315327Y0198259D01*
X0314962Y0197377D01*
X0314962Y0157568D01*
X0314743Y0157350D01*
X0314273Y0156214D01*
X0314273Y0154986D01*
X0314743Y0153850D01*
X0315393Y0153200D01*
X0269222Y0153200D01*
X0269007Y0153289D01*
X0267778Y0153289D01*
X0266643Y0152819D01*
X0265774Y0151950D01*
X0265304Y0150814D01*
X0265304Y0149586D01*
X0265774Y0148450D01*
X0266643Y0147581D01*
X0267778Y0147111D01*
X0269007Y0147111D01*
X0269222Y0147200D01*
X0289773Y0147200D01*
X0289679Y0147106D01*
X0289369Y0147106D01*
X0288234Y0146636D01*
X0287365Y0145767D01*
X0286895Y0144631D01*
X0286895Y0143786D01*
X0280870Y0143786D01*
X0279988Y0143420D01*
X0276210Y0139642D01*
X0275713Y0140140D01*
X0274577Y0140610D01*
X0273349Y0140610D01*
X0272213Y0140140D01*
X0271995Y0139921D01*
X0266035Y0139921D01*
X0238462Y0167494D01*
X0238462Y0169543D01*
X0238462Y0170497D01*
X0238096Y0171379D01*
X0215373Y0194103D01*
X0215563Y0194181D01*
X0216432Y0195050D01*
X0216521Y0195265D01*
X0221691Y0200435D01*
X0221735Y0200479D01*
X0221741Y0200481D01*
X0222610Y0201350D01*
X0223080Y0202486D01*
X0223080Y0203714D01*
X0222610Y0204850D01*
X0221741Y0205719D01*
X0220606Y0206189D01*
X0219377Y0206189D01*
X0218242Y0205719D01*
X0217373Y0204850D01*
X0217197Y0204427D01*
X0212278Y0199508D01*
X0212064Y0199419D01*
X0211195Y0198550D01*
X0211116Y0198360D01*
X0178162Y0231314D01*
X0178162Y0248638D01*
X0179066Y0248638D01*
X0180121Y0249692D01*
X0180121Y0255908D01*
X0179229Y0256800D01*
X0179240Y0256811D01*
X0180065Y0255963D02*
X0180087Y0255963D01*
X0180121Y0254365D02*
X0181686Y0254365D01*
X0180121Y0252766D02*
X0193329Y0252766D01*
X0198685Y0251168D02*
X0180121Y0251168D01*
X0179998Y0249569D02*
X0200747Y0249569D01*
X0208924Y0255963D02*
X0212600Y0255963D01*
X0212600Y0257562D02*
X0208924Y0257562D01*
X0208924Y0259160D02*
X0212600Y0259160D01*
X0213254Y0260759D02*
X0208270Y0260759D01*
X0207819Y0262564D02*
X0208229Y0262801D01*
X0208564Y0263136D01*
X0208801Y0263546D01*
X0208924Y0264004D01*
X0208924Y0266419D01*
X0205143Y0266419D01*
X0205143Y0262441D01*
X0207361Y0262441D01*
X0207819Y0262564D01*
X0208911Y0263956D02*
X0212612Y0263956D01*
X0212600Y0265554D02*
X0208924Y0265554D01*
X0208924Y0268751D02*
X0212600Y0268751D01*
X0212893Y0270350D02*
X0208630Y0270350D01*
X0208802Y0273547D02*
X0212722Y0273547D01*
X0212722Y0273546D02*
X0212959Y0273136D01*
X0213294Y0272801D01*
X0213705Y0272564D01*
X0214163Y0272441D01*
X0216381Y0272441D01*
X0216381Y0276419D01*
X0212600Y0276419D01*
X0212600Y0274004D01*
X0212722Y0273546D01*
X0212600Y0275145D02*
X0208924Y0275145D01*
X0208924Y0278342D02*
X0212600Y0278342D01*
X0212692Y0279941D02*
X0208832Y0279941D01*
X0205143Y0279941D02*
X0204381Y0279941D01*
X0204381Y0278342D02*
X0205143Y0278342D01*
X0199762Y0271948D02*
X0221762Y0271948D01*
X0220845Y0270350D02*
X0220630Y0270350D01*
X0217143Y0270350D02*
X0216381Y0270350D01*
X0216381Y0268751D02*
X0217143Y0268751D01*
X0217143Y0273547D02*
X0216381Y0273547D01*
X0216381Y0275145D02*
X0217143Y0275145D01*
X0224265Y0281539D02*
X0239162Y0281539D01*
X0239162Y0279941D02*
X0228924Y0279941D01*
X0228924Y0278342D02*
X0239274Y0278342D01*
X0239162Y0278454D02*
X0240216Y0277400D01*
X0243907Y0277400D01*
X0244962Y0278454D01*
X0244962Y0285146D01*
X0243907Y0286200D01*
X0240216Y0286200D01*
X0239162Y0285146D01*
X0239162Y0278454D01*
X0240267Y0276077D02*
X0239857Y0275840D01*
X0239521Y0275505D01*
X0239284Y0275095D01*
X0239162Y0274637D01*
X0239162Y0271800D01*
X0242062Y0271800D01*
X0242062Y0271800D01*
X0242062Y0267400D01*
X0240725Y0267400D01*
X0240267Y0267523D01*
X0239857Y0267760D01*
X0239521Y0268095D01*
X0239284Y0268505D01*
X0239162Y0268963D01*
X0239162Y0271800D01*
X0242062Y0271800D01*
X0242062Y0276200D01*
X0240725Y0276200D01*
X0240267Y0276077D01*
X0239314Y0275145D02*
X0228924Y0275145D01*
X0228924Y0273547D02*
X0239162Y0273547D01*
X0239162Y0271948D02*
X0227762Y0271948D01*
X0228679Y0270350D02*
X0239162Y0270350D01*
X0239219Y0268751D02*
X0231379Y0268751D01*
X0232151Y0267153D02*
X0246462Y0267153D01*
X0246373Y0265554D02*
X0231931Y0265554D01*
X0230509Y0263956D02*
X0247237Y0263956D01*
X0251686Y0263956D02*
X0266575Y0263956D01*
X0268174Y0265554D02*
X0252551Y0265554D01*
X0252462Y0267153D02*
X0269772Y0267153D01*
X0267062Y0267400D02*
X0267062Y0271800D01*
X0267062Y0271800D01*
X0264162Y0271800D01*
X0264162Y0268963D01*
X0264284Y0268505D01*
X0264521Y0268095D01*
X0264857Y0267760D01*
X0265267Y0267523D01*
X0265725Y0267400D01*
X0267062Y0267400D01*
X0267062Y0268751D02*
X0267062Y0268751D01*
X0267062Y0270350D02*
X0267062Y0270350D01*
X0267062Y0271800D02*
X0267062Y0271800D01*
X0264162Y0271948D02*
X0255028Y0271948D01*
X0253594Y0270350D02*
X0264162Y0270350D01*
X0264219Y0268751D02*
X0252462Y0268751D01*
X0245162Y0278342D02*
X0244850Y0278342D01*
X0244962Y0279941D02*
X0246562Y0279941D01*
X0246562Y0281539D02*
X0244962Y0281539D01*
X0244962Y0283138D02*
X0246562Y0283138D01*
X0246562Y0284737D02*
X0244962Y0284737D01*
X0239162Y0284737D02*
X0223012Y0284737D01*
X0223012Y0283138D02*
X0239162Y0283138D01*
X0243437Y0276744D02*
X0228924Y0276744D01*
X0242062Y0275145D02*
X0242062Y0275145D01*
X0242062Y0273547D02*
X0242062Y0273547D01*
X0242062Y0271948D02*
X0242062Y0271948D01*
X0242062Y0271800D02*
X0242062Y0271800D01*
X0242062Y0270350D02*
X0242062Y0270350D01*
X0242062Y0268751D02*
X0242062Y0268751D01*
X0252362Y0279941D02*
X0264162Y0279941D01*
X0264162Y0281539D02*
X0252362Y0281539D01*
X0252362Y0283138D02*
X0264162Y0283138D01*
X0264162Y0284737D02*
X0252362Y0284737D01*
X0269962Y0284737D02*
X0271562Y0284737D01*
X0271562Y0283138D02*
X0269962Y0283138D01*
X0269962Y0281539D02*
X0271562Y0281539D01*
X0271562Y0279941D02*
X0269962Y0279941D01*
X0277362Y0279941D02*
X0285419Y0279941D01*
X0286524Y0282485D02*
X0286982Y0282362D01*
X0289987Y0282362D01*
X0289987Y0286537D01*
X0285419Y0286537D01*
X0285419Y0283925D01*
X0285541Y0283467D01*
X0285778Y0283057D01*
X0286113Y0282722D01*
X0286524Y0282485D01*
X0285731Y0283138D02*
X0277362Y0283138D01*
X0277362Y0284737D02*
X0285419Y0284737D01*
X0285419Y0286335D02*
X0226812Y0286335D01*
X0200893Y0270350D02*
X0200679Y0270350D01*
X0204381Y0265554D02*
X0205143Y0265554D01*
X0205143Y0263956D02*
X0204381Y0263956D01*
X0204381Y0260759D02*
X0205143Y0260759D01*
X0205143Y0259160D02*
X0204381Y0259160D01*
X0204381Y0257562D02*
X0205143Y0257562D01*
X0201254Y0260759D02*
X0200270Y0260759D01*
X0192600Y0275145D02*
X0189881Y0275145D01*
X0190318Y0276744D02*
X0192600Y0276744D01*
X0192600Y0278342D02*
X0190318Y0278342D01*
X0190318Y0279941D02*
X0192600Y0279941D01*
X0190318Y0281539D02*
X0197259Y0281539D01*
X0198512Y0283138D02*
X0189765Y0283138D01*
X0181759Y0283138D02*
X0178192Y0283138D01*
X0178192Y0284737D02*
X0198512Y0284737D01*
X0194712Y0286335D02*
X0178192Y0286335D01*
X0178192Y0287934D02*
X0194712Y0287934D01*
X0194712Y0289532D02*
X0178192Y0289532D01*
X0177481Y0291131D02*
X0194712Y0291131D01*
X0194712Y0292729D02*
X0151134Y0292729D01*
X0150362Y0291131D02*
X0154043Y0291131D01*
X0153332Y0289532D02*
X0150362Y0289532D01*
X0150362Y0287934D02*
X0153332Y0287934D01*
X0153332Y0286335D02*
X0150362Y0286335D01*
X0150362Y0284737D02*
X0153332Y0284737D01*
X0153332Y0283138D02*
X0150362Y0283138D01*
X0150362Y0281539D02*
X0153332Y0281539D01*
X0153332Y0279941D02*
X0150362Y0279941D01*
X0150362Y0278342D02*
X0153332Y0278342D01*
X0153332Y0276744D02*
X0150362Y0276744D01*
X0150362Y0275145D02*
X0153332Y0275145D01*
X0153332Y0273547D02*
X0150362Y0273547D01*
X0150362Y0271948D02*
X0155675Y0271948D01*
X0155675Y0270350D02*
X0150362Y0270350D01*
X0150362Y0268751D02*
X0155675Y0268751D01*
X0155675Y0267153D02*
X0150362Y0267153D01*
X0150362Y0265554D02*
X0156623Y0265554D01*
X0158222Y0263956D02*
X0150362Y0263956D01*
X0150362Y0262357D02*
X0151481Y0262357D01*
X0151481Y0260759D02*
X0150362Y0260759D01*
X0150362Y0259160D02*
X0151481Y0259160D01*
X0151481Y0257562D02*
X0150362Y0257562D01*
X0155643Y0256800D02*
X0159805Y0256800D01*
X0155643Y0256800D01*
X0155643Y0256800D01*
X0159805Y0255963D02*
X0171458Y0255963D01*
X0171526Y0249569D02*
X0128326Y0249569D01*
X0128326Y0247971D02*
X0173362Y0247971D01*
X0173362Y0246372D02*
X0128326Y0246372D01*
X0128326Y0244774D02*
X0173362Y0244774D01*
X0173362Y0243175D02*
X0128326Y0243175D01*
X0128968Y0241577D02*
X0173362Y0241577D01*
X0173362Y0239978D02*
X0130566Y0239978D01*
X0132165Y0238380D02*
X0173362Y0238380D01*
X0173362Y0236781D02*
X0133763Y0236781D01*
X0135362Y0235183D02*
X0173362Y0235183D01*
X0173362Y0233584D02*
X0136960Y0233584D01*
X0138559Y0231986D02*
X0173362Y0231986D01*
X0173362Y0230387D02*
X0140157Y0230387D01*
X0145515Y0228789D02*
X0173899Y0228789D01*
X0175498Y0227190D02*
X0152114Y0227190D01*
X0153713Y0225592D02*
X0177096Y0225592D01*
X0178695Y0223993D02*
X0155311Y0223993D01*
X0156910Y0222395D02*
X0180293Y0222395D01*
X0181892Y0220796D02*
X0158508Y0220796D01*
X0160107Y0219198D02*
X0183490Y0219198D01*
X0185089Y0217599D02*
X0161705Y0217599D01*
X0163304Y0216001D02*
X0186687Y0216001D01*
X0187528Y0214402D02*
X0188286Y0214402D01*
X0188690Y0212803D02*
X0189884Y0212803D01*
X0188851Y0211205D02*
X0191483Y0211205D01*
X0193081Y0209606D02*
X0189753Y0209606D01*
X0190515Y0208008D02*
X0194680Y0208008D01*
X0196278Y0206409D02*
X0190515Y0206409D01*
X0190515Y0204811D02*
X0197877Y0204811D01*
X0199475Y0203212D02*
X0190515Y0203212D01*
X0190265Y0201614D02*
X0201074Y0201614D01*
X0202672Y0200015D02*
X0190515Y0200015D01*
X0190515Y0198417D02*
X0204271Y0198417D01*
X0205869Y0196818D02*
X0190515Y0196818D01*
X0190515Y0195220D02*
X0207468Y0195220D01*
X0209066Y0193621D02*
X0183010Y0193621D01*
X0183241Y0192023D02*
X0210665Y0192023D01*
X0212263Y0190424D02*
X0183241Y0190424D01*
X0183241Y0188826D02*
X0191556Y0188826D01*
X0189958Y0187227D02*
X0183241Y0187227D01*
X0183241Y0185629D02*
X0188359Y0185629D01*
X0184039Y0184030D02*
X0183241Y0184030D01*
X0183825Y0183816D02*
X0183825Y0183816D01*
X0178441Y0184030D02*
X0177362Y0184030D01*
X0177362Y0182891D02*
X0177362Y0190277D01*
X0176996Y0191159D01*
X0176321Y0191835D01*
X0174652Y0193504D01*
X0176530Y0193504D01*
X0178441Y0191593D01*
X0178441Y0182891D01*
X0177362Y0182891D01*
X0177362Y0185629D02*
X0178441Y0185629D01*
X0178441Y0187227D02*
X0177362Y0187227D01*
X0177362Y0188826D02*
X0178441Y0188826D01*
X0178441Y0190424D02*
X0177301Y0190424D01*
X0178011Y0192023D02*
X0176133Y0192023D01*
X0172542Y0188826D02*
X0127546Y0188826D01*
X0129144Y0187227D02*
X0172562Y0187227D01*
X0172562Y0185629D02*
X0165170Y0185629D01*
X0166248Y0184030D02*
X0172562Y0184030D01*
X0170943Y0190424D02*
X0125947Y0190424D01*
X0124349Y0192023D02*
X0158011Y0192023D01*
X0152537Y0193621D02*
X0143799Y0193621D01*
X0143819Y0193627D02*
X0144229Y0193864D01*
X0144564Y0194199D01*
X0144801Y0194609D01*
X0144924Y0195067D01*
X0144924Y0197285D01*
X0141143Y0197285D01*
X0141143Y0193504D01*
X0143361Y0193504D01*
X0143819Y0193627D01*
X0144924Y0195220D02*
X0151600Y0195220D01*
X0151600Y0196818D02*
X0144924Y0196818D01*
X0144924Y0198417D02*
X0151600Y0198417D01*
X0151600Y0200015D02*
X0144924Y0200015D01*
X0143978Y0201614D02*
X0152440Y0201614D01*
X0151600Y0203212D02*
X0144924Y0203212D01*
X0144924Y0204811D02*
X0151600Y0204811D01*
X0151600Y0206409D02*
X0144924Y0206409D01*
X0144924Y0208008D02*
X0151600Y0208008D01*
X0152164Y0209606D02*
X0144359Y0209606D01*
X0143762Y0211205D02*
X0159614Y0211205D01*
X0159359Y0209606D02*
X0160262Y0209606D01*
X0160262Y0208008D02*
X0159924Y0208008D01*
X0157876Y0205934D02*
X0155762Y0205934D01*
X0157876Y0205934D02*
X0162229Y0201581D01*
X0162241Y0201581D01*
X0165762Y0198060D01*
X0175762Y0205934D02*
X0177876Y0205934D01*
X0182229Y0201581D01*
X0182241Y0201581D01*
X0185762Y0198060D01*
X0199869Y0209606D02*
X0285943Y0209606D01*
X0285989Y0209652D02*
X0285009Y0208673D01*
X0284479Y0207393D01*
X0284479Y0206007D01*
X0285009Y0204727D01*
X0285989Y0203748D01*
X0287269Y0203217D01*
X0288655Y0203217D01*
X0289935Y0203748D01*
X0290387Y0204200D01*
X0292116Y0204200D01*
X0291562Y0203646D01*
X0291562Y0199954D01*
X0292216Y0199300D01*
X0291562Y0198646D01*
X0291562Y0194954D01*
X0292216Y0194300D01*
X0291562Y0193646D01*
X0291562Y0189954D01*
X0292216Y0189300D01*
X0291562Y0188646D01*
X0291562Y0188634D01*
X0291214Y0189473D01*
X0290235Y0190452D01*
X0288955Y0190983D01*
X0287569Y0190983D01*
X0286289Y0190452D01*
X0285309Y0189473D01*
X0284779Y0188193D01*
X0284779Y0186807D01*
X0285309Y0185527D01*
X0286289Y0184548D01*
X0286884Y0184301D01*
X0290858Y0180327D01*
X0291589Y0179596D01*
X0292155Y0179362D01*
X0292216Y0179300D01*
X0291943Y0179026D01*
X0291889Y0179004D01*
X0291158Y0178273D01*
X0289068Y0176183D01*
X0288569Y0176183D01*
X0287289Y0175652D01*
X0286309Y0174673D01*
X0285779Y0173393D01*
X0285779Y0172007D01*
X0286309Y0170727D01*
X0287289Y0169748D01*
X0288569Y0169217D01*
X0289955Y0169217D01*
X0291235Y0169748D01*
X0291644Y0170157D01*
X0291684Y0170005D01*
X0291921Y0169595D01*
X0292257Y0169260D01*
X0292667Y0169023D01*
X0293125Y0168900D01*
X0297262Y0168900D01*
X0301399Y0168900D01*
X0301857Y0169023D01*
X0302267Y0169260D01*
X0302602Y0169595D01*
X0302839Y0170005D01*
X0302962Y0170463D01*
X0302962Y0171800D01*
X0302962Y0173137D01*
X0302839Y0173595D01*
X0302602Y0174005D01*
X0302307Y0174300D01*
X0302962Y0174954D01*
X0302962Y0178646D01*
X0302307Y0179300D01*
X0302962Y0179954D01*
X0302962Y0183646D01*
X0302307Y0184300D01*
X0302962Y0184954D01*
X0302962Y0188646D01*
X0302307Y0189300D01*
X0302962Y0189954D01*
X0302962Y0193646D01*
X0302307Y0194300D01*
X0302962Y0194954D01*
X0302962Y0198646D01*
X0302307Y0199300D01*
X0302962Y0199954D01*
X0302962Y0203646D01*
X0302307Y0204300D01*
X0302962Y0204954D01*
X0302962Y0208646D01*
X0302382Y0209225D01*
X0303035Y0209496D01*
X0303766Y0210227D01*
X0304656Y0211117D01*
X0305155Y0211117D01*
X0306435Y0211648D01*
X0307414Y0212627D01*
X0307944Y0213907D01*
X0307944Y0215293D01*
X0307414Y0216573D01*
X0306435Y0217552D01*
X0305155Y0218083D01*
X0303769Y0218083D01*
X0302489Y0217552D01*
X0301509Y0216573D01*
X0300979Y0215293D01*
X0300979Y0214794D01*
X0300885Y0214700D01*
X0292616Y0214700D01*
X0291562Y0213646D01*
X0291562Y0209954D01*
X0292116Y0209400D01*
X0290187Y0209400D01*
X0289935Y0209652D01*
X0288655Y0210183D01*
X0287269Y0210183D01*
X0285989Y0209652D01*
X0284734Y0208008D02*
X0201468Y0208008D01*
X0203066Y0206409D02*
X0284479Y0206409D01*
X0284975Y0204811D02*
X0222626Y0204811D01*
X0223080Y0203212D02*
X0291562Y0203212D01*
X0291562Y0201614D02*
X0222719Y0201614D01*
X0221271Y0200015D02*
X0291562Y0200015D01*
X0291562Y0198417D02*
X0219673Y0198417D01*
X0218074Y0196818D02*
X0291562Y0196818D01*
X0291562Y0195220D02*
X0216502Y0195220D01*
X0215855Y0193621D02*
X0291562Y0193621D01*
X0291562Y0192023D02*
X0217453Y0192023D01*
X0219052Y0190424D02*
X0286261Y0190424D01*
X0285041Y0188826D02*
X0220650Y0188826D01*
X0222249Y0187227D02*
X0284779Y0187227D01*
X0285267Y0185629D02*
X0223847Y0185629D01*
X0225446Y0184030D02*
X0287155Y0184030D01*
X0288753Y0182432D02*
X0227044Y0182432D01*
X0228643Y0180833D02*
X0290352Y0180833D01*
X0292151Y0179235D02*
X0230241Y0179235D01*
X0231840Y0177636D02*
X0290521Y0177636D01*
X0288219Y0176038D02*
X0233438Y0176038D01*
X0235037Y0174439D02*
X0286213Y0174439D01*
X0285779Y0172841D02*
X0236635Y0172841D01*
X0238153Y0171242D02*
X0286096Y0171242D01*
X0287540Y0169644D02*
X0238462Y0169644D01*
X0238462Y0168045D02*
X0314962Y0168045D01*
X0314962Y0166447D02*
X0239509Y0166447D01*
X0241108Y0164848D02*
X0314962Y0164848D01*
X0314962Y0163250D02*
X0242706Y0163250D01*
X0244305Y0161651D02*
X0314962Y0161651D01*
X0314962Y0160053D02*
X0245903Y0160053D01*
X0247502Y0158454D02*
X0314962Y0158454D01*
X0314538Y0156856D02*
X0249100Y0156856D01*
X0250699Y0155257D02*
X0314273Y0155257D01*
X0314935Y0153659D02*
X0252297Y0153659D01*
X0253896Y0152060D02*
X0265884Y0152060D01*
X0265304Y0150462D02*
X0255494Y0150462D01*
X0257093Y0148863D02*
X0265603Y0148863D01*
X0267407Y0147265D02*
X0258691Y0147265D01*
X0260290Y0145666D02*
X0287324Y0145666D01*
X0286895Y0144068D02*
X0261888Y0144068D01*
X0263487Y0142469D02*
X0279037Y0142469D01*
X0277438Y0140870D02*
X0265085Y0140870D01*
X0261494Y0137673D02*
X0235762Y0137673D01*
X0235762Y0138077D02*
X0235396Y0138959D01*
X0232569Y0141787D01*
X0231853Y0142084D01*
X0231853Y0151564D01*
X0231853Y0165343D01*
X0231221Y0165343D01*
X0231221Y0165343D01*
X0231221Y0165343D01*
X0231853Y0165343D01*
X0231853Y0166171D01*
X0231811Y0166328D01*
X0231853Y0166484D01*
X0231853Y0167312D01*
X0231853Y0170835D01*
X0233662Y0169026D01*
X0233662Y0166023D01*
X0234027Y0165141D01*
X0263681Y0135487D01*
X0264563Y0135121D01*
X0265518Y0135121D01*
X0271689Y0135121D01*
X0253130Y0116562D01*
X0241951Y0116562D01*
X0241951Y0117266D01*
X0241481Y0118401D01*
X0240612Y0119270D01*
X0239942Y0119547D01*
X0242826Y0119547D01*
X0243262Y0119983D01*
X0243697Y0119547D01*
X0250307Y0119547D01*
X0251361Y0120602D01*
X0251361Y0127998D01*
X0250307Y0129053D01*
X0250002Y0129053D01*
X0250002Y0129226D01*
X0250151Y0129586D01*
X0250151Y0130814D01*
X0249681Y0131950D01*
X0248812Y0132819D01*
X0247676Y0133289D01*
X0246447Y0133289D01*
X0245312Y0132819D01*
X0244443Y0131950D01*
X0243973Y0130814D01*
X0243973Y0129586D01*
X0244002Y0129515D01*
X0244002Y0129053D01*
X0243697Y0129053D01*
X0243262Y0128617D01*
X0242826Y0129053D01*
X0236772Y0129053D01*
X0236811Y0129146D01*
X0236811Y0130374D01*
X0236340Y0131510D01*
X0236122Y0131729D01*
X0236451Y0132524D01*
X0236451Y0133752D01*
X0235981Y0134888D01*
X0235762Y0135106D01*
X0235762Y0138077D01*
X0235084Y0139272D02*
X0259896Y0139272D01*
X0258297Y0140870D02*
X0233485Y0140870D01*
X0231853Y0142469D02*
X0256699Y0142469D01*
X0255100Y0144068D02*
X0231853Y0144068D01*
X0231853Y0145666D02*
X0253502Y0145666D01*
X0251903Y0147265D02*
X0231853Y0147265D01*
X0231853Y0148863D02*
X0250305Y0148863D01*
X0248706Y0150462D02*
X0231853Y0150462D01*
X0231853Y0151564D02*
X0231221Y0151564D01*
X0231853Y0151564D01*
X0231853Y0152060D02*
X0247108Y0152060D01*
X0245509Y0153659D02*
X0231853Y0153659D01*
X0231853Y0155257D02*
X0243911Y0155257D01*
X0242312Y0156856D02*
X0231853Y0156856D01*
X0231853Y0158454D02*
X0240714Y0158454D01*
X0239115Y0160053D02*
X0231853Y0160053D01*
X0231853Y0161651D02*
X0237517Y0161651D01*
X0235918Y0163250D02*
X0231853Y0163250D01*
X0231853Y0164848D02*
X0234320Y0164848D01*
X0233662Y0166447D02*
X0231843Y0166447D01*
X0231853Y0167312D02*
X0231221Y0167312D01*
X0231853Y0167312D01*
X0231221Y0167312D02*
X0231221Y0167312D01*
X0231221Y0167312D01*
X0231853Y0168045D02*
X0233662Y0168045D01*
X0233044Y0169644D02*
X0231853Y0169644D01*
X0228085Y0171680D02*
X0228085Y0171680D01*
X0228085Y0173639D01*
X0229048Y0173639D01*
X0222601Y0180086D01*
X0222601Y0179623D01*
X0222611Y0179600D01*
X0222611Y0170743D01*
X0223202Y0171335D01*
X0224084Y0171700D01*
X0224316Y0171700D01*
X0224316Y0172076D01*
X0224439Y0172534D01*
X0224676Y0172945D01*
X0225011Y0173280D01*
X0225421Y0173517D01*
X0225879Y0173639D01*
X0228085Y0173639D01*
X0228085Y0171680D01*
X0228085Y0172841D02*
X0228085Y0172841D01*
X0228248Y0174439D02*
X0222611Y0174439D01*
X0222611Y0172841D02*
X0224616Y0172841D01*
X0223110Y0171242D02*
X0222611Y0171242D01*
X0224316Y0165660D02*
X0224316Y0165343D01*
X0224316Y0162100D01*
X0223376Y0162489D01*
X0222147Y0162489D01*
X0221012Y0162019D01*
X0220143Y0161150D01*
X0219673Y0160014D01*
X0219673Y0158786D01*
X0220143Y0157650D01*
X0221012Y0156781D01*
X0222147Y0156311D01*
X0223376Y0156311D01*
X0224316Y0156700D01*
X0224316Y0151564D01*
X0224948Y0151564D01*
X0224949Y0151564D01*
X0224948Y0151564D01*
X0224316Y0151564D01*
X0224316Y0148014D01*
X0224112Y0148219D01*
X0222976Y0148689D01*
X0221747Y0148689D01*
X0220612Y0148219D01*
X0219743Y0147350D01*
X0219273Y0146214D01*
X0219273Y0144986D01*
X0219743Y0143850D01*
X0220612Y0142981D01*
X0221747Y0142511D01*
X0222976Y0142511D01*
X0224112Y0142981D01*
X0224316Y0143186D01*
X0224316Y0125973D01*
X0224316Y0125146D01*
X0224358Y0124989D01*
X0224316Y0124832D01*
X0224316Y0124436D01*
X0222483Y0124436D01*
X0222301Y0124619D01*
X0221165Y0125089D01*
X0219936Y0125089D01*
X0218801Y0124619D01*
X0218762Y0124579D01*
X0218762Y0146940D01*
X0219521Y0147700D01*
X0219991Y0148835D01*
X0219991Y0150064D01*
X0219521Y0151199D01*
X0218652Y0152068D01*
X0217517Y0152538D01*
X0216288Y0152538D01*
X0215153Y0152068D01*
X0214284Y0151199D01*
X0214195Y0150984D01*
X0213219Y0150008D01*
X0212762Y0148905D01*
X0212762Y0112629D01*
X0212673Y0112414D01*
X0212673Y0111186D01*
X0213143Y0110050D01*
X0213462Y0109732D01*
X0213462Y0105631D01*
X0207725Y0099894D01*
X0206378Y0098547D01*
X0206378Y0098246D01*
X0202916Y0098246D01*
X0202916Y0102523D01*
X0202551Y0103405D01*
X0201876Y0104080D01*
X0201876Y0104080D01*
X0198162Y0107794D01*
X0198162Y0139506D01*
X0214217Y0155561D01*
X0214428Y0155561D01*
X0215563Y0156031D01*
X0216432Y0156900D01*
X0216902Y0158036D01*
X0216902Y0158246D01*
X0221671Y0163015D01*
X0221671Y0163015D01*
X0222346Y0163691D01*
X0224316Y0165660D01*
X0224316Y0165343D02*
X0224948Y0165343D01*
X0224316Y0165343D01*
X0224316Y0164848D02*
X0223504Y0164848D01*
X0224948Y0165343D02*
X0224949Y0165343D01*
X0224948Y0165343D01*
X0224316Y0163250D02*
X0221906Y0163250D01*
X0220644Y0161651D02*
X0220307Y0161651D01*
X0219689Y0160053D02*
X0218709Y0160053D01*
X0219810Y0158454D02*
X0217110Y0158454D01*
X0216387Y0156856D02*
X0220938Y0156856D01*
X0224316Y0155257D02*
X0213913Y0155257D01*
X0212314Y0153659D02*
X0224316Y0153659D01*
X0224316Y0152060D02*
X0218660Y0152060D01*
X0219827Y0150462D02*
X0224316Y0150462D01*
X0224316Y0148863D02*
X0219991Y0148863D01*
X0219708Y0147265D02*
X0219086Y0147265D01*
X0219273Y0145666D02*
X0218762Y0145666D01*
X0218762Y0144068D02*
X0219653Y0144068D01*
X0218762Y0142469D02*
X0224316Y0142469D01*
X0224316Y0140870D02*
X0218762Y0140870D01*
X0218762Y0139272D02*
X0224316Y0139272D01*
X0224316Y0137673D02*
X0218762Y0137673D01*
X0218762Y0136075D02*
X0224316Y0136075D01*
X0224316Y0134476D02*
X0218762Y0134476D01*
X0218762Y0132878D02*
X0224316Y0132878D01*
X0224316Y0131279D02*
X0218762Y0131279D01*
X0218762Y0129681D02*
X0224316Y0129681D01*
X0224316Y0128082D02*
X0218762Y0128082D01*
X0218762Y0126484D02*
X0224316Y0126484D01*
X0224316Y0125973D02*
X0224948Y0125973D01*
X0224316Y0125973D01*
X0224948Y0125973D02*
X0224949Y0125973D01*
X0224948Y0125973D01*
X0224330Y0124885D02*
X0221657Y0124885D01*
X0219445Y0124885D02*
X0218762Y0124885D01*
X0218762Y0119421D02*
X0218801Y0119381D01*
X0219936Y0118911D01*
X0221165Y0118911D01*
X0222301Y0119381D01*
X0222555Y0119636D01*
X0224316Y0119636D01*
X0224316Y0118732D01*
X0224316Y0112500D01*
X0221014Y0112500D01*
X0220762Y0112753D01*
X0219414Y0114100D01*
X0218762Y0114100D01*
X0218762Y0119421D01*
X0218762Y0118491D02*
X0224316Y0118491D01*
X0224316Y0116893D02*
X0218762Y0116893D01*
X0218762Y0115294D02*
X0224316Y0115294D01*
X0224316Y0113696D02*
X0219819Y0113696D01*
X0218109Y0108900D02*
X0218062Y0108900D01*
X0218062Y0107302D02*
X0224316Y0107302D01*
X0224316Y0105703D02*
X0218062Y0105703D01*
X0218062Y0104105D02*
X0224316Y0104105D01*
X0224316Y0102506D02*
X0216842Y0102506D01*
X0215244Y0100908D02*
X0224423Y0100908D01*
X0222082Y0097711D02*
X0238465Y0097711D01*
X0237593Y0099309D02*
X0213645Y0099309D01*
X0212337Y0098001D02*
X0212337Y0097613D01*
X0212337Y0097613D01*
X0212337Y0097613D01*
X0212337Y0098001D01*
X0212337Y0098001D01*
X0212337Y0097711D02*
X0212337Y0097711D01*
X0208738Y0100908D02*
X0202916Y0100908D01*
X0202916Y0102506D02*
X0210337Y0102506D01*
X0211935Y0104105D02*
X0201851Y0104105D01*
X0200253Y0105703D02*
X0213462Y0105703D01*
X0213462Y0107302D02*
X0198654Y0107302D01*
X0198162Y0108900D02*
X0213462Y0108900D01*
X0212957Y0110499D02*
X0198162Y0110499D01*
X0198162Y0112097D02*
X0212673Y0112097D01*
X0212762Y0113696D02*
X0198162Y0113696D01*
X0198162Y0115294D02*
X0212762Y0115294D01*
X0212762Y0116893D02*
X0198162Y0116893D01*
X0198162Y0118491D02*
X0212762Y0118491D01*
X0212762Y0120090D02*
X0198162Y0120090D01*
X0198162Y0121688D02*
X0212762Y0121688D01*
X0212762Y0123287D02*
X0198162Y0123287D01*
X0198162Y0124885D02*
X0212762Y0124885D01*
X0212762Y0126484D02*
X0198162Y0126484D01*
X0198162Y0128082D02*
X0212762Y0128082D01*
X0212762Y0129681D02*
X0198162Y0129681D01*
X0198162Y0131279D02*
X0212762Y0131279D01*
X0212762Y0132878D02*
X0198162Y0132878D01*
X0198162Y0134476D02*
X0212762Y0134476D01*
X0212762Y0136075D02*
X0198162Y0136075D01*
X0198162Y0137673D02*
X0212762Y0137673D01*
X0212762Y0139272D02*
X0198162Y0139272D01*
X0199526Y0140870D02*
X0212762Y0140870D01*
X0212762Y0142469D02*
X0201125Y0142469D01*
X0202723Y0144068D02*
X0212762Y0144068D01*
X0212762Y0145666D02*
X0204322Y0145666D01*
X0205920Y0147265D02*
X0212762Y0147265D01*
X0212762Y0148863D02*
X0207519Y0148863D01*
X0209117Y0150462D02*
X0213672Y0150462D01*
X0215145Y0152060D02*
X0210716Y0152060D01*
X0207125Y0155257D02*
X0163651Y0155257D01*
X0163651Y0155016D02*
X0163651Y0170908D01*
X0163285Y0171790D01*
X0160127Y0174948D01*
X0159722Y0175354D01*
X0160015Y0175354D01*
X0175023Y0175354D01*
X0175047Y0175298D01*
X0186654Y0163691D01*
X0187329Y0163015D01*
X0188211Y0162650D01*
X0214518Y0162650D01*
X0213607Y0161739D01*
X0213199Y0161739D01*
X0212064Y0161269D01*
X0211195Y0160400D01*
X0210724Y0159264D01*
X0210724Y0158857D01*
X0193727Y0141859D01*
X0193362Y0140977D01*
X0193362Y0125305D01*
X0163651Y0155016D01*
X0163651Y0156856D02*
X0208723Y0156856D01*
X0210322Y0158454D02*
X0163651Y0158454D01*
X0163651Y0160053D02*
X0211051Y0160053D01*
X0212987Y0161651D02*
X0163651Y0161651D01*
X0163651Y0163250D02*
X0187095Y0163250D01*
X0185497Y0164848D02*
X0163651Y0164848D01*
X0163651Y0166447D02*
X0183898Y0166447D01*
X0182299Y0168045D02*
X0163651Y0168045D01*
X0163651Y0169644D02*
X0180701Y0169644D01*
X0179102Y0171242D02*
X0163513Y0171242D01*
X0162235Y0172841D02*
X0177504Y0172841D01*
X0175905Y0174439D02*
X0160637Y0174439D01*
X0159187Y0182259D02*
X0159187Y0182259D01*
X0159187Y0182259D01*
X0159187Y0182891D01*
X0159187Y0182259D01*
X0159187Y0182432D02*
X0159187Y0182432D01*
X0160275Y0184030D02*
X0132341Y0184030D01*
X0133940Y0182432D02*
X0149517Y0182432D01*
X0148922Y0180833D02*
X0139754Y0180833D01*
X0141319Y0179235D02*
X0148922Y0179235D01*
X0148922Y0177636D02*
X0142255Y0177636D01*
X0143854Y0176038D02*
X0149293Y0176038D01*
X0161354Y0185629D02*
X0130743Y0185629D01*
X0135538Y0180833D02*
X0137205Y0180833D01*
X0138163Y0193504D02*
X0140381Y0193504D01*
X0140381Y0197285D01*
X0136600Y0197285D01*
X0136600Y0195067D01*
X0136722Y0194609D01*
X0136959Y0194199D01*
X0137294Y0193864D01*
X0137705Y0193627D01*
X0138163Y0193504D01*
X0137724Y0193621D02*
X0122750Y0193621D01*
X0121152Y0195220D02*
X0136600Y0195220D01*
X0136600Y0196818D02*
X0119553Y0196818D01*
X0117954Y0198417D02*
X0136600Y0198417D01*
X0136600Y0200015D02*
X0116356Y0200015D01*
X0114757Y0201614D02*
X0137546Y0201614D01*
X0136600Y0203212D02*
X0113162Y0203212D01*
X0113162Y0204811D02*
X0136600Y0204811D01*
X0136600Y0206409D02*
X0113162Y0206409D01*
X0113162Y0208008D02*
X0136600Y0208008D01*
X0137164Y0209606D02*
X0113162Y0209606D01*
X0113162Y0211205D02*
X0137762Y0211205D01*
X0137762Y0212803D02*
X0113162Y0212803D01*
X0113162Y0214402D02*
X0136362Y0214402D01*
X0136009Y0216001D02*
X0113162Y0216001D01*
X0113162Y0217599D02*
X0136009Y0217599D01*
X0136009Y0219198D02*
X0113162Y0219198D01*
X0113162Y0220796D02*
X0136009Y0220796D01*
X0136009Y0222395D02*
X0113162Y0222395D01*
X0113162Y0223993D02*
X0136009Y0223993D01*
X0136009Y0225592D02*
X0113162Y0225592D01*
X0113162Y0227190D02*
X0134869Y0227190D01*
X0133271Y0228789D02*
X0114539Y0228789D01*
X0115562Y0230387D02*
X0131672Y0230387D01*
X0130074Y0231986D02*
X0115562Y0231986D01*
X0115562Y0233584D02*
X0128475Y0233584D01*
X0126877Y0235183D02*
X0114167Y0235183D01*
X0112750Y0237000D02*
X0115562Y0239812D01*
X0115562Y0241600D01*
X0110962Y0241600D01*
X0110962Y0242000D01*
X0115562Y0242000D01*
X0115562Y0243788D01*
X0112750Y0246600D01*
X0110962Y0246600D01*
X0110962Y0242000D01*
X0110562Y0242000D01*
X0110562Y0246600D01*
X0108774Y0246600D01*
X0105962Y0243788D01*
X0105962Y0242000D01*
X0110562Y0242000D01*
X0110562Y0241600D01*
X0110962Y0241600D01*
X0110962Y0237000D01*
X0112750Y0237000D01*
X0114130Y0238380D02*
X0123680Y0238380D01*
X0122492Y0239978D02*
X0115562Y0239978D01*
X0115562Y0241577D02*
X0122326Y0241577D01*
X0122326Y0243175D02*
X0115562Y0243175D01*
X0114576Y0244774D02*
X0122326Y0244774D01*
X0122326Y0246372D02*
X0112978Y0246372D01*
X0110962Y0246372D02*
X0110562Y0246372D01*
X0110562Y0244774D02*
X0110962Y0244774D01*
X0110962Y0243175D02*
X0110562Y0243175D01*
X0110562Y0241600D02*
X0105962Y0241600D01*
X0105962Y0239812D01*
X0108774Y0237000D01*
X0110562Y0237000D01*
X0110562Y0241600D01*
X0110562Y0241577D02*
X0110962Y0241577D01*
X0110962Y0239978D02*
X0110562Y0239978D01*
X0110562Y0238380D02*
X0110962Y0238380D01*
X0107394Y0238380D02*
X0104130Y0238380D01*
X0105114Y0236781D02*
X0125278Y0236781D01*
X0122326Y0247971D02*
X0093162Y0247971D01*
X0093162Y0246372D02*
X0098546Y0246372D01*
X0096947Y0244774D02*
X0094576Y0244774D01*
X0095562Y0243175D02*
X0095962Y0243175D01*
X0095962Y0241577D02*
X0095562Y0241577D01*
X0092387Y0236781D02*
X0079986Y0236781D01*
X0084130Y0238380D02*
X0087394Y0238380D01*
X0085962Y0239978D02*
X0085562Y0239978D01*
X0085562Y0241577D02*
X0085962Y0241577D01*
X0085962Y0243175D02*
X0085562Y0243175D01*
X0084576Y0244774D02*
X0086947Y0244774D01*
X0088362Y0246372D02*
X0082978Y0246372D01*
X0078546Y0246372D02*
X0072978Y0246372D01*
X0070962Y0246372D02*
X0070562Y0246372D01*
X0070562Y0244774D02*
X0070962Y0244774D01*
X0070962Y0243175D02*
X0070562Y0243175D01*
X0068546Y0246372D02*
X0028562Y0246372D01*
X0028562Y0244774D02*
X0066947Y0244774D01*
X0065962Y0243175D02*
X0028562Y0243175D01*
X0028562Y0241577D02*
X0065962Y0241577D01*
X0065962Y0239978D02*
X0028562Y0239978D01*
X0028562Y0238380D02*
X0066311Y0238380D01*
X0064712Y0236781D02*
X0028562Y0236781D01*
X0028562Y0235183D02*
X0063292Y0235183D01*
X0062962Y0233584D02*
X0028562Y0233584D01*
X0028562Y0231986D02*
X0062962Y0231986D01*
X0062962Y0230387D02*
X0028562Y0230387D01*
X0028562Y0228789D02*
X0063138Y0228789D01*
X0064341Y0227190D02*
X0028562Y0227190D01*
X0028562Y0225592D02*
X0065273Y0225592D01*
X0065273Y0223993D02*
X0028562Y0223993D01*
X0028562Y0222395D02*
X0065273Y0222395D01*
X0065273Y0220796D02*
X0028562Y0220796D01*
X0028562Y0219198D02*
X0065273Y0219198D01*
X0065273Y0217599D02*
X0028562Y0217599D01*
X0028562Y0216001D02*
X0065273Y0216001D01*
X0065273Y0214402D02*
X0028562Y0214402D01*
X0028562Y0212803D02*
X0065273Y0212803D01*
X0065273Y0211205D02*
X0028562Y0211205D01*
X0028562Y0209606D02*
X0065184Y0209606D01*
X0065547Y0208008D02*
X0028562Y0208008D01*
X0028562Y0206409D02*
X0068362Y0206409D01*
X0068362Y0204811D02*
X0028562Y0204811D01*
X0028562Y0203212D02*
X0068362Y0203212D01*
X0068362Y0201614D02*
X0028562Y0201614D01*
X0028562Y0200015D02*
X0068362Y0200015D01*
X0068362Y0198417D02*
X0028562Y0198417D01*
X0028562Y0196818D02*
X0068362Y0196818D01*
X0068362Y0195220D02*
X0028562Y0195220D01*
X0028562Y0193621D02*
X0068362Y0193621D01*
X0068362Y0192023D02*
X0028562Y0192023D01*
X0028562Y0190424D02*
X0068362Y0190424D01*
X0068362Y0188826D02*
X0028562Y0188826D01*
X0028562Y0187227D02*
X0068654Y0187227D01*
X0070150Y0185629D02*
X0028562Y0185629D01*
X0028562Y0184030D02*
X0071748Y0184030D01*
X0073347Y0182432D02*
X0028562Y0182432D01*
X0028562Y0180833D02*
X0074945Y0180833D01*
X0076544Y0179235D02*
X0028562Y0179235D01*
X0028562Y0177636D02*
X0078142Y0177636D01*
X0079741Y0176038D02*
X0028562Y0176038D01*
X0028562Y0174439D02*
X0081339Y0174439D01*
X0082938Y0172841D02*
X0028562Y0172841D01*
X0028562Y0171242D02*
X0084537Y0171242D01*
X0085274Y0169644D02*
X0028562Y0169644D01*
X0028562Y0168045D02*
X0088062Y0168045D01*
X0088062Y0166447D02*
X0028562Y0166447D01*
X0028562Y0164848D02*
X0088062Y0164848D01*
X0088062Y0163250D02*
X0028562Y0163250D01*
X0028562Y0161651D02*
X0088062Y0161651D01*
X0088062Y0160053D02*
X0028562Y0160053D01*
X0028562Y0158454D02*
X0088062Y0158454D01*
X0088062Y0156856D02*
X0028562Y0156856D01*
X0028562Y0155257D02*
X0088062Y0155257D01*
X0088062Y0153659D02*
X0028562Y0153659D01*
X0028562Y0152060D02*
X0088062Y0152060D01*
X0088062Y0150462D02*
X0028562Y0150462D01*
X0028562Y0148863D02*
X0088605Y0148863D01*
X0090203Y0147265D02*
X0028562Y0147265D01*
X0028562Y0145666D02*
X0091802Y0145666D01*
X0093400Y0144068D02*
X0028562Y0144068D01*
X0028562Y0142469D02*
X0094999Y0142469D01*
X0096597Y0140870D02*
X0028562Y0140870D01*
X0028562Y0139272D02*
X0098196Y0139272D01*
X0099794Y0137673D02*
X0028562Y0137673D01*
X0028562Y0136075D02*
X0101393Y0136075D01*
X0102991Y0134476D02*
X0028562Y0134476D01*
X0028562Y0132878D02*
X0104590Y0132878D01*
X0127967Y0118491D02*
X0028562Y0118491D01*
X0028562Y0116893D02*
X0126368Y0116893D01*
X0124770Y0115294D02*
X0028562Y0115294D01*
X0028562Y0113696D02*
X0123171Y0113696D01*
X0121573Y0112097D02*
X0028562Y0112097D01*
X0028562Y0110499D02*
X0119974Y0110499D01*
X0118376Y0108900D02*
X0028562Y0108900D01*
X0028562Y0107302D02*
X0116777Y0107302D01*
X0115179Y0105703D02*
X0028562Y0105703D01*
X0028562Y0104105D02*
X0113580Y0104105D01*
X0111982Y0102506D02*
X0028562Y0102506D01*
X0028562Y0100908D02*
X0110383Y0100908D01*
X0108785Y0099309D02*
X0028562Y0099309D01*
X0028562Y0097711D02*
X0107186Y0097711D01*
X0105588Y0096112D02*
X0028562Y0096112D01*
X0028562Y0094514D02*
X0103989Y0094514D01*
X0102391Y0092915D02*
X0028562Y0092915D01*
X0028562Y0091317D02*
X0100792Y0091317D01*
X0099194Y0089718D02*
X0028562Y0089718D01*
X0028562Y0088120D02*
X0097595Y0088120D01*
X0096143Y0086521D02*
X0028562Y0086521D01*
X0028562Y0084923D02*
X0095881Y0084923D01*
X0095881Y0083324D02*
X0028562Y0083324D01*
X0028562Y0081726D02*
X0095881Y0081726D01*
X0095881Y0080127D02*
X0028562Y0080127D01*
X0028562Y0078529D02*
X0095881Y0078529D01*
X0095881Y0076930D02*
X0028562Y0076930D01*
X0028562Y0075332D02*
X0095881Y0075332D01*
X0095881Y0073733D02*
X0028562Y0073733D01*
X0028562Y0072134D02*
X0095881Y0072134D01*
X0095881Y0070536D02*
X0028562Y0070536D01*
X0028562Y0068937D02*
X0095881Y0068937D01*
X0095881Y0067339D02*
X0028562Y0067339D01*
X0028562Y0065740D02*
X0095881Y0065740D01*
X0095881Y0064142D02*
X0028562Y0064142D01*
X0028562Y0062543D02*
X0095881Y0062543D01*
X0095881Y0060945D02*
X0028562Y0060945D01*
X0028562Y0059346D02*
X0095881Y0059346D01*
X0095881Y0057748D02*
X0092556Y0057748D01*
X0092798Y0056149D02*
X0095881Y0056149D01*
X0095881Y0054551D02*
X0095405Y0054551D01*
X0081324Y0054551D02*
X0028562Y0054551D01*
X0028562Y0056149D02*
X0081324Y0056149D01*
X0081566Y0057748D02*
X0028562Y0057748D01*
X0028562Y0052952D02*
X0081324Y0052952D01*
X0081324Y0051354D02*
X0028562Y0051354D01*
X0028562Y0049755D02*
X0081324Y0049755D01*
X0081324Y0048157D02*
X0028562Y0048157D01*
X0028562Y0046558D02*
X0081324Y0046558D01*
X0081324Y0044960D02*
X0028562Y0044960D01*
X0028562Y0043361D02*
X0082167Y0043361D01*
X0089976Y0041763D02*
X0028562Y0041763D01*
X0028562Y0040164D02*
X0089985Y0040164D01*
X0090013Y0038566D02*
X0028562Y0038566D01*
X0028562Y0036967D02*
X0144962Y0036967D01*
X0144601Y0035369D02*
X0028562Y0035369D01*
X0028562Y0033770D02*
X0144184Y0033770D01*
X0144582Y0032172D02*
X0028562Y0032172D01*
X0028562Y0030573D02*
X0150230Y0030573D01*
X0151571Y0030573D02*
X0447962Y0030573D01*
X0447962Y0028975D02*
X0028562Y0028975D01*
X0028562Y0027376D02*
X0447962Y0027376D01*
X0447962Y0025778D02*
X0028562Y0025778D01*
X0028562Y0024179D02*
X0036626Y0024179D01*
X0036004Y0023921D02*
X0033641Y0021558D01*
X0032362Y0018471D01*
X0032362Y0015129D01*
X0033641Y0012042D01*
X0036004Y0009679D01*
X0039091Y0008400D01*
X0042433Y0008400D01*
X0045520Y0009679D01*
X0047883Y0012042D01*
X0049162Y0015129D01*
X0049162Y0018471D01*
X0047883Y0021558D01*
X0045520Y0023921D01*
X0042433Y0025200D01*
X0039091Y0025200D01*
X0036004Y0023921D01*
X0034663Y0022581D02*
X0028562Y0022581D01*
X0028562Y0020982D02*
X0033402Y0020982D01*
X0032740Y0019384D02*
X0028562Y0019384D01*
X0028562Y0017785D02*
X0032362Y0017785D01*
X0032362Y0016187D02*
X0028562Y0016187D01*
X0028562Y0014588D02*
X0032586Y0014588D01*
X0033248Y0012990D02*
X0028562Y0012990D01*
X0028562Y0011391D02*
X0034291Y0011391D01*
X0035890Y0009793D02*
X0028562Y0009793D01*
X0028562Y0008194D02*
X0447962Y0008194D01*
X0447962Y0006596D02*
X0028562Y0006596D01*
X0028562Y0004997D02*
X0447962Y0004997D01*
X0447962Y0004600D02*
X0447962Y0329000D01*
X0028562Y0329000D01*
X0028562Y0004600D01*
X0447962Y0004600D01*
X0447962Y0009793D02*
X0440634Y0009793D01*
X0440520Y0009679D02*
X0442883Y0012042D01*
X0444162Y0015129D01*
X0444162Y0018471D01*
X0442883Y0021558D01*
X0440520Y0023921D01*
X0437433Y0025200D01*
X0434091Y0025200D01*
X0431004Y0023921D01*
X0428641Y0021558D01*
X0427362Y0018471D01*
X0427362Y0015129D01*
X0428641Y0012042D01*
X0431004Y0009679D01*
X0434091Y0008400D01*
X0437433Y0008400D01*
X0440520Y0009679D01*
X0442232Y0011391D02*
X0447962Y0011391D01*
X0447962Y0012990D02*
X0443276Y0012990D01*
X0443938Y0014588D02*
X0447962Y0014588D01*
X0447962Y0016187D02*
X0444162Y0016187D01*
X0444162Y0017785D02*
X0447962Y0017785D01*
X0447962Y0019384D02*
X0443784Y0019384D01*
X0443122Y0020982D02*
X0447962Y0020982D01*
X0447962Y0022581D02*
X0441861Y0022581D01*
X0439897Y0024179D02*
X0447962Y0024179D01*
X0447962Y0032172D02*
X0153637Y0032172D01*
X0158469Y0033770D02*
X0447962Y0033770D01*
X0447962Y0035369D02*
X0162249Y0035369D01*
X0163051Y0036967D02*
X0447962Y0036967D01*
X0447962Y0038566D02*
X0171510Y0038566D01*
X0171538Y0040164D02*
X0289303Y0040164D01*
X0287705Y0041763D02*
X0171538Y0041763D01*
X0168726Y0046061D02*
X0168726Y0055310D01*
X0159476Y0046061D01*
X0161274Y0046061D01*
X0161274Y0045428D01*
X0161274Y0045428D01*
X0161274Y0045428D01*
X0161274Y0046061D01*
X0168726Y0046061D01*
X0168726Y0046558D02*
X0159974Y0046558D01*
X0161573Y0048157D02*
X0168726Y0048157D01*
X0168726Y0049755D02*
X0163171Y0049755D01*
X0164770Y0051354D02*
X0168726Y0051354D01*
X0168726Y0052952D02*
X0166368Y0052952D01*
X0167967Y0054551D02*
X0168726Y0054551D01*
X0172762Y0059346D02*
X0284162Y0059346D01*
X0284162Y0057748D02*
X0180155Y0057748D01*
X0180200Y0056149D02*
X0284162Y0056149D01*
X0284162Y0054551D02*
X0180200Y0054551D01*
X0180200Y0052952D02*
X0284162Y0052952D01*
X0284162Y0051354D02*
X0180200Y0051354D01*
X0180200Y0049755D02*
X0284162Y0049755D01*
X0284162Y0048157D02*
X0180200Y0048157D01*
X0180200Y0046558D02*
X0284162Y0046558D01*
X0284519Y0044960D02*
X0180200Y0044960D01*
X0179160Y0043361D02*
X0286106Y0043361D01*
X0307520Y0040164D02*
X0447962Y0040164D01*
X0447962Y0041763D02*
X0309119Y0041763D01*
X0307796Y0040441D02*
X0307796Y0040441D01*
X0310717Y0043361D02*
X0447962Y0043361D01*
X0447962Y0044960D02*
X0312316Y0044960D01*
X0313914Y0046558D02*
X0447962Y0046558D01*
X0447962Y0048157D02*
X0315513Y0048157D01*
X0317111Y0049755D02*
X0447962Y0049755D01*
X0447962Y0051354D02*
X0318350Y0051354D01*
X0318462Y0052952D02*
X0447962Y0052952D01*
X0447962Y0054551D02*
X0318462Y0054551D01*
X0318462Y0056149D02*
X0335625Y0056149D01*
X0336262Y0058700D02*
X0331762Y0063200D01*
X0331762Y0065600D01*
X0328662Y0065600D02*
X0328662Y0072800D01*
X0328762Y0072900D01*
X0331182Y0077000D02*
X0333482Y0074700D01*
X0336162Y0074700D01*
X0336962Y0073900D01*
X0352862Y0073900D01*
X0355762Y0076800D01*
X0360162Y0074977D02*
X0356162Y0070977D01*
X0356162Y0070800D01*
X0336962Y0070800D01*
X0341662Y0076500D02*
X0341662Y0081946D01*
X0341616Y0081992D01*
X0341662Y0082163D01*
X0341662Y0083400D01*
X0341662Y0084637D01*
X0341637Y0084730D01*
X0341662Y0084754D01*
X0341662Y0088542D01*
X0341718Y0088565D01*
X0342393Y0089241D01*
X0342421Y0089268D01*
X0342421Y0089268D01*
X0343096Y0089943D01*
X0343462Y0090826D01*
X0343462Y0091923D01*
X0348762Y0086623D01*
X0348762Y0084460D01*
X0349158Y0083505D01*
X0349889Y0082773D01*
X0352418Y0080244D01*
X0350962Y0078788D01*
X0350962Y0076500D01*
X0341662Y0076500D01*
X0341662Y0076930D02*
X0350962Y0076930D01*
X0350962Y0078529D02*
X0341662Y0078529D01*
X0341662Y0080127D02*
X0352301Y0080127D01*
X0350937Y0081726D02*
X0341662Y0081726D01*
X0341662Y0083324D02*
X0349338Y0083324D01*
X0348762Y0084923D02*
X0341662Y0084923D01*
X0341662Y0083400D02*
X0336962Y0083400D01*
X0336962Y0083400D01*
X0341662Y0083400D01*
X0341662Y0086521D02*
X0348762Y0086521D01*
X0347265Y0088120D02*
X0341662Y0088120D01*
X0342393Y0089241D02*
X0342393Y0089241D01*
X0342871Y0089718D02*
X0345667Y0089718D01*
X0344068Y0091317D02*
X0343462Y0091317D01*
X0343062Y0096000D02*
X0343062Y0182500D01*
X0338762Y0186800D01*
X0334262Y0186800D01*
X0334362Y0191700D02*
X0334262Y0191800D01*
X0334362Y0191700D02*
X0340162Y0191700D01*
X0345262Y0186600D01*
X0345262Y0097300D01*
X0355762Y0086800D01*
X0351362Y0087700D02*
X0343062Y0096000D01*
X0347462Y0098211D02*
X0347462Y0100400D01*
X0347462Y0189800D01*
X0340462Y0196800D01*
X0334262Y0196800D01*
X0328705Y0204811D02*
X0302818Y0204811D01*
X0302962Y0206409D02*
X0328562Y0206409D01*
X0328562Y0208008D02*
X0302962Y0208008D01*
X0303145Y0209606D02*
X0328910Y0209606D01*
X0328562Y0211205D02*
X0305366Y0211205D01*
X0307487Y0212803D02*
X0328562Y0212803D01*
X0327417Y0214402D02*
X0307944Y0214402D01*
X0307651Y0216001D02*
X0325819Y0216001D01*
X0324220Y0217599D02*
X0306322Y0217599D01*
X0304462Y0214600D02*
X0301562Y0211700D01*
X0297362Y0211700D01*
X0297262Y0211800D01*
X0292318Y0214402D02*
X0195074Y0214402D01*
X0196672Y0212803D02*
X0291562Y0212803D01*
X0291562Y0211205D02*
X0198271Y0211205D01*
X0193475Y0216001D02*
X0301272Y0216001D01*
X0302601Y0217599D02*
X0191877Y0217599D01*
X0190278Y0219198D02*
X0322622Y0219198D01*
X0321023Y0220796D02*
X0188680Y0220796D01*
X0187081Y0222395D02*
X0296133Y0222395D01*
X0294576Y0223993D02*
X0185483Y0223993D01*
X0183884Y0225592D02*
X0292977Y0225592D01*
X0291379Y0227190D02*
X0182286Y0227190D01*
X0180687Y0228789D02*
X0289780Y0228789D01*
X0288182Y0230387D02*
X0179089Y0230387D01*
X0178162Y0231986D02*
X0286583Y0231986D01*
X0284985Y0233584D02*
X0178162Y0233584D01*
X0178162Y0235183D02*
X0283386Y0235183D01*
X0281788Y0236781D02*
X0178162Y0236781D01*
X0178162Y0238380D02*
X0280189Y0238380D01*
X0278591Y0239978D02*
X0178162Y0239978D01*
X0178162Y0241577D02*
X0276992Y0241577D01*
X0275394Y0243175D02*
X0178162Y0243175D01*
X0178162Y0244774D02*
X0273795Y0244774D01*
X0272197Y0246372D02*
X0178162Y0246372D01*
X0178162Y0247971D02*
X0271462Y0247971D01*
X0271462Y0249569D02*
X0260209Y0249569D01*
X0262272Y0251168D02*
X0271462Y0251168D01*
X0271462Y0252766D02*
X0263871Y0252766D01*
X0265469Y0254365D02*
X0271462Y0254365D01*
X0271462Y0255963D02*
X0267068Y0255963D01*
X0268666Y0257562D02*
X0271462Y0257562D01*
X0271462Y0259160D02*
X0270265Y0259160D01*
X0264977Y0262357D02*
X0227762Y0262357D01*
X0228270Y0260759D02*
X0263378Y0260759D01*
X0261780Y0259160D02*
X0228924Y0259160D01*
X0228924Y0257562D02*
X0260181Y0257562D01*
X0258582Y0255963D02*
X0228924Y0255963D01*
X0277462Y0255963D02*
X0371337Y0255963D01*
X0370036Y0254662D02*
X0369079Y0253705D01*
X0368562Y0252456D01*
X0368562Y0164550D01*
X0369079Y0163300D01*
X0370036Y0162344D01*
X0374661Y0157718D01*
X0374679Y0157674D01*
X0378267Y0154087D01*
X0379223Y0153130D01*
X0380473Y0152613D01*
X0392077Y0152613D01*
X0391684Y0152100D01*
X0391217Y0151292D01*
X0390860Y0150431D01*
X0390619Y0149530D01*
X0390541Y0148939D01*
X0396812Y0148939D01*
X0396812Y0147339D01*
X0390541Y0147339D01*
X0390619Y0146748D01*
X0390860Y0145847D01*
X0391217Y0144985D01*
X0391684Y0144177D01*
X0392251Y0143437D01*
X0392911Y0142778D01*
X0393651Y0142210D01*
X0394459Y0141744D01*
X0395320Y0141387D01*
X0396221Y0141145D01*
X0396812Y0141068D01*
X0396812Y0147339D01*
X0398412Y0147339D01*
X0398412Y0148939D01*
X0404683Y0148939D01*
X0404605Y0149530D01*
X0404364Y0150431D01*
X0404007Y0151292D01*
X0403541Y0152100D01*
X0403147Y0152613D01*
X0407067Y0152613D01*
X0407328Y0151982D01*
X0409330Y0149981D01*
X0411945Y0148898D01*
X0414775Y0148898D01*
X0417391Y0149981D01*
X0419392Y0151982D01*
X0420475Y0154597D01*
X0420475Y0157428D01*
X0419392Y0160043D01*
X0417391Y0162044D01*
X0414775Y0163128D01*
X0411945Y0163128D01*
X0409330Y0162044D01*
X0407328Y0160043D01*
X0407067Y0159413D01*
X0403200Y0159413D01*
X0403644Y0159856D01*
X0404727Y0162471D01*
X0404727Y0165302D01*
X0403644Y0167917D01*
X0401642Y0169918D01*
X0399027Y0171002D01*
X0396197Y0171002D01*
X0393582Y0169918D01*
X0391580Y0167917D01*
X0390497Y0165302D01*
X0390497Y0162471D01*
X0391580Y0159856D01*
X0392024Y0159413D01*
X0382558Y0159413D01*
X0380463Y0161508D01*
X0380444Y0161552D01*
X0375362Y0166634D01*
X0375362Y0250371D01*
X0388573Y0263583D01*
X0396312Y0263583D01*
X0398710Y0264576D01*
X0400545Y0266411D01*
X0401538Y0268809D01*
X0401538Y0271405D01*
X0400545Y0273803D01*
X0398710Y0275638D01*
X0396312Y0276631D01*
X0393689Y0276631D01*
X0393689Y0276969D01*
X0396312Y0276969D01*
X0398710Y0277962D01*
X0400545Y0279797D01*
X0401538Y0282195D01*
X0401538Y0284791D01*
X0400545Y0287189D01*
X0398710Y0289024D01*
X0396312Y0290017D01*
X0384267Y0290017D01*
X0381869Y0289024D01*
X0380034Y0287189D01*
X0379041Y0284791D01*
X0379041Y0282195D01*
X0380034Y0279797D01*
X0381869Y0277962D01*
X0384267Y0276969D01*
X0386889Y0276969D01*
X0386889Y0276631D01*
X0384267Y0276631D01*
X0381869Y0275638D01*
X0380034Y0273803D01*
X0379041Y0271405D01*
X0379041Y0268809D01*
X0380034Y0266411D01*
X0380910Y0265536D01*
X0370036Y0254662D01*
X0369739Y0254365D02*
X0277462Y0254365D01*
X0277462Y0252766D02*
X0368690Y0252766D01*
X0368562Y0251168D02*
X0277462Y0251168D01*
X0277485Y0249569D02*
X0368562Y0249569D01*
X0368562Y0247971D02*
X0279083Y0247971D01*
X0280682Y0246372D02*
X0368562Y0246372D01*
X0368562Y0244774D02*
X0282280Y0244774D01*
X0283879Y0243175D02*
X0368562Y0243175D01*
X0368562Y0241577D02*
X0285477Y0241577D01*
X0287076Y0239978D02*
X0368562Y0239978D01*
X0368562Y0238380D02*
X0288674Y0238380D01*
X0290273Y0236781D02*
X0368562Y0236781D01*
X0368562Y0235183D02*
X0291871Y0235183D01*
X0293470Y0233584D02*
X0368562Y0233584D01*
X0368562Y0231986D02*
X0295068Y0231986D01*
X0296667Y0230387D02*
X0368562Y0230387D01*
X0368562Y0228789D02*
X0298266Y0228789D01*
X0299864Y0227190D02*
X0368562Y0227190D01*
X0368562Y0225592D02*
X0324713Y0225592D01*
X0326311Y0223993D02*
X0368562Y0223993D01*
X0368562Y0222395D02*
X0327910Y0222395D01*
X0329508Y0220796D02*
X0368562Y0220796D01*
X0368562Y0219198D02*
X0331107Y0219198D01*
X0332705Y0217599D02*
X0368562Y0217599D01*
X0368562Y0216001D02*
X0334304Y0216001D01*
X0339205Y0214402D02*
X0368562Y0214402D01*
X0368562Y0212803D02*
X0339962Y0212803D01*
X0339962Y0211205D02*
X0368562Y0211205D01*
X0368562Y0209606D02*
X0339614Y0209606D01*
X0339962Y0208008D02*
X0368562Y0208008D01*
X0368562Y0206409D02*
X0339962Y0206409D01*
X0341342Y0204811D02*
X0368562Y0204811D01*
X0368562Y0203212D02*
X0342941Y0203212D01*
X0344539Y0201614D02*
X0368562Y0201614D01*
X0368562Y0200015D02*
X0346138Y0200015D01*
X0347736Y0198417D02*
X0368562Y0198417D01*
X0368562Y0196818D02*
X0349335Y0196818D01*
X0350933Y0195220D02*
X0368562Y0195220D01*
X0368562Y0193621D02*
X0351862Y0193621D01*
X0351862Y0192023D02*
X0368562Y0192023D01*
X0368562Y0190424D02*
X0351862Y0190424D01*
X0351862Y0188826D02*
X0368562Y0188826D01*
X0368562Y0187227D02*
X0351862Y0187227D01*
X0351862Y0185629D02*
X0368562Y0185629D01*
X0368562Y0184030D02*
X0351862Y0184030D01*
X0351862Y0182432D02*
X0368562Y0182432D01*
X0368562Y0180833D02*
X0351862Y0180833D01*
X0351862Y0179235D02*
X0368562Y0179235D01*
X0368562Y0177636D02*
X0351862Y0177636D01*
X0351862Y0176038D02*
X0368562Y0176038D01*
X0368562Y0174439D02*
X0351862Y0174439D01*
X0351862Y0172841D02*
X0368562Y0172841D01*
X0368562Y0171242D02*
X0351862Y0171242D01*
X0351862Y0169644D02*
X0368562Y0169644D01*
X0368562Y0168045D02*
X0351862Y0168045D01*
X0351862Y0166447D02*
X0368562Y0166447D01*
X0368562Y0164848D02*
X0351862Y0164848D01*
X0351862Y0163250D02*
X0369130Y0163250D01*
X0370728Y0161651D02*
X0351862Y0161651D01*
X0351862Y0160053D02*
X0372327Y0160053D01*
X0373925Y0158454D02*
X0351862Y0158454D01*
X0351862Y0156856D02*
X0375498Y0156856D01*
X0377096Y0155257D02*
X0351862Y0155257D01*
X0351862Y0153659D02*
X0378695Y0153659D01*
X0381917Y0160053D02*
X0391499Y0160053D01*
X0390837Y0161651D02*
X0380345Y0161651D01*
X0378746Y0163250D02*
X0390497Y0163250D01*
X0390497Y0164848D02*
X0377148Y0164848D01*
X0375549Y0166447D02*
X0390971Y0166447D01*
X0391709Y0168045D02*
X0375362Y0168045D01*
X0375362Y0169644D02*
X0393307Y0169644D01*
X0395422Y0172841D02*
X0375362Y0172841D01*
X0375362Y0174439D02*
X0392746Y0174439D01*
X0393582Y0173603D02*
X0396197Y0172520D01*
X0399027Y0172520D01*
X0401642Y0173603D01*
X0403644Y0175604D01*
X0404727Y0178219D01*
X0404727Y0181050D01*
X0403644Y0183665D01*
X0401642Y0185666D01*
X0399027Y0186750D01*
X0396197Y0186750D01*
X0393582Y0185666D01*
X0391580Y0183665D01*
X0390497Y0181050D01*
X0390497Y0178219D01*
X0391580Y0175604D01*
X0393582Y0173603D01*
X0391401Y0176038D02*
X0375362Y0176038D01*
X0375362Y0177636D02*
X0390739Y0177636D01*
X0390497Y0179235D02*
X0375362Y0179235D01*
X0375362Y0180833D02*
X0390497Y0180833D01*
X0391070Y0182432D02*
X0375362Y0182432D01*
X0375362Y0184030D02*
X0391946Y0184030D01*
X0393544Y0185629D02*
X0375362Y0185629D01*
X0375362Y0187227D02*
X0447962Y0187227D01*
X0447962Y0185629D02*
X0433176Y0185629D01*
X0433139Y0185666D02*
X0430524Y0186750D01*
X0427693Y0186750D01*
X0425078Y0185666D01*
X0423076Y0183665D01*
X0421993Y0181050D01*
X0421993Y0178219D01*
X0423076Y0175604D01*
X0425078Y0173603D01*
X0427693Y0172520D01*
X0430524Y0172520D01*
X0433139Y0173603D01*
X0435140Y0175604D01*
X0436223Y0178219D01*
X0436223Y0181050D01*
X0435140Y0183665D01*
X0433139Y0185666D01*
X0434775Y0184030D02*
X0447962Y0184030D01*
X0447962Y0182432D02*
X0435651Y0182432D01*
X0436223Y0180833D02*
X0447962Y0180833D01*
X0447962Y0179235D02*
X0436223Y0179235D01*
X0435982Y0177636D02*
X0447962Y0177636D01*
X0447962Y0176038D02*
X0435320Y0176038D01*
X0433975Y0174439D02*
X0447962Y0174439D01*
X0447962Y0172841D02*
X0431299Y0172841D01*
X0430524Y0171002D02*
X0427693Y0171002D01*
X0425078Y0169918D01*
X0423076Y0167917D01*
X0421993Y0165302D01*
X0421993Y0162471D01*
X0423076Y0159856D01*
X0425078Y0157855D01*
X0427693Y0156772D01*
X0430524Y0156772D01*
X0433139Y0157855D01*
X0435140Y0159856D01*
X0436223Y0162471D01*
X0436223Y0165302D01*
X0435140Y0167917D01*
X0433139Y0169918D01*
X0430524Y0171002D01*
X0433413Y0169644D02*
X0447962Y0169644D01*
X0447962Y0171242D02*
X0420475Y0171242D01*
X0420475Y0170345D02*
X0419392Y0167730D01*
X0417391Y0165729D01*
X0414775Y0164646D01*
X0411945Y0164646D01*
X0409330Y0165729D01*
X0407328Y0167730D01*
X0406245Y0170345D01*
X0406245Y0173176D01*
X0407328Y0175791D01*
X0409330Y0177792D01*
X0411945Y0178876D01*
X0414775Y0178876D01*
X0417391Y0177792D01*
X0419392Y0175791D01*
X0420475Y0173176D01*
X0420475Y0170345D01*
X0420185Y0169644D02*
X0424803Y0169644D01*
X0423205Y0168045D02*
X0419522Y0168045D01*
X0418108Y0166447D02*
X0422468Y0166447D01*
X0421993Y0164848D02*
X0415264Y0164848D01*
X0411456Y0164848D02*
X0404727Y0164848D01*
X0404727Y0163250D02*
X0421993Y0163250D01*
X0422333Y0161651D02*
X0417784Y0161651D01*
X0419382Y0160053D02*
X0422995Y0160053D01*
X0424479Y0158454D02*
X0420050Y0158454D01*
X0420475Y0156856D02*
X0427490Y0156856D01*
X0427693Y0155254D02*
X0425078Y0154170D01*
X0423076Y0152169D01*
X0421993Y0149554D01*
X0421993Y0146723D01*
X0423076Y0144108D01*
X0425078Y0142107D01*
X0427693Y0141024D01*
X0430524Y0141024D01*
X0433139Y0142107D01*
X0435140Y0144108D01*
X0436223Y0146723D01*
X0436223Y0149554D01*
X0435140Y0152169D01*
X0433139Y0154170D01*
X0430524Y0155254D01*
X0427693Y0155254D01*
X0430726Y0156856D02*
X0447962Y0156856D01*
X0447962Y0158454D02*
X0433738Y0158454D01*
X0435221Y0160053D02*
X0447962Y0160053D01*
X0447962Y0161651D02*
X0435883Y0161651D01*
X0436223Y0163250D02*
X0447962Y0163250D01*
X0447962Y0164848D02*
X0436223Y0164848D01*
X0435749Y0166447D02*
X0447962Y0166447D01*
X0447962Y0168045D02*
X0435012Y0168045D01*
X0426918Y0172841D02*
X0420475Y0172841D01*
X0419952Y0174439D02*
X0424242Y0174439D01*
X0422897Y0176038D02*
X0419145Y0176038D01*
X0417547Y0177636D02*
X0422235Y0177636D01*
X0421993Y0179235D02*
X0404727Y0179235D01*
X0404727Y0180833D02*
X0421993Y0180833D01*
X0422566Y0182432D02*
X0404155Y0182432D01*
X0403279Y0184030D02*
X0423442Y0184030D01*
X0425040Y0185629D02*
X0401680Y0185629D01*
X0404486Y0177636D02*
X0409174Y0177636D01*
X0407575Y0176038D02*
X0403823Y0176038D01*
X0402479Y0174439D02*
X0406769Y0174439D01*
X0406245Y0172841D02*
X0399802Y0172841D01*
X0401917Y0169644D02*
X0406536Y0169644D01*
X0406245Y0171242D02*
X0375362Y0171242D01*
X0375362Y0188826D02*
X0447962Y0188826D01*
X0447962Y0190424D02*
X0375362Y0190424D01*
X0375362Y0192023D02*
X0447962Y0192023D01*
X0447962Y0193621D02*
X0375362Y0193621D01*
X0375362Y0195220D02*
X0447962Y0195220D01*
X0447962Y0196818D02*
X0417010Y0196818D01*
X0417002Y0196815D02*
X0420093Y0198095D01*
X0422459Y0200461D01*
X0423739Y0203552D01*
X0423739Y0206898D01*
X0422459Y0209989D01*
X0420093Y0212355D01*
X0417002Y0213635D01*
X0413656Y0213635D01*
X0410565Y0212355D01*
X0408199Y0209989D01*
X0406919Y0206898D01*
X0406919Y0203552D01*
X0408199Y0200461D01*
X0410565Y0198095D01*
X0413656Y0196815D01*
X0417002Y0196815D01*
X0413648Y0196818D02*
X0375362Y0196818D01*
X0375362Y0198417D02*
X0410243Y0198417D01*
X0408645Y0200015D02*
X0375362Y0200015D01*
X0375362Y0201614D02*
X0407721Y0201614D01*
X0407059Y0203212D02*
X0375362Y0203212D01*
X0375362Y0204811D02*
X0406919Y0204811D01*
X0406919Y0206409D02*
X0375362Y0206409D01*
X0375362Y0208008D02*
X0407378Y0208008D01*
X0408040Y0209606D02*
X0375362Y0209606D01*
X0375362Y0211205D02*
X0409415Y0211205D01*
X0411647Y0212803D02*
X0375362Y0212803D01*
X0375362Y0214402D02*
X0447962Y0214402D01*
X0447962Y0212803D02*
X0419010Y0212803D01*
X0421243Y0211205D02*
X0447962Y0211205D01*
X0447962Y0209606D02*
X0422617Y0209606D01*
X0423279Y0208008D02*
X0447962Y0208008D01*
X0447962Y0206409D02*
X0423739Y0206409D01*
X0423739Y0204811D02*
X0447962Y0204811D01*
X0447962Y0203212D02*
X0423598Y0203212D01*
X0422936Y0201614D02*
X0447962Y0201614D01*
X0447962Y0200015D02*
X0422013Y0200015D01*
X0420414Y0198417D02*
X0447962Y0198417D01*
X0447962Y0216001D02*
X0375362Y0216001D01*
X0375362Y0217599D02*
X0447962Y0217599D01*
X0447962Y0219198D02*
X0375362Y0219198D01*
X0375362Y0220796D02*
X0447962Y0220796D01*
X0447962Y0222395D02*
X0375362Y0222395D01*
X0375362Y0223993D02*
X0447962Y0223993D01*
X0447962Y0225592D02*
X0375362Y0225592D01*
X0375362Y0227190D02*
X0447962Y0227190D01*
X0447962Y0228789D02*
X0375362Y0228789D01*
X0375362Y0230387D02*
X0447962Y0230387D01*
X0447962Y0231986D02*
X0375362Y0231986D01*
X0375362Y0233584D02*
X0447962Y0233584D01*
X0447962Y0235183D02*
X0375362Y0235183D01*
X0375362Y0236781D02*
X0447962Y0236781D01*
X0447962Y0238380D02*
X0375362Y0238380D01*
X0375362Y0239978D02*
X0447962Y0239978D01*
X0447962Y0241577D02*
X0375362Y0241577D01*
X0375362Y0243175D02*
X0447962Y0243175D01*
X0447962Y0244774D02*
X0375362Y0244774D01*
X0375362Y0246372D02*
X0447962Y0246372D01*
X0447962Y0247971D02*
X0375362Y0247971D01*
X0375362Y0249569D02*
X0447962Y0249569D01*
X0447962Y0251168D02*
X0376158Y0251168D01*
X0377757Y0252766D02*
X0447962Y0252766D01*
X0447962Y0254365D02*
X0379355Y0254365D01*
X0380954Y0255963D02*
X0447962Y0255963D01*
X0447962Y0257562D02*
X0382552Y0257562D01*
X0384151Y0259160D02*
X0447962Y0259160D01*
X0447962Y0260759D02*
X0385749Y0260759D01*
X0387348Y0262357D02*
X0447962Y0262357D01*
X0447962Y0263956D02*
X0397212Y0263956D01*
X0399688Y0265554D02*
X0447962Y0265554D01*
X0447962Y0267153D02*
X0400852Y0267153D01*
X0401514Y0268751D02*
X0447962Y0268751D01*
X0447962Y0270350D02*
X0401538Y0270350D01*
X0401313Y0271948D02*
X0447962Y0271948D01*
X0447962Y0273547D02*
X0400651Y0273547D01*
X0399202Y0275145D02*
X0447962Y0275145D01*
X0447962Y0276744D02*
X0393689Y0276744D01*
X0386889Y0276744D02*
X0354634Y0276744D01*
X0360035Y0278342D02*
X0381488Y0278342D01*
X0379974Y0279941D02*
X0361549Y0279941D01*
X0362211Y0281539D02*
X0379312Y0281539D01*
X0379041Y0283138D02*
X0362483Y0283138D01*
X0362483Y0284737D02*
X0379041Y0284737D01*
X0379680Y0286335D02*
X0361843Y0286335D01*
X0360745Y0287934D02*
X0380779Y0287934D01*
X0383096Y0289532D02*
X0358428Y0289532D01*
X0347834Y0276744D02*
X0332522Y0276744D01*
X0332522Y0275145D02*
X0342321Y0275145D01*
X0340873Y0273547D02*
X0332522Y0273547D01*
X0332522Y0271948D02*
X0340211Y0271948D01*
X0339985Y0270350D02*
X0307151Y0270350D01*
X0306888Y0268751D02*
X0340009Y0268751D01*
X0340672Y0267153D02*
X0305260Y0267153D01*
X0302863Y0267153D02*
X0277462Y0267153D01*
X0277462Y0268751D02*
X0301236Y0268751D01*
X0300973Y0270350D02*
X0278555Y0270350D01*
X0280187Y0271948D02*
X0285863Y0271948D01*
X0295661Y0271948D02*
X0299001Y0271948D01*
X0299001Y0281539D02*
X0277362Y0281539D01*
X0289987Y0283138D02*
X0291537Y0283138D01*
X0291537Y0282362D02*
X0294542Y0282362D01*
X0295000Y0282485D01*
X0295410Y0282722D01*
X0295745Y0283057D01*
X0295982Y0283467D01*
X0296105Y0283925D01*
X0296105Y0286537D01*
X0291537Y0286537D01*
X0291537Y0282362D01*
X0291537Y0284737D02*
X0289987Y0284737D01*
X0289987Y0286335D02*
X0291537Y0286335D01*
X0296105Y0286335D02*
X0332300Y0286335D01*
X0330701Y0284737D02*
X0296105Y0284737D01*
X0295792Y0283138D02*
X0329103Y0283138D01*
X0335522Y0279941D02*
X0340919Y0279941D01*
X0342433Y0278342D02*
X0333924Y0278342D01*
X0322623Y0278342D02*
X0308900Y0278342D01*
X0308900Y0276744D02*
X0322623Y0276744D01*
X0322623Y0275145D02*
X0308900Y0275145D01*
X0308900Y0273547D02*
X0322623Y0273547D01*
X0322623Y0271948D02*
X0308900Y0271948D01*
X0308900Y0279941D02*
X0322623Y0279941D01*
X0322623Y0281539D02*
X0308900Y0281539D01*
X0291537Y0291131D02*
X0289987Y0291131D01*
X0277462Y0265554D02*
X0341836Y0265554D01*
X0344311Y0263956D02*
X0277462Y0263956D01*
X0277462Y0262357D02*
X0377731Y0262357D01*
X0376133Y0260759D02*
X0277462Y0260759D01*
X0277462Y0259160D02*
X0374534Y0259160D01*
X0372936Y0257562D02*
X0277462Y0257562D01*
X0289981Y0209606D02*
X0291910Y0209606D01*
X0288062Y0206800D02*
X0297262Y0206800D01*
X0302962Y0203212D02*
X0320280Y0203212D01*
X0318682Y0201614D02*
X0302962Y0201614D01*
X0302962Y0200015D02*
X0317083Y0200015D01*
X0315485Y0198417D02*
X0302962Y0198417D01*
X0302962Y0196818D02*
X0314962Y0196818D01*
X0314962Y0195220D02*
X0302962Y0195220D01*
X0302962Y0193621D02*
X0314962Y0193621D01*
X0314962Y0192023D02*
X0302962Y0192023D01*
X0302962Y0190424D02*
X0314962Y0190424D01*
X0314962Y0188826D02*
X0302782Y0188826D01*
X0302962Y0187227D02*
X0314962Y0187227D01*
X0314962Y0185629D02*
X0302962Y0185629D01*
X0302577Y0184030D02*
X0314962Y0184030D01*
X0314962Y0182432D02*
X0302962Y0182432D01*
X0302962Y0180833D02*
X0314962Y0180833D01*
X0314962Y0179235D02*
X0302373Y0179235D01*
X0302962Y0177636D02*
X0314962Y0177636D01*
X0314962Y0176038D02*
X0302962Y0176038D01*
X0302447Y0174439D02*
X0314962Y0174439D01*
X0314962Y0172841D02*
X0302962Y0172841D01*
X0302962Y0171800D02*
X0297262Y0171800D01*
X0297262Y0171800D01*
X0302962Y0171800D01*
X0302962Y0171242D02*
X0314962Y0171242D01*
X0314962Y0169644D02*
X0302630Y0169644D01*
X0297262Y0169644D02*
X0297262Y0169644D01*
X0297262Y0168900D02*
X0297262Y0171800D01*
X0297262Y0171800D01*
X0297262Y0168900D01*
X0297262Y0171242D02*
X0297262Y0171242D01*
X0291893Y0169644D02*
X0290984Y0169644D01*
X0289262Y0172700D02*
X0293362Y0176800D01*
X0297262Y0176800D01*
X0297262Y0181800D02*
X0293062Y0181800D01*
X0288262Y0186600D01*
X0288262Y0187500D01*
X0291482Y0188826D02*
X0291742Y0188826D01*
X0291562Y0190424D02*
X0290263Y0190424D01*
X0287962Y0206700D02*
X0288062Y0206800D01*
X0228085Y0166880D02*
X0228085Y0165765D01*
X0228085Y0165765D01*
X0228085Y0166880D01*
X0228085Y0166880D01*
X0228085Y0166447D02*
X0228085Y0166447D01*
X0226650Y0176038D02*
X0222611Y0176038D01*
X0222611Y0177636D02*
X0225051Y0177636D01*
X0223453Y0179235D02*
X0222611Y0179235D01*
X0219796Y0182891D02*
X0219070Y0182891D01*
X0218242Y0182891D01*
X0217415Y0182891D01*
X0217258Y0182849D01*
X0217101Y0182891D01*
X0216274Y0182891D01*
X0216274Y0182259D01*
X0216274Y0182259D01*
X0216274Y0182259D01*
X0216274Y0182891D01*
X0208463Y0182891D01*
X0208463Y0184600D01*
X0210293Y0184600D01*
X0210612Y0184281D01*
X0211747Y0183811D01*
X0212976Y0183811D01*
X0214112Y0184281D01*
X0214981Y0185150D01*
X0215451Y0186286D01*
X0215451Y0187237D01*
X0219796Y0182891D01*
X0218242Y0182891D02*
X0218242Y0182259D01*
X0218242Y0182891D01*
X0218242Y0182432D02*
X0218242Y0182432D01*
X0218242Y0182259D02*
X0218242Y0182259D01*
X0218242Y0182259D01*
X0218657Y0184030D02*
X0213506Y0184030D01*
X0211218Y0184030D02*
X0208463Y0184030D01*
X0203863Y0184030D02*
X0193266Y0184030D01*
X0193825Y0184589D02*
X0203863Y0184589D01*
X0203863Y0182891D01*
X0192652Y0182891D01*
X0192652Y0182259D01*
X0192652Y0182259D01*
X0192652Y0182259D01*
X0192652Y0182891D01*
X0192127Y0182891D01*
X0193825Y0184589D01*
X0192652Y0182432D02*
X0192652Y0182432D01*
X0209460Y0200015D02*
X0212786Y0200015D01*
X0214385Y0201614D02*
X0207862Y0201614D01*
X0206263Y0203212D02*
X0215983Y0203212D01*
X0217357Y0204811D02*
X0204665Y0204811D01*
X0211059Y0198417D02*
X0211140Y0198417D01*
X0215451Y0187227D02*
X0215460Y0187227D01*
X0215179Y0185629D02*
X0217059Y0185629D01*
X0216274Y0182432D02*
X0216274Y0182432D01*
X0216696Y0179123D02*
X0217811Y0179123D01*
X0217811Y0179123D01*
X0216696Y0179123D01*
X0216696Y0179123D01*
X0205526Y0153659D02*
X0165008Y0153659D01*
X0166607Y0152060D02*
X0203928Y0152060D01*
X0202329Y0150462D02*
X0168205Y0150462D01*
X0169804Y0148863D02*
X0200731Y0148863D01*
X0199132Y0147265D02*
X0171402Y0147265D01*
X0173001Y0145666D02*
X0197534Y0145666D01*
X0195935Y0144068D02*
X0174599Y0144068D01*
X0176198Y0142469D02*
X0194337Y0142469D01*
X0193362Y0140870D02*
X0177796Y0140870D01*
X0179395Y0139272D02*
X0193362Y0139272D01*
X0193362Y0137673D02*
X0180993Y0137673D01*
X0182592Y0136075D02*
X0193362Y0136075D01*
X0193362Y0134476D02*
X0184190Y0134476D01*
X0185789Y0132878D02*
X0193362Y0132878D01*
X0193362Y0131279D02*
X0187388Y0131279D01*
X0188986Y0129681D02*
X0193362Y0129681D01*
X0193362Y0128082D02*
X0190585Y0128082D01*
X0192183Y0126484D02*
X0193362Y0126484D01*
X0188592Y0123287D02*
X0173062Y0123287D01*
X0173062Y0124885D02*
X0186993Y0124885D01*
X0185395Y0126484D02*
X0173062Y0126484D01*
X0173062Y0128082D02*
X0183796Y0128082D01*
X0182198Y0129681D02*
X0178011Y0129681D01*
X0178381Y0130050D02*
X0178851Y0131186D01*
X0178851Y0132414D01*
X0178417Y0133462D01*
X0190184Y0121695D01*
X0190184Y0121386D01*
X0190654Y0120250D01*
X0191523Y0119381D01*
X0192658Y0118911D01*
X0193362Y0118911D01*
X0193362Y0109200D01*
X0160871Y0109200D01*
X0159989Y0108835D01*
X0159314Y0108159D01*
X0150169Y0099015D01*
X0148907Y0100277D01*
X0148907Y0104907D01*
X0147207Y0106607D01*
X0147207Y0107116D01*
X0147165Y0107272D01*
X0147207Y0107429D01*
X0147207Y0108257D01*
X0147207Y0113486D01*
X0147612Y0113081D01*
X0148747Y0112611D01*
X0149976Y0112611D01*
X0151112Y0113081D01*
X0151981Y0113950D01*
X0152451Y0115086D01*
X0152451Y0116314D01*
X0151981Y0117450D01*
X0151112Y0118319D01*
X0149976Y0118789D01*
X0149007Y0118789D01*
X0149007Y0127538D01*
X0148642Y0128420D01*
X0147967Y0129095D01*
X0147939Y0129123D01*
X0147264Y0129798D01*
X0147207Y0129822D01*
X0147207Y0135816D01*
X0147207Y0137353D01*
X0149192Y0137353D01*
X0150074Y0137718D01*
X0151067Y0138711D01*
X0151376Y0138711D01*
X0152512Y0139181D01*
X0153381Y0140050D01*
X0153851Y0141186D01*
X0153851Y0141250D01*
X0156618Y0141250D01*
X0168262Y0129606D01*
X0168262Y0121168D01*
X0168043Y0120950D01*
X0167573Y0119814D01*
X0167573Y0118586D01*
X0168043Y0117450D01*
X0168912Y0116581D01*
X0170047Y0116111D01*
X0171276Y0116111D01*
X0172412Y0116581D01*
X0173281Y0117450D01*
X0173751Y0118586D01*
X0173751Y0119814D01*
X0173281Y0120950D01*
X0173062Y0121168D01*
X0173062Y0130247D01*
X0173143Y0130050D01*
X0174012Y0129181D01*
X0175147Y0128711D01*
X0176376Y0128711D01*
X0177512Y0129181D01*
X0178381Y0130050D01*
X0178851Y0131279D02*
X0180599Y0131279D01*
X0179001Y0132878D02*
X0178659Y0132878D01*
X0173512Y0129681D02*
X0173062Y0129681D01*
X0168187Y0129681D02*
X0147381Y0129681D01*
X0147207Y0131279D02*
X0166588Y0131279D01*
X0164990Y0132878D02*
X0147207Y0132878D01*
X0147207Y0134476D02*
X0163391Y0134476D01*
X0161793Y0136075D02*
X0147207Y0136075D01*
X0147207Y0135816D02*
X0146575Y0135816D01*
X0146575Y0135816D01*
X0146575Y0135816D01*
X0147207Y0135816D01*
X0149966Y0137673D02*
X0160194Y0137673D01*
X0158596Y0139272D02*
X0152602Y0139272D01*
X0153720Y0140870D02*
X0156997Y0140870D01*
X0148782Y0128082D02*
X0168262Y0128082D01*
X0168262Y0126484D02*
X0149007Y0126484D01*
X0149007Y0124885D02*
X0168262Y0124885D01*
X0168262Y0123287D02*
X0149007Y0123287D01*
X0149007Y0121688D02*
X0168262Y0121688D01*
X0167687Y0120090D02*
X0149007Y0120090D01*
X0150695Y0118491D02*
X0167612Y0118491D01*
X0168601Y0116893D02*
X0152211Y0116893D01*
X0152451Y0115294D02*
X0193362Y0115294D01*
X0193362Y0113696D02*
X0151726Y0113696D01*
X0147207Y0112097D02*
X0193362Y0112097D01*
X0193362Y0110499D02*
X0147207Y0110499D01*
X0147207Y0108900D02*
X0160147Y0108900D01*
X0158456Y0107302D02*
X0147173Y0107302D01*
X0147207Y0108257D02*
X0146575Y0108257D01*
X0147207Y0108257D01*
X0146575Y0108257D02*
X0146575Y0108257D01*
X0146575Y0108257D01*
X0148111Y0105703D02*
X0156857Y0105703D01*
X0155259Y0104105D02*
X0148907Y0104105D01*
X0148907Y0102506D02*
X0153660Y0102506D01*
X0152062Y0100908D02*
X0148907Y0100908D01*
X0149875Y0099309D02*
X0150463Y0099309D01*
X0146284Y0096112D02*
X0130432Y0096112D01*
X0128834Y0094514D02*
X0147882Y0094514D01*
X0148922Y0093474D02*
X0148922Y0091763D01*
X0149977Y0090709D01*
X0152454Y0090709D01*
X0153281Y0090709D01*
X0153281Y0091341D01*
X0153281Y0091341D01*
X0153282Y0091341D01*
X0153282Y0090709D01*
X0154109Y0090709D01*
X0154266Y0090751D01*
X0154422Y0090709D01*
X0154819Y0090709D01*
X0154819Y0088852D01*
X0142666Y0076700D01*
X0134994Y0076700D01*
X0134039Y0076700D01*
X0133157Y0076335D01*
X0114461Y0057639D01*
X0114461Y0080141D01*
X0139670Y0105350D01*
X0139670Y0102351D01*
X0139670Y0101524D01*
X0139793Y0101066D01*
X0140030Y0100655D01*
X0140365Y0100320D01*
X0140776Y0100083D01*
X0141233Y0099961D01*
X0143439Y0099961D01*
X0144307Y0099961D01*
X0144307Y0099901D01*
X0144207Y0099660D01*
X0144207Y0098705D01*
X0144307Y0098464D01*
X0144307Y0098230D01*
X0144473Y0098065D01*
X0144573Y0097823D01*
X0148922Y0093474D01*
X0148922Y0092915D02*
X0127235Y0092915D01*
X0125637Y0091317D02*
X0149369Y0091317D01*
X0153281Y0091317D02*
X0153282Y0091317D01*
X0154819Y0089718D02*
X0124038Y0089718D01*
X0122440Y0088120D02*
X0154086Y0088120D01*
X0152487Y0086521D02*
X0120841Y0086521D01*
X0119243Y0084923D02*
X0150889Y0084923D01*
X0149290Y0083324D02*
X0117644Y0083324D01*
X0116046Y0081726D02*
X0147692Y0081726D01*
X0146093Y0080127D02*
X0114461Y0080127D01*
X0114461Y0078529D02*
X0144495Y0078529D01*
X0142896Y0076930D02*
X0114461Y0076930D01*
X0114461Y0075332D02*
X0132154Y0075332D01*
X0130555Y0073733D02*
X0114461Y0073733D01*
X0114461Y0072134D02*
X0128957Y0072134D01*
X0127358Y0070536D02*
X0114461Y0070536D01*
X0114461Y0068937D02*
X0125760Y0068937D01*
X0124161Y0067339D02*
X0114461Y0067339D01*
X0114461Y0065740D02*
X0122563Y0065740D01*
X0120964Y0064142D02*
X0114461Y0064142D01*
X0114461Y0062543D02*
X0119366Y0062543D01*
X0117767Y0060945D02*
X0114461Y0060945D01*
X0114461Y0059346D02*
X0116169Y0059346D01*
X0114570Y0057748D02*
X0114461Y0057748D01*
X0096313Y0038172D02*
X0096313Y0037539D01*
X0096313Y0038172D01*
X0096313Y0038172D01*
X0096313Y0038172D01*
X0048784Y0019384D02*
X0427740Y0019384D01*
X0427362Y0017785D02*
X0049162Y0017785D01*
X0049162Y0016187D02*
X0427362Y0016187D01*
X0427586Y0014588D02*
X0048938Y0014588D01*
X0048276Y0012990D02*
X0428248Y0012990D01*
X0429291Y0011391D02*
X0047232Y0011391D01*
X0045634Y0009793D02*
X0430890Y0009793D01*
X0428402Y0020982D02*
X0048122Y0020982D01*
X0046861Y0022581D02*
X0429663Y0022581D01*
X0431626Y0024179D02*
X0044897Y0024179D01*
X0132031Y0097711D02*
X0144685Y0097711D01*
X0144207Y0099309D02*
X0133629Y0099309D01*
X0135228Y0100908D02*
X0139884Y0100908D01*
X0139670Y0102351D02*
X0140303Y0102351D01*
X0140303Y0102351D01*
X0139670Y0102351D01*
X0139670Y0102506D02*
X0136826Y0102506D01*
X0138425Y0104105D02*
X0139670Y0104105D01*
X0143439Y0101929D02*
X0143439Y0101929D01*
X0143439Y0099961D01*
X0143439Y0101929D01*
X0143439Y0100908D02*
X0143439Y0100908D01*
X0143439Y0106710D02*
X0143439Y0107835D01*
X0143439Y0106710D01*
X0143439Y0106710D01*
X0143439Y0107302D02*
X0143439Y0107302D01*
X0143439Y0107835D02*
X0143439Y0107835D01*
X0129566Y0120090D02*
X0028562Y0120090D01*
X0028562Y0121688D02*
X0131164Y0121688D01*
X0132763Y0123287D02*
X0028562Y0123287D01*
X0028562Y0124885D02*
X0134361Y0124885D01*
X0135960Y0126484D02*
X0028562Y0126484D01*
X0028562Y0128082D02*
X0137558Y0128082D01*
X0139157Y0129681D02*
X0028562Y0129681D01*
X0028562Y0131279D02*
X0139670Y0131279D01*
X0173062Y0121688D02*
X0190184Y0121688D01*
X0190815Y0120090D02*
X0173637Y0120090D01*
X0173712Y0118491D02*
X0193362Y0118491D01*
X0193362Y0116893D02*
X0172723Y0116893D01*
X0185491Y0104400D02*
X0194768Y0104400D01*
X0198116Y0101052D01*
X0198116Y0098246D01*
X0197730Y0098246D01*
X0188715Y0098246D01*
X0188715Y0097613D01*
X0188715Y0097613D01*
X0188714Y0097613D01*
X0188714Y0098246D01*
X0187178Y0098246D01*
X0187178Y0099547D01*
X0187281Y0099650D01*
X0187751Y0100786D01*
X0187751Y0102014D01*
X0187281Y0103150D01*
X0186412Y0104019D01*
X0185491Y0104400D01*
X0186204Y0104105D02*
X0195063Y0104105D01*
X0196661Y0102506D02*
X0187547Y0102506D01*
X0187751Y0100908D02*
X0198116Y0100908D01*
X0198116Y0099309D02*
X0187178Y0099309D01*
X0188714Y0097711D02*
X0188715Y0097711D01*
X0176472Y0090709D02*
X0176472Y0090141D01*
X0175367Y0089036D01*
X0175367Y0090709D01*
X0175567Y0090709D01*
X0176472Y0090709D01*
X0176049Y0089718D02*
X0175367Y0089718D01*
X0188747Y0075332D02*
X0258791Y0075332D01*
X0257192Y0076930D02*
X0190346Y0076930D01*
X0191944Y0078529D02*
X0255594Y0078529D01*
X0254962Y0080127D02*
X0193543Y0080127D01*
X0195141Y0081726D02*
X0254962Y0081726D01*
X0254962Y0083324D02*
X0196740Y0083324D01*
X0198338Y0084923D02*
X0254962Y0084923D01*
X0254962Y0086521D02*
X0199937Y0086521D01*
X0201535Y0088120D02*
X0254962Y0088120D01*
X0254592Y0089718D02*
X0203134Y0089718D01*
X0212337Y0090709D02*
X0212337Y0091341D01*
X0212337Y0090709D01*
X0212337Y0091317D02*
X0212337Y0091317D01*
X0212337Y0091341D02*
X0212337Y0091341D01*
X0212337Y0091341D01*
X0207140Y0099309D02*
X0202916Y0099309D01*
X0207725Y0099894D02*
X0207725Y0099894D01*
X0222601Y0096112D02*
X0241038Y0096112D01*
X0249226Y0094514D02*
X0222601Y0094514D01*
X0222601Y0092915D02*
X0250476Y0092915D01*
X0252993Y0091317D02*
X0222155Y0091317D01*
X0241951Y0116893D02*
X0253461Y0116893D01*
X0255059Y0118491D02*
X0241390Y0118491D01*
X0250849Y0120090D02*
X0256658Y0120090D01*
X0258256Y0121688D02*
X0251361Y0121688D01*
X0251361Y0123287D02*
X0259855Y0123287D01*
X0261453Y0124885D02*
X0251361Y0124885D01*
X0251361Y0126484D02*
X0263052Y0126484D01*
X0264650Y0128082D02*
X0251277Y0128082D01*
X0250151Y0129681D02*
X0266249Y0129681D01*
X0267847Y0131279D02*
X0249958Y0131279D01*
X0248669Y0132878D02*
X0269446Y0132878D01*
X0271044Y0134476D02*
X0236151Y0134476D01*
X0236451Y0132878D02*
X0245455Y0132878D01*
X0244165Y0131279D02*
X0236436Y0131279D01*
X0236811Y0129681D02*
X0243973Y0129681D01*
X0235762Y0136075D02*
X0263093Y0136075D01*
X0275905Y0126484D02*
X0295452Y0126484D01*
X0297050Y0128082D02*
X0277504Y0128082D01*
X0279102Y0129681D02*
X0300487Y0129681D01*
X0300968Y0129200D02*
X0298684Y0129200D01*
X0297802Y0128835D01*
X0297127Y0128159D01*
X0291902Y0122935D01*
X0291227Y0122259D01*
X0290862Y0121377D01*
X0290862Y0119465D01*
X0290281Y0118884D01*
X0290281Y0112900D01*
X0281674Y0112900D01*
X0281658Y0112939D01*
X0280789Y0113808D01*
X0279653Y0114278D01*
X0278425Y0114278D01*
X0277289Y0113808D01*
X0276420Y0112939D01*
X0276229Y0112478D01*
X0275447Y0112478D01*
X0274312Y0112008D01*
X0273443Y0111139D01*
X0272973Y0110003D01*
X0272973Y0109300D01*
X0258721Y0109300D01*
X0283429Y0134008D01*
X0283739Y0134008D01*
X0284874Y0134478D01*
X0285743Y0135347D01*
X0286213Y0136482D01*
X0286213Y0136977D01*
X0286912Y0136278D01*
X0288047Y0135808D01*
X0289276Y0135808D01*
X0290281Y0136224D01*
X0290281Y0135224D01*
X0290403Y0134767D01*
X0290640Y0134356D01*
X0290975Y0134021D01*
X0291386Y0133784D01*
X0291844Y0133661D01*
X0293262Y0133661D01*
X0294680Y0133661D01*
X0295138Y0133784D01*
X0295548Y0134021D01*
X0295762Y0134235D01*
X0296335Y0133661D01*
X0296506Y0133661D01*
X0300968Y0129200D01*
X0298888Y0131279D02*
X0280701Y0131279D01*
X0282299Y0132878D02*
X0297290Y0132878D01*
X0293262Y0133661D02*
X0293262Y0137823D01*
X0293262Y0137823D01*
X0293262Y0133661D01*
X0293262Y0134476D02*
X0293262Y0134476D01*
X0293262Y0136075D02*
X0293262Y0136075D01*
X0293262Y0137673D02*
X0293262Y0137673D01*
X0290281Y0136075D02*
X0289921Y0136075D01*
X0290571Y0134476D02*
X0284870Y0134476D01*
X0286044Y0136075D02*
X0287403Y0136075D01*
X0293853Y0124885D02*
X0274307Y0124885D01*
X0272708Y0123287D02*
X0292255Y0123287D01*
X0290991Y0121688D02*
X0271110Y0121688D01*
X0269511Y0120090D02*
X0290862Y0120090D01*
X0290281Y0118491D02*
X0267913Y0118491D01*
X0266314Y0116893D02*
X0290281Y0116893D01*
X0290281Y0115294D02*
X0264716Y0115294D01*
X0263117Y0113696D02*
X0277177Y0113696D01*
X0274528Y0112097D02*
X0261519Y0112097D01*
X0259920Y0110499D02*
X0273178Y0110499D01*
X0280901Y0113696D02*
X0290281Y0113696D01*
X0290948Y0097423D02*
X0299805Y0088565D01*
X0299862Y0088542D01*
X0299862Y0087954D01*
X0299908Y0087908D01*
X0299862Y0087737D01*
X0299862Y0086500D01*
X0304562Y0086500D01*
X0309262Y0086500D01*
X0309262Y0087737D01*
X0309216Y0087908D01*
X0309262Y0087954D01*
X0309262Y0093300D01*
X0316762Y0093300D01*
X0316762Y0093238D01*
X0317127Y0092356D01*
X0317802Y0091681D01*
X0320362Y0089121D01*
X0320362Y0088812D01*
X0320832Y0087677D01*
X0321701Y0086808D01*
X0322836Y0086337D01*
X0324065Y0086337D01*
X0325201Y0086808D01*
X0326069Y0087677D01*
X0326540Y0088812D01*
X0326540Y0090041D01*
X0326069Y0091176D01*
X0325201Y0092045D01*
X0324065Y0092515D01*
X0323756Y0092515D01*
X0322971Y0093300D01*
X0332262Y0093300D01*
X0332262Y0084754D01*
X0332287Y0084730D01*
X0332262Y0084637D01*
X0332262Y0083400D01*
X0336962Y0083400D01*
X0332962Y0083400D01*
X0329762Y0080200D01*
X0315262Y0080200D01*
X0309062Y0086400D01*
X0304662Y0086400D01*
X0304562Y0086500D01*
X0304562Y0086500D01*
X0309262Y0086500D01*
X0309262Y0085263D01*
X0309237Y0085170D01*
X0309262Y0085146D01*
X0309262Y0081654D01*
X0309216Y0081608D01*
X0309262Y0081437D01*
X0309262Y0080200D01*
X0304762Y0080200D01*
X0304762Y0080200D01*
X0309262Y0080200D01*
X0309262Y0079600D01*
X0318993Y0079600D01*
X0319012Y0079619D01*
X0320147Y0080089D01*
X0321376Y0080089D01*
X0322512Y0079619D01*
X0322530Y0079600D01*
X0331699Y0079600D01*
X0332262Y0079367D01*
X0332262Y0081946D01*
X0332308Y0081992D01*
X0332262Y0082163D01*
X0332262Y0083400D01*
X0336962Y0083400D01*
X0336962Y0083400D01*
X0332262Y0083324D02*
X0309262Y0083324D01*
X0309262Y0081726D02*
X0332262Y0081726D01*
X0332262Y0080127D02*
X0309262Y0080127D01*
X0304562Y0080200D02*
X0315262Y0080200D01*
X0320762Y0077000D02*
X0304462Y0077000D01*
X0304562Y0077100D01*
X0304462Y0077000D02*
X0301862Y0077000D01*
X0301862Y0077020D01*
X0300262Y0078620D01*
X0300262Y0081780D01*
X0301082Y0082600D01*
X0303762Y0082600D01*
X0304562Y0083400D01*
X0304562Y0086500D02*
X0299862Y0086500D01*
X0299862Y0085263D01*
X0299887Y0085170D01*
X0299862Y0085146D01*
X0299862Y0084909D01*
X0299609Y0084804D01*
X0298789Y0083984D01*
X0298058Y0083253D01*
X0297662Y0082297D01*
X0297662Y0080725D01*
X0297635Y0080752D01*
X0296355Y0081283D01*
X0294969Y0081283D01*
X0294548Y0081108D01*
X0294548Y0084656D01*
X0294182Y0085538D01*
X0291004Y0088716D01*
X0290948Y0088739D01*
X0290948Y0091227D01*
X0290374Y0091800D01*
X0290948Y0092373D01*
X0290948Y0096227D01*
X0290374Y0096800D01*
X0290948Y0097373D01*
X0290948Y0097423D01*
X0290948Y0096112D02*
X0292258Y0096112D01*
X0290948Y0094514D02*
X0293857Y0094514D01*
X0295455Y0092915D02*
X0290948Y0092915D01*
X0290858Y0091317D02*
X0297054Y0091317D01*
X0298653Y0089718D02*
X0290948Y0089718D01*
X0291600Y0088120D02*
X0299862Y0088120D01*
X0299862Y0086521D02*
X0293199Y0086521D01*
X0294437Y0084923D02*
X0299862Y0084923D01*
X0298129Y0083324D02*
X0294548Y0083324D01*
X0294548Y0081726D02*
X0297662Y0081726D01*
X0295662Y0077800D02*
X0299562Y0073900D01*
X0304562Y0073900D01*
X0304562Y0070800D02*
X0298862Y0065100D01*
X0298862Y0061700D01*
X0284162Y0060945D02*
X0174361Y0060945D01*
X0175959Y0062543D02*
X0284162Y0062543D01*
X0284162Y0064142D02*
X0177558Y0064142D01*
X0179156Y0065740D02*
X0284162Y0065740D01*
X0282658Y0067339D02*
X0268729Y0067339D01*
X0268900Y0068937D02*
X0282623Y0068937D01*
X0264738Y0068937D02*
X0264738Y0068937D01*
X0264738Y0067339D02*
X0264738Y0067339D01*
X0260748Y0067339D02*
X0180755Y0067339D01*
X0182353Y0068937D02*
X0260576Y0068937D01*
X0260576Y0070536D02*
X0183952Y0070536D01*
X0185550Y0072134D02*
X0260815Y0072134D01*
X0260576Y0073733D02*
X0187149Y0073733D01*
X0228085Y0124436D02*
X0228085Y0125542D01*
X0228085Y0124436D01*
X0228085Y0124436D01*
X0228085Y0124885D02*
X0228085Y0124885D01*
X0228085Y0125542D02*
X0228085Y0125542D01*
X0231221Y0151564D02*
X0231221Y0151564D01*
X0231221Y0151564D01*
X0158016Y0212803D02*
X0143762Y0212803D01*
X0145161Y0214402D02*
X0156417Y0214402D01*
X0154819Y0216001D02*
X0145515Y0216001D01*
X0145515Y0217599D02*
X0153220Y0217599D01*
X0151622Y0219198D02*
X0145515Y0219198D01*
X0145515Y0220796D02*
X0150023Y0220796D01*
X0148425Y0222395D02*
X0145515Y0222395D01*
X0141143Y0196818D02*
X0140381Y0196818D01*
X0140381Y0195220D02*
X0141143Y0195220D01*
X0141143Y0193621D02*
X0140381Y0193621D01*
X0137522Y0164000D02*
X0131156Y0164000D01*
X0128239Y0161083D01*
X0128239Y0159887D01*
X0128278Y0159871D01*
X0129147Y0159002D01*
X0129189Y0158899D01*
X0129291Y0158942D01*
X0129459Y0158942D01*
X0132018Y0161501D01*
X0132693Y0162176D01*
X0133575Y0162542D01*
X0138916Y0162542D01*
X0139670Y0162229D01*
X0139670Y0162234D01*
X0139670Y0162943D01*
X0139096Y0162943D01*
X0138213Y0163309D01*
X0137522Y0164000D01*
X0138356Y0163250D02*
X0130406Y0163250D01*
X0128807Y0161651D02*
X0132168Y0161651D01*
X0130570Y0160053D02*
X0128239Y0160053D01*
X0086009Y0219198D02*
X0085515Y0219198D01*
X0085515Y0220796D02*
X0086009Y0220796D01*
X0086009Y0222395D02*
X0085515Y0222395D01*
X0085366Y0223993D02*
X0086157Y0223993D01*
X0088362Y0225592D02*
X0083162Y0225592D01*
X0083162Y0227190D02*
X0088362Y0227190D01*
X0086985Y0228789D02*
X0084539Y0228789D01*
X0085562Y0230387D02*
X0085962Y0230387D01*
X0085962Y0231986D02*
X0085562Y0231986D01*
X0085562Y0233584D02*
X0085962Y0233584D01*
X0087356Y0235183D02*
X0084167Y0235183D01*
X0075962Y0241577D02*
X0075562Y0241577D01*
X0075562Y0243175D02*
X0075962Y0243175D01*
X0076947Y0244774D02*
X0074576Y0244774D01*
X0086195Y0249569D02*
X0028562Y0249569D01*
X0028562Y0247971D02*
X0088362Y0247971D01*
X0086009Y0251168D02*
X0028562Y0251168D01*
X0028562Y0252766D02*
X0086009Y0252766D01*
X0086009Y0254365D02*
X0028562Y0254365D01*
X0028562Y0255963D02*
X0086009Y0255963D01*
X0086058Y0257562D02*
X0028562Y0257562D01*
X0028562Y0259160D02*
X0086009Y0259160D01*
X0086009Y0262357D02*
X0028562Y0262357D01*
X0028562Y0260759D02*
X0090282Y0260759D01*
X0091241Y0260759D02*
X0122326Y0260759D01*
X0122326Y0262357D02*
X0095515Y0262357D01*
X0095515Y0263336D02*
X0095392Y0263794D01*
X0095155Y0264204D01*
X0094820Y0264540D01*
X0094409Y0264777D01*
X0093952Y0264899D01*
X0091241Y0264899D01*
X0091241Y0261020D01*
X0095515Y0261020D01*
X0095515Y0263336D01*
X0095298Y0263956D02*
X0122326Y0263956D01*
X0122326Y0259160D02*
X0095515Y0259160D01*
X0095466Y0257562D02*
X0122326Y0257562D01*
X0122326Y0255963D02*
X0095515Y0255963D01*
X0095515Y0254365D02*
X0122326Y0254365D01*
X0122326Y0252766D02*
X0095515Y0252766D01*
X0095515Y0251168D02*
X0122326Y0251168D01*
X0122326Y0249569D02*
X0095329Y0249569D01*
X0102978Y0246372D02*
X0108546Y0246372D01*
X0106947Y0244774D02*
X0104576Y0244774D01*
X0105562Y0243175D02*
X0105962Y0243175D01*
X0105962Y0241577D02*
X0105562Y0241577D01*
X0105562Y0239978D02*
X0105962Y0239978D01*
X0106321Y0235574D02*
X0106321Y0235574D01*
X0106713Y0235183D02*
X0107356Y0235183D01*
X0128326Y0251168D02*
X0146151Y0251168D01*
X0144708Y0252766D02*
X0128326Y0252766D01*
X0128326Y0254365D02*
X0144362Y0254365D01*
X0144362Y0255963D02*
X0128326Y0255963D01*
X0128326Y0257562D02*
X0144362Y0257562D01*
X0144362Y0259160D02*
X0128326Y0259160D01*
X0128326Y0260759D02*
X0144362Y0260759D01*
X0144362Y0262357D02*
X0128326Y0262357D01*
X0128326Y0263956D02*
X0144362Y0263956D01*
X0144362Y0265554D02*
X0128326Y0265554D01*
X0132912Y0267153D02*
X0144362Y0267153D01*
X0144362Y0268751D02*
X0133861Y0268751D01*
X0133861Y0270350D02*
X0144362Y0270350D01*
X0144362Y0271948D02*
X0133861Y0271948D01*
X0133861Y0273547D02*
X0144362Y0273547D01*
X0144362Y0275145D02*
X0133861Y0275145D01*
X0132502Y0276744D02*
X0144362Y0276744D01*
X0144362Y0278342D02*
X0133861Y0278342D01*
X0133861Y0279941D02*
X0144362Y0279941D01*
X0144362Y0281539D02*
X0133861Y0281539D01*
X0133861Y0283138D02*
X0144362Y0283138D01*
X0144362Y0284737D02*
X0133861Y0284737D01*
X0133024Y0286335D02*
X0144362Y0286335D01*
X0144362Y0287934D02*
X0113684Y0287934D01*
X0112750Y0287000D02*
X0115562Y0289812D01*
X0115562Y0291600D01*
X0110962Y0291600D01*
X0110962Y0292000D01*
X0115562Y0292000D01*
X0115562Y0293788D01*
X0112750Y0296600D01*
X0110962Y0296600D01*
X0110962Y0292000D01*
X0110562Y0292000D01*
X0110562Y0296600D01*
X0108774Y0296600D01*
X0105962Y0293788D01*
X0105962Y0292000D01*
X0110562Y0292000D01*
X0110562Y0291600D01*
X0110962Y0291600D01*
X0110962Y0287000D01*
X0112750Y0287000D01*
X0113015Y0286335D02*
X0118499Y0286335D01*
X0117663Y0284737D02*
X0114614Y0284737D01*
X0110562Y0287000D02*
X0110562Y0291600D01*
X0105962Y0291600D01*
X0105962Y0289812D01*
X0108774Y0287000D01*
X0110562Y0287000D01*
X0110562Y0287934D02*
X0110962Y0287934D01*
X0110962Y0289532D02*
X0110562Y0289532D01*
X0110562Y0291131D02*
X0110962Y0291131D01*
X0110962Y0292729D02*
X0110562Y0292729D01*
X0110562Y0294328D02*
X0110962Y0294328D01*
X0110962Y0295926D02*
X0110562Y0295926D01*
X0108100Y0295926D02*
X0103424Y0295926D01*
X0102750Y0296600D02*
X0098774Y0296600D01*
X0095962Y0293788D01*
X0095962Y0289812D01*
X0098774Y0287000D01*
X0102750Y0287000D01*
X0105562Y0289812D01*
X0105562Y0293788D01*
X0102750Y0296600D01*
X0105022Y0294328D02*
X0106501Y0294328D01*
X0105962Y0292729D02*
X0105562Y0292729D01*
X0105562Y0291131D02*
X0105962Y0291131D01*
X0106242Y0289532D02*
X0105282Y0289532D01*
X0103684Y0287934D02*
X0107840Y0287934D01*
X0108509Y0286335D02*
X0103015Y0286335D01*
X0104614Y0284737D02*
X0106910Y0284737D01*
X0105962Y0283138D02*
X0105562Y0283138D01*
X0105562Y0281539D02*
X0105962Y0281539D01*
X0105962Y0279941D02*
X0105562Y0279941D01*
X0104092Y0278342D02*
X0107431Y0278342D01*
X0100810Y0275145D02*
X0117663Y0275145D01*
X0117663Y0278342D02*
X0114092Y0278342D01*
X0126502Y0276744D02*
X0099212Y0276744D01*
X0095962Y0281539D02*
X0095562Y0281539D01*
X0095562Y0283138D02*
X0095962Y0283138D01*
X0096910Y0284737D02*
X0094614Y0284737D01*
X0093015Y0286335D02*
X0098509Y0286335D01*
X0097840Y0287934D02*
X0093684Y0287934D01*
X0095282Y0289532D02*
X0096242Y0289532D01*
X0095962Y0291131D02*
X0095562Y0291131D01*
X0095562Y0292729D02*
X0095962Y0292729D01*
X0096501Y0294328D02*
X0095022Y0294328D01*
X0093424Y0295926D02*
X0098100Y0295926D01*
X0088100Y0295926D02*
X0083424Y0295926D01*
X0085022Y0294328D02*
X0086501Y0294328D01*
X0085962Y0292729D02*
X0085562Y0292729D01*
X0085674Y0291131D02*
X0085962Y0291131D01*
X0077840Y0287934D02*
X0073684Y0287934D01*
X0072750Y0287000D02*
X0075562Y0289812D01*
X0075562Y0291600D01*
X0070962Y0291600D01*
X0070962Y0292000D01*
X0075562Y0292000D01*
X0075562Y0293788D01*
X0072750Y0296600D01*
X0070962Y0296600D01*
X0070962Y0292000D01*
X0070562Y0292000D01*
X0070562Y0296600D01*
X0068774Y0296600D01*
X0065962Y0293788D01*
X0065962Y0292000D01*
X0070562Y0292000D01*
X0070562Y0291600D01*
X0070962Y0291600D01*
X0070962Y0287000D01*
X0072750Y0287000D01*
X0072750Y0286600D02*
X0068774Y0286600D01*
X0067833Y0285660D01*
X0060515Y0285660D01*
X0060515Y0286364D01*
X0060079Y0286800D01*
X0060155Y0286876D01*
X0060392Y0287286D01*
X0060515Y0287744D01*
X0060515Y0290061D01*
X0056241Y0290061D01*
X0056241Y0291020D01*
X0055282Y0291020D01*
X0055282Y0294899D01*
X0052572Y0294899D01*
X0052114Y0294777D01*
X0051704Y0294540D01*
X0051369Y0294204D01*
X0051132Y0293794D01*
X0051009Y0293336D01*
X0051009Y0291020D01*
X0055282Y0291020D01*
X0055282Y0290061D01*
X0051009Y0290061D01*
X0051009Y0287744D01*
X0051132Y0287286D01*
X0051369Y0286876D01*
X0051445Y0286800D01*
X0051009Y0286364D01*
X0051009Y0279755D01*
X0052063Y0278701D01*
X0059460Y0278701D01*
X0060515Y0279755D01*
X0060515Y0280460D01*
X0065962Y0280460D01*
X0065962Y0279812D01*
X0068774Y0277000D01*
X0072750Y0277000D01*
X0075562Y0279812D01*
X0075562Y0283788D01*
X0072750Y0286600D01*
X0073015Y0286335D02*
X0078509Y0286335D01*
X0076910Y0284737D02*
X0074614Y0284737D01*
X0075562Y0283138D02*
X0075962Y0283138D01*
X0075962Y0281539D02*
X0075562Y0281539D01*
X0075562Y0279941D02*
X0075962Y0279941D01*
X0077431Y0278342D02*
X0074092Y0278342D01*
X0070762Y0281800D02*
X0069502Y0283060D01*
X0055762Y0283060D01*
X0051009Y0283138D02*
X0028562Y0283138D01*
X0028562Y0284737D02*
X0051009Y0284737D01*
X0051009Y0286335D02*
X0028562Y0286335D01*
X0028562Y0287934D02*
X0051009Y0287934D01*
X0051009Y0289532D02*
X0028562Y0289532D01*
X0028562Y0291131D02*
X0051009Y0291131D01*
X0051009Y0292729D02*
X0028562Y0292729D01*
X0028562Y0294328D02*
X0051492Y0294328D01*
X0055282Y0294328D02*
X0056241Y0294328D01*
X0056241Y0294899D02*
X0056241Y0291020D01*
X0060515Y0291020D01*
X0060515Y0293336D01*
X0060392Y0293794D01*
X0060155Y0294204D01*
X0059820Y0294540D01*
X0059409Y0294777D01*
X0058952Y0294899D01*
X0056241Y0294899D01*
X0056241Y0292729D02*
X0055282Y0292729D01*
X0055282Y0291131D02*
X0056241Y0291131D01*
X0060515Y0291131D02*
X0065962Y0291131D01*
X0065962Y0291600D02*
X0065962Y0289812D01*
X0068774Y0287000D01*
X0070562Y0287000D01*
X0070562Y0291600D01*
X0065962Y0291600D01*
X0065962Y0292729D02*
X0060515Y0292729D01*
X0060032Y0294328D02*
X0066501Y0294328D01*
X0068100Y0295926D02*
X0028562Y0295926D01*
X0028562Y0297525D02*
X0147444Y0297525D01*
X0149042Y0299123D02*
X0028562Y0299123D01*
X0028562Y0300722D02*
X0150641Y0300722D01*
X0152239Y0302320D02*
X0028562Y0302320D01*
X0028562Y0303919D02*
X0447962Y0303919D01*
X0447962Y0305517D02*
X0028562Y0305517D01*
X0028562Y0307116D02*
X0447962Y0307116D01*
X0447962Y0308714D02*
X0438191Y0308714D01*
X0437433Y0308400D02*
X0440520Y0309679D01*
X0442883Y0312042D01*
X0444162Y0315129D01*
X0444162Y0318471D01*
X0442883Y0321558D01*
X0440520Y0323921D01*
X0437433Y0325200D01*
X0434091Y0325200D01*
X0431004Y0323921D01*
X0428641Y0321558D01*
X0427362Y0318471D01*
X0427362Y0315129D01*
X0428641Y0312042D01*
X0431004Y0309679D01*
X0434091Y0308400D01*
X0437433Y0308400D01*
X0433332Y0308714D02*
X0043191Y0308714D01*
X0042433Y0308400D02*
X0045520Y0309679D01*
X0047883Y0312042D01*
X0049162Y0315129D01*
X0049162Y0318471D01*
X0047883Y0321558D01*
X0045520Y0323921D01*
X0042433Y0325200D01*
X0039091Y0325200D01*
X0036004Y0323921D01*
X0033641Y0321558D01*
X0032362Y0318471D01*
X0032362Y0315129D01*
X0033641Y0312042D01*
X0036004Y0309679D01*
X0039091Y0308400D01*
X0042433Y0308400D01*
X0038332Y0308714D02*
X0028562Y0308714D01*
X0028562Y0310313D02*
X0035370Y0310313D01*
X0033771Y0311911D02*
X0028562Y0311911D01*
X0028562Y0313510D02*
X0033033Y0313510D01*
X0032370Y0315108D02*
X0028562Y0315108D01*
X0028562Y0316707D02*
X0032362Y0316707D01*
X0032362Y0318305D02*
X0028562Y0318305D01*
X0028562Y0319904D02*
X0032955Y0319904D01*
X0033617Y0321502D02*
X0028562Y0321502D01*
X0028562Y0323101D02*
X0035183Y0323101D01*
X0037882Y0324699D02*
X0028562Y0324699D01*
X0028562Y0326298D02*
X0447962Y0326298D01*
X0447962Y0327896D02*
X0028562Y0327896D01*
X0043641Y0324699D02*
X0432882Y0324699D01*
X0430183Y0323101D02*
X0046340Y0323101D01*
X0047906Y0321502D02*
X0428617Y0321502D01*
X0427955Y0319904D02*
X0048568Y0319904D01*
X0049162Y0318305D02*
X0427362Y0318305D01*
X0427362Y0316707D02*
X0049162Y0316707D01*
X0049153Y0315108D02*
X0427370Y0315108D01*
X0428033Y0313510D02*
X0048491Y0313510D01*
X0047752Y0311911D02*
X0428771Y0311911D01*
X0430370Y0310313D02*
X0046154Y0310313D01*
X0070562Y0295926D02*
X0070962Y0295926D01*
X0070962Y0294328D02*
X0070562Y0294328D01*
X0070562Y0292729D02*
X0070962Y0292729D01*
X0070962Y0291131D02*
X0070562Y0291131D01*
X0070562Y0289532D02*
X0070962Y0289532D01*
X0070962Y0287934D02*
X0070562Y0287934D01*
X0068509Y0286335D02*
X0060515Y0286335D01*
X0060515Y0287934D02*
X0067840Y0287934D01*
X0066242Y0289532D02*
X0060515Y0289532D01*
X0060515Y0279941D02*
X0065962Y0279941D01*
X0067431Y0278342D02*
X0028562Y0278342D01*
X0028562Y0276744D02*
X0084787Y0276744D01*
X0086385Y0275145D02*
X0028562Y0275145D01*
X0028562Y0273547D02*
X0087984Y0273547D01*
X0089583Y0271948D02*
X0028562Y0271948D01*
X0028562Y0270350D02*
X0091181Y0270350D01*
X0092780Y0268751D02*
X0028562Y0268751D01*
X0028562Y0267153D02*
X0094378Y0267153D01*
X0095977Y0265554D02*
X0028562Y0265554D01*
X0028562Y0263956D02*
X0086225Y0263956D01*
X0090282Y0263956D02*
X0091241Y0263956D01*
X0091241Y0262357D02*
X0090282Y0262357D01*
X0076242Y0289532D02*
X0075282Y0289532D01*
X0075562Y0291131D02*
X0075962Y0291131D01*
X0075962Y0292729D02*
X0075562Y0292729D01*
X0075022Y0294328D02*
X0076501Y0294328D01*
X0078100Y0295926D02*
X0073424Y0295926D01*
X0051009Y0281539D02*
X0028562Y0281539D01*
X0028562Y0279941D02*
X0051009Y0279941D01*
X0113424Y0295926D02*
X0145845Y0295926D01*
X0144582Y0294328D02*
X0115022Y0294328D01*
X0115562Y0292729D02*
X0144362Y0292729D01*
X0144362Y0291131D02*
X0115562Y0291131D01*
X0115282Y0289532D02*
X0144362Y0289532D01*
X0152732Y0294328D02*
X0194712Y0294328D01*
X0194712Y0295926D02*
X0154331Y0295926D01*
X0163308Y0291131D02*
X0168216Y0291131D01*
X0167505Y0289532D02*
X0164018Y0289532D01*
X0164018Y0287934D02*
X0167505Y0287934D01*
X0167505Y0286335D02*
X0164018Y0286335D01*
X0164018Y0284737D02*
X0167505Y0284737D01*
X0167505Y0283138D02*
X0164018Y0283138D01*
X0164018Y0281539D02*
X0167505Y0281539D01*
X0166747Y0279941D02*
X0164018Y0279941D01*
X0164018Y0278342D02*
X0165148Y0278342D01*
X0165231Y0257562D02*
X0160740Y0257562D01*
X0159805Y0254365D02*
X0161718Y0254365D01*
X0161718Y0252766D02*
X0159805Y0252766D01*
X0159742Y0251168D02*
X0161782Y0251168D01*
X0125980Y0286335D02*
X0125544Y0286335D01*
X0351862Y0152060D02*
X0391661Y0152060D01*
X0390873Y0150462D02*
X0351862Y0150462D01*
X0351862Y0148863D02*
X0396812Y0148863D01*
X0396812Y0147265D02*
X0398412Y0147265D01*
X0398412Y0147339D02*
X0398412Y0141068D01*
X0399003Y0141145D01*
X0399904Y0141387D01*
X0400766Y0141744D01*
X0401574Y0142210D01*
X0402313Y0142778D01*
X0402973Y0143437D01*
X0403541Y0144177D01*
X0404007Y0144985D01*
X0404364Y0145847D01*
X0404605Y0146748D01*
X0404683Y0147339D01*
X0398412Y0147339D01*
X0398412Y0148863D02*
X0421993Y0148863D01*
X0421993Y0147265D02*
X0404673Y0147265D01*
X0404289Y0145666D02*
X0422431Y0145666D01*
X0423117Y0144068D02*
X0403457Y0144068D01*
X0401911Y0142469D02*
X0424716Y0142469D01*
X0433501Y0142469D02*
X0447962Y0142469D01*
X0447962Y0140870D02*
X0351862Y0140870D01*
X0351862Y0139272D02*
X0447962Y0139272D01*
X0447962Y0137673D02*
X0351862Y0137673D01*
X0351862Y0136075D02*
X0447962Y0136075D01*
X0447962Y0134476D02*
X0351862Y0134476D01*
X0351862Y0132878D02*
X0447962Y0132878D01*
X0447962Y0131279D02*
X0351862Y0131279D01*
X0351862Y0129681D02*
X0410572Y0129681D01*
X0410565Y0129678D02*
X0408199Y0127312D01*
X0406919Y0124221D01*
X0406919Y0120875D01*
X0408199Y0117784D01*
X0410565Y0115418D01*
X0413656Y0114138D01*
X0417002Y0114138D01*
X0420093Y0115418D01*
X0422459Y0117784D01*
X0423739Y0120875D01*
X0423739Y0124221D01*
X0422459Y0127312D01*
X0420093Y0129678D01*
X0417002Y0130958D01*
X0413656Y0130958D01*
X0410565Y0129678D01*
X0408969Y0128082D02*
X0351862Y0128082D01*
X0351862Y0126484D02*
X0407856Y0126484D01*
X0407194Y0124885D02*
X0351862Y0124885D01*
X0351862Y0123287D02*
X0406919Y0123287D01*
X0406919Y0121688D02*
X0351862Y0121688D01*
X0351862Y0120090D02*
X0407244Y0120090D01*
X0407906Y0118491D02*
X0351862Y0118491D01*
X0351862Y0116893D02*
X0409090Y0116893D01*
X0410864Y0115294D02*
X0351862Y0115294D01*
X0352260Y0113696D02*
X0447962Y0113696D01*
X0447962Y0115294D02*
X0419794Y0115294D01*
X0421567Y0116893D02*
X0447962Y0116893D01*
X0447962Y0118491D02*
X0422752Y0118491D01*
X0423414Y0120090D02*
X0447962Y0120090D01*
X0447962Y0121688D02*
X0423739Y0121688D01*
X0423739Y0123287D02*
X0447962Y0123287D01*
X0447962Y0124885D02*
X0423464Y0124885D01*
X0422802Y0126484D02*
X0447962Y0126484D01*
X0447962Y0128082D02*
X0421688Y0128082D01*
X0420085Y0129681D02*
X0447962Y0129681D01*
X0447962Y0144068D02*
X0435099Y0144068D01*
X0435785Y0145666D02*
X0447962Y0145666D01*
X0447962Y0147265D02*
X0436223Y0147265D01*
X0436223Y0148863D02*
X0447962Y0148863D01*
X0447962Y0150462D02*
X0435847Y0150462D01*
X0435185Y0152060D02*
X0447962Y0152060D01*
X0447962Y0153659D02*
X0433650Y0153659D01*
X0424566Y0153659D02*
X0420086Y0153659D01*
X0420475Y0155257D02*
X0447962Y0155257D01*
X0423031Y0152060D02*
X0419424Y0152060D01*
X0417871Y0150462D02*
X0422369Y0150462D01*
X0408849Y0150462D02*
X0404351Y0150462D01*
X0403564Y0152060D02*
X0407296Y0152060D01*
X0407338Y0160053D02*
X0403725Y0160053D01*
X0404387Y0161651D02*
X0408937Y0161651D01*
X0408612Y0166447D02*
X0404253Y0166447D01*
X0403516Y0168045D02*
X0407198Y0168045D01*
X0390551Y0147265D02*
X0351862Y0147265D01*
X0351862Y0145666D02*
X0390935Y0145666D01*
X0391768Y0144068D02*
X0351862Y0144068D01*
X0351862Y0142469D02*
X0393313Y0142469D01*
X0396812Y0142469D02*
X0398412Y0142469D01*
X0398412Y0144068D02*
X0396812Y0144068D01*
X0396812Y0145666D02*
X0398412Y0145666D01*
X0353859Y0112097D02*
X0447962Y0112097D01*
X0447962Y0110499D02*
X0355457Y0110499D01*
X0357056Y0108900D02*
X0447962Y0108900D01*
X0447962Y0107302D02*
X0358654Y0107302D01*
X0360253Y0105703D02*
X0447962Y0105703D01*
X0447962Y0104105D02*
X0361851Y0104105D01*
X0363450Y0102506D02*
X0447962Y0102506D01*
X0447962Y0100908D02*
X0368442Y0100908D01*
X0370041Y0099309D02*
X0447962Y0099309D01*
X0447962Y0097711D02*
X0370562Y0097711D01*
X0370562Y0096112D02*
X0447962Y0096112D01*
X0447962Y0094514D02*
X0370264Y0094514D01*
X0369546Y0092915D02*
X0447962Y0092915D01*
X0447962Y0091317D02*
X0371145Y0091317D01*
X0372522Y0089718D02*
X0447962Y0089718D01*
X0447962Y0088120D02*
X0372762Y0088120D01*
X0372762Y0086521D02*
X0447962Y0086521D01*
X0447962Y0084923D02*
X0372762Y0084923D01*
X0372185Y0083324D02*
X0447962Y0083324D01*
X0447962Y0081726D02*
X0370587Y0081726D01*
X0369223Y0080127D02*
X0447962Y0080127D01*
X0447962Y0078529D02*
X0370562Y0078529D01*
X0370562Y0076930D02*
X0447962Y0076930D01*
X0447962Y0075332D02*
X0370562Y0075332D01*
X0369483Y0073733D02*
X0447962Y0073733D01*
X0447962Y0072134D02*
X0367885Y0072134D01*
X0363175Y0070536D02*
X0447962Y0070536D01*
X0447962Y0068937D02*
X0361576Y0068937D01*
X0359978Y0067339D02*
X0447962Y0067339D01*
X0447962Y0065740D02*
X0358379Y0065740D01*
X0356781Y0064142D02*
X0447962Y0064142D01*
X0447962Y0062543D02*
X0355182Y0062543D01*
X0353584Y0060945D02*
X0447962Y0060945D01*
X0447962Y0059346D02*
X0351985Y0059346D01*
X0350387Y0057748D02*
X0447962Y0057748D01*
X0447962Y0056149D02*
X0348298Y0056149D01*
X0347662Y0058700D02*
X0336262Y0058700D01*
X0333537Y0057748D02*
X0318462Y0057748D01*
X0318462Y0059346D02*
X0331938Y0059346D01*
X0347662Y0058700D02*
X0365762Y0076800D01*
X0365762Y0080577D01*
X0370162Y0084977D01*
X0370162Y0088623D01*
X0367584Y0091200D01*
X0354473Y0091200D01*
X0347462Y0098211D01*
X0350062Y0099288D02*
X0350062Y0109106D01*
X0357568Y0101600D01*
X0355962Y0101600D01*
X0355962Y0097000D01*
X0360562Y0097000D01*
X0360562Y0098606D01*
X0360962Y0098206D01*
X0360962Y0094812D01*
X0361974Y0093800D01*
X0359550Y0093800D01*
X0360562Y0094812D01*
X0360562Y0096600D01*
X0355962Y0096600D01*
X0355962Y0097000D01*
X0355562Y0097000D01*
X0355562Y0101600D01*
X0353774Y0101600D01*
X0350962Y0098788D01*
X0350962Y0098388D01*
X0350062Y0099288D01*
X0350062Y0099309D02*
X0351483Y0099309D01*
X0350062Y0100908D02*
X0353081Y0100908D01*
X0355562Y0100908D02*
X0355962Y0100908D01*
X0355962Y0099309D02*
X0355562Y0099309D01*
X0355562Y0097711D02*
X0355962Y0097711D01*
X0360562Y0097711D02*
X0360962Y0097711D01*
X0360962Y0096112D02*
X0360562Y0096112D01*
X0360264Y0094514D02*
X0361260Y0094514D01*
X0361984Y0086800D02*
X0357584Y0082400D01*
X0353939Y0082400D01*
X0351362Y0084977D01*
X0351362Y0087700D01*
X0361984Y0086800D02*
X0365762Y0086800D01*
X0360162Y0081200D01*
X0360162Y0074977D01*
X0331182Y0077000D02*
X0320762Y0077000D01*
X0309262Y0084923D02*
X0332262Y0084923D01*
X0332262Y0086521D02*
X0324509Y0086521D01*
X0322393Y0086521D02*
X0309262Y0086521D01*
X0309262Y0088120D02*
X0320649Y0088120D01*
X0319765Y0089718D02*
X0309262Y0089718D01*
X0309262Y0091317D02*
X0318166Y0091317D01*
X0316895Y0092915D02*
X0309262Y0092915D01*
X0304562Y0086500D02*
X0304562Y0086500D01*
X0323356Y0092915D02*
X0332262Y0092915D01*
X0332262Y0091317D02*
X0325929Y0091317D01*
X0326540Y0089718D02*
X0332262Y0089718D01*
X0332262Y0088120D02*
X0326253Y0088120D01*
X0350062Y0102506D02*
X0356661Y0102506D01*
X0355063Y0104105D02*
X0350062Y0104105D01*
X0350062Y0105703D02*
X0353464Y0105703D01*
X0351866Y0107302D02*
X0350062Y0107302D01*
X0350062Y0108900D02*
X0350267Y0108900D01*
X0358157Y0263956D02*
X0379330Y0263956D01*
X0380891Y0265554D02*
X0360633Y0265554D01*
X0361797Y0267153D02*
X0379727Y0267153D01*
X0379065Y0268751D02*
X0362459Y0268751D01*
X0362483Y0270350D02*
X0379041Y0270350D01*
X0379266Y0271948D02*
X0362258Y0271948D01*
X0361596Y0273547D02*
X0379928Y0273547D01*
X0381376Y0275145D02*
X0360147Y0275145D01*
X0397483Y0289532D02*
X0447962Y0289532D01*
X0447962Y0287934D02*
X0399800Y0287934D01*
X0400899Y0286335D02*
X0447962Y0286335D01*
X0447962Y0284737D02*
X0401538Y0284737D01*
X0401538Y0283138D02*
X0447962Y0283138D01*
X0447962Y0281539D02*
X0401267Y0281539D01*
X0400604Y0279941D02*
X0447962Y0279941D01*
X0447962Y0278342D02*
X0399090Y0278342D01*
X0441154Y0310313D02*
X0447962Y0310313D01*
X0447962Y0311911D02*
X0442752Y0311911D01*
X0443491Y0313510D02*
X0447962Y0313510D01*
X0447962Y0315108D02*
X0444153Y0315108D01*
X0444162Y0316707D02*
X0447962Y0316707D01*
X0447962Y0318305D02*
X0444162Y0318305D01*
X0443568Y0319904D02*
X0447962Y0319904D01*
X0447962Y0321502D02*
X0442906Y0321502D01*
X0441340Y0323101D02*
X0447962Y0323101D01*
X0447962Y0324699D02*
X0438641Y0324699D01*
D37*
X0338659Y0204100D02*
X0336962Y0204100D01*
X0334262Y0206800D01*
X0334262Y0201800D02*
X0322262Y0201800D01*
X0317362Y0196900D01*
X0317362Y0155600D01*
X0319851Y0158100D02*
X0319851Y0173089D01*
X0328562Y0181800D01*
X0334262Y0181800D01*
X0349462Y0193297D02*
X0349462Y0113100D01*
X0365762Y0096800D01*
X0341062Y0091303D02*
X0341062Y0122237D01*
X0331099Y0132200D01*
X0321262Y0132200D01*
X0318262Y0135200D01*
X0318262Y0137824D01*
X0323262Y0137824D02*
X0323262Y0141200D01*
X0319476Y0144986D01*
X0295771Y0144986D01*
X0294393Y0146364D01*
X0292331Y0146364D01*
X0289984Y0144017D01*
X0293362Y0143875D02*
X0294051Y0143186D01*
X0308140Y0143186D01*
X0310643Y0140683D01*
X0310643Y0140443D01*
X0313262Y0137824D01*
X0308362Y0137724D02*
X0308362Y0132600D01*
X0310562Y0130400D01*
X0330353Y0130400D01*
X0336962Y0123791D01*
X0336962Y0092800D01*
X0337862Y0090600D02*
X0336962Y0089700D01*
X0337862Y0090600D02*
X0340359Y0090600D01*
X0341062Y0091303D01*
X0331762Y0098000D02*
X0331762Y0101051D01*
X0334762Y0104051D01*
X0334762Y0123446D01*
X0329607Y0128600D01*
X0304962Y0128600D01*
X0298262Y0135300D01*
X0298262Y0137824D01*
X0300643Y0140443D02*
X0300643Y0140683D01*
X0299940Y0141386D01*
X0281348Y0141386D01*
X0254124Y0114162D01*
X0228085Y0114162D01*
X0228253Y0115962D02*
X0228085Y0116131D01*
X0228253Y0115962D02*
X0238024Y0115962D01*
X0238713Y0116651D01*
X0238862Y0116651D01*
X0235885Y0118451D02*
X0235533Y0118099D01*
X0228085Y0118099D01*
X0228085Y0120068D02*
X0230930Y0120068D01*
X0235162Y0124300D01*
X0239522Y0124300D01*
X0233652Y0126310D02*
X0232020Y0127942D01*
X0228085Y0127942D01*
X0228235Y0129760D02*
X0228085Y0129910D01*
X0228235Y0129760D02*
X0233722Y0129760D01*
X0233362Y0133138D02*
X0233362Y0137600D01*
X0231209Y0139753D01*
X0228085Y0139753D01*
X0228085Y0122036D02*
X0220587Y0122036D01*
X0220551Y0122000D01*
X0228128Y0108300D02*
X0228085Y0108257D01*
X0228128Y0108300D02*
X0235662Y0108300D01*
X0239724Y0112362D01*
X0254870Y0112362D01*
X0282093Y0139586D01*
X0287973Y0139586D01*
X0288662Y0138897D01*
X0283124Y0137097D02*
X0254727Y0108700D01*
X0244916Y0108700D01*
X0242504Y0106288D01*
X0228085Y0106288D01*
X0228085Y0104320D02*
X0228104Y0104300D01*
X0243062Y0104300D01*
X0245662Y0106900D01*
X0290062Y0106900D01*
X0293762Y0103200D01*
X0303380Y0103200D01*
X0310881Y0110701D01*
X0310881Y0118636D01*
X0311584Y0119339D01*
X0319940Y0119339D01*
X0320643Y0118636D01*
X0320643Y0118395D01*
X0323262Y0115776D01*
X0318262Y0115776D02*
X0315643Y0113157D01*
X0315643Y0112917D01*
X0304562Y0101836D01*
X0304562Y0092800D01*
X0303662Y0090600D02*
X0304562Y0089700D01*
X0303662Y0090600D02*
X0301165Y0090600D01*
X0289965Y0101800D01*
X0275862Y0101800D01*
X0268362Y0094300D01*
X0264738Y0094300D01*
X0262119Y0091919D02*
X0261879Y0091919D01*
X0253936Y0099862D01*
X0244202Y0099862D01*
X0245922Y0098062D02*
X0245233Y0097373D01*
X0243171Y0097373D01*
X0240682Y0099862D01*
X0244633Y0102351D02*
X0246693Y0104411D01*
X0244633Y0102351D02*
X0228085Y0102351D01*
X0245922Y0098062D02*
X0253162Y0098062D01*
X0259162Y0092062D01*
X0259162Y0080900D01*
X0260762Y0079300D01*
X0264738Y0079300D01*
X0260597Y0076919D02*
X0272360Y0076919D01*
X0274979Y0074300D01*
X0286785Y0074300D01*
X0289645Y0071681D02*
X0290348Y0070978D01*
X0290348Y0067622D01*
X0288362Y0065636D01*
X0288362Y0047046D01*
X0291807Y0043600D01*
X0305016Y0043600D01*
X0312862Y0051446D01*
X0312862Y0065600D01*
X0309762Y0065600D02*
X0309762Y0050891D01*
X0304271Y0045400D01*
X0292553Y0045400D01*
X0290162Y0047791D01*
X0290162Y0064890D01*
X0292148Y0066876D01*
X0292148Y0084178D01*
X0289645Y0086681D01*
X0287081Y0086681D01*
X0287062Y0086700D01*
X0270762Y0086700D01*
X0268362Y0084300D01*
X0264738Y0084300D01*
X0264738Y0089300D02*
X0262119Y0091919D01*
X0257362Y0090342D02*
X0257362Y0080154D01*
X0260597Y0076919D01*
X0264738Y0074300D02*
X0267357Y0071681D01*
X0289645Y0071681D01*
X0286785Y0069300D02*
X0286562Y0069076D01*
X0286562Y0046300D01*
X0291062Y0041800D01*
X0305762Y0041800D01*
X0316062Y0052100D01*
X0316062Y0065600D01*
X0322362Y0065600D02*
X0322362Y0070500D01*
X0323451Y0089426D02*
X0319162Y0093715D01*
X0319162Y0098000D01*
X0321362Y0099000D02*
X0321362Y0101397D01*
X0317843Y0104916D01*
X0317843Y0111525D01*
X0315354Y0109108D02*
X0309762Y0103516D01*
X0309762Y0098000D01*
X0302635Y0105000D02*
X0294507Y0105000D01*
X0290807Y0108700D01*
X0276751Y0108700D01*
X0276062Y0109389D01*
X0279039Y0111189D02*
X0279728Y0110500D01*
X0296662Y0110500D01*
X0298262Y0112100D01*
X0298262Y0115776D01*
X0303262Y0115776D02*
X0303262Y0122400D01*
X0305862Y0125000D01*
X0328116Y0125000D01*
X0331162Y0121954D01*
X0331162Y0106500D01*
X0325462Y0100800D01*
X0325462Y0098000D01*
X0322362Y0098000D02*
X0321362Y0099000D01*
X0328662Y0098000D02*
X0329562Y0098900D01*
X0329562Y0101397D01*
X0332962Y0104797D01*
X0332962Y0122700D01*
X0328862Y0126800D01*
X0299162Y0126800D01*
X0293262Y0120900D01*
X0293262Y0115776D01*
X0302635Y0105000D02*
X0308262Y0110627D01*
X0308262Y0115776D01*
X0308362Y0137724D02*
X0308262Y0137824D01*
X0303262Y0137824D02*
X0300643Y0140443D01*
X0273963Y0137521D02*
X0265041Y0137521D01*
X0236062Y0166500D01*
X0236062Y0170020D01*
X0175762Y0230320D01*
X0175762Y0252800D01*
X0166140Y0252800D01*
X0165880Y0253060D01*
X0185762Y0258900D02*
X0185762Y0264517D01*
X0224762Y0266800D02*
X0224862Y0266700D01*
X0229062Y0266700D01*
X0175762Y0197666D02*
X0180841Y0192587D01*
X0180841Y0179123D01*
X0182809Y0179123D02*
X0182978Y0179291D01*
X0182978Y0182156D01*
X0185162Y0184340D01*
X0185162Y0189100D01*
X0184862Y0184300D02*
X0182809Y0182247D01*
X0182809Y0179123D01*
X0178872Y0179123D02*
X0178872Y0190490D01*
X0176662Y0192700D01*
X0174962Y0189800D02*
X0171062Y0193700D01*
X0159728Y0193700D01*
X0155762Y0197666D01*
X0159262Y0185100D02*
X0159187Y0185025D01*
X0159187Y0179123D01*
X0163124Y0179123D02*
X0163124Y0183031D01*
X0163262Y0183168D01*
X0174935Y0179123D02*
X0174962Y0179150D01*
X0174962Y0189800D01*
X0177081Y0176657D02*
X0188689Y0165050D01*
X0190762Y0165050D01*
X0190683Y0165129D01*
X0190683Y0179123D01*
X0192652Y0179123D02*
X0192652Y0183890D01*
X0192962Y0184200D01*
X0190762Y0165050D02*
X0220312Y0165050D01*
X0220211Y0165151D01*
X0220211Y0179123D01*
X0218242Y0179123D02*
X0218242Y0182620D01*
X0216662Y0184200D01*
X0216274Y0183812D01*
X0216274Y0179123D01*
X0224562Y0169300D02*
X0224581Y0169280D01*
X0228085Y0169280D01*
X0228085Y0167312D02*
X0231274Y0167312D01*
X0231462Y0167500D01*
X0231253Y0167709D01*
X0231253Y0170368D01*
X0230762Y0170859D01*
X0230762Y0171249D01*
X0231813Y0171249D01*
X0231962Y0171100D01*
X0230762Y0171249D02*
X0228085Y0171249D01*
X0224562Y0169300D02*
X0220312Y0165050D01*
X0195762Y0140500D01*
X0195762Y0106800D01*
X0200516Y0102046D01*
X0200516Y0094487D01*
X0200526Y0094477D01*
X0200516Y0094477D02*
X0200516Y0094487D01*
X0198557Y0094477D02*
X0198389Y0094646D01*
X0198389Y0096933D01*
X0197676Y0097646D01*
X0190762Y0097646D01*
X0190762Y0098335D01*
X0190762Y0097646D02*
X0189595Y0097646D01*
X0188883Y0096933D01*
X0188883Y0094646D01*
X0188715Y0094477D01*
X0190683Y0094477D02*
X0190683Y0090658D01*
X0152725Y0052700D01*
X0143463Y0052700D01*
X0137820Y0047057D01*
X0137820Y0041969D01*
X0137652Y0041800D01*
X0135852Y0041969D02*
X0135852Y0047634D01*
X0142718Y0054500D01*
X0151862Y0054500D01*
X0186746Y0089384D01*
X0186746Y0094477D01*
X0184778Y0094477D02*
X0184778Y0101284D01*
X0184662Y0101400D01*
X0176904Y0106658D02*
X0176762Y0106800D01*
X0195762Y0106800D01*
X0196589Y0094477D02*
X0196589Y0088927D01*
X0154962Y0047300D01*
X0145700Y0047300D01*
X0143726Y0045325D01*
X0143726Y0045264D01*
X0143562Y0045100D01*
X0143562Y0041805D01*
X0143557Y0041800D01*
X0141662Y0041873D02*
X0141662Y0045800D01*
X0141926Y0046064D01*
X0141926Y0046071D01*
X0144955Y0049100D01*
X0154216Y0049100D01*
X0194620Y0089504D01*
X0194620Y0094477D01*
X0192652Y0094477D02*
X0192652Y0090081D01*
X0153471Y0050900D01*
X0144209Y0050900D01*
X0139789Y0046480D01*
X0139789Y0041969D01*
X0139620Y0041800D01*
X0141589Y0041800D02*
X0141662Y0041873D01*
X0135852Y0041969D02*
X0135683Y0041800D01*
X0133883Y0041969D02*
X0133883Y0048211D01*
X0141972Y0056300D01*
X0151116Y0056300D01*
X0182809Y0087993D01*
X0182809Y0094477D01*
X0180841Y0094477D02*
X0180841Y0088570D01*
X0150371Y0058100D01*
X0141227Y0058100D01*
X0131915Y0048788D01*
X0131915Y0041969D01*
X0131746Y0041800D01*
X0129946Y0041969D02*
X0129946Y0049365D01*
X0140481Y0059900D01*
X0149625Y0059900D01*
X0178872Y0089147D01*
X0178872Y0094477D01*
X0176904Y0094477D02*
X0176904Y0106658D01*
X0176762Y0106800D02*
X0161348Y0106800D01*
X0151491Y0096943D01*
X0151491Y0094655D01*
X0151313Y0094477D01*
X0146607Y0099183D01*
X0143439Y0098095D02*
X0143439Y0102342D01*
X0143430Y0102342D01*
X0141161Y0102342D01*
X0140270Y0103232D01*
X0140270Y0105407D01*
X0139853Y0105407D01*
X0128303Y0093857D01*
X0143439Y0098095D02*
X0150225Y0091309D01*
X0152401Y0091309D01*
X0153104Y0092012D01*
X0153104Y0092331D01*
X0155250Y0094477D01*
X0157219Y0094477D02*
X0157219Y0087858D01*
X0143660Y0074300D01*
X0134516Y0074300D01*
X0114030Y0053813D01*
X0114030Y0041800D01*
X0115998Y0041800D02*
X0116167Y0041969D01*
X0116167Y0053405D01*
X0135262Y0072500D01*
X0144406Y0072500D01*
X0159187Y0087281D01*
X0159187Y0094477D01*
X0161156Y0094477D02*
X0161156Y0086704D01*
X0145151Y0070700D01*
X0136008Y0070700D01*
X0117967Y0052659D01*
X0117967Y0041800D01*
X0119935Y0041800D02*
X0119935Y0052082D01*
X0136753Y0068900D01*
X0145897Y0068900D01*
X0163124Y0086127D01*
X0163124Y0094477D01*
X0165093Y0094477D02*
X0165093Y0085550D01*
X0146643Y0067100D01*
X0137499Y0067100D01*
X0121904Y0051505D01*
X0121904Y0041800D01*
X0123872Y0041800D02*
X0124041Y0041969D01*
X0124041Y0051096D01*
X0138244Y0065300D01*
X0147388Y0065300D01*
X0167061Y0084973D01*
X0167061Y0094477D01*
X0169030Y0094477D02*
X0169062Y0094509D01*
X0169062Y0101500D01*
X0170998Y0094477D02*
X0170998Y0086364D01*
X0148134Y0063500D01*
X0138990Y0063500D01*
X0126009Y0050519D01*
X0126009Y0041969D01*
X0125841Y0041800D01*
X0127809Y0041800D02*
X0127978Y0041969D01*
X0127978Y0049942D01*
X0139736Y0061700D01*
X0148879Y0061700D01*
X0172967Y0085787D01*
X0172967Y0094477D01*
X0174935Y0094477D02*
X0175104Y0094309D01*
X0175104Y0092021D01*
X0176383Y0090742D01*
X0176383Y0090400D01*
X0198389Y0094636D02*
X0198389Y0094646D01*
X0198389Y0094636D02*
X0198548Y0094477D01*
X0212337Y0094477D02*
X0212337Y0090925D01*
X0212362Y0090900D01*
X0212337Y0094477D02*
X0212337Y0097875D01*
X0212362Y0097900D01*
X0193273Y0122000D02*
X0161251Y0154022D01*
X0161251Y0170431D01*
X0158093Y0173589D01*
X0142908Y0173589D01*
X0138480Y0178018D01*
X0141728Y0171249D02*
X0144862Y0171249D01*
X0152191Y0171249D01*
X0152731Y0171789D01*
X0154793Y0171789D01*
X0157182Y0169400D01*
X0158762Y0169400D01*
X0153762Y0169300D02*
X0143459Y0169300D01*
X0143439Y0169280D01*
X0143270Y0169449D01*
X0140983Y0169449D01*
X0104962Y0205470D01*
X0104962Y0233540D01*
X0100762Y0237740D01*
X0100762Y0241800D01*
X0094962Y0237600D02*
X0090762Y0241800D01*
X0090762Y0253060D01*
X0094962Y0237600D02*
X0094962Y0210051D01*
X0092262Y0207351D01*
X0092262Y0153100D01*
X0092262Y0151146D01*
X0101707Y0141700D01*
X0143418Y0141700D01*
X0143439Y0141721D01*
X0143439Y0139753D02*
X0148715Y0139753D01*
X0150762Y0141800D01*
X0152432Y0143650D02*
X0151793Y0144289D01*
X0149731Y0144289D01*
X0149132Y0143690D01*
X0143439Y0143690D01*
X0102263Y0143690D01*
X0094153Y0151800D01*
X0094153Y0164402D01*
X0094751Y0165000D01*
X0097240Y0166031D02*
X0094062Y0169209D01*
X0094062Y0205800D01*
X0100762Y0212500D01*
X0100762Y0231800D01*
X0110762Y0231800D02*
X0110762Y0202215D01*
X0141728Y0171249D01*
X0143439Y0171249D02*
X0144862Y0171249D01*
X0143439Y0167312D02*
X0143427Y0167300D01*
X0140162Y0167300D01*
X0139262Y0168200D01*
X0129416Y0168200D01*
X0124039Y0162823D01*
X0124039Y0156742D01*
X0123150Y0155853D01*
X0125839Y0157941D02*
X0125839Y0162077D01*
X0130162Y0166400D01*
X0138516Y0166400D01*
X0139573Y0165343D01*
X0143439Y0165343D01*
X0143439Y0163384D02*
X0145762Y0163384D01*
X0145752Y0163375D01*
X0143439Y0163375D01*
X0145762Y0163384D02*
X0150378Y0163384D01*
X0150462Y0163300D01*
X0143439Y0159438D02*
X0139142Y0159438D01*
X0138438Y0160142D01*
X0134053Y0160142D01*
X0130795Y0156884D01*
X0130795Y0156742D01*
X0129906Y0155853D01*
X0133284Y0155853D02*
X0134173Y0156742D01*
X0134173Y0156884D01*
X0135631Y0158342D01*
X0137693Y0158342D01*
X0138565Y0157469D01*
X0143439Y0157469D01*
X0143439Y0155501D02*
X0137014Y0155501D01*
X0136662Y0155853D01*
X0143270Y0153364D02*
X0117589Y0153364D01*
X0116962Y0153991D01*
X0116962Y0176251D01*
X0109304Y0183909D01*
X0105784Y0183909D01*
X0104753Y0186398D02*
X0120514Y0186398D01*
X0128887Y0178025D01*
X0115162Y0174531D02*
X0115162Y0153246D01*
X0116844Y0151564D01*
X0143439Y0151564D01*
X0143270Y0151395D01*
X0143439Y0149595D02*
X0116267Y0149595D01*
X0112562Y0153300D01*
X0112562Y0170080D01*
X0113251Y0170769D01*
X0113251Y0172922D01*
X0108273Y0177900D01*
X0108273Y0181420D02*
X0115162Y0174531D01*
X0110762Y0171800D02*
X0110762Y0152458D01*
X0115762Y0147458D01*
X0142810Y0147458D01*
X0142852Y0147500D01*
X0143312Y0147500D01*
X0143439Y0147627D01*
X0143597Y0145700D02*
X0148262Y0145700D01*
X0151162Y0148600D01*
X0158862Y0148600D01*
X0159062Y0148800D01*
X0157562Y0143700D02*
X0157612Y0143650D01*
X0152432Y0143650D01*
X0157612Y0143650D02*
X0170662Y0130600D01*
X0170662Y0119200D01*
X0149362Y0115700D02*
X0148941Y0116121D01*
X0145717Y0116121D01*
X0143448Y0116121D01*
X0143439Y0116131D01*
X0143439Y0116121D02*
X0143448Y0116121D01*
X0143439Y0114162D02*
X0143270Y0113994D01*
X0139829Y0113994D01*
X0108124Y0082289D01*
X0108124Y0041800D01*
X0106324Y0041969D02*
X0106324Y0083272D01*
X0140973Y0117921D01*
X0140406Y0119899D02*
X0104187Y0083680D01*
X0104187Y0041800D01*
X0102219Y0041800D02*
X0102219Y0084258D01*
X0139829Y0121868D01*
X0143270Y0121868D01*
X0143439Y0122036D01*
X0143270Y0123836D02*
X0139252Y0123836D01*
X0100419Y0085003D01*
X0100419Y0041969D01*
X0100250Y0041800D01*
X0098281Y0041800D02*
X0098281Y0085412D01*
X0140634Y0127764D01*
X0143617Y0127764D01*
X0145905Y0127764D01*
X0146607Y0127061D01*
X0146607Y0117012D01*
X0145717Y0116121D01*
X0143270Y0119899D02*
X0140406Y0119899D01*
X0143270Y0119899D02*
X0143439Y0120068D01*
X0143270Y0123836D02*
X0143439Y0124005D01*
X0143617Y0127764D02*
X0143439Y0127942D01*
X0143439Y0133847D02*
X0107015Y0133847D01*
X0090462Y0150400D01*
X0090462Y0206151D01*
X0086609Y0210004D01*
X0086609Y0216387D01*
X0090762Y0220540D01*
X0090762Y0231800D01*
X0080762Y0231800D02*
X0080762Y0220540D01*
X0076609Y0216387D01*
X0076609Y0210004D01*
X0077673Y0208940D01*
X0077673Y0204891D01*
X0070762Y0188411D02*
X0070762Y0231800D01*
X0070762Y0188411D02*
X0087973Y0171200D01*
X0097240Y0166031D02*
X0097240Y0151259D01*
X0102840Y0145658D01*
X0143439Y0145658D01*
X0143497Y0145600D01*
X0143597Y0145700D01*
X0143270Y0153364D02*
X0143439Y0153532D01*
X0140973Y0161584D02*
X0139458Y0163100D01*
X0132062Y0163100D01*
X0126528Y0157252D02*
X0125839Y0157941D01*
X0143439Y0135816D02*
X0150146Y0135816D01*
X0150162Y0135800D01*
X0143439Y0112194D02*
X0143270Y0112025D01*
X0140406Y0112025D01*
X0110093Y0081712D01*
X0110093Y0041800D01*
X0112061Y0041800D02*
X0112061Y0081135D01*
X0140973Y0110047D01*
X0143439Y0108257D02*
X0143448Y0108247D01*
X0145815Y0108247D01*
X0146162Y0107900D01*
X0146162Y0107200D01*
X0145250Y0106288D01*
X0143439Y0106288D01*
X0143270Y0106120D01*
X0140983Y0106120D01*
X0140270Y0105407D01*
X0143439Y0108247D02*
X0143448Y0108247D01*
X0143439Y0102351D02*
X0143430Y0102342D01*
X0092887Y0052700D02*
X0092376Y0052189D01*
X0092376Y0041800D01*
X0094344Y0041800D02*
X0094344Y0049380D01*
X0094865Y0049901D01*
X0106156Y0041800D02*
X0106324Y0041969D01*
X0129778Y0041800D02*
X0129946Y0041969D01*
X0133715Y0041800D02*
X0133883Y0041969D01*
X0149285Y0041622D02*
X0149463Y0041800D01*
X0151263Y0041631D02*
X0151263Y0038275D01*
X0150717Y0037729D01*
X0150717Y0035080D01*
X0150901Y0034896D01*
X0150901Y0033639D01*
X0153206Y0036111D02*
X0153400Y0036305D01*
X0153400Y0041800D01*
X0155368Y0041800D02*
X0155368Y0037469D01*
X0156584Y0036253D01*
X0158218Y0038139D02*
X0157337Y0039020D01*
X0157337Y0041800D01*
X0158218Y0038139D02*
X0159273Y0038139D01*
X0159962Y0037450D01*
X0161274Y0041800D02*
X0161274Y0047449D01*
X0161893Y0048069D01*
X0151431Y0041800D02*
X0151263Y0041631D01*
X0147262Y0033758D02*
X0147273Y0033747D01*
X0252131Y0095573D02*
X0257362Y0090342D01*
X0259462Y0099300D02*
X0264738Y0099300D01*
X0234162Y0165300D02*
X0234119Y0165343D01*
X0228085Y0165343D01*
X0338659Y0204100D02*
X0349462Y0193297D01*
X0122022Y0271800D02*
X0100762Y0271800D01*
X0090762Y0281800D01*
X0110762Y0281800D02*
X0122022Y0281800D01*
X0104753Y0186398D02*
X0102455Y0184100D01*
X0096551Y0184100D01*
D38*
X0096551Y0184100D03*
X0105784Y0183909D03*
X0108273Y0181420D03*
X0108273Y0177900D03*
X0110762Y0171800D03*
X0094751Y0165000D03*
X0087973Y0171200D03*
X0073251Y0196100D03*
X0077673Y0204891D03*
X0068273Y0209500D03*
X0090762Y0213060D03*
X0128887Y0178025D03*
X0138480Y0178018D03*
X0153762Y0169300D03*
X0158762Y0169400D03*
X0150462Y0163300D03*
X0136662Y0155853D03*
X0133284Y0155853D03*
X0129906Y0155853D03*
X0126528Y0157252D03*
X0123150Y0155853D03*
X0132062Y0163100D03*
X0150762Y0141800D03*
X0150162Y0135800D03*
X0159062Y0148800D03*
X0175762Y0131800D03*
X0170662Y0119200D03*
X0149362Y0115700D03*
X0169062Y0101500D03*
X0176383Y0090400D03*
X0184662Y0101400D03*
X0190762Y0098335D03*
X0205762Y0111800D03*
X0215762Y0111800D03*
X0220551Y0115300D03*
X0220551Y0122000D03*
X0221562Y0126000D03*
X0233652Y0126310D03*
X0233722Y0129760D03*
X0233362Y0133138D03*
X0247062Y0130200D03*
X0235885Y0118451D03*
X0238862Y0116651D03*
X0246693Y0104411D03*
X0244202Y0099862D03*
X0240682Y0099862D03*
X0252131Y0095573D03*
X0259462Y0099300D03*
X0270762Y0101800D03*
X0276062Y0109389D03*
X0279039Y0111189D03*
X0294953Y0093291D03*
X0315354Y0109108D03*
X0317843Y0111525D03*
X0323451Y0089426D03*
X0320762Y0077000D03*
X0322362Y0070500D03*
X0352162Y0102800D03*
X0293262Y0132400D03*
X0288662Y0138897D03*
X0283124Y0137097D03*
X0273963Y0137521D03*
X0268393Y0150200D03*
X0289984Y0144017D03*
X0293362Y0143875D03*
X0317362Y0155600D03*
X0319851Y0158100D03*
X0362462Y0174450D03*
X0350762Y0211800D03*
X0298811Y0224000D03*
X0295762Y0266800D03*
X0304062Y0270000D03*
X0277362Y0273199D03*
X0270762Y0274700D03*
X0252162Y0273100D03*
X0245762Y0274700D03*
X0249462Y0266100D03*
X0229062Y0266700D03*
X0210762Y0276800D03*
X0210762Y0281800D03*
X0185762Y0289200D03*
X0185762Y0294300D03*
X0164875Y0265914D03*
X0159762Y0260500D03*
X0185762Y0258900D03*
X0180762Y0221800D03*
X0185762Y0211800D03*
X0163262Y0211800D03*
X0176662Y0192700D03*
X0163262Y0183168D03*
X0180762Y0161800D03*
X0193862Y0184500D03*
X0209962Y0183600D03*
X0212362Y0186900D03*
X0213813Y0196800D03*
X0219991Y0203100D03*
X0240762Y0216800D03*
X0240762Y0221800D03*
X0235762Y0176800D03*
X0222762Y0159400D03*
X0213813Y0158650D03*
X0216902Y0149449D03*
X0222362Y0145600D03*
X0235762Y0156800D03*
X0193273Y0122000D03*
X0212362Y0097900D03*
X0161893Y0048069D03*
X0159962Y0037450D03*
X0156584Y0036253D03*
X0153206Y0036111D03*
X0150901Y0033639D03*
X0147273Y0033747D03*
X0142271Y0037009D03*
X0094865Y0049901D03*
X0092887Y0052700D03*
X0128303Y0093857D03*
X0130762Y0251800D03*
X0098726Y0267047D03*
D39*
X0125326Y0267047D01*
X0125326Y0240976D01*
X0140762Y0225540D01*
X0149522Y0225540D01*
X0163262Y0211800D01*
X0185762Y0211800D01*
X0185762Y0205540D01*
X0165762Y0205540D02*
X0163262Y0208040D01*
X0163262Y0211800D01*
X0140762Y0205934D02*
X0140762Y0218060D01*
X0148502Y0253060D02*
X0147362Y0254200D01*
X0147362Y0293200D01*
X0154362Y0300200D01*
X0216462Y0300200D01*
X0220012Y0296650D01*
X0220012Y0291800D01*
X0220012Y0281550D01*
X0224762Y0276800D01*
X0224762Y0266800D01*
X0224762Y0256800D01*
X0224862Y0266700D02*
X0224762Y0266800D01*
X0210762Y0276800D02*
X0210762Y0281800D01*
X0201512Y0281550D02*
X0196762Y0276800D01*
X0196762Y0266800D01*
X0194478Y0264517D01*
X0185762Y0264517D01*
X0179493Y0260800D02*
X0184482Y0255811D01*
X0187041Y0255811D01*
X0188030Y0256800D01*
X0196762Y0256800D01*
X0197295Y0256800D01*
X0201654Y0252441D01*
X0259303Y0252441D01*
X0274462Y0267600D01*
X0274462Y0248350D01*
X0298811Y0224000D01*
X0322062Y0224000D01*
X0334262Y0211800D01*
X0274462Y0267600D02*
X0274462Y0271800D01*
X0275861Y0273199D01*
X0277362Y0273199D01*
X0272350Y0276288D02*
X0247350Y0276288D01*
X0245762Y0274700D01*
X0245762Y0271800D01*
X0249462Y0271800D02*
X0249462Y0266100D01*
X0249462Y0271800D02*
X0250762Y0273100D01*
X0252162Y0273100D01*
X0270762Y0271800D02*
X0270762Y0274700D01*
X0272350Y0276288D01*
X0290762Y0276288D01*
X0303951Y0276800D02*
X0304062Y0276689D01*
X0304062Y0270000D01*
X0219991Y0203100D02*
X0219991Y0202978D01*
X0213813Y0196800D01*
X0268393Y0150200D02*
X0318562Y0150200D01*
X0328262Y0140500D01*
X0328262Y0137824D01*
X0294953Y0093291D02*
X0299862Y0088383D01*
X0299862Y0087954D01*
X0301316Y0086500D01*
X0304562Y0086500D01*
X0270762Y0101800D02*
X0268262Y0104300D01*
X0264738Y0104300D01*
X0247002Y0124300D02*
X0247002Y0130140D01*
X0247062Y0130200D01*
X0215762Y0113500D02*
X0215762Y0148309D01*
X0216902Y0149449D01*
X0215762Y0113500D02*
X0215762Y0111800D01*
X0080762Y0203611D02*
X0080762Y0213060D01*
X0080762Y0203611D02*
X0073251Y0196100D01*
X0068273Y0209500D02*
X0068273Y0227501D01*
X0065962Y0229812D01*
X0065962Y0233788D01*
X0068774Y0236600D01*
X0075562Y0236600D01*
X0080762Y0241800D01*
X0098726Y0267047D02*
X0085962Y0279812D01*
X0085962Y0286600D01*
X0080762Y0291800D01*
X0125326Y0267047D02*
X0126381Y0268102D01*
X0126381Y0268679D01*
X0129502Y0271800D01*
X0129502Y0281800D01*
X0158675Y0281800D02*
X0158675Y0267745D01*
X0165880Y0260540D01*
X0175502Y0260540D01*
X0175762Y0260800D01*
X0179493Y0260800D01*
X0164875Y0265914D02*
X0164875Y0273827D01*
X0172848Y0281800D01*
X0175565Y0279083D01*
X0185762Y0279083D01*
X0201512Y0281550D02*
X0201512Y0291800D01*
X0159762Y0260500D02*
X0155683Y0260500D01*
X0155643Y0260540D01*
X0155643Y0253060D02*
X0148502Y0253060D01*
D40*
X0153281Y0094477D02*
X0155250Y0094477D01*
D41*
X0146607Y0099183D02*
X0146607Y0103954D01*
X0146242Y0104320D01*
X0143439Y0104320D01*
X0143439Y0110225D02*
X0141151Y0110225D01*
X0140973Y0110047D01*
X0140973Y0117921D02*
X0141151Y0118099D01*
X0143439Y0118099D01*
X0202494Y0094477D02*
X0202494Y0092332D01*
X0202216Y0092054D01*
X0202216Y0092053D01*
X0155763Y0045600D01*
X0146662Y0045600D01*
X0145526Y0044464D01*
X0145526Y0041800D01*
X0147226Y0041531D02*
X0147226Y0038893D01*
X0145342Y0037009D01*
X0142271Y0037009D01*
X0147262Y0036300D02*
X0147273Y0036289D01*
X0147273Y0033747D01*
X0147262Y0036300D02*
X0148017Y0036300D01*
X0149017Y0037300D01*
X0149017Y0038433D01*
X0149463Y0038879D01*
X0149463Y0041800D01*
X0147494Y0041800D02*
X0147226Y0041531D01*
X0096362Y0041751D02*
X0096362Y0036700D01*
X0096362Y0041751D02*
X0096313Y0041800D01*
X0208400Y0094477D02*
X0208678Y0094755D01*
X0208678Y0097594D01*
X0215762Y0104679D01*
X0215762Y0111800D01*
X0218462Y0111800D01*
X0220062Y0110200D01*
X0228059Y0110200D01*
X0228085Y0110225D01*
X0228085Y0112194D02*
X0223768Y0112194D01*
X0220662Y0115300D01*
X0220551Y0115300D01*
X0215762Y0113500D02*
X0215762Y0111800D01*
X0221589Y0125973D02*
X0221562Y0126000D01*
X0221589Y0125973D02*
X0228085Y0125973D01*
X0228026Y0145600D02*
X0222362Y0145600D01*
X0228026Y0145600D02*
X0228085Y0145658D01*
X0228148Y0151500D02*
X0232462Y0151500D01*
X0228148Y0151500D02*
X0228085Y0151564D01*
X0225198Y0151564D01*
X0225162Y0151600D01*
X0222762Y0159400D02*
X0222800Y0159438D01*
X0228085Y0159438D01*
X0228085Y0165343D02*
X0225105Y0165343D01*
X0225062Y0165300D01*
X0220312Y0165050D02*
X0220213Y0165050D01*
X0213813Y0158650D01*
X0206431Y0179123D02*
X0206163Y0179391D01*
X0206163Y0185703D01*
X0204977Y0186889D01*
X0204988Y0186900D01*
X0212362Y0186900D01*
X0204977Y0186889D02*
X0192872Y0186889D01*
X0188383Y0182400D01*
X0185662Y0182400D01*
X0184778Y0181516D01*
X0184778Y0179123D01*
X0176904Y0179123D02*
X0176904Y0176835D01*
X0177081Y0176657D01*
X0192652Y0183890D02*
X0193252Y0183890D01*
X0193862Y0184500D01*
X0201763Y0184500D01*
X0204463Y0181800D01*
X0204463Y0181999D01*
X0203662Y0182800D01*
X0204463Y0181800D02*
X0204463Y0179123D01*
D42*
X0143439Y0161406D02*
X0143261Y0161584D01*
X0140973Y0161584D01*
D43*
X0289262Y0172700D03*
X0288262Y0187500D03*
X0287962Y0206700D03*
X0304462Y0214600D03*
X0295662Y0077800D03*
X0298862Y0061700D03*
X0328762Y0072900D03*
D44*
X0381149Y0156013D02*
X0413360Y0156013D01*
X0381149Y0156013D02*
X0377562Y0159600D01*
X0377562Y0159626D01*
X0371962Y0165226D01*
X0371962Y0251780D01*
X0390289Y0270107D01*
X0390289Y0283493D01*
X0351234Y0283493D02*
X0351234Y0270107D01*
X0351234Y0283493D02*
X0334266Y0283493D01*
X0327573Y0276800D01*
X0303951Y0276800D02*
X0291274Y0276800D01*
X0290762Y0276288D01*
M02*
