G75*
%MOIN*%
%OFA0B0*%
%FSLAX26Y26*%
%IPPOS*%
%LPD*%
%AMOC8*
5,1,8,0,0,1.08239X$1,22.5*
%
%ADD10C,0.112000*%
%ADD11OC8,0.060000*%
%ADD12R,0.047244X0.047244*%
%ADD13R,0.059055X0.051181*%
%ADD14R,0.078000X0.022000*%
%ADD15R,0.058000X0.020000*%
%ADD16R,0.020000X0.058000*%
%ADD17R,0.023622X0.047244*%
%ADD18R,0.047244X0.023622*%
%ADD19R,0.011811X0.049213*%
%ADD20R,0.078740X0.118110*%
%ADD21C,0.112205*%
%ADD22C,0.106299*%
%ADD23R,0.039370X0.011811*%
%ADD24R,0.011811X0.039370*%
%ADD25R,0.051181X0.059055*%
%ADD26R,0.070866X0.062992*%
%ADD27R,0.062992X0.086614*%
%ADD28C,0.094488*%
%ADD29R,0.022000X0.052000*%
%ADD30R,0.047244X0.021654*%
%ADD31R,0.047244X0.051181*%
%ADD32R,0.070866X0.157480*%
%ADD33R,0.055118X0.055118*%
%ADD34R,0.051181X0.047244*%
%ADD35R,0.100000X0.100000*%
D10*
X00150000Y00150000D03*
X04100000Y00150000D03*
X04100000Y03150000D03*
X00150000Y03150000D03*
D11*
X00450000Y02900000D03*
X00450000Y02800000D03*
X00550000Y02800000D03*
X00650000Y02800000D03*
X00750000Y02800000D03*
X00850000Y02800000D03*
X00850000Y02900000D03*
X00750000Y02900000D03*
X00650000Y02900000D03*
X00550000Y02900000D03*
X00550000Y02400000D03*
X00650000Y02400000D03*
X00750000Y02400000D03*
X00850000Y02400000D03*
X00850000Y02300000D03*
X00750000Y02300000D03*
X00650000Y02300000D03*
X00550000Y02300000D03*
X00450000Y02300000D03*
X00450000Y02400000D03*
X03300000Y00950000D03*
X03300000Y00850000D03*
X03300000Y00750000D03*
X03400000Y00750000D03*
X03400000Y00850000D03*
X03400000Y00950000D03*
D12*
X01500000Y01958661D03*
X01500000Y02041339D03*
X01300000Y02041339D03*
X01300000Y01958661D03*
X01150000Y01958661D03*
X01150000Y02041339D03*
D13*
X01150000Y02162598D03*
X01150000Y02237402D03*
X01400000Y02037402D03*
X01400000Y01962598D03*
X01600000Y01962598D03*
X01600000Y02037402D03*
X00650000Y02112598D03*
X00650000Y02187402D03*
X00550000Y02187402D03*
X00550000Y02112598D03*
X00650000Y02512598D03*
X00650000Y02587402D03*
X00300000Y02812598D03*
X00300000Y02887402D03*
D14*
X02715000Y02100000D03*
X02715000Y02050000D03*
X02715000Y02000000D03*
X02715000Y01950000D03*
X02715000Y01900000D03*
X02715000Y01850000D03*
X02715000Y01800000D03*
X02715000Y01750000D03*
X02715000Y01700000D03*
X03085000Y01700000D03*
X03085000Y01750000D03*
X03085000Y01800000D03*
X03085000Y01850000D03*
X03085000Y01900000D03*
X03085000Y01950000D03*
X03085000Y02000000D03*
X03085000Y02050000D03*
X03085000Y02100000D03*
D15*
X03112000Y00910000D03*
X03112000Y00879000D03*
X03112000Y00847000D03*
X03112000Y00816000D03*
X03112000Y00784000D03*
X03112000Y00753000D03*
X03112000Y00721000D03*
X03112000Y00690000D03*
X02788000Y00690000D03*
X02788000Y00721000D03*
X02788000Y00753000D03*
X02788000Y00784000D03*
X02788000Y00816000D03*
X02788000Y00847000D03*
X02788000Y00879000D03*
X02788000Y00910000D03*
D16*
X02840000Y00962000D03*
X02871000Y00962000D03*
X02903000Y00962000D03*
X02934000Y00962000D03*
X02966000Y00962000D03*
X02997000Y00962000D03*
X03029000Y00962000D03*
X03060000Y00962000D03*
X03060000Y00638000D03*
X03029000Y00638000D03*
X02997000Y00638000D03*
X02966000Y00638000D03*
X02934000Y00638000D03*
X02903000Y00638000D03*
X02871000Y00638000D03*
X02840000Y00638000D03*
D17*
X02825000Y01139764D03*
X02775000Y01139764D03*
X02725000Y01139764D03*
X02675000Y01139764D03*
X02875000Y01139764D03*
X02925000Y01139764D03*
X02975000Y01139764D03*
X03025000Y01139764D03*
X03025000Y01360236D03*
X02975000Y01360236D03*
X02925000Y01360236D03*
X02875000Y01360236D03*
X02825000Y01360236D03*
X02775000Y01360236D03*
X02725000Y01360236D03*
X02675000Y01360236D03*
D18*
X02610236Y01025000D03*
X02610236Y00975000D03*
X02610236Y00925000D03*
X02610236Y00875000D03*
X02610236Y00825000D03*
X02610236Y00775000D03*
X02610236Y00725000D03*
X02610236Y00675000D03*
X02389764Y00675000D03*
X02389764Y00725000D03*
X02389764Y00775000D03*
X02389764Y00825000D03*
X02389764Y00875000D03*
X02389764Y00925000D03*
X02389764Y00975000D03*
X02389764Y01025000D03*
D19*
X01433858Y00400000D03*
X01414173Y00400000D03*
X01394488Y00400000D03*
X01374803Y00400000D03*
X01355118Y00400000D03*
X01335433Y00400000D03*
X01315748Y00400000D03*
X01296063Y00400000D03*
X01276378Y00400000D03*
X01256693Y00400000D03*
X01237008Y00400000D03*
X01217323Y00400000D03*
X01197638Y00400000D03*
X01177953Y00400000D03*
X01158268Y00400000D03*
X01138583Y00400000D03*
X01118898Y00400000D03*
X01099213Y00400000D03*
X01079528Y00400000D03*
X01059843Y00400000D03*
X01040157Y00400000D03*
X01020472Y00400000D03*
X01000787Y00400000D03*
X00981102Y00400000D03*
X00961417Y00400000D03*
X00941732Y00400000D03*
X00922047Y00400000D03*
X00902362Y00400000D03*
X00882677Y00400000D03*
X00862992Y00400000D03*
X00843307Y00400000D03*
X00823622Y00400000D03*
X00803937Y00400000D03*
X00784252Y00400000D03*
X00764567Y00400000D03*
X00744882Y00400000D03*
X00725197Y00400000D03*
X00705512Y00400000D03*
X00685827Y00400000D03*
X00666142Y00400000D03*
D20*
X00612992Y00490551D03*
X01487008Y00492520D03*
D21*
X03895669Y01207480D03*
X03895669Y02034252D03*
D22*
X04033465Y01778346D03*
X03875984Y01699606D03*
X04033465Y01620866D03*
X03875984Y01542126D03*
X04033465Y01463386D03*
X03718504Y01463386D03*
X03718504Y01620866D03*
X03718504Y01778346D03*
D23*
X02023228Y01694488D03*
X02023228Y01674803D03*
X02023228Y01655118D03*
X02023228Y01635433D03*
X02023228Y01615748D03*
X02023228Y01596063D03*
X02023228Y01576378D03*
X02023228Y01556693D03*
X02023228Y01537008D03*
X02023228Y01517323D03*
X02023228Y01497638D03*
X02023228Y01477953D03*
X02023228Y01458268D03*
X02023228Y01438583D03*
X02023228Y01418898D03*
X02023228Y01399213D03*
X02023228Y01379528D03*
X02023228Y01359843D03*
X02023228Y01340157D03*
X02023228Y01320472D03*
X02023228Y01300787D03*
X02023228Y01281102D03*
X02023228Y01261417D03*
X02023228Y01241732D03*
X02023228Y01222047D03*
X02023228Y01202362D03*
X02023228Y01182677D03*
X02023228Y01162992D03*
X02023228Y01143307D03*
X02023228Y01123622D03*
X02023228Y01103937D03*
X02023228Y01084252D03*
X02023228Y01064567D03*
X02023228Y01044882D03*
X02023228Y01025197D03*
X02023228Y01005512D03*
X01176772Y01005512D03*
X01176772Y01025197D03*
X01176772Y01044882D03*
X01176772Y01064567D03*
X01176772Y01084252D03*
X01176772Y01103937D03*
X01176772Y01123622D03*
X01176772Y01143307D03*
X01176772Y01162992D03*
X01176772Y01182677D03*
X01176772Y01202362D03*
X01176772Y01222047D03*
X01176772Y01241732D03*
X01176772Y01261417D03*
X01176772Y01281102D03*
X01176772Y01300787D03*
X01176772Y01320472D03*
X01176772Y01340157D03*
X01176772Y01359843D03*
X01176772Y01379528D03*
X01176772Y01399213D03*
X01176772Y01418898D03*
X01176772Y01438583D03*
X01176772Y01458268D03*
X01176772Y01477953D03*
X01176772Y01497638D03*
X01176772Y01517323D03*
X01176772Y01537008D03*
X01176772Y01556693D03*
X01176772Y01576378D03*
X01176772Y01596063D03*
X01176772Y01615748D03*
X01176772Y01635433D03*
X01176772Y01655118D03*
X01176772Y01674803D03*
X01176772Y01694488D03*
D24*
X01255512Y01773228D03*
X01275197Y01773228D03*
X01294882Y01773228D03*
X01314567Y01773228D03*
X01334252Y01773228D03*
X01353937Y01773228D03*
X01373622Y01773228D03*
X01393307Y01773228D03*
X01412992Y01773228D03*
X01432677Y01773228D03*
X01452362Y01773228D03*
X01472047Y01773228D03*
X01491732Y01773228D03*
X01511417Y01773228D03*
X01531102Y01773228D03*
X01550787Y01773228D03*
X01570472Y01773228D03*
X01590157Y01773228D03*
X01609843Y01773228D03*
X01629528Y01773228D03*
X01649213Y01773228D03*
X01668898Y01773228D03*
X01688583Y01773228D03*
X01708268Y01773228D03*
X01727953Y01773228D03*
X01747638Y01773228D03*
X01767323Y01773228D03*
X01787008Y01773228D03*
X01806693Y01773228D03*
X01826378Y01773228D03*
X01846063Y01773228D03*
X01865748Y01773228D03*
X01885433Y01773228D03*
X01905118Y01773228D03*
X01924803Y01773228D03*
X01944488Y01773228D03*
X01944488Y00926772D03*
X01924803Y00926772D03*
X01905118Y00926772D03*
X01885433Y00926772D03*
X01865748Y00926772D03*
X01846063Y00926772D03*
X01826378Y00926772D03*
X01806693Y00926772D03*
X01787008Y00926772D03*
X01767323Y00926772D03*
X01747638Y00926772D03*
X01727953Y00926772D03*
X01708268Y00926772D03*
X01688583Y00926772D03*
X01668898Y00926772D03*
X01649213Y00926772D03*
X01629528Y00926772D03*
X01609843Y00926772D03*
X01590157Y00926772D03*
X01570472Y00926772D03*
X01550787Y00926772D03*
X01531102Y00926772D03*
X01511417Y00926772D03*
X01491732Y00926772D03*
X01472047Y00926772D03*
X01452362Y00926772D03*
X01432677Y00926772D03*
X01412992Y00926772D03*
X01393307Y00926772D03*
X01373622Y00926772D03*
X01353937Y00926772D03*
X01334252Y00926772D03*
X01314567Y00926772D03*
X01294882Y00926772D03*
X01275197Y00926772D03*
X01255512Y00926772D03*
D25*
X02137598Y01225000D03*
X02212402Y01225000D03*
X01037402Y02700000D03*
X00962598Y02700000D03*
X00962598Y02800000D03*
X01037402Y02800000D03*
D26*
X02650000Y02744882D03*
X02650000Y02855118D03*
D27*
X02781890Y02750000D03*
X03018110Y02750000D03*
D28*
X03207480Y02683071D02*
X03301969Y02683071D01*
X03301969Y02816929D02*
X03207480Y02816929D01*
X03598031Y02816929D02*
X03692520Y02816929D01*
X03692520Y02683071D02*
X03598031Y02683071D01*
D29*
X02487000Y02700000D03*
X02450000Y02700000D03*
X02413000Y02700000D03*
X02413000Y02800000D03*
X02487000Y02800000D03*
X02237000Y02800000D03*
X02163000Y02800000D03*
X02163000Y02700000D03*
X02200000Y02700000D03*
X02237000Y02700000D03*
D30*
X01401185Y02587402D03*
X01401185Y02512598D03*
X01298815Y02512598D03*
X01298815Y02550000D03*
X01298815Y02587402D03*
D31*
X01710000Y02550000D03*
X01790000Y02550000D03*
X01910000Y02550000D03*
X01990000Y02550000D03*
X01990000Y02650000D03*
X01910000Y02650000D03*
X01790000Y02650000D03*
X01710000Y02650000D03*
X01710000Y02750000D03*
X01790000Y02750000D03*
X01910000Y02750000D03*
X01990000Y02750000D03*
D32*
X01470866Y02800000D03*
X01329134Y02800000D03*
D33*
X01600000Y02772835D03*
X01600000Y02627165D03*
D34*
X01500000Y02590000D03*
X01500000Y02510000D03*
D35*
X01757500Y02900000D03*
X01942500Y02900000D03*
M02*
